M48
; DRILL file {KiCad 5.1.10} date Tue Jul 13 00:44:06 2021
; FORMAT={-:-/ absolute / inch / decimal}
; #@! TF.CreationDate,2021-07-13T00:44:06-04:00
; #@! TF.GenerationSoftware,Kicad,Pcbnew,5.1.10
; #@! TF.FileFunction,Plated,1,2,PTH
FMAT,2
INCH
T1C0.0157
T2C0.0354
T3C0.0394
T4C0.0400
T5C0.0402
T6C0.0472
T7C0.0591
%
G90
G05
T1
X2.1Y-3.875
X2.1105Y-3.7776
X2.325Y-4.05
X2.5Y-5.1
X2.525Y-4.025
X2.575Y-3.65
X2.675Y-3.7
X2.825Y-4.2
X2.925Y-4.1
X3.0Y-4.475
X3.175Y-3.325
X3.175Y-3.65
X3.275Y-3.15
X3.45Y-3.625
X3.5Y-4.325
X3.5937Y-3.7313
X3.925Y-3.55
X3.925Y-4.125
X3.95Y-2.975
X4.2Y-4.725
X4.25Y-3.35
X4.7Y-3.125
X5.2Y-3.95
T2
X5.4Y-4.8713
X5.4Y-4.95
X5.4Y-5.0287
T3
X3.65Y-2.8
X3.75Y-2.8
X5.05Y-4.95
X5.15Y-4.95
T4
X2.1Y-4.925
X2.1Y-5.025
X2.2Y-4.925
X2.2Y-5.025
X2.3Y-4.925
X2.3Y-5.025
T5
X4.7695Y-4.5848
X4.7695Y-5.175
T6
X2.0372Y-4.45
X2.1031Y-3.1504
X2.2343Y-4.2531
X2.2343Y-4.3516
X2.2343Y-4.5484
X2.2343Y-4.6469
X2.3Y-3.1504
X2.3531Y-2.7343
X2.4516Y-2.7343
X2.4969Y-3.1504
X2.55Y-2.5372
X2.6484Y-2.7343
X2.7469Y-2.7343
X2.8031Y-3.8496
X3.0Y-3.8496
X3.1969Y-3.8496
X3.5031Y-3.1504
X3.7Y-3.1504
X3.8969Y-3.1504
X4.2031Y-3.8496
X4.4Y-3.8496
X4.5969Y-3.8496
X4.6531Y-2.7343
X4.7516Y-2.7343
X4.85Y-2.5372
X4.9031Y-3.1504
X4.9484Y-2.7343
X5.0469Y-2.7343
X5.1Y-3.1504
X5.1657Y-4.2531
X5.1657Y-4.3516
X5.1657Y-4.5484
X5.1657Y-4.6469
X5.2969Y-3.1504
X5.3628Y-4.45
T7
X5.4Y-4.7886
X5.4Y-5.1114
T0
M30
