%TF.GenerationSoftware,KiCad,Pcbnew,5.1.10*%
%TF.CreationDate,2022-02-27T11:21:51-05:00*%
%TF.ProjectId,synth,73796e74-682e-46b6-9963-61645f706362,rev?*%
%TF.SameCoordinates,Original*%
%TF.FileFunction,Copper,L2,Bot*%
%TF.FilePolarity,Positive*%
%FSLAX46Y46*%
G04 Gerber Fmt 4.6, Leading zero omitted, Abs format (unit mm)*
G04 Created by KiCad (PCBNEW 5.1.10) date 2022-02-27 11:21:51*
%MOMM*%
%LPD*%
G01*
G04 APERTURE LIST*
%TA.AperFunction,ComponentPad*%
%ADD10O,2.032000X2.032000*%
%TD*%
%TA.AperFunction,ComponentPad*%
%ADD11R,2.032000X2.032000*%
%TD*%
%TA.AperFunction,ComponentPad*%
%ADD12O,1.727200X2.032000*%
%TD*%
%TA.AperFunction,ComponentPad*%
%ADD13R,1.727200X2.032000*%
%TD*%
%TA.AperFunction,SMDPad,CuDef*%
%ADD14R,2.000000X2.500000*%
%TD*%
%TA.AperFunction,SMDPad,CuDef*%
%ADD15R,0.900000X1.200000*%
%TD*%
%TA.AperFunction,SMDPad,CuDef*%
%ADD16R,1.143000X0.508000*%
%TD*%
%TA.AperFunction,SMDPad,CuDef*%
%ADD17R,1.200000X0.750000*%
%TD*%
%TA.AperFunction,SMDPad,CuDef*%
%ADD18R,0.640000X2.000000*%
%TD*%
%TA.AperFunction,SMDPad,CuDef*%
%ADD19R,1.500000X1.600000*%
%TD*%
%TA.AperFunction,SMDPad,CuDef*%
%ADD20R,1.200000X0.900000*%
%TD*%
%TA.AperFunction,ComponentPad*%
%ADD21R,2.235200X2.235200*%
%TD*%
%TA.AperFunction,SMDPad,CuDef*%
%ADD22R,0.750000X1.200000*%
%TD*%
%TA.AperFunction,ComponentPad*%
%ADD23C,1.900000*%
%TD*%
%TA.AperFunction,ComponentPad*%
%ADD24R,2.000000X1.900000*%
%TD*%
%TA.AperFunction,SMDPad,CuDef*%
%ADD25R,1.250000X1.500000*%
%TD*%
%TA.AperFunction,ViaPad*%
%ADD26C,0.800000*%
%TD*%
%TA.AperFunction,Conductor*%
%ADD27C,0.250000*%
%TD*%
%TA.AperFunction,Conductor*%
%ADD28C,0.100000*%
%TD*%
G04 APERTURE END LIST*
D10*
%TO.P,J4,2*%
%TO.N,GND*%
X137750000Y-112540000D03*
D11*
%TO.P,J4,1*%
%TO.N,/UPDI*%
X137750000Y-110000000D03*
%TD*%
D12*
%TO.P,RV3,3*%
%TO.N,VDD*%
X138040000Y-79500000D03*
%TO.P,RV3,2*%
%TO.N,Net-(R11-Pad2)*%
X135500000Y-79500000D03*
D13*
%TO.P,RV3,1*%
%TO.N,GND*%
X132960000Y-79500000D03*
%TD*%
D14*
%TO.P,C10,2*%
%TO.N,Net-(C10-Pad2)*%
X134000000Y-87500000D03*
%TO.P,C10,1*%
%TO.N,Net-(C10-Pad1)*%
X138000000Y-87500000D03*
%TD*%
%TO.P,C8,2*%
%TO.N,Net-(C7-Pad2)*%
X126000000Y-87500000D03*
%TO.P,C8,1*%
%TO.N,Net-(C7-Pad1)*%
X122000000Y-87500000D03*
%TD*%
D12*
%TO.P,J3,3*%
%TO.N,GND*%
X132540000Y-67250000D03*
%TO.P,J3,2*%
%TO.N,Net-(C10-Pad1)*%
X130000000Y-67250000D03*
D13*
%TO.P,J3,1*%
%TO.N,Net-(C7-Pad1)*%
X127460000Y-67250000D03*
%TD*%
D15*
%TO.P,R6,2*%
%TO.N,Net-(R2-Pad1)*%
X135750000Y-90900000D03*
%TO.P,R6,1*%
%TO.N,Net-(C10-Pad2)*%
X135750000Y-93100000D03*
%TD*%
D14*
%TO.P,C9,2*%
%TO.N,Net-(C10-Pad2)*%
X134000000Y-84000000D03*
%TO.P,C9,1*%
%TO.N,Net-(C10-Pad1)*%
X138000000Y-84000000D03*
%TD*%
D16*
%TO.P,U1,1*%
%TO.N,Net-(C7-Pad2)*%
X126825000Y-94905000D03*
%TO.P,U1,2*%
%TO.N,Net-(R1-Pad1)*%
X126825000Y-93635000D03*
%TO.P,U1,3*%
%TO.N,Net-(C5-Pad2)*%
X126825000Y-92365000D03*
%TO.P,U1,4*%
%TO.N,GND*%
X126825000Y-91095000D03*
%TO.P,U1,5*%
X133175000Y-91095000D03*
%TO.P,U1,6*%
%TO.N,Net-(R2-Pad1)*%
X133175000Y-92365000D03*
%TO.P,U1,7*%
%TO.N,Net-(C10-Pad2)*%
X133175000Y-93635000D03*
%TO.P,U1,8*%
%TO.N,VDD*%
X133175000Y-94905000D03*
%TD*%
D15*
%TO.P,R7,2*%
%TO.N,Net-(J2-Pad2)*%
X133500000Y-112600000D03*
%TO.P,R7,1*%
%TO.N,Net-(D6-Pad1)*%
X133500000Y-110400000D03*
%TD*%
D17*
%TO.P,C6,2*%
%TO.N,GND*%
X131550000Y-115000000D03*
%TO.P,C6,1*%
%TO.N,Net-(C6-Pad1)*%
X133450000Y-115000000D03*
%TD*%
D18*
%TO.P,U2,6*%
%TO.N,VDD*%
X131270000Y-101350000D03*
%TO.P,U2,5*%
%TO.N,/MIDI_IN*%
X130000000Y-101350000D03*
%TO.P,U2,4*%
%TO.N,GND*%
X128730000Y-101350000D03*
%TO.P,U2,3*%
%TO.N,Net-(D6-Pad2)*%
X128730000Y-107650000D03*
%TO.P,U2,1*%
%TO.N,Net-(D6-Pad1)*%
X131270000Y-107650000D03*
%TD*%
D19*
%TO.P,X1,1*%
%TO.N,Net-(X1-Pad1)*%
X122150000Y-100040000D03*
%TO.P,X1,2*%
%TO.N,GND*%
X122150000Y-97500000D03*
%TO.P,X1,3*%
%TO.N,/CLK*%
X124350000Y-97500000D03*
%TO.P,X1,4*%
%TO.N,VDD*%
X124350000Y-100040000D03*
%TD*%
D12*
%TO.P,RV4,3*%
%TO.N,VDD*%
X127040000Y-74500000D03*
%TO.P,RV4,2*%
%TO.N,Net-(R12-Pad2)*%
X124500000Y-74500000D03*
D13*
%TO.P,RV4,1*%
%TO.N,GND*%
X121960000Y-74500000D03*
%TD*%
D12*
%TO.P,RV2,3*%
%TO.N,VDD*%
X127080000Y-79500000D03*
%TO.P,RV2,2*%
%TO.N,Net-(R10-Pad2)*%
X124540000Y-79500000D03*
D13*
%TO.P,RV2,1*%
%TO.N,GND*%
X122000000Y-79500000D03*
%TD*%
D12*
%TO.P,RV1,3*%
%TO.N,/DAC*%
X138040000Y-74500000D03*
%TO.P,RV1,2*%
%TO.N,Net-(R1-Pad2)*%
X135500000Y-74500000D03*
D13*
%TO.P,RV1,1*%
%TO.N,Net-(C3-Pad1)*%
X132960000Y-74500000D03*
%TD*%
D20*
%TO.P,R12,2*%
%TO.N,Net-(R12-Pad2)*%
X128350000Y-72000000D03*
%TO.P,R12,1*%
%TO.N,/SELECT*%
X126150000Y-72000000D03*
%TD*%
%TO.P,R11,2*%
%TO.N,Net-(R11-Pad2)*%
X138350000Y-77000000D03*
%TO.P,R11,1*%
%TO.N,/FREQ*%
X136150000Y-77000000D03*
%TD*%
%TO.P,R10,2*%
%TO.N,Net-(R10-Pad2)*%
X128350000Y-77000000D03*
%TO.P,R10,1*%
%TO.N,/DEPTH*%
X126150000Y-77000000D03*
%TD*%
%TO.P,R9,2*%
%TO.N,Net-(C10-Pad1)*%
X131400000Y-70000000D03*
%TO.P,R9,1*%
%TO.N,GND*%
X133600000Y-70000000D03*
%TD*%
%TO.P,R8,2*%
%TO.N,Net-(C7-Pad1)*%
X128600000Y-70000000D03*
%TO.P,R8,1*%
%TO.N,GND*%
X126400000Y-70000000D03*
%TD*%
D15*
%TO.P,R5,2*%
%TO.N,Net-(R1-Pad1)*%
X123000000Y-91900000D03*
%TO.P,R5,1*%
%TO.N,Net-(C7-Pad2)*%
X123000000Y-94100000D03*
%TD*%
%TO.P,R4,1*%
%TO.N,/LED*%
X134250000Y-103900000D03*
%TO.P,R4,2*%
%TO.N,Net-(D3-Pad2)*%
X134250000Y-106100000D03*
%TD*%
%TO.P,R3,2*%
%TO.N,Net-(D2-Pad2)*%
X126000000Y-104150000D03*
%TO.P,R3,1*%
%TO.N,VDD*%
X126000000Y-106350000D03*
%TD*%
%TO.P,R2,2*%
%TO.N,Net-(R1-Pad2)*%
X131500000Y-82650000D03*
%TO.P,R2,1*%
%TO.N,Net-(R2-Pad1)*%
X131500000Y-84850000D03*
%TD*%
%TO.P,R1,2*%
%TO.N,Net-(R1-Pad2)*%
X128500000Y-82650000D03*
%TO.P,R1,1*%
%TO.N,Net-(R1-Pad1)*%
X128500000Y-84850000D03*
%TD*%
D12*
%TO.P,J2,3*%
%TO.N,Net-(C6-Pad1)*%
X132540000Y-118000000D03*
%TO.P,J2,2*%
%TO.N,Net-(J2-Pad2)*%
X130000000Y-118000000D03*
D13*
%TO.P,J2,1*%
%TO.N,Net-(D6-Pad2)*%
X127460000Y-118000000D03*
%TD*%
D21*
%TO.P,J1,1*%
%TO.N,/MIDI_OUT*%
X138000000Y-97200000D03*
%TD*%
D17*
%TO.P,D6,1*%
%TO.N,Net-(D6-Pad1)*%
X129270000Y-115000000D03*
%TO.P,D6,2*%
%TO.N,Net-(D6-Pad2)*%
X126730000Y-115000000D03*
%TD*%
D22*
%TO.P,D5,1*%
%TO.N,Net-(C10-Pad2)*%
X131250000Y-86730000D03*
%TO.P,D5,2*%
%TO.N,GND*%
X131250000Y-89270000D03*
%TD*%
%TO.P,D4,1*%
%TO.N,Net-(C7-Pad2)*%
X128750000Y-86730000D03*
%TO.P,D4,2*%
%TO.N,GND*%
X128750000Y-89270000D03*
%TD*%
D23*
%TO.P,D3,2*%
%TO.N,Net-(D3-Pad2)*%
X136500000Y-103960000D03*
D24*
%TO.P,D3,1*%
%TO.N,GND*%
X136500000Y-106500000D03*
%TD*%
%TO.P,D2,1*%
%TO.N,GND*%
X123500000Y-106500000D03*
D23*
%TO.P,D2,2*%
%TO.N,Net-(D2-Pad2)*%
X123500000Y-103960000D03*
%TD*%
D22*
%TO.P,D1,1*%
%TO.N,VDD*%
X125500000Y-110000000D03*
%TO.P,D1,2*%
%TO.N,GND*%
X125500000Y-112540000D03*
%TD*%
D17*
%TO.P,C13,2*%
%TO.N,GND*%
X121850000Y-72000000D03*
%TO.P,C13,1*%
%TO.N,/SELECT*%
X123750000Y-72000000D03*
%TD*%
%TO.P,C12,2*%
%TO.N,GND*%
X131800000Y-77000000D03*
%TO.P,C12,1*%
%TO.N,/FREQ*%
X133700000Y-77000000D03*
%TD*%
%TO.P,C11,2*%
%TO.N,GND*%
X121800000Y-77000000D03*
%TO.P,C11,1*%
%TO.N,/DEPTH*%
X123700000Y-77000000D03*
%TD*%
D14*
%TO.P,C7,2*%
%TO.N,Net-(C7-Pad2)*%
X126000000Y-84000000D03*
%TO.P,C7,1*%
%TO.N,Net-(C7-Pad1)*%
X122000000Y-84000000D03*
%TD*%
D22*
%TO.P,C5,2*%
%TO.N,Net-(C5-Pad2)*%
X125000000Y-92450000D03*
%TO.P,C5,1*%
%TO.N,GND*%
X125000000Y-90550000D03*
%TD*%
%TO.P,C4,2*%
%TO.N,GND*%
X129500000Y-112450000D03*
%TO.P,C4,1*%
%TO.N,VDD*%
X129500000Y-110550000D03*
%TD*%
D17*
%TO.P,C3,2*%
%TO.N,GND*%
X133950000Y-72000000D03*
%TO.P,C3,1*%
%TO.N,Net-(C3-Pad1)*%
X132050000Y-72000000D03*
%TD*%
D22*
%TO.P,C2,2*%
%TO.N,GND*%
X127500000Y-112450000D03*
%TO.P,C2,1*%
%TO.N,VDD*%
X127500000Y-110550000D03*
%TD*%
D25*
%TO.P,C1,2*%
%TO.N,GND*%
X131500000Y-112750000D03*
%TO.P,C1,1*%
%TO.N,VDD*%
X131500000Y-110250000D03*
%TD*%
D10*
%TO.P,BT1,2*%
%TO.N,GND*%
X122250000Y-112540000D03*
D11*
%TO.P,BT1,1*%
%TO.N,VDD*%
X122250000Y-110000000D03*
%TD*%
D26*
%TO.N,GND*%
X127078164Y-100825845D03*
%TO.N,VDD*%
X127500000Y-105500000D03*
X131270000Y-99500000D03*
X130750000Y-103750000D03*
X123999976Y-101750000D03*
%TO.N,Net-(C6-Pad1)*%
X134750000Y-114749990D03*
%TO.N,/DEPTH*%
X125000000Y-77000000D03*
%TO.N,/FREQ*%
X134900000Y-77000000D03*
%TO.N,/SELECT*%
X125000000Y-72000000D03*
%TO.N,Net-(D6-Pad2)*%
X124500000Y-114000000D03*
X127250016Y-108500000D03*
%TO.N,Net-(J2-Pad2)*%
X134750000Y-112999984D03*
%TO.N,Net-(R1-Pad2)*%
X130024990Y-77750000D03*
%TO.N,Net-(R1-Pad1)*%
X129725000Y-93475000D03*
X129725000Y-84500000D03*
%TO.N,Net-(R2-Pad1)*%
X130499968Y-91750000D03*
X130500000Y-85250000D03*
%TO.N,/LED*%
X132500000Y-105750000D03*
%TO.N,/MIDI_IN*%
X135000000Y-95400000D03*
%TO.N,/CLK*%
X129000000Y-97500000D03*
%TD*%
D27*
%TO.N,GND*%
X129500000Y-112450000D02*
X130200000Y-112450000D01*
X130500000Y-112750000D02*
X131500000Y-112750000D01*
X130200000Y-112450000D02*
X130500000Y-112750000D01*
X127500000Y-112450000D02*
X129500000Y-112450000D01*
X127410000Y-112540000D02*
X127500000Y-112450000D01*
X125500000Y-112540000D02*
X127410000Y-112540000D01*
X125000000Y-90550000D02*
X125800000Y-90550000D01*
X126345000Y-91095000D02*
X126825000Y-91095000D01*
X125800000Y-90550000D02*
X126345000Y-91095000D01*
X131800000Y-77000000D02*
X132000000Y-77000000D01*
X132960000Y-77960000D02*
X132960000Y-79500000D01*
X132000000Y-77000000D02*
X132960000Y-77960000D01*
%TO.N,VDD*%
X126250000Y-110000000D02*
X125500000Y-110000000D01*
X126800000Y-110550000D02*
X126250000Y-110000000D01*
X127500000Y-110550000D02*
X126800000Y-110550000D01*
X127500000Y-110550000D02*
X129500000Y-110550000D01*
X131500000Y-110250000D02*
X130500000Y-110250000D01*
X130200000Y-110550000D02*
X129500000Y-110550000D01*
X130500000Y-110250000D02*
X130200000Y-110550000D01*
X126650000Y-106350000D02*
X127500000Y-105500000D01*
X126000000Y-106350000D02*
X126650000Y-106350000D01*
X132345000Y-94905000D02*
X133175000Y-94905000D01*
X131270000Y-95980000D02*
X132345000Y-94905000D01*
X122250000Y-110000000D02*
X125500000Y-110000000D01*
X125500000Y-108500000D02*
X126000000Y-108000000D01*
X126000000Y-108000000D02*
X126000000Y-106350000D01*
X125500000Y-110000000D02*
X125500000Y-108500000D01*
X131270000Y-100520000D02*
X131270000Y-95980000D01*
X131270000Y-101350000D02*
X131270000Y-100520000D01*
X131250000Y-100500000D02*
X131270000Y-100520000D01*
X131270000Y-101350000D02*
X131270000Y-103230000D01*
X131270000Y-103230000D02*
X130750000Y-103750000D01*
X124350000Y-100040000D02*
X124350000Y-101399976D01*
X124350000Y-101399976D02*
X123999976Y-101750000D01*
%TO.N,Net-(C3-Pad1)*%
X132050000Y-73590000D02*
X132960000Y-74500000D01*
X132050000Y-72000000D02*
X132050000Y-73590000D01*
%TO.N,Net-(C5-Pad2)*%
X126740000Y-92450000D02*
X126825000Y-92365000D01*
X125000000Y-92450000D02*
X126740000Y-92450000D01*
%TO.N,Net-(C6-Pad1)*%
X133450000Y-115000000D02*
X134499990Y-115000000D01*
X134499990Y-115000000D02*
X134750000Y-114749990D01*
%TO.N,Net-(C7-Pad2)*%
X124100000Y-94100000D02*
X123000000Y-94100000D01*
X124905000Y-94905000D02*
X124100000Y-94100000D01*
X126825000Y-94905000D02*
X124905000Y-94905000D01*
X123000000Y-94000000D02*
X122000000Y-93000000D01*
X123000000Y-94100000D02*
X123000000Y-94000000D01*
X126000000Y-84000000D02*
X126000000Y-87500000D01*
X126000000Y-87500000D02*
X125500000Y-87500000D01*
X122000000Y-91500000D02*
X122000000Y-91264998D01*
X122000000Y-93000000D02*
X122000000Y-91500000D01*
X126770000Y-86730000D02*
X126000000Y-87500000D01*
X128750000Y-86730000D02*
X126770000Y-86730000D01*
X122000000Y-91200000D02*
X122000000Y-91500000D01*
X124000000Y-89200000D02*
X122000000Y-91200000D01*
X124000000Y-88000000D02*
X124000000Y-89200000D01*
X124500000Y-87500000D02*
X124000000Y-88000000D01*
X126000000Y-87500000D02*
X124500000Y-87500000D01*
%TO.N,Net-(C7-Pad1)*%
X127460000Y-68860000D02*
X128600000Y-70000000D01*
X127460000Y-67250000D02*
X127460000Y-68860000D01*
X121500000Y-83750000D02*
X121500000Y-84000000D01*
X129275001Y-77710001D02*
X129275001Y-76289999D01*
X122000000Y-83750000D02*
X124250000Y-81500000D01*
X129274999Y-71262499D02*
X128600000Y-70587500D01*
X124250000Y-81500000D02*
X127500000Y-81500000D01*
X122000000Y-84000000D02*
X122000000Y-83750000D01*
X129274999Y-71289997D02*
X129274999Y-71262499D01*
X127500000Y-81500000D02*
X129274999Y-79725001D01*
X129274999Y-72710003D02*
X129275001Y-72710001D01*
X129274999Y-77710003D02*
X129275001Y-77710001D01*
X129274999Y-76289997D02*
X129274999Y-72710003D01*
X129275001Y-76289999D02*
X129274999Y-76289997D01*
X128600000Y-70587500D02*
X128600000Y-70000000D01*
X129274999Y-79725001D02*
X129274999Y-77710003D01*
X129275001Y-72710001D02*
X129275001Y-71289999D01*
X129275001Y-71289999D02*
X129274999Y-71289997D01*
X122000000Y-84000000D02*
X122000000Y-87500000D01*
%TO.N,Net-(C10-Pad2)*%
X133175000Y-93635000D02*
X134365000Y-93635000D01*
X134900000Y-93100000D02*
X135750000Y-93100000D01*
X134365000Y-93635000D02*
X134900000Y-93100000D01*
X134000000Y-84000000D02*
X134000000Y-87500000D01*
X134000000Y-87500000D02*
X134250000Y-87500000D01*
X133230000Y-86730000D02*
X134000000Y-87500000D01*
X131250000Y-86730000D02*
X133230000Y-86730000D01*
X136750000Y-92100000D02*
X135750000Y-93100000D01*
X136000000Y-89200000D02*
X136750000Y-89950000D01*
X136000000Y-88200000D02*
X136000000Y-89200000D01*
X135300000Y-87500000D02*
X136000000Y-88200000D01*
X136750000Y-89950000D02*
X136750000Y-92100000D01*
X134000000Y-87500000D02*
X135300000Y-87500000D01*
%TO.N,Net-(C10-Pad1)*%
X138500000Y-87750000D02*
X138500000Y-87500000D01*
X131400000Y-69750000D02*
X131250000Y-69750000D01*
X130000000Y-68600000D02*
X131400000Y-70000000D01*
X130000000Y-67250000D02*
X130000000Y-68600000D01*
X138500000Y-83875000D02*
X138500000Y-84000000D01*
X138000000Y-84000000D02*
X138000000Y-87500000D01*
X138000000Y-83750000D02*
X138000000Y-84000000D01*
X135750000Y-81500000D02*
X138000000Y-83750000D01*
X131500000Y-81500000D02*
X135750000Y-81500000D01*
X130750000Y-80750000D02*
X131500000Y-81500000D01*
X130750000Y-71500000D02*
X130750000Y-80750000D01*
X131400000Y-70850000D02*
X130750000Y-71500000D01*
X131400000Y-70000000D02*
X131400000Y-70850000D01*
%TO.N,/DEPTH*%
X123700000Y-77000000D02*
X125000000Y-77000000D01*
X125000000Y-77000000D02*
X126150000Y-77000000D01*
%TO.N,/FREQ*%
X136150000Y-77000000D02*
X134900000Y-77000000D01*
X134900000Y-77000000D02*
X133700000Y-77000000D01*
%TO.N,/SELECT*%
X123750000Y-72000000D02*
X125000000Y-72000000D01*
X125000000Y-72000000D02*
X126150000Y-72000000D01*
%TO.N,Net-(D2-Pad2)*%
X123690000Y-104150000D02*
X123500000Y-103960000D01*
X126000000Y-104150000D02*
X123690000Y-104150000D01*
%TO.N,Net-(D3-Pad2)*%
X136390000Y-103960000D02*
X136500000Y-103960000D01*
X134250000Y-106100000D02*
X136390000Y-103960000D01*
%TO.N,Net-(D6-Pad1)*%
X133500000Y-108750000D02*
X133500000Y-110400000D01*
X132400000Y-107650000D02*
X131270000Y-107650000D01*
X133500000Y-108750000D02*
X132400000Y-107650000D01*
X129270000Y-114375000D02*
X129270000Y-115000000D01*
X129645000Y-114000000D02*
X129270000Y-114375000D01*
X135500000Y-113373000D02*
X134873000Y-114000000D01*
X135500000Y-111700000D02*
X135500000Y-113373000D01*
X134200000Y-110400000D02*
X135500000Y-111700000D01*
X134873000Y-114000000D02*
X129645000Y-114000000D01*
X133500000Y-110400000D02*
X134200000Y-110400000D01*
%TO.N,Net-(D6-Pad2)*%
X125500000Y-115000000D02*
X124500000Y-114000000D01*
X126730000Y-115000000D02*
X125500000Y-115000000D01*
X128730000Y-107650000D02*
X128100016Y-107650000D01*
X128100016Y-107650000D02*
X127250016Y-108500000D01*
%TO.N,Net-(J2-Pad2)*%
X133500000Y-112600000D02*
X134350016Y-112600000D01*
X134350016Y-112600000D02*
X134750000Y-112999984D01*
%TO.N,Net-(R1-Pad2)*%
X128500000Y-82650000D02*
X128500000Y-82500000D01*
X128500000Y-82500000D02*
X130000000Y-81000000D01*
X131500000Y-82500000D02*
X130000000Y-81000000D01*
X131500000Y-82650000D02*
X131500000Y-82500000D01*
X130000000Y-77774990D02*
X130024990Y-77750000D01*
X130000000Y-81000000D02*
X130000000Y-77774990D01*
%TO.N,Net-(R1-Pad1)*%
X124624998Y-93635000D02*
X123000000Y-92010002D01*
X123000000Y-92010002D02*
X123000000Y-91900000D01*
X126825000Y-93635000D02*
X124624998Y-93635000D01*
X129565000Y-93635000D02*
X129725000Y-93475000D01*
X126825000Y-93635000D02*
X129565000Y-93635000D01*
X128850000Y-84500000D02*
X128500000Y-84850000D01*
X129725000Y-84500000D02*
X128850000Y-84500000D01*
%TO.N,Net-(R2-Pad1)*%
X135750000Y-90900000D02*
X135750000Y-90750000D01*
X134285000Y-92365000D02*
X133175000Y-92365000D01*
X135750000Y-90900000D02*
X134285000Y-92365000D01*
X133175000Y-92365000D02*
X131114968Y-92365000D01*
X131114968Y-92365000D02*
X130499968Y-91750000D01*
X131100000Y-85250000D02*
X131500000Y-84850000D01*
X130500000Y-85250000D02*
X131100000Y-85250000D01*
%TO.N,/LED*%
X134250000Y-103900000D02*
X132500000Y-105650000D01*
X132500000Y-105650000D02*
X132500000Y-105750000D01*
%TO.N,Net-(R10-Pad2)*%
X127191010Y-78158990D02*
X128350000Y-77000000D01*
X125881010Y-78158990D02*
X127191010Y-78158990D01*
X124540000Y-79500000D02*
X125881010Y-78158990D01*
%TO.N,Net-(R11-Pad2)*%
X138250000Y-77000000D02*
X138350000Y-77000000D01*
X135750000Y-79500000D02*
X138250000Y-77000000D01*
X135500000Y-79500000D02*
X135750000Y-79500000D01*
%TO.N,Net-(R12-Pad2)*%
X127191010Y-73158990D02*
X128350000Y-72000000D01*
X125841010Y-73158990D02*
X127191010Y-73158990D01*
X124500000Y-74500000D02*
X125841010Y-73158990D01*
%TO.N,/MIDI_IN*%
X135000000Y-95965685D02*
X135000000Y-95400000D01*
X135000000Y-100573004D02*
X135000000Y-95965685D01*
X130000000Y-101350000D02*
X130000000Y-104073004D01*
X131098002Y-104475002D02*
X135000000Y-100573004D01*
X130401998Y-104475002D02*
X131098002Y-104475002D01*
X130000000Y-104073004D02*
X130401998Y-104475002D01*
%TO.N,/CLK*%
X129000000Y-97500000D02*
X124350000Y-97500000D01*
%TD*%
%TO.N,GND*%
X137494876Y-65500681D02*
X137970906Y-65644403D01*
X138409957Y-65877850D01*
X138795296Y-66192125D01*
X139112258Y-66575266D01*
X139348761Y-67012670D01*
X139495803Y-67487684D01*
X139550001Y-68003344D01*
X139550000Y-116977995D01*
X139499319Y-117494876D01*
X139355596Y-117970910D01*
X139122152Y-118409954D01*
X138807875Y-118795296D01*
X138424735Y-119112257D01*
X137987329Y-119348761D01*
X137512316Y-119495803D01*
X136996664Y-119550000D01*
X123022005Y-119550000D01*
X122505124Y-119499319D01*
X122029090Y-119355596D01*
X121590046Y-119122152D01*
X121204704Y-118807875D01*
X120887743Y-118424735D01*
X120651239Y-117987329D01*
X120504197Y-117512316D01*
X120450000Y-116996664D01*
X120450000Y-116761158D01*
X120575000Y-116761158D01*
X120575000Y-117238842D01*
X120668191Y-117707347D01*
X120850992Y-118148668D01*
X121116379Y-118545848D01*
X121454152Y-118883621D01*
X121851332Y-119149008D01*
X122292653Y-119331809D01*
X122761158Y-119425000D01*
X123238842Y-119425000D01*
X123707347Y-119331809D01*
X124148668Y-119149008D01*
X124545848Y-118883621D01*
X124883621Y-118545848D01*
X125149008Y-118148668D01*
X125331809Y-117707347D01*
X125425000Y-117238842D01*
X125425000Y-116984000D01*
X126169344Y-116984000D01*
X126169344Y-119016000D01*
X126177550Y-119099314D01*
X126201852Y-119179427D01*
X126241316Y-119253260D01*
X126294426Y-119317974D01*
X126359140Y-119371084D01*
X126432973Y-119410548D01*
X126513086Y-119434850D01*
X126596400Y-119443056D01*
X128323600Y-119443056D01*
X128406914Y-119434850D01*
X128487027Y-119410548D01*
X128560860Y-119371084D01*
X128625574Y-119317974D01*
X128678684Y-119253260D01*
X128718148Y-119179427D01*
X128742450Y-119099314D01*
X128750656Y-119016000D01*
X128750656Y-118472953D01*
X128803729Y-118647912D01*
X128923385Y-118871771D01*
X129084415Y-119067986D01*
X129280630Y-119229015D01*
X129504489Y-119348671D01*
X129747391Y-119422354D01*
X130000000Y-119447234D01*
X130252610Y-119422354D01*
X130495512Y-119348671D01*
X130719371Y-119229015D01*
X130915586Y-119067986D01*
X131076615Y-118871770D01*
X131196271Y-118647911D01*
X131269954Y-118405009D01*
X131270000Y-118404542D01*
X131270046Y-118405010D01*
X131343729Y-118647912D01*
X131463385Y-118871771D01*
X131624415Y-119067986D01*
X131820630Y-119229015D01*
X132044489Y-119348671D01*
X132287391Y-119422354D01*
X132540000Y-119447234D01*
X132792610Y-119422354D01*
X133035512Y-119348671D01*
X133259371Y-119229015D01*
X133455586Y-119067986D01*
X133616615Y-118871770D01*
X133736271Y-118647911D01*
X133809954Y-118405009D01*
X133828600Y-118215694D01*
X133828600Y-117784305D01*
X133809954Y-117594990D01*
X133736271Y-117352088D01*
X133616615Y-117128229D01*
X133455586Y-116932014D01*
X133259370Y-116770985D01*
X133035511Y-116651329D01*
X132792609Y-116577646D01*
X132540000Y-116552766D01*
X132287390Y-116577646D01*
X132044488Y-116651329D01*
X131820629Y-116770985D01*
X131624414Y-116932014D01*
X131463385Y-117128230D01*
X131343729Y-117352089D01*
X131270046Y-117594991D01*
X131270000Y-117595458D01*
X131269954Y-117594990D01*
X131196271Y-117352088D01*
X131076615Y-117128229D01*
X130915586Y-116932014D01*
X130719370Y-116770985D01*
X130495511Y-116651329D01*
X130252609Y-116577646D01*
X130000000Y-116552766D01*
X129747390Y-116577646D01*
X129504488Y-116651329D01*
X129280629Y-116770985D01*
X129084414Y-116932014D01*
X128923385Y-117128230D01*
X128803729Y-117352089D01*
X128750656Y-117527048D01*
X128750656Y-116984000D01*
X128742450Y-116900686D01*
X128718148Y-116820573D01*
X128678684Y-116746740D01*
X128625574Y-116682026D01*
X128560860Y-116628916D01*
X128487027Y-116589452D01*
X128406914Y-116565150D01*
X128323600Y-116556944D01*
X126596400Y-116556944D01*
X126513086Y-116565150D01*
X126432973Y-116589452D01*
X126359140Y-116628916D01*
X126294426Y-116682026D01*
X126241316Y-116746740D01*
X126201852Y-116820573D01*
X126177550Y-116900686D01*
X126169344Y-116984000D01*
X125425000Y-116984000D01*
X125425000Y-116761158D01*
X125331809Y-116292653D01*
X125149008Y-115851332D01*
X124883621Y-115454152D01*
X124545848Y-115116379D01*
X124148668Y-114850992D01*
X123707347Y-114668191D01*
X123238842Y-114575000D01*
X122761158Y-114575000D01*
X122292653Y-114668191D01*
X121851332Y-114850992D01*
X121454152Y-115116379D01*
X121116379Y-115454152D01*
X120850992Y-115851332D01*
X120668191Y-116292653D01*
X120575000Y-116761158D01*
X120450000Y-116761158D01*
X120450000Y-112821371D01*
X120633302Y-112821371D01*
X120648689Y-112898731D01*
X120749443Y-113204238D01*
X120907862Y-113484219D01*
X121117859Y-113727914D01*
X121371363Y-113925958D01*
X121658633Y-114070741D01*
X121968629Y-114156698D01*
X122225000Y-114024560D01*
X122225000Y-112565000D01*
X122275000Y-112565000D01*
X122275000Y-114024560D01*
X122531371Y-114156698D01*
X122841367Y-114070741D01*
X123128637Y-113925958D01*
X123137869Y-113918745D01*
X123675000Y-113918745D01*
X123675000Y-114081255D01*
X123706704Y-114240644D01*
X123768894Y-114390784D01*
X123859181Y-114525907D01*
X123974093Y-114640819D01*
X124109216Y-114731106D01*
X124259356Y-114793296D01*
X124418745Y-114825000D01*
X124547183Y-114825000D01*
X125091987Y-115369804D01*
X125109210Y-115390790D01*
X125192958Y-115459521D01*
X125288506Y-115510592D01*
X125392181Y-115542042D01*
X125472982Y-115550000D01*
X125472989Y-115550000D01*
X125500000Y-115552660D01*
X125527011Y-115550000D01*
X125741638Y-115550000D01*
X125774916Y-115612260D01*
X125828026Y-115676974D01*
X125892740Y-115730084D01*
X125966573Y-115769548D01*
X126046686Y-115793850D01*
X126130000Y-115802056D01*
X127330000Y-115802056D01*
X127413314Y-115793850D01*
X127493427Y-115769548D01*
X127567260Y-115730084D01*
X127631974Y-115676974D01*
X127685084Y-115612260D01*
X127724548Y-115538427D01*
X127748850Y-115458314D01*
X127757056Y-115375000D01*
X127757056Y-114625000D01*
X127748850Y-114541686D01*
X127724548Y-114461573D01*
X127685084Y-114387740D01*
X127631974Y-114323026D01*
X127567260Y-114269916D01*
X127493427Y-114230452D01*
X127413314Y-114206150D01*
X127330000Y-114197944D01*
X126130000Y-114197944D01*
X126046686Y-114206150D01*
X125966573Y-114230452D01*
X125892740Y-114269916D01*
X125828026Y-114323026D01*
X125774916Y-114387740D01*
X125741638Y-114450000D01*
X125727817Y-114450000D01*
X125325000Y-114047183D01*
X125325000Y-113918745D01*
X125294494Y-113765379D01*
X125318750Y-113765000D01*
X125475000Y-113608750D01*
X125475000Y-112565000D01*
X125525000Y-112565000D01*
X125525000Y-113608750D01*
X125681250Y-113765000D01*
X125875000Y-113768024D01*
X125997521Y-113755957D01*
X126115334Y-113720219D01*
X126223911Y-113662183D01*
X126319080Y-113584080D01*
X126397183Y-113488911D01*
X126455219Y-113380334D01*
X126490957Y-113262521D01*
X126503024Y-113140000D01*
X126502801Y-113109145D01*
X126509043Y-113172521D01*
X126544781Y-113290334D01*
X126602817Y-113398911D01*
X126680920Y-113494080D01*
X126776089Y-113572183D01*
X126884666Y-113630219D01*
X127002479Y-113665957D01*
X127125000Y-113678024D01*
X127318750Y-113675000D01*
X127475000Y-113518750D01*
X127475000Y-112475000D01*
X126656250Y-112475000D01*
X126500000Y-112631250D01*
X126499355Y-112720605D01*
X126343750Y-112565000D01*
X125525000Y-112565000D01*
X125475000Y-112565000D01*
X124656250Y-112565000D01*
X124500000Y-112721250D01*
X124496976Y-113140000D01*
X124500423Y-113175000D01*
X124418745Y-113175000D01*
X124259356Y-113206704D01*
X124109216Y-113268894D01*
X123974093Y-113359181D01*
X123859181Y-113474093D01*
X123768894Y-113609216D01*
X123706704Y-113759356D01*
X123675000Y-113918745D01*
X123137869Y-113918745D01*
X123382141Y-113727914D01*
X123592138Y-113484219D01*
X123750557Y-113204238D01*
X123851311Y-112898731D01*
X123866698Y-112821371D01*
X123734540Y-112565000D01*
X122275000Y-112565000D01*
X122225000Y-112565000D01*
X120765460Y-112565000D01*
X120633302Y-112821371D01*
X120450000Y-112821371D01*
X120450000Y-112258629D01*
X120633302Y-112258629D01*
X120765460Y-112515000D01*
X122225000Y-112515000D01*
X122225000Y-112495000D01*
X122275000Y-112495000D01*
X122275000Y-112515000D01*
X123734540Y-112515000D01*
X123866698Y-112258629D01*
X123851311Y-112181269D01*
X123771743Y-111940000D01*
X124496976Y-111940000D01*
X124500000Y-112358750D01*
X124656250Y-112515000D01*
X125475000Y-112515000D01*
X125475000Y-111471250D01*
X125318750Y-111315000D01*
X125125000Y-111311976D01*
X125002479Y-111324043D01*
X124884666Y-111359781D01*
X124776089Y-111417817D01*
X124680920Y-111495920D01*
X124602817Y-111591089D01*
X124544781Y-111699666D01*
X124509043Y-111817479D01*
X124496976Y-111940000D01*
X123771743Y-111940000D01*
X123750557Y-111875762D01*
X123592138Y-111595781D01*
X123431544Y-111409417D01*
X123503260Y-111371084D01*
X123567974Y-111317974D01*
X123621084Y-111253260D01*
X123660548Y-111179427D01*
X123684850Y-111099314D01*
X123693056Y-111016000D01*
X123693056Y-110550000D01*
X124697944Y-110550000D01*
X124697944Y-110600000D01*
X124706150Y-110683314D01*
X124730452Y-110763427D01*
X124769916Y-110837260D01*
X124823026Y-110901974D01*
X124887740Y-110955084D01*
X124961573Y-110994548D01*
X125041686Y-111018850D01*
X125125000Y-111027056D01*
X125875000Y-111027056D01*
X125958314Y-111018850D01*
X126038427Y-110994548D01*
X126112260Y-110955084D01*
X126176974Y-110901974D01*
X126230084Y-110837260D01*
X126257726Y-110785544D01*
X126391991Y-110919809D01*
X126409210Y-110940790D01*
X126430190Y-110958008D01*
X126430195Y-110958013D01*
X126481357Y-111000000D01*
X126492958Y-111009521D01*
X126588506Y-111060592D01*
X126692181Y-111092042D01*
X126697944Y-111092610D01*
X126697944Y-111150000D01*
X126706150Y-111233314D01*
X126730452Y-111313427D01*
X126749713Y-111349463D01*
X126680920Y-111405920D01*
X126602817Y-111501089D01*
X126544781Y-111609666D01*
X126509043Y-111727479D01*
X126496976Y-111850000D01*
X126497199Y-111880855D01*
X126490957Y-111817479D01*
X126455219Y-111699666D01*
X126397183Y-111591089D01*
X126319080Y-111495920D01*
X126223911Y-111417817D01*
X126115334Y-111359781D01*
X125997521Y-111324043D01*
X125875000Y-111311976D01*
X125681250Y-111315000D01*
X125525000Y-111471250D01*
X125525000Y-112515000D01*
X126343750Y-112515000D01*
X126500000Y-112358750D01*
X126500645Y-112269395D01*
X126656250Y-112425000D01*
X127475000Y-112425000D01*
X127475000Y-112405000D01*
X127525000Y-112405000D01*
X127525000Y-112425000D01*
X128343750Y-112425000D01*
X128500000Y-112268750D01*
X128656250Y-112425000D01*
X129475000Y-112425000D01*
X129475000Y-112405000D01*
X129525000Y-112405000D01*
X129525000Y-112425000D01*
X129545000Y-112425000D01*
X129545000Y-112475000D01*
X129525000Y-112475000D01*
X129525000Y-112495000D01*
X129475000Y-112495000D01*
X129475000Y-112475000D01*
X128656250Y-112475000D01*
X128500000Y-112631250D01*
X128343750Y-112475000D01*
X127525000Y-112475000D01*
X127525000Y-113518750D01*
X127681250Y-113675000D01*
X127875000Y-113678024D01*
X127997521Y-113665957D01*
X128115334Y-113630219D01*
X128223911Y-113572183D01*
X128319080Y-113494080D01*
X128397183Y-113398911D01*
X128455219Y-113290334D01*
X128490957Y-113172521D01*
X128500000Y-113080704D01*
X128509043Y-113172521D01*
X128544781Y-113290334D01*
X128602817Y-113398911D01*
X128680920Y-113494080D01*
X128776089Y-113572183D01*
X128884666Y-113630219D01*
X129002479Y-113665957D01*
X129125000Y-113678024D01*
X129190175Y-113677007D01*
X128900195Y-113966988D01*
X128879210Y-113984210D01*
X128810479Y-114067958D01*
X128759408Y-114163507D01*
X128748961Y-114197944D01*
X128670000Y-114197944D01*
X128586686Y-114206150D01*
X128506573Y-114230452D01*
X128432740Y-114269916D01*
X128368026Y-114323026D01*
X128314916Y-114387740D01*
X128275452Y-114461573D01*
X128251150Y-114541686D01*
X128242944Y-114625000D01*
X128242944Y-115375000D01*
X128251150Y-115458314D01*
X128275452Y-115538427D01*
X128314916Y-115612260D01*
X128368026Y-115676974D01*
X128432740Y-115730084D01*
X128506573Y-115769548D01*
X128586686Y-115793850D01*
X128670000Y-115802056D01*
X129870000Y-115802056D01*
X129953314Y-115793850D01*
X130033427Y-115769548D01*
X130107260Y-115730084D01*
X130171974Y-115676974D01*
X130225084Y-115612260D01*
X130264548Y-115538427D01*
X130288850Y-115458314D01*
X130297056Y-115375000D01*
X130321976Y-115375000D01*
X130334043Y-115497521D01*
X130369781Y-115615334D01*
X130427817Y-115723911D01*
X130505920Y-115819080D01*
X130601089Y-115897183D01*
X130709666Y-115955219D01*
X130827479Y-115990957D01*
X130950000Y-116003024D01*
X131368750Y-116000000D01*
X131525000Y-115843750D01*
X131525000Y-115025000D01*
X130481250Y-115025000D01*
X130325000Y-115181250D01*
X130321976Y-115375000D01*
X130297056Y-115375000D01*
X130297056Y-114625000D01*
X130289669Y-114550000D01*
X130329363Y-114550000D01*
X130321976Y-114625000D01*
X130325000Y-114818750D01*
X130481250Y-114975000D01*
X131525000Y-114975000D01*
X131525000Y-114955000D01*
X131575000Y-114955000D01*
X131575000Y-114975000D01*
X131595000Y-114975000D01*
X131595000Y-115025000D01*
X131575000Y-115025000D01*
X131575000Y-115843750D01*
X131731250Y-116000000D01*
X132150000Y-116003024D01*
X132272521Y-115990957D01*
X132390334Y-115955219D01*
X132498911Y-115897183D01*
X132594080Y-115819080D01*
X132650537Y-115750287D01*
X132686573Y-115769548D01*
X132766686Y-115793850D01*
X132850000Y-115802056D01*
X134050000Y-115802056D01*
X134133314Y-115793850D01*
X134213427Y-115769548D01*
X134287260Y-115730084D01*
X134351974Y-115676974D01*
X134405084Y-115612260D01*
X134438362Y-115550000D01*
X134472982Y-115550000D01*
X134499990Y-115552660D01*
X134526998Y-115550000D01*
X134527008Y-115550000D01*
X134537778Y-115548939D01*
X134668745Y-115574990D01*
X134831255Y-115574990D01*
X134990644Y-115543286D01*
X135082147Y-115505384D01*
X134850992Y-115851332D01*
X134668191Y-116292653D01*
X134575000Y-116761158D01*
X134575000Y-117238842D01*
X134668191Y-117707347D01*
X134850992Y-118148668D01*
X135116379Y-118545848D01*
X135454152Y-118883621D01*
X135851332Y-119149008D01*
X136292653Y-119331809D01*
X136761158Y-119425000D01*
X137238842Y-119425000D01*
X137707347Y-119331809D01*
X138148668Y-119149008D01*
X138545848Y-118883621D01*
X138883621Y-118545848D01*
X139149008Y-118148668D01*
X139331809Y-117707347D01*
X139425000Y-117238842D01*
X139425000Y-116761158D01*
X139331809Y-116292653D01*
X139149008Y-115851332D01*
X138883621Y-115454152D01*
X138545848Y-115116379D01*
X138148668Y-114850992D01*
X137707347Y-114668191D01*
X137238842Y-114575000D01*
X136761158Y-114575000D01*
X136292653Y-114668191D01*
X135851332Y-114850992D01*
X135505392Y-115082141D01*
X135543296Y-114990634D01*
X135575000Y-114831245D01*
X135575000Y-114668735D01*
X135543296Y-114509346D01*
X135481106Y-114359206D01*
X135405205Y-114245613D01*
X135869809Y-113781008D01*
X135890790Y-113763790D01*
X135908008Y-113742810D01*
X135908013Y-113742805D01*
X135959521Y-113680042D01*
X135962216Y-113675000D01*
X136010592Y-113584494D01*
X136042042Y-113480819D01*
X136050000Y-113400018D01*
X136050000Y-113400008D01*
X136052660Y-113373000D01*
X136050000Y-113345992D01*
X136050000Y-112821371D01*
X136133302Y-112821371D01*
X136148689Y-112898731D01*
X136249443Y-113204238D01*
X136407862Y-113484219D01*
X136617859Y-113727914D01*
X136871363Y-113925958D01*
X137158633Y-114070741D01*
X137468629Y-114156698D01*
X137725000Y-114024560D01*
X137725000Y-112565000D01*
X137775000Y-112565000D01*
X137775000Y-114024560D01*
X138031371Y-114156698D01*
X138341367Y-114070741D01*
X138628637Y-113925958D01*
X138882141Y-113727914D01*
X139092138Y-113484219D01*
X139250557Y-113204238D01*
X139351311Y-112898731D01*
X139366698Y-112821371D01*
X139234540Y-112565000D01*
X137775000Y-112565000D01*
X137725000Y-112565000D01*
X136265460Y-112565000D01*
X136133302Y-112821371D01*
X136050000Y-112821371D01*
X136050000Y-112258629D01*
X136133302Y-112258629D01*
X136265460Y-112515000D01*
X137725000Y-112515000D01*
X137725000Y-112495000D01*
X137775000Y-112495000D01*
X137775000Y-112515000D01*
X139234540Y-112515000D01*
X139366698Y-112258629D01*
X139351311Y-112181269D01*
X139250557Y-111875762D01*
X139092138Y-111595781D01*
X138931544Y-111409417D01*
X139003260Y-111371084D01*
X139067974Y-111317974D01*
X139121084Y-111253260D01*
X139160548Y-111179427D01*
X139184850Y-111099314D01*
X139193056Y-111016000D01*
X139193056Y-108984000D01*
X139184850Y-108900686D01*
X139160548Y-108820573D01*
X139121084Y-108746740D01*
X139067974Y-108682026D01*
X139003260Y-108628916D01*
X138929427Y-108589452D01*
X138849314Y-108565150D01*
X138766000Y-108556944D01*
X136734000Y-108556944D01*
X136650686Y-108565150D01*
X136570573Y-108589452D01*
X136496740Y-108628916D01*
X136432026Y-108682026D01*
X136378916Y-108746740D01*
X136339452Y-108820573D01*
X136315150Y-108900686D01*
X136306944Y-108984000D01*
X136306944Y-111016000D01*
X136315150Y-111099314D01*
X136339452Y-111179427D01*
X136378916Y-111253260D01*
X136432026Y-111317974D01*
X136496740Y-111371084D01*
X136568456Y-111409417D01*
X136407862Y-111595781D01*
X136249443Y-111875762D01*
X136148689Y-112181269D01*
X136133302Y-112258629D01*
X136050000Y-112258629D01*
X136050000Y-111727011D01*
X136052660Y-111700000D01*
X136050000Y-111672989D01*
X136050000Y-111672982D01*
X136042042Y-111592181D01*
X136010592Y-111488506D01*
X135959521Y-111392958D01*
X135890790Y-111309210D01*
X135869804Y-111291987D01*
X134608013Y-110030196D01*
X134590790Y-110009210D01*
X134507042Y-109940479D01*
X134411494Y-109889408D01*
X134377056Y-109878961D01*
X134377056Y-109800000D01*
X134368850Y-109716686D01*
X134344548Y-109636573D01*
X134305084Y-109562740D01*
X134251974Y-109498026D01*
X134187260Y-109444916D01*
X134113427Y-109405452D01*
X134050000Y-109386212D01*
X134050000Y-108777008D01*
X134052660Y-108750000D01*
X134050000Y-108722992D01*
X134050000Y-108722982D01*
X134042042Y-108642181D01*
X134010592Y-108538506D01*
X133959521Y-108442958D01*
X133917850Y-108392182D01*
X133908013Y-108380195D01*
X133908008Y-108380190D01*
X133890790Y-108359210D01*
X133869810Y-108341992D01*
X132808013Y-107280196D01*
X132790790Y-107259210D01*
X132707042Y-107190479D01*
X132611494Y-107139408D01*
X132507819Y-107107958D01*
X132427018Y-107100000D01*
X132427008Y-107100000D01*
X132400000Y-107097340D01*
X132372992Y-107100000D01*
X132017056Y-107100000D01*
X132017056Y-106650000D01*
X132008850Y-106566686D01*
X131984548Y-106486573D01*
X131945084Y-106412740D01*
X131891974Y-106348026D01*
X131827260Y-106294916D01*
X131753427Y-106255452D01*
X131673314Y-106231150D01*
X131590000Y-106222944D01*
X130950000Y-106222944D01*
X130866686Y-106231150D01*
X130786573Y-106255452D01*
X130712740Y-106294916D01*
X130648026Y-106348026D01*
X130594916Y-106412740D01*
X130555452Y-106486573D01*
X130531150Y-106566686D01*
X130522944Y-106650000D01*
X130522944Y-108650000D01*
X130531150Y-108733314D01*
X130555452Y-108813427D01*
X130594916Y-108887260D01*
X130648026Y-108951974D01*
X130712740Y-109005084D01*
X130786573Y-109044548D01*
X130866686Y-109068850D01*
X130908252Y-109072944D01*
X130875000Y-109072944D01*
X130791686Y-109081150D01*
X130711573Y-109105452D01*
X130637740Y-109144916D01*
X130573026Y-109198026D01*
X130519916Y-109262740D01*
X130480452Y-109336573D01*
X130456150Y-109416686D01*
X130447944Y-109500000D01*
X130447944Y-109702466D01*
X130392181Y-109707958D01*
X130288506Y-109739408D01*
X130254153Y-109757770D01*
X130230084Y-109712740D01*
X130176974Y-109648026D01*
X130112260Y-109594916D01*
X130038427Y-109555452D01*
X129958314Y-109531150D01*
X129875000Y-109522944D01*
X129125000Y-109522944D01*
X129041686Y-109531150D01*
X128961573Y-109555452D01*
X128887740Y-109594916D01*
X128823026Y-109648026D01*
X128769916Y-109712740D01*
X128730452Y-109786573D01*
X128706150Y-109866686D01*
X128697944Y-109950000D01*
X128697944Y-110000000D01*
X128302056Y-110000000D01*
X128302056Y-109950000D01*
X128293850Y-109866686D01*
X128269548Y-109786573D01*
X128230084Y-109712740D01*
X128176974Y-109648026D01*
X128112260Y-109594916D01*
X128038427Y-109555452D01*
X127958314Y-109531150D01*
X127875000Y-109522944D01*
X127125000Y-109522944D01*
X127041686Y-109531150D01*
X126961573Y-109555452D01*
X126887740Y-109594916D01*
X126823026Y-109648026D01*
X126769916Y-109712740D01*
X126759690Y-109731872D01*
X126658013Y-109630195D01*
X126640790Y-109609210D01*
X126557042Y-109540479D01*
X126461494Y-109489408D01*
X126357819Y-109457958D01*
X126302056Y-109452466D01*
X126302056Y-109400000D01*
X126293850Y-109316686D01*
X126269548Y-109236573D01*
X126230084Y-109162740D01*
X126176974Y-109098026D01*
X126112260Y-109044916D01*
X126050000Y-109011638D01*
X126050000Y-108727817D01*
X126369804Y-108408013D01*
X126390790Y-108390790D01*
X126443304Y-108326802D01*
X126425016Y-108418745D01*
X126425016Y-108581255D01*
X126456720Y-108740644D01*
X126518910Y-108890784D01*
X126609197Y-109025907D01*
X126724109Y-109140819D01*
X126859232Y-109231106D01*
X127009372Y-109293296D01*
X127168761Y-109325000D01*
X127331271Y-109325000D01*
X127490660Y-109293296D01*
X127640800Y-109231106D01*
X127775923Y-109140819D01*
X127890835Y-109025907D01*
X127981122Y-108890784D01*
X128014485Y-108810239D01*
X128015452Y-108813427D01*
X128054916Y-108887260D01*
X128108026Y-108951974D01*
X128172740Y-109005084D01*
X128246573Y-109044548D01*
X128326686Y-109068850D01*
X128410000Y-109077056D01*
X129050000Y-109077056D01*
X129133314Y-109068850D01*
X129213427Y-109044548D01*
X129287260Y-109005084D01*
X129351974Y-108951974D01*
X129405084Y-108887260D01*
X129444548Y-108813427D01*
X129468850Y-108733314D01*
X129477056Y-108650000D01*
X129477056Y-106650000D01*
X129468850Y-106566686D01*
X129444548Y-106486573D01*
X129405084Y-106412740D01*
X129351974Y-106348026D01*
X129287260Y-106294916D01*
X129213427Y-106255452D01*
X129133314Y-106231150D01*
X129050000Y-106222944D01*
X128410000Y-106222944D01*
X128326686Y-106231150D01*
X128246573Y-106255452D01*
X128172740Y-106294916D01*
X128108026Y-106348026D01*
X128054916Y-106412740D01*
X128015452Y-106486573D01*
X127991150Y-106566686D01*
X127982944Y-106650000D01*
X127982944Y-107110765D01*
X127888522Y-107139408D01*
X127792974Y-107190479D01*
X127709226Y-107259210D01*
X127692003Y-107280196D01*
X127297199Y-107675000D01*
X127168761Y-107675000D01*
X127009372Y-107706704D01*
X126859232Y-107768894D01*
X126724109Y-107859181D01*
X126609197Y-107974093D01*
X126545879Y-108068854D01*
X126546165Y-108065957D01*
X126550000Y-108027018D01*
X126550000Y-108027011D01*
X126552660Y-108000000D01*
X126550000Y-107972989D01*
X126550000Y-107363788D01*
X126613427Y-107344548D01*
X126687260Y-107305084D01*
X126751974Y-107251974D01*
X126805084Y-107187260D01*
X126844548Y-107113427D01*
X126868850Y-107033314D01*
X126877056Y-106950000D01*
X126877056Y-106852274D01*
X126957042Y-106809521D01*
X127040790Y-106740790D01*
X127058013Y-106719804D01*
X127452817Y-106325000D01*
X127581255Y-106325000D01*
X127740644Y-106293296D01*
X127890784Y-106231106D01*
X128025907Y-106140819D01*
X128140819Y-106025907D01*
X128231106Y-105890784D01*
X128293296Y-105740644D01*
X128307597Y-105668745D01*
X131675000Y-105668745D01*
X131675000Y-105831255D01*
X131706704Y-105990644D01*
X131768894Y-106140784D01*
X131859181Y-106275907D01*
X131974093Y-106390819D01*
X132109216Y-106481106D01*
X132259356Y-106543296D01*
X132418745Y-106575000D01*
X132581255Y-106575000D01*
X132740644Y-106543296D01*
X132890784Y-106481106D01*
X133025907Y-106390819D01*
X133140819Y-106275907D01*
X133231106Y-106140784D01*
X133293296Y-105990644D01*
X133325000Y-105831255D01*
X133325000Y-105668745D01*
X133314062Y-105613755D01*
X133372944Y-105554873D01*
X133372944Y-106700000D01*
X133381150Y-106783314D01*
X133405452Y-106863427D01*
X133444916Y-106937260D01*
X133498026Y-107001974D01*
X133562740Y-107055084D01*
X133636573Y-107094548D01*
X133716686Y-107118850D01*
X133800000Y-107127056D01*
X134700000Y-107127056D01*
X134783314Y-107118850D01*
X134863427Y-107094548D01*
X134873395Y-107089220D01*
X134871976Y-107450000D01*
X134884043Y-107572521D01*
X134919781Y-107690334D01*
X134977817Y-107798911D01*
X135055920Y-107894080D01*
X135151089Y-107972183D01*
X135259666Y-108030219D01*
X135377479Y-108065957D01*
X135500000Y-108078024D01*
X136318750Y-108075000D01*
X136475000Y-107918750D01*
X136475000Y-106525000D01*
X136525000Y-106525000D01*
X136525000Y-107918750D01*
X136681250Y-108075000D01*
X137500000Y-108078024D01*
X137622521Y-108065957D01*
X137740334Y-108030219D01*
X137848911Y-107972183D01*
X137944080Y-107894080D01*
X138022183Y-107798911D01*
X138080219Y-107690334D01*
X138115957Y-107572521D01*
X138128024Y-107450000D01*
X138125000Y-106681250D01*
X137968750Y-106525000D01*
X136525000Y-106525000D01*
X136475000Y-106525000D01*
X136455000Y-106525000D01*
X136455000Y-106475000D01*
X136475000Y-106475000D01*
X136475000Y-106455000D01*
X136525000Y-106455000D01*
X136525000Y-106475000D01*
X137968750Y-106475000D01*
X138125000Y-106318750D01*
X138128024Y-105550000D01*
X138115957Y-105427479D01*
X138080219Y-105309666D01*
X138022183Y-105201089D01*
X137944080Y-105105920D01*
X137848911Y-105027817D01*
X137740334Y-104969781D01*
X137622521Y-104934043D01*
X137500000Y-104921976D01*
X137482502Y-104922041D01*
X137568032Y-104836511D01*
X137718509Y-104611307D01*
X137822159Y-104361073D01*
X137875000Y-104095426D01*
X137875000Y-103824574D01*
X137822159Y-103558927D01*
X137718509Y-103308693D01*
X137568032Y-103083489D01*
X137376511Y-102891968D01*
X137151307Y-102741491D01*
X136901073Y-102637841D01*
X136635426Y-102585000D01*
X136364574Y-102585000D01*
X136098927Y-102637841D01*
X135848693Y-102741491D01*
X135623489Y-102891968D01*
X135431968Y-103083489D01*
X135281491Y-103308693D01*
X135177841Y-103558927D01*
X135127056Y-103814238D01*
X135127056Y-103300000D01*
X135118850Y-103216686D01*
X135094548Y-103136573D01*
X135055084Y-103062740D01*
X135001974Y-102998026D01*
X134937260Y-102944916D01*
X134863427Y-102905452D01*
X134783314Y-102881150D01*
X134700000Y-102872944D01*
X133800000Y-102872944D01*
X133716686Y-102881150D01*
X133636573Y-102905452D01*
X133562740Y-102944916D01*
X133498026Y-102998026D01*
X133444916Y-103062740D01*
X133405452Y-103136573D01*
X133381150Y-103216686D01*
X133372944Y-103300000D01*
X133372944Y-103999239D01*
X132447183Y-104925000D01*
X132418745Y-104925000D01*
X132259356Y-104956704D01*
X132109216Y-105018894D01*
X131974093Y-105109181D01*
X131859181Y-105224093D01*
X131768894Y-105359216D01*
X131706704Y-105509356D01*
X131675000Y-105668745D01*
X128307597Y-105668745D01*
X128325000Y-105581255D01*
X128325000Y-105418745D01*
X128293296Y-105259356D01*
X128231106Y-105109216D01*
X128140819Y-104974093D01*
X128025907Y-104859181D01*
X127890784Y-104768894D01*
X127740644Y-104706704D01*
X127581255Y-104675000D01*
X127418745Y-104675000D01*
X127259356Y-104706704D01*
X127109216Y-104768894D01*
X126974093Y-104859181D01*
X126859181Y-104974093D01*
X126768894Y-105109216D01*
X126706704Y-105259356D01*
X126680463Y-105391283D01*
X126613427Y-105355452D01*
X126533314Y-105331150D01*
X126450000Y-105322944D01*
X125550000Y-105322944D01*
X125466686Y-105331150D01*
X125386573Y-105355452D01*
X125312740Y-105394916D01*
X125248026Y-105448026D01*
X125194916Y-105512740D01*
X125155452Y-105586573D01*
X125131150Y-105666686D01*
X125127416Y-105704598D01*
X125128024Y-105550000D01*
X125115957Y-105427479D01*
X125080219Y-105309666D01*
X125022183Y-105201089D01*
X124944080Y-105105920D01*
X124848911Y-105027817D01*
X124740334Y-104969781D01*
X124622521Y-104934043D01*
X124500000Y-104921976D01*
X124482502Y-104922041D01*
X124568032Y-104836511D01*
X124659246Y-104700000D01*
X125122944Y-104700000D01*
X125122944Y-104750000D01*
X125131150Y-104833314D01*
X125155452Y-104913427D01*
X125194916Y-104987260D01*
X125248026Y-105051974D01*
X125312740Y-105105084D01*
X125386573Y-105144548D01*
X125466686Y-105168850D01*
X125550000Y-105177056D01*
X126450000Y-105177056D01*
X126533314Y-105168850D01*
X126613427Y-105144548D01*
X126687260Y-105105084D01*
X126751974Y-105051974D01*
X126805084Y-104987260D01*
X126844548Y-104913427D01*
X126868850Y-104833314D01*
X126877056Y-104750000D01*
X126877056Y-103550000D01*
X126868850Y-103466686D01*
X126844548Y-103386573D01*
X126805084Y-103312740D01*
X126751974Y-103248026D01*
X126687260Y-103194916D01*
X126613427Y-103155452D01*
X126533314Y-103131150D01*
X126450000Y-103122944D01*
X125550000Y-103122944D01*
X125466686Y-103131150D01*
X125386573Y-103155452D01*
X125312740Y-103194916D01*
X125248026Y-103248026D01*
X125194916Y-103312740D01*
X125155452Y-103386573D01*
X125131150Y-103466686D01*
X125122944Y-103550000D01*
X125122944Y-103600000D01*
X124830329Y-103600000D01*
X124822159Y-103558927D01*
X124718509Y-103308693D01*
X124568032Y-103083489D01*
X124376511Y-102891968D01*
X124151307Y-102741491D01*
X123901073Y-102637841D01*
X123635426Y-102585000D01*
X123364574Y-102585000D01*
X123098927Y-102637841D01*
X122848693Y-102741491D01*
X122623489Y-102891968D01*
X122431968Y-103083489D01*
X122281491Y-103308693D01*
X122177841Y-103558927D01*
X122125000Y-103824574D01*
X122125000Y-104095426D01*
X122177841Y-104361073D01*
X122281491Y-104611307D01*
X122431968Y-104836511D01*
X122517498Y-104922041D01*
X122500000Y-104921976D01*
X122377479Y-104934043D01*
X122259666Y-104969781D01*
X122151089Y-105027817D01*
X122055920Y-105105920D01*
X121977817Y-105201089D01*
X121919781Y-105309666D01*
X121884043Y-105427479D01*
X121871976Y-105550000D01*
X121875000Y-106318750D01*
X122031250Y-106475000D01*
X123475000Y-106475000D01*
X123475000Y-106455000D01*
X123525000Y-106455000D01*
X123525000Y-106475000D01*
X123545000Y-106475000D01*
X123545000Y-106525000D01*
X123525000Y-106525000D01*
X123525000Y-107918750D01*
X123681250Y-108075000D01*
X124500000Y-108078024D01*
X124622521Y-108065957D01*
X124740334Y-108030219D01*
X124848911Y-107972183D01*
X124944080Y-107894080D01*
X125022183Y-107798911D01*
X125080219Y-107690334D01*
X125115957Y-107572521D01*
X125128024Y-107450000D01*
X125126187Y-106982922D01*
X125131150Y-107033314D01*
X125155452Y-107113427D01*
X125194916Y-107187260D01*
X125248026Y-107251974D01*
X125312740Y-107305084D01*
X125386573Y-107344548D01*
X125450000Y-107363788D01*
X125450000Y-107772183D01*
X125130191Y-108091992D01*
X125109211Y-108109210D01*
X125091993Y-108130190D01*
X125091987Y-108130196D01*
X125040479Y-108192958D01*
X124989409Y-108288506D01*
X124957959Y-108392182D01*
X124947340Y-108500000D01*
X124950001Y-108527018D01*
X124950001Y-109011637D01*
X124887740Y-109044916D01*
X124823026Y-109098026D01*
X124769916Y-109162740D01*
X124730452Y-109236573D01*
X124706150Y-109316686D01*
X124697944Y-109400000D01*
X124697944Y-109450000D01*
X123693056Y-109450000D01*
X123693056Y-108984000D01*
X123684850Y-108900686D01*
X123660548Y-108820573D01*
X123621084Y-108746740D01*
X123567974Y-108682026D01*
X123503260Y-108628916D01*
X123429427Y-108589452D01*
X123349314Y-108565150D01*
X123266000Y-108556944D01*
X121234000Y-108556944D01*
X121150686Y-108565150D01*
X121070573Y-108589452D01*
X120996740Y-108628916D01*
X120932026Y-108682026D01*
X120878916Y-108746740D01*
X120839452Y-108820573D01*
X120815150Y-108900686D01*
X120806944Y-108984000D01*
X120806944Y-111016000D01*
X120815150Y-111099314D01*
X120839452Y-111179427D01*
X120878916Y-111253260D01*
X120932026Y-111317974D01*
X120996740Y-111371084D01*
X121068456Y-111409417D01*
X120907862Y-111595781D01*
X120749443Y-111875762D01*
X120648689Y-112181269D01*
X120633302Y-112258629D01*
X120450000Y-112258629D01*
X120450000Y-107450000D01*
X121871976Y-107450000D01*
X121884043Y-107572521D01*
X121919781Y-107690334D01*
X121977817Y-107798911D01*
X122055920Y-107894080D01*
X122151089Y-107972183D01*
X122259666Y-108030219D01*
X122377479Y-108065957D01*
X122500000Y-108078024D01*
X123318750Y-108075000D01*
X123475000Y-107918750D01*
X123475000Y-106525000D01*
X122031250Y-106525000D01*
X121875000Y-106681250D01*
X121871976Y-107450000D01*
X120450000Y-107450000D01*
X120450000Y-98300000D01*
X120771976Y-98300000D01*
X120784043Y-98422521D01*
X120819781Y-98540334D01*
X120877817Y-98648911D01*
X120955920Y-98744080D01*
X121051089Y-98822183D01*
X121159666Y-98880219D01*
X121167233Y-98882514D01*
X121162740Y-98884916D01*
X121098026Y-98938026D01*
X121044916Y-99002740D01*
X121005452Y-99076573D01*
X120981150Y-99156686D01*
X120972944Y-99240000D01*
X120972944Y-100840000D01*
X120981150Y-100923314D01*
X121005452Y-101003427D01*
X121044916Y-101077260D01*
X121098026Y-101141974D01*
X121162740Y-101195084D01*
X121236573Y-101234548D01*
X121316686Y-101258850D01*
X121400000Y-101267056D01*
X122900000Y-101267056D01*
X122983314Y-101258850D01*
X123063427Y-101234548D01*
X123137260Y-101195084D01*
X123201974Y-101141974D01*
X123250000Y-101083455D01*
X123298026Y-101141974D01*
X123362740Y-101195084D01*
X123379310Y-101203940D01*
X123359157Y-101224093D01*
X123268870Y-101359216D01*
X123206680Y-101509356D01*
X123174976Y-101668745D01*
X123174976Y-101831255D01*
X123206680Y-101990644D01*
X123268870Y-102140784D01*
X123359157Y-102275907D01*
X123474069Y-102390819D01*
X123609192Y-102481106D01*
X123759332Y-102543296D01*
X123918721Y-102575000D01*
X124081231Y-102575000D01*
X124240620Y-102543296D01*
X124390760Y-102481106D01*
X124525883Y-102390819D01*
X124566702Y-102350000D01*
X127781976Y-102350000D01*
X127794043Y-102472521D01*
X127829781Y-102590334D01*
X127887817Y-102698911D01*
X127965920Y-102794080D01*
X128061089Y-102872183D01*
X128169666Y-102930219D01*
X128287479Y-102965957D01*
X128410000Y-102978024D01*
X128548750Y-102975000D01*
X128705000Y-102818750D01*
X128705000Y-101375000D01*
X127941250Y-101375000D01*
X127785000Y-101531250D01*
X127781976Y-102350000D01*
X124566702Y-102350000D01*
X124640795Y-102275907D01*
X124731082Y-102140784D01*
X124793272Y-101990644D01*
X124824976Y-101831255D01*
X124824976Y-101678103D01*
X124829978Y-101668745D01*
X124860592Y-101611471D01*
X124892042Y-101507795D01*
X124896964Y-101457818D01*
X124900000Y-101426994D01*
X124900000Y-101426987D01*
X124902660Y-101399976D01*
X124900000Y-101372965D01*
X124900000Y-101267056D01*
X125100000Y-101267056D01*
X125183314Y-101258850D01*
X125263427Y-101234548D01*
X125337260Y-101195084D01*
X125401974Y-101141974D01*
X125455084Y-101077260D01*
X125494548Y-101003427D01*
X125518850Y-100923314D01*
X125527056Y-100840000D01*
X125527056Y-100350000D01*
X127781976Y-100350000D01*
X127785000Y-101168750D01*
X127941250Y-101325000D01*
X128705000Y-101325000D01*
X128705000Y-99881250D01*
X128548750Y-99725000D01*
X128410000Y-99721976D01*
X128287479Y-99734043D01*
X128169666Y-99769781D01*
X128061089Y-99827817D01*
X127965920Y-99905920D01*
X127887817Y-100001089D01*
X127829781Y-100109666D01*
X127794043Y-100227479D01*
X127781976Y-100350000D01*
X125527056Y-100350000D01*
X125527056Y-99240000D01*
X125518850Y-99156686D01*
X125494548Y-99076573D01*
X125455084Y-99002740D01*
X125401974Y-98938026D01*
X125337260Y-98884916D01*
X125263427Y-98845452D01*
X125183314Y-98821150D01*
X125100000Y-98812944D01*
X123600000Y-98812944D01*
X123516686Y-98821150D01*
X123436573Y-98845452D01*
X123362740Y-98884916D01*
X123298026Y-98938026D01*
X123250000Y-98996545D01*
X123201974Y-98938026D01*
X123137260Y-98884916D01*
X123132767Y-98882514D01*
X123140334Y-98880219D01*
X123248911Y-98822183D01*
X123344080Y-98744080D01*
X123400537Y-98675287D01*
X123436573Y-98694548D01*
X123516686Y-98718850D01*
X123600000Y-98727056D01*
X125100000Y-98727056D01*
X125183314Y-98718850D01*
X125263427Y-98694548D01*
X125337260Y-98655084D01*
X125401974Y-98601974D01*
X125455084Y-98537260D01*
X125494548Y-98463427D01*
X125518850Y-98383314D01*
X125527056Y-98300000D01*
X125527056Y-98050000D01*
X128383274Y-98050000D01*
X128474093Y-98140819D01*
X128609216Y-98231106D01*
X128759356Y-98293296D01*
X128918745Y-98325000D01*
X129081255Y-98325000D01*
X129240644Y-98293296D01*
X129390784Y-98231106D01*
X129525907Y-98140819D01*
X129640819Y-98025907D01*
X129731106Y-97890784D01*
X129793296Y-97740644D01*
X129825000Y-97581255D01*
X129825000Y-97418745D01*
X129793296Y-97259356D01*
X129731106Y-97109216D01*
X129640819Y-96974093D01*
X129525907Y-96859181D01*
X129390784Y-96768894D01*
X129240644Y-96706704D01*
X129081255Y-96675000D01*
X128918745Y-96675000D01*
X128759356Y-96706704D01*
X128609216Y-96768894D01*
X128474093Y-96859181D01*
X128383274Y-96950000D01*
X125527056Y-96950000D01*
X125527056Y-96700000D01*
X125518850Y-96616686D01*
X125494548Y-96536573D01*
X125455084Y-96462740D01*
X125401974Y-96398026D01*
X125337260Y-96344916D01*
X125263427Y-96305452D01*
X125183314Y-96281150D01*
X125100000Y-96272944D01*
X123600000Y-96272944D01*
X123516686Y-96281150D01*
X123436573Y-96305452D01*
X123400537Y-96324713D01*
X123344080Y-96255920D01*
X123248911Y-96177817D01*
X123140334Y-96119781D01*
X123022521Y-96084043D01*
X122900000Y-96071976D01*
X122331250Y-96075000D01*
X122175000Y-96231250D01*
X122175000Y-97475000D01*
X122195000Y-97475000D01*
X122195000Y-97525000D01*
X122175000Y-97525000D01*
X122175000Y-97545000D01*
X122125000Y-97545000D01*
X122125000Y-97525000D01*
X120931250Y-97525000D01*
X120775000Y-97681250D01*
X120771976Y-98300000D01*
X120450000Y-98300000D01*
X120450000Y-96700000D01*
X120771976Y-96700000D01*
X120775000Y-97318750D01*
X120931250Y-97475000D01*
X122125000Y-97475000D01*
X122125000Y-96231250D01*
X121968750Y-96075000D01*
X121400000Y-96071976D01*
X121277479Y-96084043D01*
X121159666Y-96119781D01*
X121051089Y-96177817D01*
X120955920Y-96255920D01*
X120877817Y-96351089D01*
X120819781Y-96459666D01*
X120784043Y-96577479D01*
X120771976Y-96700000D01*
X120450000Y-96700000D01*
X120450000Y-91200000D01*
X121447340Y-91200000D01*
X121450000Y-91227008D01*
X121450000Y-91527018D01*
X121450001Y-91527028D01*
X121450000Y-92972992D01*
X121447340Y-93000000D01*
X121450000Y-93027008D01*
X121450000Y-93027017D01*
X121457958Y-93107818D01*
X121489408Y-93211493D01*
X121540479Y-93307042D01*
X121609210Y-93390790D01*
X121630196Y-93408013D01*
X122122944Y-93900761D01*
X122122944Y-94700000D01*
X122131150Y-94783314D01*
X122155452Y-94863427D01*
X122194916Y-94937260D01*
X122248026Y-95001974D01*
X122312740Y-95055084D01*
X122386573Y-95094548D01*
X122466686Y-95118850D01*
X122550000Y-95127056D01*
X123450000Y-95127056D01*
X123533314Y-95118850D01*
X123613427Y-95094548D01*
X123687260Y-95055084D01*
X123751974Y-95001974D01*
X123805084Y-94937260D01*
X123844548Y-94863427D01*
X123868850Y-94783314D01*
X123877056Y-94700000D01*
X123877056Y-94654873D01*
X124496992Y-95274810D01*
X124514210Y-95295790D01*
X124535190Y-95313008D01*
X124535195Y-95313013D01*
X124597958Y-95364521D01*
X124693506Y-95415592D01*
X124797181Y-95447042D01*
X124877982Y-95455000D01*
X124877992Y-95455000D01*
X124905000Y-95457660D01*
X124932008Y-95455000D01*
X125946623Y-95455000D01*
X125951526Y-95460974D01*
X126016240Y-95514084D01*
X126090073Y-95553548D01*
X126170186Y-95577850D01*
X126253500Y-95586056D01*
X127396500Y-95586056D01*
X127479814Y-95577850D01*
X127559927Y-95553548D01*
X127633760Y-95514084D01*
X127698474Y-95460974D01*
X127751584Y-95396260D01*
X127791048Y-95322427D01*
X127815350Y-95242314D01*
X127823556Y-95159000D01*
X127823556Y-94651000D01*
X127815350Y-94567686D01*
X127791048Y-94487573D01*
X127751584Y-94413740D01*
X127698474Y-94349026D01*
X127633760Y-94295916D01*
X127585274Y-94270000D01*
X127633760Y-94244084D01*
X127698474Y-94190974D01*
X127703377Y-94185000D01*
X129302629Y-94185000D01*
X129334216Y-94206106D01*
X129484356Y-94268296D01*
X129643745Y-94300000D01*
X129806255Y-94300000D01*
X129965644Y-94268296D01*
X130115784Y-94206106D01*
X130250907Y-94115819D01*
X130365819Y-94000907D01*
X130456106Y-93865784D01*
X130518296Y-93715644D01*
X130550000Y-93556255D01*
X130550000Y-93393745D01*
X130518296Y-93234356D01*
X130456106Y-93084216D01*
X130365819Y-92949093D01*
X130250907Y-92834181D01*
X130115784Y-92743894D01*
X129965644Y-92681704D01*
X129806255Y-92650000D01*
X129643745Y-92650000D01*
X129484356Y-92681704D01*
X129334216Y-92743894D01*
X129199093Y-92834181D01*
X129084181Y-92949093D01*
X128993894Y-93084216D01*
X128993569Y-93085000D01*
X127703377Y-93085000D01*
X127698474Y-93079026D01*
X127633760Y-93025916D01*
X127585274Y-93000000D01*
X127633760Y-92974084D01*
X127698474Y-92920974D01*
X127751584Y-92856260D01*
X127791048Y-92782427D01*
X127815350Y-92702314D01*
X127823556Y-92619000D01*
X127823556Y-92111000D01*
X127815350Y-92027686D01*
X127791048Y-91947573D01*
X127751584Y-91873740D01*
X127747846Y-91869185D01*
X127840580Y-91793080D01*
X127918683Y-91697911D01*
X127976719Y-91589334D01*
X128012457Y-91471521D01*
X128024524Y-91349000D01*
X128021500Y-91276250D01*
X127865250Y-91120000D01*
X126850000Y-91120000D01*
X126850000Y-91140000D01*
X126800000Y-91140000D01*
X126800000Y-91120000D01*
X126780000Y-91120000D01*
X126780000Y-91070000D01*
X126800000Y-91070000D01*
X126800000Y-90372250D01*
X126850000Y-90372250D01*
X126850000Y-91070000D01*
X127865250Y-91070000D01*
X128021500Y-90913750D01*
X128024524Y-90841000D01*
X131975476Y-90841000D01*
X131978500Y-90913750D01*
X132134750Y-91070000D01*
X133150000Y-91070000D01*
X133150000Y-90372250D01*
X133200000Y-90372250D01*
X133200000Y-91070000D01*
X134215250Y-91070000D01*
X134371500Y-90913750D01*
X134374524Y-90841000D01*
X134362457Y-90718479D01*
X134326719Y-90600666D01*
X134268683Y-90492089D01*
X134190580Y-90396920D01*
X134095411Y-90318817D01*
X133986834Y-90260781D01*
X133869021Y-90225043D01*
X133746500Y-90212976D01*
X133356250Y-90216000D01*
X133200000Y-90372250D01*
X133150000Y-90372250D01*
X132993750Y-90216000D01*
X132603500Y-90212976D01*
X132480979Y-90225043D01*
X132363166Y-90260781D01*
X132254589Y-90318817D01*
X132159420Y-90396920D01*
X132081317Y-90492089D01*
X132023281Y-90600666D01*
X131987543Y-90718479D01*
X131975476Y-90841000D01*
X128024524Y-90841000D01*
X128012457Y-90718479D01*
X127976719Y-90600666D01*
X127918683Y-90492089D01*
X127840580Y-90396920D01*
X127745411Y-90318817D01*
X127636834Y-90260781D01*
X127519021Y-90225043D01*
X127396500Y-90212976D01*
X127006250Y-90216000D01*
X126850000Y-90372250D01*
X126800000Y-90372250D01*
X126643750Y-90216000D01*
X126253500Y-90212976D01*
X126130979Y-90225043D01*
X126013166Y-90260781D01*
X126000732Y-90267427D01*
X126003024Y-89950000D01*
X125995145Y-89870000D01*
X127746976Y-89870000D01*
X127759043Y-89992521D01*
X127794781Y-90110334D01*
X127852817Y-90218911D01*
X127930920Y-90314080D01*
X128026089Y-90392183D01*
X128134666Y-90450219D01*
X128252479Y-90485957D01*
X128375000Y-90498024D01*
X128568750Y-90495000D01*
X128725000Y-90338750D01*
X128725000Y-89295000D01*
X128775000Y-89295000D01*
X128775000Y-90338750D01*
X128931250Y-90495000D01*
X129125000Y-90498024D01*
X129247521Y-90485957D01*
X129365334Y-90450219D01*
X129473911Y-90392183D01*
X129569080Y-90314080D01*
X129647183Y-90218911D01*
X129705219Y-90110334D01*
X129740957Y-89992521D01*
X129753024Y-89870000D01*
X130246976Y-89870000D01*
X130259043Y-89992521D01*
X130294781Y-90110334D01*
X130352817Y-90218911D01*
X130430920Y-90314080D01*
X130526089Y-90392183D01*
X130634666Y-90450219D01*
X130752479Y-90485957D01*
X130875000Y-90498024D01*
X131068750Y-90495000D01*
X131225000Y-90338750D01*
X131225000Y-89295000D01*
X131275000Y-89295000D01*
X131275000Y-90338750D01*
X131431250Y-90495000D01*
X131625000Y-90498024D01*
X131747521Y-90485957D01*
X131865334Y-90450219D01*
X131973911Y-90392183D01*
X132069080Y-90314080D01*
X132147183Y-90218911D01*
X132205219Y-90110334D01*
X132240957Y-89992521D01*
X132253024Y-89870000D01*
X132250000Y-89451250D01*
X132093750Y-89295000D01*
X131275000Y-89295000D01*
X131225000Y-89295000D01*
X130406250Y-89295000D01*
X130250000Y-89451250D01*
X130246976Y-89870000D01*
X129753024Y-89870000D01*
X129750000Y-89451250D01*
X129593750Y-89295000D01*
X128775000Y-89295000D01*
X128725000Y-89295000D01*
X127906250Y-89295000D01*
X127750000Y-89451250D01*
X127746976Y-89870000D01*
X125995145Y-89870000D01*
X125990957Y-89827479D01*
X125955219Y-89709666D01*
X125897183Y-89601089D01*
X125819080Y-89505920D01*
X125723911Y-89427817D01*
X125615334Y-89369781D01*
X125497521Y-89334043D01*
X125375000Y-89321976D01*
X125181250Y-89325000D01*
X125025000Y-89481250D01*
X125025000Y-90525000D01*
X125045000Y-90525000D01*
X125045000Y-90575000D01*
X125025000Y-90575000D01*
X125025000Y-90595000D01*
X124975000Y-90595000D01*
X124975000Y-90575000D01*
X124156250Y-90575000D01*
X124000000Y-90731250D01*
X123996976Y-91150000D01*
X124009043Y-91272521D01*
X124044781Y-91390334D01*
X124102817Y-91498911D01*
X124180920Y-91594080D01*
X124249713Y-91650537D01*
X124230452Y-91686573D01*
X124206150Y-91766686D01*
X124197944Y-91850000D01*
X124197944Y-92430129D01*
X123877056Y-92109241D01*
X123877056Y-91300000D01*
X123868850Y-91216686D01*
X123844548Y-91136573D01*
X123805084Y-91062740D01*
X123751974Y-90998026D01*
X123687260Y-90944916D01*
X123613427Y-90905452D01*
X123533314Y-90881150D01*
X123450000Y-90872944D01*
X123104873Y-90872944D01*
X123997197Y-89980621D01*
X124000000Y-90368750D01*
X124156250Y-90525000D01*
X124975000Y-90525000D01*
X124975000Y-89481250D01*
X124818750Y-89325000D01*
X124625000Y-89321976D01*
X124535060Y-89330834D01*
X124542042Y-89307819D01*
X124550000Y-89227018D01*
X124550000Y-89227009D01*
X124552660Y-89200001D01*
X124550000Y-89172993D01*
X124550000Y-88227817D01*
X124572944Y-88204873D01*
X124572944Y-88750000D01*
X124581150Y-88833314D01*
X124605452Y-88913427D01*
X124644916Y-88987260D01*
X124698026Y-89051974D01*
X124762740Y-89105084D01*
X124836573Y-89144548D01*
X124916686Y-89168850D01*
X125000000Y-89177056D01*
X127000000Y-89177056D01*
X127083314Y-89168850D01*
X127163427Y-89144548D01*
X127237260Y-89105084D01*
X127301974Y-89051974D01*
X127355084Y-88987260D01*
X127394548Y-88913427D01*
X127418850Y-88833314D01*
X127427056Y-88750000D01*
X127427056Y-88670000D01*
X127746976Y-88670000D01*
X127750000Y-89088750D01*
X127906250Y-89245000D01*
X128725000Y-89245000D01*
X128725000Y-88201250D01*
X128775000Y-88201250D01*
X128775000Y-89245000D01*
X129593750Y-89245000D01*
X129750000Y-89088750D01*
X129753024Y-88670000D01*
X130246976Y-88670000D01*
X130250000Y-89088750D01*
X130406250Y-89245000D01*
X131225000Y-89245000D01*
X131225000Y-88201250D01*
X131275000Y-88201250D01*
X131275000Y-89245000D01*
X132093750Y-89245000D01*
X132250000Y-89088750D01*
X132253024Y-88670000D01*
X132240957Y-88547479D01*
X132205219Y-88429666D01*
X132147183Y-88321089D01*
X132069080Y-88225920D01*
X131973911Y-88147817D01*
X131865334Y-88089781D01*
X131747521Y-88054043D01*
X131625000Y-88041976D01*
X131431250Y-88045000D01*
X131275000Y-88201250D01*
X131225000Y-88201250D01*
X131068750Y-88045000D01*
X130875000Y-88041976D01*
X130752479Y-88054043D01*
X130634666Y-88089781D01*
X130526089Y-88147817D01*
X130430920Y-88225920D01*
X130352817Y-88321089D01*
X130294781Y-88429666D01*
X130259043Y-88547479D01*
X130246976Y-88670000D01*
X129753024Y-88670000D01*
X129740957Y-88547479D01*
X129705219Y-88429666D01*
X129647183Y-88321089D01*
X129569080Y-88225920D01*
X129473911Y-88147817D01*
X129365334Y-88089781D01*
X129247521Y-88054043D01*
X129125000Y-88041976D01*
X128931250Y-88045000D01*
X128775000Y-88201250D01*
X128725000Y-88201250D01*
X128568750Y-88045000D01*
X128375000Y-88041976D01*
X128252479Y-88054043D01*
X128134666Y-88089781D01*
X128026089Y-88147817D01*
X127930920Y-88225920D01*
X127852817Y-88321089D01*
X127794781Y-88429666D01*
X127759043Y-88547479D01*
X127746976Y-88670000D01*
X127427056Y-88670000D01*
X127427056Y-87280000D01*
X127947944Y-87280000D01*
X127947944Y-87330000D01*
X127956150Y-87413314D01*
X127980452Y-87493427D01*
X128019916Y-87567260D01*
X128073026Y-87631974D01*
X128137740Y-87685084D01*
X128211573Y-87724548D01*
X128291686Y-87748850D01*
X128375000Y-87757056D01*
X129125000Y-87757056D01*
X129208314Y-87748850D01*
X129288427Y-87724548D01*
X129362260Y-87685084D01*
X129426974Y-87631974D01*
X129480084Y-87567260D01*
X129519548Y-87493427D01*
X129543850Y-87413314D01*
X129552056Y-87330000D01*
X129552056Y-86130000D01*
X129543850Y-86046686D01*
X129519548Y-85966573D01*
X129480084Y-85892740D01*
X129426974Y-85828026D01*
X129362260Y-85774916D01*
X129288427Y-85735452D01*
X129270097Y-85729892D01*
X129305084Y-85687260D01*
X129344548Y-85613427D01*
X129368850Y-85533314D01*
X129377056Y-85450000D01*
X129377056Y-85248851D01*
X129484356Y-85293296D01*
X129643745Y-85325000D01*
X129675000Y-85325000D01*
X129675000Y-85331255D01*
X129706704Y-85490644D01*
X129768894Y-85640784D01*
X129859181Y-85775907D01*
X129974093Y-85890819D01*
X130109216Y-85981106D01*
X130259356Y-86043296D01*
X130418745Y-86075000D01*
X130453361Y-86075000D01*
X130447944Y-86130000D01*
X130447944Y-87330000D01*
X130456150Y-87413314D01*
X130480452Y-87493427D01*
X130519916Y-87567260D01*
X130573026Y-87631974D01*
X130637740Y-87685084D01*
X130711573Y-87724548D01*
X130791686Y-87748850D01*
X130875000Y-87757056D01*
X131625000Y-87757056D01*
X131708314Y-87748850D01*
X131788427Y-87724548D01*
X131862260Y-87685084D01*
X131926974Y-87631974D01*
X131980084Y-87567260D01*
X132019548Y-87493427D01*
X132043850Y-87413314D01*
X132052056Y-87330000D01*
X132052056Y-87280000D01*
X132572944Y-87280000D01*
X132572944Y-88750000D01*
X132581150Y-88833314D01*
X132605452Y-88913427D01*
X132644916Y-88987260D01*
X132698026Y-89051974D01*
X132762740Y-89105084D01*
X132836573Y-89144548D01*
X132916686Y-89168850D01*
X133000000Y-89177056D01*
X135000000Y-89177056D01*
X135083314Y-89168850D01*
X135163427Y-89144548D01*
X135237260Y-89105084D01*
X135301974Y-89051974D01*
X135355084Y-88987260D01*
X135394548Y-88913427D01*
X135418850Y-88833314D01*
X135427056Y-88750000D01*
X135427056Y-88404873D01*
X135450000Y-88427817D01*
X135450001Y-89172983D01*
X135447340Y-89200000D01*
X135450001Y-89227018D01*
X135457959Y-89307819D01*
X135462254Y-89321976D01*
X135489409Y-89411494D01*
X135540479Y-89507042D01*
X135591987Y-89569804D01*
X135591993Y-89569810D01*
X135609211Y-89590790D01*
X135630191Y-89608008D01*
X135895127Y-89872944D01*
X135300000Y-89872944D01*
X135216686Y-89881150D01*
X135136573Y-89905452D01*
X135062740Y-89944916D01*
X134998026Y-89998026D01*
X134944916Y-90062740D01*
X134905452Y-90136573D01*
X134881150Y-90216686D01*
X134872944Y-90300000D01*
X134872944Y-90999238D01*
X134345821Y-91526361D01*
X134362457Y-91471521D01*
X134374524Y-91349000D01*
X134371500Y-91276250D01*
X134215250Y-91120000D01*
X133200000Y-91120000D01*
X133200000Y-91140000D01*
X133150000Y-91140000D01*
X133150000Y-91120000D01*
X132134750Y-91120000D01*
X131978500Y-91276250D01*
X131975476Y-91349000D01*
X131987543Y-91471521D01*
X132023281Y-91589334D01*
X132081317Y-91697911D01*
X132159420Y-91793080D01*
X132186130Y-91815000D01*
X131342786Y-91815000D01*
X131324968Y-91797182D01*
X131324968Y-91668745D01*
X131293264Y-91509356D01*
X131231074Y-91359216D01*
X131140787Y-91224093D01*
X131025875Y-91109181D01*
X130890752Y-91018894D01*
X130740612Y-90956704D01*
X130581223Y-90925000D01*
X130418713Y-90925000D01*
X130259324Y-90956704D01*
X130109184Y-91018894D01*
X129974061Y-91109181D01*
X129859149Y-91224093D01*
X129768862Y-91359216D01*
X129706672Y-91509356D01*
X129674968Y-91668745D01*
X129674968Y-91831255D01*
X129706672Y-91990644D01*
X129768862Y-92140784D01*
X129859149Y-92275907D01*
X129974061Y-92390819D01*
X130109184Y-92481106D01*
X130259324Y-92543296D01*
X130418713Y-92575000D01*
X130547150Y-92575000D01*
X130706960Y-92734809D01*
X130724178Y-92755790D01*
X130745158Y-92773008D01*
X130745163Y-92773013D01*
X130797065Y-92815607D01*
X130807926Y-92824521D01*
X130903474Y-92875592D01*
X131007149Y-92907042D01*
X131087950Y-92915000D01*
X131087959Y-92915000D01*
X131114967Y-92917660D01*
X131141975Y-92915000D01*
X132296623Y-92915000D01*
X132301526Y-92920974D01*
X132366240Y-92974084D01*
X132414726Y-93000000D01*
X132366240Y-93025916D01*
X132301526Y-93079026D01*
X132248416Y-93143740D01*
X132208952Y-93217573D01*
X132184650Y-93297686D01*
X132176444Y-93381000D01*
X132176444Y-93889000D01*
X132184650Y-93972314D01*
X132208952Y-94052427D01*
X132248416Y-94126260D01*
X132301526Y-94190974D01*
X132366240Y-94244084D01*
X132414726Y-94270000D01*
X132366240Y-94295916D01*
X132301526Y-94349026D01*
X132294745Y-94357289D01*
X132237181Y-94362958D01*
X132133506Y-94394408D01*
X132037958Y-94445479D01*
X131954210Y-94514210D01*
X131936988Y-94535195D01*
X130900191Y-95571992D01*
X130879211Y-95589210D01*
X130861993Y-95610190D01*
X130861987Y-95610196D01*
X130810479Y-95672958D01*
X130781425Y-95727316D01*
X130759409Y-95768506D01*
X130732302Y-95857866D01*
X130727959Y-95872182D01*
X130717340Y-95980000D01*
X130720001Y-96007018D01*
X130720000Y-98883274D01*
X130629181Y-98974093D01*
X130538894Y-99109216D01*
X130476704Y-99259356D01*
X130445000Y-99418745D01*
X130445000Y-99581255D01*
X130476704Y-99740644D01*
X130538894Y-99890784D01*
X130629181Y-100025907D01*
X130649824Y-100046550D01*
X130648026Y-100048026D01*
X130635000Y-100063898D01*
X130621974Y-100048026D01*
X130557260Y-99994916D01*
X130483427Y-99955452D01*
X130403314Y-99931150D01*
X130320000Y-99922944D01*
X129680000Y-99922944D01*
X129596686Y-99931150D01*
X129531111Y-99951042D01*
X129494080Y-99905920D01*
X129398911Y-99827817D01*
X129290334Y-99769781D01*
X129172521Y-99734043D01*
X129050000Y-99721976D01*
X128911250Y-99725000D01*
X128755000Y-99881250D01*
X128755000Y-101325000D01*
X128775000Y-101325000D01*
X128775000Y-101375000D01*
X128755000Y-101375000D01*
X128755000Y-102818750D01*
X128911250Y-102975000D01*
X129050000Y-102978024D01*
X129172521Y-102965957D01*
X129290334Y-102930219D01*
X129398911Y-102872183D01*
X129450001Y-102830255D01*
X129450001Y-104045986D01*
X129447340Y-104073004D01*
X129450001Y-104100022D01*
X129455713Y-104158013D01*
X129457959Y-104180822D01*
X129489409Y-104284498D01*
X129540479Y-104380046D01*
X129591987Y-104442808D01*
X129591993Y-104442814D01*
X129609211Y-104463794D01*
X129630191Y-104481012D01*
X129993989Y-104844811D01*
X130011208Y-104865792D01*
X130032188Y-104883010D01*
X130032193Y-104883015D01*
X130094955Y-104934523D01*
X130118935Y-104947340D01*
X130190504Y-104985594D01*
X130294179Y-105017044D01*
X130374980Y-105025002D01*
X130374989Y-105025002D01*
X130401997Y-105027662D01*
X130429005Y-105025002D01*
X131070994Y-105025002D01*
X131098002Y-105027662D01*
X131125010Y-105025002D01*
X131125020Y-105025002D01*
X131205821Y-105017044D01*
X131309496Y-104985594D01*
X131405044Y-104934523D01*
X131488792Y-104865792D01*
X131506015Y-104844806D01*
X135369804Y-100981017D01*
X135390790Y-100963794D01*
X135459521Y-100880046D01*
X135510592Y-100784498D01*
X135542042Y-100680823D01*
X135550000Y-100600022D01*
X135550000Y-100600013D01*
X135552660Y-100573005D01*
X135550000Y-100545997D01*
X135550000Y-96082400D01*
X136455344Y-96082400D01*
X136455344Y-98317600D01*
X136463550Y-98400914D01*
X136487852Y-98481027D01*
X136527316Y-98554860D01*
X136580426Y-98619574D01*
X136645140Y-98672684D01*
X136718973Y-98712148D01*
X136799086Y-98736450D01*
X136882400Y-98744656D01*
X139117600Y-98744656D01*
X139200914Y-98736450D01*
X139281027Y-98712148D01*
X139354860Y-98672684D01*
X139419574Y-98619574D01*
X139472684Y-98554860D01*
X139512148Y-98481027D01*
X139536450Y-98400914D01*
X139544656Y-98317600D01*
X139544656Y-96082400D01*
X139536450Y-95999086D01*
X139512148Y-95918973D01*
X139472684Y-95845140D01*
X139419574Y-95780426D01*
X139354860Y-95727316D01*
X139281027Y-95687852D01*
X139200914Y-95663550D01*
X139117600Y-95655344D01*
X136882400Y-95655344D01*
X136799086Y-95663550D01*
X136718973Y-95687852D01*
X136645140Y-95727316D01*
X136580426Y-95780426D01*
X136527316Y-95845140D01*
X136487852Y-95918973D01*
X136463550Y-95999086D01*
X136455344Y-96082400D01*
X135550000Y-96082400D01*
X135550000Y-96016726D01*
X135640819Y-95925907D01*
X135731106Y-95790784D01*
X135793296Y-95640644D01*
X135825000Y-95481255D01*
X135825000Y-95318745D01*
X135793296Y-95159356D01*
X135731106Y-95009216D01*
X135640819Y-94874093D01*
X135525907Y-94759181D01*
X135390784Y-94668894D01*
X135240644Y-94606704D01*
X135081255Y-94575000D01*
X134918745Y-94575000D01*
X134759356Y-94606704D01*
X134609216Y-94668894D01*
X134474093Y-94759181D01*
X134359181Y-94874093D01*
X134268894Y-95009216D01*
X134206704Y-95159356D01*
X134175000Y-95318745D01*
X134175000Y-95481255D01*
X134206704Y-95640644D01*
X134268894Y-95790784D01*
X134359181Y-95925907D01*
X134450001Y-96016727D01*
X134450000Y-100345187D01*
X131820000Y-102975187D01*
X131820000Y-102708964D01*
X131827260Y-102705084D01*
X131891974Y-102651974D01*
X131945084Y-102587260D01*
X131984548Y-102513427D01*
X132008850Y-102433314D01*
X132017056Y-102350000D01*
X132017056Y-100350000D01*
X132008850Y-100266686D01*
X131984548Y-100186573D01*
X131945084Y-100112740D01*
X131891974Y-100048026D01*
X131890176Y-100046550D01*
X131910819Y-100025907D01*
X132001106Y-99890784D01*
X132063296Y-99740644D01*
X132095000Y-99581255D01*
X132095000Y-99418745D01*
X132063296Y-99259356D01*
X132001106Y-99109216D01*
X131910819Y-98974093D01*
X131820000Y-98883274D01*
X131820000Y-96207817D01*
X132466310Y-95561507D01*
X132520186Y-95577850D01*
X132603500Y-95586056D01*
X133746500Y-95586056D01*
X133829814Y-95577850D01*
X133909927Y-95553548D01*
X133983760Y-95514084D01*
X134048474Y-95460974D01*
X134101584Y-95396260D01*
X134141048Y-95322427D01*
X134165350Y-95242314D01*
X134173556Y-95159000D01*
X134173556Y-94651000D01*
X134165350Y-94567686D01*
X134141048Y-94487573D01*
X134101584Y-94413740D01*
X134048474Y-94349026D01*
X133983760Y-94295916D01*
X133935274Y-94270000D01*
X133983760Y-94244084D01*
X134048474Y-94190974D01*
X134053377Y-94185000D01*
X134337992Y-94185000D01*
X134365000Y-94187660D01*
X134392008Y-94185000D01*
X134392018Y-94185000D01*
X134472819Y-94177042D01*
X134576494Y-94145592D01*
X134672042Y-94094521D01*
X134755790Y-94025790D01*
X134773012Y-94004805D01*
X134908565Y-93869252D01*
X134944916Y-93937260D01*
X134998026Y-94001974D01*
X135062740Y-94055084D01*
X135136573Y-94094548D01*
X135216686Y-94118850D01*
X135300000Y-94127056D01*
X136200000Y-94127056D01*
X136283314Y-94118850D01*
X136363427Y-94094548D01*
X136437260Y-94055084D01*
X136501974Y-94001974D01*
X136555084Y-93937260D01*
X136594548Y-93863427D01*
X136618850Y-93783314D01*
X136627056Y-93700000D01*
X136627056Y-93000761D01*
X137119804Y-92508013D01*
X137140790Y-92490790D01*
X137209521Y-92407042D01*
X137260592Y-92311494D01*
X137292042Y-92207819D01*
X137300000Y-92127018D01*
X137300000Y-92127011D01*
X137302660Y-92100000D01*
X137300000Y-92072989D01*
X137300000Y-89977007D01*
X137302660Y-89949999D01*
X137300000Y-89922991D01*
X137300000Y-89922982D01*
X137292042Y-89842181D01*
X137260592Y-89738506D01*
X137209521Y-89642958D01*
X137175160Y-89601089D01*
X137158013Y-89580195D01*
X137158008Y-89580190D01*
X137140790Y-89559210D01*
X137119810Y-89541992D01*
X136550000Y-88972183D01*
X136550000Y-88227007D01*
X136552660Y-88199999D01*
X136550000Y-88172991D01*
X136550000Y-88172982D01*
X136542042Y-88092181D01*
X136510592Y-87988506D01*
X136459521Y-87892958D01*
X136390790Y-87809210D01*
X136369804Y-87791987D01*
X135708012Y-87130195D01*
X135690790Y-87109210D01*
X135607042Y-87040479D01*
X135511494Y-86989408D01*
X135427056Y-86963794D01*
X135427056Y-86250000D01*
X135418850Y-86166686D01*
X135394548Y-86086573D01*
X135355084Y-86012740D01*
X135301974Y-85948026D01*
X135237260Y-85894916D01*
X135163427Y-85855452D01*
X135083314Y-85831150D01*
X135000000Y-85822944D01*
X134550000Y-85822944D01*
X134550000Y-85677056D01*
X135000000Y-85677056D01*
X135083314Y-85668850D01*
X135163427Y-85644548D01*
X135237260Y-85605084D01*
X135301974Y-85551974D01*
X135355084Y-85487260D01*
X135394548Y-85413427D01*
X135418850Y-85333314D01*
X135427056Y-85250000D01*
X135427056Y-82750000D01*
X135418850Y-82666686D01*
X135394548Y-82586573D01*
X135355084Y-82512740D01*
X135301974Y-82448026D01*
X135237260Y-82394916D01*
X135163427Y-82355452D01*
X135083314Y-82331150D01*
X135000000Y-82322944D01*
X133000000Y-82322944D01*
X132916686Y-82331150D01*
X132836573Y-82355452D01*
X132762740Y-82394916D01*
X132698026Y-82448026D01*
X132644916Y-82512740D01*
X132605452Y-82586573D01*
X132581150Y-82666686D01*
X132572944Y-82750000D01*
X132572944Y-85250000D01*
X132581150Y-85333314D01*
X132605452Y-85413427D01*
X132644916Y-85487260D01*
X132698026Y-85551974D01*
X132762740Y-85605084D01*
X132836573Y-85644548D01*
X132916686Y-85668850D01*
X133000000Y-85677056D01*
X133450000Y-85677056D01*
X133450001Y-85822944D01*
X133000000Y-85822944D01*
X132916686Y-85831150D01*
X132836573Y-85855452D01*
X132762740Y-85894916D01*
X132698026Y-85948026D01*
X132644916Y-86012740D01*
X132605452Y-86086573D01*
X132581150Y-86166686D01*
X132579839Y-86180000D01*
X132052056Y-86180000D01*
X132052056Y-86130000D01*
X132043850Y-86046686D01*
X132019548Y-85966573D01*
X131980084Y-85892740D01*
X131965925Y-85875487D01*
X132033314Y-85868850D01*
X132113427Y-85844548D01*
X132187260Y-85805084D01*
X132251974Y-85751974D01*
X132305084Y-85687260D01*
X132344548Y-85613427D01*
X132368850Y-85533314D01*
X132377056Y-85450000D01*
X132377056Y-84250000D01*
X132368850Y-84166686D01*
X132344548Y-84086573D01*
X132305084Y-84012740D01*
X132251974Y-83948026D01*
X132187260Y-83894916D01*
X132113427Y-83855452D01*
X132033314Y-83831150D01*
X131950000Y-83822944D01*
X131050000Y-83822944D01*
X130966686Y-83831150D01*
X130886573Y-83855452D01*
X130812740Y-83894916D01*
X130748026Y-83948026D01*
X130694916Y-84012740D01*
X130655452Y-84086573D01*
X130631150Y-84166686D01*
X130622944Y-84250000D01*
X130622944Y-84433292D01*
X130581255Y-84425000D01*
X130550000Y-84425000D01*
X130550000Y-84418745D01*
X130518296Y-84259356D01*
X130456106Y-84109216D01*
X130365819Y-83974093D01*
X130250907Y-83859181D01*
X130115784Y-83768894D01*
X129965644Y-83706704D01*
X129806255Y-83675000D01*
X129643745Y-83675000D01*
X129484356Y-83706704D01*
X129334216Y-83768894D01*
X129199093Y-83859181D01*
X129171684Y-83886590D01*
X129113427Y-83855452D01*
X129033314Y-83831150D01*
X128950000Y-83822944D01*
X128050000Y-83822944D01*
X127966686Y-83831150D01*
X127886573Y-83855452D01*
X127812740Y-83894916D01*
X127748026Y-83948026D01*
X127694916Y-84012740D01*
X127655452Y-84086573D01*
X127631150Y-84166686D01*
X127622944Y-84250000D01*
X127622944Y-85450000D01*
X127631150Y-85533314D01*
X127655452Y-85613427D01*
X127694916Y-85687260D01*
X127748026Y-85751974D01*
X127812740Y-85805084D01*
X127886573Y-85844548D01*
X127966686Y-85868850D01*
X128034075Y-85875487D01*
X128019916Y-85892740D01*
X127980452Y-85966573D01*
X127956150Y-86046686D01*
X127947944Y-86130000D01*
X127947944Y-86180000D01*
X127420161Y-86180000D01*
X127418850Y-86166686D01*
X127394548Y-86086573D01*
X127355084Y-86012740D01*
X127301974Y-85948026D01*
X127237260Y-85894916D01*
X127163427Y-85855452D01*
X127083314Y-85831150D01*
X127000000Y-85822944D01*
X126550000Y-85822944D01*
X126550000Y-85677056D01*
X127000000Y-85677056D01*
X127083314Y-85668850D01*
X127163427Y-85644548D01*
X127237260Y-85605084D01*
X127301974Y-85551974D01*
X127355084Y-85487260D01*
X127394548Y-85413427D01*
X127418850Y-85333314D01*
X127427056Y-85250000D01*
X127427056Y-82750000D01*
X127418850Y-82666686D01*
X127394548Y-82586573D01*
X127355084Y-82512740D01*
X127301974Y-82448026D01*
X127237260Y-82394916D01*
X127163427Y-82355452D01*
X127083314Y-82331150D01*
X127000000Y-82322944D01*
X125000000Y-82322944D01*
X124916686Y-82331150D01*
X124836573Y-82355452D01*
X124762740Y-82394916D01*
X124698026Y-82448026D01*
X124644916Y-82512740D01*
X124605452Y-82586573D01*
X124581150Y-82666686D01*
X124572944Y-82750000D01*
X124572944Y-85250000D01*
X124581150Y-85333314D01*
X124605452Y-85413427D01*
X124644916Y-85487260D01*
X124698026Y-85551974D01*
X124762740Y-85605084D01*
X124836573Y-85644548D01*
X124916686Y-85668850D01*
X125000000Y-85677056D01*
X125450000Y-85677056D01*
X125450001Y-85822944D01*
X125000000Y-85822944D01*
X124916686Y-85831150D01*
X124836573Y-85855452D01*
X124762740Y-85894916D01*
X124698026Y-85948026D01*
X124644916Y-86012740D01*
X124605452Y-86086573D01*
X124581150Y-86166686D01*
X124572944Y-86250000D01*
X124572944Y-86950000D01*
X124527011Y-86950000D01*
X124500000Y-86947340D01*
X124472989Y-86950000D01*
X124472982Y-86950000D01*
X124392181Y-86957958D01*
X124288505Y-86989408D01*
X124199388Y-87037042D01*
X124192958Y-87040479D01*
X124109210Y-87109210D01*
X124091988Y-87130195D01*
X123630196Y-87591987D01*
X123609210Y-87609210D01*
X123540479Y-87692958D01*
X123489408Y-87788507D01*
X123457958Y-87892182D01*
X123450000Y-87972983D01*
X123450000Y-87972992D01*
X123447340Y-88000000D01*
X123450000Y-88027008D01*
X123450001Y-88972181D01*
X121630196Y-90791987D01*
X121609210Y-90809210D01*
X121540479Y-90892958D01*
X121489408Y-90988507D01*
X121457958Y-91092182D01*
X121450000Y-91172983D01*
X121450000Y-91172992D01*
X121447340Y-91200000D01*
X120450000Y-91200000D01*
X120450000Y-80516000D01*
X120508376Y-80516000D01*
X120520443Y-80638521D01*
X120556181Y-80756334D01*
X120614217Y-80864911D01*
X120692320Y-80960080D01*
X120787489Y-81038183D01*
X120896066Y-81096219D01*
X121013879Y-81131957D01*
X121136400Y-81144024D01*
X121818750Y-81141000D01*
X121975000Y-80984750D01*
X121975000Y-79525000D01*
X120667650Y-79525000D01*
X120511400Y-79681250D01*
X120508376Y-80516000D01*
X120450000Y-80516000D01*
X120450000Y-73484000D01*
X120468376Y-73484000D01*
X120471400Y-74318750D01*
X120627650Y-74475000D01*
X121935000Y-74475000D01*
X121935000Y-74455000D01*
X121985000Y-74455000D01*
X121985000Y-74475000D01*
X122005000Y-74475000D01*
X122005000Y-74525000D01*
X121985000Y-74525000D01*
X121985000Y-74545000D01*
X121935000Y-74545000D01*
X121935000Y-74525000D01*
X120627650Y-74525000D01*
X120471400Y-74681250D01*
X120468376Y-75516000D01*
X120480443Y-75638521D01*
X120516181Y-75756334D01*
X120574217Y-75864911D01*
X120652320Y-75960080D01*
X120747489Y-76038183D01*
X120856066Y-76096219D01*
X120860766Y-76097645D01*
X120851089Y-76102817D01*
X120755920Y-76180920D01*
X120677817Y-76276089D01*
X120619781Y-76384666D01*
X120584043Y-76502479D01*
X120571976Y-76625000D01*
X120575000Y-76818750D01*
X120731250Y-76975000D01*
X121775000Y-76975000D01*
X121775000Y-76955000D01*
X121825000Y-76955000D01*
X121825000Y-76975000D01*
X121845000Y-76975000D01*
X121845000Y-77025000D01*
X121825000Y-77025000D01*
X121825000Y-77045000D01*
X121775000Y-77045000D01*
X121775000Y-77025000D01*
X120731250Y-77025000D01*
X120575000Y-77181250D01*
X120571976Y-77375000D01*
X120584043Y-77497521D01*
X120619781Y-77615334D01*
X120677817Y-77723911D01*
X120755920Y-77819080D01*
X120851089Y-77897183D01*
X120879749Y-77912502D01*
X120787489Y-77961817D01*
X120692320Y-78039920D01*
X120614217Y-78135089D01*
X120556181Y-78243666D01*
X120520443Y-78361479D01*
X120508376Y-78484000D01*
X120511400Y-79318750D01*
X120667650Y-79475000D01*
X121975000Y-79475000D01*
X121975000Y-79455000D01*
X122025000Y-79455000D01*
X122025000Y-79475000D01*
X122045000Y-79475000D01*
X122045000Y-79525000D01*
X122025000Y-79525000D01*
X122025000Y-80984750D01*
X122181250Y-81141000D01*
X122863600Y-81144024D01*
X122986121Y-81131957D01*
X123103934Y-81096219D01*
X123212511Y-81038183D01*
X123307680Y-80960080D01*
X123385783Y-80864911D01*
X123443819Y-80756334D01*
X123479557Y-80638521D01*
X123491624Y-80516000D01*
X123491224Y-80405693D01*
X123624415Y-80567986D01*
X123820630Y-80729015D01*
X124044489Y-80848671D01*
X124287391Y-80922354D01*
X124540000Y-80947234D01*
X124792610Y-80922354D01*
X125035512Y-80848671D01*
X125259371Y-80729015D01*
X125455586Y-80567986D01*
X125616615Y-80371770D01*
X125736271Y-80147911D01*
X125809954Y-79905009D01*
X125810000Y-79904542D01*
X125810046Y-79905010D01*
X125883729Y-80147912D01*
X126003385Y-80371771D01*
X126164415Y-80567986D01*
X126360630Y-80729015D01*
X126584489Y-80848671D01*
X126827391Y-80922354D01*
X127080000Y-80947234D01*
X127296248Y-80925935D01*
X127272183Y-80950000D01*
X124277011Y-80950000D01*
X124250000Y-80947340D01*
X124222989Y-80950000D01*
X124222982Y-80950000D01*
X124142181Y-80957958D01*
X124038506Y-80989408D01*
X123942958Y-81040479D01*
X123859210Y-81109210D01*
X123841988Y-81130195D01*
X122649239Y-82322944D01*
X121000000Y-82322944D01*
X120916686Y-82331150D01*
X120836573Y-82355452D01*
X120762740Y-82394916D01*
X120698026Y-82448026D01*
X120644916Y-82512740D01*
X120605452Y-82586573D01*
X120581150Y-82666686D01*
X120572944Y-82750000D01*
X120572944Y-85250000D01*
X120581150Y-85333314D01*
X120605452Y-85413427D01*
X120644916Y-85487260D01*
X120698026Y-85551974D01*
X120762740Y-85605084D01*
X120836573Y-85644548D01*
X120916686Y-85668850D01*
X121000000Y-85677056D01*
X121450000Y-85677056D01*
X121450001Y-85822944D01*
X121000000Y-85822944D01*
X120916686Y-85831150D01*
X120836573Y-85855452D01*
X120762740Y-85894916D01*
X120698026Y-85948026D01*
X120644916Y-86012740D01*
X120605452Y-86086573D01*
X120581150Y-86166686D01*
X120572944Y-86250000D01*
X120572944Y-88750000D01*
X120581150Y-88833314D01*
X120605452Y-88913427D01*
X120644916Y-88987260D01*
X120698026Y-89051974D01*
X120762740Y-89105084D01*
X120836573Y-89144548D01*
X120916686Y-89168850D01*
X121000000Y-89177056D01*
X123000000Y-89177056D01*
X123083314Y-89168850D01*
X123163427Y-89144548D01*
X123237260Y-89105084D01*
X123301974Y-89051974D01*
X123355084Y-88987260D01*
X123394548Y-88913427D01*
X123418850Y-88833314D01*
X123427056Y-88750000D01*
X123427056Y-86250000D01*
X123418850Y-86166686D01*
X123394548Y-86086573D01*
X123355084Y-86012740D01*
X123301974Y-85948026D01*
X123237260Y-85894916D01*
X123163427Y-85855452D01*
X123083314Y-85831150D01*
X123000000Y-85822944D01*
X122550000Y-85822944D01*
X122550000Y-85677056D01*
X123000000Y-85677056D01*
X123083314Y-85668850D01*
X123163427Y-85644548D01*
X123237260Y-85605084D01*
X123301974Y-85551974D01*
X123355084Y-85487260D01*
X123394548Y-85413427D01*
X123418850Y-85333314D01*
X123427056Y-85250000D01*
X123427056Y-83100761D01*
X124477817Y-82050000D01*
X127472992Y-82050000D01*
X127500000Y-82052660D01*
X127527008Y-82050000D01*
X127527018Y-82050000D01*
X127607819Y-82042042D01*
X127624218Y-82037067D01*
X127622944Y-82050000D01*
X127622944Y-83250000D01*
X127631150Y-83333314D01*
X127655452Y-83413427D01*
X127694916Y-83487260D01*
X127748026Y-83551974D01*
X127812740Y-83605084D01*
X127886573Y-83644548D01*
X127966686Y-83668850D01*
X128050000Y-83677056D01*
X128950000Y-83677056D01*
X129033314Y-83668850D01*
X129113427Y-83644548D01*
X129187260Y-83605084D01*
X129251974Y-83551974D01*
X129305084Y-83487260D01*
X129344548Y-83413427D01*
X129368850Y-83333314D01*
X129377056Y-83250000D01*
X129377056Y-82400761D01*
X130000000Y-81777818D01*
X130622944Y-82400762D01*
X130622944Y-83250000D01*
X130631150Y-83333314D01*
X130655452Y-83413427D01*
X130694916Y-83487260D01*
X130748026Y-83551974D01*
X130812740Y-83605084D01*
X130886573Y-83644548D01*
X130966686Y-83668850D01*
X131050000Y-83677056D01*
X131950000Y-83677056D01*
X132033314Y-83668850D01*
X132113427Y-83644548D01*
X132187260Y-83605084D01*
X132251974Y-83551974D01*
X132305084Y-83487260D01*
X132344548Y-83413427D01*
X132368850Y-83333314D01*
X132377056Y-83250000D01*
X132377056Y-82050000D01*
X135522183Y-82050000D01*
X136572944Y-83100761D01*
X136572944Y-85250000D01*
X136581150Y-85333314D01*
X136605452Y-85413427D01*
X136644916Y-85487260D01*
X136698026Y-85551974D01*
X136762740Y-85605084D01*
X136836573Y-85644548D01*
X136916686Y-85668850D01*
X137000000Y-85677056D01*
X137450000Y-85677056D01*
X137450001Y-85822944D01*
X137000000Y-85822944D01*
X136916686Y-85831150D01*
X136836573Y-85855452D01*
X136762740Y-85894916D01*
X136698026Y-85948026D01*
X136644916Y-86012740D01*
X136605452Y-86086573D01*
X136581150Y-86166686D01*
X136572944Y-86250000D01*
X136572944Y-88750000D01*
X136581150Y-88833314D01*
X136605452Y-88913427D01*
X136644916Y-88987260D01*
X136698026Y-89051974D01*
X136762740Y-89105084D01*
X136836573Y-89144548D01*
X136916686Y-89168850D01*
X137000000Y-89177056D01*
X139000000Y-89177056D01*
X139083314Y-89168850D01*
X139163427Y-89144548D01*
X139237260Y-89105084D01*
X139301974Y-89051974D01*
X139355084Y-88987260D01*
X139394548Y-88913427D01*
X139418850Y-88833314D01*
X139427056Y-88750000D01*
X139427056Y-86250000D01*
X139418850Y-86166686D01*
X139394548Y-86086573D01*
X139355084Y-86012740D01*
X139301974Y-85948026D01*
X139237260Y-85894916D01*
X139163427Y-85855452D01*
X139083314Y-85831150D01*
X139000000Y-85822944D01*
X138550000Y-85822944D01*
X138550000Y-85677056D01*
X139000000Y-85677056D01*
X139083314Y-85668850D01*
X139163427Y-85644548D01*
X139237260Y-85605084D01*
X139301974Y-85551974D01*
X139355084Y-85487260D01*
X139394548Y-85413427D01*
X139418850Y-85333314D01*
X139427056Y-85250000D01*
X139427056Y-82750000D01*
X139418850Y-82666686D01*
X139394548Y-82586573D01*
X139355084Y-82512740D01*
X139301974Y-82448026D01*
X139237260Y-82394916D01*
X139163427Y-82355452D01*
X139083314Y-82331150D01*
X139000000Y-82322944D01*
X137350761Y-82322944D01*
X136158012Y-81130195D01*
X136140790Y-81109210D01*
X136057042Y-81040479D01*
X135961494Y-80989408D01*
X135857819Y-80957958D01*
X135777018Y-80950000D01*
X135777008Y-80950000D01*
X135750000Y-80947340D01*
X135722992Y-80950000D01*
X134275952Y-80950000D01*
X134345783Y-80864911D01*
X134403819Y-80756334D01*
X134439557Y-80638521D01*
X134451624Y-80516000D01*
X134451224Y-80405693D01*
X134584415Y-80567986D01*
X134780630Y-80729015D01*
X135004489Y-80848671D01*
X135247391Y-80922354D01*
X135500000Y-80947234D01*
X135752610Y-80922354D01*
X135995512Y-80848671D01*
X136219371Y-80729015D01*
X136415586Y-80567986D01*
X136576615Y-80371770D01*
X136696271Y-80147911D01*
X136769954Y-79905009D01*
X136770000Y-79904542D01*
X136770046Y-79905010D01*
X136843729Y-80147912D01*
X136963385Y-80371771D01*
X137124415Y-80567986D01*
X137320630Y-80729015D01*
X137544489Y-80848671D01*
X137787391Y-80922354D01*
X138040000Y-80947234D01*
X138292610Y-80922354D01*
X138535512Y-80848671D01*
X138759371Y-80729015D01*
X138955586Y-80567986D01*
X139116615Y-80371770D01*
X139236271Y-80147911D01*
X139309954Y-79905009D01*
X139328600Y-79715694D01*
X139328600Y-79284305D01*
X139309954Y-79094990D01*
X139236271Y-78852088D01*
X139116615Y-78628229D01*
X138955586Y-78432014D01*
X138759370Y-78270985D01*
X138535511Y-78151329D01*
X138292609Y-78077646D01*
X138040000Y-78052766D01*
X137967956Y-78059862D01*
X138150762Y-77877056D01*
X138950000Y-77877056D01*
X139033314Y-77868850D01*
X139113427Y-77844548D01*
X139187260Y-77805084D01*
X139251974Y-77751974D01*
X139305084Y-77687260D01*
X139344548Y-77613427D01*
X139368850Y-77533314D01*
X139377056Y-77450000D01*
X139377056Y-76550000D01*
X139368850Y-76466686D01*
X139344548Y-76386573D01*
X139305084Y-76312740D01*
X139251974Y-76248026D01*
X139187260Y-76194916D01*
X139113427Y-76155452D01*
X139033314Y-76131150D01*
X138950000Y-76122944D01*
X137750000Y-76122944D01*
X137666686Y-76131150D01*
X137586573Y-76155452D01*
X137512740Y-76194916D01*
X137448026Y-76248026D01*
X137394916Y-76312740D01*
X137355452Y-76386573D01*
X137331150Y-76466686D01*
X137322944Y-76550000D01*
X137322944Y-77149238D01*
X137177056Y-77295126D01*
X137177056Y-76550000D01*
X137168850Y-76466686D01*
X137144548Y-76386573D01*
X137105084Y-76312740D01*
X137051974Y-76248026D01*
X136987260Y-76194916D01*
X136913427Y-76155452D01*
X136833314Y-76131150D01*
X136750000Y-76122944D01*
X135550000Y-76122944D01*
X135466686Y-76131150D01*
X135386573Y-76155452D01*
X135312740Y-76194916D01*
X135248026Y-76248026D01*
X135246092Y-76250382D01*
X135140644Y-76206704D01*
X134981255Y-76175000D01*
X134818745Y-76175000D01*
X134659356Y-76206704D01*
X134523939Y-76262796D01*
X134463427Y-76230452D01*
X134383314Y-76206150D01*
X134300000Y-76197944D01*
X133100000Y-76197944D01*
X133016686Y-76206150D01*
X132936573Y-76230452D01*
X132900537Y-76249713D01*
X132844080Y-76180920D01*
X132748911Y-76102817D01*
X132640334Y-76044781D01*
X132522521Y-76009043D01*
X132400000Y-75996976D01*
X131981250Y-76000000D01*
X131825000Y-76156250D01*
X131825000Y-76975000D01*
X131845000Y-76975000D01*
X131845000Y-77025000D01*
X131825000Y-77025000D01*
X131825000Y-77045000D01*
X131775000Y-77045000D01*
X131775000Y-77025000D01*
X131755000Y-77025000D01*
X131755000Y-76975000D01*
X131775000Y-76975000D01*
X131775000Y-76156250D01*
X131618750Y-76000000D01*
X131300000Y-75997698D01*
X131300000Y-72773621D01*
X131366686Y-72793850D01*
X131450000Y-72802056D01*
X131500001Y-72802056D01*
X131500001Y-73562982D01*
X131497340Y-73590000D01*
X131500001Y-73617018D01*
X131507959Y-73697819D01*
X131508934Y-73701032D01*
X131539409Y-73801494D01*
X131590479Y-73897042D01*
X131641987Y-73959804D01*
X131641993Y-73959810D01*
X131659211Y-73980790D01*
X131669344Y-73989106D01*
X131669344Y-75516000D01*
X131677550Y-75599314D01*
X131701852Y-75679427D01*
X131741316Y-75753260D01*
X131794426Y-75817974D01*
X131859140Y-75871084D01*
X131932973Y-75910548D01*
X132013086Y-75934850D01*
X132096400Y-75943056D01*
X133823600Y-75943056D01*
X133906914Y-75934850D01*
X133987027Y-75910548D01*
X134060860Y-75871084D01*
X134125574Y-75817974D01*
X134178684Y-75753260D01*
X134218148Y-75679427D01*
X134242450Y-75599314D01*
X134250656Y-75516000D01*
X134250656Y-74972953D01*
X134303729Y-75147912D01*
X134423385Y-75371771D01*
X134584415Y-75567986D01*
X134780630Y-75729015D01*
X135004489Y-75848671D01*
X135247391Y-75922354D01*
X135500000Y-75947234D01*
X135752610Y-75922354D01*
X135995512Y-75848671D01*
X136219371Y-75729015D01*
X136415586Y-75567986D01*
X136576615Y-75371770D01*
X136696271Y-75147911D01*
X136769954Y-74905009D01*
X136770000Y-74904542D01*
X136770046Y-74905010D01*
X136843729Y-75147912D01*
X136963385Y-75371771D01*
X137124415Y-75567986D01*
X137320630Y-75729015D01*
X137544489Y-75848671D01*
X137787391Y-75922354D01*
X138040000Y-75947234D01*
X138292610Y-75922354D01*
X138535512Y-75848671D01*
X138759371Y-75729015D01*
X138955586Y-75567986D01*
X139116615Y-75371770D01*
X139236271Y-75147911D01*
X139309954Y-74905009D01*
X139328600Y-74715694D01*
X139328600Y-74284305D01*
X139309954Y-74094990D01*
X139236271Y-73852088D01*
X139116615Y-73628229D01*
X138955586Y-73432014D01*
X138759370Y-73270985D01*
X138535511Y-73151329D01*
X138292609Y-73077646D01*
X138040000Y-73052766D01*
X137787390Y-73077646D01*
X137544488Y-73151329D01*
X137320629Y-73270985D01*
X137124414Y-73432014D01*
X136963385Y-73628230D01*
X136843729Y-73852089D01*
X136770046Y-74094991D01*
X136770000Y-74095458D01*
X136769954Y-74094990D01*
X136696271Y-73852088D01*
X136576615Y-73628229D01*
X136415586Y-73432014D01*
X136219370Y-73270985D01*
X135995511Y-73151329D01*
X135752609Y-73077646D01*
X135500000Y-73052766D01*
X135247390Y-73077646D01*
X135004488Y-73151329D01*
X134780629Y-73270985D01*
X134584414Y-73432014D01*
X134423385Y-73628230D01*
X134303729Y-73852089D01*
X134250656Y-74027048D01*
X134250656Y-73484000D01*
X134242450Y-73400686D01*
X134218148Y-73320573D01*
X134178684Y-73246740D01*
X134125574Y-73182026D01*
X134060860Y-73128916D01*
X133987027Y-73089452D01*
X133906914Y-73065150D01*
X133823600Y-73056944D01*
X132600000Y-73056944D01*
X132600000Y-72802056D01*
X132650000Y-72802056D01*
X132733314Y-72793850D01*
X132813427Y-72769548D01*
X132849463Y-72750287D01*
X132905920Y-72819080D01*
X133001089Y-72897183D01*
X133109666Y-72955219D01*
X133227479Y-72990957D01*
X133350000Y-73003024D01*
X133768750Y-73000000D01*
X133925000Y-72843750D01*
X133925000Y-72025000D01*
X133975000Y-72025000D01*
X133975000Y-72843750D01*
X134131250Y-73000000D01*
X134550000Y-73003024D01*
X134672521Y-72990957D01*
X134790334Y-72955219D01*
X134898911Y-72897183D01*
X134994080Y-72819080D01*
X135072183Y-72723911D01*
X135130219Y-72615334D01*
X135165957Y-72497521D01*
X135178024Y-72375000D01*
X135175000Y-72181250D01*
X135018750Y-72025000D01*
X133975000Y-72025000D01*
X133925000Y-72025000D01*
X133905000Y-72025000D01*
X133905000Y-71975000D01*
X133925000Y-71975000D01*
X133925000Y-71955000D01*
X133975000Y-71955000D01*
X133975000Y-71975000D01*
X135018750Y-71975000D01*
X135175000Y-71818750D01*
X135178024Y-71625000D01*
X135165957Y-71502479D01*
X135130219Y-71384666D01*
X135072183Y-71276089D01*
X134994080Y-71180920D01*
X134898911Y-71102817D01*
X134790334Y-71044781D01*
X134672521Y-71009043D01*
X134550000Y-70996976D01*
X134501877Y-70997324D01*
X134548911Y-70972183D01*
X134644080Y-70894080D01*
X134722183Y-70798911D01*
X134780219Y-70690334D01*
X134815957Y-70572521D01*
X134828024Y-70450000D01*
X134825000Y-70181250D01*
X134668750Y-70025000D01*
X133625000Y-70025000D01*
X133625000Y-70045000D01*
X133575000Y-70045000D01*
X133575000Y-70025000D01*
X133555000Y-70025000D01*
X133555000Y-69975000D01*
X133575000Y-69975000D01*
X133575000Y-69081250D01*
X133625000Y-69081250D01*
X133625000Y-69975000D01*
X134668750Y-69975000D01*
X134825000Y-69818750D01*
X134828024Y-69550000D01*
X134815957Y-69427479D01*
X134780219Y-69309666D01*
X134722183Y-69201089D01*
X134644080Y-69105920D01*
X134548911Y-69027817D01*
X134440334Y-68969781D01*
X134322521Y-68934043D01*
X134200000Y-68921976D01*
X133781250Y-68925000D01*
X133625000Y-69081250D01*
X133575000Y-69081250D01*
X133418750Y-68925000D01*
X133000000Y-68921976D01*
X132877479Y-68934043D01*
X132759666Y-68969781D01*
X132651089Y-69027817D01*
X132555920Y-69105920D01*
X132477817Y-69201089D01*
X132419781Y-69309666D01*
X132395500Y-69389711D01*
X132394548Y-69386573D01*
X132355084Y-69312740D01*
X132301974Y-69248026D01*
X132237260Y-69194916D01*
X132163427Y-69155452D01*
X132083314Y-69131150D01*
X132000000Y-69122944D01*
X131300762Y-69122944D01*
X130678616Y-68500799D01*
X130719371Y-68479015D01*
X130915586Y-68317986D01*
X131076615Y-68121770D01*
X131163010Y-67960137D01*
X131174280Y-67995160D01*
X131316164Y-68250209D01*
X131505079Y-68472677D01*
X131733765Y-68654015D01*
X131993435Y-68787254D01*
X132274109Y-68867274D01*
X132282472Y-68868555D01*
X132515000Y-68734515D01*
X132515000Y-67275000D01*
X132565000Y-67275000D01*
X132565000Y-68734515D01*
X132797528Y-68868555D01*
X132805891Y-68867274D01*
X133086565Y-68787254D01*
X133346235Y-68654015D01*
X133574921Y-68472677D01*
X133763836Y-68250209D01*
X133905720Y-67995160D01*
X133981017Y-67761158D01*
X134575000Y-67761158D01*
X134575000Y-68238842D01*
X134668191Y-68707347D01*
X134850992Y-69148668D01*
X135116379Y-69545848D01*
X135454152Y-69883621D01*
X135851332Y-70149008D01*
X136292653Y-70331809D01*
X136761158Y-70425000D01*
X137238842Y-70425000D01*
X137707347Y-70331809D01*
X138148668Y-70149008D01*
X138545848Y-69883621D01*
X138883621Y-69545848D01*
X139149008Y-69148668D01*
X139331809Y-68707347D01*
X139425000Y-68238842D01*
X139425000Y-67761158D01*
X139331809Y-67292653D01*
X139149008Y-66851332D01*
X138883621Y-66454152D01*
X138545848Y-66116379D01*
X138148668Y-65850992D01*
X137707347Y-65668191D01*
X137238842Y-65575000D01*
X136761158Y-65575000D01*
X136292653Y-65668191D01*
X135851332Y-65850992D01*
X135454152Y-66116379D01*
X135116379Y-66454152D01*
X134850992Y-66851332D01*
X134668191Y-67292653D01*
X134575000Y-67761158D01*
X133981017Y-67761158D01*
X133995120Y-67717331D01*
X134028600Y-67427400D01*
X134028600Y-67275000D01*
X132565000Y-67275000D01*
X132515000Y-67275000D01*
X132495000Y-67275000D01*
X132495000Y-67225000D01*
X132515000Y-67225000D01*
X132515000Y-65765485D01*
X132565000Y-65765485D01*
X132565000Y-67225000D01*
X134028600Y-67225000D01*
X134028600Y-67072600D01*
X133995120Y-66782669D01*
X133905720Y-66504840D01*
X133763836Y-66249791D01*
X133574921Y-66027323D01*
X133346235Y-65845985D01*
X133086565Y-65712746D01*
X132805891Y-65632726D01*
X132797528Y-65631445D01*
X132565000Y-65765485D01*
X132515000Y-65765485D01*
X132282472Y-65631445D01*
X132274109Y-65632726D01*
X131993435Y-65712746D01*
X131733765Y-65845985D01*
X131505079Y-66027323D01*
X131316164Y-66249791D01*
X131174280Y-66504840D01*
X131163010Y-66539862D01*
X131076615Y-66378229D01*
X130915586Y-66182014D01*
X130719370Y-66020985D01*
X130495511Y-65901329D01*
X130252609Y-65827646D01*
X130000000Y-65802766D01*
X129747390Y-65827646D01*
X129504488Y-65901329D01*
X129280629Y-66020985D01*
X129084414Y-66182014D01*
X128923385Y-66378230D01*
X128803729Y-66602089D01*
X128750656Y-66777048D01*
X128750656Y-66234000D01*
X128742450Y-66150686D01*
X128718148Y-66070573D01*
X128678684Y-65996740D01*
X128625574Y-65932026D01*
X128560860Y-65878916D01*
X128487027Y-65839452D01*
X128406914Y-65815150D01*
X128323600Y-65806944D01*
X126596400Y-65806944D01*
X126513086Y-65815150D01*
X126432973Y-65839452D01*
X126359140Y-65878916D01*
X126294426Y-65932026D01*
X126241316Y-65996740D01*
X126201852Y-66070573D01*
X126177550Y-66150686D01*
X126169344Y-66234000D01*
X126169344Y-68266000D01*
X126177550Y-68349314D01*
X126201852Y-68429427D01*
X126241316Y-68503260D01*
X126294426Y-68567974D01*
X126359140Y-68621084D01*
X126432973Y-68660548D01*
X126513086Y-68684850D01*
X126596400Y-68693056D01*
X126910001Y-68693056D01*
X126910001Y-68832982D01*
X126907340Y-68860000D01*
X126910001Y-68887018D01*
X126913505Y-68922601D01*
X126581250Y-68925000D01*
X126425000Y-69081250D01*
X126425000Y-69975000D01*
X126445000Y-69975000D01*
X126445000Y-70025000D01*
X126425000Y-70025000D01*
X126425000Y-70918750D01*
X126581250Y-71075000D01*
X127000000Y-71078024D01*
X127122521Y-71065957D01*
X127240334Y-71030219D01*
X127348911Y-70972183D01*
X127444080Y-70894080D01*
X127522183Y-70798911D01*
X127580219Y-70690334D01*
X127604500Y-70610289D01*
X127605452Y-70613427D01*
X127644916Y-70687260D01*
X127698026Y-70751974D01*
X127762740Y-70805084D01*
X127836573Y-70844548D01*
X127916686Y-70868850D01*
X128000000Y-70877056D01*
X128131133Y-70877056D01*
X128140479Y-70894542D01*
X128209210Y-70978290D01*
X128230196Y-70995513D01*
X128357627Y-71122944D01*
X127750000Y-71122944D01*
X127666686Y-71131150D01*
X127586573Y-71155452D01*
X127512740Y-71194916D01*
X127448026Y-71248026D01*
X127394916Y-71312740D01*
X127355452Y-71386573D01*
X127331150Y-71466686D01*
X127322944Y-71550000D01*
X127322944Y-72249239D01*
X127177056Y-72395127D01*
X127177056Y-71550000D01*
X127168850Y-71466686D01*
X127144548Y-71386573D01*
X127105084Y-71312740D01*
X127051974Y-71248026D01*
X126987260Y-71194916D01*
X126913427Y-71155452D01*
X126833314Y-71131150D01*
X126750000Y-71122944D01*
X125550000Y-71122944D01*
X125466686Y-71131150D01*
X125386573Y-71155452D01*
X125312740Y-71194916D01*
X125279012Y-71222596D01*
X125240644Y-71206704D01*
X125081255Y-71175000D01*
X124918745Y-71175000D01*
X124759356Y-71206704D01*
X124609216Y-71268894D01*
X124596427Y-71277439D01*
X124587260Y-71269916D01*
X124513427Y-71230452D01*
X124433314Y-71206150D01*
X124350000Y-71197944D01*
X123150000Y-71197944D01*
X123066686Y-71206150D01*
X122986573Y-71230452D01*
X122950537Y-71249713D01*
X122894080Y-71180920D01*
X122798911Y-71102817D01*
X122690334Y-71044781D01*
X122572521Y-71009043D01*
X122450000Y-70996976D01*
X122031250Y-71000000D01*
X121875000Y-71156250D01*
X121875000Y-71975000D01*
X121895000Y-71975000D01*
X121895000Y-72025000D01*
X121875000Y-72025000D01*
X121875000Y-72045000D01*
X121825000Y-72045000D01*
X121825000Y-72025000D01*
X120781250Y-72025000D01*
X120625000Y-72181250D01*
X120621976Y-72375000D01*
X120634043Y-72497521D01*
X120669781Y-72615334D01*
X120727817Y-72723911D01*
X120805920Y-72819080D01*
X120894808Y-72892029D01*
X120856066Y-72903781D01*
X120747489Y-72961817D01*
X120652320Y-73039920D01*
X120574217Y-73135089D01*
X120516181Y-73243666D01*
X120480443Y-73361479D01*
X120468376Y-73484000D01*
X120450000Y-73484000D01*
X120450000Y-71625000D01*
X120621976Y-71625000D01*
X120625000Y-71818750D01*
X120781250Y-71975000D01*
X121825000Y-71975000D01*
X121825000Y-71156250D01*
X121668750Y-71000000D01*
X121250000Y-70996976D01*
X121127479Y-71009043D01*
X121009666Y-71044781D01*
X120901089Y-71102817D01*
X120805920Y-71180920D01*
X120727817Y-71276089D01*
X120669781Y-71384666D01*
X120634043Y-71502479D01*
X120621976Y-71625000D01*
X120450000Y-71625000D01*
X120450000Y-70450000D01*
X125171976Y-70450000D01*
X125184043Y-70572521D01*
X125219781Y-70690334D01*
X125277817Y-70798911D01*
X125355920Y-70894080D01*
X125451089Y-70972183D01*
X125559666Y-71030219D01*
X125677479Y-71065957D01*
X125800000Y-71078024D01*
X126218750Y-71075000D01*
X126375000Y-70918750D01*
X126375000Y-70025000D01*
X125331250Y-70025000D01*
X125175000Y-70181250D01*
X125171976Y-70450000D01*
X120450000Y-70450000D01*
X120450000Y-68022006D01*
X120475576Y-67761158D01*
X120575000Y-67761158D01*
X120575000Y-68238842D01*
X120668191Y-68707347D01*
X120850992Y-69148668D01*
X121116379Y-69545848D01*
X121454152Y-69883621D01*
X121851332Y-70149008D01*
X122292653Y-70331809D01*
X122761158Y-70425000D01*
X123238842Y-70425000D01*
X123707347Y-70331809D01*
X124148668Y-70149008D01*
X124545848Y-69883621D01*
X124879469Y-69550000D01*
X125171976Y-69550000D01*
X125175000Y-69818750D01*
X125331250Y-69975000D01*
X126375000Y-69975000D01*
X126375000Y-69081250D01*
X126218750Y-68925000D01*
X125800000Y-68921976D01*
X125677479Y-68934043D01*
X125559666Y-68969781D01*
X125451089Y-69027817D01*
X125355920Y-69105920D01*
X125277817Y-69201089D01*
X125219781Y-69309666D01*
X125184043Y-69427479D01*
X125171976Y-69550000D01*
X124879469Y-69550000D01*
X124883621Y-69545848D01*
X125149008Y-69148668D01*
X125331809Y-68707347D01*
X125425000Y-68238842D01*
X125425000Y-67761158D01*
X125331809Y-67292653D01*
X125149008Y-66851332D01*
X124883621Y-66454152D01*
X124545848Y-66116379D01*
X124148668Y-65850992D01*
X123707347Y-65668191D01*
X123238842Y-65575000D01*
X122761158Y-65575000D01*
X122292653Y-65668191D01*
X121851332Y-65850992D01*
X121454152Y-66116379D01*
X121116379Y-66454152D01*
X120850992Y-66851332D01*
X120668191Y-67292653D01*
X120575000Y-67761158D01*
X120475576Y-67761158D01*
X120500681Y-67505124D01*
X120644403Y-67029094D01*
X120877850Y-66590043D01*
X121192125Y-66204704D01*
X121575266Y-65887742D01*
X122012670Y-65651239D01*
X122487684Y-65504197D01*
X123003335Y-65450000D01*
X136977994Y-65450000D01*
X137494876Y-65500681D01*
%TA.AperFunction,Conductor*%
D28*
G36*
X137494876Y-65500681D02*
G01*
X137970906Y-65644403D01*
X138409957Y-65877850D01*
X138795296Y-66192125D01*
X139112258Y-66575266D01*
X139348761Y-67012670D01*
X139495803Y-67487684D01*
X139550001Y-68003344D01*
X139550000Y-116977995D01*
X139499319Y-117494876D01*
X139355596Y-117970910D01*
X139122152Y-118409954D01*
X138807875Y-118795296D01*
X138424735Y-119112257D01*
X137987329Y-119348761D01*
X137512316Y-119495803D01*
X136996664Y-119550000D01*
X123022005Y-119550000D01*
X122505124Y-119499319D01*
X122029090Y-119355596D01*
X121590046Y-119122152D01*
X121204704Y-118807875D01*
X120887743Y-118424735D01*
X120651239Y-117987329D01*
X120504197Y-117512316D01*
X120450000Y-116996664D01*
X120450000Y-116761158D01*
X120575000Y-116761158D01*
X120575000Y-117238842D01*
X120668191Y-117707347D01*
X120850992Y-118148668D01*
X121116379Y-118545848D01*
X121454152Y-118883621D01*
X121851332Y-119149008D01*
X122292653Y-119331809D01*
X122761158Y-119425000D01*
X123238842Y-119425000D01*
X123707347Y-119331809D01*
X124148668Y-119149008D01*
X124545848Y-118883621D01*
X124883621Y-118545848D01*
X125149008Y-118148668D01*
X125331809Y-117707347D01*
X125425000Y-117238842D01*
X125425000Y-116984000D01*
X126169344Y-116984000D01*
X126169344Y-119016000D01*
X126177550Y-119099314D01*
X126201852Y-119179427D01*
X126241316Y-119253260D01*
X126294426Y-119317974D01*
X126359140Y-119371084D01*
X126432973Y-119410548D01*
X126513086Y-119434850D01*
X126596400Y-119443056D01*
X128323600Y-119443056D01*
X128406914Y-119434850D01*
X128487027Y-119410548D01*
X128560860Y-119371084D01*
X128625574Y-119317974D01*
X128678684Y-119253260D01*
X128718148Y-119179427D01*
X128742450Y-119099314D01*
X128750656Y-119016000D01*
X128750656Y-118472953D01*
X128803729Y-118647912D01*
X128923385Y-118871771D01*
X129084415Y-119067986D01*
X129280630Y-119229015D01*
X129504489Y-119348671D01*
X129747391Y-119422354D01*
X130000000Y-119447234D01*
X130252610Y-119422354D01*
X130495512Y-119348671D01*
X130719371Y-119229015D01*
X130915586Y-119067986D01*
X131076615Y-118871770D01*
X131196271Y-118647911D01*
X131269954Y-118405009D01*
X131270000Y-118404542D01*
X131270046Y-118405010D01*
X131343729Y-118647912D01*
X131463385Y-118871771D01*
X131624415Y-119067986D01*
X131820630Y-119229015D01*
X132044489Y-119348671D01*
X132287391Y-119422354D01*
X132540000Y-119447234D01*
X132792610Y-119422354D01*
X133035512Y-119348671D01*
X133259371Y-119229015D01*
X133455586Y-119067986D01*
X133616615Y-118871770D01*
X133736271Y-118647911D01*
X133809954Y-118405009D01*
X133828600Y-118215694D01*
X133828600Y-117784305D01*
X133809954Y-117594990D01*
X133736271Y-117352088D01*
X133616615Y-117128229D01*
X133455586Y-116932014D01*
X133259370Y-116770985D01*
X133035511Y-116651329D01*
X132792609Y-116577646D01*
X132540000Y-116552766D01*
X132287390Y-116577646D01*
X132044488Y-116651329D01*
X131820629Y-116770985D01*
X131624414Y-116932014D01*
X131463385Y-117128230D01*
X131343729Y-117352089D01*
X131270046Y-117594991D01*
X131270000Y-117595458D01*
X131269954Y-117594990D01*
X131196271Y-117352088D01*
X131076615Y-117128229D01*
X130915586Y-116932014D01*
X130719370Y-116770985D01*
X130495511Y-116651329D01*
X130252609Y-116577646D01*
X130000000Y-116552766D01*
X129747390Y-116577646D01*
X129504488Y-116651329D01*
X129280629Y-116770985D01*
X129084414Y-116932014D01*
X128923385Y-117128230D01*
X128803729Y-117352089D01*
X128750656Y-117527048D01*
X128750656Y-116984000D01*
X128742450Y-116900686D01*
X128718148Y-116820573D01*
X128678684Y-116746740D01*
X128625574Y-116682026D01*
X128560860Y-116628916D01*
X128487027Y-116589452D01*
X128406914Y-116565150D01*
X128323600Y-116556944D01*
X126596400Y-116556944D01*
X126513086Y-116565150D01*
X126432973Y-116589452D01*
X126359140Y-116628916D01*
X126294426Y-116682026D01*
X126241316Y-116746740D01*
X126201852Y-116820573D01*
X126177550Y-116900686D01*
X126169344Y-116984000D01*
X125425000Y-116984000D01*
X125425000Y-116761158D01*
X125331809Y-116292653D01*
X125149008Y-115851332D01*
X124883621Y-115454152D01*
X124545848Y-115116379D01*
X124148668Y-114850992D01*
X123707347Y-114668191D01*
X123238842Y-114575000D01*
X122761158Y-114575000D01*
X122292653Y-114668191D01*
X121851332Y-114850992D01*
X121454152Y-115116379D01*
X121116379Y-115454152D01*
X120850992Y-115851332D01*
X120668191Y-116292653D01*
X120575000Y-116761158D01*
X120450000Y-116761158D01*
X120450000Y-112821371D01*
X120633302Y-112821371D01*
X120648689Y-112898731D01*
X120749443Y-113204238D01*
X120907862Y-113484219D01*
X121117859Y-113727914D01*
X121371363Y-113925958D01*
X121658633Y-114070741D01*
X121968629Y-114156698D01*
X122225000Y-114024560D01*
X122225000Y-112565000D01*
X122275000Y-112565000D01*
X122275000Y-114024560D01*
X122531371Y-114156698D01*
X122841367Y-114070741D01*
X123128637Y-113925958D01*
X123137869Y-113918745D01*
X123675000Y-113918745D01*
X123675000Y-114081255D01*
X123706704Y-114240644D01*
X123768894Y-114390784D01*
X123859181Y-114525907D01*
X123974093Y-114640819D01*
X124109216Y-114731106D01*
X124259356Y-114793296D01*
X124418745Y-114825000D01*
X124547183Y-114825000D01*
X125091987Y-115369804D01*
X125109210Y-115390790D01*
X125192958Y-115459521D01*
X125288506Y-115510592D01*
X125392181Y-115542042D01*
X125472982Y-115550000D01*
X125472989Y-115550000D01*
X125500000Y-115552660D01*
X125527011Y-115550000D01*
X125741638Y-115550000D01*
X125774916Y-115612260D01*
X125828026Y-115676974D01*
X125892740Y-115730084D01*
X125966573Y-115769548D01*
X126046686Y-115793850D01*
X126130000Y-115802056D01*
X127330000Y-115802056D01*
X127413314Y-115793850D01*
X127493427Y-115769548D01*
X127567260Y-115730084D01*
X127631974Y-115676974D01*
X127685084Y-115612260D01*
X127724548Y-115538427D01*
X127748850Y-115458314D01*
X127757056Y-115375000D01*
X127757056Y-114625000D01*
X127748850Y-114541686D01*
X127724548Y-114461573D01*
X127685084Y-114387740D01*
X127631974Y-114323026D01*
X127567260Y-114269916D01*
X127493427Y-114230452D01*
X127413314Y-114206150D01*
X127330000Y-114197944D01*
X126130000Y-114197944D01*
X126046686Y-114206150D01*
X125966573Y-114230452D01*
X125892740Y-114269916D01*
X125828026Y-114323026D01*
X125774916Y-114387740D01*
X125741638Y-114450000D01*
X125727817Y-114450000D01*
X125325000Y-114047183D01*
X125325000Y-113918745D01*
X125294494Y-113765379D01*
X125318750Y-113765000D01*
X125475000Y-113608750D01*
X125475000Y-112565000D01*
X125525000Y-112565000D01*
X125525000Y-113608750D01*
X125681250Y-113765000D01*
X125875000Y-113768024D01*
X125997521Y-113755957D01*
X126115334Y-113720219D01*
X126223911Y-113662183D01*
X126319080Y-113584080D01*
X126397183Y-113488911D01*
X126455219Y-113380334D01*
X126490957Y-113262521D01*
X126503024Y-113140000D01*
X126502801Y-113109145D01*
X126509043Y-113172521D01*
X126544781Y-113290334D01*
X126602817Y-113398911D01*
X126680920Y-113494080D01*
X126776089Y-113572183D01*
X126884666Y-113630219D01*
X127002479Y-113665957D01*
X127125000Y-113678024D01*
X127318750Y-113675000D01*
X127475000Y-113518750D01*
X127475000Y-112475000D01*
X126656250Y-112475000D01*
X126500000Y-112631250D01*
X126499355Y-112720605D01*
X126343750Y-112565000D01*
X125525000Y-112565000D01*
X125475000Y-112565000D01*
X124656250Y-112565000D01*
X124500000Y-112721250D01*
X124496976Y-113140000D01*
X124500423Y-113175000D01*
X124418745Y-113175000D01*
X124259356Y-113206704D01*
X124109216Y-113268894D01*
X123974093Y-113359181D01*
X123859181Y-113474093D01*
X123768894Y-113609216D01*
X123706704Y-113759356D01*
X123675000Y-113918745D01*
X123137869Y-113918745D01*
X123382141Y-113727914D01*
X123592138Y-113484219D01*
X123750557Y-113204238D01*
X123851311Y-112898731D01*
X123866698Y-112821371D01*
X123734540Y-112565000D01*
X122275000Y-112565000D01*
X122225000Y-112565000D01*
X120765460Y-112565000D01*
X120633302Y-112821371D01*
X120450000Y-112821371D01*
X120450000Y-112258629D01*
X120633302Y-112258629D01*
X120765460Y-112515000D01*
X122225000Y-112515000D01*
X122225000Y-112495000D01*
X122275000Y-112495000D01*
X122275000Y-112515000D01*
X123734540Y-112515000D01*
X123866698Y-112258629D01*
X123851311Y-112181269D01*
X123771743Y-111940000D01*
X124496976Y-111940000D01*
X124500000Y-112358750D01*
X124656250Y-112515000D01*
X125475000Y-112515000D01*
X125475000Y-111471250D01*
X125318750Y-111315000D01*
X125125000Y-111311976D01*
X125002479Y-111324043D01*
X124884666Y-111359781D01*
X124776089Y-111417817D01*
X124680920Y-111495920D01*
X124602817Y-111591089D01*
X124544781Y-111699666D01*
X124509043Y-111817479D01*
X124496976Y-111940000D01*
X123771743Y-111940000D01*
X123750557Y-111875762D01*
X123592138Y-111595781D01*
X123431544Y-111409417D01*
X123503260Y-111371084D01*
X123567974Y-111317974D01*
X123621084Y-111253260D01*
X123660548Y-111179427D01*
X123684850Y-111099314D01*
X123693056Y-111016000D01*
X123693056Y-110550000D01*
X124697944Y-110550000D01*
X124697944Y-110600000D01*
X124706150Y-110683314D01*
X124730452Y-110763427D01*
X124769916Y-110837260D01*
X124823026Y-110901974D01*
X124887740Y-110955084D01*
X124961573Y-110994548D01*
X125041686Y-111018850D01*
X125125000Y-111027056D01*
X125875000Y-111027056D01*
X125958314Y-111018850D01*
X126038427Y-110994548D01*
X126112260Y-110955084D01*
X126176974Y-110901974D01*
X126230084Y-110837260D01*
X126257726Y-110785544D01*
X126391991Y-110919809D01*
X126409210Y-110940790D01*
X126430190Y-110958008D01*
X126430195Y-110958013D01*
X126481357Y-111000000D01*
X126492958Y-111009521D01*
X126588506Y-111060592D01*
X126692181Y-111092042D01*
X126697944Y-111092610D01*
X126697944Y-111150000D01*
X126706150Y-111233314D01*
X126730452Y-111313427D01*
X126749713Y-111349463D01*
X126680920Y-111405920D01*
X126602817Y-111501089D01*
X126544781Y-111609666D01*
X126509043Y-111727479D01*
X126496976Y-111850000D01*
X126497199Y-111880855D01*
X126490957Y-111817479D01*
X126455219Y-111699666D01*
X126397183Y-111591089D01*
X126319080Y-111495920D01*
X126223911Y-111417817D01*
X126115334Y-111359781D01*
X125997521Y-111324043D01*
X125875000Y-111311976D01*
X125681250Y-111315000D01*
X125525000Y-111471250D01*
X125525000Y-112515000D01*
X126343750Y-112515000D01*
X126500000Y-112358750D01*
X126500645Y-112269395D01*
X126656250Y-112425000D01*
X127475000Y-112425000D01*
X127475000Y-112405000D01*
X127525000Y-112405000D01*
X127525000Y-112425000D01*
X128343750Y-112425000D01*
X128500000Y-112268750D01*
X128656250Y-112425000D01*
X129475000Y-112425000D01*
X129475000Y-112405000D01*
X129525000Y-112405000D01*
X129525000Y-112425000D01*
X129545000Y-112425000D01*
X129545000Y-112475000D01*
X129525000Y-112475000D01*
X129525000Y-112495000D01*
X129475000Y-112495000D01*
X129475000Y-112475000D01*
X128656250Y-112475000D01*
X128500000Y-112631250D01*
X128343750Y-112475000D01*
X127525000Y-112475000D01*
X127525000Y-113518750D01*
X127681250Y-113675000D01*
X127875000Y-113678024D01*
X127997521Y-113665957D01*
X128115334Y-113630219D01*
X128223911Y-113572183D01*
X128319080Y-113494080D01*
X128397183Y-113398911D01*
X128455219Y-113290334D01*
X128490957Y-113172521D01*
X128500000Y-113080704D01*
X128509043Y-113172521D01*
X128544781Y-113290334D01*
X128602817Y-113398911D01*
X128680920Y-113494080D01*
X128776089Y-113572183D01*
X128884666Y-113630219D01*
X129002479Y-113665957D01*
X129125000Y-113678024D01*
X129190175Y-113677007D01*
X128900195Y-113966988D01*
X128879210Y-113984210D01*
X128810479Y-114067958D01*
X128759408Y-114163507D01*
X128748961Y-114197944D01*
X128670000Y-114197944D01*
X128586686Y-114206150D01*
X128506573Y-114230452D01*
X128432740Y-114269916D01*
X128368026Y-114323026D01*
X128314916Y-114387740D01*
X128275452Y-114461573D01*
X128251150Y-114541686D01*
X128242944Y-114625000D01*
X128242944Y-115375000D01*
X128251150Y-115458314D01*
X128275452Y-115538427D01*
X128314916Y-115612260D01*
X128368026Y-115676974D01*
X128432740Y-115730084D01*
X128506573Y-115769548D01*
X128586686Y-115793850D01*
X128670000Y-115802056D01*
X129870000Y-115802056D01*
X129953314Y-115793850D01*
X130033427Y-115769548D01*
X130107260Y-115730084D01*
X130171974Y-115676974D01*
X130225084Y-115612260D01*
X130264548Y-115538427D01*
X130288850Y-115458314D01*
X130297056Y-115375000D01*
X130321976Y-115375000D01*
X130334043Y-115497521D01*
X130369781Y-115615334D01*
X130427817Y-115723911D01*
X130505920Y-115819080D01*
X130601089Y-115897183D01*
X130709666Y-115955219D01*
X130827479Y-115990957D01*
X130950000Y-116003024D01*
X131368750Y-116000000D01*
X131525000Y-115843750D01*
X131525000Y-115025000D01*
X130481250Y-115025000D01*
X130325000Y-115181250D01*
X130321976Y-115375000D01*
X130297056Y-115375000D01*
X130297056Y-114625000D01*
X130289669Y-114550000D01*
X130329363Y-114550000D01*
X130321976Y-114625000D01*
X130325000Y-114818750D01*
X130481250Y-114975000D01*
X131525000Y-114975000D01*
X131525000Y-114955000D01*
X131575000Y-114955000D01*
X131575000Y-114975000D01*
X131595000Y-114975000D01*
X131595000Y-115025000D01*
X131575000Y-115025000D01*
X131575000Y-115843750D01*
X131731250Y-116000000D01*
X132150000Y-116003024D01*
X132272521Y-115990957D01*
X132390334Y-115955219D01*
X132498911Y-115897183D01*
X132594080Y-115819080D01*
X132650537Y-115750287D01*
X132686573Y-115769548D01*
X132766686Y-115793850D01*
X132850000Y-115802056D01*
X134050000Y-115802056D01*
X134133314Y-115793850D01*
X134213427Y-115769548D01*
X134287260Y-115730084D01*
X134351974Y-115676974D01*
X134405084Y-115612260D01*
X134438362Y-115550000D01*
X134472982Y-115550000D01*
X134499990Y-115552660D01*
X134526998Y-115550000D01*
X134527008Y-115550000D01*
X134537778Y-115548939D01*
X134668745Y-115574990D01*
X134831255Y-115574990D01*
X134990644Y-115543286D01*
X135082147Y-115505384D01*
X134850992Y-115851332D01*
X134668191Y-116292653D01*
X134575000Y-116761158D01*
X134575000Y-117238842D01*
X134668191Y-117707347D01*
X134850992Y-118148668D01*
X135116379Y-118545848D01*
X135454152Y-118883621D01*
X135851332Y-119149008D01*
X136292653Y-119331809D01*
X136761158Y-119425000D01*
X137238842Y-119425000D01*
X137707347Y-119331809D01*
X138148668Y-119149008D01*
X138545848Y-118883621D01*
X138883621Y-118545848D01*
X139149008Y-118148668D01*
X139331809Y-117707347D01*
X139425000Y-117238842D01*
X139425000Y-116761158D01*
X139331809Y-116292653D01*
X139149008Y-115851332D01*
X138883621Y-115454152D01*
X138545848Y-115116379D01*
X138148668Y-114850992D01*
X137707347Y-114668191D01*
X137238842Y-114575000D01*
X136761158Y-114575000D01*
X136292653Y-114668191D01*
X135851332Y-114850992D01*
X135505392Y-115082141D01*
X135543296Y-114990634D01*
X135575000Y-114831245D01*
X135575000Y-114668735D01*
X135543296Y-114509346D01*
X135481106Y-114359206D01*
X135405205Y-114245613D01*
X135869809Y-113781008D01*
X135890790Y-113763790D01*
X135908008Y-113742810D01*
X135908013Y-113742805D01*
X135959521Y-113680042D01*
X135962216Y-113675000D01*
X136010592Y-113584494D01*
X136042042Y-113480819D01*
X136050000Y-113400018D01*
X136050000Y-113400008D01*
X136052660Y-113373000D01*
X136050000Y-113345992D01*
X136050000Y-112821371D01*
X136133302Y-112821371D01*
X136148689Y-112898731D01*
X136249443Y-113204238D01*
X136407862Y-113484219D01*
X136617859Y-113727914D01*
X136871363Y-113925958D01*
X137158633Y-114070741D01*
X137468629Y-114156698D01*
X137725000Y-114024560D01*
X137725000Y-112565000D01*
X137775000Y-112565000D01*
X137775000Y-114024560D01*
X138031371Y-114156698D01*
X138341367Y-114070741D01*
X138628637Y-113925958D01*
X138882141Y-113727914D01*
X139092138Y-113484219D01*
X139250557Y-113204238D01*
X139351311Y-112898731D01*
X139366698Y-112821371D01*
X139234540Y-112565000D01*
X137775000Y-112565000D01*
X137725000Y-112565000D01*
X136265460Y-112565000D01*
X136133302Y-112821371D01*
X136050000Y-112821371D01*
X136050000Y-112258629D01*
X136133302Y-112258629D01*
X136265460Y-112515000D01*
X137725000Y-112515000D01*
X137725000Y-112495000D01*
X137775000Y-112495000D01*
X137775000Y-112515000D01*
X139234540Y-112515000D01*
X139366698Y-112258629D01*
X139351311Y-112181269D01*
X139250557Y-111875762D01*
X139092138Y-111595781D01*
X138931544Y-111409417D01*
X139003260Y-111371084D01*
X139067974Y-111317974D01*
X139121084Y-111253260D01*
X139160548Y-111179427D01*
X139184850Y-111099314D01*
X139193056Y-111016000D01*
X139193056Y-108984000D01*
X139184850Y-108900686D01*
X139160548Y-108820573D01*
X139121084Y-108746740D01*
X139067974Y-108682026D01*
X139003260Y-108628916D01*
X138929427Y-108589452D01*
X138849314Y-108565150D01*
X138766000Y-108556944D01*
X136734000Y-108556944D01*
X136650686Y-108565150D01*
X136570573Y-108589452D01*
X136496740Y-108628916D01*
X136432026Y-108682026D01*
X136378916Y-108746740D01*
X136339452Y-108820573D01*
X136315150Y-108900686D01*
X136306944Y-108984000D01*
X136306944Y-111016000D01*
X136315150Y-111099314D01*
X136339452Y-111179427D01*
X136378916Y-111253260D01*
X136432026Y-111317974D01*
X136496740Y-111371084D01*
X136568456Y-111409417D01*
X136407862Y-111595781D01*
X136249443Y-111875762D01*
X136148689Y-112181269D01*
X136133302Y-112258629D01*
X136050000Y-112258629D01*
X136050000Y-111727011D01*
X136052660Y-111700000D01*
X136050000Y-111672989D01*
X136050000Y-111672982D01*
X136042042Y-111592181D01*
X136010592Y-111488506D01*
X135959521Y-111392958D01*
X135890790Y-111309210D01*
X135869804Y-111291987D01*
X134608013Y-110030196D01*
X134590790Y-110009210D01*
X134507042Y-109940479D01*
X134411494Y-109889408D01*
X134377056Y-109878961D01*
X134377056Y-109800000D01*
X134368850Y-109716686D01*
X134344548Y-109636573D01*
X134305084Y-109562740D01*
X134251974Y-109498026D01*
X134187260Y-109444916D01*
X134113427Y-109405452D01*
X134050000Y-109386212D01*
X134050000Y-108777008D01*
X134052660Y-108750000D01*
X134050000Y-108722992D01*
X134050000Y-108722982D01*
X134042042Y-108642181D01*
X134010592Y-108538506D01*
X133959521Y-108442958D01*
X133917850Y-108392182D01*
X133908013Y-108380195D01*
X133908008Y-108380190D01*
X133890790Y-108359210D01*
X133869810Y-108341992D01*
X132808013Y-107280196D01*
X132790790Y-107259210D01*
X132707042Y-107190479D01*
X132611494Y-107139408D01*
X132507819Y-107107958D01*
X132427018Y-107100000D01*
X132427008Y-107100000D01*
X132400000Y-107097340D01*
X132372992Y-107100000D01*
X132017056Y-107100000D01*
X132017056Y-106650000D01*
X132008850Y-106566686D01*
X131984548Y-106486573D01*
X131945084Y-106412740D01*
X131891974Y-106348026D01*
X131827260Y-106294916D01*
X131753427Y-106255452D01*
X131673314Y-106231150D01*
X131590000Y-106222944D01*
X130950000Y-106222944D01*
X130866686Y-106231150D01*
X130786573Y-106255452D01*
X130712740Y-106294916D01*
X130648026Y-106348026D01*
X130594916Y-106412740D01*
X130555452Y-106486573D01*
X130531150Y-106566686D01*
X130522944Y-106650000D01*
X130522944Y-108650000D01*
X130531150Y-108733314D01*
X130555452Y-108813427D01*
X130594916Y-108887260D01*
X130648026Y-108951974D01*
X130712740Y-109005084D01*
X130786573Y-109044548D01*
X130866686Y-109068850D01*
X130908252Y-109072944D01*
X130875000Y-109072944D01*
X130791686Y-109081150D01*
X130711573Y-109105452D01*
X130637740Y-109144916D01*
X130573026Y-109198026D01*
X130519916Y-109262740D01*
X130480452Y-109336573D01*
X130456150Y-109416686D01*
X130447944Y-109500000D01*
X130447944Y-109702466D01*
X130392181Y-109707958D01*
X130288506Y-109739408D01*
X130254153Y-109757770D01*
X130230084Y-109712740D01*
X130176974Y-109648026D01*
X130112260Y-109594916D01*
X130038427Y-109555452D01*
X129958314Y-109531150D01*
X129875000Y-109522944D01*
X129125000Y-109522944D01*
X129041686Y-109531150D01*
X128961573Y-109555452D01*
X128887740Y-109594916D01*
X128823026Y-109648026D01*
X128769916Y-109712740D01*
X128730452Y-109786573D01*
X128706150Y-109866686D01*
X128697944Y-109950000D01*
X128697944Y-110000000D01*
X128302056Y-110000000D01*
X128302056Y-109950000D01*
X128293850Y-109866686D01*
X128269548Y-109786573D01*
X128230084Y-109712740D01*
X128176974Y-109648026D01*
X128112260Y-109594916D01*
X128038427Y-109555452D01*
X127958314Y-109531150D01*
X127875000Y-109522944D01*
X127125000Y-109522944D01*
X127041686Y-109531150D01*
X126961573Y-109555452D01*
X126887740Y-109594916D01*
X126823026Y-109648026D01*
X126769916Y-109712740D01*
X126759690Y-109731872D01*
X126658013Y-109630195D01*
X126640790Y-109609210D01*
X126557042Y-109540479D01*
X126461494Y-109489408D01*
X126357819Y-109457958D01*
X126302056Y-109452466D01*
X126302056Y-109400000D01*
X126293850Y-109316686D01*
X126269548Y-109236573D01*
X126230084Y-109162740D01*
X126176974Y-109098026D01*
X126112260Y-109044916D01*
X126050000Y-109011638D01*
X126050000Y-108727817D01*
X126369804Y-108408013D01*
X126390790Y-108390790D01*
X126443304Y-108326802D01*
X126425016Y-108418745D01*
X126425016Y-108581255D01*
X126456720Y-108740644D01*
X126518910Y-108890784D01*
X126609197Y-109025907D01*
X126724109Y-109140819D01*
X126859232Y-109231106D01*
X127009372Y-109293296D01*
X127168761Y-109325000D01*
X127331271Y-109325000D01*
X127490660Y-109293296D01*
X127640800Y-109231106D01*
X127775923Y-109140819D01*
X127890835Y-109025907D01*
X127981122Y-108890784D01*
X128014485Y-108810239D01*
X128015452Y-108813427D01*
X128054916Y-108887260D01*
X128108026Y-108951974D01*
X128172740Y-109005084D01*
X128246573Y-109044548D01*
X128326686Y-109068850D01*
X128410000Y-109077056D01*
X129050000Y-109077056D01*
X129133314Y-109068850D01*
X129213427Y-109044548D01*
X129287260Y-109005084D01*
X129351974Y-108951974D01*
X129405084Y-108887260D01*
X129444548Y-108813427D01*
X129468850Y-108733314D01*
X129477056Y-108650000D01*
X129477056Y-106650000D01*
X129468850Y-106566686D01*
X129444548Y-106486573D01*
X129405084Y-106412740D01*
X129351974Y-106348026D01*
X129287260Y-106294916D01*
X129213427Y-106255452D01*
X129133314Y-106231150D01*
X129050000Y-106222944D01*
X128410000Y-106222944D01*
X128326686Y-106231150D01*
X128246573Y-106255452D01*
X128172740Y-106294916D01*
X128108026Y-106348026D01*
X128054916Y-106412740D01*
X128015452Y-106486573D01*
X127991150Y-106566686D01*
X127982944Y-106650000D01*
X127982944Y-107110765D01*
X127888522Y-107139408D01*
X127792974Y-107190479D01*
X127709226Y-107259210D01*
X127692003Y-107280196D01*
X127297199Y-107675000D01*
X127168761Y-107675000D01*
X127009372Y-107706704D01*
X126859232Y-107768894D01*
X126724109Y-107859181D01*
X126609197Y-107974093D01*
X126545879Y-108068854D01*
X126546165Y-108065957D01*
X126550000Y-108027018D01*
X126550000Y-108027011D01*
X126552660Y-108000000D01*
X126550000Y-107972989D01*
X126550000Y-107363788D01*
X126613427Y-107344548D01*
X126687260Y-107305084D01*
X126751974Y-107251974D01*
X126805084Y-107187260D01*
X126844548Y-107113427D01*
X126868850Y-107033314D01*
X126877056Y-106950000D01*
X126877056Y-106852274D01*
X126957042Y-106809521D01*
X127040790Y-106740790D01*
X127058013Y-106719804D01*
X127452817Y-106325000D01*
X127581255Y-106325000D01*
X127740644Y-106293296D01*
X127890784Y-106231106D01*
X128025907Y-106140819D01*
X128140819Y-106025907D01*
X128231106Y-105890784D01*
X128293296Y-105740644D01*
X128307597Y-105668745D01*
X131675000Y-105668745D01*
X131675000Y-105831255D01*
X131706704Y-105990644D01*
X131768894Y-106140784D01*
X131859181Y-106275907D01*
X131974093Y-106390819D01*
X132109216Y-106481106D01*
X132259356Y-106543296D01*
X132418745Y-106575000D01*
X132581255Y-106575000D01*
X132740644Y-106543296D01*
X132890784Y-106481106D01*
X133025907Y-106390819D01*
X133140819Y-106275907D01*
X133231106Y-106140784D01*
X133293296Y-105990644D01*
X133325000Y-105831255D01*
X133325000Y-105668745D01*
X133314062Y-105613755D01*
X133372944Y-105554873D01*
X133372944Y-106700000D01*
X133381150Y-106783314D01*
X133405452Y-106863427D01*
X133444916Y-106937260D01*
X133498026Y-107001974D01*
X133562740Y-107055084D01*
X133636573Y-107094548D01*
X133716686Y-107118850D01*
X133800000Y-107127056D01*
X134700000Y-107127056D01*
X134783314Y-107118850D01*
X134863427Y-107094548D01*
X134873395Y-107089220D01*
X134871976Y-107450000D01*
X134884043Y-107572521D01*
X134919781Y-107690334D01*
X134977817Y-107798911D01*
X135055920Y-107894080D01*
X135151089Y-107972183D01*
X135259666Y-108030219D01*
X135377479Y-108065957D01*
X135500000Y-108078024D01*
X136318750Y-108075000D01*
X136475000Y-107918750D01*
X136475000Y-106525000D01*
X136525000Y-106525000D01*
X136525000Y-107918750D01*
X136681250Y-108075000D01*
X137500000Y-108078024D01*
X137622521Y-108065957D01*
X137740334Y-108030219D01*
X137848911Y-107972183D01*
X137944080Y-107894080D01*
X138022183Y-107798911D01*
X138080219Y-107690334D01*
X138115957Y-107572521D01*
X138128024Y-107450000D01*
X138125000Y-106681250D01*
X137968750Y-106525000D01*
X136525000Y-106525000D01*
X136475000Y-106525000D01*
X136455000Y-106525000D01*
X136455000Y-106475000D01*
X136475000Y-106475000D01*
X136475000Y-106455000D01*
X136525000Y-106455000D01*
X136525000Y-106475000D01*
X137968750Y-106475000D01*
X138125000Y-106318750D01*
X138128024Y-105550000D01*
X138115957Y-105427479D01*
X138080219Y-105309666D01*
X138022183Y-105201089D01*
X137944080Y-105105920D01*
X137848911Y-105027817D01*
X137740334Y-104969781D01*
X137622521Y-104934043D01*
X137500000Y-104921976D01*
X137482502Y-104922041D01*
X137568032Y-104836511D01*
X137718509Y-104611307D01*
X137822159Y-104361073D01*
X137875000Y-104095426D01*
X137875000Y-103824574D01*
X137822159Y-103558927D01*
X137718509Y-103308693D01*
X137568032Y-103083489D01*
X137376511Y-102891968D01*
X137151307Y-102741491D01*
X136901073Y-102637841D01*
X136635426Y-102585000D01*
X136364574Y-102585000D01*
X136098927Y-102637841D01*
X135848693Y-102741491D01*
X135623489Y-102891968D01*
X135431968Y-103083489D01*
X135281491Y-103308693D01*
X135177841Y-103558927D01*
X135127056Y-103814238D01*
X135127056Y-103300000D01*
X135118850Y-103216686D01*
X135094548Y-103136573D01*
X135055084Y-103062740D01*
X135001974Y-102998026D01*
X134937260Y-102944916D01*
X134863427Y-102905452D01*
X134783314Y-102881150D01*
X134700000Y-102872944D01*
X133800000Y-102872944D01*
X133716686Y-102881150D01*
X133636573Y-102905452D01*
X133562740Y-102944916D01*
X133498026Y-102998026D01*
X133444916Y-103062740D01*
X133405452Y-103136573D01*
X133381150Y-103216686D01*
X133372944Y-103300000D01*
X133372944Y-103999239D01*
X132447183Y-104925000D01*
X132418745Y-104925000D01*
X132259356Y-104956704D01*
X132109216Y-105018894D01*
X131974093Y-105109181D01*
X131859181Y-105224093D01*
X131768894Y-105359216D01*
X131706704Y-105509356D01*
X131675000Y-105668745D01*
X128307597Y-105668745D01*
X128325000Y-105581255D01*
X128325000Y-105418745D01*
X128293296Y-105259356D01*
X128231106Y-105109216D01*
X128140819Y-104974093D01*
X128025907Y-104859181D01*
X127890784Y-104768894D01*
X127740644Y-104706704D01*
X127581255Y-104675000D01*
X127418745Y-104675000D01*
X127259356Y-104706704D01*
X127109216Y-104768894D01*
X126974093Y-104859181D01*
X126859181Y-104974093D01*
X126768894Y-105109216D01*
X126706704Y-105259356D01*
X126680463Y-105391283D01*
X126613427Y-105355452D01*
X126533314Y-105331150D01*
X126450000Y-105322944D01*
X125550000Y-105322944D01*
X125466686Y-105331150D01*
X125386573Y-105355452D01*
X125312740Y-105394916D01*
X125248026Y-105448026D01*
X125194916Y-105512740D01*
X125155452Y-105586573D01*
X125131150Y-105666686D01*
X125127416Y-105704598D01*
X125128024Y-105550000D01*
X125115957Y-105427479D01*
X125080219Y-105309666D01*
X125022183Y-105201089D01*
X124944080Y-105105920D01*
X124848911Y-105027817D01*
X124740334Y-104969781D01*
X124622521Y-104934043D01*
X124500000Y-104921976D01*
X124482502Y-104922041D01*
X124568032Y-104836511D01*
X124659246Y-104700000D01*
X125122944Y-104700000D01*
X125122944Y-104750000D01*
X125131150Y-104833314D01*
X125155452Y-104913427D01*
X125194916Y-104987260D01*
X125248026Y-105051974D01*
X125312740Y-105105084D01*
X125386573Y-105144548D01*
X125466686Y-105168850D01*
X125550000Y-105177056D01*
X126450000Y-105177056D01*
X126533314Y-105168850D01*
X126613427Y-105144548D01*
X126687260Y-105105084D01*
X126751974Y-105051974D01*
X126805084Y-104987260D01*
X126844548Y-104913427D01*
X126868850Y-104833314D01*
X126877056Y-104750000D01*
X126877056Y-103550000D01*
X126868850Y-103466686D01*
X126844548Y-103386573D01*
X126805084Y-103312740D01*
X126751974Y-103248026D01*
X126687260Y-103194916D01*
X126613427Y-103155452D01*
X126533314Y-103131150D01*
X126450000Y-103122944D01*
X125550000Y-103122944D01*
X125466686Y-103131150D01*
X125386573Y-103155452D01*
X125312740Y-103194916D01*
X125248026Y-103248026D01*
X125194916Y-103312740D01*
X125155452Y-103386573D01*
X125131150Y-103466686D01*
X125122944Y-103550000D01*
X125122944Y-103600000D01*
X124830329Y-103600000D01*
X124822159Y-103558927D01*
X124718509Y-103308693D01*
X124568032Y-103083489D01*
X124376511Y-102891968D01*
X124151307Y-102741491D01*
X123901073Y-102637841D01*
X123635426Y-102585000D01*
X123364574Y-102585000D01*
X123098927Y-102637841D01*
X122848693Y-102741491D01*
X122623489Y-102891968D01*
X122431968Y-103083489D01*
X122281491Y-103308693D01*
X122177841Y-103558927D01*
X122125000Y-103824574D01*
X122125000Y-104095426D01*
X122177841Y-104361073D01*
X122281491Y-104611307D01*
X122431968Y-104836511D01*
X122517498Y-104922041D01*
X122500000Y-104921976D01*
X122377479Y-104934043D01*
X122259666Y-104969781D01*
X122151089Y-105027817D01*
X122055920Y-105105920D01*
X121977817Y-105201089D01*
X121919781Y-105309666D01*
X121884043Y-105427479D01*
X121871976Y-105550000D01*
X121875000Y-106318750D01*
X122031250Y-106475000D01*
X123475000Y-106475000D01*
X123475000Y-106455000D01*
X123525000Y-106455000D01*
X123525000Y-106475000D01*
X123545000Y-106475000D01*
X123545000Y-106525000D01*
X123525000Y-106525000D01*
X123525000Y-107918750D01*
X123681250Y-108075000D01*
X124500000Y-108078024D01*
X124622521Y-108065957D01*
X124740334Y-108030219D01*
X124848911Y-107972183D01*
X124944080Y-107894080D01*
X125022183Y-107798911D01*
X125080219Y-107690334D01*
X125115957Y-107572521D01*
X125128024Y-107450000D01*
X125126187Y-106982922D01*
X125131150Y-107033314D01*
X125155452Y-107113427D01*
X125194916Y-107187260D01*
X125248026Y-107251974D01*
X125312740Y-107305084D01*
X125386573Y-107344548D01*
X125450000Y-107363788D01*
X125450000Y-107772183D01*
X125130191Y-108091992D01*
X125109211Y-108109210D01*
X125091993Y-108130190D01*
X125091987Y-108130196D01*
X125040479Y-108192958D01*
X124989409Y-108288506D01*
X124957959Y-108392182D01*
X124947340Y-108500000D01*
X124950001Y-108527018D01*
X124950001Y-109011637D01*
X124887740Y-109044916D01*
X124823026Y-109098026D01*
X124769916Y-109162740D01*
X124730452Y-109236573D01*
X124706150Y-109316686D01*
X124697944Y-109400000D01*
X124697944Y-109450000D01*
X123693056Y-109450000D01*
X123693056Y-108984000D01*
X123684850Y-108900686D01*
X123660548Y-108820573D01*
X123621084Y-108746740D01*
X123567974Y-108682026D01*
X123503260Y-108628916D01*
X123429427Y-108589452D01*
X123349314Y-108565150D01*
X123266000Y-108556944D01*
X121234000Y-108556944D01*
X121150686Y-108565150D01*
X121070573Y-108589452D01*
X120996740Y-108628916D01*
X120932026Y-108682026D01*
X120878916Y-108746740D01*
X120839452Y-108820573D01*
X120815150Y-108900686D01*
X120806944Y-108984000D01*
X120806944Y-111016000D01*
X120815150Y-111099314D01*
X120839452Y-111179427D01*
X120878916Y-111253260D01*
X120932026Y-111317974D01*
X120996740Y-111371084D01*
X121068456Y-111409417D01*
X120907862Y-111595781D01*
X120749443Y-111875762D01*
X120648689Y-112181269D01*
X120633302Y-112258629D01*
X120450000Y-112258629D01*
X120450000Y-107450000D01*
X121871976Y-107450000D01*
X121884043Y-107572521D01*
X121919781Y-107690334D01*
X121977817Y-107798911D01*
X122055920Y-107894080D01*
X122151089Y-107972183D01*
X122259666Y-108030219D01*
X122377479Y-108065957D01*
X122500000Y-108078024D01*
X123318750Y-108075000D01*
X123475000Y-107918750D01*
X123475000Y-106525000D01*
X122031250Y-106525000D01*
X121875000Y-106681250D01*
X121871976Y-107450000D01*
X120450000Y-107450000D01*
X120450000Y-98300000D01*
X120771976Y-98300000D01*
X120784043Y-98422521D01*
X120819781Y-98540334D01*
X120877817Y-98648911D01*
X120955920Y-98744080D01*
X121051089Y-98822183D01*
X121159666Y-98880219D01*
X121167233Y-98882514D01*
X121162740Y-98884916D01*
X121098026Y-98938026D01*
X121044916Y-99002740D01*
X121005452Y-99076573D01*
X120981150Y-99156686D01*
X120972944Y-99240000D01*
X120972944Y-100840000D01*
X120981150Y-100923314D01*
X121005452Y-101003427D01*
X121044916Y-101077260D01*
X121098026Y-101141974D01*
X121162740Y-101195084D01*
X121236573Y-101234548D01*
X121316686Y-101258850D01*
X121400000Y-101267056D01*
X122900000Y-101267056D01*
X122983314Y-101258850D01*
X123063427Y-101234548D01*
X123137260Y-101195084D01*
X123201974Y-101141974D01*
X123250000Y-101083455D01*
X123298026Y-101141974D01*
X123362740Y-101195084D01*
X123379310Y-101203940D01*
X123359157Y-101224093D01*
X123268870Y-101359216D01*
X123206680Y-101509356D01*
X123174976Y-101668745D01*
X123174976Y-101831255D01*
X123206680Y-101990644D01*
X123268870Y-102140784D01*
X123359157Y-102275907D01*
X123474069Y-102390819D01*
X123609192Y-102481106D01*
X123759332Y-102543296D01*
X123918721Y-102575000D01*
X124081231Y-102575000D01*
X124240620Y-102543296D01*
X124390760Y-102481106D01*
X124525883Y-102390819D01*
X124566702Y-102350000D01*
X127781976Y-102350000D01*
X127794043Y-102472521D01*
X127829781Y-102590334D01*
X127887817Y-102698911D01*
X127965920Y-102794080D01*
X128061089Y-102872183D01*
X128169666Y-102930219D01*
X128287479Y-102965957D01*
X128410000Y-102978024D01*
X128548750Y-102975000D01*
X128705000Y-102818750D01*
X128705000Y-101375000D01*
X127941250Y-101375000D01*
X127785000Y-101531250D01*
X127781976Y-102350000D01*
X124566702Y-102350000D01*
X124640795Y-102275907D01*
X124731082Y-102140784D01*
X124793272Y-101990644D01*
X124824976Y-101831255D01*
X124824976Y-101678103D01*
X124829978Y-101668745D01*
X124860592Y-101611471D01*
X124892042Y-101507795D01*
X124896964Y-101457818D01*
X124900000Y-101426994D01*
X124900000Y-101426987D01*
X124902660Y-101399976D01*
X124900000Y-101372965D01*
X124900000Y-101267056D01*
X125100000Y-101267056D01*
X125183314Y-101258850D01*
X125263427Y-101234548D01*
X125337260Y-101195084D01*
X125401974Y-101141974D01*
X125455084Y-101077260D01*
X125494548Y-101003427D01*
X125518850Y-100923314D01*
X125527056Y-100840000D01*
X125527056Y-100350000D01*
X127781976Y-100350000D01*
X127785000Y-101168750D01*
X127941250Y-101325000D01*
X128705000Y-101325000D01*
X128705000Y-99881250D01*
X128548750Y-99725000D01*
X128410000Y-99721976D01*
X128287479Y-99734043D01*
X128169666Y-99769781D01*
X128061089Y-99827817D01*
X127965920Y-99905920D01*
X127887817Y-100001089D01*
X127829781Y-100109666D01*
X127794043Y-100227479D01*
X127781976Y-100350000D01*
X125527056Y-100350000D01*
X125527056Y-99240000D01*
X125518850Y-99156686D01*
X125494548Y-99076573D01*
X125455084Y-99002740D01*
X125401974Y-98938026D01*
X125337260Y-98884916D01*
X125263427Y-98845452D01*
X125183314Y-98821150D01*
X125100000Y-98812944D01*
X123600000Y-98812944D01*
X123516686Y-98821150D01*
X123436573Y-98845452D01*
X123362740Y-98884916D01*
X123298026Y-98938026D01*
X123250000Y-98996545D01*
X123201974Y-98938026D01*
X123137260Y-98884916D01*
X123132767Y-98882514D01*
X123140334Y-98880219D01*
X123248911Y-98822183D01*
X123344080Y-98744080D01*
X123400537Y-98675287D01*
X123436573Y-98694548D01*
X123516686Y-98718850D01*
X123600000Y-98727056D01*
X125100000Y-98727056D01*
X125183314Y-98718850D01*
X125263427Y-98694548D01*
X125337260Y-98655084D01*
X125401974Y-98601974D01*
X125455084Y-98537260D01*
X125494548Y-98463427D01*
X125518850Y-98383314D01*
X125527056Y-98300000D01*
X125527056Y-98050000D01*
X128383274Y-98050000D01*
X128474093Y-98140819D01*
X128609216Y-98231106D01*
X128759356Y-98293296D01*
X128918745Y-98325000D01*
X129081255Y-98325000D01*
X129240644Y-98293296D01*
X129390784Y-98231106D01*
X129525907Y-98140819D01*
X129640819Y-98025907D01*
X129731106Y-97890784D01*
X129793296Y-97740644D01*
X129825000Y-97581255D01*
X129825000Y-97418745D01*
X129793296Y-97259356D01*
X129731106Y-97109216D01*
X129640819Y-96974093D01*
X129525907Y-96859181D01*
X129390784Y-96768894D01*
X129240644Y-96706704D01*
X129081255Y-96675000D01*
X128918745Y-96675000D01*
X128759356Y-96706704D01*
X128609216Y-96768894D01*
X128474093Y-96859181D01*
X128383274Y-96950000D01*
X125527056Y-96950000D01*
X125527056Y-96700000D01*
X125518850Y-96616686D01*
X125494548Y-96536573D01*
X125455084Y-96462740D01*
X125401974Y-96398026D01*
X125337260Y-96344916D01*
X125263427Y-96305452D01*
X125183314Y-96281150D01*
X125100000Y-96272944D01*
X123600000Y-96272944D01*
X123516686Y-96281150D01*
X123436573Y-96305452D01*
X123400537Y-96324713D01*
X123344080Y-96255920D01*
X123248911Y-96177817D01*
X123140334Y-96119781D01*
X123022521Y-96084043D01*
X122900000Y-96071976D01*
X122331250Y-96075000D01*
X122175000Y-96231250D01*
X122175000Y-97475000D01*
X122195000Y-97475000D01*
X122195000Y-97525000D01*
X122175000Y-97525000D01*
X122175000Y-97545000D01*
X122125000Y-97545000D01*
X122125000Y-97525000D01*
X120931250Y-97525000D01*
X120775000Y-97681250D01*
X120771976Y-98300000D01*
X120450000Y-98300000D01*
X120450000Y-96700000D01*
X120771976Y-96700000D01*
X120775000Y-97318750D01*
X120931250Y-97475000D01*
X122125000Y-97475000D01*
X122125000Y-96231250D01*
X121968750Y-96075000D01*
X121400000Y-96071976D01*
X121277479Y-96084043D01*
X121159666Y-96119781D01*
X121051089Y-96177817D01*
X120955920Y-96255920D01*
X120877817Y-96351089D01*
X120819781Y-96459666D01*
X120784043Y-96577479D01*
X120771976Y-96700000D01*
X120450000Y-96700000D01*
X120450000Y-91200000D01*
X121447340Y-91200000D01*
X121450000Y-91227008D01*
X121450000Y-91527018D01*
X121450001Y-91527028D01*
X121450000Y-92972992D01*
X121447340Y-93000000D01*
X121450000Y-93027008D01*
X121450000Y-93027017D01*
X121457958Y-93107818D01*
X121489408Y-93211493D01*
X121540479Y-93307042D01*
X121609210Y-93390790D01*
X121630196Y-93408013D01*
X122122944Y-93900761D01*
X122122944Y-94700000D01*
X122131150Y-94783314D01*
X122155452Y-94863427D01*
X122194916Y-94937260D01*
X122248026Y-95001974D01*
X122312740Y-95055084D01*
X122386573Y-95094548D01*
X122466686Y-95118850D01*
X122550000Y-95127056D01*
X123450000Y-95127056D01*
X123533314Y-95118850D01*
X123613427Y-95094548D01*
X123687260Y-95055084D01*
X123751974Y-95001974D01*
X123805084Y-94937260D01*
X123844548Y-94863427D01*
X123868850Y-94783314D01*
X123877056Y-94700000D01*
X123877056Y-94654873D01*
X124496992Y-95274810D01*
X124514210Y-95295790D01*
X124535190Y-95313008D01*
X124535195Y-95313013D01*
X124597958Y-95364521D01*
X124693506Y-95415592D01*
X124797181Y-95447042D01*
X124877982Y-95455000D01*
X124877992Y-95455000D01*
X124905000Y-95457660D01*
X124932008Y-95455000D01*
X125946623Y-95455000D01*
X125951526Y-95460974D01*
X126016240Y-95514084D01*
X126090073Y-95553548D01*
X126170186Y-95577850D01*
X126253500Y-95586056D01*
X127396500Y-95586056D01*
X127479814Y-95577850D01*
X127559927Y-95553548D01*
X127633760Y-95514084D01*
X127698474Y-95460974D01*
X127751584Y-95396260D01*
X127791048Y-95322427D01*
X127815350Y-95242314D01*
X127823556Y-95159000D01*
X127823556Y-94651000D01*
X127815350Y-94567686D01*
X127791048Y-94487573D01*
X127751584Y-94413740D01*
X127698474Y-94349026D01*
X127633760Y-94295916D01*
X127585274Y-94270000D01*
X127633760Y-94244084D01*
X127698474Y-94190974D01*
X127703377Y-94185000D01*
X129302629Y-94185000D01*
X129334216Y-94206106D01*
X129484356Y-94268296D01*
X129643745Y-94300000D01*
X129806255Y-94300000D01*
X129965644Y-94268296D01*
X130115784Y-94206106D01*
X130250907Y-94115819D01*
X130365819Y-94000907D01*
X130456106Y-93865784D01*
X130518296Y-93715644D01*
X130550000Y-93556255D01*
X130550000Y-93393745D01*
X130518296Y-93234356D01*
X130456106Y-93084216D01*
X130365819Y-92949093D01*
X130250907Y-92834181D01*
X130115784Y-92743894D01*
X129965644Y-92681704D01*
X129806255Y-92650000D01*
X129643745Y-92650000D01*
X129484356Y-92681704D01*
X129334216Y-92743894D01*
X129199093Y-92834181D01*
X129084181Y-92949093D01*
X128993894Y-93084216D01*
X128993569Y-93085000D01*
X127703377Y-93085000D01*
X127698474Y-93079026D01*
X127633760Y-93025916D01*
X127585274Y-93000000D01*
X127633760Y-92974084D01*
X127698474Y-92920974D01*
X127751584Y-92856260D01*
X127791048Y-92782427D01*
X127815350Y-92702314D01*
X127823556Y-92619000D01*
X127823556Y-92111000D01*
X127815350Y-92027686D01*
X127791048Y-91947573D01*
X127751584Y-91873740D01*
X127747846Y-91869185D01*
X127840580Y-91793080D01*
X127918683Y-91697911D01*
X127976719Y-91589334D01*
X128012457Y-91471521D01*
X128024524Y-91349000D01*
X128021500Y-91276250D01*
X127865250Y-91120000D01*
X126850000Y-91120000D01*
X126850000Y-91140000D01*
X126800000Y-91140000D01*
X126800000Y-91120000D01*
X126780000Y-91120000D01*
X126780000Y-91070000D01*
X126800000Y-91070000D01*
X126800000Y-90372250D01*
X126850000Y-90372250D01*
X126850000Y-91070000D01*
X127865250Y-91070000D01*
X128021500Y-90913750D01*
X128024524Y-90841000D01*
X131975476Y-90841000D01*
X131978500Y-90913750D01*
X132134750Y-91070000D01*
X133150000Y-91070000D01*
X133150000Y-90372250D01*
X133200000Y-90372250D01*
X133200000Y-91070000D01*
X134215250Y-91070000D01*
X134371500Y-90913750D01*
X134374524Y-90841000D01*
X134362457Y-90718479D01*
X134326719Y-90600666D01*
X134268683Y-90492089D01*
X134190580Y-90396920D01*
X134095411Y-90318817D01*
X133986834Y-90260781D01*
X133869021Y-90225043D01*
X133746500Y-90212976D01*
X133356250Y-90216000D01*
X133200000Y-90372250D01*
X133150000Y-90372250D01*
X132993750Y-90216000D01*
X132603500Y-90212976D01*
X132480979Y-90225043D01*
X132363166Y-90260781D01*
X132254589Y-90318817D01*
X132159420Y-90396920D01*
X132081317Y-90492089D01*
X132023281Y-90600666D01*
X131987543Y-90718479D01*
X131975476Y-90841000D01*
X128024524Y-90841000D01*
X128012457Y-90718479D01*
X127976719Y-90600666D01*
X127918683Y-90492089D01*
X127840580Y-90396920D01*
X127745411Y-90318817D01*
X127636834Y-90260781D01*
X127519021Y-90225043D01*
X127396500Y-90212976D01*
X127006250Y-90216000D01*
X126850000Y-90372250D01*
X126800000Y-90372250D01*
X126643750Y-90216000D01*
X126253500Y-90212976D01*
X126130979Y-90225043D01*
X126013166Y-90260781D01*
X126000732Y-90267427D01*
X126003024Y-89950000D01*
X125995145Y-89870000D01*
X127746976Y-89870000D01*
X127759043Y-89992521D01*
X127794781Y-90110334D01*
X127852817Y-90218911D01*
X127930920Y-90314080D01*
X128026089Y-90392183D01*
X128134666Y-90450219D01*
X128252479Y-90485957D01*
X128375000Y-90498024D01*
X128568750Y-90495000D01*
X128725000Y-90338750D01*
X128725000Y-89295000D01*
X128775000Y-89295000D01*
X128775000Y-90338750D01*
X128931250Y-90495000D01*
X129125000Y-90498024D01*
X129247521Y-90485957D01*
X129365334Y-90450219D01*
X129473911Y-90392183D01*
X129569080Y-90314080D01*
X129647183Y-90218911D01*
X129705219Y-90110334D01*
X129740957Y-89992521D01*
X129753024Y-89870000D01*
X130246976Y-89870000D01*
X130259043Y-89992521D01*
X130294781Y-90110334D01*
X130352817Y-90218911D01*
X130430920Y-90314080D01*
X130526089Y-90392183D01*
X130634666Y-90450219D01*
X130752479Y-90485957D01*
X130875000Y-90498024D01*
X131068750Y-90495000D01*
X131225000Y-90338750D01*
X131225000Y-89295000D01*
X131275000Y-89295000D01*
X131275000Y-90338750D01*
X131431250Y-90495000D01*
X131625000Y-90498024D01*
X131747521Y-90485957D01*
X131865334Y-90450219D01*
X131973911Y-90392183D01*
X132069080Y-90314080D01*
X132147183Y-90218911D01*
X132205219Y-90110334D01*
X132240957Y-89992521D01*
X132253024Y-89870000D01*
X132250000Y-89451250D01*
X132093750Y-89295000D01*
X131275000Y-89295000D01*
X131225000Y-89295000D01*
X130406250Y-89295000D01*
X130250000Y-89451250D01*
X130246976Y-89870000D01*
X129753024Y-89870000D01*
X129750000Y-89451250D01*
X129593750Y-89295000D01*
X128775000Y-89295000D01*
X128725000Y-89295000D01*
X127906250Y-89295000D01*
X127750000Y-89451250D01*
X127746976Y-89870000D01*
X125995145Y-89870000D01*
X125990957Y-89827479D01*
X125955219Y-89709666D01*
X125897183Y-89601089D01*
X125819080Y-89505920D01*
X125723911Y-89427817D01*
X125615334Y-89369781D01*
X125497521Y-89334043D01*
X125375000Y-89321976D01*
X125181250Y-89325000D01*
X125025000Y-89481250D01*
X125025000Y-90525000D01*
X125045000Y-90525000D01*
X125045000Y-90575000D01*
X125025000Y-90575000D01*
X125025000Y-90595000D01*
X124975000Y-90595000D01*
X124975000Y-90575000D01*
X124156250Y-90575000D01*
X124000000Y-90731250D01*
X123996976Y-91150000D01*
X124009043Y-91272521D01*
X124044781Y-91390334D01*
X124102817Y-91498911D01*
X124180920Y-91594080D01*
X124249713Y-91650537D01*
X124230452Y-91686573D01*
X124206150Y-91766686D01*
X124197944Y-91850000D01*
X124197944Y-92430129D01*
X123877056Y-92109241D01*
X123877056Y-91300000D01*
X123868850Y-91216686D01*
X123844548Y-91136573D01*
X123805084Y-91062740D01*
X123751974Y-90998026D01*
X123687260Y-90944916D01*
X123613427Y-90905452D01*
X123533314Y-90881150D01*
X123450000Y-90872944D01*
X123104873Y-90872944D01*
X123997197Y-89980621D01*
X124000000Y-90368750D01*
X124156250Y-90525000D01*
X124975000Y-90525000D01*
X124975000Y-89481250D01*
X124818750Y-89325000D01*
X124625000Y-89321976D01*
X124535060Y-89330834D01*
X124542042Y-89307819D01*
X124550000Y-89227018D01*
X124550000Y-89227009D01*
X124552660Y-89200001D01*
X124550000Y-89172993D01*
X124550000Y-88227817D01*
X124572944Y-88204873D01*
X124572944Y-88750000D01*
X124581150Y-88833314D01*
X124605452Y-88913427D01*
X124644916Y-88987260D01*
X124698026Y-89051974D01*
X124762740Y-89105084D01*
X124836573Y-89144548D01*
X124916686Y-89168850D01*
X125000000Y-89177056D01*
X127000000Y-89177056D01*
X127083314Y-89168850D01*
X127163427Y-89144548D01*
X127237260Y-89105084D01*
X127301974Y-89051974D01*
X127355084Y-88987260D01*
X127394548Y-88913427D01*
X127418850Y-88833314D01*
X127427056Y-88750000D01*
X127427056Y-88670000D01*
X127746976Y-88670000D01*
X127750000Y-89088750D01*
X127906250Y-89245000D01*
X128725000Y-89245000D01*
X128725000Y-88201250D01*
X128775000Y-88201250D01*
X128775000Y-89245000D01*
X129593750Y-89245000D01*
X129750000Y-89088750D01*
X129753024Y-88670000D01*
X130246976Y-88670000D01*
X130250000Y-89088750D01*
X130406250Y-89245000D01*
X131225000Y-89245000D01*
X131225000Y-88201250D01*
X131275000Y-88201250D01*
X131275000Y-89245000D01*
X132093750Y-89245000D01*
X132250000Y-89088750D01*
X132253024Y-88670000D01*
X132240957Y-88547479D01*
X132205219Y-88429666D01*
X132147183Y-88321089D01*
X132069080Y-88225920D01*
X131973911Y-88147817D01*
X131865334Y-88089781D01*
X131747521Y-88054043D01*
X131625000Y-88041976D01*
X131431250Y-88045000D01*
X131275000Y-88201250D01*
X131225000Y-88201250D01*
X131068750Y-88045000D01*
X130875000Y-88041976D01*
X130752479Y-88054043D01*
X130634666Y-88089781D01*
X130526089Y-88147817D01*
X130430920Y-88225920D01*
X130352817Y-88321089D01*
X130294781Y-88429666D01*
X130259043Y-88547479D01*
X130246976Y-88670000D01*
X129753024Y-88670000D01*
X129740957Y-88547479D01*
X129705219Y-88429666D01*
X129647183Y-88321089D01*
X129569080Y-88225920D01*
X129473911Y-88147817D01*
X129365334Y-88089781D01*
X129247521Y-88054043D01*
X129125000Y-88041976D01*
X128931250Y-88045000D01*
X128775000Y-88201250D01*
X128725000Y-88201250D01*
X128568750Y-88045000D01*
X128375000Y-88041976D01*
X128252479Y-88054043D01*
X128134666Y-88089781D01*
X128026089Y-88147817D01*
X127930920Y-88225920D01*
X127852817Y-88321089D01*
X127794781Y-88429666D01*
X127759043Y-88547479D01*
X127746976Y-88670000D01*
X127427056Y-88670000D01*
X127427056Y-87280000D01*
X127947944Y-87280000D01*
X127947944Y-87330000D01*
X127956150Y-87413314D01*
X127980452Y-87493427D01*
X128019916Y-87567260D01*
X128073026Y-87631974D01*
X128137740Y-87685084D01*
X128211573Y-87724548D01*
X128291686Y-87748850D01*
X128375000Y-87757056D01*
X129125000Y-87757056D01*
X129208314Y-87748850D01*
X129288427Y-87724548D01*
X129362260Y-87685084D01*
X129426974Y-87631974D01*
X129480084Y-87567260D01*
X129519548Y-87493427D01*
X129543850Y-87413314D01*
X129552056Y-87330000D01*
X129552056Y-86130000D01*
X129543850Y-86046686D01*
X129519548Y-85966573D01*
X129480084Y-85892740D01*
X129426974Y-85828026D01*
X129362260Y-85774916D01*
X129288427Y-85735452D01*
X129270097Y-85729892D01*
X129305084Y-85687260D01*
X129344548Y-85613427D01*
X129368850Y-85533314D01*
X129377056Y-85450000D01*
X129377056Y-85248851D01*
X129484356Y-85293296D01*
X129643745Y-85325000D01*
X129675000Y-85325000D01*
X129675000Y-85331255D01*
X129706704Y-85490644D01*
X129768894Y-85640784D01*
X129859181Y-85775907D01*
X129974093Y-85890819D01*
X130109216Y-85981106D01*
X130259356Y-86043296D01*
X130418745Y-86075000D01*
X130453361Y-86075000D01*
X130447944Y-86130000D01*
X130447944Y-87330000D01*
X130456150Y-87413314D01*
X130480452Y-87493427D01*
X130519916Y-87567260D01*
X130573026Y-87631974D01*
X130637740Y-87685084D01*
X130711573Y-87724548D01*
X130791686Y-87748850D01*
X130875000Y-87757056D01*
X131625000Y-87757056D01*
X131708314Y-87748850D01*
X131788427Y-87724548D01*
X131862260Y-87685084D01*
X131926974Y-87631974D01*
X131980084Y-87567260D01*
X132019548Y-87493427D01*
X132043850Y-87413314D01*
X132052056Y-87330000D01*
X132052056Y-87280000D01*
X132572944Y-87280000D01*
X132572944Y-88750000D01*
X132581150Y-88833314D01*
X132605452Y-88913427D01*
X132644916Y-88987260D01*
X132698026Y-89051974D01*
X132762740Y-89105084D01*
X132836573Y-89144548D01*
X132916686Y-89168850D01*
X133000000Y-89177056D01*
X135000000Y-89177056D01*
X135083314Y-89168850D01*
X135163427Y-89144548D01*
X135237260Y-89105084D01*
X135301974Y-89051974D01*
X135355084Y-88987260D01*
X135394548Y-88913427D01*
X135418850Y-88833314D01*
X135427056Y-88750000D01*
X135427056Y-88404873D01*
X135450000Y-88427817D01*
X135450001Y-89172983D01*
X135447340Y-89200000D01*
X135450001Y-89227018D01*
X135457959Y-89307819D01*
X135462254Y-89321976D01*
X135489409Y-89411494D01*
X135540479Y-89507042D01*
X135591987Y-89569804D01*
X135591993Y-89569810D01*
X135609211Y-89590790D01*
X135630191Y-89608008D01*
X135895127Y-89872944D01*
X135300000Y-89872944D01*
X135216686Y-89881150D01*
X135136573Y-89905452D01*
X135062740Y-89944916D01*
X134998026Y-89998026D01*
X134944916Y-90062740D01*
X134905452Y-90136573D01*
X134881150Y-90216686D01*
X134872944Y-90300000D01*
X134872944Y-90999238D01*
X134345821Y-91526361D01*
X134362457Y-91471521D01*
X134374524Y-91349000D01*
X134371500Y-91276250D01*
X134215250Y-91120000D01*
X133200000Y-91120000D01*
X133200000Y-91140000D01*
X133150000Y-91140000D01*
X133150000Y-91120000D01*
X132134750Y-91120000D01*
X131978500Y-91276250D01*
X131975476Y-91349000D01*
X131987543Y-91471521D01*
X132023281Y-91589334D01*
X132081317Y-91697911D01*
X132159420Y-91793080D01*
X132186130Y-91815000D01*
X131342786Y-91815000D01*
X131324968Y-91797182D01*
X131324968Y-91668745D01*
X131293264Y-91509356D01*
X131231074Y-91359216D01*
X131140787Y-91224093D01*
X131025875Y-91109181D01*
X130890752Y-91018894D01*
X130740612Y-90956704D01*
X130581223Y-90925000D01*
X130418713Y-90925000D01*
X130259324Y-90956704D01*
X130109184Y-91018894D01*
X129974061Y-91109181D01*
X129859149Y-91224093D01*
X129768862Y-91359216D01*
X129706672Y-91509356D01*
X129674968Y-91668745D01*
X129674968Y-91831255D01*
X129706672Y-91990644D01*
X129768862Y-92140784D01*
X129859149Y-92275907D01*
X129974061Y-92390819D01*
X130109184Y-92481106D01*
X130259324Y-92543296D01*
X130418713Y-92575000D01*
X130547150Y-92575000D01*
X130706960Y-92734809D01*
X130724178Y-92755790D01*
X130745158Y-92773008D01*
X130745163Y-92773013D01*
X130797065Y-92815607D01*
X130807926Y-92824521D01*
X130903474Y-92875592D01*
X131007149Y-92907042D01*
X131087950Y-92915000D01*
X131087959Y-92915000D01*
X131114967Y-92917660D01*
X131141975Y-92915000D01*
X132296623Y-92915000D01*
X132301526Y-92920974D01*
X132366240Y-92974084D01*
X132414726Y-93000000D01*
X132366240Y-93025916D01*
X132301526Y-93079026D01*
X132248416Y-93143740D01*
X132208952Y-93217573D01*
X132184650Y-93297686D01*
X132176444Y-93381000D01*
X132176444Y-93889000D01*
X132184650Y-93972314D01*
X132208952Y-94052427D01*
X132248416Y-94126260D01*
X132301526Y-94190974D01*
X132366240Y-94244084D01*
X132414726Y-94270000D01*
X132366240Y-94295916D01*
X132301526Y-94349026D01*
X132294745Y-94357289D01*
X132237181Y-94362958D01*
X132133506Y-94394408D01*
X132037958Y-94445479D01*
X131954210Y-94514210D01*
X131936988Y-94535195D01*
X130900191Y-95571992D01*
X130879211Y-95589210D01*
X130861993Y-95610190D01*
X130861987Y-95610196D01*
X130810479Y-95672958D01*
X130781425Y-95727316D01*
X130759409Y-95768506D01*
X130732302Y-95857866D01*
X130727959Y-95872182D01*
X130717340Y-95980000D01*
X130720001Y-96007018D01*
X130720000Y-98883274D01*
X130629181Y-98974093D01*
X130538894Y-99109216D01*
X130476704Y-99259356D01*
X130445000Y-99418745D01*
X130445000Y-99581255D01*
X130476704Y-99740644D01*
X130538894Y-99890784D01*
X130629181Y-100025907D01*
X130649824Y-100046550D01*
X130648026Y-100048026D01*
X130635000Y-100063898D01*
X130621974Y-100048026D01*
X130557260Y-99994916D01*
X130483427Y-99955452D01*
X130403314Y-99931150D01*
X130320000Y-99922944D01*
X129680000Y-99922944D01*
X129596686Y-99931150D01*
X129531111Y-99951042D01*
X129494080Y-99905920D01*
X129398911Y-99827817D01*
X129290334Y-99769781D01*
X129172521Y-99734043D01*
X129050000Y-99721976D01*
X128911250Y-99725000D01*
X128755000Y-99881250D01*
X128755000Y-101325000D01*
X128775000Y-101325000D01*
X128775000Y-101375000D01*
X128755000Y-101375000D01*
X128755000Y-102818750D01*
X128911250Y-102975000D01*
X129050000Y-102978024D01*
X129172521Y-102965957D01*
X129290334Y-102930219D01*
X129398911Y-102872183D01*
X129450001Y-102830255D01*
X129450001Y-104045986D01*
X129447340Y-104073004D01*
X129450001Y-104100022D01*
X129455713Y-104158013D01*
X129457959Y-104180822D01*
X129489409Y-104284498D01*
X129540479Y-104380046D01*
X129591987Y-104442808D01*
X129591993Y-104442814D01*
X129609211Y-104463794D01*
X129630191Y-104481012D01*
X129993989Y-104844811D01*
X130011208Y-104865792D01*
X130032188Y-104883010D01*
X130032193Y-104883015D01*
X130094955Y-104934523D01*
X130118935Y-104947340D01*
X130190504Y-104985594D01*
X130294179Y-105017044D01*
X130374980Y-105025002D01*
X130374989Y-105025002D01*
X130401997Y-105027662D01*
X130429005Y-105025002D01*
X131070994Y-105025002D01*
X131098002Y-105027662D01*
X131125010Y-105025002D01*
X131125020Y-105025002D01*
X131205821Y-105017044D01*
X131309496Y-104985594D01*
X131405044Y-104934523D01*
X131488792Y-104865792D01*
X131506015Y-104844806D01*
X135369804Y-100981017D01*
X135390790Y-100963794D01*
X135459521Y-100880046D01*
X135510592Y-100784498D01*
X135542042Y-100680823D01*
X135550000Y-100600022D01*
X135550000Y-100600013D01*
X135552660Y-100573005D01*
X135550000Y-100545997D01*
X135550000Y-96082400D01*
X136455344Y-96082400D01*
X136455344Y-98317600D01*
X136463550Y-98400914D01*
X136487852Y-98481027D01*
X136527316Y-98554860D01*
X136580426Y-98619574D01*
X136645140Y-98672684D01*
X136718973Y-98712148D01*
X136799086Y-98736450D01*
X136882400Y-98744656D01*
X139117600Y-98744656D01*
X139200914Y-98736450D01*
X139281027Y-98712148D01*
X139354860Y-98672684D01*
X139419574Y-98619574D01*
X139472684Y-98554860D01*
X139512148Y-98481027D01*
X139536450Y-98400914D01*
X139544656Y-98317600D01*
X139544656Y-96082400D01*
X139536450Y-95999086D01*
X139512148Y-95918973D01*
X139472684Y-95845140D01*
X139419574Y-95780426D01*
X139354860Y-95727316D01*
X139281027Y-95687852D01*
X139200914Y-95663550D01*
X139117600Y-95655344D01*
X136882400Y-95655344D01*
X136799086Y-95663550D01*
X136718973Y-95687852D01*
X136645140Y-95727316D01*
X136580426Y-95780426D01*
X136527316Y-95845140D01*
X136487852Y-95918973D01*
X136463550Y-95999086D01*
X136455344Y-96082400D01*
X135550000Y-96082400D01*
X135550000Y-96016726D01*
X135640819Y-95925907D01*
X135731106Y-95790784D01*
X135793296Y-95640644D01*
X135825000Y-95481255D01*
X135825000Y-95318745D01*
X135793296Y-95159356D01*
X135731106Y-95009216D01*
X135640819Y-94874093D01*
X135525907Y-94759181D01*
X135390784Y-94668894D01*
X135240644Y-94606704D01*
X135081255Y-94575000D01*
X134918745Y-94575000D01*
X134759356Y-94606704D01*
X134609216Y-94668894D01*
X134474093Y-94759181D01*
X134359181Y-94874093D01*
X134268894Y-95009216D01*
X134206704Y-95159356D01*
X134175000Y-95318745D01*
X134175000Y-95481255D01*
X134206704Y-95640644D01*
X134268894Y-95790784D01*
X134359181Y-95925907D01*
X134450001Y-96016727D01*
X134450000Y-100345187D01*
X131820000Y-102975187D01*
X131820000Y-102708964D01*
X131827260Y-102705084D01*
X131891974Y-102651974D01*
X131945084Y-102587260D01*
X131984548Y-102513427D01*
X132008850Y-102433314D01*
X132017056Y-102350000D01*
X132017056Y-100350000D01*
X132008850Y-100266686D01*
X131984548Y-100186573D01*
X131945084Y-100112740D01*
X131891974Y-100048026D01*
X131890176Y-100046550D01*
X131910819Y-100025907D01*
X132001106Y-99890784D01*
X132063296Y-99740644D01*
X132095000Y-99581255D01*
X132095000Y-99418745D01*
X132063296Y-99259356D01*
X132001106Y-99109216D01*
X131910819Y-98974093D01*
X131820000Y-98883274D01*
X131820000Y-96207817D01*
X132466310Y-95561507D01*
X132520186Y-95577850D01*
X132603500Y-95586056D01*
X133746500Y-95586056D01*
X133829814Y-95577850D01*
X133909927Y-95553548D01*
X133983760Y-95514084D01*
X134048474Y-95460974D01*
X134101584Y-95396260D01*
X134141048Y-95322427D01*
X134165350Y-95242314D01*
X134173556Y-95159000D01*
X134173556Y-94651000D01*
X134165350Y-94567686D01*
X134141048Y-94487573D01*
X134101584Y-94413740D01*
X134048474Y-94349026D01*
X133983760Y-94295916D01*
X133935274Y-94270000D01*
X133983760Y-94244084D01*
X134048474Y-94190974D01*
X134053377Y-94185000D01*
X134337992Y-94185000D01*
X134365000Y-94187660D01*
X134392008Y-94185000D01*
X134392018Y-94185000D01*
X134472819Y-94177042D01*
X134576494Y-94145592D01*
X134672042Y-94094521D01*
X134755790Y-94025790D01*
X134773012Y-94004805D01*
X134908565Y-93869252D01*
X134944916Y-93937260D01*
X134998026Y-94001974D01*
X135062740Y-94055084D01*
X135136573Y-94094548D01*
X135216686Y-94118850D01*
X135300000Y-94127056D01*
X136200000Y-94127056D01*
X136283314Y-94118850D01*
X136363427Y-94094548D01*
X136437260Y-94055084D01*
X136501974Y-94001974D01*
X136555084Y-93937260D01*
X136594548Y-93863427D01*
X136618850Y-93783314D01*
X136627056Y-93700000D01*
X136627056Y-93000761D01*
X137119804Y-92508013D01*
X137140790Y-92490790D01*
X137209521Y-92407042D01*
X137260592Y-92311494D01*
X137292042Y-92207819D01*
X137300000Y-92127018D01*
X137300000Y-92127011D01*
X137302660Y-92100000D01*
X137300000Y-92072989D01*
X137300000Y-89977007D01*
X137302660Y-89949999D01*
X137300000Y-89922991D01*
X137300000Y-89922982D01*
X137292042Y-89842181D01*
X137260592Y-89738506D01*
X137209521Y-89642958D01*
X137175160Y-89601089D01*
X137158013Y-89580195D01*
X137158008Y-89580190D01*
X137140790Y-89559210D01*
X137119810Y-89541992D01*
X136550000Y-88972183D01*
X136550000Y-88227007D01*
X136552660Y-88199999D01*
X136550000Y-88172991D01*
X136550000Y-88172982D01*
X136542042Y-88092181D01*
X136510592Y-87988506D01*
X136459521Y-87892958D01*
X136390790Y-87809210D01*
X136369804Y-87791987D01*
X135708012Y-87130195D01*
X135690790Y-87109210D01*
X135607042Y-87040479D01*
X135511494Y-86989408D01*
X135427056Y-86963794D01*
X135427056Y-86250000D01*
X135418850Y-86166686D01*
X135394548Y-86086573D01*
X135355084Y-86012740D01*
X135301974Y-85948026D01*
X135237260Y-85894916D01*
X135163427Y-85855452D01*
X135083314Y-85831150D01*
X135000000Y-85822944D01*
X134550000Y-85822944D01*
X134550000Y-85677056D01*
X135000000Y-85677056D01*
X135083314Y-85668850D01*
X135163427Y-85644548D01*
X135237260Y-85605084D01*
X135301974Y-85551974D01*
X135355084Y-85487260D01*
X135394548Y-85413427D01*
X135418850Y-85333314D01*
X135427056Y-85250000D01*
X135427056Y-82750000D01*
X135418850Y-82666686D01*
X135394548Y-82586573D01*
X135355084Y-82512740D01*
X135301974Y-82448026D01*
X135237260Y-82394916D01*
X135163427Y-82355452D01*
X135083314Y-82331150D01*
X135000000Y-82322944D01*
X133000000Y-82322944D01*
X132916686Y-82331150D01*
X132836573Y-82355452D01*
X132762740Y-82394916D01*
X132698026Y-82448026D01*
X132644916Y-82512740D01*
X132605452Y-82586573D01*
X132581150Y-82666686D01*
X132572944Y-82750000D01*
X132572944Y-85250000D01*
X132581150Y-85333314D01*
X132605452Y-85413427D01*
X132644916Y-85487260D01*
X132698026Y-85551974D01*
X132762740Y-85605084D01*
X132836573Y-85644548D01*
X132916686Y-85668850D01*
X133000000Y-85677056D01*
X133450000Y-85677056D01*
X133450001Y-85822944D01*
X133000000Y-85822944D01*
X132916686Y-85831150D01*
X132836573Y-85855452D01*
X132762740Y-85894916D01*
X132698026Y-85948026D01*
X132644916Y-86012740D01*
X132605452Y-86086573D01*
X132581150Y-86166686D01*
X132579839Y-86180000D01*
X132052056Y-86180000D01*
X132052056Y-86130000D01*
X132043850Y-86046686D01*
X132019548Y-85966573D01*
X131980084Y-85892740D01*
X131965925Y-85875487D01*
X132033314Y-85868850D01*
X132113427Y-85844548D01*
X132187260Y-85805084D01*
X132251974Y-85751974D01*
X132305084Y-85687260D01*
X132344548Y-85613427D01*
X132368850Y-85533314D01*
X132377056Y-85450000D01*
X132377056Y-84250000D01*
X132368850Y-84166686D01*
X132344548Y-84086573D01*
X132305084Y-84012740D01*
X132251974Y-83948026D01*
X132187260Y-83894916D01*
X132113427Y-83855452D01*
X132033314Y-83831150D01*
X131950000Y-83822944D01*
X131050000Y-83822944D01*
X130966686Y-83831150D01*
X130886573Y-83855452D01*
X130812740Y-83894916D01*
X130748026Y-83948026D01*
X130694916Y-84012740D01*
X130655452Y-84086573D01*
X130631150Y-84166686D01*
X130622944Y-84250000D01*
X130622944Y-84433292D01*
X130581255Y-84425000D01*
X130550000Y-84425000D01*
X130550000Y-84418745D01*
X130518296Y-84259356D01*
X130456106Y-84109216D01*
X130365819Y-83974093D01*
X130250907Y-83859181D01*
X130115784Y-83768894D01*
X129965644Y-83706704D01*
X129806255Y-83675000D01*
X129643745Y-83675000D01*
X129484356Y-83706704D01*
X129334216Y-83768894D01*
X129199093Y-83859181D01*
X129171684Y-83886590D01*
X129113427Y-83855452D01*
X129033314Y-83831150D01*
X128950000Y-83822944D01*
X128050000Y-83822944D01*
X127966686Y-83831150D01*
X127886573Y-83855452D01*
X127812740Y-83894916D01*
X127748026Y-83948026D01*
X127694916Y-84012740D01*
X127655452Y-84086573D01*
X127631150Y-84166686D01*
X127622944Y-84250000D01*
X127622944Y-85450000D01*
X127631150Y-85533314D01*
X127655452Y-85613427D01*
X127694916Y-85687260D01*
X127748026Y-85751974D01*
X127812740Y-85805084D01*
X127886573Y-85844548D01*
X127966686Y-85868850D01*
X128034075Y-85875487D01*
X128019916Y-85892740D01*
X127980452Y-85966573D01*
X127956150Y-86046686D01*
X127947944Y-86130000D01*
X127947944Y-86180000D01*
X127420161Y-86180000D01*
X127418850Y-86166686D01*
X127394548Y-86086573D01*
X127355084Y-86012740D01*
X127301974Y-85948026D01*
X127237260Y-85894916D01*
X127163427Y-85855452D01*
X127083314Y-85831150D01*
X127000000Y-85822944D01*
X126550000Y-85822944D01*
X126550000Y-85677056D01*
X127000000Y-85677056D01*
X127083314Y-85668850D01*
X127163427Y-85644548D01*
X127237260Y-85605084D01*
X127301974Y-85551974D01*
X127355084Y-85487260D01*
X127394548Y-85413427D01*
X127418850Y-85333314D01*
X127427056Y-85250000D01*
X127427056Y-82750000D01*
X127418850Y-82666686D01*
X127394548Y-82586573D01*
X127355084Y-82512740D01*
X127301974Y-82448026D01*
X127237260Y-82394916D01*
X127163427Y-82355452D01*
X127083314Y-82331150D01*
X127000000Y-82322944D01*
X125000000Y-82322944D01*
X124916686Y-82331150D01*
X124836573Y-82355452D01*
X124762740Y-82394916D01*
X124698026Y-82448026D01*
X124644916Y-82512740D01*
X124605452Y-82586573D01*
X124581150Y-82666686D01*
X124572944Y-82750000D01*
X124572944Y-85250000D01*
X124581150Y-85333314D01*
X124605452Y-85413427D01*
X124644916Y-85487260D01*
X124698026Y-85551974D01*
X124762740Y-85605084D01*
X124836573Y-85644548D01*
X124916686Y-85668850D01*
X125000000Y-85677056D01*
X125450000Y-85677056D01*
X125450001Y-85822944D01*
X125000000Y-85822944D01*
X124916686Y-85831150D01*
X124836573Y-85855452D01*
X124762740Y-85894916D01*
X124698026Y-85948026D01*
X124644916Y-86012740D01*
X124605452Y-86086573D01*
X124581150Y-86166686D01*
X124572944Y-86250000D01*
X124572944Y-86950000D01*
X124527011Y-86950000D01*
X124500000Y-86947340D01*
X124472989Y-86950000D01*
X124472982Y-86950000D01*
X124392181Y-86957958D01*
X124288505Y-86989408D01*
X124199388Y-87037042D01*
X124192958Y-87040479D01*
X124109210Y-87109210D01*
X124091988Y-87130195D01*
X123630196Y-87591987D01*
X123609210Y-87609210D01*
X123540479Y-87692958D01*
X123489408Y-87788507D01*
X123457958Y-87892182D01*
X123450000Y-87972983D01*
X123450000Y-87972992D01*
X123447340Y-88000000D01*
X123450000Y-88027008D01*
X123450001Y-88972181D01*
X121630196Y-90791987D01*
X121609210Y-90809210D01*
X121540479Y-90892958D01*
X121489408Y-90988507D01*
X121457958Y-91092182D01*
X121450000Y-91172983D01*
X121450000Y-91172992D01*
X121447340Y-91200000D01*
X120450000Y-91200000D01*
X120450000Y-80516000D01*
X120508376Y-80516000D01*
X120520443Y-80638521D01*
X120556181Y-80756334D01*
X120614217Y-80864911D01*
X120692320Y-80960080D01*
X120787489Y-81038183D01*
X120896066Y-81096219D01*
X121013879Y-81131957D01*
X121136400Y-81144024D01*
X121818750Y-81141000D01*
X121975000Y-80984750D01*
X121975000Y-79525000D01*
X120667650Y-79525000D01*
X120511400Y-79681250D01*
X120508376Y-80516000D01*
X120450000Y-80516000D01*
X120450000Y-73484000D01*
X120468376Y-73484000D01*
X120471400Y-74318750D01*
X120627650Y-74475000D01*
X121935000Y-74475000D01*
X121935000Y-74455000D01*
X121985000Y-74455000D01*
X121985000Y-74475000D01*
X122005000Y-74475000D01*
X122005000Y-74525000D01*
X121985000Y-74525000D01*
X121985000Y-74545000D01*
X121935000Y-74545000D01*
X121935000Y-74525000D01*
X120627650Y-74525000D01*
X120471400Y-74681250D01*
X120468376Y-75516000D01*
X120480443Y-75638521D01*
X120516181Y-75756334D01*
X120574217Y-75864911D01*
X120652320Y-75960080D01*
X120747489Y-76038183D01*
X120856066Y-76096219D01*
X120860766Y-76097645D01*
X120851089Y-76102817D01*
X120755920Y-76180920D01*
X120677817Y-76276089D01*
X120619781Y-76384666D01*
X120584043Y-76502479D01*
X120571976Y-76625000D01*
X120575000Y-76818750D01*
X120731250Y-76975000D01*
X121775000Y-76975000D01*
X121775000Y-76955000D01*
X121825000Y-76955000D01*
X121825000Y-76975000D01*
X121845000Y-76975000D01*
X121845000Y-77025000D01*
X121825000Y-77025000D01*
X121825000Y-77045000D01*
X121775000Y-77045000D01*
X121775000Y-77025000D01*
X120731250Y-77025000D01*
X120575000Y-77181250D01*
X120571976Y-77375000D01*
X120584043Y-77497521D01*
X120619781Y-77615334D01*
X120677817Y-77723911D01*
X120755920Y-77819080D01*
X120851089Y-77897183D01*
X120879749Y-77912502D01*
X120787489Y-77961817D01*
X120692320Y-78039920D01*
X120614217Y-78135089D01*
X120556181Y-78243666D01*
X120520443Y-78361479D01*
X120508376Y-78484000D01*
X120511400Y-79318750D01*
X120667650Y-79475000D01*
X121975000Y-79475000D01*
X121975000Y-79455000D01*
X122025000Y-79455000D01*
X122025000Y-79475000D01*
X122045000Y-79475000D01*
X122045000Y-79525000D01*
X122025000Y-79525000D01*
X122025000Y-80984750D01*
X122181250Y-81141000D01*
X122863600Y-81144024D01*
X122986121Y-81131957D01*
X123103934Y-81096219D01*
X123212511Y-81038183D01*
X123307680Y-80960080D01*
X123385783Y-80864911D01*
X123443819Y-80756334D01*
X123479557Y-80638521D01*
X123491624Y-80516000D01*
X123491224Y-80405693D01*
X123624415Y-80567986D01*
X123820630Y-80729015D01*
X124044489Y-80848671D01*
X124287391Y-80922354D01*
X124540000Y-80947234D01*
X124792610Y-80922354D01*
X125035512Y-80848671D01*
X125259371Y-80729015D01*
X125455586Y-80567986D01*
X125616615Y-80371770D01*
X125736271Y-80147911D01*
X125809954Y-79905009D01*
X125810000Y-79904542D01*
X125810046Y-79905010D01*
X125883729Y-80147912D01*
X126003385Y-80371771D01*
X126164415Y-80567986D01*
X126360630Y-80729015D01*
X126584489Y-80848671D01*
X126827391Y-80922354D01*
X127080000Y-80947234D01*
X127296248Y-80925935D01*
X127272183Y-80950000D01*
X124277011Y-80950000D01*
X124250000Y-80947340D01*
X124222989Y-80950000D01*
X124222982Y-80950000D01*
X124142181Y-80957958D01*
X124038506Y-80989408D01*
X123942958Y-81040479D01*
X123859210Y-81109210D01*
X123841988Y-81130195D01*
X122649239Y-82322944D01*
X121000000Y-82322944D01*
X120916686Y-82331150D01*
X120836573Y-82355452D01*
X120762740Y-82394916D01*
X120698026Y-82448026D01*
X120644916Y-82512740D01*
X120605452Y-82586573D01*
X120581150Y-82666686D01*
X120572944Y-82750000D01*
X120572944Y-85250000D01*
X120581150Y-85333314D01*
X120605452Y-85413427D01*
X120644916Y-85487260D01*
X120698026Y-85551974D01*
X120762740Y-85605084D01*
X120836573Y-85644548D01*
X120916686Y-85668850D01*
X121000000Y-85677056D01*
X121450000Y-85677056D01*
X121450001Y-85822944D01*
X121000000Y-85822944D01*
X120916686Y-85831150D01*
X120836573Y-85855452D01*
X120762740Y-85894916D01*
X120698026Y-85948026D01*
X120644916Y-86012740D01*
X120605452Y-86086573D01*
X120581150Y-86166686D01*
X120572944Y-86250000D01*
X120572944Y-88750000D01*
X120581150Y-88833314D01*
X120605452Y-88913427D01*
X120644916Y-88987260D01*
X120698026Y-89051974D01*
X120762740Y-89105084D01*
X120836573Y-89144548D01*
X120916686Y-89168850D01*
X121000000Y-89177056D01*
X123000000Y-89177056D01*
X123083314Y-89168850D01*
X123163427Y-89144548D01*
X123237260Y-89105084D01*
X123301974Y-89051974D01*
X123355084Y-88987260D01*
X123394548Y-88913427D01*
X123418850Y-88833314D01*
X123427056Y-88750000D01*
X123427056Y-86250000D01*
X123418850Y-86166686D01*
X123394548Y-86086573D01*
X123355084Y-86012740D01*
X123301974Y-85948026D01*
X123237260Y-85894916D01*
X123163427Y-85855452D01*
X123083314Y-85831150D01*
X123000000Y-85822944D01*
X122550000Y-85822944D01*
X122550000Y-85677056D01*
X123000000Y-85677056D01*
X123083314Y-85668850D01*
X123163427Y-85644548D01*
X123237260Y-85605084D01*
X123301974Y-85551974D01*
X123355084Y-85487260D01*
X123394548Y-85413427D01*
X123418850Y-85333314D01*
X123427056Y-85250000D01*
X123427056Y-83100761D01*
X124477817Y-82050000D01*
X127472992Y-82050000D01*
X127500000Y-82052660D01*
X127527008Y-82050000D01*
X127527018Y-82050000D01*
X127607819Y-82042042D01*
X127624218Y-82037067D01*
X127622944Y-82050000D01*
X127622944Y-83250000D01*
X127631150Y-83333314D01*
X127655452Y-83413427D01*
X127694916Y-83487260D01*
X127748026Y-83551974D01*
X127812740Y-83605084D01*
X127886573Y-83644548D01*
X127966686Y-83668850D01*
X128050000Y-83677056D01*
X128950000Y-83677056D01*
X129033314Y-83668850D01*
X129113427Y-83644548D01*
X129187260Y-83605084D01*
X129251974Y-83551974D01*
X129305084Y-83487260D01*
X129344548Y-83413427D01*
X129368850Y-83333314D01*
X129377056Y-83250000D01*
X129377056Y-82400761D01*
X130000000Y-81777818D01*
X130622944Y-82400762D01*
X130622944Y-83250000D01*
X130631150Y-83333314D01*
X130655452Y-83413427D01*
X130694916Y-83487260D01*
X130748026Y-83551974D01*
X130812740Y-83605084D01*
X130886573Y-83644548D01*
X130966686Y-83668850D01*
X131050000Y-83677056D01*
X131950000Y-83677056D01*
X132033314Y-83668850D01*
X132113427Y-83644548D01*
X132187260Y-83605084D01*
X132251974Y-83551974D01*
X132305084Y-83487260D01*
X132344548Y-83413427D01*
X132368850Y-83333314D01*
X132377056Y-83250000D01*
X132377056Y-82050000D01*
X135522183Y-82050000D01*
X136572944Y-83100761D01*
X136572944Y-85250000D01*
X136581150Y-85333314D01*
X136605452Y-85413427D01*
X136644916Y-85487260D01*
X136698026Y-85551974D01*
X136762740Y-85605084D01*
X136836573Y-85644548D01*
X136916686Y-85668850D01*
X137000000Y-85677056D01*
X137450000Y-85677056D01*
X137450001Y-85822944D01*
X137000000Y-85822944D01*
X136916686Y-85831150D01*
X136836573Y-85855452D01*
X136762740Y-85894916D01*
X136698026Y-85948026D01*
X136644916Y-86012740D01*
X136605452Y-86086573D01*
X136581150Y-86166686D01*
X136572944Y-86250000D01*
X136572944Y-88750000D01*
X136581150Y-88833314D01*
X136605452Y-88913427D01*
X136644916Y-88987260D01*
X136698026Y-89051974D01*
X136762740Y-89105084D01*
X136836573Y-89144548D01*
X136916686Y-89168850D01*
X137000000Y-89177056D01*
X139000000Y-89177056D01*
X139083314Y-89168850D01*
X139163427Y-89144548D01*
X139237260Y-89105084D01*
X139301974Y-89051974D01*
X139355084Y-88987260D01*
X139394548Y-88913427D01*
X139418850Y-88833314D01*
X139427056Y-88750000D01*
X139427056Y-86250000D01*
X139418850Y-86166686D01*
X139394548Y-86086573D01*
X139355084Y-86012740D01*
X139301974Y-85948026D01*
X139237260Y-85894916D01*
X139163427Y-85855452D01*
X139083314Y-85831150D01*
X139000000Y-85822944D01*
X138550000Y-85822944D01*
X138550000Y-85677056D01*
X139000000Y-85677056D01*
X139083314Y-85668850D01*
X139163427Y-85644548D01*
X139237260Y-85605084D01*
X139301974Y-85551974D01*
X139355084Y-85487260D01*
X139394548Y-85413427D01*
X139418850Y-85333314D01*
X139427056Y-85250000D01*
X139427056Y-82750000D01*
X139418850Y-82666686D01*
X139394548Y-82586573D01*
X139355084Y-82512740D01*
X139301974Y-82448026D01*
X139237260Y-82394916D01*
X139163427Y-82355452D01*
X139083314Y-82331150D01*
X139000000Y-82322944D01*
X137350761Y-82322944D01*
X136158012Y-81130195D01*
X136140790Y-81109210D01*
X136057042Y-81040479D01*
X135961494Y-80989408D01*
X135857819Y-80957958D01*
X135777018Y-80950000D01*
X135777008Y-80950000D01*
X135750000Y-80947340D01*
X135722992Y-80950000D01*
X134275952Y-80950000D01*
X134345783Y-80864911D01*
X134403819Y-80756334D01*
X134439557Y-80638521D01*
X134451624Y-80516000D01*
X134451224Y-80405693D01*
X134584415Y-80567986D01*
X134780630Y-80729015D01*
X135004489Y-80848671D01*
X135247391Y-80922354D01*
X135500000Y-80947234D01*
X135752610Y-80922354D01*
X135995512Y-80848671D01*
X136219371Y-80729015D01*
X136415586Y-80567986D01*
X136576615Y-80371770D01*
X136696271Y-80147911D01*
X136769954Y-79905009D01*
X136770000Y-79904542D01*
X136770046Y-79905010D01*
X136843729Y-80147912D01*
X136963385Y-80371771D01*
X137124415Y-80567986D01*
X137320630Y-80729015D01*
X137544489Y-80848671D01*
X137787391Y-80922354D01*
X138040000Y-80947234D01*
X138292610Y-80922354D01*
X138535512Y-80848671D01*
X138759371Y-80729015D01*
X138955586Y-80567986D01*
X139116615Y-80371770D01*
X139236271Y-80147911D01*
X139309954Y-79905009D01*
X139328600Y-79715694D01*
X139328600Y-79284305D01*
X139309954Y-79094990D01*
X139236271Y-78852088D01*
X139116615Y-78628229D01*
X138955586Y-78432014D01*
X138759370Y-78270985D01*
X138535511Y-78151329D01*
X138292609Y-78077646D01*
X138040000Y-78052766D01*
X137967956Y-78059862D01*
X138150762Y-77877056D01*
X138950000Y-77877056D01*
X139033314Y-77868850D01*
X139113427Y-77844548D01*
X139187260Y-77805084D01*
X139251974Y-77751974D01*
X139305084Y-77687260D01*
X139344548Y-77613427D01*
X139368850Y-77533314D01*
X139377056Y-77450000D01*
X139377056Y-76550000D01*
X139368850Y-76466686D01*
X139344548Y-76386573D01*
X139305084Y-76312740D01*
X139251974Y-76248026D01*
X139187260Y-76194916D01*
X139113427Y-76155452D01*
X139033314Y-76131150D01*
X138950000Y-76122944D01*
X137750000Y-76122944D01*
X137666686Y-76131150D01*
X137586573Y-76155452D01*
X137512740Y-76194916D01*
X137448026Y-76248026D01*
X137394916Y-76312740D01*
X137355452Y-76386573D01*
X137331150Y-76466686D01*
X137322944Y-76550000D01*
X137322944Y-77149238D01*
X137177056Y-77295126D01*
X137177056Y-76550000D01*
X137168850Y-76466686D01*
X137144548Y-76386573D01*
X137105084Y-76312740D01*
X137051974Y-76248026D01*
X136987260Y-76194916D01*
X136913427Y-76155452D01*
X136833314Y-76131150D01*
X136750000Y-76122944D01*
X135550000Y-76122944D01*
X135466686Y-76131150D01*
X135386573Y-76155452D01*
X135312740Y-76194916D01*
X135248026Y-76248026D01*
X135246092Y-76250382D01*
X135140644Y-76206704D01*
X134981255Y-76175000D01*
X134818745Y-76175000D01*
X134659356Y-76206704D01*
X134523939Y-76262796D01*
X134463427Y-76230452D01*
X134383314Y-76206150D01*
X134300000Y-76197944D01*
X133100000Y-76197944D01*
X133016686Y-76206150D01*
X132936573Y-76230452D01*
X132900537Y-76249713D01*
X132844080Y-76180920D01*
X132748911Y-76102817D01*
X132640334Y-76044781D01*
X132522521Y-76009043D01*
X132400000Y-75996976D01*
X131981250Y-76000000D01*
X131825000Y-76156250D01*
X131825000Y-76975000D01*
X131845000Y-76975000D01*
X131845000Y-77025000D01*
X131825000Y-77025000D01*
X131825000Y-77045000D01*
X131775000Y-77045000D01*
X131775000Y-77025000D01*
X131755000Y-77025000D01*
X131755000Y-76975000D01*
X131775000Y-76975000D01*
X131775000Y-76156250D01*
X131618750Y-76000000D01*
X131300000Y-75997698D01*
X131300000Y-72773621D01*
X131366686Y-72793850D01*
X131450000Y-72802056D01*
X131500001Y-72802056D01*
X131500001Y-73562982D01*
X131497340Y-73590000D01*
X131500001Y-73617018D01*
X131507959Y-73697819D01*
X131508934Y-73701032D01*
X131539409Y-73801494D01*
X131590479Y-73897042D01*
X131641987Y-73959804D01*
X131641993Y-73959810D01*
X131659211Y-73980790D01*
X131669344Y-73989106D01*
X131669344Y-75516000D01*
X131677550Y-75599314D01*
X131701852Y-75679427D01*
X131741316Y-75753260D01*
X131794426Y-75817974D01*
X131859140Y-75871084D01*
X131932973Y-75910548D01*
X132013086Y-75934850D01*
X132096400Y-75943056D01*
X133823600Y-75943056D01*
X133906914Y-75934850D01*
X133987027Y-75910548D01*
X134060860Y-75871084D01*
X134125574Y-75817974D01*
X134178684Y-75753260D01*
X134218148Y-75679427D01*
X134242450Y-75599314D01*
X134250656Y-75516000D01*
X134250656Y-74972953D01*
X134303729Y-75147912D01*
X134423385Y-75371771D01*
X134584415Y-75567986D01*
X134780630Y-75729015D01*
X135004489Y-75848671D01*
X135247391Y-75922354D01*
X135500000Y-75947234D01*
X135752610Y-75922354D01*
X135995512Y-75848671D01*
X136219371Y-75729015D01*
X136415586Y-75567986D01*
X136576615Y-75371770D01*
X136696271Y-75147911D01*
X136769954Y-74905009D01*
X136770000Y-74904542D01*
X136770046Y-74905010D01*
X136843729Y-75147912D01*
X136963385Y-75371771D01*
X137124415Y-75567986D01*
X137320630Y-75729015D01*
X137544489Y-75848671D01*
X137787391Y-75922354D01*
X138040000Y-75947234D01*
X138292610Y-75922354D01*
X138535512Y-75848671D01*
X138759371Y-75729015D01*
X138955586Y-75567986D01*
X139116615Y-75371770D01*
X139236271Y-75147911D01*
X139309954Y-74905009D01*
X139328600Y-74715694D01*
X139328600Y-74284305D01*
X139309954Y-74094990D01*
X139236271Y-73852088D01*
X139116615Y-73628229D01*
X138955586Y-73432014D01*
X138759370Y-73270985D01*
X138535511Y-73151329D01*
X138292609Y-73077646D01*
X138040000Y-73052766D01*
X137787390Y-73077646D01*
X137544488Y-73151329D01*
X137320629Y-73270985D01*
X137124414Y-73432014D01*
X136963385Y-73628230D01*
X136843729Y-73852089D01*
X136770046Y-74094991D01*
X136770000Y-74095458D01*
X136769954Y-74094990D01*
X136696271Y-73852088D01*
X136576615Y-73628229D01*
X136415586Y-73432014D01*
X136219370Y-73270985D01*
X135995511Y-73151329D01*
X135752609Y-73077646D01*
X135500000Y-73052766D01*
X135247390Y-73077646D01*
X135004488Y-73151329D01*
X134780629Y-73270985D01*
X134584414Y-73432014D01*
X134423385Y-73628230D01*
X134303729Y-73852089D01*
X134250656Y-74027048D01*
X134250656Y-73484000D01*
X134242450Y-73400686D01*
X134218148Y-73320573D01*
X134178684Y-73246740D01*
X134125574Y-73182026D01*
X134060860Y-73128916D01*
X133987027Y-73089452D01*
X133906914Y-73065150D01*
X133823600Y-73056944D01*
X132600000Y-73056944D01*
X132600000Y-72802056D01*
X132650000Y-72802056D01*
X132733314Y-72793850D01*
X132813427Y-72769548D01*
X132849463Y-72750287D01*
X132905920Y-72819080D01*
X133001089Y-72897183D01*
X133109666Y-72955219D01*
X133227479Y-72990957D01*
X133350000Y-73003024D01*
X133768750Y-73000000D01*
X133925000Y-72843750D01*
X133925000Y-72025000D01*
X133975000Y-72025000D01*
X133975000Y-72843750D01*
X134131250Y-73000000D01*
X134550000Y-73003024D01*
X134672521Y-72990957D01*
X134790334Y-72955219D01*
X134898911Y-72897183D01*
X134994080Y-72819080D01*
X135072183Y-72723911D01*
X135130219Y-72615334D01*
X135165957Y-72497521D01*
X135178024Y-72375000D01*
X135175000Y-72181250D01*
X135018750Y-72025000D01*
X133975000Y-72025000D01*
X133925000Y-72025000D01*
X133905000Y-72025000D01*
X133905000Y-71975000D01*
X133925000Y-71975000D01*
X133925000Y-71955000D01*
X133975000Y-71955000D01*
X133975000Y-71975000D01*
X135018750Y-71975000D01*
X135175000Y-71818750D01*
X135178024Y-71625000D01*
X135165957Y-71502479D01*
X135130219Y-71384666D01*
X135072183Y-71276089D01*
X134994080Y-71180920D01*
X134898911Y-71102817D01*
X134790334Y-71044781D01*
X134672521Y-71009043D01*
X134550000Y-70996976D01*
X134501877Y-70997324D01*
X134548911Y-70972183D01*
X134644080Y-70894080D01*
X134722183Y-70798911D01*
X134780219Y-70690334D01*
X134815957Y-70572521D01*
X134828024Y-70450000D01*
X134825000Y-70181250D01*
X134668750Y-70025000D01*
X133625000Y-70025000D01*
X133625000Y-70045000D01*
X133575000Y-70045000D01*
X133575000Y-70025000D01*
X133555000Y-70025000D01*
X133555000Y-69975000D01*
X133575000Y-69975000D01*
X133575000Y-69081250D01*
X133625000Y-69081250D01*
X133625000Y-69975000D01*
X134668750Y-69975000D01*
X134825000Y-69818750D01*
X134828024Y-69550000D01*
X134815957Y-69427479D01*
X134780219Y-69309666D01*
X134722183Y-69201089D01*
X134644080Y-69105920D01*
X134548911Y-69027817D01*
X134440334Y-68969781D01*
X134322521Y-68934043D01*
X134200000Y-68921976D01*
X133781250Y-68925000D01*
X133625000Y-69081250D01*
X133575000Y-69081250D01*
X133418750Y-68925000D01*
X133000000Y-68921976D01*
X132877479Y-68934043D01*
X132759666Y-68969781D01*
X132651089Y-69027817D01*
X132555920Y-69105920D01*
X132477817Y-69201089D01*
X132419781Y-69309666D01*
X132395500Y-69389711D01*
X132394548Y-69386573D01*
X132355084Y-69312740D01*
X132301974Y-69248026D01*
X132237260Y-69194916D01*
X132163427Y-69155452D01*
X132083314Y-69131150D01*
X132000000Y-69122944D01*
X131300762Y-69122944D01*
X130678616Y-68500799D01*
X130719371Y-68479015D01*
X130915586Y-68317986D01*
X131076615Y-68121770D01*
X131163010Y-67960137D01*
X131174280Y-67995160D01*
X131316164Y-68250209D01*
X131505079Y-68472677D01*
X131733765Y-68654015D01*
X131993435Y-68787254D01*
X132274109Y-68867274D01*
X132282472Y-68868555D01*
X132515000Y-68734515D01*
X132515000Y-67275000D01*
X132565000Y-67275000D01*
X132565000Y-68734515D01*
X132797528Y-68868555D01*
X132805891Y-68867274D01*
X133086565Y-68787254D01*
X133346235Y-68654015D01*
X133574921Y-68472677D01*
X133763836Y-68250209D01*
X133905720Y-67995160D01*
X133981017Y-67761158D01*
X134575000Y-67761158D01*
X134575000Y-68238842D01*
X134668191Y-68707347D01*
X134850992Y-69148668D01*
X135116379Y-69545848D01*
X135454152Y-69883621D01*
X135851332Y-70149008D01*
X136292653Y-70331809D01*
X136761158Y-70425000D01*
X137238842Y-70425000D01*
X137707347Y-70331809D01*
X138148668Y-70149008D01*
X138545848Y-69883621D01*
X138883621Y-69545848D01*
X139149008Y-69148668D01*
X139331809Y-68707347D01*
X139425000Y-68238842D01*
X139425000Y-67761158D01*
X139331809Y-67292653D01*
X139149008Y-66851332D01*
X138883621Y-66454152D01*
X138545848Y-66116379D01*
X138148668Y-65850992D01*
X137707347Y-65668191D01*
X137238842Y-65575000D01*
X136761158Y-65575000D01*
X136292653Y-65668191D01*
X135851332Y-65850992D01*
X135454152Y-66116379D01*
X135116379Y-66454152D01*
X134850992Y-66851332D01*
X134668191Y-67292653D01*
X134575000Y-67761158D01*
X133981017Y-67761158D01*
X133995120Y-67717331D01*
X134028600Y-67427400D01*
X134028600Y-67275000D01*
X132565000Y-67275000D01*
X132515000Y-67275000D01*
X132495000Y-67275000D01*
X132495000Y-67225000D01*
X132515000Y-67225000D01*
X132515000Y-65765485D01*
X132565000Y-65765485D01*
X132565000Y-67225000D01*
X134028600Y-67225000D01*
X134028600Y-67072600D01*
X133995120Y-66782669D01*
X133905720Y-66504840D01*
X133763836Y-66249791D01*
X133574921Y-66027323D01*
X133346235Y-65845985D01*
X133086565Y-65712746D01*
X132805891Y-65632726D01*
X132797528Y-65631445D01*
X132565000Y-65765485D01*
X132515000Y-65765485D01*
X132282472Y-65631445D01*
X132274109Y-65632726D01*
X131993435Y-65712746D01*
X131733765Y-65845985D01*
X131505079Y-66027323D01*
X131316164Y-66249791D01*
X131174280Y-66504840D01*
X131163010Y-66539862D01*
X131076615Y-66378229D01*
X130915586Y-66182014D01*
X130719370Y-66020985D01*
X130495511Y-65901329D01*
X130252609Y-65827646D01*
X130000000Y-65802766D01*
X129747390Y-65827646D01*
X129504488Y-65901329D01*
X129280629Y-66020985D01*
X129084414Y-66182014D01*
X128923385Y-66378230D01*
X128803729Y-66602089D01*
X128750656Y-66777048D01*
X128750656Y-66234000D01*
X128742450Y-66150686D01*
X128718148Y-66070573D01*
X128678684Y-65996740D01*
X128625574Y-65932026D01*
X128560860Y-65878916D01*
X128487027Y-65839452D01*
X128406914Y-65815150D01*
X128323600Y-65806944D01*
X126596400Y-65806944D01*
X126513086Y-65815150D01*
X126432973Y-65839452D01*
X126359140Y-65878916D01*
X126294426Y-65932026D01*
X126241316Y-65996740D01*
X126201852Y-66070573D01*
X126177550Y-66150686D01*
X126169344Y-66234000D01*
X126169344Y-68266000D01*
X126177550Y-68349314D01*
X126201852Y-68429427D01*
X126241316Y-68503260D01*
X126294426Y-68567974D01*
X126359140Y-68621084D01*
X126432973Y-68660548D01*
X126513086Y-68684850D01*
X126596400Y-68693056D01*
X126910001Y-68693056D01*
X126910001Y-68832982D01*
X126907340Y-68860000D01*
X126910001Y-68887018D01*
X126913505Y-68922601D01*
X126581250Y-68925000D01*
X126425000Y-69081250D01*
X126425000Y-69975000D01*
X126445000Y-69975000D01*
X126445000Y-70025000D01*
X126425000Y-70025000D01*
X126425000Y-70918750D01*
X126581250Y-71075000D01*
X127000000Y-71078024D01*
X127122521Y-71065957D01*
X127240334Y-71030219D01*
X127348911Y-70972183D01*
X127444080Y-70894080D01*
X127522183Y-70798911D01*
X127580219Y-70690334D01*
X127604500Y-70610289D01*
X127605452Y-70613427D01*
X127644916Y-70687260D01*
X127698026Y-70751974D01*
X127762740Y-70805084D01*
X127836573Y-70844548D01*
X127916686Y-70868850D01*
X128000000Y-70877056D01*
X128131133Y-70877056D01*
X128140479Y-70894542D01*
X128209210Y-70978290D01*
X128230196Y-70995513D01*
X128357627Y-71122944D01*
X127750000Y-71122944D01*
X127666686Y-71131150D01*
X127586573Y-71155452D01*
X127512740Y-71194916D01*
X127448026Y-71248026D01*
X127394916Y-71312740D01*
X127355452Y-71386573D01*
X127331150Y-71466686D01*
X127322944Y-71550000D01*
X127322944Y-72249239D01*
X127177056Y-72395127D01*
X127177056Y-71550000D01*
X127168850Y-71466686D01*
X127144548Y-71386573D01*
X127105084Y-71312740D01*
X127051974Y-71248026D01*
X126987260Y-71194916D01*
X126913427Y-71155452D01*
X126833314Y-71131150D01*
X126750000Y-71122944D01*
X125550000Y-71122944D01*
X125466686Y-71131150D01*
X125386573Y-71155452D01*
X125312740Y-71194916D01*
X125279012Y-71222596D01*
X125240644Y-71206704D01*
X125081255Y-71175000D01*
X124918745Y-71175000D01*
X124759356Y-71206704D01*
X124609216Y-71268894D01*
X124596427Y-71277439D01*
X124587260Y-71269916D01*
X124513427Y-71230452D01*
X124433314Y-71206150D01*
X124350000Y-71197944D01*
X123150000Y-71197944D01*
X123066686Y-71206150D01*
X122986573Y-71230452D01*
X122950537Y-71249713D01*
X122894080Y-71180920D01*
X122798911Y-71102817D01*
X122690334Y-71044781D01*
X122572521Y-71009043D01*
X122450000Y-70996976D01*
X122031250Y-71000000D01*
X121875000Y-71156250D01*
X121875000Y-71975000D01*
X121895000Y-71975000D01*
X121895000Y-72025000D01*
X121875000Y-72025000D01*
X121875000Y-72045000D01*
X121825000Y-72045000D01*
X121825000Y-72025000D01*
X120781250Y-72025000D01*
X120625000Y-72181250D01*
X120621976Y-72375000D01*
X120634043Y-72497521D01*
X120669781Y-72615334D01*
X120727817Y-72723911D01*
X120805920Y-72819080D01*
X120894808Y-72892029D01*
X120856066Y-72903781D01*
X120747489Y-72961817D01*
X120652320Y-73039920D01*
X120574217Y-73135089D01*
X120516181Y-73243666D01*
X120480443Y-73361479D01*
X120468376Y-73484000D01*
X120450000Y-73484000D01*
X120450000Y-71625000D01*
X120621976Y-71625000D01*
X120625000Y-71818750D01*
X120781250Y-71975000D01*
X121825000Y-71975000D01*
X121825000Y-71156250D01*
X121668750Y-71000000D01*
X121250000Y-70996976D01*
X121127479Y-71009043D01*
X121009666Y-71044781D01*
X120901089Y-71102817D01*
X120805920Y-71180920D01*
X120727817Y-71276089D01*
X120669781Y-71384666D01*
X120634043Y-71502479D01*
X120621976Y-71625000D01*
X120450000Y-71625000D01*
X120450000Y-70450000D01*
X125171976Y-70450000D01*
X125184043Y-70572521D01*
X125219781Y-70690334D01*
X125277817Y-70798911D01*
X125355920Y-70894080D01*
X125451089Y-70972183D01*
X125559666Y-71030219D01*
X125677479Y-71065957D01*
X125800000Y-71078024D01*
X126218750Y-71075000D01*
X126375000Y-70918750D01*
X126375000Y-70025000D01*
X125331250Y-70025000D01*
X125175000Y-70181250D01*
X125171976Y-70450000D01*
X120450000Y-70450000D01*
X120450000Y-68022006D01*
X120475576Y-67761158D01*
X120575000Y-67761158D01*
X120575000Y-68238842D01*
X120668191Y-68707347D01*
X120850992Y-69148668D01*
X121116379Y-69545848D01*
X121454152Y-69883621D01*
X121851332Y-70149008D01*
X122292653Y-70331809D01*
X122761158Y-70425000D01*
X123238842Y-70425000D01*
X123707347Y-70331809D01*
X124148668Y-70149008D01*
X124545848Y-69883621D01*
X124879469Y-69550000D01*
X125171976Y-69550000D01*
X125175000Y-69818750D01*
X125331250Y-69975000D01*
X126375000Y-69975000D01*
X126375000Y-69081250D01*
X126218750Y-68925000D01*
X125800000Y-68921976D01*
X125677479Y-68934043D01*
X125559666Y-68969781D01*
X125451089Y-69027817D01*
X125355920Y-69105920D01*
X125277817Y-69201089D01*
X125219781Y-69309666D01*
X125184043Y-69427479D01*
X125171976Y-69550000D01*
X124879469Y-69550000D01*
X124883621Y-69545848D01*
X125149008Y-69148668D01*
X125331809Y-68707347D01*
X125425000Y-68238842D01*
X125425000Y-67761158D01*
X125331809Y-67292653D01*
X125149008Y-66851332D01*
X124883621Y-66454152D01*
X124545848Y-66116379D01*
X124148668Y-65850992D01*
X123707347Y-65668191D01*
X123238842Y-65575000D01*
X122761158Y-65575000D01*
X122292653Y-65668191D01*
X121851332Y-65850992D01*
X121454152Y-66116379D01*
X121116379Y-66454152D01*
X120850992Y-66851332D01*
X120668191Y-67292653D01*
X120575000Y-67761158D01*
X120475576Y-67761158D01*
X120500681Y-67505124D01*
X120644403Y-67029094D01*
X120877850Y-66590043D01*
X121192125Y-66204704D01*
X121575266Y-65887742D01*
X122012670Y-65651239D01*
X122487684Y-65504197D01*
X123003335Y-65450000D01*
X136977994Y-65450000D01*
X137494876Y-65500681D01*
G37*
%TD.AperFunction*%
D27*
X131525000Y-112725000D02*
X131545000Y-112725000D01*
X131545000Y-112775000D01*
X131525000Y-112775000D01*
X131525000Y-112795000D01*
X131475000Y-112795000D01*
X131475000Y-112775000D01*
X131455000Y-112775000D01*
X131455000Y-112725000D01*
X131475000Y-112725000D01*
X131475000Y-112705000D01*
X131525000Y-112705000D01*
X131525000Y-112725000D01*
%TA.AperFunction,Conductor*%
D28*
G36*
X131525000Y-112725000D02*
G01*
X131545000Y-112725000D01*
X131545000Y-112775000D01*
X131525000Y-112775000D01*
X131525000Y-112795000D01*
X131475000Y-112795000D01*
X131475000Y-112775000D01*
X131455000Y-112775000D01*
X131455000Y-112725000D01*
X131475000Y-112725000D01*
X131475000Y-112705000D01*
X131525000Y-112705000D01*
X131525000Y-112725000D01*
G37*
%TD.AperFunction*%
D27*
X134659356Y-77793296D02*
X134818745Y-77825000D01*
X134981255Y-77825000D01*
X135140644Y-77793296D01*
X135246092Y-77749618D01*
X135248026Y-77751974D01*
X135312740Y-77805084D01*
X135386573Y-77844548D01*
X135466686Y-77868850D01*
X135550000Y-77877056D01*
X136595127Y-77877056D01*
X136207528Y-78264655D01*
X135995511Y-78151329D01*
X135752609Y-78077646D01*
X135500000Y-78052766D01*
X135247390Y-78077646D01*
X135004488Y-78151329D01*
X134780629Y-78270985D01*
X134584414Y-78432014D01*
X134451224Y-78594307D01*
X134451624Y-78484000D01*
X134439557Y-78361479D01*
X134403819Y-78243666D01*
X134345783Y-78135089D01*
X134267680Y-78039920D01*
X134172511Y-77961817D01*
X134063934Y-77903781D01*
X133946121Y-77868043D01*
X133823600Y-77855976D01*
X133141250Y-77859000D01*
X132985000Y-78015250D01*
X132985000Y-79475000D01*
X133005000Y-79475000D01*
X133005000Y-79525000D01*
X132985000Y-79525000D01*
X132985000Y-79545000D01*
X132935000Y-79545000D01*
X132935000Y-79525000D01*
X131627650Y-79525000D01*
X131471400Y-79681250D01*
X131468376Y-80516000D01*
X131480443Y-80638521D01*
X131508356Y-80730539D01*
X131300000Y-80522183D01*
X131300000Y-78002302D01*
X131618750Y-78000000D01*
X131774998Y-77843752D01*
X131774998Y-77947113D01*
X131747489Y-77961817D01*
X131652320Y-78039920D01*
X131574217Y-78135089D01*
X131516181Y-78243666D01*
X131480443Y-78361479D01*
X131468376Y-78484000D01*
X131471400Y-79318750D01*
X131627650Y-79475000D01*
X132935000Y-79475000D01*
X132935000Y-78015250D01*
X132786272Y-77866522D01*
X132844080Y-77819080D01*
X132900537Y-77750287D01*
X132936573Y-77769548D01*
X133016686Y-77793850D01*
X133100000Y-77802056D01*
X134300000Y-77802056D01*
X134383314Y-77793850D01*
X134463427Y-77769548D01*
X134523939Y-77737204D01*
X134659356Y-77793296D01*
%TA.AperFunction,Conductor*%
D28*
G36*
X134659356Y-77793296D02*
G01*
X134818745Y-77825000D01*
X134981255Y-77825000D01*
X135140644Y-77793296D01*
X135246092Y-77749618D01*
X135248026Y-77751974D01*
X135312740Y-77805084D01*
X135386573Y-77844548D01*
X135466686Y-77868850D01*
X135550000Y-77877056D01*
X136595127Y-77877056D01*
X136207528Y-78264655D01*
X135995511Y-78151329D01*
X135752609Y-78077646D01*
X135500000Y-78052766D01*
X135247390Y-78077646D01*
X135004488Y-78151329D01*
X134780629Y-78270985D01*
X134584414Y-78432014D01*
X134451224Y-78594307D01*
X134451624Y-78484000D01*
X134439557Y-78361479D01*
X134403819Y-78243666D01*
X134345783Y-78135089D01*
X134267680Y-78039920D01*
X134172511Y-77961817D01*
X134063934Y-77903781D01*
X133946121Y-77868043D01*
X133823600Y-77855976D01*
X133141250Y-77859000D01*
X132985000Y-78015250D01*
X132985000Y-79475000D01*
X133005000Y-79475000D01*
X133005000Y-79525000D01*
X132985000Y-79525000D01*
X132985000Y-79545000D01*
X132935000Y-79545000D01*
X132935000Y-79525000D01*
X131627650Y-79525000D01*
X131471400Y-79681250D01*
X131468376Y-80516000D01*
X131480443Y-80638521D01*
X131508356Y-80730539D01*
X131300000Y-80522183D01*
X131300000Y-78002302D01*
X131618750Y-78000000D01*
X131774998Y-77843752D01*
X131774998Y-77947113D01*
X131747489Y-77961817D01*
X131652320Y-78039920D01*
X131574217Y-78135089D01*
X131516181Y-78243666D01*
X131480443Y-78361479D01*
X131468376Y-78484000D01*
X131471400Y-79318750D01*
X131627650Y-79475000D01*
X132935000Y-79475000D01*
X132935000Y-78015250D01*
X132786272Y-77866522D01*
X132844080Y-77819080D01*
X132900537Y-77750287D01*
X132936573Y-77769548D01*
X133016686Y-77793850D01*
X133100000Y-77802056D01*
X134300000Y-77802056D01*
X134383314Y-77793850D01*
X134463427Y-77769548D01*
X134523939Y-77737204D01*
X134659356Y-77793296D01*
G37*
%TD.AperFunction*%
%TD*%
M02*
