%TF.GenerationSoftware,KiCad,Pcbnew,5.1.10*%
%TF.CreationDate,2021-07-13T00:43:58-04:00*%
%TF.ProjectId,synth,73796e74-682e-46b6-9963-61645f706362,rev?*%
%TF.SameCoordinates,Original*%
%TF.FileFunction,Soldermask,Bot*%
%TF.FilePolarity,Negative*%
%FSLAX46Y46*%
G04 Gerber Fmt 4.6, Leading zero omitted, Abs format (unit mm)*
G04 Created by KiCad (PCBNEW 5.1.10) date 2021-07-13 00:43:58*
%MOMM*%
%LPD*%
G01*
G04 APERTURE LIST*
%ADD10C,3.300000*%
%ADD11C,2.000000*%
%ADD12R,2.000000X2.000000*%
%ADD13R,2.000000X0.640000*%
%ADD14R,1.550000X0.600000*%
%ADD15R,1.500000X0.600000*%
%ADD16R,1.600000X1.500000*%
%ADD17C,3.200000*%
%ADD18O,1.750000X3.500000*%
%ADD19R,0.750000X1.200000*%
%ADD20R,1.200000X0.750000*%
%ADD21O,3.500000X2.200000*%
%ADD22O,2.500000X1.500000*%
%ADD23R,2.500000X1.500000*%
%ADD24R,0.900000X1.200000*%
%ADD25R,1.200000X0.900000*%
%ADD26R,2.500000X3.500000*%
%ADD27O,3.500000X1.750000*%
%ADD28O,1.727200X1.727200*%
%ADD29R,1.727200X1.727200*%
%ADD30R,3.500000X2.500000*%
G04 APERTURE END LIST*
D10*
%TO.C,BT1*%
X93980000Y-131445000D03*
X93980000Y-116455000D03*
D11*
X121145000Y-116455000D03*
D12*
X121145000Y-131445000D03*
%TD*%
D13*
%TO.C,U1*%
X80620000Y-82550000D03*
X80620000Y-81280000D03*
X80620000Y-80010000D03*
X74320000Y-80010000D03*
X74320000Y-82550000D03*
%TD*%
D14*
%TO.C,U4*%
X132240000Y-98425000D03*
X132240000Y-97155000D03*
X132240000Y-95885000D03*
X132240000Y-94615000D03*
X126840000Y-94615000D03*
X126840000Y-95885000D03*
X126840000Y-97155000D03*
X126840000Y-98425000D03*
%TD*%
D15*
%TO.C,U3*%
X61120000Y-100330000D03*
X61120000Y-99060000D03*
X61120000Y-97790000D03*
X61120000Y-96520000D03*
X61120000Y-95250000D03*
X61120000Y-93980000D03*
X61120000Y-92710000D03*
X55720000Y-92710000D03*
X55720000Y-93980000D03*
X55720000Y-95250000D03*
X55720000Y-96520000D03*
X55720000Y-97790000D03*
X55720000Y-99060000D03*
X55720000Y-100330000D03*
%TD*%
D16*
%TO.C,X1*%
X80010000Y-110660000D03*
X82550000Y-110660000D03*
X82550000Y-112860000D03*
X80010000Y-112860000D03*
%TD*%
D15*
%TO.C,U2*%
X96680000Y-108585000D03*
X96680000Y-107315000D03*
X96680000Y-106045000D03*
X96680000Y-104775000D03*
X96680000Y-103505000D03*
X96680000Y-102235000D03*
X96680000Y-100965000D03*
X91280000Y-100965000D03*
X91280000Y-102235000D03*
X91280000Y-103505000D03*
X91280000Y-104775000D03*
X91280000Y-106045000D03*
X91280000Y-107315000D03*
X91280000Y-108585000D03*
%TD*%
D17*
%TO.C,REF\u002A\u002A*%
X134620000Y-137160000D03*
%TD*%
%TO.C,REF\u002A\u002A*%
X53340000Y-137160000D03*
%TD*%
%TO.C,REF\u002A\u002A*%
X134620000Y-66040000D03*
%TD*%
%TO.C,REF\u002A\u002A*%
X53340000Y-66040000D03*
%TD*%
D18*
%TO.C,RV1*%
X88980000Y-80020000D03*
X93980000Y-80020000D03*
X98980000Y-80020000D03*
%TD*%
%TO.C,RV3*%
X53420000Y-80020000D03*
X58420000Y-80020000D03*
X63420000Y-80020000D03*
%TD*%
%TO.C,RV2*%
X81200000Y-97780000D03*
X76200000Y-97780000D03*
X71200000Y-97780000D03*
%TD*%
D19*
%TO.C,D7*%
X69850000Y-116840000D03*
X69850000Y-119380000D03*
%TD*%
%TO.C,D8*%
X109220000Y-108585000D03*
X109220000Y-111125000D03*
%TD*%
%TO.C,D5*%
X115570000Y-74930000D03*
X115570000Y-77470000D03*
%TD*%
%TO.C,D4*%
X111760000Y-74930000D03*
X111760000Y-77470000D03*
%TD*%
D20*
%TO.C,D2*%
X78740000Y-76200000D03*
X76200000Y-76200000D03*
%TD*%
D19*
%TO.C,D1*%
X124460000Y-120650000D03*
X124460000Y-123190000D03*
%TD*%
D21*
%TO.C,SW1*%
X137160000Y-121630000D03*
X137160000Y-129830000D03*
D22*
X137160000Y-123730000D03*
X137160000Y-125730000D03*
D23*
X137160000Y-127730000D03*
%TD*%
D18*
%TO.C,RV5*%
X124540000Y-80020000D03*
X129540000Y-80020000D03*
X134540000Y-80020000D03*
%TD*%
%TO.C,RV4*%
X116760000Y-97780000D03*
X111760000Y-97780000D03*
X106760000Y-97780000D03*
%TD*%
D24*
%TO.C,R14*%
X124460000Y-110955000D03*
X124460000Y-108755000D03*
%TD*%
%TO.C,R13*%
X116840000Y-108755000D03*
X116840000Y-110955000D03*
%TD*%
%TO.C,R12*%
X120650000Y-108755000D03*
X120650000Y-110955000D03*
%TD*%
%TO.C,R11*%
X58420000Y-88730000D03*
X58420000Y-86530000D03*
%TD*%
%TO.C,R10*%
X66040000Y-119210000D03*
X66040000Y-117010000D03*
%TD*%
%TO.C,R9*%
X62230000Y-106215000D03*
X62230000Y-108415000D03*
%TD*%
%TO.C,R8*%
X69850000Y-108415000D03*
X69850000Y-106215000D03*
%TD*%
%TO.C,R7*%
X62230000Y-119380000D03*
X62230000Y-117180000D03*
%TD*%
D25*
%TO.C,R6*%
X92880000Y-75565000D03*
X95080000Y-75565000D03*
%TD*%
D24*
%TO.C,R5*%
X107950000Y-77300000D03*
X107950000Y-75100000D03*
%TD*%
D25*
%TO.C,R4*%
X95080000Y-86360000D03*
X92880000Y-86360000D03*
%TD*%
D24*
%TO.C,R3*%
X119380000Y-75100000D03*
X119380000Y-77300000D03*
%TD*%
%TO.C,R2*%
X120650000Y-123020000D03*
X120650000Y-120820000D03*
%TD*%
D25*
%TO.C,R1*%
X76540000Y-72390000D03*
X78740000Y-72390000D03*
%TD*%
D26*
%TO.C,J5*%
X136216000Y-113030000D03*
D27*
X131210000Y-118030000D03*
X131210000Y-108030000D03*
X131210000Y-115530000D03*
X131210000Y-110530000D03*
%TD*%
D28*
%TO.C,J4*%
X58420000Y-125095000D03*
X58420000Y-127635000D03*
X55880000Y-125095000D03*
X55880000Y-127635000D03*
X53340000Y-125095000D03*
D29*
X53340000Y-127635000D03*
%TD*%
D26*
%TO.C,J3*%
X51744000Y-113030000D03*
D27*
X56750000Y-108030000D03*
X56750000Y-118030000D03*
X56750000Y-110530000D03*
X56750000Y-115530000D03*
%TD*%
D30*
%TO.C,J2*%
X123190000Y-64444000D03*
D18*
X128190000Y-69450000D03*
X118190000Y-69450000D03*
X125690000Y-69450000D03*
X120690000Y-69450000D03*
%TD*%
D30*
%TO.C,J1*%
X64770000Y-64444000D03*
D18*
X69770000Y-69450000D03*
X59770000Y-69450000D03*
X67270000Y-69450000D03*
X62270000Y-69450000D03*
%TD*%
D11*
%TO.C,D6*%
X95250000Y-71120000D03*
D12*
X92710000Y-71120000D03*
%TD*%
D11*
%TO.C,D3*%
X130810000Y-125730000D03*
D12*
X128270000Y-125730000D03*
%TD*%
D19*
%TO.C,C11*%
X134620000Y-89215000D03*
X134620000Y-87315000D03*
%TD*%
%TO.C,C10*%
X113030000Y-108905000D03*
X113030000Y-110805000D03*
%TD*%
%TO.C,C9*%
X54610000Y-88580000D03*
X54610000Y-86680000D03*
%TD*%
%TO.C,C8*%
X62230000Y-88580000D03*
X62230000Y-86680000D03*
%TD*%
D20*
%TO.C,C7*%
X77150000Y-91440000D03*
X75250000Y-91440000D03*
%TD*%
D19*
%TO.C,C6*%
X66040000Y-108265000D03*
X66040000Y-106365000D03*
%TD*%
D20*
%TO.C,C5*%
X78420000Y-68580000D03*
X76520000Y-68580000D03*
%TD*%
%TO.C,C4*%
X94930000Y-91440000D03*
X93030000Y-91440000D03*
%TD*%
D19*
%TO.C,C3*%
X109220000Y-122870000D03*
X109220000Y-120970000D03*
%TD*%
%TO.C,C2*%
X113030000Y-122870000D03*
X113030000Y-120970000D03*
%TD*%
%TO.C,C1*%
X116840000Y-122870000D03*
X116840000Y-120970000D03*
%TD*%
M02*
