%TF.GenerationSoftware,KiCad,Pcbnew,5.1.10*%
%TF.CreationDate,2022-02-27T11:21:51-05:00*%
%TF.ProjectId,synth,73796e74-682e-46b6-9963-61645f706362,rev?*%
%TF.SameCoordinates,Original*%
%TF.FileFunction,Soldermask,Top*%
%TF.FilePolarity,Negative*%
%FSLAX46Y46*%
G04 Gerber Fmt 4.6, Leading zero omitted, Abs format (unit mm)*
G04 Created by KiCad (PCBNEW 5.1.10) date 2022-02-27 11:21:51*
%MOMM*%
%LPD*%
G01*
G04 APERTURE LIST*
%ADD10O,2.032000X2.032000*%
%ADD11R,2.032000X2.032000*%
%ADD12O,1.727200X2.032000*%
%ADD13R,1.727200X2.032000*%
%ADD14C,4.600000*%
%ADD15R,1.143000X0.508000*%
%ADD16R,2.235200X2.235200*%
%ADD17C,1.900000*%
%ADD18R,2.000000X1.900000*%
G04 APERTURE END LIST*
D10*
%TO.C,J4*%
X137750000Y-112540000D03*
D11*
X137750000Y-110000000D03*
%TD*%
D12*
%TO.C,RV3*%
X138040000Y-79500000D03*
X135500000Y-79500000D03*
D13*
X132960000Y-79500000D03*
%TD*%
D12*
%TO.C,J3*%
X132540000Y-67250000D03*
X130000000Y-67250000D03*
D13*
X127460000Y-67250000D03*
%TD*%
D14*
%TO.C,REF\u002A\u002A*%
X137000000Y-117000000D03*
%TD*%
%TO.C,REF\u002A\u002A*%
X123000000Y-117000000D03*
%TD*%
%TO.C,REF\u002A\u002A*%
X137000000Y-68000000D03*
%TD*%
%TO.C,REF\u002A\u002A*%
X123000000Y-68000000D03*
%TD*%
D15*
%TO.C,U3*%
X126952000Y-94730000D03*
X126952000Y-99810000D03*
X126952000Y-98540000D03*
X126952000Y-97270000D03*
X126952000Y-96000000D03*
X126952000Y-93460000D03*
X126952000Y-92190000D03*
X133302000Y-92190000D03*
X133302000Y-93460000D03*
X133302000Y-94730000D03*
X133302000Y-96000000D03*
X133302000Y-97270000D03*
X133302000Y-98540000D03*
X133302000Y-99810000D03*
%TD*%
D12*
%TO.C,RV4*%
X127040000Y-74500000D03*
X124500000Y-74500000D03*
D13*
X121960000Y-74500000D03*
%TD*%
D12*
%TO.C,RV2*%
X127080000Y-79500000D03*
X124540000Y-79500000D03*
D13*
X122000000Y-79500000D03*
%TD*%
D12*
%TO.C,RV1*%
X138040000Y-74500000D03*
X135500000Y-74500000D03*
D13*
X132960000Y-74500000D03*
%TD*%
D12*
%TO.C,J2*%
X132540000Y-118000000D03*
X130000000Y-118000000D03*
D13*
X127460000Y-118000000D03*
%TD*%
D16*
%TO.C,J1*%
X138000000Y-97200000D03*
%TD*%
D17*
%TO.C,D3*%
X136500000Y-103960000D03*
D18*
X136500000Y-106500000D03*
%TD*%
%TO.C,D2*%
X123500000Y-106500000D03*
D17*
X123500000Y-103960000D03*
%TD*%
D10*
%TO.C,BT1*%
X122250000Y-112540000D03*
D11*
X122250000Y-110000000D03*
%TD*%
M02*
