%TF.GenerationSoftware,KiCad,Pcbnew,5.1.10*%
%TF.CreationDate,2022-02-27T11:21:51-05:00*%
%TF.ProjectId,synth,73796e74-682e-46b6-9963-61645f706362,rev?*%
%TF.SameCoordinates,Original*%
%TF.FileFunction,Paste,Bot*%
%TF.FilePolarity,Positive*%
%FSLAX46Y46*%
G04 Gerber Fmt 4.6, Leading zero omitted, Abs format (unit mm)*
G04 Created by KiCad (PCBNEW 5.1.10) date 2022-02-27 11:21:51*
%MOMM*%
%LPD*%
G01*
G04 APERTURE LIST*
%ADD10R,2.000000X2.500000*%
%ADD11R,0.900000X1.200000*%
%ADD12R,1.143000X0.508000*%
%ADD13R,1.200000X0.750000*%
%ADD14R,0.640000X2.000000*%
%ADD15R,1.500000X1.600000*%
%ADD16R,1.200000X0.900000*%
%ADD17R,0.750000X1.200000*%
%ADD18R,1.250000X1.500000*%
G04 APERTURE END LIST*
D10*
%TO.C,C10*%
X134000000Y-87500000D03*
X138000000Y-87500000D03*
%TD*%
%TO.C,C8*%
X126000000Y-87500000D03*
X122000000Y-87500000D03*
%TD*%
D11*
%TO.C,R6*%
X135750000Y-90900000D03*
X135750000Y-93100000D03*
%TD*%
D10*
%TO.C,C9*%
X134000000Y-84000000D03*
X138000000Y-84000000D03*
%TD*%
D12*
%TO.C,U1*%
X126825000Y-94905000D03*
X126825000Y-93635000D03*
X126825000Y-92365000D03*
X126825000Y-91095000D03*
X133175000Y-91095000D03*
X133175000Y-92365000D03*
X133175000Y-93635000D03*
X133175000Y-94905000D03*
%TD*%
D11*
%TO.C,R7*%
X133500000Y-112600000D03*
X133500000Y-110400000D03*
%TD*%
D13*
%TO.C,C6*%
X131550000Y-115000000D03*
X133450000Y-115000000D03*
%TD*%
D14*
%TO.C,U2*%
X131270000Y-101350000D03*
X130000000Y-101350000D03*
X128730000Y-101350000D03*
X128730000Y-107650000D03*
X131270000Y-107650000D03*
%TD*%
D15*
%TO.C,X1*%
X122150000Y-100040000D03*
X122150000Y-97500000D03*
X124350000Y-97500000D03*
X124350000Y-100040000D03*
%TD*%
D16*
%TO.C,R12*%
X128350000Y-72000000D03*
X126150000Y-72000000D03*
%TD*%
%TO.C,R11*%
X138350000Y-77000000D03*
X136150000Y-77000000D03*
%TD*%
%TO.C,R10*%
X128350000Y-77000000D03*
X126150000Y-77000000D03*
%TD*%
%TO.C,R9*%
X131400000Y-70000000D03*
X133600000Y-70000000D03*
%TD*%
%TO.C,R8*%
X128600000Y-70000000D03*
X126400000Y-70000000D03*
%TD*%
D11*
%TO.C,R5*%
X123000000Y-91900000D03*
X123000000Y-94100000D03*
%TD*%
%TO.C,R4*%
X134250000Y-103900000D03*
X134250000Y-106100000D03*
%TD*%
%TO.C,R3*%
X126000000Y-104150000D03*
X126000000Y-106350000D03*
%TD*%
%TO.C,R2*%
X131500000Y-82650000D03*
X131500000Y-84850000D03*
%TD*%
%TO.C,R1*%
X128500000Y-82650000D03*
X128500000Y-84850000D03*
%TD*%
D13*
%TO.C,D6*%
X129270000Y-115000000D03*
X126730000Y-115000000D03*
%TD*%
D17*
%TO.C,D5*%
X131250000Y-86730000D03*
X131250000Y-89270000D03*
%TD*%
%TO.C,D4*%
X128750000Y-86730000D03*
X128750000Y-89270000D03*
%TD*%
%TO.C,D1*%
X125500000Y-110000000D03*
X125500000Y-112540000D03*
%TD*%
D13*
%TO.C,C13*%
X121850000Y-72000000D03*
X123750000Y-72000000D03*
%TD*%
%TO.C,C12*%
X131800000Y-77000000D03*
X133700000Y-77000000D03*
%TD*%
%TO.C,C11*%
X121800000Y-77000000D03*
X123700000Y-77000000D03*
%TD*%
D10*
%TO.C,C7*%
X126000000Y-84000000D03*
X122000000Y-84000000D03*
%TD*%
D17*
%TO.C,C5*%
X125000000Y-92450000D03*
X125000000Y-90550000D03*
%TD*%
%TO.C,C4*%
X129500000Y-112450000D03*
X129500000Y-110550000D03*
%TD*%
D13*
%TO.C,C3*%
X133950000Y-72000000D03*
X132050000Y-72000000D03*
%TD*%
D17*
%TO.C,C2*%
X127500000Y-112450000D03*
X127500000Y-110550000D03*
%TD*%
D18*
%TO.C,C1*%
X131500000Y-112750000D03*
X131500000Y-110250000D03*
%TD*%
M02*
