%TF.GenerationSoftware,KiCad,Pcbnew,(6.0.5)*%
%TF.CreationDate,2022-05-19T00:34:01-04:00*%
%TF.ProjectId,synth,73796e74-682e-46b6-9963-61645f706362,rev?*%
%TF.SameCoordinates,Original*%
%TF.FileFunction,Soldermask,Bot*%
%TF.FilePolarity,Negative*%
%FSLAX46Y46*%
G04 Gerber Fmt 4.6, Leading zero omitted, Abs format (unit mm)*
G04 Created by KiCad (PCBNEW (6.0.5)) date 2022-05-19 00:34:01*
%MOMM*%
%LPD*%
G01*
G04 APERTURE LIST*
%ADD10R,1.200000X0.750000*%
%ADD11R,2.032000X2.032000*%
%ADD12O,2.032000X2.032000*%
%ADD13C,4.600000*%
%ADD14R,2.000000X1.900000*%
%ADD15C,1.900000*%
%ADD16R,2.235200X2.235200*%
%ADD17R,1.727200X2.032000*%
%ADD18O,1.727200X2.032000*%
%ADD19R,0.750000X1.200000*%
%ADD20R,0.900000X1.200000*%
%ADD21R,1.250000X1.500000*%
%ADD22R,0.640000X2.000000*%
%ADD23R,1.200000X0.900000*%
%ADD24R,2.000000X2.500000*%
%ADD25R,1.143000X0.508000*%
%ADD26R,1.500000X1.600000*%
G04 APERTURE END LIST*
D10*
%TO.C,C3*%
X135450000Y-72000000D03*
X133550000Y-72000000D03*
%TD*%
D11*
%TO.C,J4*%
X137750000Y-110000000D03*
D12*
X137750000Y-112540000D03*
%TD*%
D13*
%TO.C,REF\u002A\u002A*%
X123000000Y-117000000D03*
%TD*%
D14*
%TO.C,D3*%
X136500000Y-106500000D03*
D15*
X136500000Y-103960000D03*
%TD*%
D16*
%TO.C,J1*%
X138000000Y-97200000D03*
%TD*%
D17*
%TO.C,J3*%
X127460000Y-67250000D03*
D18*
X130000000Y-67250000D03*
X132540000Y-67250000D03*
%TD*%
D17*
%TO.C,J2*%
X127460000Y-118000000D03*
D18*
X130000000Y-118000000D03*
X132540000Y-118000000D03*
%TD*%
D13*
%TO.C,REF\u002A\u002A*%
X123000000Y-68000000D03*
%TD*%
%TO.C,REF\u002A\u002A*%
X137000000Y-68000000D03*
%TD*%
%TO.C,REF\u002A\u002A*%
X137000000Y-117000000D03*
%TD*%
D17*
%TO.C,RV3*%
X132960000Y-79500000D03*
D18*
X135500000Y-79500000D03*
X138040000Y-79500000D03*
%TD*%
D17*
%TO.C,RV1*%
X132960000Y-74500000D03*
D18*
X135500000Y-74500000D03*
X138040000Y-74500000D03*
%TD*%
D17*
%TO.C,RV2*%
X122000000Y-79500000D03*
D18*
X124540000Y-79500000D03*
X127080000Y-79500000D03*
%TD*%
D17*
%TO.C,RV4*%
X121960000Y-74500000D03*
D18*
X124500000Y-74500000D03*
X127040000Y-74500000D03*
%TD*%
D11*
%TO.C,BT1*%
X122250000Y-110000000D03*
D12*
X122250000Y-112540000D03*
%TD*%
D14*
%TO.C,D2*%
X123500000Y-106500000D03*
D15*
X123500000Y-103960000D03*
%TD*%
D19*
%TO.C,C4*%
X129500000Y-110550000D03*
X129500000Y-112450000D03*
%TD*%
%TO.C,D1*%
X125500000Y-110000000D03*
X125500000Y-112540000D03*
%TD*%
D20*
%TO.C,R3*%
X126000000Y-106350000D03*
X126000000Y-104150000D03*
%TD*%
%TO.C,R4*%
X134250000Y-103900000D03*
X134250000Y-106100000D03*
%TD*%
%TO.C,R7*%
X133500000Y-110400000D03*
X133500000Y-112600000D03*
%TD*%
D19*
%TO.C,C2*%
X127500000Y-110550000D03*
X127500000Y-112450000D03*
%TD*%
D10*
%TO.C,C6*%
X133450000Y-115000000D03*
X131550000Y-115000000D03*
%TD*%
D21*
%TO.C,C1*%
X131500000Y-110250000D03*
X131500000Y-112750000D03*
%TD*%
D22*
%TO.C,U2*%
X131270000Y-107650000D03*
X128730000Y-107650000D03*
X128730000Y-101350000D03*
X130000000Y-101350000D03*
X131270000Y-101350000D03*
%TD*%
D23*
%TO.C,R9*%
X133600000Y-70000000D03*
X131400000Y-70000000D03*
%TD*%
D24*
%TO.C,C9*%
X138000000Y-84000000D03*
X134000000Y-84000000D03*
%TD*%
D19*
%TO.C,D5*%
X131250000Y-86730000D03*
X131250000Y-89270000D03*
%TD*%
D24*
%TO.C,C10*%
X138000000Y-87500000D03*
X134000000Y-87500000D03*
%TD*%
D10*
%TO.C,C11*%
X123700000Y-77000000D03*
X121800000Y-77000000D03*
%TD*%
%TO.C,C12*%
X133700000Y-77000000D03*
X131800000Y-77000000D03*
%TD*%
D25*
%TO.C,U1*%
X126825000Y-94905000D03*
X126825000Y-93635000D03*
X126825000Y-92365000D03*
X126825000Y-91095000D03*
X133175000Y-91095000D03*
X133175000Y-92365000D03*
X133175000Y-93635000D03*
X133175000Y-94905000D03*
%TD*%
D20*
%TO.C,R2*%
X131500000Y-84850000D03*
X131500000Y-82650000D03*
%TD*%
D19*
%TO.C,C5*%
X125000000Y-90550000D03*
X125000000Y-92450000D03*
%TD*%
D20*
%TO.C,R6*%
X135750000Y-93100000D03*
X135750000Y-90900000D03*
%TD*%
%TO.C,R5*%
X123000000Y-94100000D03*
X123000000Y-91900000D03*
%TD*%
D26*
%TO.C,X1*%
X122150000Y-100040000D03*
X122150000Y-97500000D03*
X124350000Y-97500000D03*
X124350000Y-100040000D03*
%TD*%
D10*
%TO.C,C13*%
X123750000Y-72000000D03*
X121850000Y-72000000D03*
%TD*%
D23*
%TO.C,R8*%
X126400000Y-70000000D03*
X128600000Y-70000000D03*
%TD*%
%TO.C,R12*%
X126150000Y-72000000D03*
X128350000Y-72000000D03*
%TD*%
D24*
%TO.C,C8*%
X122000000Y-87500000D03*
X126000000Y-87500000D03*
%TD*%
%TO.C,C7*%
X122000000Y-84000000D03*
X126000000Y-84000000D03*
%TD*%
D23*
%TO.C,R11*%
X136150000Y-77000000D03*
X138350000Y-77000000D03*
%TD*%
D19*
%TO.C,D4*%
X128750000Y-86730000D03*
X128750000Y-89270000D03*
%TD*%
D10*
%TO.C,D6*%
X129270000Y-115000000D03*
X126730000Y-115000000D03*
%TD*%
D23*
%TO.C,R10*%
X126150000Y-77000000D03*
X128350000Y-77000000D03*
%TD*%
D20*
%TO.C,R1*%
X128500000Y-84850000D03*
X128500000Y-82650000D03*
%TD*%
M02*
