M48
; DRILL file {KiCad (6.0.5)} date Thu 19 May 2022 12:34:07 AM EDT
; FORMAT={-:-/ absolute / inch / decimal}
; #@! TF.CreationDate,2022-05-19T00:34:07-04:00
; #@! TF.GenerationSoftware,Kicad,Pcbnew,(6.0.5)
; #@! TF.FileFunction,Plated,1,2,PTH
FMAT,2
INCH
; #@! TA.AperFunction,Plated,PTH,ViaDrill
T1C0.0157
; #@! TA.AperFunction,Plated,PTH,ComponentDrill
T2C0.0394
; #@! TA.AperFunction,Plated,PTH,ComponentDrill
T3C0.0400
%
G90
G05
T1
X4.8819Y-4.0059
X4.9016Y-4.4882
X4.9213Y-2.8346
X4.9213Y-3.0315
X5.0031Y-3.9695
X5.0098Y-3.5433
X5.0098Y-4.2717
X5.0197Y-4.1535
X5.0787Y-3.8386
X5.1073Y-3.3268
X5.1083Y-3.6614
X5.1181Y-2.874
X5.1368Y-3.6909
X5.1378Y-3.3563
X5.1476Y-4.0846
X5.1575Y-3.6024
X5.1681Y-3.9173
X5.1969Y-2.8346
X5.2165Y-4.1634
X5.3051Y-4.4488
X5.3051Y-4.5177
X5.311Y-3.0315
X5.315Y-3.7559
T2
X4.8622Y-4.0929
X4.8622Y-4.1929
X5.374Y-4.0929
X5.374Y-4.1929
T3
X4.8016Y-2.9331
X4.8031Y-3.1299
X4.813Y-4.3307
X4.813Y-4.4307
X4.9016Y-2.9331
X4.9031Y-3.1299
X5.0016Y-2.9331
X5.0031Y-3.1299
X5.0181Y-2.6476
X5.0181Y-4.6457
X5.1181Y-2.6476
X5.1181Y-4.6457
X5.2181Y-2.6476
X5.2181Y-4.6457
X5.2346Y-2.9331
X5.2346Y-3.1299
X5.3346Y-2.9331
X5.3346Y-3.1299
X5.4232Y-4.3307
X5.4232Y-4.4307
X5.4331Y-3.8268
X5.4346Y-2.9331
X5.4346Y-3.1299
T0
M30
