%TF.GenerationSoftware,KiCad,Pcbnew,(6.0.5)*%
%TF.CreationDate,2022-05-19T00:34:01-04:00*%
%TF.ProjectId,synth,73796e74-682e-46b6-9963-61645f706362,rev?*%
%TF.SameCoordinates,Original*%
%TF.FileFunction,Copper,L2,Bot*%
%TF.FilePolarity,Positive*%
%FSLAX46Y46*%
G04 Gerber Fmt 4.6, Leading zero omitted, Abs format (unit mm)*
G04 Created by KiCad (PCBNEW (6.0.5)) date 2022-05-19 00:34:01*
%MOMM*%
%LPD*%
G01*
G04 APERTURE LIST*
%TA.AperFunction,SMDPad,CuDef*%
%ADD10R,1.200000X0.750000*%
%TD*%
%TA.AperFunction,ComponentPad*%
%ADD11R,2.032000X2.032000*%
%TD*%
%TA.AperFunction,ComponentPad*%
%ADD12O,2.032000X2.032000*%
%TD*%
%TA.AperFunction,ComponentPad*%
%ADD13R,2.000000X1.900000*%
%TD*%
%TA.AperFunction,ComponentPad*%
%ADD14C,1.900000*%
%TD*%
%TA.AperFunction,ComponentPad*%
%ADD15R,2.235200X2.235200*%
%TD*%
%TA.AperFunction,ComponentPad*%
%ADD16R,1.727200X2.032000*%
%TD*%
%TA.AperFunction,ComponentPad*%
%ADD17O,1.727200X2.032000*%
%TD*%
%TA.AperFunction,SMDPad,CuDef*%
%ADD18R,0.750000X1.200000*%
%TD*%
%TA.AperFunction,SMDPad,CuDef*%
%ADD19R,0.900000X1.200000*%
%TD*%
%TA.AperFunction,SMDPad,CuDef*%
%ADD20R,1.250000X1.500000*%
%TD*%
%TA.AperFunction,SMDPad,CuDef*%
%ADD21R,0.640000X2.000000*%
%TD*%
%TA.AperFunction,SMDPad,CuDef*%
%ADD22R,1.200000X0.900000*%
%TD*%
%TA.AperFunction,SMDPad,CuDef*%
%ADD23R,2.000000X2.500000*%
%TD*%
%TA.AperFunction,SMDPad,CuDef*%
%ADD24R,1.143000X0.508000*%
%TD*%
%TA.AperFunction,SMDPad,CuDef*%
%ADD25R,1.500000X1.600000*%
%TD*%
%TA.AperFunction,ViaPad*%
%ADD26C,0.800000*%
%TD*%
%TA.AperFunction,Conductor*%
%ADD27C,0.250000*%
%TD*%
G04 APERTURE END LIST*
D10*
%TO.P,C3,1*%
%TO.N,Net-(C3-Pad1)*%
X135450000Y-72000000D03*
%TO.P,C3,2*%
%TO.N,Net-(R1-Pad2)*%
X133550000Y-72000000D03*
%TD*%
D11*
%TO.P,J4,1,Pin_1*%
%TO.N,/UPDI*%
X137750000Y-110000000D03*
D12*
%TO.P,J4,2,Pin_2*%
%TO.N,GND*%
X137750000Y-112540000D03*
%TD*%
D13*
%TO.P,D3,1,K*%
%TO.N,GND*%
X136500000Y-106500000D03*
D14*
%TO.P,D3,2,A*%
%TO.N,Net-(D3-Pad2)*%
X136500000Y-103960000D03*
%TD*%
D15*
%TO.P,J1,1,Pin_1*%
%TO.N,/MIDI_OUT*%
X138000000Y-97200000D03*
%TD*%
D16*
%TO.P,J3,1,Pin_1*%
%TO.N,Net-(C7-Pad1)*%
X127460000Y-67250000D03*
D17*
%TO.P,J3,2,Pin_2*%
%TO.N,Net-(C10-Pad1)*%
X130000000Y-67250000D03*
%TO.P,J3,3,Pin_3*%
%TO.N,GND*%
X132540000Y-67250000D03*
%TD*%
D16*
%TO.P,J2,1,Pin_1*%
%TO.N,Net-(D6-Pad2)*%
X127460000Y-118000000D03*
D17*
%TO.P,J2,2,Pin_2*%
%TO.N,Net-(J2-Pad2)*%
X130000000Y-118000000D03*
%TO.P,J2,3,Pin_3*%
%TO.N,Net-(C6-Pad1)*%
X132540000Y-118000000D03*
%TD*%
D16*
%TO.P,RV3,1,1*%
%TO.N,GND*%
X132960000Y-79500000D03*
D17*
%TO.P,RV3,2,2*%
%TO.N,Net-(R11-Pad2)*%
X135500000Y-79500000D03*
%TO.P,RV3,3,3*%
%TO.N,VDD*%
X138040000Y-79500000D03*
%TD*%
D16*
%TO.P,RV1,1,1*%
%TO.N,GND*%
X132960000Y-74500000D03*
D17*
%TO.P,RV1,2,2*%
%TO.N,Net-(C3-Pad1)*%
X135500000Y-74500000D03*
%TO.P,RV1,3,3*%
%TO.N,/DAC*%
X138040000Y-74500000D03*
%TD*%
D16*
%TO.P,RV2,1,1*%
%TO.N,GND*%
X122000000Y-79500000D03*
D17*
%TO.P,RV2,2,2*%
%TO.N,Net-(R10-Pad2)*%
X124540000Y-79500000D03*
%TO.P,RV2,3,3*%
%TO.N,VDD*%
X127080000Y-79500000D03*
%TD*%
D16*
%TO.P,RV4,1,1*%
%TO.N,GND*%
X121960000Y-74500000D03*
D17*
%TO.P,RV4,2,2*%
%TO.N,Net-(R12-Pad2)*%
X124500000Y-74500000D03*
%TO.P,RV4,3,3*%
%TO.N,VDD*%
X127040000Y-74500000D03*
%TD*%
D11*
%TO.P,BT1,1,+*%
%TO.N,VDD*%
X122250000Y-110000000D03*
D12*
%TO.P,BT1,2,-*%
%TO.N,GND*%
X122250000Y-112540000D03*
%TD*%
D13*
%TO.P,D2,1,K*%
%TO.N,GND*%
X123500000Y-106500000D03*
D14*
%TO.P,D2,2,A*%
%TO.N,Net-(D2-Pad2)*%
X123500000Y-103960000D03*
%TD*%
D18*
%TO.P,C4,1*%
%TO.N,VDD*%
X129500000Y-110550000D03*
%TO.P,C4,2*%
%TO.N,GND*%
X129500000Y-112450000D03*
%TD*%
%TO.P,D1,1,K*%
%TO.N,VDD*%
X125500000Y-110000000D03*
%TO.P,D1,2,A*%
%TO.N,GND*%
X125500000Y-112540000D03*
%TD*%
D19*
%TO.P,R3,1*%
%TO.N,VDD*%
X126000000Y-106350000D03*
%TO.P,R3,2*%
%TO.N,Net-(D2-Pad2)*%
X126000000Y-104150000D03*
%TD*%
%TO.P,R4,1*%
%TO.N,/LED*%
X134250000Y-103900000D03*
%TO.P,R4,2*%
%TO.N,Net-(D3-Pad2)*%
X134250000Y-106100000D03*
%TD*%
%TO.P,R7,1*%
%TO.N,Net-(D6-Pad1)*%
X133500000Y-110400000D03*
%TO.P,R7,2*%
%TO.N,Net-(J2-Pad2)*%
X133500000Y-112600000D03*
%TD*%
D18*
%TO.P,C2,1*%
%TO.N,VDD*%
X127500000Y-110550000D03*
%TO.P,C2,2*%
%TO.N,GND*%
X127500000Y-112450000D03*
%TD*%
D10*
%TO.P,C6,1*%
%TO.N,Net-(C6-Pad1)*%
X133450000Y-115000000D03*
%TO.P,C6,2*%
%TO.N,GND*%
X131550000Y-115000000D03*
%TD*%
D20*
%TO.P,C1,1*%
%TO.N,VDD*%
X131500000Y-110250000D03*
%TO.P,C1,2*%
%TO.N,GND*%
X131500000Y-112750000D03*
%TD*%
D21*
%TO.P,U2,1*%
%TO.N,Net-(D6-Pad1)*%
X131270000Y-107650000D03*
%TO.P,U2,3*%
%TO.N,Net-(D6-Pad2)*%
X128730000Y-107650000D03*
%TO.P,U2,4*%
%TO.N,GND*%
X128730000Y-101350000D03*
%TO.P,U2,5*%
%TO.N,/MIDI_IN*%
X130000000Y-101350000D03*
%TO.P,U2,6*%
%TO.N,VDD*%
X131270000Y-101350000D03*
%TD*%
D22*
%TO.P,R9,1*%
%TO.N,GND*%
X133600000Y-70000000D03*
%TO.P,R9,2*%
%TO.N,Net-(C10-Pad1)*%
X131400000Y-70000000D03*
%TD*%
D23*
%TO.P,C9,1*%
%TO.N,Net-(C10-Pad1)*%
X138000000Y-84000000D03*
%TO.P,C9,2*%
%TO.N,Net-(C10-Pad2)*%
X134000000Y-84000000D03*
%TD*%
D18*
%TO.P,D5,1,K*%
%TO.N,Net-(C10-Pad2)*%
X131250000Y-86730000D03*
%TO.P,D5,2,A*%
%TO.N,GND*%
X131250000Y-89270000D03*
%TD*%
D23*
%TO.P,C10,1*%
%TO.N,Net-(C10-Pad1)*%
X138000000Y-87500000D03*
%TO.P,C10,2*%
%TO.N,Net-(C10-Pad2)*%
X134000000Y-87500000D03*
%TD*%
D10*
%TO.P,C11,1*%
%TO.N,/DEPTH*%
X123700000Y-77000000D03*
%TO.P,C11,2*%
%TO.N,GND*%
X121800000Y-77000000D03*
%TD*%
%TO.P,C12,1*%
%TO.N,/FREQ*%
X133700000Y-77000000D03*
%TO.P,C12,2*%
%TO.N,GND*%
X131800000Y-77000000D03*
%TD*%
D24*
%TO.P,U1,1,VO1*%
%TO.N,Net-(C7-Pad2)*%
X126825000Y-94905000D03*
%TO.P,U1,2,IN1-*%
%TO.N,Net-(R1-Pad1)*%
X126825000Y-93635000D03*
%TO.P,U1,3,BYPASS*%
%TO.N,Net-(C5-Pad2)*%
X126825000Y-92365000D03*
%TO.P,U1,4,GND*%
%TO.N,GND*%
X126825000Y-91095000D03*
%TO.P,U1,5,SHUTDOWN*%
X133175000Y-91095000D03*
%TO.P,U1,6,IN2-*%
%TO.N,Net-(R2-Pad1)*%
X133175000Y-92365000D03*
%TO.P,U1,7,VO2*%
%TO.N,Net-(C10-Pad2)*%
X133175000Y-93635000D03*
%TO.P,U1,8,VDD*%
%TO.N,VDD*%
X133175000Y-94905000D03*
%TD*%
D19*
%TO.P,R2,1*%
%TO.N,Net-(R2-Pad1)*%
X131500000Y-84850000D03*
%TO.P,R2,2*%
%TO.N,Net-(R1-Pad2)*%
X131500000Y-82650000D03*
%TD*%
D18*
%TO.P,C5,1*%
%TO.N,GND*%
X125000000Y-90550000D03*
%TO.P,C5,2*%
%TO.N,Net-(C5-Pad2)*%
X125000000Y-92450000D03*
%TD*%
D19*
%TO.P,R6,1*%
%TO.N,Net-(C10-Pad2)*%
X135750000Y-93100000D03*
%TO.P,R6,2*%
%TO.N,Net-(R2-Pad1)*%
X135750000Y-90900000D03*
%TD*%
%TO.P,R5,1*%
%TO.N,Net-(C7-Pad2)*%
X123000000Y-94100000D03*
%TO.P,R5,2*%
%TO.N,Net-(R1-Pad1)*%
X123000000Y-91900000D03*
%TD*%
D25*
%TO.P,X1,1,EN*%
%TO.N,unconnected-(X1-Pad1)*%
X122150000Y-100040000D03*
%TO.P,X1,2,GND*%
%TO.N,GND*%
X122150000Y-97500000D03*
%TO.P,X1,3,OUT*%
%TO.N,/CLK*%
X124350000Y-97500000D03*
%TO.P,X1,4,Vdd*%
%TO.N,VDD*%
X124350000Y-100040000D03*
%TD*%
D10*
%TO.P,C13,1*%
%TO.N,/SELECT*%
X123750000Y-72000000D03*
%TO.P,C13,2*%
%TO.N,GND*%
X121850000Y-72000000D03*
%TD*%
D22*
%TO.P,R8,1*%
%TO.N,GND*%
X126400000Y-70000000D03*
%TO.P,R8,2*%
%TO.N,Net-(C7-Pad1)*%
X128600000Y-70000000D03*
%TD*%
%TO.P,R12,1*%
%TO.N,/SELECT*%
X126150000Y-72000000D03*
%TO.P,R12,2*%
%TO.N,Net-(R12-Pad2)*%
X128350000Y-72000000D03*
%TD*%
D23*
%TO.P,C8,1*%
%TO.N,Net-(C7-Pad1)*%
X122000000Y-87500000D03*
%TO.P,C8,2*%
%TO.N,Net-(C7-Pad2)*%
X126000000Y-87500000D03*
%TD*%
%TO.P,C7,1*%
%TO.N,Net-(C7-Pad1)*%
X122000000Y-84000000D03*
%TO.P,C7,2*%
%TO.N,Net-(C7-Pad2)*%
X126000000Y-84000000D03*
%TD*%
D22*
%TO.P,R11,1*%
%TO.N,/FREQ*%
X136150000Y-77000000D03*
%TO.P,R11,2*%
%TO.N,Net-(R11-Pad2)*%
X138350000Y-77000000D03*
%TD*%
D18*
%TO.P,D4,1,K*%
%TO.N,Net-(C7-Pad2)*%
X128750000Y-86730000D03*
%TO.P,D4,2,A*%
%TO.N,GND*%
X128750000Y-89270000D03*
%TD*%
D10*
%TO.P,D6,1,K*%
%TO.N,Net-(D6-Pad1)*%
X129270000Y-115000000D03*
%TO.P,D6,2,A*%
%TO.N,Net-(D6-Pad2)*%
X126730000Y-115000000D03*
%TD*%
D22*
%TO.P,R10,1*%
%TO.N,/DEPTH*%
X126150000Y-77000000D03*
%TO.P,R10,2*%
%TO.N,Net-(R10-Pad2)*%
X128350000Y-77000000D03*
%TD*%
D19*
%TO.P,R1,1*%
%TO.N,Net-(R1-Pad1)*%
X128500000Y-84850000D03*
%TO.P,R1,2*%
%TO.N,Net-(R1-Pad2)*%
X128500000Y-82650000D03*
%TD*%
D26*
%TO.N,/SELECT*%
X129750000Y-93000000D03*
X127250000Y-90000000D03*
%TO.N,Net-(R1-Pad2)*%
X132000000Y-72000000D03*
X130000000Y-73000000D03*
%TO.N,GND*%
X127078164Y-100825845D03*
%TO.N,VDD*%
X127500000Y-105500000D03*
X131270000Y-99500000D03*
X130750000Y-103750000D03*
X123999976Y-101750000D03*
%TO.N,Net-(C6-Pad1)*%
X134750000Y-114749990D03*
%TO.N,/DEPTH*%
X125000000Y-77000000D03*
%TO.N,/FREQ*%
X134900000Y-77000000D03*
%TO.N,/SELECT*%
X125000000Y-72000000D03*
%TO.N,Net-(D6-Pad2)*%
X124500000Y-114000000D03*
X127250016Y-108500000D03*
%TO.N,Net-(J2-Pad2)*%
X134750000Y-112999984D03*
%TO.N,Net-(R1-Pad1)*%
X129725000Y-84500000D03*
X130474500Y-93750000D03*
%TO.N,Net-(R2-Pad1)*%
X131000000Y-91500000D03*
X130500000Y-85250000D03*
%TO.N,/LED*%
X132500000Y-105750000D03*
%TO.N,/MIDI_IN*%
X135000000Y-95400000D03*
%TO.N,/CLK*%
X129000000Y-97500000D03*
%TD*%
D27*
%TO.N,Net-(R1-Pad1)*%
X126940000Y-93750000D02*
X126825000Y-93635000D01*
X130474500Y-93750000D02*
X126940000Y-93750000D01*
%TO.N,/SELECT*%
X129750000Y-93000000D02*
X129750000Y-92500000D01*
X129750000Y-92500000D02*
X127250000Y-90000000D01*
%TO.N,Net-(R2-Pad1)*%
X131000000Y-91500000D02*
X131865000Y-92365000D01*
X131865000Y-92365000D02*
X133175000Y-92365000D01*
%TO.N,Net-(R1-Pad2)*%
X133550000Y-72000000D02*
X132000000Y-72000000D01*
%TO.N,Net-(C3-Pad1)*%
X135450000Y-72000000D02*
X135450000Y-74450000D01*
X135450000Y-74450000D02*
X135500000Y-74500000D01*
%TO.N,Net-(R1-Pad2)*%
X130000000Y-81000000D02*
X130000000Y-73000000D01*
X128500000Y-82500000D02*
X130000000Y-81000000D01*
X128500000Y-82650000D02*
X128500000Y-82500000D01*
X130000000Y-81000000D02*
X131500000Y-82500000D01*
X131500000Y-82500000D02*
X131500000Y-82650000D01*
%TO.N,GND*%
X129500000Y-112450000D02*
X130200000Y-112450000D01*
X130500000Y-112750000D02*
X131500000Y-112750000D01*
X125800000Y-90550000D02*
X126345000Y-91095000D01*
X130200000Y-112450000D02*
X130500000Y-112750000D01*
X132000000Y-77000000D02*
X132960000Y-77960000D01*
X132960000Y-77960000D02*
X132960000Y-79500000D01*
X125500000Y-112540000D02*
X127410000Y-112540000D01*
X125000000Y-90550000D02*
X125800000Y-90550000D01*
X127410000Y-112540000D02*
X127500000Y-112450000D01*
X126345000Y-91095000D02*
X126825000Y-91095000D01*
X127500000Y-112450000D02*
X129500000Y-112450000D01*
X131800000Y-77000000D02*
X132000000Y-77000000D01*
%TO.N,VDD*%
X127500000Y-110550000D02*
X126800000Y-110550000D01*
X131250000Y-100500000D02*
X131270000Y-100520000D01*
X131270000Y-100520000D02*
X131270000Y-95980000D01*
X131270000Y-101350000D02*
X131270000Y-100520000D01*
X132345000Y-94905000D02*
X133175000Y-94905000D01*
X131270000Y-101350000D02*
X131270000Y-103230000D01*
X124350000Y-101399976D02*
X123999976Y-101750000D01*
X125500000Y-110000000D02*
X125500000Y-108500000D01*
X131500000Y-110250000D02*
X130500000Y-110250000D01*
X126000000Y-106350000D02*
X126650000Y-106350000D01*
X125500000Y-108500000D02*
X126000000Y-108000000D01*
X126000000Y-108000000D02*
X126000000Y-106350000D01*
X124350000Y-100040000D02*
X124350000Y-101399976D01*
X126250000Y-110000000D02*
X125500000Y-110000000D01*
X126650000Y-106350000D02*
X127500000Y-105500000D01*
X131270000Y-95980000D02*
X132345000Y-94905000D01*
X126800000Y-110550000D02*
X126250000Y-110000000D01*
X130500000Y-110250000D02*
X130200000Y-110550000D01*
X130200000Y-110550000D02*
X129500000Y-110550000D01*
X127500000Y-110550000D02*
X129500000Y-110550000D01*
X122250000Y-110000000D02*
X125500000Y-110000000D01*
X131270000Y-103230000D02*
X130750000Y-103750000D01*
%TO.N,Net-(C5-Pad2)*%
X125000000Y-92450000D02*
X126740000Y-92450000D01*
X126740000Y-92450000D02*
X126825000Y-92365000D01*
%TO.N,Net-(C6-Pad1)*%
X134499990Y-115000000D02*
X134750000Y-114749990D01*
X133450000Y-115000000D02*
X134499990Y-115000000D01*
%TO.N,Net-(C7-Pad2)*%
X126000000Y-87500000D02*
X124500000Y-87500000D01*
X124100000Y-94100000D02*
X123000000Y-94100000D01*
X123000000Y-94000000D02*
X122000000Y-93000000D01*
X122000000Y-93000000D02*
X122000000Y-91500000D01*
X124500000Y-87500000D02*
X124000000Y-88000000D01*
X126770000Y-86730000D02*
X126000000Y-87500000D01*
X126000000Y-87500000D02*
X125500000Y-87500000D01*
X122000000Y-91200000D02*
X122000000Y-91500000D01*
X126000000Y-84000000D02*
X126000000Y-87500000D01*
X124905000Y-94905000D02*
X124100000Y-94100000D01*
X124000000Y-89200000D02*
X122000000Y-91200000D01*
X124000000Y-88000000D02*
X124000000Y-89200000D01*
X123000000Y-94100000D02*
X123000000Y-94000000D01*
X122000000Y-91500000D02*
X122000000Y-91264998D01*
X126825000Y-94905000D02*
X124905000Y-94905000D01*
X128750000Y-86730000D02*
X126770000Y-86730000D01*
%TO.N,Net-(C7-Pad1)*%
X129274999Y-76289997D02*
X129274999Y-72710003D01*
X129274999Y-72710003D02*
X129275001Y-72710001D01*
X127460000Y-68860000D02*
X128600000Y-70000000D01*
X127460000Y-67250000D02*
X127460000Y-68860000D01*
X129275001Y-71289999D02*
X129274999Y-71289997D01*
X129275001Y-72710001D02*
X129275001Y-71289999D01*
X129274999Y-77710003D02*
X129275001Y-77710001D01*
X122000000Y-83750000D02*
X124250000Y-81500000D01*
X129275001Y-76289999D02*
X129274999Y-76289997D01*
X122000000Y-84000000D02*
X122000000Y-87500000D01*
X128600000Y-70587500D02*
X128600000Y-70000000D01*
X122000000Y-84000000D02*
X122000000Y-83750000D01*
X129275001Y-77710001D02*
X129275001Y-76289999D01*
X121500000Y-83750000D02*
X121500000Y-84000000D01*
X129274999Y-79725001D02*
X129274999Y-77710003D01*
X124250000Y-81500000D02*
X127500000Y-81500000D01*
X127500000Y-81500000D02*
X129274999Y-79725001D01*
X129274999Y-71262499D02*
X128600000Y-70587500D01*
X129274999Y-71289997D02*
X129274999Y-71262499D01*
%TO.N,Net-(C10-Pad2)*%
X136000000Y-89200000D02*
X136750000Y-89950000D01*
X134000000Y-87500000D02*
X134250000Y-87500000D01*
X134900000Y-93100000D02*
X135750000Y-93100000D01*
X133230000Y-86730000D02*
X134000000Y-87500000D01*
X136750000Y-89950000D02*
X136750000Y-92100000D01*
X136750000Y-92100000D02*
X135750000Y-93100000D01*
X135300000Y-87500000D02*
X136000000Y-88200000D01*
X131250000Y-86730000D02*
X133230000Y-86730000D01*
X136000000Y-88200000D02*
X136000000Y-89200000D01*
X134000000Y-87500000D02*
X135300000Y-87500000D01*
X133175000Y-93635000D02*
X134365000Y-93635000D01*
X134000000Y-84000000D02*
X134000000Y-87500000D01*
X134365000Y-93635000D02*
X134900000Y-93100000D01*
%TO.N,Net-(C10-Pad1)*%
X138500000Y-87750000D02*
X138500000Y-87500000D01*
X131500000Y-81500000D02*
X135750000Y-81500000D01*
X130750000Y-80750000D02*
X131500000Y-81500000D01*
X130000000Y-68600000D02*
X131400000Y-70000000D01*
X138000000Y-83750000D02*
X138000000Y-84000000D01*
X131400000Y-70850000D02*
X130750000Y-71500000D01*
X138500000Y-83875000D02*
X138500000Y-84000000D01*
X131400000Y-69750000D02*
X131250000Y-69750000D01*
X130750000Y-71500000D02*
X130750000Y-80750000D01*
X130000000Y-67250000D02*
X130000000Y-68600000D01*
X138000000Y-84000000D02*
X138000000Y-87500000D01*
X131400000Y-70000000D02*
X131400000Y-70850000D01*
X135750000Y-81500000D02*
X138000000Y-83750000D01*
%TO.N,/DEPTH*%
X123700000Y-77000000D02*
X125000000Y-77000000D01*
X125000000Y-77000000D02*
X126150000Y-77000000D01*
%TO.N,/FREQ*%
X134900000Y-77000000D02*
X133700000Y-77000000D01*
X136150000Y-77000000D02*
X134900000Y-77000000D01*
%TO.N,/SELECT*%
X125000000Y-72000000D02*
X126150000Y-72000000D01*
X123750000Y-72000000D02*
X125000000Y-72000000D01*
%TO.N,Net-(D2-Pad2)*%
X126000000Y-104150000D02*
X123690000Y-104150000D01*
X123690000Y-104150000D02*
X123500000Y-103960000D01*
%TO.N,Net-(D3-Pad2)*%
X136390000Y-103960000D02*
X136500000Y-103960000D01*
X134250000Y-106100000D02*
X136390000Y-103960000D01*
%TO.N,Net-(D6-Pad1)*%
X133500000Y-110400000D02*
X134200000Y-110400000D01*
X135500000Y-113373000D02*
X134873000Y-114000000D01*
X129270000Y-114375000D02*
X129270000Y-115000000D01*
X132400000Y-107650000D02*
X131270000Y-107650000D01*
X129645000Y-114000000D02*
X129270000Y-114375000D01*
X135500000Y-111700000D02*
X135500000Y-113373000D01*
X133500000Y-108750000D02*
X132400000Y-107650000D01*
X134200000Y-110400000D02*
X135500000Y-111700000D01*
X133500000Y-108750000D02*
X133500000Y-110400000D01*
X134873000Y-114000000D02*
X129645000Y-114000000D01*
%TO.N,Net-(D6-Pad2)*%
X126730000Y-115000000D02*
X125500000Y-115000000D01*
X128730000Y-107650000D02*
X128100016Y-107650000D01*
X125500000Y-115000000D02*
X124500000Y-114000000D01*
X128100016Y-107650000D02*
X127250016Y-108500000D01*
%TO.N,Net-(J2-Pad2)*%
X133500000Y-112600000D02*
X134350016Y-112600000D01*
X134350016Y-112600000D02*
X134750000Y-112999984D01*
%TO.N,Net-(R1-Pad1)*%
X126825000Y-93635000D02*
X124624998Y-93635000D01*
X124624998Y-93635000D02*
X123000000Y-92010002D01*
X129725000Y-84500000D02*
X128850000Y-84500000D01*
X123000000Y-92010002D02*
X123000000Y-91900000D01*
X128850000Y-84500000D02*
X128500000Y-84850000D01*
%TO.N,Net-(R2-Pad1)*%
X134285000Y-92365000D02*
X133175000Y-92365000D01*
X130500000Y-85250000D02*
X131100000Y-85250000D01*
X135750000Y-90900000D02*
X134285000Y-92365000D01*
X135750000Y-90900000D02*
X135750000Y-90750000D01*
X131100000Y-85250000D02*
X131500000Y-84850000D01*
%TO.N,/LED*%
X132500000Y-105650000D02*
X132500000Y-105750000D01*
X134250000Y-103900000D02*
X132500000Y-105650000D01*
%TO.N,Net-(R10-Pad2)*%
X124540000Y-79500000D02*
X125881010Y-78158990D01*
X125881010Y-78158990D02*
X127191010Y-78158990D01*
X127191010Y-78158990D02*
X128350000Y-77000000D01*
%TO.N,Net-(R11-Pad2)*%
X135750000Y-79500000D02*
X138250000Y-77000000D01*
X138250000Y-77000000D02*
X138350000Y-77000000D01*
X135500000Y-79500000D02*
X135750000Y-79500000D01*
%TO.N,Net-(R12-Pad2)*%
X127191010Y-73158990D02*
X128350000Y-72000000D01*
X125841010Y-73158990D02*
X127191010Y-73158990D01*
X124500000Y-74500000D02*
X125841010Y-73158990D01*
%TO.N,/MIDI_IN*%
X130000000Y-104073004D02*
X130401998Y-104475002D01*
X130000000Y-101350000D02*
X130000000Y-104073004D01*
X135000000Y-95965685D02*
X135000000Y-95400000D01*
X130401998Y-104475002D02*
X131098002Y-104475002D01*
X131098002Y-104475002D02*
X135000000Y-100573004D01*
X135000000Y-100573004D02*
X135000000Y-95965685D01*
%TO.N,/CLK*%
X129000000Y-97500000D02*
X124350000Y-97500000D01*
%TD*%
%TA.AperFunction,Conductor*%
%TO.N,GND*%
G36*
X136984391Y-65302384D02*
G01*
X137000000Y-65305136D01*
X137010685Y-65303252D01*
X137020339Y-65303252D01*
X137034278Y-65302425D01*
X137134732Y-65308066D01*
X137295296Y-65317084D01*
X137309113Y-65318641D01*
X137593826Y-65367015D01*
X137607384Y-65370109D01*
X137884899Y-65450060D01*
X137898024Y-65454653D01*
X138164834Y-65565170D01*
X138177362Y-65571203D01*
X138317513Y-65648661D01*
X138430132Y-65710903D01*
X138441900Y-65718298D01*
X138677431Y-65885417D01*
X138688303Y-65894086D01*
X138903642Y-66086525D01*
X138913475Y-66096358D01*
X139105914Y-66311697D01*
X139114583Y-66322569D01*
X139281702Y-66558100D01*
X139289097Y-66569868D01*
X139336504Y-66655645D01*
X139428797Y-66822638D01*
X139434830Y-66835166D01*
X139545347Y-67101976D01*
X139549940Y-67115101D01*
X139629891Y-67392616D01*
X139632985Y-67406174D01*
X139681359Y-67690887D01*
X139682916Y-67704704D01*
X139697575Y-67965720D01*
X139696748Y-67979661D01*
X139696748Y-67989315D01*
X139694864Y-68000000D01*
X139696748Y-68010683D01*
X139697616Y-68015606D01*
X139699500Y-68037139D01*
X139699500Y-116962861D01*
X139697616Y-116984391D01*
X139694864Y-117000000D01*
X139696748Y-117010685D01*
X139696748Y-117020339D01*
X139697575Y-117034280D01*
X139682916Y-117295296D01*
X139681359Y-117309113D01*
X139632985Y-117593826D01*
X139629891Y-117607383D01*
X139615207Y-117658353D01*
X139549940Y-117884899D01*
X139545347Y-117898024D01*
X139434830Y-118164834D01*
X139428797Y-118177362D01*
X139378230Y-118268858D01*
X139291621Y-118425567D01*
X139289101Y-118430126D01*
X139281702Y-118441900D01*
X139114583Y-118677431D01*
X139105914Y-118688303D01*
X138913475Y-118903642D01*
X138903642Y-118913475D01*
X138688303Y-119105914D01*
X138677431Y-119114583D01*
X138441900Y-119281702D01*
X138430132Y-119289097D01*
X138378182Y-119317809D01*
X138177362Y-119428797D01*
X138164834Y-119434830D01*
X137898024Y-119545347D01*
X137884899Y-119549940D01*
X137607384Y-119629891D01*
X137593826Y-119632985D01*
X137309113Y-119681359D01*
X137295296Y-119682916D01*
X137134732Y-119691934D01*
X137034278Y-119697575D01*
X137020339Y-119696748D01*
X137010685Y-119696748D01*
X137000000Y-119694864D01*
X136984391Y-119697616D01*
X136962861Y-119699500D01*
X123037139Y-119699500D01*
X123015609Y-119697616D01*
X123000000Y-119694864D01*
X122989315Y-119696748D01*
X122979661Y-119696748D01*
X122965722Y-119697575D01*
X122865268Y-119691934D01*
X122704704Y-119682916D01*
X122690887Y-119681359D01*
X122406174Y-119632985D01*
X122392616Y-119629891D01*
X122115101Y-119549940D01*
X122101976Y-119545347D01*
X121835166Y-119434830D01*
X121822638Y-119428797D01*
X121621818Y-119317809D01*
X121569868Y-119289097D01*
X121558100Y-119281702D01*
X121322569Y-119114583D01*
X121311697Y-119105914D01*
X121096358Y-118913475D01*
X121086525Y-118903642D01*
X120894086Y-118688303D01*
X120885417Y-118677431D01*
X120718298Y-118441900D01*
X120710899Y-118430126D01*
X120708380Y-118425567D01*
X120621770Y-118268858D01*
X120571203Y-118177362D01*
X120565170Y-118164834D01*
X120454653Y-117898024D01*
X120450060Y-117884899D01*
X120384793Y-117658353D01*
X120370109Y-117607383D01*
X120367015Y-117593826D01*
X120318641Y-117309113D01*
X120317084Y-117295296D01*
X120302425Y-117034280D01*
X120303252Y-117020339D01*
X120303252Y-117010685D01*
X120305136Y-117000000D01*
X120694564Y-117000000D01*
X120714287Y-117300920D01*
X120773120Y-117596691D01*
X120774425Y-117600535D01*
X120839869Y-117793326D01*
X120870055Y-117882252D01*
X121003434Y-118152718D01*
X121122922Y-118331545D01*
X121165634Y-118395467D01*
X121170975Y-118403461D01*
X121369811Y-118630189D01*
X121596539Y-118829025D01*
X121847282Y-118996566D01*
X122117748Y-119129945D01*
X122121588Y-119131248D01*
X122121594Y-119131251D01*
X122292169Y-119189153D01*
X122403309Y-119226880D01*
X122699080Y-119285713D01*
X122703121Y-119285978D01*
X122703122Y-119285978D01*
X122922672Y-119300368D01*
X122922680Y-119300368D01*
X122924690Y-119300500D01*
X123075310Y-119300500D01*
X123077320Y-119300368D01*
X123077328Y-119300368D01*
X123296878Y-119285978D01*
X123296879Y-119285978D01*
X123300920Y-119285713D01*
X123596691Y-119226880D01*
X123707831Y-119189153D01*
X123878406Y-119131251D01*
X123878412Y-119131248D01*
X123882252Y-119129945D01*
X124022777Y-119060646D01*
X126295900Y-119060646D01*
X126299018Y-119086846D01*
X126344461Y-119189153D01*
X126423687Y-119268241D01*
X126434158Y-119272870D01*
X126434159Y-119272871D01*
X126517547Y-119309737D01*
X126517549Y-119309738D01*
X126526073Y-119313506D01*
X126551754Y-119316500D01*
X128368246Y-119316500D01*
X128371900Y-119316065D01*
X128371902Y-119316065D01*
X128376866Y-119315474D01*
X128394446Y-119313382D01*
X128496753Y-119267939D01*
X128575841Y-119188713D01*
X128601245Y-119131251D01*
X128617337Y-119094853D01*
X128617338Y-119094851D01*
X128621106Y-119086327D01*
X128624100Y-119060646D01*
X128624100Y-118459226D01*
X128643785Y-118392187D01*
X128696589Y-118346432D01*
X128765747Y-118336488D01*
X128829303Y-118365513D01*
X128867444Y-118425567D01*
X128876937Y-118459226D01*
X128908563Y-118571363D01*
X128911075Y-118576457D01*
X128911077Y-118576462D01*
X128960870Y-118677431D01*
X129003189Y-118763246D01*
X129131199Y-118934672D01*
X129135376Y-118938533D01*
X129200098Y-118998361D01*
X129288305Y-119079899D01*
X129293114Y-119082933D01*
X129293115Y-119082934D01*
X129461463Y-119189153D01*
X129469246Y-119194064D01*
X129667961Y-119273344D01*
X129673542Y-119274454D01*
X129673545Y-119274455D01*
X129772879Y-119294214D01*
X129877797Y-119315083D01*
X129883484Y-119315157D01*
X129883489Y-119315158D01*
X130086038Y-119317809D01*
X130086043Y-119317809D01*
X130091726Y-119317883D01*
X130302582Y-119281651D01*
X130322088Y-119274455D01*
X130497974Y-119209568D01*
X130497977Y-119209567D01*
X130503305Y-119207601D01*
X130687172Y-119098211D01*
X130848026Y-118957146D01*
X130851544Y-118952684D01*
X130976962Y-118793592D01*
X130976965Y-118793588D01*
X130980479Y-118789130D01*
X131080096Y-118599790D01*
X131143540Y-118395467D01*
X131146069Y-118374098D01*
X131173496Y-118309837D01*
X131231311Y-118270604D01*
X131301159Y-118268858D01*
X131360863Y-118305151D01*
X131390413Y-118364620D01*
X131390489Y-118365449D01*
X131392031Y-118370916D01*
X131392031Y-118370917D01*
X131402072Y-118406519D01*
X131448563Y-118571363D01*
X131451075Y-118576457D01*
X131451077Y-118576462D01*
X131500870Y-118677431D01*
X131543189Y-118763246D01*
X131671199Y-118934672D01*
X131675376Y-118938533D01*
X131740098Y-118998361D01*
X131828305Y-119079899D01*
X131833114Y-119082933D01*
X131833115Y-119082934D01*
X132001463Y-119189153D01*
X132009246Y-119194064D01*
X132207961Y-119273344D01*
X132213542Y-119274454D01*
X132213545Y-119274455D01*
X132312879Y-119294214D01*
X132417797Y-119315083D01*
X132423484Y-119315157D01*
X132423489Y-119315158D01*
X132626038Y-119317809D01*
X132626043Y-119317809D01*
X132631726Y-119317883D01*
X132842582Y-119281651D01*
X132862088Y-119274455D01*
X133037974Y-119209568D01*
X133037977Y-119209567D01*
X133043305Y-119207601D01*
X133227172Y-119098211D01*
X133388026Y-118957146D01*
X133391544Y-118952684D01*
X133516962Y-118793592D01*
X133516965Y-118793588D01*
X133520479Y-118789130D01*
X133620096Y-118599790D01*
X133683540Y-118395467D01*
X133687086Y-118365513D01*
X133703672Y-118225370D01*
X133703672Y-118225365D01*
X133704100Y-118221751D01*
X133704100Y-117793326D01*
X133689511Y-117634551D01*
X133631437Y-117428637D01*
X133628925Y-117423543D01*
X133628923Y-117423538D01*
X133539326Y-117241854D01*
X133536811Y-117236754D01*
X133408801Y-117065328D01*
X133251695Y-116920101D01*
X133228617Y-116905540D01*
X133075563Y-116808970D01*
X133075561Y-116808969D01*
X133070754Y-116805936D01*
X132872039Y-116726656D01*
X132866458Y-116725546D01*
X132866455Y-116725545D01*
X132767121Y-116705786D01*
X132662203Y-116684917D01*
X132656516Y-116684843D01*
X132656511Y-116684842D01*
X132453962Y-116682191D01*
X132453957Y-116682191D01*
X132448274Y-116682117D01*
X132237418Y-116718349D01*
X132232085Y-116720317D01*
X132232083Y-116720317D01*
X132042026Y-116790432D01*
X132042023Y-116790433D01*
X132036695Y-116792399D01*
X131852828Y-116901789D01*
X131691974Y-117042854D01*
X131688459Y-117047313D01*
X131688456Y-117047316D01*
X131563038Y-117206408D01*
X131563035Y-117206412D01*
X131559521Y-117210870D01*
X131459904Y-117400210D01*
X131396460Y-117604533D01*
X131395793Y-117610172D01*
X131395792Y-117610175D01*
X131393931Y-117625902D01*
X131366504Y-117690163D01*
X131308689Y-117729396D01*
X131238841Y-117731142D01*
X131179137Y-117694849D01*
X131149587Y-117635380D01*
X131149511Y-117634551D01*
X131147968Y-117629078D01*
X131092980Y-117434109D01*
X131091437Y-117428637D01*
X131088925Y-117423543D01*
X131088923Y-117423538D01*
X130999326Y-117241854D01*
X130996811Y-117236754D01*
X130868801Y-117065328D01*
X130711695Y-116920101D01*
X130688617Y-116905540D01*
X130535563Y-116808970D01*
X130535561Y-116808969D01*
X130530754Y-116805936D01*
X130332039Y-116726656D01*
X130326458Y-116725546D01*
X130326455Y-116725545D01*
X130227121Y-116705786D01*
X130122203Y-116684917D01*
X130116516Y-116684843D01*
X130116511Y-116684842D01*
X129913962Y-116682191D01*
X129913957Y-116682191D01*
X129908274Y-116682117D01*
X129697418Y-116718349D01*
X129692085Y-116720317D01*
X129692083Y-116720317D01*
X129502026Y-116790432D01*
X129502023Y-116790433D01*
X129496695Y-116792399D01*
X129312828Y-116901789D01*
X129151974Y-117042854D01*
X129148459Y-117047313D01*
X129148456Y-117047316D01*
X129023038Y-117206408D01*
X129023035Y-117206412D01*
X129019521Y-117210870D01*
X128919904Y-117400210D01*
X128918218Y-117405641D01*
X128918216Y-117405645D01*
X128866522Y-117572128D01*
X128827843Y-117630315D01*
X128763846Y-117658353D01*
X128694850Y-117647341D01*
X128642760Y-117600775D01*
X128624100Y-117535357D01*
X128624100Y-116939354D01*
X128620982Y-116913154D01*
X128575539Y-116810847D01*
X128496313Y-116731759D01*
X128485842Y-116727130D01*
X128485841Y-116727129D01*
X128402453Y-116690263D01*
X128402451Y-116690262D01*
X128393927Y-116686494D01*
X128368246Y-116683500D01*
X126551754Y-116683500D01*
X126548100Y-116683935D01*
X126548098Y-116683935D01*
X126543134Y-116684526D01*
X126525554Y-116686618D01*
X126423247Y-116732061D01*
X126344159Y-116811287D01*
X126339530Y-116821758D01*
X126339529Y-116821759D01*
X126305434Y-116898881D01*
X126298894Y-116913673D01*
X126295900Y-116939354D01*
X126295900Y-119060646D01*
X124022777Y-119060646D01*
X124152718Y-118996566D01*
X124403461Y-118829025D01*
X124630189Y-118630189D01*
X124829025Y-118403461D01*
X124834367Y-118395467D01*
X124877078Y-118331545D01*
X124996566Y-118152718D01*
X125129945Y-117882252D01*
X125160132Y-117793326D01*
X125225575Y-117600535D01*
X125226880Y-117596691D01*
X125285713Y-117300920D01*
X125305436Y-117000000D01*
X125301227Y-116935788D01*
X125285978Y-116703122D01*
X125285978Y-116703121D01*
X125285713Y-116699080D01*
X125226880Y-116403309D01*
X125129945Y-116117748D01*
X124996566Y-115847282D01*
X124877078Y-115668455D01*
X124831285Y-115599921D01*
X124831283Y-115599919D01*
X124829025Y-115596539D01*
X124630189Y-115369811D01*
X124403461Y-115170975D01*
X124392023Y-115163332D01*
X124210677Y-115042161D01*
X124152718Y-115003434D01*
X123882252Y-114870055D01*
X123878412Y-114868752D01*
X123878406Y-114868749D01*
X123600535Y-114774425D01*
X123596691Y-114773120D01*
X123300920Y-114714287D01*
X123296879Y-114714022D01*
X123296878Y-114714022D01*
X123077328Y-114699632D01*
X123077320Y-114699632D01*
X123075310Y-114699500D01*
X122924690Y-114699500D01*
X122922680Y-114699632D01*
X122922672Y-114699632D01*
X122703122Y-114714022D01*
X122703121Y-114714022D01*
X122699080Y-114714287D01*
X122403309Y-114773120D01*
X122399465Y-114774425D01*
X122121594Y-114868749D01*
X122121588Y-114868752D01*
X122117748Y-114870055D01*
X121847282Y-115003434D01*
X121789323Y-115042161D01*
X121607978Y-115163332D01*
X121596539Y-115170975D01*
X121369811Y-115369811D01*
X121170975Y-115596539D01*
X121168717Y-115599919D01*
X121168715Y-115599921D01*
X121122922Y-115668455D01*
X121003434Y-115847282D01*
X120870055Y-116117748D01*
X120773120Y-116403309D01*
X120714287Y-116699080D01*
X120714022Y-116703121D01*
X120714022Y-116703122D01*
X120698773Y-116935788D01*
X120694564Y-117000000D01*
X120305136Y-117000000D01*
X120302384Y-116984391D01*
X120300500Y-116962861D01*
X120300500Y-112705749D01*
X120742357Y-112705749D01*
X120747652Y-112773036D01*
X120749170Y-112782621D01*
X120802603Y-113005182D01*
X120805604Y-113014418D01*
X120893191Y-113225874D01*
X120897606Y-113234537D01*
X121017191Y-113429681D01*
X121022902Y-113437543D01*
X121171550Y-113611588D01*
X121178412Y-113618450D01*
X121352457Y-113767098D01*
X121360319Y-113772809D01*
X121555463Y-113892394D01*
X121564126Y-113896809D01*
X121775582Y-113984396D01*
X121784818Y-113987397D01*
X122007379Y-114040830D01*
X122016964Y-114042348D01*
X122082229Y-114047484D01*
X122097077Y-114044365D01*
X122100000Y-114033083D01*
X122100000Y-114031053D01*
X122400000Y-114031053D01*
X122404276Y-114045616D01*
X122415749Y-114047643D01*
X122483036Y-114042348D01*
X122492621Y-114040830D01*
X122693464Y-113992611D01*
X123794394Y-113992611D01*
X123795214Y-114000039D01*
X123795214Y-114000041D01*
X123803506Y-114075147D01*
X123812999Y-114161135D01*
X123815565Y-114168147D01*
X123815566Y-114168151D01*
X123862534Y-114296495D01*
X123871266Y-114320356D01*
X123875433Y-114326558D01*
X123875435Y-114326561D01*
X123878595Y-114331263D01*
X123965830Y-114461083D01*
X123971360Y-114466115D01*
X124085702Y-114570159D01*
X124085706Y-114570162D01*
X124091233Y-114575191D01*
X124240235Y-114656092D01*
X124335585Y-114681107D01*
X124397005Y-114697220D01*
X124397007Y-114697220D01*
X124404233Y-114699116D01*
X124550232Y-114701409D01*
X124616953Y-114722144D01*
X124635965Y-114737713D01*
X125246780Y-115348528D01*
X125255473Y-115352957D01*
X125268291Y-115359488D01*
X125284882Y-115369654D01*
X125304420Y-115383850D01*
X125313704Y-115386866D01*
X125313705Y-115386867D01*
X125327383Y-115391311D01*
X125345357Y-115398755D01*
X125366874Y-115409719D01*
X125376515Y-115411246D01*
X125390726Y-115413497D01*
X125409636Y-115418037D01*
X125432607Y-115425500D01*
X125742977Y-115425500D01*
X125810016Y-115445185D01*
X125856301Y-115499164D01*
X125878061Y-115548153D01*
X125957287Y-115627241D01*
X125967758Y-115631870D01*
X125967759Y-115631871D01*
X126051147Y-115668737D01*
X126051149Y-115668738D01*
X126059673Y-115672506D01*
X126085354Y-115675500D01*
X127374646Y-115675500D01*
X127378300Y-115675065D01*
X127378302Y-115675065D01*
X127383266Y-115674474D01*
X127400846Y-115672382D01*
X127503153Y-115626939D01*
X127582241Y-115547713D01*
X127614059Y-115475744D01*
X127623737Y-115453853D01*
X127623738Y-115453851D01*
X127627506Y-115445327D01*
X127630500Y-115419646D01*
X127630500Y-114580354D01*
X127627382Y-114554154D01*
X127581939Y-114451847D01*
X127502713Y-114372759D01*
X127492242Y-114368130D01*
X127492241Y-114368129D01*
X127408853Y-114331263D01*
X127408851Y-114331262D01*
X127400327Y-114327494D01*
X127374646Y-114324500D01*
X126085354Y-114324500D01*
X126081700Y-114324935D01*
X126081698Y-114324935D01*
X126076734Y-114325526D01*
X126059154Y-114327618D01*
X125956847Y-114373061D01*
X125877759Y-114452287D01*
X125873130Y-114462756D01*
X125873128Y-114462760D01*
X125856383Y-114500638D01*
X125811273Y-114553994D01*
X125742972Y-114574500D01*
X125727610Y-114574500D01*
X125660571Y-114554815D01*
X125639929Y-114538181D01*
X125238218Y-114136470D01*
X125204733Y-114075147D01*
X125203136Y-114031316D01*
X125203174Y-114031053D01*
X125205490Y-114014778D01*
X125205645Y-114000000D01*
X125203757Y-113984396D01*
X125186175Y-113839105D01*
X125186174Y-113839101D01*
X125185276Y-113831680D01*
X125176264Y-113807830D01*
X125170981Y-113738162D01*
X125204202Y-113676696D01*
X125265381Y-113642948D01*
X125292259Y-113640000D01*
X125332170Y-113640000D01*
X125347169Y-113635596D01*
X125348356Y-113634226D01*
X125350000Y-113626668D01*
X125350000Y-113622170D01*
X125650000Y-113622170D01*
X125654404Y-113637169D01*
X125655774Y-113638356D01*
X125663332Y-113640000D01*
X125918972Y-113640000D01*
X125925669Y-113639637D01*
X125975744Y-113634197D01*
X125990753Y-113630629D01*
X126109311Y-113586183D01*
X126124646Y-113577788D01*
X126225124Y-113502484D01*
X126237484Y-113490124D01*
X126312788Y-113389646D01*
X126321183Y-113374311D01*
X126365629Y-113255753D01*
X126369197Y-113240744D01*
X126374637Y-113190669D01*
X126375000Y-113183972D01*
X126375000Y-113093972D01*
X126625000Y-113093972D01*
X126625363Y-113100669D01*
X126630803Y-113150744D01*
X126634371Y-113165753D01*
X126678817Y-113284311D01*
X126687212Y-113299646D01*
X126762516Y-113400124D01*
X126774876Y-113412484D01*
X126875354Y-113487788D01*
X126890689Y-113496183D01*
X127009247Y-113540629D01*
X127024256Y-113544197D01*
X127074331Y-113549637D01*
X127081028Y-113550000D01*
X127332170Y-113550000D01*
X127347169Y-113545596D01*
X127348356Y-113544226D01*
X127350000Y-113536668D01*
X127350000Y-113532170D01*
X127650000Y-113532170D01*
X127654404Y-113547169D01*
X127655774Y-113548356D01*
X127663332Y-113550000D01*
X127918972Y-113550000D01*
X127925669Y-113549637D01*
X127975744Y-113544197D01*
X127990753Y-113540629D01*
X128109311Y-113496183D01*
X128124646Y-113487788D01*
X128225124Y-113412484D01*
X128237484Y-113400124D01*
X128312788Y-113299646D01*
X128321183Y-113284311D01*
X128365629Y-113165753D01*
X128369197Y-113150744D01*
X128374637Y-113100669D01*
X128375000Y-113093972D01*
X128375000Y-112617830D01*
X128370596Y-112602831D01*
X128369226Y-112601644D01*
X128361668Y-112600000D01*
X127667830Y-112600000D01*
X127652831Y-112604404D01*
X127651644Y-112605774D01*
X127650000Y-112613332D01*
X127650000Y-113532170D01*
X127350000Y-113532170D01*
X127350000Y-112617830D01*
X127345596Y-112602831D01*
X127344226Y-112601644D01*
X127336668Y-112600000D01*
X126642830Y-112600000D01*
X126627831Y-112604404D01*
X126626644Y-112605774D01*
X126625000Y-112613332D01*
X126625000Y-113093972D01*
X126375000Y-113093972D01*
X126375000Y-112707830D01*
X126370596Y-112692831D01*
X126369226Y-112691644D01*
X126361668Y-112690000D01*
X125667830Y-112690000D01*
X125652831Y-112694404D01*
X125651644Y-112695774D01*
X125650000Y-112703332D01*
X125650000Y-113622170D01*
X125350000Y-113622170D01*
X125350000Y-112707830D01*
X125345596Y-112692831D01*
X125344226Y-112691644D01*
X125336668Y-112690000D01*
X124642830Y-112690000D01*
X124627831Y-112694404D01*
X124626644Y-112695774D01*
X124625000Y-112703332D01*
X124625000Y-113175460D01*
X124605315Y-113242499D01*
X124552511Y-113288254D01*
X124500352Y-113299458D01*
X124445804Y-113299172D01*
X124426367Y-113299070D01*
X124426366Y-113299070D01*
X124418895Y-113299031D01*
X124411631Y-113300775D01*
X124261295Y-113336868D01*
X124261293Y-113336869D01*
X124254032Y-113338612D01*
X124247399Y-113342035D01*
X124247395Y-113342037D01*
X124187110Y-113373153D01*
X124103369Y-113416375D01*
X124097737Y-113421288D01*
X124010509Y-113497382D01*
X123975604Y-113527831D01*
X123878113Y-113666547D01*
X123816524Y-113824513D01*
X123815548Y-113831923D01*
X123815548Y-113831925D01*
X123807006Y-113896809D01*
X123794394Y-113992611D01*
X122693464Y-113992611D01*
X122715182Y-113987397D01*
X122724418Y-113984396D01*
X122935874Y-113896809D01*
X122944537Y-113892394D01*
X123139681Y-113772809D01*
X123147543Y-113767098D01*
X123321588Y-113618450D01*
X123328450Y-113611588D01*
X123477098Y-113437543D01*
X123482809Y-113429681D01*
X123602394Y-113234537D01*
X123606809Y-113225874D01*
X123694396Y-113014418D01*
X123697397Y-113005182D01*
X123750830Y-112782621D01*
X123752348Y-112773036D01*
X123757484Y-112707771D01*
X123754365Y-112692923D01*
X123743083Y-112690000D01*
X122417830Y-112690000D01*
X122402831Y-112694404D01*
X122401644Y-112695774D01*
X122400000Y-112703332D01*
X122400000Y-114031053D01*
X122100000Y-114031053D01*
X122100000Y-112707830D01*
X122095596Y-112692831D01*
X122094226Y-112691644D01*
X122086668Y-112690000D01*
X120758947Y-112690000D01*
X120744384Y-112694276D01*
X120742357Y-112705749D01*
X120300500Y-112705749D01*
X120300500Y-112372229D01*
X120742516Y-112372229D01*
X120745635Y-112387077D01*
X120756917Y-112390000D01*
X123741053Y-112390000D01*
X123755616Y-112385724D01*
X123757643Y-112374251D01*
X123757479Y-112372170D01*
X124625000Y-112372170D01*
X124629404Y-112387169D01*
X124630774Y-112388356D01*
X124638332Y-112390000D01*
X125332170Y-112390000D01*
X125347169Y-112385596D01*
X125348356Y-112384226D01*
X125350000Y-112376668D01*
X125350000Y-112372170D01*
X125650000Y-112372170D01*
X125654404Y-112387169D01*
X125655774Y-112388356D01*
X125663332Y-112390000D01*
X126357170Y-112390000D01*
X126372169Y-112385596D01*
X126373356Y-112384226D01*
X126375000Y-112376668D01*
X126375000Y-111896028D01*
X126374637Y-111889331D01*
X126369197Y-111839256D01*
X126365629Y-111824247D01*
X126321183Y-111705689D01*
X126312788Y-111690354D01*
X126237484Y-111589876D01*
X126225124Y-111577516D01*
X126124646Y-111502212D01*
X126109311Y-111493817D01*
X125990753Y-111449371D01*
X125975744Y-111445803D01*
X125925669Y-111440363D01*
X125918972Y-111440000D01*
X125667830Y-111440000D01*
X125652831Y-111444404D01*
X125651644Y-111445774D01*
X125650000Y-111453332D01*
X125650000Y-112372170D01*
X125350000Y-112372170D01*
X125350000Y-111457830D01*
X125345596Y-111442831D01*
X125344226Y-111441644D01*
X125336668Y-111440000D01*
X125081028Y-111440000D01*
X125074331Y-111440363D01*
X125024256Y-111445803D01*
X125009247Y-111449371D01*
X124890689Y-111493817D01*
X124875354Y-111502212D01*
X124774876Y-111577516D01*
X124762516Y-111589876D01*
X124687212Y-111690354D01*
X124678817Y-111705689D01*
X124634371Y-111824247D01*
X124630803Y-111839256D01*
X124625363Y-111889331D01*
X124625000Y-111896028D01*
X124625000Y-112372170D01*
X123757479Y-112372170D01*
X123752348Y-112306964D01*
X123750830Y-112297379D01*
X123697397Y-112074818D01*
X123694396Y-112065582D01*
X123606809Y-111854126D01*
X123602394Y-111845463D01*
X123482809Y-111650319D01*
X123477097Y-111642457D01*
X123342710Y-111485108D01*
X123314140Y-111421347D01*
X123324578Y-111352261D01*
X123370708Y-111299785D01*
X123386662Y-111291255D01*
X123439153Y-111267939D01*
X123518241Y-111188713D01*
X123525315Y-111172713D01*
X123559737Y-111094853D01*
X123559738Y-111094851D01*
X123563506Y-111086327D01*
X123566500Y-111060646D01*
X123566500Y-110549500D01*
X123586185Y-110482461D01*
X123638989Y-110436706D01*
X123690500Y-110425500D01*
X124700500Y-110425500D01*
X124767539Y-110445185D01*
X124813294Y-110497989D01*
X124824500Y-110549500D01*
X124824500Y-110644646D01*
X124827618Y-110670846D01*
X124873061Y-110773153D01*
X124952287Y-110852241D01*
X124962758Y-110856870D01*
X124962759Y-110856871D01*
X125046147Y-110893737D01*
X125046149Y-110893738D01*
X125054673Y-110897506D01*
X125080354Y-110900500D01*
X125919646Y-110900500D01*
X125923300Y-110900065D01*
X125923302Y-110900065D01*
X125928266Y-110899474D01*
X125945846Y-110897382D01*
X126048153Y-110851939D01*
X126127241Y-110772713D01*
X126144130Y-110734511D01*
X126189241Y-110681156D01*
X126256037Y-110660660D01*
X126323311Y-110679530D01*
X126345222Y-110696970D01*
X126546780Y-110898528D01*
X126568297Y-110909491D01*
X126584881Y-110919654D01*
X126596527Y-110928116D01*
X126596531Y-110928118D01*
X126604419Y-110933849D01*
X126613698Y-110936864D01*
X126627384Y-110941311D01*
X126645353Y-110948754D01*
X126666874Y-110959719D01*
X126676511Y-110961245D01*
X126676513Y-110961246D01*
X126690721Y-110963496D01*
X126709636Y-110968036D01*
X126732607Y-110975500D01*
X126732608Y-110975500D01*
X126731914Y-110977637D01*
X126783037Y-111001875D01*
X126819965Y-111061188D01*
X126824500Y-111094415D01*
X126824500Y-111194646D01*
X126827618Y-111220846D01*
X126858892Y-111291253D01*
X126863201Y-111300955D01*
X126872425Y-111370213D01*
X126842741Y-111433463D01*
X126824243Y-111450516D01*
X126774880Y-111487512D01*
X126762516Y-111499876D01*
X126687212Y-111600354D01*
X126678817Y-111615689D01*
X126634371Y-111734247D01*
X126630803Y-111749256D01*
X126625363Y-111799331D01*
X126625000Y-111806028D01*
X126625000Y-112282170D01*
X126629404Y-112297169D01*
X126630774Y-112298356D01*
X126638332Y-112300000D01*
X128357170Y-112300000D01*
X128372169Y-112295596D01*
X128373356Y-112294226D01*
X128375000Y-112286668D01*
X128375000Y-111806028D01*
X128374637Y-111799331D01*
X128369197Y-111749256D01*
X128365629Y-111734247D01*
X128321183Y-111615689D01*
X128312788Y-111600354D01*
X128237484Y-111499876D01*
X128225124Y-111487516D01*
X128175803Y-111450552D01*
X128133963Y-111394595D01*
X128129017Y-111324900D01*
X128136758Y-111301187D01*
X128168737Y-111228853D01*
X128168738Y-111228851D01*
X128172506Y-111220327D01*
X128175500Y-111194646D01*
X128175500Y-111099500D01*
X128195185Y-111032461D01*
X128247989Y-110986706D01*
X128299500Y-110975500D01*
X128700500Y-110975500D01*
X128767539Y-110995185D01*
X128813294Y-111047989D01*
X128824500Y-111099500D01*
X128824500Y-111194646D01*
X128827618Y-111220846D01*
X128858892Y-111291253D01*
X128863201Y-111300955D01*
X128872425Y-111370213D01*
X128842741Y-111433463D01*
X128824243Y-111450516D01*
X128774880Y-111487512D01*
X128762516Y-111499876D01*
X128687212Y-111600354D01*
X128678817Y-111615689D01*
X128634371Y-111734247D01*
X128630803Y-111749256D01*
X128625363Y-111799331D01*
X128625000Y-111806028D01*
X128625000Y-112282170D01*
X128629404Y-112297169D01*
X128630774Y-112298356D01*
X128638332Y-112300000D01*
X129526000Y-112300000D01*
X129593039Y-112319685D01*
X129638794Y-112372489D01*
X129650000Y-112424000D01*
X129650000Y-112476000D01*
X129630315Y-112543039D01*
X129577511Y-112588794D01*
X129526000Y-112600000D01*
X128642830Y-112600000D01*
X128627831Y-112604404D01*
X128626644Y-112605774D01*
X128625000Y-112613332D01*
X128625000Y-113093972D01*
X128625363Y-113100669D01*
X128630803Y-113150744D01*
X128634371Y-113165753D01*
X128678817Y-113284311D01*
X128687212Y-113299646D01*
X128762516Y-113400124D01*
X128774876Y-113412484D01*
X128875354Y-113487788D01*
X128890689Y-113496183D01*
X129009247Y-113540629D01*
X129024256Y-113544197D01*
X129074331Y-113549637D01*
X129081028Y-113550000D01*
X129193891Y-113550000D01*
X129260930Y-113569685D01*
X129306685Y-113622489D01*
X129316629Y-113691647D01*
X129287604Y-113755203D01*
X129281573Y-113761680D01*
X129016780Y-114026472D01*
X128921472Y-114121780D01*
X128910509Y-114143297D01*
X128900346Y-114159881D01*
X128891884Y-114171527D01*
X128891882Y-114171531D01*
X128886151Y-114179419D01*
X128883136Y-114188698D01*
X128878689Y-114202384D01*
X128871246Y-114220353D01*
X128860281Y-114241874D01*
X128860127Y-114242844D01*
X128823440Y-114296495D01*
X128759081Y-114323692D01*
X128744948Y-114324500D01*
X128625354Y-114324500D01*
X128621700Y-114324935D01*
X128621698Y-114324935D01*
X128616734Y-114325526D01*
X128599154Y-114327618D01*
X128496847Y-114373061D01*
X128417759Y-114452287D01*
X128413130Y-114462758D01*
X128413129Y-114462759D01*
X128411646Y-114466115D01*
X128372494Y-114554673D01*
X128369500Y-114580354D01*
X128369500Y-115419646D01*
X128372618Y-115445846D01*
X128418061Y-115548153D01*
X128497287Y-115627241D01*
X128507758Y-115631870D01*
X128507759Y-115631871D01*
X128591147Y-115668737D01*
X128591149Y-115668738D01*
X128599673Y-115672506D01*
X128625354Y-115675500D01*
X129914646Y-115675500D01*
X129918300Y-115675065D01*
X129918302Y-115675065D01*
X129923266Y-115674474D01*
X129940846Y-115672382D01*
X130043153Y-115626939D01*
X130122241Y-115547713D01*
X130154059Y-115475744D01*
X130163737Y-115453853D01*
X130163738Y-115453851D01*
X130167506Y-115445327D01*
X130170500Y-115419646D01*
X130170500Y-115418972D01*
X130450000Y-115418972D01*
X130450363Y-115425669D01*
X130455803Y-115475744D01*
X130459371Y-115490753D01*
X130503817Y-115609311D01*
X130512212Y-115624646D01*
X130587516Y-115725124D01*
X130599876Y-115737484D01*
X130700354Y-115812788D01*
X130715689Y-115821183D01*
X130834247Y-115865629D01*
X130849256Y-115869197D01*
X130899331Y-115874637D01*
X130906028Y-115875000D01*
X131382170Y-115875000D01*
X131397169Y-115870596D01*
X131398356Y-115869226D01*
X131400000Y-115861668D01*
X131400000Y-115167830D01*
X131395596Y-115152831D01*
X131394226Y-115151644D01*
X131386668Y-115150000D01*
X130467830Y-115150000D01*
X130452831Y-115154404D01*
X130451644Y-115155774D01*
X130450000Y-115163332D01*
X130450000Y-115418972D01*
X130170500Y-115418972D01*
X130170500Y-114580354D01*
X130168572Y-114564154D01*
X130180196Y-114495258D01*
X130227223Y-114443584D01*
X130291703Y-114425500D01*
X130328330Y-114425500D01*
X130395369Y-114445185D01*
X130441124Y-114497989D01*
X130451605Y-114562890D01*
X130450363Y-114574326D01*
X130450000Y-114581028D01*
X130450000Y-114832170D01*
X130454404Y-114847169D01*
X130455774Y-114848356D01*
X130463332Y-114850000D01*
X131576000Y-114850000D01*
X131643039Y-114869685D01*
X131688794Y-114922489D01*
X131700000Y-114974000D01*
X131700000Y-115857170D01*
X131704404Y-115872169D01*
X131705774Y-115873356D01*
X131713332Y-115875000D01*
X132193972Y-115875000D01*
X132200669Y-115874637D01*
X132250744Y-115869197D01*
X132265753Y-115865629D01*
X132384311Y-115821183D01*
X132399646Y-115812788D01*
X132500124Y-115737484D01*
X132512484Y-115725124D01*
X132549448Y-115675803D01*
X132605405Y-115633963D01*
X132675100Y-115629017D01*
X132698813Y-115636758D01*
X132771147Y-115668737D01*
X132771149Y-115668738D01*
X132779673Y-115672506D01*
X132805354Y-115675500D01*
X134094646Y-115675500D01*
X134098300Y-115675065D01*
X134098302Y-115675065D01*
X134103266Y-115674474D01*
X134120846Y-115672382D01*
X134223153Y-115626939D01*
X134302241Y-115547713D01*
X134306871Y-115537241D01*
X134306872Y-115537240D01*
X134323617Y-115499362D01*
X134368727Y-115446006D01*
X134437028Y-115425500D01*
X134548258Y-115425500D01*
X134579724Y-115429559D01*
X134647005Y-115447210D01*
X134647007Y-115447210D01*
X134654233Y-115449106D01*
X134737178Y-115450409D01*
X134816290Y-115451652D01*
X134816293Y-115451652D01*
X134823760Y-115451769D01*
X134979703Y-115416054D01*
X134981738Y-115415588D01*
X134981739Y-115415588D01*
X134989029Y-115413918D01*
X135032517Y-115392046D01*
X135101252Y-115379509D01*
X135165854Y-115406124D01*
X135205811Y-115463440D01*
X135208439Y-115533260D01*
X135181461Y-115584582D01*
X135170975Y-115596539D01*
X135168717Y-115599919D01*
X135168715Y-115599921D01*
X135122922Y-115668455D01*
X135003434Y-115847282D01*
X134870055Y-116117748D01*
X134773120Y-116403309D01*
X134714287Y-116699080D01*
X134714022Y-116703121D01*
X134714022Y-116703122D01*
X134698773Y-116935788D01*
X134694564Y-117000000D01*
X134714287Y-117300920D01*
X134773120Y-117596691D01*
X134774425Y-117600535D01*
X134839869Y-117793326D01*
X134870055Y-117882252D01*
X135003434Y-118152718D01*
X135122922Y-118331545D01*
X135165634Y-118395467D01*
X135170975Y-118403461D01*
X135369811Y-118630189D01*
X135596539Y-118829025D01*
X135847282Y-118996566D01*
X136117748Y-119129945D01*
X136121588Y-119131248D01*
X136121594Y-119131251D01*
X136292169Y-119189153D01*
X136403309Y-119226880D01*
X136699080Y-119285713D01*
X136703121Y-119285978D01*
X136703122Y-119285978D01*
X136922672Y-119300368D01*
X136922680Y-119300368D01*
X136924690Y-119300500D01*
X137075310Y-119300500D01*
X137077320Y-119300368D01*
X137077328Y-119300368D01*
X137296878Y-119285978D01*
X137296879Y-119285978D01*
X137300920Y-119285713D01*
X137596691Y-119226880D01*
X137707831Y-119189153D01*
X137878406Y-119131251D01*
X137878412Y-119131248D01*
X137882252Y-119129945D01*
X138152718Y-118996566D01*
X138403461Y-118829025D01*
X138630189Y-118630189D01*
X138829025Y-118403461D01*
X138834367Y-118395467D01*
X138877078Y-118331545D01*
X138996566Y-118152718D01*
X139129945Y-117882252D01*
X139160132Y-117793326D01*
X139225575Y-117600535D01*
X139226880Y-117596691D01*
X139285713Y-117300920D01*
X139305436Y-117000000D01*
X139301227Y-116935788D01*
X139285978Y-116703122D01*
X139285978Y-116703121D01*
X139285713Y-116699080D01*
X139226880Y-116403309D01*
X139129945Y-116117748D01*
X138996566Y-115847282D01*
X138877078Y-115668455D01*
X138831285Y-115599921D01*
X138831283Y-115599919D01*
X138829025Y-115596539D01*
X138630189Y-115369811D01*
X138403461Y-115170975D01*
X138392023Y-115163332D01*
X138210677Y-115042161D01*
X138152718Y-115003434D01*
X137882252Y-114870055D01*
X137878412Y-114868752D01*
X137878406Y-114868749D01*
X137600535Y-114774425D01*
X137596691Y-114773120D01*
X137300920Y-114714287D01*
X137296879Y-114714022D01*
X137296878Y-114714022D01*
X137077328Y-114699632D01*
X137077320Y-114699632D01*
X137075310Y-114699500D01*
X136924690Y-114699500D01*
X136922680Y-114699632D01*
X136922672Y-114699632D01*
X136703122Y-114714022D01*
X136703121Y-114714022D01*
X136699080Y-114714287D01*
X136403309Y-114773120D01*
X136399465Y-114774425D01*
X136121594Y-114868749D01*
X136121588Y-114868752D01*
X136117748Y-114870055D01*
X135847282Y-115003434D01*
X135789323Y-115042161D01*
X135607978Y-115163332D01*
X135596539Y-115170975D01*
X135593481Y-115173657D01*
X135584378Y-115181640D01*
X135520997Y-115211043D01*
X135451780Y-115201511D01*
X135398705Y-115156071D01*
X135378621Y-115089150D01*
X135387567Y-115042161D01*
X135428815Y-114939554D01*
X135431601Y-114932624D01*
X135432654Y-114925227D01*
X135454918Y-114768790D01*
X135454918Y-114768784D01*
X135455490Y-114764768D01*
X135455645Y-114749990D01*
X135451420Y-114715079D01*
X135436175Y-114589095D01*
X135436174Y-114589091D01*
X135435276Y-114581670D01*
X135402624Y-114495258D01*
X135377989Y-114430063D01*
X135377987Y-114430060D01*
X135375345Y-114423067D01*
X135301920Y-114316233D01*
X135280170Y-114249836D01*
X135297771Y-114182219D01*
X135316430Y-114158318D01*
X135848528Y-113626220D01*
X135859491Y-113604703D01*
X135869654Y-113588119D01*
X135878116Y-113576473D01*
X135878118Y-113576469D01*
X135883849Y-113568581D01*
X135889087Y-113552459D01*
X135891311Y-113545616D01*
X135898754Y-113527647D01*
X135909719Y-113506126D01*
X135912254Y-113490124D01*
X135913496Y-113482279D01*
X135918036Y-113463364D01*
X135925500Y-113440393D01*
X135925500Y-112705749D01*
X136242357Y-112705749D01*
X136247652Y-112773036D01*
X136249170Y-112782621D01*
X136302603Y-113005182D01*
X136305604Y-113014418D01*
X136393191Y-113225874D01*
X136397606Y-113234537D01*
X136517191Y-113429681D01*
X136522902Y-113437543D01*
X136671550Y-113611588D01*
X136678412Y-113618450D01*
X136852457Y-113767098D01*
X136860319Y-113772809D01*
X137055463Y-113892394D01*
X137064126Y-113896809D01*
X137275582Y-113984396D01*
X137284818Y-113987397D01*
X137507379Y-114040830D01*
X137516964Y-114042348D01*
X137582229Y-114047484D01*
X137597077Y-114044365D01*
X137600000Y-114033083D01*
X137600000Y-114031053D01*
X137900000Y-114031053D01*
X137904276Y-114045616D01*
X137915749Y-114047643D01*
X137983036Y-114042348D01*
X137992621Y-114040830D01*
X138215182Y-113987397D01*
X138224418Y-113984396D01*
X138435874Y-113896809D01*
X138444537Y-113892394D01*
X138639681Y-113772809D01*
X138647543Y-113767098D01*
X138821588Y-113618450D01*
X138828450Y-113611588D01*
X138977098Y-113437543D01*
X138982809Y-113429681D01*
X139102394Y-113234537D01*
X139106809Y-113225874D01*
X139194396Y-113014418D01*
X139197397Y-113005182D01*
X139250830Y-112782621D01*
X139252348Y-112773036D01*
X139257484Y-112707771D01*
X139254365Y-112692923D01*
X139243083Y-112690000D01*
X137917830Y-112690000D01*
X137902831Y-112694404D01*
X137901644Y-112695774D01*
X137900000Y-112703332D01*
X137900000Y-114031053D01*
X137600000Y-114031053D01*
X137600000Y-112707830D01*
X137595596Y-112692831D01*
X137594226Y-112691644D01*
X137586668Y-112690000D01*
X136258947Y-112690000D01*
X136244384Y-112694276D01*
X136242357Y-112705749D01*
X135925500Y-112705749D01*
X135925500Y-112372229D01*
X136242516Y-112372229D01*
X136245635Y-112387077D01*
X136256917Y-112390000D01*
X139241053Y-112390000D01*
X139255616Y-112385724D01*
X139257643Y-112374251D01*
X139252348Y-112306964D01*
X139250830Y-112297379D01*
X139197397Y-112074818D01*
X139194396Y-112065582D01*
X139106809Y-111854126D01*
X139102394Y-111845463D01*
X138982809Y-111650319D01*
X138977097Y-111642457D01*
X138842710Y-111485108D01*
X138814140Y-111421347D01*
X138824578Y-111352261D01*
X138870708Y-111299785D01*
X138886662Y-111291255D01*
X138939153Y-111267939D01*
X139018241Y-111188713D01*
X139025315Y-111172713D01*
X139059737Y-111094853D01*
X139059738Y-111094851D01*
X139063506Y-111086327D01*
X139066500Y-111060646D01*
X139066500Y-108939354D01*
X139063382Y-108913154D01*
X139017939Y-108810847D01*
X138938713Y-108731759D01*
X138928242Y-108727130D01*
X138928241Y-108727129D01*
X138844853Y-108690263D01*
X138844851Y-108690262D01*
X138836327Y-108686494D01*
X138810646Y-108683500D01*
X136689354Y-108683500D01*
X136685700Y-108683935D01*
X136685698Y-108683935D01*
X136680734Y-108684526D01*
X136663154Y-108686618D01*
X136560847Y-108732061D01*
X136481759Y-108811287D01*
X136477130Y-108821758D01*
X136477129Y-108821759D01*
X136441682Y-108901939D01*
X136436494Y-108913673D01*
X136433500Y-108939354D01*
X136433500Y-111060646D01*
X136436618Y-111086846D01*
X136482061Y-111189153D01*
X136561287Y-111268241D01*
X136571758Y-111272870D01*
X136571759Y-111272871D01*
X136613139Y-111291165D01*
X136666495Y-111336276D01*
X136686991Y-111403072D01*
X136668121Y-111470345D01*
X136657291Y-111485107D01*
X136522902Y-111642457D01*
X136517191Y-111650319D01*
X136397606Y-111845463D01*
X136393191Y-111854126D01*
X136305604Y-112065582D01*
X136302603Y-112074818D01*
X136249170Y-112297379D01*
X136247652Y-112306964D01*
X136242516Y-112372229D01*
X135925500Y-112372229D01*
X135925500Y-111632607D01*
X135918037Y-111609636D01*
X135913497Y-111590726D01*
X135911246Y-111576513D01*
X135911245Y-111576511D01*
X135909719Y-111566874D01*
X135898757Y-111545359D01*
X135891313Y-111527388D01*
X135886866Y-111513701D01*
X135886866Y-111513700D01*
X135883850Y-111504419D01*
X135878115Y-111496525D01*
X135878113Y-111496522D01*
X135869819Y-111485108D01*
X135869654Y-111484880D01*
X135859490Y-111468295D01*
X135848528Y-111446780D01*
X134453220Y-110051472D01*
X134431703Y-110040509D01*
X134415119Y-110030346D01*
X134403473Y-110021884D01*
X134403469Y-110021882D01*
X134395581Y-110016151D01*
X134372616Y-110008689D01*
X134354647Y-110001246D01*
X134333126Y-109990281D01*
X134332156Y-109990127D01*
X134278505Y-109953440D01*
X134251308Y-109889081D01*
X134250500Y-109874948D01*
X134250500Y-109755354D01*
X134247382Y-109729154D01*
X134201939Y-109626847D01*
X134122713Y-109547759D01*
X134112242Y-109543130D01*
X134112241Y-109543129D01*
X134028858Y-109506265D01*
X134028855Y-109506264D01*
X134020327Y-109502494D01*
X134015063Y-109501880D01*
X133957383Y-109466376D01*
X133927128Y-109403396D01*
X133925500Y-109383367D01*
X133925500Y-108682607D01*
X133918036Y-108659636D01*
X133913496Y-108640721D01*
X133911246Y-108626513D01*
X133911245Y-108626511D01*
X133909719Y-108616874D01*
X133898754Y-108595353D01*
X133891311Y-108577384D01*
X133886864Y-108563698D01*
X133883849Y-108554419D01*
X133878118Y-108546531D01*
X133878116Y-108546527D01*
X133869654Y-108534881D01*
X133859491Y-108518297D01*
X133848528Y-108496780D01*
X132653220Y-107301472D01*
X132631703Y-107290509D01*
X132615119Y-107280346D01*
X132603473Y-107271884D01*
X132603469Y-107271882D01*
X132595581Y-107266151D01*
X132572616Y-107258689D01*
X132554647Y-107251246D01*
X132533126Y-107240281D01*
X132523489Y-107238755D01*
X132523487Y-107238754D01*
X132509279Y-107236504D01*
X132490364Y-107231964D01*
X132467393Y-107224500D01*
X132014500Y-107224500D01*
X131947461Y-107204815D01*
X131901706Y-107152011D01*
X131890500Y-107100500D01*
X131890500Y-106605354D01*
X131887382Y-106579154D01*
X131841939Y-106476847D01*
X131762713Y-106397759D01*
X131752242Y-106393130D01*
X131752241Y-106393129D01*
X131668853Y-106356263D01*
X131668851Y-106356262D01*
X131660327Y-106352494D01*
X131634646Y-106349500D01*
X130905354Y-106349500D01*
X130901700Y-106349935D01*
X130901698Y-106349935D01*
X130896734Y-106350526D01*
X130879154Y-106352618D01*
X130776847Y-106398061D01*
X130697759Y-106477287D01*
X130652494Y-106579673D01*
X130649500Y-106605354D01*
X130649500Y-108694646D01*
X130649935Y-108698300D01*
X130649935Y-108698302D01*
X130650526Y-108703266D01*
X130652618Y-108720846D01*
X130698061Y-108823153D01*
X130777287Y-108902241D01*
X130787758Y-108906870D01*
X130787759Y-108906871D01*
X130871147Y-108943737D01*
X130871149Y-108943738D01*
X130879673Y-108947506D01*
X130905354Y-108950500D01*
X131634646Y-108950500D01*
X131638300Y-108950065D01*
X131638302Y-108950065D01*
X131643266Y-108949474D01*
X131660846Y-108947382D01*
X131763153Y-108901939D01*
X131842241Y-108822713D01*
X131846871Y-108812241D01*
X131883737Y-108728853D01*
X131883738Y-108728851D01*
X131887506Y-108720327D01*
X131890500Y-108694646D01*
X131890500Y-108199500D01*
X131910185Y-108132461D01*
X131962989Y-108086706D01*
X132014500Y-108075500D01*
X132172390Y-108075500D01*
X132239429Y-108095185D01*
X132260071Y-108111819D01*
X133038181Y-108889929D01*
X133071666Y-108951252D01*
X133074500Y-108977610D01*
X133074500Y-109383335D01*
X133054815Y-109450374D01*
X133002011Y-109496129D01*
X132986571Y-109501735D01*
X132979154Y-109502618D01*
X132876847Y-109548061D01*
X132797759Y-109627287D01*
X132793130Y-109637758D01*
X132793129Y-109637759D01*
X132762888Y-109706163D01*
X132752494Y-109729673D01*
X132749500Y-109755354D01*
X132749500Y-111044646D01*
X132752618Y-111070846D01*
X132798061Y-111173153D01*
X132877287Y-111252241D01*
X132887758Y-111256870D01*
X132887759Y-111256871D01*
X132971147Y-111293737D01*
X132971149Y-111293738D01*
X132979673Y-111297506D01*
X133005354Y-111300500D01*
X133994646Y-111300500D01*
X133998300Y-111300065D01*
X133998302Y-111300065D01*
X134003266Y-111299474D01*
X134020846Y-111297382D01*
X134123153Y-111251939D01*
X134131239Y-111243838D01*
X134131243Y-111243836D01*
X134198848Y-111176112D01*
X134260142Y-111142573D01*
X134329838Y-111147496D01*
X134374287Y-111176035D01*
X135038181Y-111839929D01*
X135071666Y-111901252D01*
X135074500Y-111927610D01*
X135074500Y-112200199D01*
X135054815Y-112267238D01*
X135002011Y-112312993D01*
X134932853Y-112322937D01*
X134920299Y-112320465D01*
X134838441Y-112299903D01*
X134701665Y-112299187D01*
X134634730Y-112279152D01*
X134614634Y-112262870D01*
X134603236Y-112251472D01*
X134581719Y-112240509D01*
X134565135Y-112230346D01*
X134553489Y-112221884D01*
X134553485Y-112221882D01*
X134545597Y-112216151D01*
X134522632Y-112208689D01*
X134504663Y-112201246D01*
X134483142Y-112190281D01*
X134473505Y-112188755D01*
X134473503Y-112188754D01*
X134459295Y-112186504D01*
X134440380Y-112181964D01*
X134417409Y-112174500D01*
X134374500Y-112174500D01*
X134307461Y-112154815D01*
X134261706Y-112102011D01*
X134250500Y-112050500D01*
X134250500Y-111955354D01*
X134247382Y-111929154D01*
X134201939Y-111826847D01*
X134122713Y-111747759D01*
X134112242Y-111743130D01*
X134112241Y-111743129D01*
X134028853Y-111706263D01*
X134028851Y-111706262D01*
X134020327Y-111702494D01*
X133994646Y-111699500D01*
X133005354Y-111699500D01*
X133001700Y-111699935D01*
X133001698Y-111699935D01*
X132996734Y-111700526D01*
X132979154Y-111702618D01*
X132876847Y-111748061D01*
X132797759Y-111827287D01*
X132797030Y-111828935D01*
X132747769Y-111869164D01*
X132678350Y-111877086D01*
X132615668Y-111846219D01*
X132583462Y-111798443D01*
X132571182Y-111765687D01*
X132562788Y-111750354D01*
X132487484Y-111649876D01*
X132475124Y-111637516D01*
X132374646Y-111562212D01*
X132359311Y-111553817D01*
X132241389Y-111509610D01*
X132185525Y-111467646D01*
X132161217Y-111402141D01*
X132176183Y-111333893D01*
X132225671Y-111284570D01*
X132234580Y-111280177D01*
X132287691Y-111256586D01*
X132298153Y-111251939D01*
X132377241Y-111172713D01*
X132381871Y-111162241D01*
X132418737Y-111078853D01*
X132418738Y-111078851D01*
X132422506Y-111070327D01*
X132425500Y-111044646D01*
X132425500Y-109455354D01*
X132422382Y-109429154D01*
X132376939Y-109326847D01*
X132297713Y-109247759D01*
X132287242Y-109243130D01*
X132287241Y-109243129D01*
X132203853Y-109206263D01*
X132203851Y-109206262D01*
X132195327Y-109202494D01*
X132169646Y-109199500D01*
X130830354Y-109199500D01*
X130826700Y-109199935D01*
X130826698Y-109199935D01*
X130825228Y-109200110D01*
X130804154Y-109202618D01*
X130701847Y-109248061D01*
X130622759Y-109327287D01*
X130618130Y-109337758D01*
X130618129Y-109337759D01*
X130608763Y-109358946D01*
X130577494Y-109429673D01*
X130574500Y-109455354D01*
X130574500Y-109700500D01*
X130554815Y-109767539D01*
X130502011Y-109813294D01*
X130450500Y-109824500D01*
X130432607Y-109824500D01*
X130409636Y-109831964D01*
X130390721Y-109836504D01*
X130376513Y-109838754D01*
X130376511Y-109838755D01*
X130366874Y-109840281D01*
X130345353Y-109851246D01*
X130327384Y-109858689D01*
X130304419Y-109866151D01*
X130304090Y-109866390D01*
X130240526Y-109878331D01*
X130175784Y-109852057D01*
X130139572Y-109805287D01*
X130131587Y-109787310D01*
X130131586Y-109787308D01*
X130126939Y-109776847D01*
X130047713Y-109697759D01*
X130037242Y-109693130D01*
X130037241Y-109693129D01*
X129953853Y-109656263D01*
X129953851Y-109656262D01*
X129945327Y-109652494D01*
X129919646Y-109649500D01*
X129080354Y-109649500D01*
X129076700Y-109649935D01*
X129076698Y-109649935D01*
X129071734Y-109650526D01*
X129054154Y-109652618D01*
X128951847Y-109698061D01*
X128872759Y-109777287D01*
X128868130Y-109787758D01*
X128868129Y-109787759D01*
X128864783Y-109795329D01*
X128827494Y-109879673D01*
X128824500Y-109905354D01*
X128824500Y-110000500D01*
X128804815Y-110067539D01*
X128752011Y-110113294D01*
X128700500Y-110124500D01*
X128299500Y-110124500D01*
X128232461Y-110104815D01*
X128186706Y-110052011D01*
X128175500Y-110000500D01*
X128175500Y-109905354D01*
X128172382Y-109879154D01*
X128126939Y-109776847D01*
X128047713Y-109697759D01*
X128037242Y-109693130D01*
X128037241Y-109693129D01*
X127953853Y-109656263D01*
X127953851Y-109656262D01*
X127945327Y-109652494D01*
X127919646Y-109649500D01*
X127080354Y-109649500D01*
X127076700Y-109649935D01*
X127076698Y-109649935D01*
X127071734Y-109650526D01*
X127054154Y-109652618D01*
X126951847Y-109698061D01*
X126872759Y-109777287D01*
X126868129Y-109787759D01*
X126861663Y-109797203D01*
X126858926Y-109795329D01*
X126826103Y-109834162D01*
X126759311Y-109854669D01*
X126692034Y-109835809D01*
X126670107Y-109818359D01*
X126503220Y-109651472D01*
X126481703Y-109640509D01*
X126465119Y-109630346D01*
X126453473Y-109621884D01*
X126453469Y-109621882D01*
X126445581Y-109616151D01*
X126422616Y-109608689D01*
X126404647Y-109601246D01*
X126383126Y-109590281D01*
X126373489Y-109588755D01*
X126373487Y-109588754D01*
X126359279Y-109586504D01*
X126340364Y-109581964D01*
X126317393Y-109574500D01*
X126299500Y-109574500D01*
X126232461Y-109554815D01*
X126186706Y-109502011D01*
X126175500Y-109450500D01*
X126175500Y-109355354D01*
X126172382Y-109329154D01*
X126126939Y-109226847D01*
X126047713Y-109147759D01*
X126037244Y-109143130D01*
X126037240Y-109143128D01*
X125999362Y-109126383D01*
X125946006Y-109081273D01*
X125925500Y-109012972D01*
X125925500Y-108727610D01*
X125945185Y-108660571D01*
X125961819Y-108639929D01*
X126348528Y-108253220D01*
X126350084Y-108254776D01*
X126395021Y-108220129D01*
X126464635Y-108214156D01*
X126526427Y-108246766D01*
X126560780Y-108307608D01*
X126562939Y-108351867D01*
X126544410Y-108492611D01*
X126545230Y-108500039D01*
X126545230Y-108500041D01*
X126557169Y-108608183D01*
X126563015Y-108661135D01*
X126565581Y-108668147D01*
X126565582Y-108668151D01*
X126591935Y-108740163D01*
X126621282Y-108820356D01*
X126625449Y-108826558D01*
X126625451Y-108826561D01*
X126678259Y-108905147D01*
X126715846Y-108961083D01*
X126721376Y-108966115D01*
X126835718Y-109070159D01*
X126835722Y-109070162D01*
X126841249Y-109075191D01*
X126990251Y-109156092D01*
X127085601Y-109181107D01*
X127147021Y-109197220D01*
X127147023Y-109197220D01*
X127154249Y-109199116D01*
X127237194Y-109200419D01*
X127316306Y-109201662D01*
X127316309Y-109201662D01*
X127323776Y-109201779D01*
X127446225Y-109173735D01*
X127481754Y-109165598D01*
X127481755Y-109165598D01*
X127489045Y-109163928D01*
X127564127Y-109126166D01*
X127633836Y-109091106D01*
X127633838Y-109091105D01*
X127640514Y-109087747D01*
X127646196Y-109082894D01*
X127646199Y-109082892D01*
X127763757Y-108982487D01*
X127769439Y-108977634D01*
X127868377Y-108839947D01*
X127900185Y-108760823D01*
X127943455Y-108705964D01*
X128009514Y-108683206D01*
X128077391Y-108699776D01*
X128128560Y-108756737D01*
X128158061Y-108823153D01*
X128237287Y-108902241D01*
X128247758Y-108906870D01*
X128247759Y-108906871D01*
X128331147Y-108943737D01*
X128331149Y-108943738D01*
X128339673Y-108947506D01*
X128365354Y-108950500D01*
X129094646Y-108950500D01*
X129098300Y-108950065D01*
X129098302Y-108950065D01*
X129103266Y-108949474D01*
X129120846Y-108947382D01*
X129223153Y-108901939D01*
X129302241Y-108822713D01*
X129306871Y-108812241D01*
X129343737Y-108728853D01*
X129343738Y-108728851D01*
X129347506Y-108720327D01*
X129350500Y-108694646D01*
X129350500Y-106605354D01*
X129347382Y-106579154D01*
X129301939Y-106476847D01*
X129222713Y-106397759D01*
X129212242Y-106393130D01*
X129212241Y-106393129D01*
X129128853Y-106356263D01*
X129128851Y-106356262D01*
X129120327Y-106352494D01*
X129094646Y-106349500D01*
X128365354Y-106349500D01*
X128361700Y-106349935D01*
X128361698Y-106349935D01*
X128356734Y-106350526D01*
X128339154Y-106352618D01*
X128236847Y-106398061D01*
X128157759Y-106477287D01*
X128112494Y-106579673D01*
X128109500Y-106605354D01*
X128109500Y-107109430D01*
X128089815Y-107176469D01*
X128037011Y-107222224D01*
X128023830Y-107227357D01*
X128009650Y-107231964D01*
X127990742Y-107236503D01*
X127990736Y-107236504D01*
X127966890Y-107240281D01*
X127945373Y-107251245D01*
X127927399Y-107258689D01*
X127913721Y-107263133D01*
X127913720Y-107263134D01*
X127904436Y-107266150D01*
X127885698Y-107279764D01*
X127884897Y-107280346D01*
X127868309Y-107290511D01*
X127846796Y-107301472D01*
X127384885Y-107763383D01*
X127323562Y-107796868D01*
X127296558Y-107799700D01*
X127203259Y-107799211D01*
X127176383Y-107799070D01*
X127176382Y-107799070D01*
X127168911Y-107799031D01*
X127161647Y-107800775D01*
X127011311Y-107836868D01*
X127011309Y-107836869D01*
X127004048Y-107838612D01*
X126997415Y-107842035D01*
X126997411Y-107842037D01*
X126930481Y-107876583D01*
X126853385Y-107916375D01*
X126847753Y-107921288D01*
X126821459Y-107944226D01*
X126725620Y-108027831D01*
X126721319Y-108033951D01*
X126721317Y-108033953D01*
X126650950Y-108134074D01*
X126596297Y-108177603D01*
X126526787Y-108184675D01*
X126464487Y-108153044D01*
X126429179Y-108092752D01*
X126425500Y-108062773D01*
X126425500Y-107366665D01*
X126445185Y-107299626D01*
X126497989Y-107253871D01*
X126513429Y-107248265D01*
X126520846Y-107247382D01*
X126540271Y-107238754D01*
X126612691Y-107206586D01*
X126623153Y-107201939D01*
X126702241Y-107122713D01*
X126706871Y-107112241D01*
X126743737Y-107028853D01*
X126743738Y-107028851D01*
X126747506Y-107020327D01*
X126750500Y-106994646D01*
X126750500Y-106854834D01*
X126770185Y-106787795D01*
X126822989Y-106742040D01*
X126836185Y-106736902D01*
X126836303Y-106736864D01*
X126836305Y-106736863D01*
X126845581Y-106733849D01*
X126853469Y-106728118D01*
X126853473Y-106728116D01*
X126865119Y-106719654D01*
X126881703Y-106709491D01*
X126903220Y-106698528D01*
X127365528Y-106236220D01*
X127426851Y-106202735D01*
X127455157Y-106199916D01*
X127566290Y-106201662D01*
X127566293Y-106201662D01*
X127573760Y-106201779D01*
X127696209Y-106173735D01*
X127731738Y-106165598D01*
X127731739Y-106165598D01*
X127739029Y-106163928D01*
X127874053Y-106096018D01*
X127883820Y-106091106D01*
X127883822Y-106091105D01*
X127890498Y-106087747D01*
X127896180Y-106082894D01*
X127896183Y-106082892D01*
X128013741Y-105982487D01*
X128019423Y-105977634D01*
X128118361Y-105839947D01*
X128157490Y-105742611D01*
X131794394Y-105742611D01*
X131795214Y-105750039D01*
X131795214Y-105750041D01*
X131796841Y-105764778D01*
X131812999Y-105911135D01*
X131815565Y-105918147D01*
X131815566Y-105918151D01*
X131827678Y-105951248D01*
X131871266Y-106070356D01*
X131875433Y-106076558D01*
X131875435Y-106076561D01*
X131885209Y-106091106D01*
X131965830Y-106211083D01*
X131971360Y-106216115D01*
X132085702Y-106320159D01*
X132085706Y-106320162D01*
X132091233Y-106325191D01*
X132240235Y-106406092D01*
X132335585Y-106431107D01*
X132397005Y-106447220D01*
X132397007Y-106447220D01*
X132404233Y-106449116D01*
X132487178Y-106450419D01*
X132566290Y-106451662D01*
X132566293Y-106451662D01*
X132573760Y-106451779D01*
X132696209Y-106423735D01*
X132731738Y-106415598D01*
X132731739Y-106415598D01*
X132739029Y-106413928D01*
X132853683Y-106356263D01*
X132883820Y-106341106D01*
X132883822Y-106341105D01*
X132890498Y-106337747D01*
X132896180Y-106332894D01*
X132896183Y-106332892D01*
X133013741Y-106232487D01*
X133019423Y-106227634D01*
X133118361Y-106089947D01*
X133181601Y-105932634D01*
X133205490Y-105764778D01*
X133205645Y-105750000D01*
X133199811Y-105701788D01*
X133190884Y-105628021D01*
X133202372Y-105559102D01*
X133226305Y-105525443D01*
X133287819Y-105463929D01*
X133349142Y-105430444D01*
X133418834Y-105435428D01*
X133474767Y-105477300D01*
X133499184Y-105542764D01*
X133499500Y-105551610D01*
X133499500Y-106744646D01*
X133502618Y-106770846D01*
X133548061Y-106873153D01*
X133627287Y-106952241D01*
X133637758Y-106956870D01*
X133637759Y-106956871D01*
X133721147Y-106993737D01*
X133721149Y-106993738D01*
X133729673Y-106997506D01*
X133755354Y-107000500D01*
X134744646Y-107000500D01*
X134748300Y-107000065D01*
X134748302Y-107000065D01*
X134753266Y-106999474D01*
X134770846Y-106997382D01*
X134825663Y-106973033D01*
X134894922Y-106963809D01*
X134958173Y-106993493D01*
X134995334Y-107052661D01*
X135000000Y-107086357D01*
X135000000Y-107493972D01*
X135000363Y-107500669D01*
X135005803Y-107550744D01*
X135009371Y-107565753D01*
X135053817Y-107684311D01*
X135062212Y-107699646D01*
X135137516Y-107800124D01*
X135149876Y-107812484D01*
X135250354Y-107887788D01*
X135265689Y-107896183D01*
X135384247Y-107940629D01*
X135399256Y-107944197D01*
X135449331Y-107949637D01*
X135456028Y-107950000D01*
X136332170Y-107950000D01*
X136347169Y-107945596D01*
X136348356Y-107944226D01*
X136350000Y-107936668D01*
X136350000Y-107932170D01*
X136650000Y-107932170D01*
X136654404Y-107947169D01*
X136655774Y-107948356D01*
X136663332Y-107950000D01*
X137543972Y-107950000D01*
X137550669Y-107949637D01*
X137600744Y-107944197D01*
X137615753Y-107940629D01*
X137734311Y-107896183D01*
X137749646Y-107887788D01*
X137850124Y-107812484D01*
X137862484Y-107800124D01*
X137937788Y-107699646D01*
X137946183Y-107684311D01*
X137990629Y-107565753D01*
X137994197Y-107550744D01*
X137999637Y-107500669D01*
X138000000Y-107493972D01*
X138000000Y-106667830D01*
X137995596Y-106652831D01*
X137994226Y-106651644D01*
X137986668Y-106650000D01*
X136667830Y-106650000D01*
X136652831Y-106654404D01*
X136651644Y-106655774D01*
X136650000Y-106663332D01*
X136650000Y-107932170D01*
X136350000Y-107932170D01*
X136350000Y-106474000D01*
X136369685Y-106406961D01*
X136422489Y-106361206D01*
X136474000Y-106350000D01*
X137982170Y-106350000D01*
X137997169Y-106345596D01*
X137998356Y-106344226D01*
X138000000Y-106336668D01*
X138000000Y-105506028D01*
X137999637Y-105499331D01*
X137994197Y-105449256D01*
X137990629Y-105434247D01*
X137946183Y-105315689D01*
X137937788Y-105300354D01*
X137862484Y-105199876D01*
X137850124Y-105187516D01*
X137749646Y-105112212D01*
X137734311Y-105103817D01*
X137615753Y-105059371D01*
X137600744Y-105055803D01*
X137550669Y-105050363D01*
X137543972Y-105050000D01*
X137477837Y-105050000D01*
X137410798Y-105030315D01*
X137365043Y-104977511D01*
X137355099Y-104908353D01*
X137384124Y-104844797D01*
X137390156Y-104838319D01*
X137461598Y-104766877D01*
X137464700Y-104762446D01*
X137464704Y-104762442D01*
X137583994Y-104592077D01*
X137583995Y-104592075D01*
X137587102Y-104587638D01*
X137679575Y-104389330D01*
X137696485Y-104326224D01*
X137734805Y-104183209D01*
X137736207Y-104177977D01*
X137755277Y-103960000D01*
X137736207Y-103742023D01*
X137679575Y-103530670D01*
X137587102Y-103332362D01*
X137583994Y-103327923D01*
X137464704Y-103157558D01*
X137464700Y-103157554D01*
X137461598Y-103153123D01*
X137306877Y-102998402D01*
X137127639Y-102872898D01*
X136929330Y-102780425D01*
X136924107Y-102779026D01*
X136924103Y-102779024D01*
X136723209Y-102725195D01*
X136723210Y-102725195D01*
X136717977Y-102723793D01*
X136500000Y-102704723D01*
X136282023Y-102723793D01*
X136276790Y-102725195D01*
X136276791Y-102725195D01*
X136075897Y-102779024D01*
X136075893Y-102779026D01*
X136070670Y-102780425D01*
X135872362Y-102872898D01*
X135867925Y-102876005D01*
X135867923Y-102876006D01*
X135697558Y-102995296D01*
X135697557Y-102995297D01*
X135693123Y-102998402D01*
X135538402Y-103153123D01*
X135535300Y-103157554D01*
X135535296Y-103157558D01*
X135416006Y-103327923D01*
X135412898Y-103332362D01*
X135320425Y-103530670D01*
X135263793Y-103742023D01*
X135263321Y-103747422D01*
X135248028Y-103922223D01*
X135233802Y-103958594D01*
X135243477Y-103973649D01*
X135248028Y-103997777D01*
X135263793Y-104177977D01*
X135265195Y-104183209D01*
X135265196Y-104183212D01*
X135310031Y-104350541D01*
X135308368Y-104420390D01*
X135277937Y-104470315D01*
X135212181Y-104536071D01*
X135150858Y-104569556D01*
X135081166Y-104564572D01*
X135025233Y-104522700D01*
X135000816Y-104457236D01*
X135000500Y-104448390D01*
X135000500Y-104008584D01*
X135015074Y-103958951D01*
X135002931Y-103935849D01*
X135000500Y-103911416D01*
X135000500Y-103255354D01*
X134997382Y-103229154D01*
X134951939Y-103126847D01*
X134872713Y-103047759D01*
X134862242Y-103043130D01*
X134862241Y-103043129D01*
X134778853Y-103006263D01*
X134778851Y-103006262D01*
X134770327Y-103002494D01*
X134744646Y-102999500D01*
X133755354Y-102999500D01*
X133751700Y-102999935D01*
X133751698Y-102999935D01*
X133746734Y-103000526D01*
X133729154Y-103002618D01*
X133626847Y-103048061D01*
X133547759Y-103127287D01*
X133543130Y-103137758D01*
X133543129Y-103137759D01*
X133538030Y-103149294D01*
X133502494Y-103229673D01*
X133499500Y-103255354D01*
X133499500Y-103997390D01*
X133479815Y-104064429D01*
X133463181Y-104085071D01*
X132535390Y-105012862D01*
X132474067Y-105046347D01*
X132447060Y-105049179D01*
X132434697Y-105049114D01*
X132426375Y-105049070D01*
X132426373Y-105049070D01*
X132418895Y-105049031D01*
X132411622Y-105050777D01*
X132411623Y-105050777D01*
X132261295Y-105086868D01*
X132261293Y-105086869D01*
X132254032Y-105088612D01*
X132247399Y-105092035D01*
X132247395Y-105092037D01*
X132180465Y-105126583D01*
X132103369Y-105166375D01*
X132097737Y-105171288D01*
X132061823Y-105202618D01*
X131975604Y-105277831D01*
X131878113Y-105416547D01*
X131816524Y-105574513D01*
X131794394Y-105742611D01*
X128157490Y-105742611D01*
X128181601Y-105682634D01*
X128184884Y-105659569D01*
X128204918Y-105518800D01*
X128204918Y-105518794D01*
X128205490Y-105514778D01*
X128205536Y-105510468D01*
X128205602Y-105504065D01*
X128205645Y-105500000D01*
X128199766Y-105451415D01*
X128186175Y-105339105D01*
X128186174Y-105339101D01*
X128185276Y-105331680D01*
X128136508Y-105202618D01*
X128127989Y-105180073D01*
X128127987Y-105180070D01*
X128125345Y-105173077D01*
X128093685Y-105127011D01*
X128033549Y-105039513D01*
X128033546Y-105039510D01*
X128029312Y-105033349D01*
X127984965Y-104993837D01*
X127908303Y-104925533D01*
X127908301Y-104925532D01*
X127902721Y-104920560D01*
X127888347Y-104912949D01*
X127791867Y-104861866D01*
X127752881Y-104841224D01*
X127588441Y-104799919D01*
X127502248Y-104799468D01*
X127426368Y-104799070D01*
X127426367Y-104799070D01*
X127418895Y-104799031D01*
X127400972Y-104803334D01*
X127261295Y-104836868D01*
X127261293Y-104836869D01*
X127254032Y-104838612D01*
X127247399Y-104842035D01*
X127247395Y-104842037D01*
X127208978Y-104861866D01*
X127103369Y-104916375D01*
X127097737Y-104921288D01*
X126999958Y-105006586D01*
X126975604Y-105027831D01*
X126878113Y-105166547D01*
X126816524Y-105324513D01*
X126815548Y-105331923D01*
X126815548Y-105331925D01*
X126805629Y-105407269D01*
X126777363Y-105471166D01*
X126719038Y-105509637D01*
X126649173Y-105510468D01*
X126623368Y-105498413D01*
X126622713Y-105497759D01*
X126562562Y-105471166D01*
X126528853Y-105456263D01*
X126528851Y-105456262D01*
X126520327Y-105452494D01*
X126494646Y-105449500D01*
X125505354Y-105449500D01*
X125501700Y-105449935D01*
X125501698Y-105449935D01*
X125496734Y-105450526D01*
X125479154Y-105452618D01*
X125376847Y-105498061D01*
X125297759Y-105577287D01*
X125252494Y-105679673D01*
X125249500Y-105705354D01*
X125249500Y-106994646D01*
X125252618Y-107020846D01*
X125298061Y-107123153D01*
X125377287Y-107202241D01*
X125387758Y-107206870D01*
X125387759Y-107206871D01*
X125471142Y-107243735D01*
X125471145Y-107243736D01*
X125479673Y-107247506D01*
X125484937Y-107248120D01*
X125542617Y-107283624D01*
X125572872Y-107346604D01*
X125574500Y-107366633D01*
X125574500Y-107772390D01*
X125554815Y-107839429D01*
X125538181Y-107860071D01*
X125151472Y-108246780D01*
X125140509Y-108268297D01*
X125130346Y-108284881D01*
X125121884Y-108296527D01*
X125121882Y-108296531D01*
X125116151Y-108304419D01*
X125113136Y-108313698D01*
X125108689Y-108327384D01*
X125101246Y-108345353D01*
X125090281Y-108366874D01*
X125088755Y-108376511D01*
X125088754Y-108376513D01*
X125086504Y-108390721D01*
X125081964Y-108409636D01*
X125074500Y-108432607D01*
X125074500Y-109012977D01*
X125054815Y-109080016D01*
X125000836Y-109126301D01*
X124951847Y-109148061D01*
X124872759Y-109227287D01*
X124868130Y-109237758D01*
X124868129Y-109237759D01*
X124832131Y-109319185D01*
X124827494Y-109329673D01*
X124824500Y-109355354D01*
X124824500Y-109450500D01*
X124804815Y-109517539D01*
X124752011Y-109563294D01*
X124700500Y-109574500D01*
X123690500Y-109574500D01*
X123623461Y-109554815D01*
X123577706Y-109502011D01*
X123566500Y-109450500D01*
X123566500Y-108939354D01*
X123563382Y-108913154D01*
X123517939Y-108810847D01*
X123438713Y-108731759D01*
X123428242Y-108727130D01*
X123428241Y-108727129D01*
X123344853Y-108690263D01*
X123344851Y-108690262D01*
X123336327Y-108686494D01*
X123310646Y-108683500D01*
X121189354Y-108683500D01*
X121185700Y-108683935D01*
X121185698Y-108683935D01*
X121180734Y-108684526D01*
X121163154Y-108686618D01*
X121060847Y-108732061D01*
X120981759Y-108811287D01*
X120977130Y-108821758D01*
X120977129Y-108821759D01*
X120941682Y-108901939D01*
X120936494Y-108913673D01*
X120933500Y-108939354D01*
X120933500Y-111060646D01*
X120936618Y-111086846D01*
X120982061Y-111189153D01*
X121061287Y-111268241D01*
X121071758Y-111272870D01*
X121071759Y-111272871D01*
X121113139Y-111291165D01*
X121166495Y-111336276D01*
X121186991Y-111403072D01*
X121168121Y-111470345D01*
X121157291Y-111485107D01*
X121022902Y-111642457D01*
X121017191Y-111650319D01*
X120897606Y-111845463D01*
X120893191Y-111854126D01*
X120805604Y-112065582D01*
X120802603Y-112074818D01*
X120749170Y-112297379D01*
X120747652Y-112306964D01*
X120742516Y-112372229D01*
X120300500Y-112372229D01*
X120300500Y-107493972D01*
X122000000Y-107493972D01*
X122000363Y-107500669D01*
X122005803Y-107550744D01*
X122009371Y-107565753D01*
X122053817Y-107684311D01*
X122062212Y-107699646D01*
X122137516Y-107800124D01*
X122149876Y-107812484D01*
X122250354Y-107887788D01*
X122265689Y-107896183D01*
X122384247Y-107940629D01*
X122399256Y-107944197D01*
X122449331Y-107949637D01*
X122456028Y-107950000D01*
X123332170Y-107950000D01*
X123347169Y-107945596D01*
X123348356Y-107944226D01*
X123350000Y-107936668D01*
X123350000Y-107932170D01*
X123650000Y-107932170D01*
X123654404Y-107947169D01*
X123655774Y-107948356D01*
X123663332Y-107950000D01*
X124543972Y-107950000D01*
X124550669Y-107949637D01*
X124600744Y-107944197D01*
X124615753Y-107940629D01*
X124734311Y-107896183D01*
X124749646Y-107887788D01*
X124850124Y-107812484D01*
X124862484Y-107800124D01*
X124937788Y-107699646D01*
X124946183Y-107684311D01*
X124990629Y-107565753D01*
X124994197Y-107550744D01*
X124999637Y-107500669D01*
X125000000Y-107493972D01*
X125000000Y-106667830D01*
X124995596Y-106652831D01*
X124994226Y-106651644D01*
X124986668Y-106650000D01*
X123667830Y-106650000D01*
X123652831Y-106654404D01*
X123651644Y-106655774D01*
X123650000Y-106663332D01*
X123650000Y-107932170D01*
X123350000Y-107932170D01*
X123350000Y-106667830D01*
X123345596Y-106652831D01*
X123344226Y-106651644D01*
X123336668Y-106650000D01*
X122017830Y-106650000D01*
X122002831Y-106654404D01*
X122001644Y-106655774D01*
X122000000Y-106663332D01*
X122000000Y-107493972D01*
X120300500Y-107493972D01*
X120300500Y-106332170D01*
X122000000Y-106332170D01*
X122004404Y-106347169D01*
X122005774Y-106348356D01*
X122013332Y-106350000D01*
X124982170Y-106350000D01*
X124997169Y-106345596D01*
X124998356Y-106344226D01*
X125000000Y-106336668D01*
X125000000Y-105506028D01*
X124999637Y-105499331D01*
X124994197Y-105449256D01*
X124990629Y-105434247D01*
X124946183Y-105315689D01*
X124937788Y-105300354D01*
X124862484Y-105199876D01*
X124850124Y-105187516D01*
X124749646Y-105112212D01*
X124734311Y-105103817D01*
X124615753Y-105059371D01*
X124600744Y-105055803D01*
X124550669Y-105050363D01*
X124543972Y-105050000D01*
X124477837Y-105050000D01*
X124410798Y-105030315D01*
X124365043Y-104977511D01*
X124355099Y-104908353D01*
X124384124Y-104844797D01*
X124390156Y-104838319D01*
X124461598Y-104766877D01*
X124464700Y-104762446D01*
X124464704Y-104762442D01*
X124558576Y-104628377D01*
X124613153Y-104584752D01*
X124660151Y-104575500D01*
X125125500Y-104575500D01*
X125192539Y-104595185D01*
X125238294Y-104647989D01*
X125249500Y-104699500D01*
X125249500Y-104794646D01*
X125249935Y-104798300D01*
X125249935Y-104798302D01*
X125250197Y-104800500D01*
X125252618Y-104820846D01*
X125298061Y-104923153D01*
X125377287Y-105002241D01*
X125387758Y-105006870D01*
X125387759Y-105006871D01*
X125471147Y-105043737D01*
X125471149Y-105043738D01*
X125479673Y-105047506D01*
X125505354Y-105050500D01*
X126494646Y-105050500D01*
X126498300Y-105050065D01*
X126498302Y-105050065D01*
X126506662Y-105049070D01*
X126520846Y-105047382D01*
X126623153Y-105001939D01*
X126702241Y-104922713D01*
X126712441Y-104899642D01*
X126743737Y-104828853D01*
X126743738Y-104828851D01*
X126747506Y-104820327D01*
X126750500Y-104794646D01*
X126750500Y-103505354D01*
X126747382Y-103479154D01*
X126701939Y-103376847D01*
X126622713Y-103297759D01*
X126612242Y-103293130D01*
X126612241Y-103293129D01*
X126528853Y-103256263D01*
X126528851Y-103256262D01*
X126520327Y-103252494D01*
X126494646Y-103249500D01*
X125505354Y-103249500D01*
X125501700Y-103249935D01*
X125501698Y-103249935D01*
X125496734Y-103250526D01*
X125479154Y-103252618D01*
X125376847Y-103298061D01*
X125297759Y-103377287D01*
X125252494Y-103479673D01*
X125249500Y-103505354D01*
X125249500Y-103600500D01*
X125229815Y-103667539D01*
X125177011Y-103713294D01*
X125125500Y-103724500D01*
X124826661Y-103724500D01*
X124759622Y-103704815D01*
X124713867Y-103652011D01*
X124706886Y-103632594D01*
X124680976Y-103535897D01*
X124680974Y-103535893D01*
X124679575Y-103530670D01*
X124587102Y-103332362D01*
X124583994Y-103327923D01*
X124464704Y-103157558D01*
X124464700Y-103157554D01*
X124461598Y-103153123D01*
X124306877Y-102998402D01*
X124127639Y-102872898D01*
X123929330Y-102780425D01*
X123924107Y-102779026D01*
X123924103Y-102779024D01*
X123723209Y-102725195D01*
X123723210Y-102725195D01*
X123717977Y-102723793D01*
X123500000Y-102704723D01*
X123282023Y-102723793D01*
X123276790Y-102725195D01*
X123276791Y-102725195D01*
X123075897Y-102779024D01*
X123075893Y-102779026D01*
X123070670Y-102780425D01*
X122872362Y-102872898D01*
X122867925Y-102876005D01*
X122867923Y-102876006D01*
X122697558Y-102995296D01*
X122697557Y-102995297D01*
X122693123Y-102998402D01*
X122538402Y-103153123D01*
X122535300Y-103157554D01*
X122535296Y-103157558D01*
X122416006Y-103327923D01*
X122412898Y-103332362D01*
X122320425Y-103530670D01*
X122263793Y-103742023D01*
X122244723Y-103960000D01*
X122263793Y-104177977D01*
X122265195Y-104183209D01*
X122303516Y-104326224D01*
X122320425Y-104389330D01*
X122412898Y-104587638D01*
X122416005Y-104592075D01*
X122416006Y-104592077D01*
X122535296Y-104762442D01*
X122535300Y-104762446D01*
X122538402Y-104766877D01*
X122609844Y-104838319D01*
X122643329Y-104899642D01*
X122638345Y-104969334D01*
X122596473Y-105025267D01*
X122531009Y-105049684D01*
X122522163Y-105050000D01*
X122456028Y-105050000D01*
X122449331Y-105050363D01*
X122399256Y-105055803D01*
X122384247Y-105059371D01*
X122265689Y-105103817D01*
X122250354Y-105112212D01*
X122149876Y-105187516D01*
X122137516Y-105199876D01*
X122062212Y-105300354D01*
X122053817Y-105315689D01*
X122009371Y-105434247D01*
X122005803Y-105449256D01*
X122000363Y-105499331D01*
X122000000Y-105506028D01*
X122000000Y-106332170D01*
X120300500Y-106332170D01*
X120300500Y-98343972D01*
X120900000Y-98343972D01*
X120900363Y-98350669D01*
X120905803Y-98400744D01*
X120909371Y-98415753D01*
X120953817Y-98534311D01*
X120962212Y-98549646D01*
X121037516Y-98650124D01*
X121049876Y-98662484D01*
X121150354Y-98737788D01*
X121165687Y-98746182D01*
X121212573Y-98763759D01*
X121268436Y-98805723D01*
X121292744Y-98871229D01*
X121277778Y-98939477D01*
X121239279Y-98982060D01*
X121237309Y-98983414D01*
X121226847Y-98988061D01*
X121147759Y-99067287D01*
X121143130Y-99077758D01*
X121143129Y-99077759D01*
X121106578Y-99160436D01*
X121102494Y-99169673D01*
X121099500Y-99195354D01*
X121099500Y-100884646D01*
X121102618Y-100910846D01*
X121148061Y-101013153D01*
X121227287Y-101092241D01*
X121237758Y-101096870D01*
X121237759Y-101096871D01*
X121321147Y-101133737D01*
X121321149Y-101133738D01*
X121329673Y-101137506D01*
X121355354Y-101140500D01*
X122944646Y-101140500D01*
X122948300Y-101140065D01*
X122948302Y-101140065D01*
X122953266Y-101139474D01*
X122970846Y-101137382D01*
X123073153Y-101091939D01*
X123152241Y-101012713D01*
X123152780Y-101011493D01*
X123201806Y-100971455D01*
X123271225Y-100963533D01*
X123333907Y-100994400D01*
X123345835Y-101008142D01*
X123348061Y-101013153D01*
X123427287Y-101092241D01*
X123437758Y-101096870D01*
X123445824Y-101102393D01*
X123490019Y-101156509D01*
X123497941Y-101225928D01*
X123473436Y-101276324D01*
X123475580Y-101277831D01*
X123378089Y-101416547D01*
X123316500Y-101574513D01*
X123315524Y-101581923D01*
X123315524Y-101581925D01*
X123312690Y-101603453D01*
X123294370Y-101742611D01*
X123295190Y-101750039D01*
X123295190Y-101750041D01*
X123296817Y-101764778D01*
X123312975Y-101911135D01*
X123315541Y-101918147D01*
X123315542Y-101918151D01*
X123368673Y-102063336D01*
X123371242Y-102070356D01*
X123375409Y-102076558D01*
X123375411Y-102076561D01*
X123388486Y-102096018D01*
X123465806Y-102211083D01*
X123471336Y-102216115D01*
X123585678Y-102320159D01*
X123585682Y-102320162D01*
X123591209Y-102325191D01*
X123740211Y-102406092D01*
X123826971Y-102428853D01*
X123896981Y-102447220D01*
X123896983Y-102447220D01*
X123904209Y-102449116D01*
X123987154Y-102450419D01*
X124066266Y-102451662D01*
X124066269Y-102451662D01*
X124073736Y-102451779D01*
X124211065Y-102420327D01*
X124231714Y-102415598D01*
X124231715Y-102415598D01*
X124239005Y-102413928D01*
X124278682Y-102393972D01*
X127910000Y-102393972D01*
X127910363Y-102400669D01*
X127915803Y-102450744D01*
X127919371Y-102465753D01*
X127963817Y-102584311D01*
X127972212Y-102599646D01*
X128047516Y-102700124D01*
X128059876Y-102712484D01*
X128160354Y-102787788D01*
X128175689Y-102796183D01*
X128294247Y-102840629D01*
X128309256Y-102844197D01*
X128359331Y-102849637D01*
X128366028Y-102850000D01*
X128562170Y-102850000D01*
X128577169Y-102845596D01*
X128578356Y-102844226D01*
X128580000Y-102836668D01*
X128580000Y-101517830D01*
X128575596Y-101502831D01*
X128574226Y-101501644D01*
X128566668Y-101500000D01*
X127927830Y-101500000D01*
X127912831Y-101504404D01*
X127911644Y-101505774D01*
X127910000Y-101513332D01*
X127910000Y-102393972D01*
X124278682Y-102393972D01*
X124314087Y-102376165D01*
X124383796Y-102341106D01*
X124383798Y-102341105D01*
X124390474Y-102337747D01*
X124396156Y-102332894D01*
X124396159Y-102332892D01*
X124513717Y-102232487D01*
X124519399Y-102227634D01*
X124618337Y-102089947D01*
X124681577Y-101932634D01*
X124705466Y-101764778D01*
X124705621Y-101750000D01*
X124699483Y-101699282D01*
X124710971Y-101630364D01*
X124722267Y-101611499D01*
X124728113Y-101603453D01*
X124733850Y-101595557D01*
X124741313Y-101572587D01*
X124748758Y-101554614D01*
X124755289Y-101541796D01*
X124759719Y-101533102D01*
X124762851Y-101513332D01*
X124763497Y-101509250D01*
X124768038Y-101490334D01*
X124775500Y-101467369D01*
X124775500Y-101264500D01*
X124795185Y-101197461D01*
X124812832Y-101182170D01*
X127910000Y-101182170D01*
X127914404Y-101197169D01*
X127915774Y-101198356D01*
X127923332Y-101200000D01*
X128562170Y-101200000D01*
X128577169Y-101195596D01*
X128578356Y-101194226D01*
X128580000Y-101186668D01*
X128580000Y-99867830D01*
X128575596Y-99852831D01*
X128574226Y-99851644D01*
X128566668Y-99850000D01*
X128366028Y-99850000D01*
X128359331Y-99850363D01*
X128309256Y-99855803D01*
X128294247Y-99859371D01*
X128175689Y-99903817D01*
X128160354Y-99912212D01*
X128059876Y-99987516D01*
X128047516Y-99999876D01*
X127972212Y-100100354D01*
X127963817Y-100115689D01*
X127919371Y-100234247D01*
X127915803Y-100249256D01*
X127910363Y-100299331D01*
X127910000Y-100306028D01*
X127910000Y-101182170D01*
X124812832Y-101182170D01*
X124847989Y-101151706D01*
X124899500Y-101140500D01*
X125144646Y-101140500D01*
X125148300Y-101140065D01*
X125148302Y-101140065D01*
X125153266Y-101139474D01*
X125170846Y-101137382D01*
X125273153Y-101091939D01*
X125352241Y-101012713D01*
X125356871Y-101002241D01*
X125393737Y-100918853D01*
X125393738Y-100918851D01*
X125397506Y-100910327D01*
X125400500Y-100884646D01*
X125400500Y-99195354D01*
X125397382Y-99169154D01*
X125351939Y-99066847D01*
X125272713Y-98987759D01*
X125262242Y-98983130D01*
X125262241Y-98983129D01*
X125178853Y-98946263D01*
X125178851Y-98946262D01*
X125170327Y-98942494D01*
X125144646Y-98939500D01*
X123555354Y-98939500D01*
X123551700Y-98939935D01*
X123551698Y-98939935D01*
X123546734Y-98940526D01*
X123529154Y-98942618D01*
X123426847Y-98988061D01*
X123347759Y-99067287D01*
X123347220Y-99068507D01*
X123298194Y-99108545D01*
X123228775Y-99116467D01*
X123166093Y-99085600D01*
X123154165Y-99071858D01*
X123151939Y-99066847D01*
X123072713Y-98987759D01*
X123062242Y-98983130D01*
X123060874Y-98982193D01*
X123016679Y-98928077D01*
X123008757Y-98858658D01*
X123039624Y-98795976D01*
X123087401Y-98763769D01*
X123134311Y-98746183D01*
X123149646Y-98737788D01*
X123250124Y-98662484D01*
X123262484Y-98650124D01*
X123299448Y-98600803D01*
X123355405Y-98558963D01*
X123425100Y-98554017D01*
X123448813Y-98561758D01*
X123521147Y-98593737D01*
X123521149Y-98593738D01*
X123529673Y-98597506D01*
X123555354Y-98600500D01*
X125144646Y-98600500D01*
X125148300Y-98600065D01*
X125148302Y-98600065D01*
X125153266Y-98599474D01*
X125170846Y-98597382D01*
X125273153Y-98551939D01*
X125352241Y-98472713D01*
X125397506Y-98370327D01*
X125400500Y-98344646D01*
X125400500Y-98049500D01*
X125420185Y-97982461D01*
X125472989Y-97936706D01*
X125524500Y-97925500D01*
X128379530Y-97925500D01*
X128446569Y-97945185D01*
X128465412Y-97961543D01*
X128465830Y-97961083D01*
X128585702Y-98070159D01*
X128585706Y-98070162D01*
X128591233Y-98075191D01*
X128740235Y-98156092D01*
X128835585Y-98181107D01*
X128897005Y-98197220D01*
X128897007Y-98197220D01*
X128904233Y-98199116D01*
X128987178Y-98200419D01*
X129066290Y-98201662D01*
X129066293Y-98201662D01*
X129073760Y-98201779D01*
X129196209Y-98173735D01*
X129231738Y-98165598D01*
X129231739Y-98165598D01*
X129239029Y-98163928D01*
X129314111Y-98126166D01*
X129383820Y-98091106D01*
X129383822Y-98091105D01*
X129390498Y-98087747D01*
X129396180Y-98082894D01*
X129396183Y-98082892D01*
X129513741Y-97982487D01*
X129519423Y-97977634D01*
X129618361Y-97839947D01*
X129681601Y-97682634D01*
X129685619Y-97654404D01*
X129704918Y-97518800D01*
X129704918Y-97518794D01*
X129705490Y-97514778D01*
X129705645Y-97500000D01*
X129687294Y-97348356D01*
X129686175Y-97339105D01*
X129686174Y-97339101D01*
X129685276Y-97331680D01*
X129625345Y-97173077D01*
X129621108Y-97166912D01*
X129533549Y-97039513D01*
X129533546Y-97039510D01*
X129529312Y-97033349D01*
X129402721Y-96920560D01*
X129388347Y-96912949D01*
X129259489Y-96844723D01*
X129252881Y-96841224D01*
X129088441Y-96799919D01*
X129002248Y-96799468D01*
X128926368Y-96799070D01*
X128926367Y-96799070D01*
X128918895Y-96799031D01*
X128897235Y-96804231D01*
X128761295Y-96836868D01*
X128761293Y-96836869D01*
X128754032Y-96838612D01*
X128747399Y-96842035D01*
X128747395Y-96842037D01*
X128680465Y-96876583D01*
X128603369Y-96916375D01*
X128475604Y-97027831D01*
X128471567Y-97033575D01*
X128412244Y-97070121D01*
X128379583Y-97074500D01*
X125524500Y-97074500D01*
X125457461Y-97054815D01*
X125411706Y-97002011D01*
X125400500Y-96950500D01*
X125400500Y-96655354D01*
X125397382Y-96629154D01*
X125351939Y-96526847D01*
X125272713Y-96447759D01*
X125262242Y-96443130D01*
X125262241Y-96443129D01*
X125178853Y-96406263D01*
X125178851Y-96406262D01*
X125170327Y-96402494D01*
X125144646Y-96399500D01*
X123555354Y-96399500D01*
X123551700Y-96399935D01*
X123551698Y-96399935D01*
X123546734Y-96400526D01*
X123529154Y-96402618D01*
X123453873Y-96436057D01*
X123449045Y-96438201D01*
X123379787Y-96447425D01*
X123316537Y-96417741D01*
X123299484Y-96399243D01*
X123262488Y-96349880D01*
X123250124Y-96337516D01*
X123149646Y-96262212D01*
X123134311Y-96253817D01*
X123015753Y-96209371D01*
X123000744Y-96205803D01*
X122950669Y-96200363D01*
X122943972Y-96200000D01*
X122317830Y-96200000D01*
X122302831Y-96204404D01*
X122301644Y-96205774D01*
X122300000Y-96213332D01*
X122300000Y-97526000D01*
X122280315Y-97593039D01*
X122227511Y-97638794D01*
X122176000Y-97650000D01*
X120917830Y-97650000D01*
X120902831Y-97654404D01*
X120901644Y-97655774D01*
X120900000Y-97663332D01*
X120900000Y-98343972D01*
X120300500Y-98343972D01*
X120300500Y-97332170D01*
X120900000Y-97332170D01*
X120904404Y-97347169D01*
X120905774Y-97348356D01*
X120913332Y-97350000D01*
X121982170Y-97350000D01*
X121997169Y-97345596D01*
X121998356Y-97344226D01*
X122000000Y-97336668D01*
X122000000Y-96217830D01*
X121995596Y-96202831D01*
X121994226Y-96201644D01*
X121986668Y-96200000D01*
X121356028Y-96200000D01*
X121349331Y-96200363D01*
X121299256Y-96205803D01*
X121284247Y-96209371D01*
X121165689Y-96253817D01*
X121150354Y-96262212D01*
X121049876Y-96337516D01*
X121037516Y-96349876D01*
X120962212Y-96450354D01*
X120953817Y-96465689D01*
X120909371Y-96584247D01*
X120905803Y-96599256D01*
X120900363Y-96649331D01*
X120900000Y-96656028D01*
X120900000Y-97332170D01*
X120300500Y-97332170D01*
X120300500Y-93067393D01*
X121574500Y-93067393D01*
X121581964Y-93090364D01*
X121586504Y-93109279D01*
X121590281Y-93133126D01*
X121601246Y-93154647D01*
X121608689Y-93172616D01*
X121616151Y-93195581D01*
X121621882Y-93203469D01*
X121621884Y-93203473D01*
X121630346Y-93215119D01*
X121640509Y-93231703D01*
X121651472Y-93253220D01*
X122213181Y-93814929D01*
X122246666Y-93876252D01*
X122249500Y-93902610D01*
X122249500Y-94744646D01*
X122252618Y-94770846D01*
X122298061Y-94873153D01*
X122377287Y-94952241D01*
X122387758Y-94956870D01*
X122387759Y-94956871D01*
X122471147Y-94993737D01*
X122471149Y-94993738D01*
X122479673Y-94997506D01*
X122505354Y-95000500D01*
X123494646Y-95000500D01*
X123498300Y-95000065D01*
X123498302Y-95000065D01*
X123503266Y-94999474D01*
X123520846Y-94997382D01*
X123623153Y-94951939D01*
X123702241Y-94872713D01*
X123706871Y-94862241D01*
X123743737Y-94778853D01*
X123743738Y-94778851D01*
X123747506Y-94770327D01*
X123750500Y-94744646D01*
X123750500Y-94651610D01*
X123770185Y-94584571D01*
X123822989Y-94538816D01*
X123892147Y-94528872D01*
X123955703Y-94557897D01*
X123962181Y-94563929D01*
X124651780Y-95253528D01*
X124673297Y-95264491D01*
X124689881Y-95274654D01*
X124701527Y-95283116D01*
X124701531Y-95283118D01*
X124709419Y-95288849D01*
X124718698Y-95291864D01*
X124732384Y-95296311D01*
X124750353Y-95303754D01*
X124771874Y-95314719D01*
X124781511Y-95316245D01*
X124781513Y-95316246D01*
X124795721Y-95318496D01*
X124814636Y-95323036D01*
X124837607Y-95330500D01*
X125948605Y-95330500D01*
X126015644Y-95350185D01*
X126036209Y-95366742D01*
X126072681Y-95403151D01*
X126072687Y-95403155D01*
X126080787Y-95411241D01*
X126091258Y-95415870D01*
X126091259Y-95415871D01*
X126174647Y-95452737D01*
X126174649Y-95452738D01*
X126183173Y-95456506D01*
X126208854Y-95459500D01*
X127441146Y-95459500D01*
X127444800Y-95459065D01*
X127444802Y-95459065D01*
X127449766Y-95458474D01*
X127467346Y-95456382D01*
X127569653Y-95410939D01*
X127648741Y-95331713D01*
X127653909Y-95320023D01*
X127690237Y-95237853D01*
X127690238Y-95237851D01*
X127694006Y-95229327D01*
X127697000Y-95203646D01*
X127697000Y-94606354D01*
X127693882Y-94580154D01*
X127648439Y-94477847D01*
X127569213Y-94398759D01*
X127566487Y-94397554D01*
X127525771Y-94347698D01*
X127517850Y-94278278D01*
X127548718Y-94215597D01*
X127608573Y-94179554D01*
X127640021Y-94175500D01*
X129854030Y-94175500D01*
X129921069Y-94195185D01*
X129939912Y-94211543D01*
X129940330Y-94211083D01*
X130060202Y-94320159D01*
X130060206Y-94320162D01*
X130065733Y-94325191D01*
X130214735Y-94406092D01*
X130310085Y-94431107D01*
X130371505Y-94447220D01*
X130371507Y-94447220D01*
X130378733Y-94449116D01*
X130461678Y-94450419D01*
X130540790Y-94451662D01*
X130540793Y-94451662D01*
X130548260Y-94451779D01*
X130670709Y-94423735D01*
X130706238Y-94415598D01*
X130706239Y-94415598D01*
X130713529Y-94413928D01*
X130833689Y-94353494D01*
X130858320Y-94341106D01*
X130858322Y-94341105D01*
X130864998Y-94337747D01*
X130870680Y-94332894D01*
X130870683Y-94332892D01*
X130988241Y-94232487D01*
X130993923Y-94227634D01*
X131092861Y-94089947D01*
X131156101Y-93932634D01*
X131160374Y-93902610D01*
X131179418Y-93768800D01*
X131179418Y-93768794D01*
X131179990Y-93764778D01*
X131180145Y-93750000D01*
X131179062Y-93741054D01*
X131160675Y-93589105D01*
X131160674Y-93589101D01*
X131159776Y-93581680D01*
X131150754Y-93557805D01*
X131102489Y-93430073D01*
X131102487Y-93430070D01*
X131099845Y-93423077D01*
X131095608Y-93416912D01*
X131008049Y-93289513D01*
X131008046Y-93289510D01*
X131003812Y-93283349D01*
X130919071Y-93207847D01*
X130882803Y-93175533D01*
X130882801Y-93175532D01*
X130877221Y-93170560D01*
X130863580Y-93163337D01*
X130733989Y-93094723D01*
X130727381Y-93091224D01*
X130626165Y-93065800D01*
X130570196Y-93051741D01*
X130570193Y-93051741D01*
X130562941Y-93049919D01*
X130555970Y-93049882D01*
X130492127Y-93022040D01*
X130453349Y-92963919D01*
X130448607Y-92941844D01*
X130436175Y-92839105D01*
X130436174Y-92839101D01*
X130435276Y-92831680D01*
X130426254Y-92807805D01*
X130377989Y-92680073D01*
X130377987Y-92680070D01*
X130375345Y-92673077D01*
X130366656Y-92660435D01*
X130283549Y-92539513D01*
X130283546Y-92539510D01*
X130279312Y-92533349D01*
X130204339Y-92466550D01*
X130168900Y-92412295D01*
X130168041Y-92409652D01*
X130163496Y-92390721D01*
X130161246Y-92376513D01*
X130161245Y-92376511D01*
X130159719Y-92366874D01*
X130148754Y-92345353D01*
X130141311Y-92327384D01*
X130136864Y-92313698D01*
X130133849Y-92304419D01*
X130128118Y-92296531D01*
X130128116Y-92296527D01*
X130119654Y-92284881D01*
X130109491Y-92268297D01*
X130098528Y-92246780D01*
X128433429Y-90581681D01*
X128399944Y-90520358D01*
X128404928Y-90450666D01*
X128446800Y-90394733D01*
X128512264Y-90370316D01*
X128521110Y-90370000D01*
X128582170Y-90370000D01*
X128597169Y-90365596D01*
X128598356Y-90364226D01*
X128600000Y-90356668D01*
X128600000Y-90352169D01*
X128900000Y-90352169D01*
X128904404Y-90367169D01*
X128905774Y-90368356D01*
X128913332Y-90370000D01*
X129168972Y-90370000D01*
X129175669Y-90369637D01*
X129225744Y-90364197D01*
X129240753Y-90360629D01*
X129359311Y-90316183D01*
X129374646Y-90307788D01*
X129475124Y-90232484D01*
X129487484Y-90220124D01*
X129562788Y-90119646D01*
X129571183Y-90104311D01*
X129615629Y-89985753D01*
X129619197Y-89970744D01*
X129624637Y-89920669D01*
X129625000Y-89913972D01*
X130375000Y-89913972D01*
X130375363Y-89920669D01*
X130380803Y-89970744D01*
X130384371Y-89985753D01*
X130428817Y-90104311D01*
X130437212Y-90119646D01*
X130512516Y-90220124D01*
X130524876Y-90232484D01*
X130625354Y-90307788D01*
X130640689Y-90316183D01*
X130759247Y-90360629D01*
X130774256Y-90364197D01*
X130824331Y-90369637D01*
X130831028Y-90370000D01*
X131082170Y-90370000D01*
X131097169Y-90365596D01*
X131098356Y-90364226D01*
X131100000Y-90356668D01*
X131100000Y-90352169D01*
X131400000Y-90352169D01*
X131404404Y-90367169D01*
X131405774Y-90368356D01*
X131413332Y-90370000D01*
X131668972Y-90370000D01*
X131675669Y-90369637D01*
X131725744Y-90364197D01*
X131740753Y-90360629D01*
X131859311Y-90316183D01*
X131874646Y-90307788D01*
X131975124Y-90232484D01*
X131987484Y-90220124D01*
X132062788Y-90119646D01*
X132071183Y-90104311D01*
X132115629Y-89985753D01*
X132119197Y-89970744D01*
X132124637Y-89920669D01*
X132125000Y-89913972D01*
X132125000Y-89437830D01*
X132120596Y-89422831D01*
X132119226Y-89421644D01*
X132111668Y-89420000D01*
X131417830Y-89420000D01*
X131402831Y-89424404D01*
X131401644Y-89425774D01*
X131400000Y-89433332D01*
X131400000Y-90352169D01*
X131100000Y-90352169D01*
X131100000Y-89437830D01*
X131095596Y-89422831D01*
X131094226Y-89421644D01*
X131086668Y-89420000D01*
X130392830Y-89420000D01*
X130377831Y-89424404D01*
X130376644Y-89425774D01*
X130375000Y-89433332D01*
X130375000Y-89913972D01*
X129625000Y-89913972D01*
X129625000Y-89437830D01*
X129620596Y-89422831D01*
X129619226Y-89421644D01*
X129611668Y-89420000D01*
X128917830Y-89420000D01*
X128902831Y-89424404D01*
X128901644Y-89425774D01*
X128900000Y-89433332D01*
X128900000Y-90352169D01*
X128600000Y-90352169D01*
X128600000Y-89437830D01*
X128595596Y-89422831D01*
X128594226Y-89421644D01*
X128586668Y-89420000D01*
X127892830Y-89420000D01*
X127877831Y-89424404D01*
X127863967Y-89440404D01*
X127805189Y-89478178D01*
X127735319Y-89478178D01*
X127687766Y-89451784D01*
X127652721Y-89420560D01*
X127638347Y-89412949D01*
X127544645Y-89363337D01*
X127502881Y-89341224D01*
X127338441Y-89299919D01*
X127252248Y-89299468D01*
X127176368Y-89299070D01*
X127176367Y-89299070D01*
X127168895Y-89299031D01*
X127147235Y-89304231D01*
X127011295Y-89336868D01*
X127011293Y-89336869D01*
X127004032Y-89338612D01*
X126997399Y-89342035D01*
X126997395Y-89342037D01*
X126972980Y-89354639D01*
X126853369Y-89416375D01*
X126847737Y-89421288D01*
X126753132Y-89503817D01*
X126725604Y-89527831D01*
X126628113Y-89666547D01*
X126566524Y-89824513D01*
X126565548Y-89831923D01*
X126565548Y-89831925D01*
X126563121Y-89850362D01*
X126544394Y-89992611D01*
X126545214Y-90000039D01*
X126545214Y-90000041D01*
X126551410Y-90056163D01*
X126562999Y-90161135D01*
X126565567Y-90168152D01*
X126565568Y-90168157D01*
X126567848Y-90174388D01*
X126572400Y-90244109D01*
X126538536Y-90305223D01*
X126477006Y-90338327D01*
X126451400Y-90341000D01*
X126209528Y-90341000D01*
X126202831Y-90341363D01*
X126152756Y-90346803D01*
X126137750Y-90350371D01*
X126042528Y-90386068D01*
X125972844Y-90391169D01*
X125911465Y-90357787D01*
X125877878Y-90296519D01*
X125875000Y-90269959D01*
X125875000Y-89906028D01*
X125874637Y-89899331D01*
X125869197Y-89849256D01*
X125865629Y-89834247D01*
X125821183Y-89715689D01*
X125812788Y-89700354D01*
X125737484Y-89599876D01*
X125725124Y-89587516D01*
X125624646Y-89512212D01*
X125609311Y-89503817D01*
X125490753Y-89459371D01*
X125475744Y-89455803D01*
X125425669Y-89450363D01*
X125418972Y-89450000D01*
X125167830Y-89450000D01*
X125152831Y-89454404D01*
X125151644Y-89455774D01*
X125150000Y-89463332D01*
X125150000Y-90576000D01*
X125130315Y-90643039D01*
X125077511Y-90688794D01*
X125026000Y-90700000D01*
X124142830Y-90700000D01*
X124127831Y-90704404D01*
X124126644Y-90705774D01*
X124125000Y-90713332D01*
X124125000Y-91193972D01*
X124125363Y-91200669D01*
X124130803Y-91250744D01*
X124134371Y-91265753D01*
X124178817Y-91384311D01*
X124187212Y-91399646D01*
X124262516Y-91500124D01*
X124274876Y-91512484D01*
X124324197Y-91549448D01*
X124366037Y-91605405D01*
X124370983Y-91675100D01*
X124363242Y-91698813D01*
X124357639Y-91711488D01*
X124327494Y-91779673D01*
X124324500Y-91805354D01*
X124324500Y-92433393D01*
X124304815Y-92500432D01*
X124252011Y-92546187D01*
X124182853Y-92556131D01*
X124119297Y-92527106D01*
X124112819Y-92521074D01*
X124032601Y-92440855D01*
X123786819Y-92195073D01*
X123753334Y-92133750D01*
X123750500Y-92107392D01*
X123750500Y-91255354D01*
X123747382Y-91229154D01*
X123701939Y-91126847D01*
X123622713Y-91047759D01*
X123612242Y-91043130D01*
X123612241Y-91043129D01*
X123528853Y-91006263D01*
X123528851Y-91006262D01*
X123520327Y-91002494D01*
X123494646Y-90999500D01*
X123101610Y-90999500D01*
X123034571Y-90979815D01*
X122988816Y-90927011D01*
X122978872Y-90857853D01*
X123007897Y-90794297D01*
X123013929Y-90787819D01*
X123913320Y-89888428D01*
X123974642Y-89854943D01*
X124044333Y-89859927D01*
X124100267Y-89901799D01*
X124124684Y-89967263D01*
X124125000Y-89976109D01*
X124125000Y-90382170D01*
X124129404Y-90397169D01*
X124130774Y-90398356D01*
X124138332Y-90400000D01*
X124832170Y-90400000D01*
X124847169Y-90395596D01*
X124848356Y-90394226D01*
X124850000Y-90386668D01*
X124850000Y-89467830D01*
X124845596Y-89452831D01*
X124844226Y-89451644D01*
X124836668Y-89450000D01*
X124581028Y-89450000D01*
X124574333Y-89450362D01*
X124549181Y-89453095D01*
X124480407Y-89440766D01*
X124429217Y-89393213D01*
X124411862Y-89325533D01*
X124413310Y-89310455D01*
X124413495Y-89309286D01*
X124418036Y-89290364D01*
X124425500Y-89267393D01*
X124425500Y-89102170D01*
X127875000Y-89102170D01*
X127879404Y-89117169D01*
X127880774Y-89118356D01*
X127888332Y-89120000D01*
X128582170Y-89120000D01*
X128597169Y-89115596D01*
X128598356Y-89114226D01*
X128600000Y-89106668D01*
X128600000Y-89102170D01*
X128900000Y-89102170D01*
X128904404Y-89117169D01*
X128905774Y-89118356D01*
X128913332Y-89120000D01*
X129607170Y-89120000D01*
X129622169Y-89115596D01*
X129623356Y-89114226D01*
X129625000Y-89106668D01*
X129625000Y-89102170D01*
X130375000Y-89102170D01*
X130379404Y-89117169D01*
X130380774Y-89118356D01*
X130388332Y-89120000D01*
X131082170Y-89120000D01*
X131097169Y-89115596D01*
X131098356Y-89114226D01*
X131100000Y-89106668D01*
X131100000Y-89102170D01*
X131400000Y-89102170D01*
X131404404Y-89117169D01*
X131405774Y-89118356D01*
X131413332Y-89120000D01*
X132107170Y-89120000D01*
X132122169Y-89115596D01*
X132123356Y-89114226D01*
X132125000Y-89106668D01*
X132125000Y-88626028D01*
X132124637Y-88619331D01*
X132119197Y-88569256D01*
X132115629Y-88554247D01*
X132071183Y-88435689D01*
X132062788Y-88420354D01*
X131987484Y-88319876D01*
X131975124Y-88307516D01*
X131874646Y-88232212D01*
X131859311Y-88223817D01*
X131740753Y-88179371D01*
X131725744Y-88175803D01*
X131675669Y-88170363D01*
X131668972Y-88170000D01*
X131417830Y-88170000D01*
X131402831Y-88174404D01*
X131401644Y-88175774D01*
X131400000Y-88183332D01*
X131400000Y-89102170D01*
X131100000Y-89102170D01*
X131100000Y-88187830D01*
X131095596Y-88172831D01*
X131094226Y-88171644D01*
X131086668Y-88170000D01*
X130831028Y-88170000D01*
X130824331Y-88170363D01*
X130774256Y-88175803D01*
X130759247Y-88179371D01*
X130640689Y-88223817D01*
X130625354Y-88232212D01*
X130524876Y-88307516D01*
X130512516Y-88319876D01*
X130437212Y-88420354D01*
X130428817Y-88435689D01*
X130384371Y-88554247D01*
X130380803Y-88569256D01*
X130375363Y-88619331D01*
X130375000Y-88626028D01*
X130375000Y-89102170D01*
X129625000Y-89102170D01*
X129625000Y-88626028D01*
X129624637Y-88619331D01*
X129619197Y-88569256D01*
X129615629Y-88554247D01*
X129571183Y-88435689D01*
X129562788Y-88420354D01*
X129487484Y-88319876D01*
X129475124Y-88307516D01*
X129374646Y-88232212D01*
X129359311Y-88223817D01*
X129240753Y-88179371D01*
X129225744Y-88175803D01*
X129175669Y-88170363D01*
X129168972Y-88170000D01*
X128917830Y-88170000D01*
X128902831Y-88174404D01*
X128901644Y-88175774D01*
X128900000Y-88183332D01*
X128900000Y-89102170D01*
X128600000Y-89102170D01*
X128600000Y-88187830D01*
X128595596Y-88172831D01*
X128594226Y-88171644D01*
X128586668Y-88170000D01*
X128331028Y-88170000D01*
X128324331Y-88170363D01*
X128274256Y-88175803D01*
X128259247Y-88179371D01*
X128140689Y-88223817D01*
X128125354Y-88232212D01*
X128024876Y-88307516D01*
X128012516Y-88319876D01*
X127937212Y-88420354D01*
X127928817Y-88435689D01*
X127884371Y-88554247D01*
X127880803Y-88569256D01*
X127875363Y-88619331D01*
X127875000Y-88626028D01*
X127875000Y-89102170D01*
X124425500Y-89102170D01*
X124425500Y-88227610D01*
X124445185Y-88160571D01*
X124461819Y-88139929D01*
X124487819Y-88113929D01*
X124549142Y-88080444D01*
X124618834Y-88085428D01*
X124674767Y-88127300D01*
X124699184Y-88192764D01*
X124699500Y-88201610D01*
X124699500Y-88794646D01*
X124702618Y-88820846D01*
X124748061Y-88923153D01*
X124827287Y-89002241D01*
X124837758Y-89006870D01*
X124837759Y-89006871D01*
X124921147Y-89043737D01*
X124921149Y-89043738D01*
X124929673Y-89047506D01*
X124955354Y-89050500D01*
X127044646Y-89050500D01*
X127048300Y-89050065D01*
X127048302Y-89050065D01*
X127053266Y-89049474D01*
X127070846Y-89047382D01*
X127173153Y-89001939D01*
X127252241Y-88922713D01*
X127297506Y-88820327D01*
X127300500Y-88794646D01*
X127300500Y-87279500D01*
X127320185Y-87212461D01*
X127372989Y-87166706D01*
X127424500Y-87155500D01*
X127950500Y-87155500D01*
X128017539Y-87175185D01*
X128063294Y-87227989D01*
X128074500Y-87279500D01*
X128074500Y-87374646D01*
X128077618Y-87400846D01*
X128123061Y-87503153D01*
X128202287Y-87582241D01*
X128212758Y-87586870D01*
X128212759Y-87586871D01*
X128296147Y-87623737D01*
X128296149Y-87623738D01*
X128304673Y-87627506D01*
X128330354Y-87630500D01*
X129169646Y-87630500D01*
X129173300Y-87630065D01*
X129173302Y-87630065D01*
X129178266Y-87629474D01*
X129195846Y-87627382D01*
X129298153Y-87581939D01*
X129377241Y-87502713D01*
X129422506Y-87400327D01*
X129425500Y-87374646D01*
X129425500Y-86085354D01*
X129422382Y-86059154D01*
X129376939Y-85956847D01*
X129297713Y-85877759D01*
X129287242Y-85873130D01*
X129287241Y-85873129D01*
X129220154Y-85843470D01*
X129166799Y-85798359D01*
X129146302Y-85731563D01*
X129165172Y-85664290D01*
X129182534Y-85642456D01*
X129194150Y-85630819D01*
X129194153Y-85630815D01*
X129202241Y-85622713D01*
X129228492Y-85563336D01*
X129243737Y-85528853D01*
X129243738Y-85528851D01*
X129247506Y-85520327D01*
X129250500Y-85494646D01*
X129250500Y-85247925D01*
X129270185Y-85180886D01*
X129322989Y-85135131D01*
X129392147Y-85125187D01*
X129433665Y-85138951D01*
X129465235Y-85156092D01*
X129559744Y-85180886D01*
X129622005Y-85197220D01*
X129622007Y-85197220D01*
X129629233Y-85199116D01*
X129680564Y-85199922D01*
X129747285Y-85220657D01*
X129792205Y-85274173D01*
X129801867Y-85310299D01*
X129812999Y-85411135D01*
X129815565Y-85418147D01*
X129815566Y-85418151D01*
X129868697Y-85563336D01*
X129871266Y-85570356D01*
X129875433Y-85576558D01*
X129875435Y-85576561D01*
X129906744Y-85623153D01*
X129965830Y-85711083D01*
X129971360Y-85716115D01*
X130085702Y-85820159D01*
X130085706Y-85820162D01*
X130091233Y-85825191D01*
X130240235Y-85906092D01*
X130330662Y-85929815D01*
X130397005Y-85947220D01*
X130397007Y-85947220D01*
X130404233Y-85949116D01*
X130440998Y-85949694D01*
X130453115Y-85949884D01*
X130519837Y-85970620D01*
X130564757Y-86024136D01*
X130574958Y-86081058D01*
X130574916Y-86081788D01*
X130574500Y-86085354D01*
X130574500Y-87374646D01*
X130577618Y-87400846D01*
X130623061Y-87503153D01*
X130702287Y-87582241D01*
X130712758Y-87586870D01*
X130712759Y-87586871D01*
X130796147Y-87623737D01*
X130796149Y-87623738D01*
X130804673Y-87627506D01*
X130830354Y-87630500D01*
X131669646Y-87630500D01*
X131673300Y-87630065D01*
X131673302Y-87630065D01*
X131678266Y-87629474D01*
X131695846Y-87627382D01*
X131798153Y-87581939D01*
X131877241Y-87502713D01*
X131922506Y-87400327D01*
X131925500Y-87374646D01*
X131925500Y-87279500D01*
X131945185Y-87212461D01*
X131997989Y-87166706D01*
X132049500Y-87155500D01*
X132575500Y-87155500D01*
X132642539Y-87175185D01*
X132688294Y-87227989D01*
X132699500Y-87279500D01*
X132699500Y-88794646D01*
X132702618Y-88820846D01*
X132748061Y-88923153D01*
X132827287Y-89002241D01*
X132837758Y-89006870D01*
X132837759Y-89006871D01*
X132921147Y-89043737D01*
X132921149Y-89043738D01*
X132929673Y-89047506D01*
X132955354Y-89050500D01*
X135044646Y-89050500D01*
X135048300Y-89050065D01*
X135048302Y-89050065D01*
X135053266Y-89049474D01*
X135070846Y-89047382D01*
X135173153Y-89001939D01*
X135252241Y-88922713D01*
X135297506Y-88820327D01*
X135300500Y-88794646D01*
X135300500Y-88401610D01*
X135320185Y-88334571D01*
X135372989Y-88288816D01*
X135442147Y-88278872D01*
X135505703Y-88307897D01*
X135512181Y-88313929D01*
X135538181Y-88339929D01*
X135571666Y-88401252D01*
X135574500Y-88427610D01*
X135574500Y-89267393D01*
X135581964Y-89290364D01*
X135586504Y-89309279D01*
X135590281Y-89333126D01*
X135601246Y-89354647D01*
X135608689Y-89372616D01*
X135616151Y-89395581D01*
X135621882Y-89403469D01*
X135621884Y-89403473D01*
X135630346Y-89415119D01*
X135640509Y-89431703D01*
X135651472Y-89453220D01*
X135675446Y-89477194D01*
X135933133Y-89734880D01*
X135986072Y-89787819D01*
X136019557Y-89849142D01*
X136014573Y-89918834D01*
X135972701Y-89974767D01*
X135907237Y-89999184D01*
X135898391Y-89999500D01*
X135255354Y-89999500D01*
X135251700Y-89999935D01*
X135251698Y-89999935D01*
X135246734Y-90000526D01*
X135229154Y-90002618D01*
X135126847Y-90048061D01*
X135047759Y-90127287D01*
X135043130Y-90137758D01*
X135043129Y-90137759D01*
X135006716Y-90220124D01*
X135002494Y-90229673D01*
X134999500Y-90255354D01*
X134999500Y-90997390D01*
X134979815Y-91064429D01*
X134963181Y-91085071D01*
X134434098Y-91614154D01*
X134372775Y-91647639D01*
X134303083Y-91642655D01*
X134247150Y-91600783D01*
X134222733Y-91535319D01*
X134230308Y-91482945D01*
X134237129Y-91464750D01*
X134240697Y-91449744D01*
X134246137Y-91399669D01*
X134246500Y-91392972D01*
X134246500Y-91262830D01*
X134242096Y-91247831D01*
X134240726Y-91246644D01*
X134233168Y-91245000D01*
X132121330Y-91245000D01*
X132106331Y-91249404D01*
X132105144Y-91250774D01*
X132103500Y-91258332D01*
X132103500Y-91392972D01*
X132103863Y-91399669D01*
X132109303Y-91449744D01*
X132112871Y-91464753D01*
X132157317Y-91583311D01*
X132165712Y-91598646D01*
X132241016Y-91699124D01*
X132253377Y-91711485D01*
X132259768Y-91716275D01*
X132301607Y-91772233D01*
X132306552Y-91841927D01*
X132273032Y-91903231D01*
X132211690Y-91936681D01*
X132185401Y-91939500D01*
X132092610Y-91939500D01*
X132025571Y-91919815D01*
X132004929Y-91903181D01*
X131738218Y-91636470D01*
X131704733Y-91575147D01*
X131703136Y-91531316D01*
X131704918Y-91518796D01*
X131705490Y-91514778D01*
X131705645Y-91500000D01*
X131701379Y-91464750D01*
X131686175Y-91339105D01*
X131686174Y-91339101D01*
X131685276Y-91331680D01*
X131656435Y-91255354D01*
X131627989Y-91180073D01*
X131627987Y-91180070D01*
X131625345Y-91173077D01*
X131616657Y-91160436D01*
X131533549Y-91039513D01*
X131533546Y-91039510D01*
X131529312Y-91033349D01*
X131428307Y-90943356D01*
X131410140Y-90927170D01*
X132103500Y-90927170D01*
X132107904Y-90942169D01*
X132109274Y-90943356D01*
X132116832Y-90945000D01*
X133007170Y-90945000D01*
X133022169Y-90940596D01*
X133023356Y-90939226D01*
X133025000Y-90931668D01*
X133025000Y-90927170D01*
X133325000Y-90927170D01*
X133329404Y-90942169D01*
X133330774Y-90943356D01*
X133338332Y-90945000D01*
X134228670Y-90945000D01*
X134243669Y-90940596D01*
X134244856Y-90939226D01*
X134246500Y-90931668D01*
X134246500Y-90797028D01*
X134246137Y-90790331D01*
X134240697Y-90740256D01*
X134237129Y-90725247D01*
X134192683Y-90606689D01*
X134184288Y-90591354D01*
X134108984Y-90490876D01*
X134096624Y-90478516D01*
X133996146Y-90403212D01*
X133980811Y-90394817D01*
X133862253Y-90350371D01*
X133847244Y-90346803D01*
X133797169Y-90341363D01*
X133790472Y-90341000D01*
X133342830Y-90341000D01*
X133327831Y-90345404D01*
X133326644Y-90346774D01*
X133325000Y-90354332D01*
X133325000Y-90927170D01*
X133025000Y-90927170D01*
X133025000Y-90358830D01*
X133020596Y-90343831D01*
X133019226Y-90342644D01*
X133011668Y-90341000D01*
X132559528Y-90341000D01*
X132552831Y-90341363D01*
X132502756Y-90346803D01*
X132487747Y-90350371D01*
X132369189Y-90394817D01*
X132353854Y-90403212D01*
X132253376Y-90478516D01*
X132241016Y-90490876D01*
X132165712Y-90591354D01*
X132157317Y-90606689D01*
X132112871Y-90725247D01*
X132109303Y-90740256D01*
X132103863Y-90790331D01*
X132103500Y-90797028D01*
X132103500Y-90927170D01*
X131410140Y-90927170D01*
X131408303Y-90925533D01*
X131408301Y-90925532D01*
X131402721Y-90920560D01*
X131388347Y-90912949D01*
X131327801Y-90880892D01*
X131252881Y-90841224D01*
X131088441Y-90799919D01*
X131002248Y-90799468D01*
X130926368Y-90799070D01*
X130926367Y-90799070D01*
X130918895Y-90799031D01*
X130897235Y-90804231D01*
X130761295Y-90836868D01*
X130761293Y-90836869D01*
X130754032Y-90838612D01*
X130747399Y-90842035D01*
X130747395Y-90842037D01*
X130716753Y-90857853D01*
X130603369Y-90916375D01*
X130597737Y-90921288D01*
X130502442Y-91004419D01*
X130475604Y-91027831D01*
X130378113Y-91166547D01*
X130316524Y-91324513D01*
X130294394Y-91492611D01*
X130295214Y-91500039D01*
X130295214Y-91500041D01*
X130301005Y-91552494D01*
X130312999Y-91661135D01*
X130315565Y-91668147D01*
X130315566Y-91668151D01*
X130367659Y-91810500D01*
X130371266Y-91820356D01*
X130375433Y-91826558D01*
X130375435Y-91826561D01*
X130426922Y-91903181D01*
X130465830Y-91961083D01*
X130471360Y-91966115D01*
X130585702Y-92070159D01*
X130585706Y-92070162D01*
X130591233Y-92075191D01*
X130740235Y-92156092D01*
X130818674Y-92176670D01*
X130897005Y-92197220D01*
X130897007Y-92197220D01*
X130904233Y-92199116D01*
X131050232Y-92201409D01*
X131116953Y-92222144D01*
X131135965Y-92237713D01*
X131611780Y-92713528D01*
X131633295Y-92724490D01*
X131649882Y-92734655D01*
X131661522Y-92743113D01*
X131661525Y-92743115D01*
X131669419Y-92748850D01*
X131678700Y-92751866D01*
X131678701Y-92751866D01*
X131692388Y-92756313D01*
X131710359Y-92763757D01*
X131731874Y-92774719D01*
X131741511Y-92776245D01*
X131741513Y-92776246D01*
X131755726Y-92778497D01*
X131774636Y-92783037D01*
X131797607Y-92790500D01*
X132298605Y-92790500D01*
X132365644Y-92810185D01*
X132386209Y-92826742D01*
X132422681Y-92863151D01*
X132422687Y-92863155D01*
X132430787Y-92871241D01*
X132465543Y-92886606D01*
X132518897Y-92931717D01*
X132539393Y-92998513D01*
X132520523Y-93065786D01*
X132465738Y-93113341D01*
X132430347Y-93129061D01*
X132351259Y-93208287D01*
X132346630Y-93218758D01*
X132346629Y-93218759D01*
X132336377Y-93241950D01*
X132305994Y-93310673D01*
X132303000Y-93336354D01*
X132303000Y-93933646D01*
X132306118Y-93959846D01*
X132351561Y-94062153D01*
X132430787Y-94141241D01*
X132465543Y-94156606D01*
X132518897Y-94201717D01*
X132539393Y-94268513D01*
X132520523Y-94335786D01*
X132465738Y-94383341D01*
X132430347Y-94399061D01*
X132422257Y-94407165D01*
X132386380Y-94443104D01*
X132325086Y-94476643D01*
X132298622Y-94479500D01*
X132277607Y-94479500D01*
X132254636Y-94486963D01*
X132235726Y-94491503D01*
X132225734Y-94493086D01*
X132211874Y-94495281D01*
X132190357Y-94506245D01*
X132172383Y-94513689D01*
X132158705Y-94518133D01*
X132158704Y-94518134D01*
X132149420Y-94521150D01*
X132130682Y-94534764D01*
X132129881Y-94535346D01*
X132113293Y-94545511D01*
X132091780Y-94556472D01*
X130921472Y-95726780D01*
X130910509Y-95748297D01*
X130900346Y-95764881D01*
X130891884Y-95776527D01*
X130891882Y-95776531D01*
X130886151Y-95784419D01*
X130883136Y-95793698D01*
X130878689Y-95807384D01*
X130871246Y-95825353D01*
X130860281Y-95846874D01*
X130858755Y-95856511D01*
X130858754Y-95856513D01*
X130856504Y-95870721D01*
X130851964Y-95889636D01*
X130844500Y-95912607D01*
X130844500Y-98885180D01*
X130824815Y-98952219D01*
X130802015Y-98978621D01*
X130745604Y-99027831D01*
X130648113Y-99166547D01*
X130586524Y-99324513D01*
X130564394Y-99492611D01*
X130565214Y-99500039D01*
X130565214Y-99500041D01*
X130566841Y-99514778D01*
X130582999Y-99661135D01*
X130585565Y-99668147D01*
X130585566Y-99668151D01*
X130638697Y-99813336D01*
X130641266Y-99820356D01*
X130645433Y-99826558D01*
X130645435Y-99826561D01*
X130670144Y-99863332D01*
X130735830Y-99961083D01*
X130741355Y-99966110D01*
X130743668Y-99968790D01*
X130772571Y-100032401D01*
X130762496Y-100101540D01*
X130737561Y-100137414D01*
X130722787Y-100152215D01*
X130661495Y-100185756D01*
X130591799Y-100180835D01*
X130547421Y-100152371D01*
X130500818Y-100105849D01*
X130500815Y-100105847D01*
X130492713Y-100097759D01*
X130482242Y-100093130D01*
X130482241Y-100093129D01*
X130398853Y-100056263D01*
X130398851Y-100056262D01*
X130390327Y-100052494D01*
X130364646Y-100049500D01*
X129635354Y-100049500D01*
X129631700Y-100049935D01*
X129631698Y-100049935D01*
X129626734Y-100050526D01*
X129609154Y-100052618D01*
X129600656Y-100056393D01*
X129600651Y-100056394D01*
X129581563Y-100064873D01*
X129512305Y-100074098D01*
X129449054Y-100044414D01*
X129432000Y-100025916D01*
X129412484Y-99999876D01*
X129400124Y-99987516D01*
X129299646Y-99912212D01*
X129284311Y-99903817D01*
X129165753Y-99859371D01*
X129150744Y-99855803D01*
X129100669Y-99850363D01*
X129093972Y-99850000D01*
X128897830Y-99850000D01*
X128882831Y-99854404D01*
X128881644Y-99855774D01*
X128880000Y-99863332D01*
X128880000Y-102832170D01*
X128884404Y-102847169D01*
X128885774Y-102848356D01*
X128893332Y-102850000D01*
X129093972Y-102850000D01*
X129100669Y-102849637D01*
X129150744Y-102844197D01*
X129165753Y-102840629D01*
X129284311Y-102796183D01*
X129299646Y-102787788D01*
X129376134Y-102730463D01*
X129441585Y-102706010D01*
X129509866Y-102720824D01*
X129559299Y-102770201D01*
X129574500Y-102829689D01*
X129574500Y-104140397D01*
X129581964Y-104163368D01*
X129586504Y-104182283D01*
X129590281Y-104206130D01*
X129601246Y-104227651D01*
X129608689Y-104245620D01*
X129616151Y-104268585D01*
X129621882Y-104276473D01*
X129621884Y-104276477D01*
X129630346Y-104288123D01*
X129640509Y-104304707D01*
X129651472Y-104326224D01*
X130148778Y-104823530D01*
X130170295Y-104834493D01*
X130186879Y-104844656D01*
X130198525Y-104853118D01*
X130198529Y-104853120D01*
X130206417Y-104858851D01*
X130215696Y-104861866D01*
X130229382Y-104866313D01*
X130247351Y-104873756D01*
X130268872Y-104884721D01*
X130278509Y-104886247D01*
X130278511Y-104886248D01*
X130292719Y-104888498D01*
X130311634Y-104893038D01*
X130334605Y-104900502D01*
X131165395Y-104900502D01*
X131188366Y-104893038D01*
X131207281Y-104888498D01*
X131221489Y-104886248D01*
X131221491Y-104886247D01*
X131231128Y-104884721D01*
X131252649Y-104873756D01*
X131270618Y-104866313D01*
X131284304Y-104861866D01*
X131293583Y-104858851D01*
X131301471Y-104853120D01*
X131301475Y-104853118D01*
X131313121Y-104844656D01*
X131329705Y-104834493D01*
X131351222Y-104823530D01*
X135348528Y-100826224D01*
X135359491Y-100804707D01*
X135369654Y-100788123D01*
X135378116Y-100776477D01*
X135378118Y-100776473D01*
X135383849Y-100768585D01*
X135391311Y-100745620D01*
X135398754Y-100727651D01*
X135409719Y-100706130D01*
X135413496Y-100682283D01*
X135418036Y-100663368D01*
X135425500Y-100640397D01*
X135425500Y-98362246D01*
X136581900Y-98362246D01*
X136585018Y-98388446D01*
X136630461Y-98490753D01*
X136709687Y-98569841D01*
X136720158Y-98574470D01*
X136720159Y-98574471D01*
X136803547Y-98611337D01*
X136803549Y-98611338D01*
X136812073Y-98615106D01*
X136837754Y-98618100D01*
X139162246Y-98618100D01*
X139165900Y-98617665D01*
X139165902Y-98617665D01*
X139170866Y-98617074D01*
X139188446Y-98614982D01*
X139290753Y-98569539D01*
X139369841Y-98490313D01*
X139374471Y-98479841D01*
X139411337Y-98396453D01*
X139411338Y-98396451D01*
X139415106Y-98387927D01*
X139418100Y-98362246D01*
X139418100Y-96037754D01*
X139414982Y-96011554D01*
X139369539Y-95909247D01*
X139290313Y-95830159D01*
X139279842Y-95825530D01*
X139279841Y-95825529D01*
X139196453Y-95788663D01*
X139196451Y-95788662D01*
X139187927Y-95784894D01*
X139162246Y-95781900D01*
X136837754Y-95781900D01*
X136834100Y-95782335D01*
X136834098Y-95782335D01*
X136829134Y-95782926D01*
X136811554Y-95785018D01*
X136709247Y-95830461D01*
X136630159Y-95909687D01*
X136625530Y-95920158D01*
X136625529Y-95920159D01*
X136597859Y-95982748D01*
X136584894Y-96012073D01*
X136581900Y-96037754D01*
X136581900Y-98362246D01*
X135425500Y-98362246D01*
X135425500Y-96015017D01*
X135445185Y-95947978D01*
X135468968Y-95920727D01*
X135513741Y-95882487D01*
X135519423Y-95877634D01*
X135618361Y-95739947D01*
X135681601Y-95582634D01*
X135697017Y-95474314D01*
X135704918Y-95418800D01*
X135704918Y-95418794D01*
X135705490Y-95414778D01*
X135705645Y-95400000D01*
X135697435Y-95332153D01*
X135686175Y-95239105D01*
X135686174Y-95239101D01*
X135685276Y-95231680D01*
X135625345Y-95073077D01*
X135574148Y-94998585D01*
X135533549Y-94939513D01*
X135533546Y-94939510D01*
X135529312Y-94933349D01*
X135487340Y-94895953D01*
X135408303Y-94825533D01*
X135408301Y-94825532D01*
X135402721Y-94820560D01*
X135388347Y-94812949D01*
X135307847Y-94770327D01*
X135252881Y-94741224D01*
X135088441Y-94699919D01*
X135002248Y-94699468D01*
X134926368Y-94699070D01*
X134926367Y-94699070D01*
X134918895Y-94699031D01*
X134897235Y-94704231D01*
X134761295Y-94736868D01*
X134761293Y-94736869D01*
X134754032Y-94738612D01*
X134747399Y-94742035D01*
X134747395Y-94742037D01*
X134710524Y-94761068D01*
X134603369Y-94816375D01*
X134597737Y-94821288D01*
X134529013Y-94881240D01*
X134475604Y-94927831D01*
X134378113Y-95066547D01*
X134316524Y-95224513D01*
X134294394Y-95392611D01*
X134295214Y-95400039D01*
X134295214Y-95400041D01*
X134303414Y-95474314D01*
X134312999Y-95561135D01*
X134315565Y-95568147D01*
X134315566Y-95568151D01*
X134368697Y-95713336D01*
X134371266Y-95720356D01*
X134375433Y-95726558D01*
X134375435Y-95726561D01*
X134412901Y-95782316D01*
X134465830Y-95861083D01*
X134471358Y-95866113D01*
X134471364Y-95866120D01*
X134533953Y-95923071D01*
X134570290Y-95982748D01*
X134574500Y-96014785D01*
X134574500Y-100345394D01*
X134554815Y-100412433D01*
X134538181Y-100433075D01*
X131907181Y-103064075D01*
X131845858Y-103097560D01*
X131776166Y-103092576D01*
X131720233Y-103050704D01*
X131695816Y-102985240D01*
X131695500Y-102976394D01*
X131695500Y-102711132D01*
X131715185Y-102644093D01*
X131749266Y-102608940D01*
X131752691Y-102606586D01*
X131763153Y-102601939D01*
X131842241Y-102522713D01*
X131874727Y-102449233D01*
X131883737Y-102428853D01*
X131883738Y-102428851D01*
X131887506Y-102420327D01*
X131890500Y-102394646D01*
X131890500Y-100305354D01*
X131887382Y-100279154D01*
X131841939Y-100176847D01*
X131833838Y-100168761D01*
X131833836Y-100168757D01*
X131802625Y-100137601D01*
X131769086Y-100076308D01*
X131774009Y-100006612D01*
X131789531Y-99977484D01*
X131876988Y-99855774D01*
X131888361Y-99839947D01*
X131951601Y-99682634D01*
X131975490Y-99514778D01*
X131975645Y-99500000D01*
X131955276Y-99331680D01*
X131903763Y-99195354D01*
X131897989Y-99180073D01*
X131897987Y-99180070D01*
X131895345Y-99173077D01*
X131850993Y-99108545D01*
X131803549Y-99039513D01*
X131803546Y-99039510D01*
X131799312Y-99033349D01*
X131757219Y-98995845D01*
X131737011Y-98977840D01*
X131700052Y-98918545D01*
X131695500Y-98885257D01*
X131695500Y-96207610D01*
X131715185Y-96140571D01*
X131731819Y-96119929D01*
X132377434Y-95474314D01*
X132438757Y-95440829D01*
X132508449Y-95445813D01*
X132515254Y-95448584D01*
X132524647Y-95452737D01*
X132524649Y-95452738D01*
X132533173Y-95456506D01*
X132558854Y-95459500D01*
X133791146Y-95459500D01*
X133794800Y-95459065D01*
X133794802Y-95459065D01*
X133799766Y-95458474D01*
X133817346Y-95456382D01*
X133919653Y-95410939D01*
X133998741Y-95331713D01*
X134003909Y-95320023D01*
X134040237Y-95237853D01*
X134040238Y-95237851D01*
X134044006Y-95229327D01*
X134047000Y-95203646D01*
X134047000Y-94606354D01*
X134043882Y-94580154D01*
X133998439Y-94477847D01*
X133919213Y-94398759D01*
X133884457Y-94383394D01*
X133831103Y-94338283D01*
X133810607Y-94271487D01*
X133829477Y-94204214D01*
X133884262Y-94156659D01*
X133909191Y-94145586D01*
X133919653Y-94140939D01*
X133927743Y-94132835D01*
X133963620Y-94096896D01*
X134024914Y-94063357D01*
X134051378Y-94060500D01*
X134432393Y-94060500D01*
X134455364Y-94053036D01*
X134474279Y-94048496D01*
X134488487Y-94046246D01*
X134488489Y-94046245D01*
X134498126Y-94044719D01*
X134519647Y-94033754D01*
X134537616Y-94026311D01*
X134551302Y-94021864D01*
X134560581Y-94018849D01*
X134568469Y-94013118D01*
X134568473Y-94013116D01*
X134580119Y-94004654D01*
X134596703Y-93994491D01*
X134618220Y-93983528D01*
X134822107Y-93779641D01*
X134883430Y-93746156D01*
X134953122Y-93751140D01*
X135009055Y-93793012D01*
X135023111Y-93816985D01*
X135043412Y-93862688D01*
X135043414Y-93862691D01*
X135048061Y-93873153D01*
X135127287Y-93952241D01*
X135137758Y-93956870D01*
X135137759Y-93956871D01*
X135221147Y-93993737D01*
X135221149Y-93993738D01*
X135229673Y-93997506D01*
X135255354Y-94000500D01*
X136244646Y-94000500D01*
X136248300Y-94000065D01*
X136248302Y-94000065D01*
X136253266Y-93999474D01*
X136270846Y-93997382D01*
X136373153Y-93951939D01*
X136452241Y-93872713D01*
X136461731Y-93851248D01*
X136493737Y-93778853D01*
X136493738Y-93778851D01*
X136497506Y-93770327D01*
X136500500Y-93744646D01*
X136500500Y-93002610D01*
X136520185Y-92935571D01*
X136536819Y-92914929D01*
X137098528Y-92353220D01*
X137109489Y-92331707D01*
X137119654Y-92315119D01*
X137120686Y-92313698D01*
X137133850Y-92295580D01*
X137141311Y-92272617D01*
X137148757Y-92254639D01*
X137155288Y-92241822D01*
X137159719Y-92233126D01*
X137163497Y-92209274D01*
X137168038Y-92190358D01*
X137175500Y-92167393D01*
X137175500Y-89882607D01*
X137168036Y-89859636D01*
X137163496Y-89840721D01*
X137161246Y-89826513D01*
X137161245Y-89826511D01*
X137159719Y-89816874D01*
X137148754Y-89795353D01*
X137141311Y-89777384D01*
X137136865Y-89763701D01*
X137133849Y-89754419D01*
X137128111Y-89746521D01*
X137119654Y-89734880D01*
X137109492Y-89718299D01*
X137098528Y-89696780D01*
X137003220Y-89601472D01*
X137003218Y-89601471D01*
X136734873Y-89333126D01*
X136461819Y-89060071D01*
X136428334Y-88998748D01*
X136425500Y-88972390D01*
X136425500Y-88132607D01*
X136418036Y-88109636D01*
X136413496Y-88090721D01*
X136411246Y-88076513D01*
X136411245Y-88076511D01*
X136409719Y-88066874D01*
X136398754Y-88045353D01*
X136391311Y-88027384D01*
X136386864Y-88013698D01*
X136383849Y-88004419D01*
X136378118Y-87996531D01*
X136378116Y-87996527D01*
X136369654Y-87984881D01*
X136359491Y-87968297D01*
X136348528Y-87946780D01*
X135553220Y-87151472D01*
X135531703Y-87140509D01*
X135515119Y-87130346D01*
X135503473Y-87121884D01*
X135503469Y-87121882D01*
X135495581Y-87116151D01*
X135472616Y-87108689D01*
X135454647Y-87101246D01*
X135433126Y-87090281D01*
X135423489Y-87088755D01*
X135423487Y-87088754D01*
X135409279Y-87086504D01*
X135390360Y-87081963D01*
X135386177Y-87080603D01*
X135328504Y-87041165D01*
X135301308Y-86976805D01*
X135300500Y-86962674D01*
X135300500Y-86205354D01*
X135297382Y-86179154D01*
X135251939Y-86076847D01*
X135172713Y-85997759D01*
X135162242Y-85993130D01*
X135162241Y-85993129D01*
X135078853Y-85956263D01*
X135078851Y-85956262D01*
X135070327Y-85952494D01*
X135044646Y-85949500D01*
X134549500Y-85949500D01*
X134482461Y-85929815D01*
X134436706Y-85877011D01*
X134425500Y-85825500D01*
X134425500Y-85674500D01*
X134445185Y-85607461D01*
X134497989Y-85561706D01*
X134549500Y-85550500D01*
X135044646Y-85550500D01*
X135048300Y-85550065D01*
X135048302Y-85550065D01*
X135053266Y-85549474D01*
X135070846Y-85547382D01*
X135173153Y-85501939D01*
X135252241Y-85422713D01*
X135297506Y-85320327D01*
X135300500Y-85294646D01*
X135300500Y-82705354D01*
X135297382Y-82679154D01*
X135251939Y-82576847D01*
X135172713Y-82497759D01*
X135162242Y-82493130D01*
X135162241Y-82493129D01*
X135078853Y-82456263D01*
X135078851Y-82456262D01*
X135070327Y-82452494D01*
X135044646Y-82449500D01*
X132955354Y-82449500D01*
X132951700Y-82449935D01*
X132951698Y-82449935D01*
X132946734Y-82450526D01*
X132929154Y-82452618D01*
X132826847Y-82498061D01*
X132747759Y-82577287D01*
X132702494Y-82679673D01*
X132699500Y-82705354D01*
X132699500Y-85294646D01*
X132702618Y-85320846D01*
X132748061Y-85423153D01*
X132827287Y-85502241D01*
X132837758Y-85506870D01*
X132837759Y-85506871D01*
X132921147Y-85543737D01*
X132921149Y-85543738D01*
X132929673Y-85547506D01*
X132955354Y-85550500D01*
X133450500Y-85550500D01*
X133517539Y-85570185D01*
X133563294Y-85622989D01*
X133574500Y-85674500D01*
X133574500Y-85825500D01*
X133554815Y-85892539D01*
X133502011Y-85938294D01*
X133450500Y-85949500D01*
X132955354Y-85949500D01*
X132951700Y-85949935D01*
X132951698Y-85949935D01*
X132946734Y-85950526D01*
X132929154Y-85952618D01*
X132826847Y-85998061D01*
X132747759Y-86077287D01*
X132743130Y-86087758D01*
X132743129Y-86087759D01*
X132742605Y-86088946D01*
X132702494Y-86179673D01*
X132701415Y-86188928D01*
X132701414Y-86188932D01*
X132700724Y-86194856D01*
X132673411Y-86259165D01*
X132615665Y-86298499D01*
X132577558Y-86304500D01*
X132049500Y-86304500D01*
X131982461Y-86284815D01*
X131936706Y-86232011D01*
X131925500Y-86180500D01*
X131925500Y-86085354D01*
X131922382Y-86059154D01*
X131876939Y-85956847D01*
X131868840Y-85948763D01*
X131866071Y-85944733D01*
X131844322Y-85878334D01*
X131861924Y-85810718D01*
X131913288Y-85763352D01*
X131968263Y-85750500D01*
X131994646Y-85750500D01*
X131998300Y-85750065D01*
X131998302Y-85750065D01*
X132005595Y-85749197D01*
X132020846Y-85747382D01*
X132123153Y-85701939D01*
X132202241Y-85622713D01*
X132228492Y-85563336D01*
X132243737Y-85528853D01*
X132243738Y-85528851D01*
X132247506Y-85520327D01*
X132250500Y-85494646D01*
X132250500Y-84205354D01*
X132247382Y-84179154D01*
X132201939Y-84076847D01*
X132122713Y-83997759D01*
X132112242Y-83993130D01*
X132112241Y-83993129D01*
X132028853Y-83956263D01*
X132028851Y-83956262D01*
X132020327Y-83952494D01*
X131994646Y-83949500D01*
X131005354Y-83949500D01*
X131001700Y-83949935D01*
X131001698Y-83949935D01*
X130996734Y-83950526D01*
X130979154Y-83952618D01*
X130876847Y-83998061D01*
X130797759Y-84077287D01*
X130793130Y-84087758D01*
X130793129Y-84087759D01*
X130758136Y-84166912D01*
X130752494Y-84179673D01*
X130749500Y-84205354D01*
X130749500Y-84431376D01*
X130729815Y-84498415D01*
X130677011Y-84544170D01*
X130607853Y-84554114D01*
X130596001Y-84551779D01*
X130595689Y-84551740D01*
X130588441Y-84549919D01*
X130564958Y-84549796D01*
X130545908Y-84549696D01*
X130478973Y-84529661D01*
X130433495Y-84476617D01*
X130423456Y-84440595D01*
X130422341Y-84431376D01*
X130410276Y-84331680D01*
X130401254Y-84307805D01*
X130352989Y-84180073D01*
X130352987Y-84180070D01*
X130350345Y-84173077D01*
X130346108Y-84166912D01*
X130258549Y-84039513D01*
X130258546Y-84039510D01*
X130254312Y-84033349D01*
X130163563Y-83952494D01*
X130133303Y-83925533D01*
X130133301Y-83925532D01*
X130127721Y-83920560D01*
X130113347Y-83912949D01*
X129984489Y-83844723D01*
X129977881Y-83841224D01*
X129813441Y-83799919D01*
X129727248Y-83799468D01*
X129651368Y-83799070D01*
X129651367Y-83799070D01*
X129643895Y-83799031D01*
X129622235Y-83804231D01*
X129486295Y-83836868D01*
X129486293Y-83836869D01*
X129479032Y-83838612D01*
X129472399Y-83842035D01*
X129472395Y-83842037D01*
X129405465Y-83876583D01*
X129328369Y-83916375D01*
X129256381Y-83979174D01*
X129192926Y-84008408D01*
X129123735Y-83998696D01*
X129123544Y-83998588D01*
X129122713Y-83997759D01*
X129119729Y-83996440D01*
X129119724Y-83996437D01*
X129028853Y-83956263D01*
X129028851Y-83956262D01*
X129020327Y-83952494D01*
X128994646Y-83949500D01*
X128005354Y-83949500D01*
X128001700Y-83949935D01*
X128001698Y-83949935D01*
X127996734Y-83950526D01*
X127979154Y-83952618D01*
X127876847Y-83998061D01*
X127797759Y-84077287D01*
X127793130Y-84087758D01*
X127793129Y-84087759D01*
X127758136Y-84166912D01*
X127752494Y-84179673D01*
X127749500Y-84205354D01*
X127749500Y-85494646D01*
X127752618Y-85520846D01*
X127798061Y-85623153D01*
X127877287Y-85702241D01*
X127887758Y-85706870D01*
X127887759Y-85706871D01*
X127971147Y-85743737D01*
X127971149Y-85743738D01*
X127979673Y-85747506D01*
X128005354Y-85750500D01*
X128031702Y-85750500D01*
X128098741Y-85770185D01*
X128144496Y-85822989D01*
X128154440Y-85892147D01*
X128134017Y-85944555D01*
X128130847Y-85949185D01*
X128122759Y-85957287D01*
X128118130Y-85967758D01*
X128118129Y-85967759D01*
X128101291Y-86005847D01*
X128077494Y-86059673D01*
X128074500Y-86085354D01*
X128074500Y-86180500D01*
X128054815Y-86247539D01*
X128002011Y-86293294D01*
X127950500Y-86304500D01*
X127422417Y-86304500D01*
X127355378Y-86284815D01*
X127309623Y-86232011D01*
X127299286Y-86195153D01*
X127299251Y-86194856D01*
X127297382Y-86179154D01*
X127251939Y-86076847D01*
X127172713Y-85997759D01*
X127162242Y-85993130D01*
X127162241Y-85993129D01*
X127078853Y-85956263D01*
X127078851Y-85956262D01*
X127070327Y-85952494D01*
X127044646Y-85949500D01*
X126549500Y-85949500D01*
X126482461Y-85929815D01*
X126436706Y-85877011D01*
X126425500Y-85825500D01*
X126425500Y-85674500D01*
X126445185Y-85607461D01*
X126497989Y-85561706D01*
X126549500Y-85550500D01*
X127044646Y-85550500D01*
X127048300Y-85550065D01*
X127048302Y-85550065D01*
X127053266Y-85549474D01*
X127070846Y-85547382D01*
X127173153Y-85501939D01*
X127252241Y-85422713D01*
X127297506Y-85320327D01*
X127300500Y-85294646D01*
X127300500Y-82705354D01*
X127297382Y-82679154D01*
X127251939Y-82576847D01*
X127172713Y-82497759D01*
X127162242Y-82493130D01*
X127162241Y-82493129D01*
X127078853Y-82456263D01*
X127078851Y-82456262D01*
X127070327Y-82452494D01*
X127044646Y-82449500D01*
X124955354Y-82449500D01*
X124951700Y-82449935D01*
X124951698Y-82449935D01*
X124946734Y-82450526D01*
X124929154Y-82452618D01*
X124826847Y-82498061D01*
X124747759Y-82577287D01*
X124702494Y-82679673D01*
X124699500Y-82705354D01*
X124699500Y-85294646D01*
X124702618Y-85320846D01*
X124748061Y-85423153D01*
X124827287Y-85502241D01*
X124837758Y-85506870D01*
X124837759Y-85506871D01*
X124921147Y-85543737D01*
X124921149Y-85543738D01*
X124929673Y-85547506D01*
X124955354Y-85550500D01*
X125450500Y-85550500D01*
X125517539Y-85570185D01*
X125563294Y-85622989D01*
X125574500Y-85674500D01*
X125574500Y-85825500D01*
X125554815Y-85892539D01*
X125502011Y-85938294D01*
X125450500Y-85949500D01*
X124955354Y-85949500D01*
X124951700Y-85949935D01*
X124951698Y-85949935D01*
X124946734Y-85950526D01*
X124929154Y-85952618D01*
X124826847Y-85998061D01*
X124747759Y-86077287D01*
X124743130Y-86087758D01*
X124743129Y-86087759D01*
X124742605Y-86088946D01*
X124702494Y-86179673D01*
X124699500Y-86205354D01*
X124699500Y-86950500D01*
X124679815Y-87017539D01*
X124627011Y-87063294D01*
X124575500Y-87074500D01*
X124432607Y-87074500D01*
X124409636Y-87081963D01*
X124390726Y-87086503D01*
X124376513Y-87088754D01*
X124376511Y-87088755D01*
X124366874Y-87090281D01*
X124345359Y-87101243D01*
X124327389Y-87108687D01*
X124304419Y-87116150D01*
X124296525Y-87121885D01*
X124296522Y-87121887D01*
X124284882Y-87130345D01*
X124268295Y-87140510D01*
X124246780Y-87151472D01*
X123651472Y-87746780D01*
X123640509Y-87768297D01*
X123630346Y-87784881D01*
X123621884Y-87796527D01*
X123621882Y-87796531D01*
X123616151Y-87804419D01*
X123613136Y-87813698D01*
X123608689Y-87827384D01*
X123601246Y-87845353D01*
X123590281Y-87866874D01*
X123588755Y-87876511D01*
X123588754Y-87876513D01*
X123586504Y-87890721D01*
X123581964Y-87909636D01*
X123574500Y-87932607D01*
X123574500Y-88972391D01*
X123554815Y-89039430D01*
X123538182Y-89060071D01*
X121746780Y-90851472D01*
X121651472Y-90946780D01*
X121640509Y-90968297D01*
X121630346Y-90984881D01*
X121621884Y-90996527D01*
X121621882Y-90996531D01*
X121616151Y-91004419D01*
X121613136Y-91013698D01*
X121608689Y-91027384D01*
X121601246Y-91045353D01*
X121590281Y-91066874D01*
X121588755Y-91076511D01*
X121586504Y-91090721D01*
X121581964Y-91109636D01*
X121574500Y-91132607D01*
X121574500Y-93067393D01*
X120300500Y-93067393D01*
X120300500Y-80559972D01*
X120636400Y-80559972D01*
X120636763Y-80566669D01*
X120642203Y-80616744D01*
X120645771Y-80631753D01*
X120690217Y-80750311D01*
X120698612Y-80765646D01*
X120773916Y-80866124D01*
X120786276Y-80878484D01*
X120886754Y-80953788D01*
X120902089Y-80962183D01*
X121020647Y-81006629D01*
X121035656Y-81010197D01*
X121085731Y-81015637D01*
X121092428Y-81016000D01*
X121832170Y-81016000D01*
X121847169Y-81011596D01*
X121848356Y-81010226D01*
X121850000Y-81002668D01*
X121850000Y-79667830D01*
X121845596Y-79652831D01*
X121844226Y-79651644D01*
X121836668Y-79650000D01*
X120654230Y-79650000D01*
X120639231Y-79654404D01*
X120638044Y-79655774D01*
X120636400Y-79663332D01*
X120636400Y-80559972D01*
X120300500Y-80559972D01*
X120300500Y-75559972D01*
X120596400Y-75559972D01*
X120596763Y-75566669D01*
X120602203Y-75616744D01*
X120605771Y-75631753D01*
X120650217Y-75750311D01*
X120658612Y-75765646D01*
X120733916Y-75866124D01*
X120746276Y-75878484D01*
X120846754Y-75953788D01*
X120862089Y-75962183D01*
X120908989Y-75979765D01*
X120964853Y-76021729D01*
X120989161Y-76087234D01*
X120974195Y-76155482D01*
X120939828Y-76195099D01*
X120849880Y-76262512D01*
X120837516Y-76274876D01*
X120762212Y-76375354D01*
X120753817Y-76390689D01*
X120709371Y-76509247D01*
X120705803Y-76524256D01*
X120700363Y-76574331D01*
X120700000Y-76581028D01*
X120700000Y-76832170D01*
X120704404Y-76847169D01*
X120705774Y-76848356D01*
X120713332Y-76850000D01*
X121826000Y-76850000D01*
X121893039Y-76869685D01*
X121938794Y-76922489D01*
X121950000Y-76974000D01*
X121950000Y-77026000D01*
X121930315Y-77093039D01*
X121877511Y-77138794D01*
X121826000Y-77150000D01*
X120717830Y-77150000D01*
X120702831Y-77154404D01*
X120701644Y-77155774D01*
X120700000Y-77163332D01*
X120700000Y-77418972D01*
X120700363Y-77425669D01*
X120705803Y-77475744D01*
X120709371Y-77490753D01*
X120753817Y-77609311D01*
X120762212Y-77624646D01*
X120837516Y-77725124D01*
X120849876Y-77737484D01*
X120953165Y-77814895D01*
X120995005Y-77870852D01*
X120999950Y-77940547D01*
X120966431Y-78001851D01*
X120922327Y-78030230D01*
X120902087Y-78037818D01*
X120886754Y-78046212D01*
X120786276Y-78121516D01*
X120773916Y-78133876D01*
X120698612Y-78234354D01*
X120690217Y-78249689D01*
X120645771Y-78368247D01*
X120642203Y-78383256D01*
X120636763Y-78433331D01*
X120636400Y-78440028D01*
X120636400Y-79332170D01*
X120640804Y-79347169D01*
X120642174Y-79348356D01*
X120649732Y-79350000D01*
X122026000Y-79350000D01*
X122093039Y-79369685D01*
X122138794Y-79422489D01*
X122150000Y-79474000D01*
X122150000Y-80998170D01*
X122154404Y-81013169D01*
X122155774Y-81014356D01*
X122163332Y-81016000D01*
X122907572Y-81016000D01*
X122914269Y-81015637D01*
X122964344Y-81010197D01*
X122979353Y-81006629D01*
X123097911Y-80962183D01*
X123113246Y-80953788D01*
X123213724Y-80878484D01*
X123226084Y-80866124D01*
X123301388Y-80765646D01*
X123309783Y-80750311D01*
X123354229Y-80631753D01*
X123357797Y-80616744D01*
X123363237Y-80566669D01*
X123363600Y-80559972D01*
X123363600Y-80396048D01*
X123383285Y-80329009D01*
X123436089Y-80283254D01*
X123505247Y-80273310D01*
X123568803Y-80302335D01*
X123586955Y-80321856D01*
X123616096Y-80360880D01*
X123671199Y-80434672D01*
X123828305Y-80579899D01*
X124009246Y-80694064D01*
X124207961Y-80773344D01*
X124213542Y-80774454D01*
X124213545Y-80774455D01*
X124254564Y-80782614D01*
X124417797Y-80815083D01*
X124423484Y-80815157D01*
X124423489Y-80815158D01*
X124626038Y-80817809D01*
X124626043Y-80817809D01*
X124631726Y-80817883D01*
X124842582Y-80781651D01*
X124862088Y-80774455D01*
X125037974Y-80709568D01*
X125037977Y-80709567D01*
X125043305Y-80707601D01*
X125227172Y-80598211D01*
X125388026Y-80457146D01*
X125391544Y-80452684D01*
X125516962Y-80293592D01*
X125516965Y-80293588D01*
X125520479Y-80289130D01*
X125620096Y-80099790D01*
X125663705Y-79959348D01*
X125681854Y-79900897D01*
X125681854Y-79900896D01*
X125683540Y-79895467D01*
X125686069Y-79874098D01*
X125713496Y-79809837D01*
X125771311Y-79770604D01*
X125841159Y-79768858D01*
X125900863Y-79805151D01*
X125930413Y-79864620D01*
X125930489Y-79865449D01*
X125932031Y-79870916D01*
X125932031Y-79870917D01*
X125937364Y-79889825D01*
X125988563Y-80071363D01*
X125991075Y-80076457D01*
X125991077Y-80076462D01*
X126005065Y-80104826D01*
X126083189Y-80263246D01*
X126211199Y-80434672D01*
X126368305Y-80579899D01*
X126549246Y-80694064D01*
X126747961Y-80773344D01*
X126753542Y-80774454D01*
X126753545Y-80774455D01*
X126794564Y-80782614D01*
X126957797Y-80815083D01*
X126963484Y-80815157D01*
X126963489Y-80815158D01*
X127166038Y-80817809D01*
X127166043Y-80817809D01*
X127171726Y-80817883D01*
X127280488Y-80799194D01*
X127349892Y-80807241D01*
X127403928Y-80851533D01*
X127425441Y-80918009D01*
X127407598Y-80985562D01*
X127389168Y-81009084D01*
X127360071Y-81038181D01*
X127298748Y-81071666D01*
X127272390Y-81074500D01*
X124182607Y-81074500D01*
X124159636Y-81081963D01*
X124140726Y-81086503D01*
X124140720Y-81086504D01*
X124116874Y-81090281D01*
X124095357Y-81101245D01*
X124077383Y-81108689D01*
X124063705Y-81113133D01*
X124063704Y-81113134D01*
X124054420Y-81116150D01*
X124035682Y-81129764D01*
X124034881Y-81130346D01*
X124018293Y-81140511D01*
X123996780Y-81151472D01*
X122735071Y-82413181D01*
X122673748Y-82446666D01*
X122647390Y-82449500D01*
X120955354Y-82449500D01*
X120951700Y-82449935D01*
X120951698Y-82449935D01*
X120946734Y-82450526D01*
X120929154Y-82452618D01*
X120826847Y-82498061D01*
X120747759Y-82577287D01*
X120702494Y-82679673D01*
X120699500Y-82705354D01*
X120699500Y-85294646D01*
X120702618Y-85320846D01*
X120748061Y-85423153D01*
X120827287Y-85502241D01*
X120837758Y-85506870D01*
X120837759Y-85506871D01*
X120921147Y-85543737D01*
X120921149Y-85543738D01*
X120929673Y-85547506D01*
X120955354Y-85550500D01*
X121450500Y-85550500D01*
X121517539Y-85570185D01*
X121563294Y-85622989D01*
X121574500Y-85674500D01*
X121574500Y-85825500D01*
X121554815Y-85892539D01*
X121502011Y-85938294D01*
X121450500Y-85949500D01*
X120955354Y-85949500D01*
X120951700Y-85949935D01*
X120951698Y-85949935D01*
X120946734Y-85950526D01*
X120929154Y-85952618D01*
X120826847Y-85998061D01*
X120747759Y-86077287D01*
X120743130Y-86087758D01*
X120743129Y-86087759D01*
X120742605Y-86088946D01*
X120702494Y-86179673D01*
X120699500Y-86205354D01*
X120699500Y-88794646D01*
X120702618Y-88820846D01*
X120748061Y-88923153D01*
X120827287Y-89002241D01*
X120837758Y-89006870D01*
X120837759Y-89006871D01*
X120921147Y-89043737D01*
X120921149Y-89043738D01*
X120929673Y-89047506D01*
X120955354Y-89050500D01*
X123044646Y-89050500D01*
X123048300Y-89050065D01*
X123048302Y-89050065D01*
X123053266Y-89049474D01*
X123070846Y-89047382D01*
X123173153Y-89001939D01*
X123252241Y-88922713D01*
X123297506Y-88820327D01*
X123300500Y-88794646D01*
X123300500Y-86205354D01*
X123297382Y-86179154D01*
X123251939Y-86076847D01*
X123172713Y-85997759D01*
X123162242Y-85993130D01*
X123162241Y-85993129D01*
X123078853Y-85956263D01*
X123078851Y-85956262D01*
X123070327Y-85952494D01*
X123044646Y-85949500D01*
X122549500Y-85949500D01*
X122482461Y-85929815D01*
X122436706Y-85877011D01*
X122425500Y-85825500D01*
X122425500Y-85674500D01*
X122445185Y-85607461D01*
X122497989Y-85561706D01*
X122549500Y-85550500D01*
X123044646Y-85550500D01*
X123048300Y-85550065D01*
X123048302Y-85550065D01*
X123053266Y-85549474D01*
X123070846Y-85547382D01*
X123173153Y-85501939D01*
X123252241Y-85422713D01*
X123297506Y-85320327D01*
X123300500Y-85294646D01*
X123300500Y-83102610D01*
X123320185Y-83035571D01*
X123336819Y-83014929D01*
X124389929Y-81961819D01*
X124451252Y-81928334D01*
X124477610Y-81925500D01*
X127567393Y-81925500D01*
X127587183Y-81919070D01*
X127657022Y-81917075D01*
X127716855Y-81953155D01*
X127747684Y-82015855D01*
X127749500Y-82037001D01*
X127749500Y-83294646D01*
X127752618Y-83320846D01*
X127798061Y-83423153D01*
X127877287Y-83502241D01*
X127887758Y-83506870D01*
X127887759Y-83506871D01*
X127971147Y-83543737D01*
X127971149Y-83543738D01*
X127979673Y-83547506D01*
X128005354Y-83550500D01*
X128994646Y-83550500D01*
X128998300Y-83550065D01*
X128998302Y-83550065D01*
X129003266Y-83549474D01*
X129020846Y-83547382D01*
X129123153Y-83501939D01*
X129202241Y-83422713D01*
X129247506Y-83320327D01*
X129250500Y-83294646D01*
X129250500Y-82402610D01*
X129270185Y-82335571D01*
X129286819Y-82314929D01*
X129912319Y-81689429D01*
X129973642Y-81655944D01*
X130043334Y-81660928D01*
X130087681Y-81689429D01*
X130713181Y-82314929D01*
X130746666Y-82376252D01*
X130749500Y-82402610D01*
X130749500Y-83294646D01*
X130752618Y-83320846D01*
X130798061Y-83423153D01*
X130877287Y-83502241D01*
X130887758Y-83506870D01*
X130887759Y-83506871D01*
X130971147Y-83543737D01*
X130971149Y-83543738D01*
X130979673Y-83547506D01*
X131005354Y-83550500D01*
X131994646Y-83550500D01*
X131998300Y-83550065D01*
X131998302Y-83550065D01*
X132003266Y-83549474D01*
X132020846Y-83547382D01*
X132123153Y-83501939D01*
X132202241Y-83422713D01*
X132247506Y-83320327D01*
X132250500Y-83294646D01*
X132250500Y-82049500D01*
X132270185Y-81982461D01*
X132322989Y-81936706D01*
X132374500Y-81925500D01*
X135522390Y-81925500D01*
X135589429Y-81945185D01*
X135610071Y-81961819D01*
X136663181Y-83014929D01*
X136696666Y-83076252D01*
X136699500Y-83102610D01*
X136699500Y-85294646D01*
X136702618Y-85320846D01*
X136748061Y-85423153D01*
X136827287Y-85502241D01*
X136837758Y-85506870D01*
X136837759Y-85506871D01*
X136921147Y-85543737D01*
X136921149Y-85543738D01*
X136929673Y-85547506D01*
X136955354Y-85550500D01*
X137450500Y-85550500D01*
X137517539Y-85570185D01*
X137563294Y-85622989D01*
X137574500Y-85674500D01*
X137574500Y-85825500D01*
X137554815Y-85892539D01*
X137502011Y-85938294D01*
X137450500Y-85949500D01*
X136955354Y-85949500D01*
X136951700Y-85949935D01*
X136951698Y-85949935D01*
X136946734Y-85950526D01*
X136929154Y-85952618D01*
X136826847Y-85998061D01*
X136747759Y-86077287D01*
X136743130Y-86087758D01*
X136743129Y-86087759D01*
X136742605Y-86088946D01*
X136702494Y-86179673D01*
X136699500Y-86205354D01*
X136699500Y-88794646D01*
X136702618Y-88820846D01*
X136748061Y-88923153D01*
X136827287Y-89002241D01*
X136837758Y-89006870D01*
X136837759Y-89006871D01*
X136921147Y-89043737D01*
X136921149Y-89043738D01*
X136929673Y-89047506D01*
X136955354Y-89050500D01*
X139044646Y-89050500D01*
X139048300Y-89050065D01*
X139048302Y-89050065D01*
X139053266Y-89049474D01*
X139070846Y-89047382D01*
X139173153Y-89001939D01*
X139252241Y-88922713D01*
X139297506Y-88820327D01*
X139300500Y-88794646D01*
X139300500Y-86205354D01*
X139297382Y-86179154D01*
X139251939Y-86076847D01*
X139172713Y-85997759D01*
X139162242Y-85993130D01*
X139162241Y-85993129D01*
X139078853Y-85956263D01*
X139078851Y-85956262D01*
X139070327Y-85952494D01*
X139044646Y-85949500D01*
X138549500Y-85949500D01*
X138482461Y-85929815D01*
X138436706Y-85877011D01*
X138425500Y-85825500D01*
X138425500Y-85674500D01*
X138445185Y-85607461D01*
X138497989Y-85561706D01*
X138549500Y-85550500D01*
X139044646Y-85550500D01*
X139048300Y-85550065D01*
X139048302Y-85550065D01*
X139053266Y-85549474D01*
X139070846Y-85547382D01*
X139173153Y-85501939D01*
X139252241Y-85422713D01*
X139297506Y-85320327D01*
X139300500Y-85294646D01*
X139300500Y-82705354D01*
X139297382Y-82679154D01*
X139251939Y-82576847D01*
X139172713Y-82497759D01*
X139162242Y-82493130D01*
X139162241Y-82493129D01*
X139078853Y-82456263D01*
X139078851Y-82456262D01*
X139070327Y-82452494D01*
X139044646Y-82449500D01*
X137352610Y-82449500D01*
X137285571Y-82429815D01*
X137264929Y-82413181D01*
X136003220Y-81151472D01*
X135981703Y-81140509D01*
X135965119Y-81130346D01*
X135953473Y-81121884D01*
X135953469Y-81121882D01*
X135945581Y-81116151D01*
X135922616Y-81108689D01*
X135904647Y-81101246D01*
X135883126Y-81090281D01*
X135873489Y-81088755D01*
X135873487Y-81088754D01*
X135859279Y-81086504D01*
X135840364Y-81081964D01*
X135817393Y-81074500D01*
X134277070Y-81074500D01*
X134210031Y-81054815D01*
X134164276Y-81002011D01*
X134154332Y-80932853D01*
X134181378Y-80873630D01*
X134180789Y-80873189D01*
X134182813Y-80870489D01*
X134183357Y-80869297D01*
X134185145Y-80867377D01*
X134261388Y-80765646D01*
X134269783Y-80750311D01*
X134314229Y-80631753D01*
X134317797Y-80616744D01*
X134323237Y-80566669D01*
X134323600Y-80559972D01*
X134323600Y-80396048D01*
X134343285Y-80329009D01*
X134396089Y-80283254D01*
X134465247Y-80273310D01*
X134528803Y-80302335D01*
X134546955Y-80321856D01*
X134576096Y-80360880D01*
X134631199Y-80434672D01*
X134788305Y-80579899D01*
X134969246Y-80694064D01*
X135167961Y-80773344D01*
X135173542Y-80774454D01*
X135173545Y-80774455D01*
X135214564Y-80782614D01*
X135377797Y-80815083D01*
X135383484Y-80815157D01*
X135383489Y-80815158D01*
X135586038Y-80817809D01*
X135586043Y-80817809D01*
X135591726Y-80817883D01*
X135802582Y-80781651D01*
X135822088Y-80774455D01*
X135997974Y-80709568D01*
X135997977Y-80709567D01*
X136003305Y-80707601D01*
X136187172Y-80598211D01*
X136348026Y-80457146D01*
X136351544Y-80452684D01*
X136476962Y-80293592D01*
X136476965Y-80293588D01*
X136480479Y-80289130D01*
X136580096Y-80099790D01*
X136623705Y-79959348D01*
X136641854Y-79900897D01*
X136641854Y-79900896D01*
X136643540Y-79895467D01*
X136646069Y-79874098D01*
X136673496Y-79809837D01*
X136731311Y-79770604D01*
X136801159Y-79768858D01*
X136860863Y-79805151D01*
X136890413Y-79864620D01*
X136890489Y-79865449D01*
X136892031Y-79870916D01*
X136892031Y-79870917D01*
X136897364Y-79889825D01*
X136948563Y-80071363D01*
X136951075Y-80076457D01*
X136951077Y-80076462D01*
X136965065Y-80104826D01*
X137043189Y-80263246D01*
X137171199Y-80434672D01*
X137328305Y-80579899D01*
X137509246Y-80694064D01*
X137707961Y-80773344D01*
X137713542Y-80774454D01*
X137713545Y-80774455D01*
X137754564Y-80782614D01*
X137917797Y-80815083D01*
X137923484Y-80815157D01*
X137923489Y-80815158D01*
X138126038Y-80817809D01*
X138126043Y-80817809D01*
X138131726Y-80817883D01*
X138342582Y-80781651D01*
X138362088Y-80774455D01*
X138537974Y-80709568D01*
X138537977Y-80709567D01*
X138543305Y-80707601D01*
X138727172Y-80598211D01*
X138888026Y-80457146D01*
X138891544Y-80452684D01*
X139016962Y-80293592D01*
X139016965Y-80293588D01*
X139020479Y-80289130D01*
X139120096Y-80099790D01*
X139163705Y-79959348D01*
X139181854Y-79900897D01*
X139181854Y-79900896D01*
X139183540Y-79895467D01*
X139194230Y-79805151D01*
X139203672Y-79725370D01*
X139203672Y-79725365D01*
X139204100Y-79721751D01*
X139204100Y-79293326D01*
X139189511Y-79134551D01*
X139131437Y-78928637D01*
X139128925Y-78923543D01*
X139128923Y-78923538D01*
X139039326Y-78741854D01*
X139036811Y-78736754D01*
X138908801Y-78565328D01*
X138751695Y-78420101D01*
X138728617Y-78405540D01*
X138575563Y-78308970D01*
X138575561Y-78308969D01*
X138570754Y-78305936D01*
X138372039Y-78226656D01*
X138366458Y-78225546D01*
X138366455Y-78225545D01*
X138267121Y-78205787D01*
X138162203Y-78184917D01*
X137967111Y-78182364D01*
X137900336Y-78161804D01*
X137855276Y-78108406D01*
X137846239Y-78039123D01*
X137876093Y-77975953D01*
X137881054Y-77970694D01*
X138064929Y-77786819D01*
X138126252Y-77753334D01*
X138152610Y-77750500D01*
X138994646Y-77750500D01*
X138998300Y-77750065D01*
X138998302Y-77750065D01*
X139003266Y-77749474D01*
X139020846Y-77747382D01*
X139123153Y-77701939D01*
X139202241Y-77622713D01*
X139216216Y-77591103D01*
X139243737Y-77528853D01*
X139243738Y-77528851D01*
X139247506Y-77520327D01*
X139250500Y-77494646D01*
X139250500Y-76505354D01*
X139247382Y-76479154D01*
X139201939Y-76376847D01*
X139122713Y-76297759D01*
X139112242Y-76293130D01*
X139112241Y-76293129D01*
X139028853Y-76256263D01*
X139028851Y-76256262D01*
X139020327Y-76252494D01*
X138994646Y-76249500D01*
X137705354Y-76249500D01*
X137701700Y-76249935D01*
X137701698Y-76249935D01*
X137696734Y-76250526D01*
X137679154Y-76252618D01*
X137576847Y-76298061D01*
X137497759Y-76377287D01*
X137452494Y-76479673D01*
X137449500Y-76505354D01*
X137449500Y-77147390D01*
X137429815Y-77214429D01*
X137413181Y-77235071D01*
X137262181Y-77386071D01*
X137200858Y-77419556D01*
X137131166Y-77414572D01*
X137075233Y-77372700D01*
X137050816Y-77307236D01*
X137050500Y-77298390D01*
X137050500Y-76505354D01*
X137047382Y-76479154D01*
X137001939Y-76376847D01*
X136922713Y-76297759D01*
X136912242Y-76293130D01*
X136912241Y-76293129D01*
X136828853Y-76256263D01*
X136828851Y-76256262D01*
X136820327Y-76252494D01*
X136794646Y-76249500D01*
X135505354Y-76249500D01*
X135501700Y-76249935D01*
X135501698Y-76249935D01*
X135496734Y-76250526D01*
X135479154Y-76252618D01*
X135376847Y-76298061D01*
X135368760Y-76306162D01*
X135368756Y-76306165D01*
X135335978Y-76339000D01*
X135274684Y-76372538D01*
X135204988Y-76367614D01*
X135190198Y-76360982D01*
X135159489Y-76344723D01*
X135152881Y-76341224D01*
X134988441Y-76299919D01*
X134902248Y-76299468D01*
X134826368Y-76299070D01*
X134826367Y-76299070D01*
X134818895Y-76299031D01*
X134654032Y-76338612D01*
X134585911Y-76373772D01*
X134517310Y-76387028D01*
X134473432Y-76371132D01*
X134472713Y-76372759D01*
X134378853Y-76331263D01*
X134378851Y-76331262D01*
X134370327Y-76327494D01*
X134344646Y-76324500D01*
X133055354Y-76324500D01*
X133051700Y-76324935D01*
X133051698Y-76324935D01*
X133046734Y-76325526D01*
X133029154Y-76327618D01*
X132954041Y-76360982D01*
X132949045Y-76363201D01*
X132879787Y-76372425D01*
X132816537Y-76342741D01*
X132799484Y-76324243D01*
X132762488Y-76274880D01*
X132750121Y-76262513D01*
X132719049Y-76239226D01*
X132677208Y-76183269D01*
X132672262Y-76113575D01*
X132705781Y-76052270D01*
X132767123Y-76018819D01*
X132791455Y-76016210D01*
X132807169Y-76011596D01*
X132808356Y-76010226D01*
X132810000Y-76002668D01*
X132810000Y-74667830D01*
X132805596Y-74652831D01*
X132804226Y-74651644D01*
X132796668Y-74650000D01*
X131614230Y-74650000D01*
X131599231Y-74654404D01*
X131598044Y-74655774D01*
X131596400Y-74663332D01*
X131596400Y-75559972D01*
X131596763Y-75566669D01*
X131602203Y-75616744D01*
X131605771Y-75631753D01*
X131650217Y-75750311D01*
X131658612Y-75765646D01*
X131733916Y-75866124D01*
X131746276Y-75878484D01*
X131846754Y-75953788D01*
X131862084Y-75962181D01*
X131878360Y-75968282D01*
X131934224Y-76010246D01*
X131958533Y-76075751D01*
X131956000Y-76110751D01*
X131950000Y-76138332D01*
X131950000Y-77857172D01*
X131956594Y-77879629D01*
X131956594Y-77949499D01*
X131918820Y-78008277D01*
X131881146Y-78030673D01*
X131862085Y-78037819D01*
X131846754Y-78046212D01*
X131746276Y-78121516D01*
X131733916Y-78133876D01*
X131658612Y-78234354D01*
X131650217Y-78249689D01*
X131605771Y-78368247D01*
X131602203Y-78383256D01*
X131596763Y-78433331D01*
X131596400Y-78440028D01*
X131596400Y-79332170D01*
X131600804Y-79347169D01*
X131602174Y-79348356D01*
X131609732Y-79350000D01*
X132792170Y-79350000D01*
X132807169Y-79345596D01*
X132808356Y-79344226D01*
X132810000Y-79336668D01*
X132810000Y-78001830D01*
X132805596Y-77986831D01*
X132804226Y-77985644D01*
X132796668Y-77984000D01*
X132793414Y-77984000D01*
X132784110Y-77981268D01*
X132783641Y-77981166D01*
X132783648Y-77981132D01*
X132726375Y-77964315D01*
X132680620Y-77911511D01*
X132670676Y-77842353D01*
X132699701Y-77778797D01*
X132719049Y-77760774D01*
X132750121Y-77737487D01*
X132762484Y-77725124D01*
X132799448Y-77675803D01*
X132855405Y-77633963D01*
X132925100Y-77629017D01*
X132948813Y-77636758D01*
X133021147Y-77668737D01*
X133021149Y-77668738D01*
X133029673Y-77672506D01*
X133055354Y-77675500D01*
X134344646Y-77675500D01*
X134348300Y-77675065D01*
X134348302Y-77675065D01*
X134353266Y-77674474D01*
X134370846Y-77672382D01*
X134473153Y-77626939D01*
X134474210Y-77629318D01*
X134524903Y-77612713D01*
X134587908Y-77627681D01*
X134633666Y-77652526D01*
X134633670Y-77652528D01*
X134640235Y-77656092D01*
X134647460Y-77657987D01*
X134647464Y-77657989D01*
X134797005Y-77697220D01*
X134797007Y-77697220D01*
X134804233Y-77699116D01*
X134887178Y-77700419D01*
X134966290Y-77701662D01*
X134966293Y-77701662D01*
X134973760Y-77701779D01*
X135102116Y-77672382D01*
X135131738Y-77665598D01*
X135131739Y-77665598D01*
X135139029Y-77663928D01*
X135191973Y-77637300D01*
X135260707Y-77624763D01*
X135325310Y-77651378D01*
X135335293Y-77660321D01*
X135369182Y-77694151D01*
X135369185Y-77694153D01*
X135377287Y-77702241D01*
X135387758Y-77706870D01*
X135387759Y-77706871D01*
X135471147Y-77743737D01*
X135471149Y-77743738D01*
X135479673Y-77747506D01*
X135505354Y-77750500D01*
X136598390Y-77750500D01*
X136665429Y-77770185D01*
X136711184Y-77822989D01*
X136721128Y-77892147D01*
X136692103Y-77955703D01*
X136686071Y-77962181D01*
X136291842Y-78356410D01*
X136230519Y-78389895D01*
X136160827Y-78384911D01*
X136137996Y-78373600D01*
X136030754Y-78305936D01*
X135832039Y-78226656D01*
X135826458Y-78225546D01*
X135826455Y-78225545D01*
X135727121Y-78205787D01*
X135622203Y-78184917D01*
X135616516Y-78184843D01*
X135616511Y-78184842D01*
X135413962Y-78182191D01*
X135413957Y-78182191D01*
X135408274Y-78182117D01*
X135247403Y-78209760D01*
X135205141Y-78217022D01*
X135197418Y-78218349D01*
X135192085Y-78220317D01*
X135192083Y-78220317D01*
X135002026Y-78290432D01*
X135002023Y-78290433D01*
X134996695Y-78292399D01*
X134812828Y-78401789D01*
X134651974Y-78542854D01*
X134648455Y-78547318D01*
X134648452Y-78547321D01*
X134544979Y-78678576D01*
X134488017Y-78719037D01*
X134418223Y-78722279D01*
X134357755Y-78687272D01*
X134325813Y-78625131D01*
X134323600Y-78601809D01*
X134323600Y-78440028D01*
X134323237Y-78433331D01*
X134317797Y-78383256D01*
X134314229Y-78368247D01*
X134269783Y-78249689D01*
X134261388Y-78234354D01*
X134186084Y-78133876D01*
X134173724Y-78121516D01*
X134073246Y-78046212D01*
X134057911Y-78037817D01*
X133939353Y-77993371D01*
X133924344Y-77989803D01*
X133874269Y-77984363D01*
X133867572Y-77984000D01*
X133127830Y-77984000D01*
X133112831Y-77988404D01*
X133111644Y-77989774D01*
X133110000Y-77997332D01*
X133110000Y-79526000D01*
X133090315Y-79593039D01*
X133037511Y-79638794D01*
X132986000Y-79650000D01*
X131614230Y-79650000D01*
X131599231Y-79654404D01*
X131598044Y-79655774D01*
X131596400Y-79663332D01*
X131596400Y-80559972D01*
X131596763Y-80566669D01*
X131602203Y-80616744D01*
X131605772Y-80631753D01*
X131628124Y-80691379D01*
X131633225Y-80761062D01*
X131599842Y-80822441D01*
X131538575Y-80856028D01*
X131468875Y-80851160D01*
X131424335Y-80822588D01*
X131211819Y-80610071D01*
X131178334Y-80548748D01*
X131175500Y-80522390D01*
X131175500Y-77999000D01*
X131195185Y-77931961D01*
X131247989Y-77886206D01*
X131299500Y-77875000D01*
X131632170Y-77875000D01*
X131647169Y-77870596D01*
X131648356Y-77869226D01*
X131650000Y-77861668D01*
X131650000Y-76142830D01*
X131645596Y-76127831D01*
X131644226Y-76126644D01*
X131636668Y-76125000D01*
X131299500Y-76125000D01*
X131232461Y-76105315D01*
X131186706Y-76052511D01*
X131175500Y-76001000D01*
X131175500Y-74332170D01*
X131596400Y-74332170D01*
X131600804Y-74347169D01*
X131602174Y-74348356D01*
X131609732Y-74350000D01*
X132792170Y-74350000D01*
X132807169Y-74345596D01*
X132808356Y-74344226D01*
X132810000Y-74336668D01*
X132810000Y-73001830D01*
X132805596Y-72986831D01*
X132804226Y-72985644D01*
X132796668Y-72984000D01*
X132052428Y-72984000D01*
X132045731Y-72984363D01*
X131995656Y-72989803D01*
X131980647Y-72993371D01*
X131862089Y-73037817D01*
X131846754Y-73046212D01*
X131746276Y-73121516D01*
X131733916Y-73133876D01*
X131658612Y-73234354D01*
X131650217Y-73249689D01*
X131605771Y-73368247D01*
X131602203Y-73383256D01*
X131596763Y-73433331D01*
X131596400Y-73440028D01*
X131596400Y-74332170D01*
X131175500Y-74332170D01*
X131175500Y-72435881D01*
X131195185Y-72368842D01*
X131247989Y-72323087D01*
X131317147Y-72313143D01*
X131380703Y-72342168D01*
X131402421Y-72366720D01*
X131465830Y-72461083D01*
X131471360Y-72466115D01*
X131585702Y-72570159D01*
X131585706Y-72570162D01*
X131591233Y-72575191D01*
X131740235Y-72656092D01*
X131814214Y-72675500D01*
X131897005Y-72697220D01*
X131897007Y-72697220D01*
X131904233Y-72699116D01*
X131987178Y-72700419D01*
X132066290Y-72701662D01*
X132066293Y-72701662D01*
X132073760Y-72701779D01*
X132202116Y-72672382D01*
X132231738Y-72665598D01*
X132231739Y-72665598D01*
X132239029Y-72663928D01*
X132328054Y-72619153D01*
X132383820Y-72591106D01*
X132383822Y-72591105D01*
X132390498Y-72587747D01*
X132396180Y-72582894D01*
X132396183Y-72582892D01*
X132499836Y-72494363D01*
X132563597Y-72465792D01*
X132632683Y-72476229D01*
X132685159Y-72522360D01*
X132693160Y-72537322D01*
X132693415Y-72537692D01*
X132698061Y-72548153D01*
X132777287Y-72627241D01*
X132787758Y-72631870D01*
X132787759Y-72631871D01*
X132871147Y-72668737D01*
X132871149Y-72668738D01*
X132879673Y-72672506D01*
X132905354Y-72675500D01*
X134194646Y-72675500D01*
X134198300Y-72675065D01*
X134198302Y-72675065D01*
X134203266Y-72674474D01*
X134220846Y-72672382D01*
X134323153Y-72626939D01*
X134402241Y-72547713D01*
X134402780Y-72546493D01*
X134451806Y-72506455D01*
X134521225Y-72498533D01*
X134583907Y-72529400D01*
X134595835Y-72543142D01*
X134598061Y-72548153D01*
X134606162Y-72556240D01*
X134620105Y-72570159D01*
X134677287Y-72627241D01*
X134687758Y-72631870D01*
X134687759Y-72631871D01*
X134771147Y-72668737D01*
X134771149Y-72668738D01*
X134779673Y-72672506D01*
X134805354Y-72675500D01*
X134900500Y-72675500D01*
X134967539Y-72695185D01*
X135013294Y-72747989D01*
X135024500Y-72799500D01*
X135024500Y-73205343D01*
X135004815Y-73272382D01*
X134963901Y-73311909D01*
X134843979Y-73383256D01*
X134812828Y-73401789D01*
X134651974Y-73542854D01*
X134648455Y-73547318D01*
X134648452Y-73547321D01*
X134544979Y-73678576D01*
X134488017Y-73719037D01*
X134418223Y-73722279D01*
X134357755Y-73687272D01*
X134325813Y-73625131D01*
X134323600Y-73601809D01*
X134323600Y-73440028D01*
X134323237Y-73433331D01*
X134317797Y-73383256D01*
X134314229Y-73368247D01*
X134269783Y-73249689D01*
X134261388Y-73234354D01*
X134186084Y-73133876D01*
X134173724Y-73121516D01*
X134073246Y-73046212D01*
X134057911Y-73037817D01*
X133939353Y-72993371D01*
X133924344Y-72989803D01*
X133874269Y-72984363D01*
X133867572Y-72984000D01*
X133127830Y-72984000D01*
X133112831Y-72988404D01*
X133111644Y-72989774D01*
X133110000Y-72997332D01*
X133110000Y-75998170D01*
X133114404Y-76013169D01*
X133115774Y-76014356D01*
X133123332Y-76016000D01*
X133867572Y-76016000D01*
X133874269Y-76015637D01*
X133924344Y-76010197D01*
X133939353Y-76006629D01*
X134057911Y-75962183D01*
X134073246Y-75953788D01*
X134173724Y-75878484D01*
X134186084Y-75866124D01*
X134261388Y-75765646D01*
X134269783Y-75750311D01*
X134314229Y-75631753D01*
X134317797Y-75616744D01*
X134323237Y-75566669D01*
X134323600Y-75559972D01*
X134323600Y-75396048D01*
X134343285Y-75329009D01*
X134396089Y-75283254D01*
X134465247Y-75273310D01*
X134528803Y-75302335D01*
X134546955Y-75321856D01*
X134576096Y-75360880D01*
X134631199Y-75434672D01*
X134788305Y-75579899D01*
X134969246Y-75694064D01*
X135167961Y-75773344D01*
X135173542Y-75774454D01*
X135173545Y-75774455D01*
X135214564Y-75782614D01*
X135377797Y-75815083D01*
X135383484Y-75815157D01*
X135383489Y-75815158D01*
X135586038Y-75817809D01*
X135586043Y-75817809D01*
X135591726Y-75817883D01*
X135802582Y-75781651D01*
X135822088Y-75774455D01*
X135997974Y-75709568D01*
X135997977Y-75709567D01*
X136003305Y-75707601D01*
X136187172Y-75598211D01*
X136348026Y-75457146D01*
X136351544Y-75452684D01*
X136476962Y-75293592D01*
X136476965Y-75293588D01*
X136480479Y-75289130D01*
X136580096Y-75099790D01*
X136643540Y-74895467D01*
X136646069Y-74874098D01*
X136673496Y-74809837D01*
X136731311Y-74770604D01*
X136801159Y-74768858D01*
X136860863Y-74805151D01*
X136890413Y-74864620D01*
X136890489Y-74865449D01*
X136948563Y-75071363D01*
X136951075Y-75076457D01*
X136951077Y-75076462D01*
X136965065Y-75104826D01*
X137043189Y-75263246D01*
X137171199Y-75434672D01*
X137328305Y-75579899D01*
X137509246Y-75694064D01*
X137707961Y-75773344D01*
X137713542Y-75774454D01*
X137713545Y-75774455D01*
X137754564Y-75782614D01*
X137917797Y-75815083D01*
X137923484Y-75815157D01*
X137923489Y-75815158D01*
X138126038Y-75817809D01*
X138126043Y-75817809D01*
X138131726Y-75817883D01*
X138342582Y-75781651D01*
X138362088Y-75774455D01*
X138537974Y-75709568D01*
X138537977Y-75709567D01*
X138543305Y-75707601D01*
X138727172Y-75598211D01*
X138888026Y-75457146D01*
X138891544Y-75452684D01*
X139016962Y-75293592D01*
X139016965Y-75293588D01*
X139020479Y-75289130D01*
X139120096Y-75099790D01*
X139183540Y-74895467D01*
X139194230Y-74805151D01*
X139203672Y-74725370D01*
X139203672Y-74725365D01*
X139204100Y-74721751D01*
X139204100Y-74293326D01*
X139189511Y-74134551D01*
X139131437Y-73928637D01*
X139128925Y-73923543D01*
X139128923Y-73923538D01*
X139039326Y-73741854D01*
X139036811Y-73736754D01*
X138908801Y-73565328D01*
X138751695Y-73420101D01*
X138741403Y-73413607D01*
X138575563Y-73308970D01*
X138575561Y-73308969D01*
X138570754Y-73305936D01*
X138372039Y-73226656D01*
X138366458Y-73225546D01*
X138366455Y-73225545D01*
X138264891Y-73205343D01*
X138162203Y-73184917D01*
X138156516Y-73184843D01*
X138156511Y-73184842D01*
X137953962Y-73182191D01*
X137953957Y-73182191D01*
X137948274Y-73182117D01*
X137737418Y-73218349D01*
X137732085Y-73220317D01*
X137732083Y-73220317D01*
X137542026Y-73290432D01*
X137542023Y-73290433D01*
X137536695Y-73292399D01*
X137352828Y-73401789D01*
X137191974Y-73542854D01*
X137188459Y-73547313D01*
X137188456Y-73547316D01*
X137063038Y-73706408D01*
X137063035Y-73706412D01*
X137059521Y-73710870D01*
X136959904Y-73900210D01*
X136958218Y-73905641D01*
X136958216Y-73905645D01*
X136931270Y-73992427D01*
X136896460Y-74104533D01*
X136895793Y-74110172D01*
X136895792Y-74110175D01*
X136893931Y-74125902D01*
X136866504Y-74190163D01*
X136808689Y-74229396D01*
X136738841Y-74231142D01*
X136679137Y-74194849D01*
X136649587Y-74135380D01*
X136649511Y-74134551D01*
X136647968Y-74129078D01*
X136609404Y-73992344D01*
X136591437Y-73928637D01*
X136588925Y-73923543D01*
X136588923Y-73923538D01*
X136499326Y-73741854D01*
X136496811Y-73736754D01*
X136368801Y-73565328D01*
X136211695Y-73420101D01*
X136201403Y-73413607D01*
X136035567Y-73308972D01*
X136035561Y-73308969D01*
X136030754Y-73305936D01*
X135991894Y-73290432D01*
X135953550Y-73275134D01*
X135898578Y-73232008D01*
X135875500Y-73159962D01*
X135875500Y-72799500D01*
X135895185Y-72732461D01*
X135947989Y-72686706D01*
X135999500Y-72675500D01*
X136094646Y-72675500D01*
X136098300Y-72675065D01*
X136098302Y-72675065D01*
X136103266Y-72674474D01*
X136120846Y-72672382D01*
X136223153Y-72626939D01*
X136302241Y-72547713D01*
X136306871Y-72537241D01*
X136343737Y-72453853D01*
X136343738Y-72453851D01*
X136347506Y-72445327D01*
X136350500Y-72419646D01*
X136350500Y-71580354D01*
X136347382Y-71554154D01*
X136301939Y-71451847D01*
X136222713Y-71372759D01*
X136212242Y-71368130D01*
X136212241Y-71368129D01*
X136128853Y-71331263D01*
X136128851Y-71331262D01*
X136120327Y-71327494D01*
X136094646Y-71324500D01*
X134805354Y-71324500D01*
X134801700Y-71324935D01*
X134801698Y-71324935D01*
X134796734Y-71325526D01*
X134779154Y-71327618D01*
X134676847Y-71373061D01*
X134597759Y-71452287D01*
X134597220Y-71453507D01*
X134548194Y-71493545D01*
X134478775Y-71501467D01*
X134416093Y-71470600D01*
X134404165Y-71456858D01*
X134401939Y-71451847D01*
X134392440Y-71442364D01*
X134330815Y-71380847D01*
X134322713Y-71372759D01*
X134312242Y-71368130D01*
X134312241Y-71368129D01*
X134228853Y-71331263D01*
X134228851Y-71331262D01*
X134220327Y-71327494D01*
X134194646Y-71324500D01*
X132905354Y-71324500D01*
X132901700Y-71324935D01*
X132901698Y-71324935D01*
X132896734Y-71325526D01*
X132879154Y-71327618D01*
X132776847Y-71373061D01*
X132697759Y-71452287D01*
X132693129Y-71462759D01*
X132686663Y-71472203D01*
X132685622Y-71471490D01*
X132648152Y-71515803D01*
X132581356Y-71536296D01*
X132514083Y-71517423D01*
X132497368Y-71504888D01*
X132493777Y-71501688D01*
X132449579Y-71462309D01*
X132408303Y-71425533D01*
X132408301Y-71425532D01*
X132402721Y-71420560D01*
X132382103Y-71409643D01*
X132319530Y-71376513D01*
X132252881Y-71341224D01*
X132088441Y-71299919D01*
X132002248Y-71299468D01*
X131926368Y-71299070D01*
X131926367Y-71299070D01*
X131918895Y-71299031D01*
X131911633Y-71300775D01*
X131911629Y-71300775D01*
X131864554Y-71312077D01*
X131794772Y-71308586D01*
X131737954Y-71267923D01*
X131712141Y-71202996D01*
X131725527Y-71134421D01*
X131736965Y-71118796D01*
X131735891Y-71118016D01*
X131741626Y-71110122D01*
X131748528Y-71103220D01*
X131759490Y-71081705D01*
X131769655Y-71065118D01*
X131778113Y-71053478D01*
X131778115Y-71053475D01*
X131783850Y-71045581D01*
X131791313Y-71022611D01*
X131798758Y-71004638D01*
X131805289Y-70991820D01*
X131809719Y-70983126D01*
X131813497Y-70959274D01*
X131818038Y-70940358D01*
X131819237Y-70936668D01*
X131825500Y-70917393D01*
X131825500Y-70874500D01*
X131845185Y-70807461D01*
X131897989Y-70761706D01*
X131949500Y-70750500D01*
X132044646Y-70750500D01*
X132048300Y-70750065D01*
X132048302Y-70750065D01*
X132053266Y-70749474D01*
X132070846Y-70747382D01*
X132173153Y-70701939D01*
X132252241Y-70622713D01*
X132280079Y-70559746D01*
X132325191Y-70506391D01*
X132391987Y-70485895D01*
X132459260Y-70504765D01*
X132505652Y-70557011D01*
X132509599Y-70566359D01*
X132553817Y-70684311D01*
X132562212Y-70699646D01*
X132637516Y-70800124D01*
X132649876Y-70812484D01*
X132750354Y-70887788D01*
X132765689Y-70896183D01*
X132884247Y-70940629D01*
X132899256Y-70944197D01*
X132949331Y-70949637D01*
X132956028Y-70950000D01*
X133432170Y-70950000D01*
X133447169Y-70945596D01*
X133448356Y-70944226D01*
X133450000Y-70936668D01*
X133450000Y-70932170D01*
X133750000Y-70932170D01*
X133754404Y-70947169D01*
X133755774Y-70948356D01*
X133763332Y-70950000D01*
X134243972Y-70950000D01*
X134250669Y-70949637D01*
X134300744Y-70944197D01*
X134315753Y-70940629D01*
X134434311Y-70896183D01*
X134449646Y-70887788D01*
X134550124Y-70812484D01*
X134562484Y-70800124D01*
X134637788Y-70699646D01*
X134646183Y-70684311D01*
X134690629Y-70565753D01*
X134694197Y-70550744D01*
X134699637Y-70500669D01*
X134700000Y-70493972D01*
X134700000Y-70167830D01*
X134695596Y-70152831D01*
X134694226Y-70151644D01*
X134686668Y-70150000D01*
X133767830Y-70150000D01*
X133752831Y-70154404D01*
X133751644Y-70155774D01*
X133750000Y-70163332D01*
X133750000Y-70932170D01*
X133450000Y-70932170D01*
X133450000Y-69832170D01*
X133750000Y-69832170D01*
X133754404Y-69847169D01*
X133755774Y-69848356D01*
X133763332Y-69850000D01*
X134682170Y-69850000D01*
X134697169Y-69845596D01*
X134698356Y-69844226D01*
X134700000Y-69836668D01*
X134700000Y-69506028D01*
X134699637Y-69499331D01*
X134694197Y-69449256D01*
X134690629Y-69434247D01*
X134646183Y-69315689D01*
X134637788Y-69300354D01*
X134562484Y-69199876D01*
X134550124Y-69187516D01*
X134449646Y-69112212D01*
X134434311Y-69103817D01*
X134315753Y-69059371D01*
X134300744Y-69055803D01*
X134250669Y-69050363D01*
X134243972Y-69050000D01*
X133767830Y-69050000D01*
X133752831Y-69054404D01*
X133751644Y-69055774D01*
X133750000Y-69063332D01*
X133750000Y-69832170D01*
X133450000Y-69832170D01*
X133450000Y-69067830D01*
X133445596Y-69052831D01*
X133444226Y-69051644D01*
X133436668Y-69050000D01*
X132956028Y-69050000D01*
X132949331Y-69050363D01*
X132899256Y-69055803D01*
X132884247Y-69059371D01*
X132765689Y-69103817D01*
X132750354Y-69112212D01*
X132649876Y-69187516D01*
X132637516Y-69199876D01*
X132562212Y-69300354D01*
X132553817Y-69315689D01*
X132509610Y-69433611D01*
X132467646Y-69489475D01*
X132402141Y-69513783D01*
X132333893Y-69498817D01*
X132284570Y-69449329D01*
X132280177Y-69440420D01*
X132256586Y-69387309D01*
X132251939Y-69376847D01*
X132172713Y-69297759D01*
X132162242Y-69293130D01*
X132162241Y-69293129D01*
X132078853Y-69256263D01*
X132078851Y-69256262D01*
X132070327Y-69252494D01*
X132044646Y-69249500D01*
X131302610Y-69249500D01*
X131235571Y-69229815D01*
X131214929Y-69213181D01*
X130588478Y-68586730D01*
X130554993Y-68525407D01*
X130559977Y-68455715D01*
X130601849Y-68399782D01*
X130612758Y-68392483D01*
X130646537Y-68372386D01*
X130687172Y-68348211D01*
X130848026Y-68207146D01*
X130851544Y-68202684D01*
X130976962Y-68043592D01*
X130976965Y-68043588D01*
X130980479Y-68039130D01*
X131051063Y-67904971D01*
X131099698Y-67854809D01*
X131167733Y-67838903D01*
X131233567Y-67862304D01*
X131273860Y-67911780D01*
X131342063Y-68063186D01*
X131347144Y-68072313D01*
X131470522Y-68255573D01*
X131477076Y-68263724D01*
X131629559Y-68423567D01*
X131637399Y-68430503D01*
X131814636Y-68562372D01*
X131823524Y-68567883D01*
X132020440Y-68668000D01*
X132030149Y-68671942D01*
X132241104Y-68737445D01*
X132251340Y-68739696D01*
X132372326Y-68755732D01*
X132386267Y-68753570D01*
X132389155Y-68743529D01*
X132690000Y-68743529D01*
X132694404Y-68758528D01*
X132694835Y-68758902D01*
X132703712Y-68760659D01*
X132711922Y-68759651D01*
X132928115Y-68714289D01*
X132938149Y-68711279D01*
X133143614Y-68630136D01*
X133152985Y-68625484D01*
X133341842Y-68510883D01*
X133350299Y-68504716D01*
X133517147Y-68359934D01*
X133524444Y-68352429D01*
X133664513Y-68181603D01*
X133670438Y-68172982D01*
X133768906Y-68000000D01*
X134694564Y-68000000D01*
X134714287Y-68300920D01*
X134773120Y-68596691D01*
X134774425Y-68600535D01*
X134862542Y-68860119D01*
X134870055Y-68882252D01*
X135003434Y-69152718D01*
X135112328Y-69315689D01*
X135160183Y-69387309D01*
X135170975Y-69403461D01*
X135369811Y-69630189D01*
X135596539Y-69829025D01*
X135599919Y-69831283D01*
X135599921Y-69831285D01*
X135619289Y-69844226D01*
X135847282Y-69996566D01*
X136117748Y-70129945D01*
X136121588Y-70131248D01*
X136121594Y-70131251D01*
X136229353Y-70167830D01*
X136403309Y-70226880D01*
X136699080Y-70285713D01*
X136703121Y-70285978D01*
X136703122Y-70285978D01*
X136922672Y-70300368D01*
X136922680Y-70300368D01*
X136924690Y-70300500D01*
X137075310Y-70300500D01*
X137077320Y-70300368D01*
X137077328Y-70300368D01*
X137296878Y-70285978D01*
X137296879Y-70285978D01*
X137300920Y-70285713D01*
X137596691Y-70226880D01*
X137770647Y-70167830D01*
X137878406Y-70131251D01*
X137878412Y-70131248D01*
X137882252Y-70129945D01*
X138152718Y-69996566D01*
X138380711Y-69844226D01*
X138400079Y-69831285D01*
X138400081Y-69831283D01*
X138403461Y-69829025D01*
X138630189Y-69630189D01*
X138829025Y-69403461D01*
X138839818Y-69387309D01*
X138887672Y-69315689D01*
X138996566Y-69152718D01*
X139129945Y-68882252D01*
X139137459Y-68860119D01*
X139225575Y-68600535D01*
X139226880Y-68596691D01*
X139285713Y-68300920D01*
X139305436Y-68000000D01*
X139285713Y-67699080D01*
X139226880Y-67403309D01*
X139129945Y-67117748D01*
X138996566Y-66847282D01*
X138863486Y-66648114D01*
X138831285Y-66599921D01*
X138831283Y-66599919D01*
X138829025Y-66596539D01*
X138630189Y-66369811D01*
X138403461Y-66170975D01*
X138368435Y-66147571D01*
X138331545Y-66122922D01*
X138152718Y-66003434D01*
X137882252Y-65870055D01*
X137878412Y-65868752D01*
X137878406Y-65868749D01*
X137600535Y-65774425D01*
X137596691Y-65773120D01*
X137300920Y-65714287D01*
X137296879Y-65714022D01*
X137296878Y-65714022D01*
X137077328Y-65699632D01*
X137077320Y-65699632D01*
X137075310Y-65699500D01*
X136924690Y-65699500D01*
X136922680Y-65699632D01*
X136922672Y-65699632D01*
X136703122Y-65714022D01*
X136703121Y-65714022D01*
X136699080Y-65714287D01*
X136403309Y-65773120D01*
X136399465Y-65774425D01*
X136121594Y-65868749D01*
X136121588Y-65868752D01*
X136117748Y-65870055D01*
X135847282Y-66003434D01*
X135668455Y-66122922D01*
X135631566Y-66147571D01*
X135596539Y-66170975D01*
X135369811Y-66369811D01*
X135170975Y-66596539D01*
X135168717Y-66599919D01*
X135168715Y-66599921D01*
X135136514Y-66648114D01*
X135003434Y-66847282D01*
X134870055Y-67117748D01*
X134773120Y-67403309D01*
X134714287Y-67699080D01*
X134694564Y-68000000D01*
X133768906Y-68000000D01*
X133779726Y-67980992D01*
X133784112Y-67971499D01*
X133859484Y-67763851D01*
X133862214Y-67753734D01*
X133901729Y-67535210D01*
X133902649Y-67527108D01*
X133903532Y-67508384D01*
X133903600Y-67505487D01*
X133903600Y-67417830D01*
X133899196Y-67402831D01*
X133897826Y-67401644D01*
X133890268Y-67400000D01*
X132707830Y-67400000D01*
X132692831Y-67404404D01*
X132691644Y-67405774D01*
X132690000Y-67413332D01*
X132690000Y-68743529D01*
X132389155Y-68743529D01*
X132390000Y-68740593D01*
X132390000Y-67082170D01*
X132690000Y-67082170D01*
X132694404Y-67097169D01*
X132695774Y-67098356D01*
X132703332Y-67100000D01*
X133885770Y-67100000D01*
X133900769Y-67095596D01*
X133901956Y-67094226D01*
X133903600Y-67086668D01*
X133903600Y-67042124D01*
X133903378Y-67036881D01*
X133889409Y-66872250D01*
X133887645Y-66861933D01*
X133832149Y-66648114D01*
X133828672Y-66638240D01*
X133737937Y-66436814D01*
X133732856Y-66427687D01*
X133609478Y-66244427D01*
X133602924Y-66236276D01*
X133450441Y-66076433D01*
X133442601Y-66069497D01*
X133265364Y-65937628D01*
X133256476Y-65932117D01*
X133059560Y-65832000D01*
X133049851Y-65828058D01*
X132838896Y-65762555D01*
X132828660Y-65760304D01*
X132707674Y-65744268D01*
X132693733Y-65746430D01*
X132690000Y-65759407D01*
X132690000Y-67082170D01*
X132390000Y-67082170D01*
X132390000Y-65756471D01*
X132385596Y-65741472D01*
X132385165Y-65741098D01*
X132376288Y-65739341D01*
X132368078Y-65740349D01*
X132151885Y-65785711D01*
X132141851Y-65788721D01*
X131936386Y-65869864D01*
X131927015Y-65874516D01*
X131738158Y-65989117D01*
X131729701Y-65995284D01*
X131562853Y-66140066D01*
X131555556Y-66147571D01*
X131415487Y-66318397D01*
X131409562Y-66327018D01*
X131300274Y-66519008D01*
X131295890Y-66528497D01*
X131277005Y-66580523D01*
X131235627Y-66636823D01*
X131170380Y-66661815D01*
X131101979Y-66647565D01*
X131049234Y-66593058D01*
X131043053Y-66580523D01*
X130996811Y-66486754D01*
X130868801Y-66315328D01*
X130711695Y-66170101D01*
X130688617Y-66155540D01*
X130535563Y-66058970D01*
X130535561Y-66058969D01*
X130530754Y-66055936D01*
X130332039Y-65976656D01*
X130326458Y-65975546D01*
X130326455Y-65975545D01*
X130227121Y-65955786D01*
X130122203Y-65934917D01*
X130116516Y-65934843D01*
X130116511Y-65934842D01*
X129913962Y-65932191D01*
X129913957Y-65932191D01*
X129908274Y-65932117D01*
X129697418Y-65968349D01*
X129692085Y-65970317D01*
X129692083Y-65970317D01*
X129502026Y-66040432D01*
X129502023Y-66040433D01*
X129496695Y-66042399D01*
X129312828Y-66151789D01*
X129151974Y-66292854D01*
X129148459Y-66297313D01*
X129148456Y-66297316D01*
X129023038Y-66456408D01*
X129023035Y-66456412D01*
X129019521Y-66460870D01*
X128919904Y-66650210D01*
X128918218Y-66655641D01*
X128918216Y-66655645D01*
X128866522Y-66822128D01*
X128827843Y-66880315D01*
X128763846Y-66908353D01*
X128694850Y-66897341D01*
X128642760Y-66850775D01*
X128624100Y-66785357D01*
X128624100Y-66189354D01*
X128620982Y-66163154D01*
X128575539Y-66060847D01*
X128496313Y-65981759D01*
X128485842Y-65977130D01*
X128485841Y-65977129D01*
X128402453Y-65940263D01*
X128402451Y-65940262D01*
X128393927Y-65936494D01*
X128368246Y-65933500D01*
X126551754Y-65933500D01*
X126548100Y-65933935D01*
X126548098Y-65933935D01*
X126543134Y-65934526D01*
X126525554Y-65936618D01*
X126423247Y-65982061D01*
X126344159Y-66061287D01*
X126339530Y-66071758D01*
X126339529Y-66071759D01*
X126305434Y-66148881D01*
X126298894Y-66163673D01*
X126295900Y-66189354D01*
X126295900Y-68310646D01*
X126299018Y-68336846D01*
X126344461Y-68439153D01*
X126423687Y-68518241D01*
X126434158Y-68522870D01*
X126434159Y-68522871D01*
X126517547Y-68559737D01*
X126517549Y-68559738D01*
X126526073Y-68563506D01*
X126551754Y-68566500D01*
X126910500Y-68566500D01*
X126977539Y-68586185D01*
X127023294Y-68638989D01*
X127034500Y-68690500D01*
X127034500Y-68926000D01*
X127014815Y-68993039D01*
X126962011Y-69038794D01*
X126910500Y-69050000D01*
X126567830Y-69050000D01*
X126552831Y-69054404D01*
X126551644Y-69055774D01*
X126550000Y-69063332D01*
X126550000Y-70932170D01*
X126554404Y-70947169D01*
X126555774Y-70948356D01*
X126563332Y-70950000D01*
X127043972Y-70950000D01*
X127050669Y-70949637D01*
X127100744Y-70944197D01*
X127115753Y-70940629D01*
X127234311Y-70896183D01*
X127249646Y-70887788D01*
X127350124Y-70812484D01*
X127362484Y-70800124D01*
X127437788Y-70699646D01*
X127446183Y-70684311D01*
X127490390Y-70566389D01*
X127532354Y-70510525D01*
X127597859Y-70486217D01*
X127666107Y-70501183D01*
X127715430Y-70550671D01*
X127719823Y-70559579D01*
X127748061Y-70623153D01*
X127827287Y-70702241D01*
X127837758Y-70706870D01*
X127837759Y-70706871D01*
X127921147Y-70743737D01*
X127921149Y-70743738D01*
X127929673Y-70747506D01*
X127955354Y-70750500D01*
X128129298Y-70750500D01*
X128196337Y-70770185D01*
X128229637Y-70801644D01*
X128230366Y-70802648D01*
X128240509Y-70819203D01*
X128251472Y-70840720D01*
X128448571Y-71037819D01*
X128482056Y-71099142D01*
X128477072Y-71168834D01*
X128435200Y-71224767D01*
X128369736Y-71249184D01*
X128360890Y-71249500D01*
X127705354Y-71249500D01*
X127701700Y-71249935D01*
X127701698Y-71249935D01*
X127696734Y-71250526D01*
X127679154Y-71252618D01*
X127576847Y-71298061D01*
X127497759Y-71377287D01*
X127493130Y-71387758D01*
X127493129Y-71387759D01*
X127460171Y-71462309D01*
X127452494Y-71479673D01*
X127449500Y-71505354D01*
X127449500Y-72247390D01*
X127429815Y-72314429D01*
X127413181Y-72335071D01*
X127262181Y-72486071D01*
X127200858Y-72519556D01*
X127131166Y-72514572D01*
X127075233Y-72472700D01*
X127050816Y-72407236D01*
X127050500Y-72398390D01*
X127050500Y-71505354D01*
X127050038Y-71501467D01*
X127048481Y-71488390D01*
X127047382Y-71479154D01*
X127001939Y-71376847D01*
X126922713Y-71297759D01*
X126912242Y-71293130D01*
X126912241Y-71293129D01*
X126828853Y-71256263D01*
X126828851Y-71256262D01*
X126820327Y-71252494D01*
X126794646Y-71249500D01*
X125505354Y-71249500D01*
X125501700Y-71249935D01*
X125501698Y-71249935D01*
X125496734Y-71250526D01*
X125479154Y-71252618D01*
X125376847Y-71298061D01*
X125368760Y-71306162D01*
X125367262Y-71307663D01*
X125363898Y-71309504D01*
X125359323Y-71312648D01*
X125359003Y-71312182D01*
X125305968Y-71341202D01*
X125249294Y-71340323D01*
X125234723Y-71336663D01*
X125088441Y-71299919D01*
X125002248Y-71299468D01*
X124926368Y-71299070D01*
X124926367Y-71299070D01*
X124918895Y-71299031D01*
X124897235Y-71304231D01*
X124761295Y-71336868D01*
X124761293Y-71336869D01*
X124754032Y-71338612D01*
X124747399Y-71342035D01*
X124747395Y-71342037D01*
X124657401Y-71388487D01*
X124588800Y-71401742D01*
X124530641Y-71380673D01*
X124522713Y-71372759D01*
X124454815Y-71342741D01*
X124428853Y-71331263D01*
X124428851Y-71331262D01*
X124420327Y-71327494D01*
X124394646Y-71324500D01*
X123105354Y-71324500D01*
X123101700Y-71324935D01*
X123101698Y-71324935D01*
X123096734Y-71325526D01*
X123079154Y-71327618D01*
X123039209Y-71345361D01*
X122999045Y-71363201D01*
X122929787Y-71372425D01*
X122866537Y-71342741D01*
X122849484Y-71324243D01*
X122812488Y-71274880D01*
X122800124Y-71262516D01*
X122699646Y-71187212D01*
X122684311Y-71178817D01*
X122565753Y-71134371D01*
X122550744Y-71130803D01*
X122500669Y-71125363D01*
X122493972Y-71125000D01*
X122017830Y-71125000D01*
X122002831Y-71129404D01*
X122001644Y-71130774D01*
X122000000Y-71138332D01*
X122000000Y-72026000D01*
X121980315Y-72093039D01*
X121927511Y-72138794D01*
X121876000Y-72150000D01*
X120767830Y-72150000D01*
X120752831Y-72154404D01*
X120751644Y-72155774D01*
X120750000Y-72163332D01*
X120750000Y-72418972D01*
X120750363Y-72425669D01*
X120755803Y-72475744D01*
X120759371Y-72490753D01*
X120803817Y-72609311D01*
X120812212Y-72624646D01*
X120887516Y-72725124D01*
X120899876Y-72737484D01*
X120973157Y-72792405D01*
X121014997Y-72848362D01*
X121019943Y-72918056D01*
X120986423Y-72979361D01*
X120942319Y-73007740D01*
X120862087Y-73037818D01*
X120846754Y-73046212D01*
X120746276Y-73121516D01*
X120733916Y-73133876D01*
X120658612Y-73234354D01*
X120650217Y-73249689D01*
X120605771Y-73368247D01*
X120602203Y-73383256D01*
X120596763Y-73433331D01*
X120596400Y-73440028D01*
X120596400Y-74332170D01*
X120600804Y-74347169D01*
X120602174Y-74348356D01*
X120609732Y-74350000D01*
X121986000Y-74350000D01*
X122053039Y-74369685D01*
X122098794Y-74422489D01*
X122110000Y-74474000D01*
X122110000Y-74526000D01*
X122090315Y-74593039D01*
X122037511Y-74638794D01*
X121986000Y-74650000D01*
X120614230Y-74650000D01*
X120599231Y-74654404D01*
X120598044Y-74655774D01*
X120596400Y-74663332D01*
X120596400Y-75559972D01*
X120300500Y-75559972D01*
X120300500Y-71832170D01*
X120750000Y-71832170D01*
X120754404Y-71847169D01*
X120755774Y-71848356D01*
X120763332Y-71850000D01*
X121682170Y-71850000D01*
X121697169Y-71845596D01*
X121698356Y-71844226D01*
X121700000Y-71836668D01*
X121700000Y-71142830D01*
X121695596Y-71127831D01*
X121694226Y-71126644D01*
X121686668Y-71125000D01*
X121206028Y-71125000D01*
X121199331Y-71125363D01*
X121149256Y-71130803D01*
X121134247Y-71134371D01*
X121015689Y-71178817D01*
X121000354Y-71187212D01*
X120899876Y-71262516D01*
X120887516Y-71274876D01*
X120812212Y-71375354D01*
X120803817Y-71390689D01*
X120759371Y-71509247D01*
X120755803Y-71524256D01*
X120750363Y-71574331D01*
X120750000Y-71581028D01*
X120750000Y-71832170D01*
X120300500Y-71832170D01*
X120300500Y-70493972D01*
X125300000Y-70493972D01*
X125300363Y-70500669D01*
X125305803Y-70550744D01*
X125309371Y-70565753D01*
X125353817Y-70684311D01*
X125362212Y-70699646D01*
X125437516Y-70800124D01*
X125449876Y-70812484D01*
X125550354Y-70887788D01*
X125565689Y-70896183D01*
X125684247Y-70940629D01*
X125699256Y-70944197D01*
X125749331Y-70949637D01*
X125756028Y-70950000D01*
X126232170Y-70950000D01*
X126247169Y-70945596D01*
X126248356Y-70944226D01*
X126250000Y-70936668D01*
X126250000Y-70167830D01*
X126245596Y-70152831D01*
X126244226Y-70151644D01*
X126236668Y-70150000D01*
X125317830Y-70150000D01*
X125302831Y-70154404D01*
X125301644Y-70155774D01*
X125300000Y-70163332D01*
X125300000Y-70493972D01*
X120300500Y-70493972D01*
X120300500Y-68037139D01*
X120302384Y-68015606D01*
X120303252Y-68010683D01*
X120305136Y-68000000D01*
X120694564Y-68000000D01*
X120714287Y-68300920D01*
X120773120Y-68596691D01*
X120774425Y-68600535D01*
X120862542Y-68860119D01*
X120870055Y-68882252D01*
X121003434Y-69152718D01*
X121112328Y-69315689D01*
X121160183Y-69387309D01*
X121170975Y-69403461D01*
X121369811Y-69630189D01*
X121596539Y-69829025D01*
X121599919Y-69831283D01*
X121599921Y-69831285D01*
X121619289Y-69844226D01*
X121847282Y-69996566D01*
X122117748Y-70129945D01*
X122121588Y-70131248D01*
X122121594Y-70131251D01*
X122229353Y-70167830D01*
X122403309Y-70226880D01*
X122699080Y-70285713D01*
X122703121Y-70285978D01*
X122703122Y-70285978D01*
X122922672Y-70300368D01*
X122922680Y-70300368D01*
X122924690Y-70300500D01*
X123075310Y-70300500D01*
X123077320Y-70300368D01*
X123077328Y-70300368D01*
X123296878Y-70285978D01*
X123296879Y-70285978D01*
X123300920Y-70285713D01*
X123596691Y-70226880D01*
X123770647Y-70167830D01*
X123878406Y-70131251D01*
X123878412Y-70131248D01*
X123882252Y-70129945D01*
X124152718Y-69996566D01*
X124380711Y-69844226D01*
X124398754Y-69832170D01*
X125300000Y-69832170D01*
X125304404Y-69847169D01*
X125305774Y-69848356D01*
X125313332Y-69850000D01*
X126232170Y-69850000D01*
X126247169Y-69845596D01*
X126248356Y-69844226D01*
X126250000Y-69836668D01*
X126250000Y-69067830D01*
X126245596Y-69052831D01*
X126244226Y-69051644D01*
X126236668Y-69050000D01*
X125756028Y-69050000D01*
X125749331Y-69050363D01*
X125699256Y-69055803D01*
X125684247Y-69059371D01*
X125565689Y-69103817D01*
X125550354Y-69112212D01*
X125449876Y-69187516D01*
X125437516Y-69199876D01*
X125362212Y-69300354D01*
X125353817Y-69315689D01*
X125309371Y-69434247D01*
X125305803Y-69449256D01*
X125300363Y-69499331D01*
X125300000Y-69506028D01*
X125300000Y-69832170D01*
X124398754Y-69832170D01*
X124400079Y-69831285D01*
X124400081Y-69831283D01*
X124403461Y-69829025D01*
X124630189Y-69630189D01*
X124829025Y-69403461D01*
X124839818Y-69387309D01*
X124887672Y-69315689D01*
X124996566Y-69152718D01*
X125129945Y-68882252D01*
X125137459Y-68860119D01*
X125225575Y-68600535D01*
X125226880Y-68596691D01*
X125285713Y-68300920D01*
X125305436Y-68000000D01*
X125285713Y-67699080D01*
X125226880Y-67403309D01*
X125129945Y-67117748D01*
X124996566Y-66847282D01*
X124863486Y-66648114D01*
X124831285Y-66599921D01*
X124831283Y-66599919D01*
X124829025Y-66596539D01*
X124630189Y-66369811D01*
X124403461Y-66170975D01*
X124368435Y-66147571D01*
X124331545Y-66122922D01*
X124152718Y-66003434D01*
X123882252Y-65870055D01*
X123878412Y-65868752D01*
X123878406Y-65868749D01*
X123600535Y-65774425D01*
X123596691Y-65773120D01*
X123300920Y-65714287D01*
X123296879Y-65714022D01*
X123296878Y-65714022D01*
X123077328Y-65699632D01*
X123077320Y-65699632D01*
X123075310Y-65699500D01*
X122924690Y-65699500D01*
X122922680Y-65699632D01*
X122922672Y-65699632D01*
X122703122Y-65714022D01*
X122703121Y-65714022D01*
X122699080Y-65714287D01*
X122403309Y-65773120D01*
X122399465Y-65774425D01*
X122121594Y-65868749D01*
X122121588Y-65868752D01*
X122117748Y-65870055D01*
X121847282Y-66003434D01*
X121668455Y-66122922D01*
X121631566Y-66147571D01*
X121596539Y-66170975D01*
X121369811Y-66369811D01*
X121170975Y-66596539D01*
X121168717Y-66599919D01*
X121168715Y-66599921D01*
X121136514Y-66648114D01*
X121003434Y-66847282D01*
X120870055Y-67117748D01*
X120773120Y-67403309D01*
X120714287Y-67699080D01*
X120694564Y-68000000D01*
X120305136Y-68000000D01*
X120303252Y-67989315D01*
X120303252Y-67979661D01*
X120302425Y-67965720D01*
X120317084Y-67704704D01*
X120318641Y-67690887D01*
X120367015Y-67406174D01*
X120370109Y-67392616D01*
X120450060Y-67115101D01*
X120454653Y-67101976D01*
X120565170Y-66835166D01*
X120571203Y-66822638D01*
X120663496Y-66655645D01*
X120710903Y-66569868D01*
X120718298Y-66558100D01*
X120885417Y-66322569D01*
X120894086Y-66311697D01*
X121086525Y-66096358D01*
X121096358Y-66086525D01*
X121311697Y-65894086D01*
X121322569Y-65885417D01*
X121558100Y-65718298D01*
X121569868Y-65710903D01*
X121682487Y-65648661D01*
X121822638Y-65571203D01*
X121835166Y-65565170D01*
X122101976Y-65454653D01*
X122115101Y-65450060D01*
X122392616Y-65370109D01*
X122406174Y-65367015D01*
X122690887Y-65318641D01*
X122704704Y-65317084D01*
X122865268Y-65308066D01*
X122965722Y-65302425D01*
X122979661Y-65303252D01*
X122989315Y-65303252D01*
X123000000Y-65305136D01*
X123015609Y-65302384D01*
X123037139Y-65300500D01*
X136962861Y-65300500D01*
X136984391Y-65302384D01*
G37*
%TD.AperFunction*%
%TD*%
M02*
