%TF.GenerationSoftware,KiCad,Pcbnew,(6.0.5)*%
%TF.CreationDate,2022-05-22T23:21:51-04:00*%
%TF.ProjectId,controller,636f6e74-726f-46c6-9c65-722e6b696361,rev?*%
%TF.SameCoordinates,Original*%
%TF.FileFunction,Legend,Top*%
%TF.FilePolarity,Positive*%
%FSLAX46Y46*%
G04 Gerber Fmt 4.6, Leading zero omitted, Abs format (unit mm)*
G04 Created by KiCad (PCBNEW (6.0.5)) date 2022-05-22 23:21:51*
%MOMM*%
%LPD*%
G01*
G04 APERTURE LIST*
%ADD10C,0.150000*%
%ADD11C,0.120000*%
%ADD12C,0.300000*%
G04 APERTURE END LIST*
D10*
X98345714Y-90844666D02*
X98821904Y-90844666D01*
X98250476Y-91130380D02*
X98583809Y-90130380D01*
X98917142Y-91130380D01*
X99679047Y-90463714D02*
X99679047Y-91130380D01*
X99440952Y-90082761D02*
X99202857Y-90797047D01*
X99821904Y-90797047D01*
X95123047Y-88971428D02*
X95884952Y-88971428D01*
X113895238Y-90606571D02*
X114038095Y-90654190D01*
X114085714Y-90701809D01*
X114133333Y-90797047D01*
X114133333Y-90939904D01*
X114085714Y-91035142D01*
X114038095Y-91082761D01*
X113942857Y-91130380D01*
X113561904Y-91130380D01*
X113561904Y-90130380D01*
X113895238Y-90130380D01*
X113990476Y-90178000D01*
X114038095Y-90225619D01*
X114085714Y-90320857D01*
X114085714Y-90416095D01*
X114038095Y-90511333D01*
X113990476Y-90558952D01*
X113895238Y-90606571D01*
X113561904Y-90606571D01*
X114466666Y-90130380D02*
X115085714Y-90130380D01*
X114752380Y-90511333D01*
X114895238Y-90511333D01*
X114990476Y-90558952D01*
X115038095Y-90606571D01*
X115085714Y-90701809D01*
X115085714Y-90939904D01*
X115038095Y-91035142D01*
X114990476Y-91082761D01*
X114895238Y-91130380D01*
X114609523Y-91130380D01*
X114514285Y-91082761D01*
X114466666Y-91035142D01*
X124293333Y-91035142D02*
X124245714Y-91082761D01*
X124102857Y-91130380D01*
X124007619Y-91130380D01*
X123864761Y-91082761D01*
X123769523Y-90987523D01*
X123721904Y-90892285D01*
X123674285Y-90701809D01*
X123674285Y-90558952D01*
X123721904Y-90368476D01*
X123769523Y-90273238D01*
X123864761Y-90178000D01*
X124007619Y-90130380D01*
X124102857Y-90130380D01*
X124245714Y-90178000D01*
X124293333Y-90225619D01*
X124674285Y-90225619D02*
X124721904Y-90178000D01*
X124817142Y-90130380D01*
X125055238Y-90130380D01*
X125150476Y-90178000D01*
X125198095Y-90225619D01*
X125245714Y-90320857D01*
X125245714Y-90416095D01*
X125198095Y-90558952D01*
X124626666Y-91130380D01*
X125245714Y-91130380D01*
X96575619Y-85653809D02*
X97575619Y-85653809D01*
X97575619Y-86034761D01*
X97528000Y-86130000D01*
X97480380Y-86177619D01*
X97385142Y-86225238D01*
X97242285Y-86225238D01*
X97147047Y-86177619D01*
X97099428Y-86130000D01*
X97051809Y-86034761D01*
X97051809Y-85653809D01*
X96575619Y-86796666D02*
X96623238Y-86701428D01*
X96670857Y-86653809D01*
X96766095Y-86606190D01*
X97051809Y-86606190D01*
X97147047Y-86653809D01*
X97194666Y-86701428D01*
X97242285Y-86796666D01*
X97242285Y-86939523D01*
X97194666Y-87034761D01*
X97147047Y-87082380D01*
X97051809Y-87130000D01*
X96766095Y-87130000D01*
X96670857Y-87082380D01*
X96623238Y-87034761D01*
X96575619Y-86939523D01*
X96575619Y-86796666D01*
X97242285Y-87463333D02*
X96575619Y-87653809D01*
X97051809Y-87844285D01*
X96575619Y-88034761D01*
X97242285Y-88225238D01*
X96623238Y-88987142D02*
X96575619Y-88891904D01*
X96575619Y-88701428D01*
X96623238Y-88606190D01*
X96718476Y-88558571D01*
X97099428Y-88558571D01*
X97194666Y-88606190D01*
X97242285Y-88701428D01*
X97242285Y-88891904D01*
X97194666Y-88987142D01*
X97099428Y-89034761D01*
X97004190Y-89034761D01*
X96908952Y-88558571D01*
X96575619Y-89463333D02*
X97242285Y-89463333D01*
X97051809Y-89463333D02*
X97147047Y-89510952D01*
X97194666Y-89558571D01*
X97242285Y-89653809D01*
X97242285Y-89749047D01*
X129373333Y-91035142D02*
X129325714Y-91082761D01*
X129182857Y-91130380D01*
X129087619Y-91130380D01*
X128944761Y-91082761D01*
X128849523Y-90987523D01*
X128801904Y-90892285D01*
X128754285Y-90701809D01*
X128754285Y-90558952D01*
X128801904Y-90368476D01*
X128849523Y-90273238D01*
X128944761Y-90178000D01*
X129087619Y-90130380D01*
X129182857Y-90130380D01*
X129325714Y-90178000D01*
X129373333Y-90225619D01*
X129992380Y-90130380D02*
X130087619Y-90130380D01*
X130182857Y-90178000D01*
X130230476Y-90225619D01*
X130278095Y-90320857D01*
X130325714Y-90511333D01*
X130325714Y-90749428D01*
X130278095Y-90939904D01*
X130230476Y-91035142D01*
X130182857Y-91082761D01*
X130087619Y-91130380D01*
X129992380Y-91130380D01*
X129897142Y-91082761D01*
X129849523Y-91035142D01*
X129801904Y-90939904D01*
X129754285Y-90749428D01*
X129754285Y-90511333D01*
X129801904Y-90320857D01*
X129849523Y-90225619D01*
X129897142Y-90178000D01*
X129992380Y-90130380D01*
X121747023Y-87912380D02*
X121747023Y-86912380D01*
X122127976Y-86912380D01*
X122223214Y-86960000D01*
X122270833Y-87007619D01*
X122318452Y-87102857D01*
X122318452Y-87245714D01*
X122270833Y-87340952D01*
X122223214Y-87388571D01*
X122127976Y-87436190D01*
X121747023Y-87436190D01*
X122747023Y-87912380D02*
X122747023Y-87245714D01*
X122747023Y-87436190D02*
X122794642Y-87340952D01*
X122842261Y-87293333D01*
X122937500Y-87245714D01*
X123032738Y-87245714D01*
X123508928Y-87912380D02*
X123413690Y-87864761D01*
X123366071Y-87817142D01*
X123318452Y-87721904D01*
X123318452Y-87436190D01*
X123366071Y-87340952D01*
X123413690Y-87293333D01*
X123508928Y-87245714D01*
X123651785Y-87245714D01*
X123747023Y-87293333D01*
X123794642Y-87340952D01*
X123842261Y-87436190D01*
X123842261Y-87721904D01*
X123794642Y-87817142D01*
X123747023Y-87864761D01*
X123651785Y-87912380D01*
X123508928Y-87912380D01*
X124699404Y-87245714D02*
X124699404Y-88055238D01*
X124651785Y-88150476D01*
X124604166Y-88198095D01*
X124508928Y-88245714D01*
X124366071Y-88245714D01*
X124270833Y-88198095D01*
X124699404Y-87864761D02*
X124604166Y-87912380D01*
X124413690Y-87912380D01*
X124318452Y-87864761D01*
X124270833Y-87817142D01*
X124223214Y-87721904D01*
X124223214Y-87436190D01*
X124270833Y-87340952D01*
X124318452Y-87293333D01*
X124413690Y-87245714D01*
X124604166Y-87245714D01*
X124699404Y-87293333D01*
X123794642Y-89522380D02*
X123794642Y-88522380D01*
X124270833Y-88855714D02*
X124270833Y-89522380D01*
X124270833Y-88950952D02*
X124318452Y-88903333D01*
X124413690Y-88855714D01*
X124556547Y-88855714D01*
X124651785Y-88903333D01*
X124699404Y-88998571D01*
X124699404Y-89522380D01*
X100885714Y-90844666D02*
X101361904Y-90844666D01*
X100790476Y-91130380D02*
X101123809Y-90130380D01*
X101457142Y-91130380D01*
X102266666Y-90130380D02*
X101790476Y-90130380D01*
X101742857Y-90606571D01*
X101790476Y-90558952D01*
X101885714Y-90511333D01*
X102123809Y-90511333D01*
X102219047Y-90558952D01*
X102266666Y-90606571D01*
X102314285Y-90701809D01*
X102314285Y-90939904D01*
X102266666Y-91035142D01*
X102219047Y-91082761D01*
X102123809Y-91130380D01*
X101885714Y-91130380D01*
X101790476Y-91082761D01*
X101742857Y-91035142D01*
X132548380Y-84851904D02*
X132548380Y-85328095D01*
X133024571Y-85375714D01*
X132976952Y-85328095D01*
X132929333Y-85232857D01*
X132929333Y-84994761D01*
X132976952Y-84899523D01*
X133024571Y-84851904D01*
X133119809Y-84804285D01*
X133357904Y-84804285D01*
X133453142Y-84851904D01*
X133500761Y-84899523D01*
X133548380Y-84994761D01*
X133548380Y-85232857D01*
X133500761Y-85328095D01*
X133453142Y-85375714D01*
X132881714Y-87439523D02*
X133548380Y-87439523D01*
X132500761Y-87677619D02*
X133215047Y-87915714D01*
X133215047Y-87296666D01*
X103687809Y-77625380D02*
X103687809Y-76625380D01*
X104068761Y-76625380D01*
X104164000Y-76673000D01*
X104211619Y-76720619D01*
X104259238Y-76815857D01*
X104259238Y-76958714D01*
X104211619Y-77053952D01*
X104164000Y-77101571D01*
X104068761Y-77149190D01*
X103687809Y-77149190D01*
X104830666Y-77625380D02*
X104735428Y-77577761D01*
X104687809Y-77530142D01*
X104640190Y-77434904D01*
X104640190Y-77149190D01*
X104687809Y-77053952D01*
X104735428Y-77006333D01*
X104830666Y-76958714D01*
X104973523Y-76958714D01*
X105068761Y-77006333D01*
X105116380Y-77053952D01*
X105164000Y-77149190D01*
X105164000Y-77434904D01*
X105116380Y-77530142D01*
X105068761Y-77577761D01*
X104973523Y-77625380D01*
X104830666Y-77625380D01*
X105497333Y-76958714D02*
X105687809Y-77625380D01*
X105878285Y-77149190D01*
X106068761Y-77625380D01*
X106259238Y-76958714D01*
X107021142Y-77577761D02*
X106925904Y-77625380D01*
X106735428Y-77625380D01*
X106640190Y-77577761D01*
X106592571Y-77482523D01*
X106592571Y-77101571D01*
X106640190Y-77006333D01*
X106735428Y-76958714D01*
X106925904Y-76958714D01*
X107021142Y-77006333D01*
X107068761Y-77101571D01*
X107068761Y-77196809D01*
X106592571Y-77292047D01*
X107497333Y-77625380D02*
X107497333Y-76958714D01*
X107497333Y-77149190D02*
X107544952Y-77053952D01*
X107592571Y-77006333D01*
X107687809Y-76958714D01*
X107783047Y-76958714D01*
X105402095Y-79235380D02*
X104925904Y-79235380D01*
X104925904Y-78235380D01*
X105735428Y-78711571D02*
X106068761Y-78711571D01*
X106211619Y-79235380D02*
X105735428Y-79235380D01*
X105735428Y-78235380D01*
X106211619Y-78235380D01*
X106640190Y-79235380D02*
X106640190Y-78235380D01*
X106878285Y-78235380D01*
X107021142Y-78283000D01*
X107116380Y-78378238D01*
X107164000Y-78473476D01*
X107211619Y-78663952D01*
X107211619Y-78806809D01*
X107164000Y-78997285D01*
X107116380Y-79092523D01*
X107021142Y-79187761D01*
X106878285Y-79235380D01*
X106640190Y-79235380D01*
X122134380Y-77625380D02*
X122134380Y-76625380D01*
X122467714Y-77339666D01*
X122801047Y-76625380D01*
X122801047Y-77625380D01*
X123277238Y-77625380D02*
X123277238Y-76625380D01*
X123753428Y-77625380D02*
X123753428Y-76625380D01*
X123991523Y-76625380D01*
X124134380Y-76673000D01*
X124229619Y-76768238D01*
X124277238Y-76863476D01*
X124324857Y-77053952D01*
X124324857Y-77196809D01*
X124277238Y-77387285D01*
X124229619Y-77482523D01*
X124134380Y-77577761D01*
X123991523Y-77625380D01*
X123753428Y-77625380D01*
X124753428Y-77625380D02*
X124753428Y-76625380D01*
X122039142Y-79235380D02*
X121562952Y-79235380D01*
X121562952Y-78235380D01*
X122372476Y-78711571D02*
X122705809Y-78711571D01*
X122848666Y-79235380D02*
X122372476Y-79235380D01*
X122372476Y-78235380D01*
X122848666Y-78235380D01*
X123277238Y-79235380D02*
X123277238Y-78235380D01*
X123515333Y-78235380D01*
X123658190Y-78283000D01*
X123753428Y-78378238D01*
X123801047Y-78473476D01*
X123848666Y-78663952D01*
X123848666Y-78806809D01*
X123801047Y-78997285D01*
X123753428Y-79092523D01*
X123658190Y-79187761D01*
X123515333Y-79235380D01*
X123277238Y-79235380D01*
X121118380Y-86613809D02*
X121927904Y-86613809D01*
X122023142Y-86566190D01*
X122070761Y-86518571D01*
X122118380Y-86423333D01*
X122118380Y-86232857D01*
X122070761Y-86137619D01*
X122023142Y-86090000D01*
X121927904Y-86042380D01*
X121118380Y-86042380D01*
X122118380Y-85566190D02*
X121118380Y-85566190D01*
X121118380Y-85185238D01*
X121166000Y-85090000D01*
X121213619Y-85042380D01*
X121308857Y-84994761D01*
X121451714Y-84994761D01*
X121546952Y-85042380D01*
X121594571Y-85090000D01*
X121642190Y-85185238D01*
X121642190Y-85566190D01*
X122118380Y-84566190D02*
X121118380Y-84566190D01*
X121118380Y-84328095D01*
X121166000Y-84185238D01*
X121261238Y-84090000D01*
X121356476Y-84042380D01*
X121546952Y-83994761D01*
X121689809Y-83994761D01*
X121880285Y-84042380D01*
X121975523Y-84090000D01*
X122070761Y-84185238D01*
X122118380Y-84328095D01*
X122118380Y-84566190D01*
X122118380Y-83566190D02*
X121118380Y-83566190D01*
X132024380Y-90582380D02*
X131024380Y-90582380D01*
X131738666Y-90249047D01*
X131024380Y-89915714D01*
X132024380Y-89915714D01*
X132024380Y-89439523D02*
X131024380Y-89439523D01*
X132024380Y-88963333D02*
X131024380Y-88963333D01*
X131024380Y-88725238D01*
X131072000Y-88582380D01*
X131167238Y-88487142D01*
X131262476Y-88439523D01*
X131452952Y-88391904D01*
X131595809Y-88391904D01*
X131786285Y-88439523D01*
X131881523Y-88487142D01*
X131976761Y-88582380D01*
X132024380Y-88725238D01*
X132024380Y-88963333D01*
X132024380Y-87963333D02*
X131024380Y-87963333D01*
X131024380Y-86534761D02*
X131024380Y-86344285D01*
X131072000Y-86249047D01*
X131167238Y-86153809D01*
X131357714Y-86106190D01*
X131691047Y-86106190D01*
X131881523Y-86153809D01*
X131976761Y-86249047D01*
X132024380Y-86344285D01*
X132024380Y-86534761D01*
X131976761Y-86630000D01*
X131881523Y-86725238D01*
X131691047Y-86772857D01*
X131357714Y-86772857D01*
X131167238Y-86725238D01*
X131072000Y-86630000D01*
X131024380Y-86534761D01*
X131357714Y-85249047D02*
X132024380Y-85249047D01*
X131357714Y-85677619D02*
X131881523Y-85677619D01*
X131976761Y-85630000D01*
X132024380Y-85534761D01*
X132024380Y-85391904D01*
X131976761Y-85296666D01*
X131929142Y-85249047D01*
X131357714Y-84915714D02*
X131357714Y-84534761D01*
X131024380Y-84772857D02*
X131881523Y-84772857D01*
X131976761Y-84725238D01*
X132024380Y-84630000D01*
X132024380Y-84534761D01*
X131500571Y-94869047D02*
X131500571Y-95630952D01*
X131119619Y-95250000D02*
X131881523Y-95250000D01*
X132643619Y-90455714D02*
X132596000Y-90408095D01*
X132548380Y-90312857D01*
X132548380Y-90074761D01*
X132596000Y-89979523D01*
X132643619Y-89931904D01*
X132738857Y-89884285D01*
X132834095Y-89884285D01*
X132976952Y-89931904D01*
X133548380Y-90503333D01*
X133548380Y-89884285D01*
X126833333Y-91035142D02*
X126785714Y-91082761D01*
X126642857Y-91130380D01*
X126547619Y-91130380D01*
X126404761Y-91082761D01*
X126309523Y-90987523D01*
X126261904Y-90892285D01*
X126214285Y-90701809D01*
X126214285Y-90558952D01*
X126261904Y-90368476D01*
X126309523Y-90273238D01*
X126404761Y-90178000D01*
X126547619Y-90130380D01*
X126642857Y-90130380D01*
X126785714Y-90178000D01*
X126833333Y-90225619D01*
X127785714Y-91130380D02*
X127214285Y-91130380D01*
X127500000Y-91130380D02*
X127500000Y-90130380D01*
X127404761Y-90273238D01*
X127309523Y-90368476D01*
X127214285Y-90416095D01*
X97432761Y-98075714D02*
X97480380Y-97932857D01*
X97480380Y-97694761D01*
X97432761Y-97599523D01*
X97385142Y-97551904D01*
X97289904Y-97504285D01*
X97194666Y-97504285D01*
X97099428Y-97551904D01*
X97051809Y-97599523D01*
X97004190Y-97694761D01*
X96956571Y-97885238D01*
X96908952Y-97980476D01*
X96861333Y-98028095D01*
X96766095Y-98075714D01*
X96670857Y-98075714D01*
X96575619Y-98028095D01*
X96528000Y-97980476D01*
X96480380Y-97885238D01*
X96480380Y-97647142D01*
X96528000Y-97504285D01*
X132072000Y-92971904D02*
X132119619Y-92876666D01*
X132119619Y-92733809D01*
X132072000Y-92590952D01*
X131976761Y-92495714D01*
X131881523Y-92448095D01*
X131691047Y-92400476D01*
X131548190Y-92400476D01*
X131357714Y-92448095D01*
X131262476Y-92495714D01*
X131167238Y-92590952D01*
X131119619Y-92733809D01*
X131119619Y-92829047D01*
X131167238Y-92971904D01*
X131214857Y-93019523D01*
X131548190Y-93019523D01*
X131548190Y-92829047D01*
X121515238Y-90606571D02*
X121658095Y-90654190D01*
X121705714Y-90701809D01*
X121753333Y-90797047D01*
X121753333Y-90939904D01*
X121705714Y-91035142D01*
X121658095Y-91082761D01*
X121562857Y-91130380D01*
X121181904Y-91130380D01*
X121181904Y-90130380D01*
X121515238Y-90130380D01*
X121610476Y-90178000D01*
X121658095Y-90225619D01*
X121705714Y-90320857D01*
X121705714Y-90416095D01*
X121658095Y-90511333D01*
X121610476Y-90558952D01*
X121515238Y-90606571D01*
X121181904Y-90606571D01*
X122372380Y-90130380D02*
X122467619Y-90130380D01*
X122562857Y-90178000D01*
X122610476Y-90225619D01*
X122658095Y-90320857D01*
X122705714Y-90511333D01*
X122705714Y-90749428D01*
X122658095Y-90939904D01*
X122610476Y-91035142D01*
X122562857Y-91082761D01*
X122467619Y-91130380D01*
X122372380Y-91130380D01*
X122277142Y-91082761D01*
X122229523Y-91035142D01*
X122181904Y-90939904D01*
X122134285Y-90749428D01*
X122134285Y-90511333D01*
X122181904Y-90320857D01*
X122229523Y-90225619D01*
X122277142Y-90178000D01*
X122372380Y-90130380D01*
X103425714Y-90844666D02*
X103901904Y-90844666D01*
X103330476Y-91130380D02*
X103663809Y-90130380D01*
X103997142Y-91130380D01*
X104759047Y-90130380D02*
X104568571Y-90130380D01*
X104473333Y-90178000D01*
X104425714Y-90225619D01*
X104330476Y-90368476D01*
X104282857Y-90558952D01*
X104282857Y-90939904D01*
X104330476Y-91035142D01*
X104378095Y-91082761D01*
X104473333Y-91130380D01*
X104663809Y-91130380D01*
X104759047Y-91082761D01*
X104806666Y-91035142D01*
X104854285Y-90939904D01*
X104854285Y-90701809D01*
X104806666Y-90606571D01*
X104759047Y-90558952D01*
X104663809Y-90511333D01*
X104473333Y-90511333D01*
X104378095Y-90558952D01*
X104330476Y-90606571D01*
X104282857Y-90701809D01*
X116435238Y-90606571D02*
X116578095Y-90654190D01*
X116625714Y-90701809D01*
X116673333Y-90797047D01*
X116673333Y-90939904D01*
X116625714Y-91035142D01*
X116578095Y-91082761D01*
X116482857Y-91130380D01*
X116101904Y-91130380D01*
X116101904Y-90130380D01*
X116435238Y-90130380D01*
X116530476Y-90178000D01*
X116578095Y-90225619D01*
X116625714Y-90320857D01*
X116625714Y-90416095D01*
X116578095Y-90511333D01*
X116530476Y-90558952D01*
X116435238Y-90606571D01*
X116101904Y-90606571D01*
X117054285Y-90225619D02*
X117101904Y-90178000D01*
X117197142Y-90130380D01*
X117435238Y-90130380D01*
X117530476Y-90178000D01*
X117578095Y-90225619D01*
X117625714Y-90320857D01*
X117625714Y-90416095D01*
X117578095Y-90558952D01*
X117006666Y-91130380D01*
X117625714Y-91130380D01*
X128897000Y-84320142D02*
X128944619Y-84224904D01*
X128944619Y-84082047D01*
X128897000Y-83939190D01*
X128801761Y-83843952D01*
X128706523Y-83796333D01*
X128516047Y-83748714D01*
X128373190Y-83748714D01*
X128182714Y-83796333D01*
X128087476Y-83843952D01*
X127992238Y-83939190D01*
X127944619Y-84082047D01*
X127944619Y-84177285D01*
X127992238Y-84320142D01*
X128039857Y-84367761D01*
X128373190Y-84367761D01*
X128373190Y-84177285D01*
X128611285Y-84796333D02*
X127944619Y-84796333D01*
X128516047Y-84796333D02*
X128563666Y-84843952D01*
X128611285Y-84939190D01*
X128611285Y-85082047D01*
X128563666Y-85177285D01*
X128468428Y-85224904D01*
X127944619Y-85224904D01*
X127944619Y-86129666D02*
X128944619Y-86129666D01*
X127992238Y-86129666D02*
X127944619Y-86034428D01*
X127944619Y-85843952D01*
X127992238Y-85748714D01*
X128039857Y-85701095D01*
X128135095Y-85653476D01*
X128420809Y-85653476D01*
X128516047Y-85701095D01*
X128563666Y-85748714D01*
X128611285Y-85843952D01*
X128611285Y-86034428D01*
X128563666Y-86129666D01*
X118975238Y-90606571D02*
X119118095Y-90654190D01*
X119165714Y-90701809D01*
X119213333Y-90797047D01*
X119213333Y-90939904D01*
X119165714Y-91035142D01*
X119118095Y-91082761D01*
X119022857Y-91130380D01*
X118641904Y-91130380D01*
X118641904Y-90130380D01*
X118975238Y-90130380D01*
X119070476Y-90178000D01*
X119118095Y-90225619D01*
X119165714Y-90320857D01*
X119165714Y-90416095D01*
X119118095Y-90511333D01*
X119070476Y-90558952D01*
X118975238Y-90606571D01*
X118641904Y-90606571D01*
X120165714Y-91130380D02*
X119594285Y-91130380D01*
X119880000Y-91130380D02*
X119880000Y-90130380D01*
X119784761Y-90273238D01*
X119689523Y-90368476D01*
X119594285Y-90416095D01*
X131167238Y-97504285D02*
X131119619Y-97647142D01*
X131119619Y-97885238D01*
X131167238Y-97980476D01*
X131214857Y-98028095D01*
X131310095Y-98075714D01*
X131405333Y-98075714D01*
X131500571Y-98028095D01*
X131548190Y-97980476D01*
X131595809Y-97885238D01*
X131643428Y-97694761D01*
X131691047Y-97599523D01*
X131738666Y-97551904D01*
X131833904Y-97504285D01*
X131929142Y-97504285D01*
X132024380Y-97551904D01*
X132072000Y-97599523D01*
X132119619Y-97694761D01*
X132119619Y-97932857D01*
X132072000Y-98075714D01*
X95123047Y-86431428D02*
X95884952Y-86431428D01*
X95504000Y-86812380D02*
X95504000Y-86050476D01*
X97099428Y-95630952D02*
X97099428Y-94869047D01*
X97480380Y-95250000D02*
X96718476Y-95250000D01*
X111355238Y-90606571D02*
X111498095Y-90654190D01*
X111545714Y-90701809D01*
X111593333Y-90797047D01*
X111593333Y-90939904D01*
X111545714Y-91035142D01*
X111498095Y-91082761D01*
X111402857Y-91130380D01*
X111021904Y-91130380D01*
X111021904Y-90130380D01*
X111355238Y-90130380D01*
X111450476Y-90178000D01*
X111498095Y-90225619D01*
X111545714Y-90320857D01*
X111545714Y-90416095D01*
X111498095Y-90511333D01*
X111450476Y-90558952D01*
X111355238Y-90606571D01*
X111021904Y-90606571D01*
X112450476Y-90463714D02*
X112450476Y-91130380D01*
X112212380Y-90082761D02*
X111974285Y-90797047D01*
X112593333Y-90797047D01*
X96528000Y-92448095D02*
X96480380Y-92543333D01*
X96480380Y-92686190D01*
X96528000Y-92829047D01*
X96623238Y-92924285D01*
X96718476Y-92971904D01*
X96908952Y-93019523D01*
X97051809Y-93019523D01*
X97242285Y-92971904D01*
X97337523Y-92924285D01*
X97432761Y-92829047D01*
X97480380Y-92686190D01*
X97480380Y-92590952D01*
X97432761Y-92448095D01*
X97385142Y-92400476D01*
X97051809Y-92400476D01*
X97051809Y-92590952D01*
X108815238Y-90606571D02*
X108958095Y-90654190D01*
X109005714Y-90701809D01*
X109053333Y-90797047D01*
X109053333Y-90939904D01*
X109005714Y-91035142D01*
X108958095Y-91082761D01*
X108862857Y-91130380D01*
X108481904Y-91130380D01*
X108481904Y-90130380D01*
X108815238Y-90130380D01*
X108910476Y-90178000D01*
X108958095Y-90225619D01*
X109005714Y-90320857D01*
X109005714Y-90416095D01*
X108958095Y-90511333D01*
X108910476Y-90558952D01*
X108815238Y-90606571D01*
X108481904Y-90606571D01*
X109958095Y-90130380D02*
X109481904Y-90130380D01*
X109434285Y-90606571D01*
X109481904Y-90558952D01*
X109577142Y-90511333D01*
X109815238Y-90511333D01*
X109910476Y-90558952D01*
X109958095Y-90606571D01*
X110005714Y-90701809D01*
X110005714Y-90939904D01*
X109958095Y-91035142D01*
X109910476Y-91082761D01*
X109815238Y-91130380D01*
X109577142Y-91130380D01*
X109481904Y-91082761D01*
X109434285Y-91035142D01*
X105965714Y-90844666D02*
X106441904Y-90844666D01*
X105870476Y-91130380D02*
X106203809Y-90130380D01*
X106537142Y-91130380D01*
X106775238Y-90130380D02*
X107441904Y-90130380D01*
X107013333Y-91130380D01*
%TO.C,C2*%
X106546666Y-85629714D02*
X106508571Y-85667809D01*
X106394285Y-85705904D01*
X106318095Y-85705904D01*
X106203809Y-85667809D01*
X106127619Y-85591619D01*
X106089523Y-85515428D01*
X106051428Y-85363047D01*
X106051428Y-85248761D01*
X106089523Y-85096380D01*
X106127619Y-85020190D01*
X106203809Y-84944000D01*
X106318095Y-84905904D01*
X106394285Y-84905904D01*
X106508571Y-84944000D01*
X106546666Y-84982095D01*
X106851428Y-84982095D02*
X106889523Y-84944000D01*
X106965714Y-84905904D01*
X107156190Y-84905904D01*
X107232380Y-84944000D01*
X107270476Y-84982095D01*
X107308571Y-85058285D01*
X107308571Y-85134476D01*
X107270476Y-85248761D01*
X106813333Y-85705904D01*
X107308571Y-85705904D01*
%TO.C,D1*%
X92119523Y-93833904D02*
X92119523Y-93033904D01*
X92310000Y-93033904D01*
X92424285Y-93072000D01*
X92500476Y-93148190D01*
X92538571Y-93224380D01*
X92576666Y-93376761D01*
X92576666Y-93491047D01*
X92538571Y-93643428D01*
X92500476Y-93719619D01*
X92424285Y-93795809D01*
X92310000Y-93833904D01*
X92119523Y-93833904D01*
X93338571Y-93833904D02*
X92881428Y-93833904D01*
X93110000Y-93833904D02*
X93110000Y-93033904D01*
X93033809Y-93148190D01*
X92957619Y-93224380D01*
X92881428Y-93262476D01*
%TO.C,X1*%
X105479904Y-88531619D02*
X106279904Y-87998285D01*
X105479904Y-87998285D02*
X106279904Y-88531619D01*
X106279904Y-87274476D02*
X106279904Y-87731619D01*
X106279904Y-87503047D02*
X105479904Y-87503047D01*
X105594190Y-87579238D01*
X105670380Y-87655428D01*
X105708476Y-87731619D01*
%TO.C,D3*%
X130473523Y-78974904D02*
X130473523Y-78174904D01*
X130664000Y-78174904D01*
X130778285Y-78213000D01*
X130854476Y-78289190D01*
X130892571Y-78365380D01*
X130930666Y-78517761D01*
X130930666Y-78632047D01*
X130892571Y-78784428D01*
X130854476Y-78860619D01*
X130778285Y-78936809D01*
X130664000Y-78974904D01*
X130473523Y-78974904D01*
X131197333Y-78174904D02*
X131692571Y-78174904D01*
X131425904Y-78479666D01*
X131540190Y-78479666D01*
X131616380Y-78517761D01*
X131654476Y-78555857D01*
X131692571Y-78632047D01*
X131692571Y-78822523D01*
X131654476Y-78898714D01*
X131616380Y-78936809D01*
X131540190Y-78974904D01*
X131311619Y-78974904D01*
X131235428Y-78936809D01*
X131197333Y-78898714D01*
%TO.C,U2*%
X106749904Y-87985523D02*
X107397523Y-87985523D01*
X107473714Y-87947428D01*
X107511809Y-87909333D01*
X107549904Y-87833142D01*
X107549904Y-87680761D01*
X107511809Y-87604571D01*
X107473714Y-87566476D01*
X107397523Y-87528380D01*
X106749904Y-87528380D01*
X106826095Y-87185523D02*
X106788000Y-87147428D01*
X106749904Y-87071238D01*
X106749904Y-86880761D01*
X106788000Y-86804571D01*
X106826095Y-86766476D01*
X106902285Y-86728380D01*
X106978476Y-86728380D01*
X107092761Y-86766476D01*
X107549904Y-87223619D01*
X107549904Y-86728380D01*
%TO.C,R3*%
X134105666Y-81514904D02*
X133839000Y-81133952D01*
X133648523Y-81514904D02*
X133648523Y-80714904D01*
X133953285Y-80714904D01*
X134029476Y-80753000D01*
X134067571Y-80791095D01*
X134105666Y-80867285D01*
X134105666Y-80981571D01*
X134067571Y-81057761D01*
X134029476Y-81095857D01*
X133953285Y-81133952D01*
X133648523Y-81133952D01*
X134372333Y-80714904D02*
X134867571Y-80714904D01*
X134600904Y-81019666D01*
X134715190Y-81019666D01*
X134791380Y-81057761D01*
X134829476Y-81095857D01*
X134867571Y-81172047D01*
X134867571Y-81362523D01*
X134829476Y-81438714D01*
X134791380Y-81476809D01*
X134715190Y-81514904D01*
X134486619Y-81514904D01*
X134410428Y-81476809D01*
X134372333Y-81438714D01*
%TO.C,R5*%
X121773904Y-81413333D02*
X121392952Y-81680000D01*
X121773904Y-81870476D02*
X120973904Y-81870476D01*
X120973904Y-81565714D01*
X121012000Y-81489523D01*
X121050095Y-81451428D01*
X121126285Y-81413333D01*
X121240571Y-81413333D01*
X121316761Y-81451428D01*
X121354857Y-81489523D01*
X121392952Y-81565714D01*
X121392952Y-81870476D01*
X120973904Y-80689523D02*
X120973904Y-81070476D01*
X121354857Y-81108571D01*
X121316761Y-81070476D01*
X121278666Y-80994285D01*
X121278666Y-80803809D01*
X121316761Y-80727619D01*
X121354857Y-80689523D01*
X121431047Y-80651428D01*
X121621523Y-80651428D01*
X121697714Y-80689523D01*
X121735809Y-80727619D01*
X121773904Y-80803809D01*
X121773904Y-80994285D01*
X121735809Y-81070476D01*
X121697714Y-81108571D01*
%TO.C,R1*%
X97402666Y-78593904D02*
X97136000Y-78212952D01*
X96945523Y-78593904D02*
X96945523Y-77793904D01*
X97250285Y-77793904D01*
X97326476Y-77832000D01*
X97364571Y-77870095D01*
X97402666Y-77946285D01*
X97402666Y-78060571D01*
X97364571Y-78136761D01*
X97326476Y-78174857D01*
X97250285Y-78212952D01*
X96945523Y-78212952D01*
X98164571Y-78593904D02*
X97707428Y-78593904D01*
X97936000Y-78593904D02*
X97936000Y-77793904D01*
X97859809Y-77908190D01*
X97783619Y-77984380D01*
X97707428Y-78022476D01*
%TO.C,R2*%
X129139904Y-88525333D02*
X128758952Y-88792000D01*
X129139904Y-88982476D02*
X128339904Y-88982476D01*
X128339904Y-88677714D01*
X128378000Y-88601523D01*
X128416095Y-88563428D01*
X128492285Y-88525333D01*
X128606571Y-88525333D01*
X128682761Y-88563428D01*
X128720857Y-88601523D01*
X128758952Y-88677714D01*
X128758952Y-88982476D01*
X128416095Y-88220571D02*
X128378000Y-88182476D01*
X128339904Y-88106285D01*
X128339904Y-87915809D01*
X128378000Y-87839619D01*
X128416095Y-87801523D01*
X128492285Y-87763428D01*
X128568476Y-87763428D01*
X128682761Y-87801523D01*
X129139904Y-88258666D01*
X129139904Y-87763428D01*
%TO.C,C1*%
X96551714Y-83318333D02*
X96589809Y-83356428D01*
X96627904Y-83470714D01*
X96627904Y-83546904D01*
X96589809Y-83661190D01*
X96513619Y-83737380D01*
X96437428Y-83775476D01*
X96285047Y-83813571D01*
X96170761Y-83813571D01*
X96018380Y-83775476D01*
X95942190Y-83737380D01*
X95866000Y-83661190D01*
X95827904Y-83546904D01*
X95827904Y-83470714D01*
X95866000Y-83356428D01*
X95904095Y-83318333D01*
X96627904Y-82556428D02*
X96627904Y-83013571D01*
X96627904Y-82785000D02*
X95827904Y-82785000D01*
X95942190Y-82861190D01*
X96018380Y-82937380D01*
X96056476Y-83013571D01*
%TO.C,R4*%
X134994666Y-92309904D02*
X134728000Y-91928952D01*
X134537523Y-92309904D02*
X134537523Y-91509904D01*
X134842285Y-91509904D01*
X134918476Y-91548000D01*
X134956571Y-91586095D01*
X134994666Y-91662285D01*
X134994666Y-91776571D01*
X134956571Y-91852761D01*
X134918476Y-91890857D01*
X134842285Y-91928952D01*
X134537523Y-91928952D01*
X135680380Y-91776571D02*
X135680380Y-92309904D01*
X135489904Y-91471809D02*
X135299428Y-92043238D01*
X135794666Y-92043238D01*
D11*
%TO.C,D2*%
X100055000Y-82570000D02*
X103145000Y-82570000D01*
X103144830Y-82570000D02*
G75*
G03*
X101599538Y-77020000I-1544830J2560000D01*
G01*
X101600462Y-77020000D02*
G75*
G03*
X100055170Y-82570000I-462J-2990000D01*
G01*
X104100000Y-80010000D02*
G75*
G03*
X104100000Y-80010000I-2500000J0D01*
G01*
%TO.C,J6*%
X102810000Y-96520000D02*
X102810000Y-91380000D01*
X105470000Y-97790000D02*
X105470000Y-99120000D01*
X105470000Y-99120000D02*
X104140000Y-99120000D01*
X105470000Y-96520000D02*
X105470000Y-91380000D01*
X105470000Y-91380000D02*
X102810000Y-91380000D01*
X105470000Y-96520000D02*
X102810000Y-96520000D01*
%TO.C,J9*%
X120710000Y-91380000D02*
X118050000Y-91380000D01*
X118050000Y-96520000D02*
X118050000Y-91380000D01*
X120710000Y-96520000D02*
X120710000Y-91380000D01*
X120710000Y-96520000D02*
X118050000Y-96520000D01*
X120710000Y-99120000D02*
X119380000Y-99120000D01*
X120710000Y-97790000D02*
X120710000Y-99120000D01*
%TO.C,J14*%
X130870000Y-96520000D02*
X128210000Y-96520000D01*
X128210000Y-96520000D02*
X128210000Y-91380000D01*
X130870000Y-99120000D02*
X129540000Y-99120000D01*
X130870000Y-96520000D02*
X130870000Y-91380000D01*
X130870000Y-91380000D02*
X128210000Y-91380000D01*
X130870000Y-97790000D02*
X130870000Y-99120000D01*
%TO.C,J1*%
X133925000Y-86360000D02*
X136585000Y-86360000D01*
X133925000Y-85090000D02*
X133925000Y-83760000D01*
X133925000Y-83760000D02*
X135255000Y-83760000D01*
X133925000Y-91500000D02*
X136585000Y-91500000D01*
X133925000Y-86360000D02*
X133925000Y-91500000D01*
X136585000Y-86360000D02*
X136585000Y-91500000D01*
%TO.C,J10*%
X115510000Y-96535000D02*
X115510000Y-91395000D01*
X118170000Y-91395000D02*
X115510000Y-91395000D01*
X118170000Y-97805000D02*
X118170000Y-99135000D01*
X118170000Y-99135000D02*
X116840000Y-99135000D01*
X118170000Y-96535000D02*
X115510000Y-96535000D01*
X118170000Y-96535000D02*
X118170000Y-91395000D01*
%TO.C,J8*%
X123250000Y-96520000D02*
X120590000Y-96520000D01*
X120590000Y-96520000D02*
X120590000Y-91380000D01*
X123250000Y-91380000D02*
X120590000Y-91380000D01*
X123250000Y-99120000D02*
X121920000Y-99120000D01*
X123250000Y-97790000D02*
X123250000Y-99120000D01*
X123250000Y-96520000D02*
X123250000Y-91380000D01*
%TO.C,J3*%
X123825000Y-86420000D02*
X122495000Y-86420000D01*
X122495000Y-86420000D02*
X122495000Y-85090000D01*
X125095000Y-86420000D02*
X127695000Y-86420000D01*
X125095000Y-83760000D02*
X127695000Y-83760000D01*
X127695000Y-86420000D02*
X127695000Y-83760000D01*
X125095000Y-86420000D02*
X125095000Y-83760000D01*
%TO.C,C2*%
X106170000Y-83103767D02*
X106170000Y-82811233D01*
X107190000Y-83103767D02*
X107190000Y-82811233D01*
D10*
%TO.C,D1*%
X93730000Y-92075000D02*
X93480000Y-92075000D01*
X93730000Y-92425000D02*
X93730000Y-91725000D01*
X95280000Y-92875000D02*
X92880000Y-92875000D01*
X94230000Y-92425000D02*
X94230000Y-91725000D01*
X93730000Y-91725000D02*
X94230000Y-92075000D01*
X95280000Y-91275000D02*
X92880000Y-91275000D01*
X94230000Y-92075000D02*
X94480000Y-92075000D01*
X94230000Y-92075000D02*
X93730000Y-92425000D01*
%TO.C,X1*%
X104200000Y-86560000D02*
X104200000Y-86160000D01*
X99000000Y-86560000D02*
X98300000Y-86560000D01*
X100898960Y-84660000D02*
X102301040Y-84660000D01*
X99000000Y-86560000D02*
X99000000Y-86160000D01*
X102937080Y-88060000D02*
X101535000Y-88060000D01*
X101535000Y-88060000D02*
X101535000Y-88560000D01*
D12*
X98552000Y-88392000D02*
G75*
G03*
X98552000Y-88392000I-127000J0D01*
G01*
D10*
%TO.C,D3*%
X130518000Y-82580000D02*
X130518000Y-80180000D01*
X130968000Y-81530000D02*
X131668000Y-81530000D01*
X131318000Y-81530000D02*
X131318000Y-81780000D01*
X130968000Y-81030000D02*
X131668000Y-81030000D01*
X131318000Y-81030000D02*
X131318000Y-80780000D01*
X131668000Y-81030000D02*
X131318000Y-81530000D01*
X131318000Y-81530000D02*
X130968000Y-81030000D01*
X132118000Y-82580000D02*
X132118000Y-80180000D01*
D11*
%TO.C,U2*%
X120810000Y-82550000D02*
X120810000Y-86410000D01*
X107790000Y-86410000D02*
X108025000Y-86410000D01*
X107790000Y-82550000D02*
X107790000Y-86410000D01*
X107790000Y-78690000D02*
X108025000Y-78690000D01*
X120810000Y-78690000D02*
X120575000Y-78690000D01*
X107790000Y-82550000D02*
X107790000Y-78690000D01*
X120810000Y-86410000D02*
X120575000Y-86410000D01*
X108025000Y-86410000D02*
X108025000Y-88225000D01*
X120810000Y-82550000D02*
X120810000Y-78690000D01*
%TO.C,J2*%
X127695000Y-89535000D02*
X127695000Y-89595000D01*
X125035000Y-89535000D02*
X127695000Y-89535000D01*
X125035000Y-89535000D02*
X125035000Y-89595000D01*
X125035000Y-89595000D02*
X127695000Y-89595000D01*
X125035000Y-88265000D02*
X125035000Y-86935000D01*
X125035000Y-86935000D02*
X126365000Y-86935000D01*
%TO.C,R3*%
X135382724Y-81773500D02*
X134873276Y-81773500D01*
X135382724Y-82818500D02*
X134873276Y-82818500D01*
%TO.C,J11*%
X115630000Y-96520000D02*
X112970000Y-96520000D01*
X115630000Y-97790000D02*
X115630000Y-99120000D01*
X115630000Y-96520000D02*
X115630000Y-91380000D01*
X115630000Y-91380000D02*
X112970000Y-91380000D01*
X115630000Y-99120000D02*
X114300000Y-99120000D01*
X112970000Y-96520000D02*
X112970000Y-91380000D01*
%TO.C,BT1*%
X92015000Y-90230000D02*
X94675000Y-90230000D01*
X92015000Y-85030000D02*
X93345000Y-85030000D01*
X92015000Y-86360000D02*
X92015000Y-85030000D01*
X94675000Y-87630000D02*
X94675000Y-90230000D01*
X92015000Y-87630000D02*
X92015000Y-90230000D01*
X92015000Y-87630000D02*
X94675000Y-87630000D01*
%TO.C,J7*%
X108010000Y-99105000D02*
X106680000Y-99105000D01*
X108010000Y-91365000D02*
X105350000Y-91365000D01*
X105350000Y-96505000D02*
X105350000Y-91365000D01*
X108010000Y-96505000D02*
X105350000Y-96505000D01*
X108010000Y-97775000D02*
X108010000Y-99105000D01*
X108010000Y-96505000D02*
X108010000Y-91365000D01*
%TO.C,R5*%
X122032500Y-81534724D02*
X122032500Y-81025276D01*
X123077500Y-81534724D02*
X123077500Y-81025276D01*
%TO.C,J5*%
X100270000Y-96520000D02*
X100270000Y-91380000D01*
X102930000Y-97790000D02*
X102930000Y-99120000D01*
X102930000Y-91380000D02*
X100270000Y-91380000D01*
X102930000Y-99120000D02*
X101600000Y-99120000D01*
X102930000Y-96520000D02*
X102930000Y-91380000D01*
X102930000Y-96520000D02*
X100270000Y-96520000D01*
%TO.C,J4*%
X97730000Y-96520000D02*
X97730000Y-91380000D01*
X100390000Y-96520000D02*
X97730000Y-96520000D01*
X100390000Y-91380000D02*
X97730000Y-91380000D01*
X100390000Y-99120000D02*
X99060000Y-99120000D01*
X100390000Y-97790000D02*
X100390000Y-99120000D01*
X100390000Y-96520000D02*
X100390000Y-91380000D01*
%TO.C,R1*%
X97013500Y-80772724D02*
X97013500Y-80263276D01*
X98058500Y-80772724D02*
X98058500Y-80263276D01*
%TO.C,J15*%
X128330000Y-96520000D02*
X125670000Y-96520000D01*
X128330000Y-96520000D02*
X128330000Y-91380000D01*
X128330000Y-99120000D02*
X127000000Y-99120000D01*
X128330000Y-97790000D02*
X128330000Y-99120000D01*
X128330000Y-91380000D02*
X125670000Y-91380000D01*
X125670000Y-96520000D02*
X125670000Y-91380000D01*
%TO.C,J16*%
X125790000Y-91380000D02*
X123130000Y-91380000D01*
X123130000Y-96520000D02*
X123130000Y-91380000D01*
X125790000Y-99120000D02*
X124460000Y-99120000D01*
X125790000Y-96520000D02*
X125790000Y-91380000D01*
X125790000Y-97790000D02*
X125790000Y-99120000D01*
X125790000Y-96520000D02*
X123130000Y-96520000D01*
%TO.C,R2*%
X129525500Y-87630724D02*
X129525500Y-87121276D01*
X130570500Y-87630724D02*
X130570500Y-87121276D01*
%TO.C,C1*%
X93486248Y-83920000D02*
X94008752Y-83920000D01*
X93486248Y-82450000D02*
X94008752Y-82450000D01*
%TO.C,R4*%
X135382724Y-93486500D02*
X134873276Y-93486500D01*
X135382724Y-92441500D02*
X134873276Y-92441500D01*
%TO.C,J12*%
X113090000Y-97805000D02*
X113090000Y-99135000D01*
X113090000Y-96535000D02*
X113090000Y-91395000D01*
X113090000Y-96535000D02*
X110430000Y-96535000D01*
X113090000Y-99135000D02*
X111760000Y-99135000D01*
X113090000Y-91395000D02*
X110430000Y-91395000D01*
X110430000Y-96535000D02*
X110430000Y-91395000D01*
%TO.C,D4*%
X125455000Y-82570000D02*
X128545000Y-82570000D01*
X128544830Y-82570000D02*
G75*
G03*
X126999538Y-77020000I-1544830J2560000D01*
G01*
X127000462Y-77020000D02*
G75*
G03*
X125455170Y-82570000I-462J-2990000D01*
G01*
X129500000Y-80010000D02*
G75*
G03*
X129500000Y-80010000I-2500000J0D01*
G01*
%TO.C,J13*%
X110550000Y-91380000D02*
X107890000Y-91380000D01*
X110550000Y-99120000D02*
X109220000Y-99120000D01*
X110550000Y-96520000D02*
X107890000Y-96520000D01*
X110550000Y-97790000D02*
X110550000Y-99120000D01*
X107890000Y-96520000D02*
X107890000Y-91380000D01*
X110550000Y-96520000D02*
X110550000Y-91380000D01*
%TD*%
M02*
