%TF.GenerationSoftware,KiCad,Pcbnew,(6.0.5)*%
%TF.CreationDate,2022-05-22T23:21:51-04:00*%
%TF.ProjectId,controller,636f6e74-726f-46c6-9c65-722e6b696361,rev?*%
%TF.SameCoordinates,Original*%
%TF.FileFunction,Copper,L1,Top*%
%TF.FilePolarity,Positive*%
%FSLAX46Y46*%
G04 Gerber Fmt 4.6, Leading zero omitted, Abs format (unit mm)*
G04 Created by KiCad (PCBNEW (6.0.5)) date 2022-05-22 23:21:51*
%MOMM*%
%LPD*%
G01*
G04 APERTURE LIST*
G04 Aperture macros list*
%AMRoundRect*
0 Rectangle with rounded corners*
0 $1 Rounding radius*
0 $2 $3 $4 $5 $6 $7 $8 $9 X,Y pos of 4 corners*
0 Add a 4 corners polygon primitive as box body*
4,1,4,$2,$3,$4,$5,$6,$7,$8,$9,$2,$3,0*
0 Add four circle primitives for the rounded corners*
1,1,$1+$1,$2,$3*
1,1,$1+$1,$4,$5*
1,1,$1+$1,$6,$7*
1,1,$1+$1,$8,$9*
0 Add four rect primitives between the rounded corners*
20,1,$1+$1,$2,$3,$4,$5,0*
20,1,$1+$1,$4,$5,$6,$7,0*
20,1,$1+$1,$6,$7,$8,$9,0*
20,1,$1+$1,$8,$9,$2,$3,0*%
G04 Aperture macros list end*
%TA.AperFunction,ComponentPad*%
%ADD10R,1.800000X1.800000*%
%TD*%
%TA.AperFunction,ComponentPad*%
%ADD11C,1.800000*%
%TD*%
%TA.AperFunction,ComponentPad*%
%ADD12R,1.700000X1.700000*%
%TD*%
%TA.AperFunction,ComponentPad*%
%ADD13O,1.700000X1.700000*%
%TD*%
%TA.AperFunction,SMDPad,CuDef*%
%ADD14RoundRect,0.237500X0.237500X-0.300000X0.237500X0.300000X-0.237500X0.300000X-0.237500X-0.300000X0*%
%TD*%
%TA.AperFunction,SMDPad,CuDef*%
%ADD15R,1.200000X0.750000*%
%TD*%
%TA.AperFunction,SMDPad,CuDef*%
%ADD16R,1.600000X1.500000*%
%TD*%
%TA.AperFunction,SMDPad,CuDef*%
%ADD17R,0.750000X1.200000*%
%TD*%
%TA.AperFunction,SMDPad,CuDef*%
%ADD18RoundRect,0.150000X0.150000X-0.875000X0.150000X0.875000X-0.150000X0.875000X-0.150000X-0.875000X0*%
%TD*%
%TA.AperFunction,SMDPad,CuDef*%
%ADD19RoundRect,0.237500X0.250000X0.237500X-0.250000X0.237500X-0.250000X-0.237500X0.250000X-0.237500X0*%
%TD*%
%TA.AperFunction,SMDPad,CuDef*%
%ADD20RoundRect,0.237500X0.237500X-0.250000X0.237500X0.250000X-0.237500X0.250000X-0.237500X-0.250000X0*%
%TD*%
%TA.AperFunction,SMDPad,CuDef*%
%ADD21RoundRect,0.250000X-0.337500X-0.475000X0.337500X-0.475000X0.337500X0.475000X-0.337500X0.475000X0*%
%TD*%
%TA.AperFunction,ViaPad*%
%ADD22C,0.800000*%
%TD*%
%TA.AperFunction,Conductor*%
%ADD23C,0.250000*%
%TD*%
G04 APERTURE END LIST*
D10*
%TO.P,D2,1,K*%
%TO.N,GND*%
X101600000Y-81280000D03*
D11*
%TO.P,D2,2,A*%
%TO.N,Net-(D2-Pad2)*%
X101600000Y-78740000D03*
%TD*%
D12*
%TO.P,J6,1,Pin_1*%
%TO.N,/PA6*%
X104140000Y-97790000D03*
D13*
%TO.P,J6,2,Pin_2*%
%TO.N,VDD*%
X104140000Y-95250000D03*
%TO.P,J6,3,Pin_3*%
%TO.N,GND*%
X104140000Y-92710000D03*
%TD*%
D12*
%TO.P,J9,1,Pin_1*%
%TO.N,/PB1*%
X119380000Y-97790000D03*
D13*
%TO.P,J9,2,Pin_2*%
%TO.N,VDD*%
X119380000Y-95250000D03*
%TO.P,J9,3,Pin_3*%
%TO.N,GND*%
X119380000Y-92710000D03*
%TD*%
D12*
%TO.P,J14,1,Pin_1*%
%TO.N,/PC0*%
X129540000Y-97790000D03*
D13*
%TO.P,J14,2,Pin_2*%
%TO.N,VDD*%
X129540000Y-95250000D03*
%TO.P,J14,3,Pin_3*%
%TO.N,GND*%
X129540000Y-92710000D03*
%TD*%
D12*
%TO.P,J1,1,Pin_1*%
%TO.N,Net-(D3-Pad1)*%
X135255000Y-85090000D03*
D13*
%TO.P,J1,2,Pin_2*%
%TO.N,Net-(J1-Pad2)*%
X135255000Y-87630000D03*
%TO.P,J1,3,Pin_3*%
%TO.N,Net-(J1-Pad3)*%
X135255000Y-90170000D03*
%TD*%
D12*
%TO.P,J10,1,Pin_1*%
%TO.N,/PB2*%
X116840000Y-97805000D03*
D13*
%TO.P,J10,2,Pin_2*%
%TO.N,VDD*%
X116840000Y-95265000D03*
%TO.P,J10,3,Pin_3*%
%TO.N,GND*%
X116840000Y-92725000D03*
%TD*%
D12*
%TO.P,J8,1,Pin_1*%
%TO.N,/PB0*%
X121920000Y-97790000D03*
D13*
%TO.P,J8,2,Pin_2*%
%TO.N,VDD*%
X121920000Y-95250000D03*
%TO.P,J8,3,Pin_3*%
%TO.N,GND*%
X121920000Y-92710000D03*
%TD*%
D12*
%TO.P,J3,1,Pin_1*%
%TO.N,/UPDI*%
X123825000Y-85090000D03*
D13*
%TO.P,J3,2,Pin_2*%
%TO.N,GND*%
X126365000Y-85090000D03*
%TD*%
D14*
%TO.P,C2,1*%
%TO.N,VDD*%
X106680000Y-83820000D03*
%TO.P,C2,2*%
%TO.N,GND*%
X106680000Y-82095000D03*
%TD*%
D15*
%TO.P,D1,1,K*%
%TO.N,VDD*%
X95250000Y-92075000D03*
%TO.P,D1,2,A*%
%TO.N,GND*%
X92710000Y-92075000D03*
%TD*%
D16*
%TO.P,X1,1,EN*%
%TO.N,unconnected-(X1-Pad1)*%
X100330000Y-87460000D03*
%TO.P,X1,2,GND*%
%TO.N,GND*%
X102870000Y-87460000D03*
%TO.P,X1,3,OUT*%
%TO.N,/CLK*%
X102870000Y-85260000D03*
%TO.P,X1,4,Vdd*%
%TO.N,VDD*%
X100330000Y-85260000D03*
%TD*%
D17*
%TO.P,D3,1,K*%
%TO.N,Net-(D3-Pad1)*%
X131318000Y-82550000D03*
%TO.P,D3,2,A*%
%TO.N,GND*%
X131318000Y-80010000D03*
%TD*%
D18*
%TO.P,U2,1,VCC*%
%TO.N,VDD*%
X108585000Y-87200000D03*
%TO.P,U2,2,PA4*%
%TO.N,/PA4*%
X109855000Y-87200000D03*
%TO.P,U2,3,PA5*%
%TO.N,/PA5*%
X111125000Y-87200000D03*
%TO.P,U2,4,PA6*%
%TO.N,/PA6*%
X112395000Y-87200000D03*
%TO.P,U2,5,PA7*%
%TO.N,/PA7*%
X113665000Y-87200000D03*
%TO.P,U2,6,PB5*%
%TO.N,/PB5*%
X114935000Y-87200000D03*
%TO.P,U2,7,PB4*%
%TO.N,/PB4*%
X116205000Y-87200000D03*
%TO.P,U2,8,PB3*%
%TO.N,/PB3*%
X117475000Y-87200000D03*
%TO.P,U2,9,PB2*%
%TO.N,/PB2*%
X118745000Y-87200000D03*
%TO.P,U2,10,PB1*%
%TO.N,/PB1*%
X120015000Y-87200000D03*
%TO.P,U2,11,PB0*%
%TO.N,/PB0*%
X120015000Y-77900000D03*
%TO.P,U2,12,PC0*%
%TO.N,/PC0*%
X118745000Y-77900000D03*
%TO.P,U2,13,PC1*%
%TO.N,/PC1*%
X117475000Y-77900000D03*
%TO.P,U2,14,PC2*%
%TO.N,/PC2*%
X116205000Y-77900000D03*
%TO.P,U2,15,PC3*%
%TO.N,/LED*%
X114935000Y-77900000D03*
%TO.P,U2,16,~{RESET}/PA0*%
%TO.N,/UPDI*%
X113665000Y-77900000D03*
%TO.P,U2,17,PA1*%
%TO.N,/MIDI_OUT*%
X112395000Y-77900000D03*
%TO.P,U2,18,PA2*%
%TO.N,/MIDI_IN*%
X111125000Y-77900000D03*
%TO.P,U2,19,PA3*%
%TO.N,/CLK*%
X109855000Y-77900000D03*
%TO.P,U2,20,GND*%
%TO.N,GND*%
X108585000Y-77900000D03*
%TD*%
D12*
%TO.P,J2,1,Pin_1*%
%TO.N,/MIDI_IN*%
X126365000Y-88265000D03*
%TD*%
D19*
%TO.P,R3,1*%
%TO.N,Net-(D3-Pad1)*%
X136040500Y-82296000D03*
%TO.P,R3,2*%
%TO.N,/MIDI_OUT*%
X134215500Y-82296000D03*
%TD*%
D12*
%TO.P,J11,1,Pin_1*%
%TO.N,/PB3*%
X114300000Y-97790000D03*
D13*
%TO.P,J11,2,Pin_2*%
%TO.N,VDD*%
X114300000Y-95250000D03*
%TO.P,J11,3,Pin_3*%
%TO.N,GND*%
X114300000Y-92710000D03*
%TD*%
D12*
%TO.P,BT1,1,+*%
%TO.N,VDD*%
X93345000Y-86360000D03*
D13*
%TO.P,BT1,2,-*%
%TO.N,GND*%
X93345000Y-88900000D03*
%TD*%
D12*
%TO.P,J7,1,Pin_1*%
%TO.N,/PA7*%
X106680000Y-97775000D03*
D13*
%TO.P,J7,2,Pin_2*%
%TO.N,VDD*%
X106680000Y-95235000D03*
%TO.P,J7,3,Pin_3*%
%TO.N,GND*%
X106680000Y-92695000D03*
%TD*%
D20*
%TO.P,R5,1*%
%TO.N,/LED*%
X122555000Y-82192500D03*
%TO.P,R5,2*%
%TO.N,Net-(D4-Pad2)*%
X122555000Y-80367500D03*
%TD*%
D12*
%TO.P,J5,1,Pin_1*%
%TO.N,/PA5*%
X101600000Y-97790000D03*
D13*
%TO.P,J5,2,Pin_2*%
%TO.N,VDD*%
X101600000Y-95250000D03*
%TO.P,J5,3,Pin_3*%
%TO.N,GND*%
X101600000Y-92710000D03*
%TD*%
D12*
%TO.P,J4,1,Pin_1*%
%TO.N,/PA4*%
X99060000Y-97790000D03*
D13*
%TO.P,J4,2,Pin_2*%
%TO.N,VDD*%
X99060000Y-95250000D03*
%TO.P,J4,3,Pin_3*%
%TO.N,GND*%
X99060000Y-92710000D03*
%TD*%
D20*
%TO.P,R1,1*%
%TO.N,VDD*%
X97536000Y-81430500D03*
%TO.P,R1,2*%
%TO.N,Net-(D2-Pad2)*%
X97536000Y-79605500D03*
%TD*%
D12*
%TO.P,J15,1,Pin_1*%
%TO.N,/PC1*%
X127000000Y-97790000D03*
D13*
%TO.P,J15,2,Pin_2*%
%TO.N,VDD*%
X127000000Y-95250000D03*
%TO.P,J15,3,Pin_3*%
%TO.N,GND*%
X127000000Y-92710000D03*
%TD*%
D12*
%TO.P,J16,1,Pin_1*%
%TO.N,/PC2*%
X124460000Y-97790000D03*
D13*
%TO.P,J16,2,Pin_2*%
%TO.N,VDD*%
X124460000Y-95250000D03*
%TO.P,J16,3,Pin_3*%
%TO.N,GND*%
X124460000Y-92710000D03*
%TD*%
D20*
%TO.P,R2,1*%
%TO.N,VDD*%
X130048000Y-88288500D03*
%TO.P,R2,2*%
%TO.N,Net-(J1-Pad2)*%
X130048000Y-86463500D03*
%TD*%
D21*
%TO.P,C1,1*%
%TO.N,VDD*%
X92710000Y-83185000D03*
%TO.P,C1,2*%
%TO.N,GND*%
X94785000Y-83185000D03*
%TD*%
D19*
%TO.P,R4,1*%
%TO.N,Net-(J1-Pad3)*%
X136040500Y-92964000D03*
%TO.P,R4,2*%
%TO.N,GND*%
X134215500Y-92964000D03*
%TD*%
D12*
%TO.P,J12,1,Pin_1*%
%TO.N,/PB4*%
X111760000Y-97805000D03*
D13*
%TO.P,J12,2,Pin_2*%
%TO.N,VDD*%
X111760000Y-95265000D03*
%TO.P,J12,3,Pin_3*%
%TO.N,GND*%
X111760000Y-92725000D03*
%TD*%
D10*
%TO.P,D4,1,K*%
%TO.N,GND*%
X127000000Y-81280000D03*
D11*
%TO.P,D4,2,A*%
%TO.N,Net-(D4-Pad2)*%
X127000000Y-78740000D03*
%TD*%
D12*
%TO.P,J13,1,Pin_1*%
%TO.N,/PB5*%
X109220000Y-97790000D03*
D13*
%TO.P,J13,2,Pin_2*%
%TO.N,VDD*%
X109220000Y-95250000D03*
%TO.P,J13,3,Pin_3*%
%TO.N,GND*%
X109220000Y-92710000D03*
%TD*%
D22*
%TO.N,GND*%
X107188000Y-79502000D03*
X95758000Y-85090000D03*
X105410000Y-82804000D03*
X132588000Y-92202000D03*
X131318000Y-77470000D03*
X104648000Y-86868000D03*
%TO.N,/PB0*%
X121153701Y-83570299D03*
X121158000Y-88138000D03*
%TO.N,VDD*%
X132080000Y-93980000D03*
%TO.N,/MIDI_OUT*%
X132842000Y-81534000D03*
X112776000Y-80518000D03*
%TO.N,/LED*%
X121158000Y-80264000D03*
X115316000Y-80010000D03*
%TO.N,/UPDI*%
X115062000Y-81788000D03*
%TO.N,/MIDI_IN*%
X112522000Y-81788000D03*
%TD*%
D23*
%TO.N,/PB3*%
X114300000Y-97790000D02*
X115570000Y-96520000D01*
X115570000Y-96520000D02*
X115570000Y-90170000D01*
X115570000Y-90170000D02*
X117475000Y-88265000D01*
X117475000Y-88265000D02*
X117475000Y-87200000D01*
%TO.N,/PB4*%
X111760000Y-97805000D02*
X113030000Y-96535000D01*
X113030000Y-96535000D02*
X113030000Y-91440000D01*
X113030000Y-91440000D02*
X116205000Y-88265000D01*
X116205000Y-88265000D02*
X116205000Y-87200000D01*
%TO.N,/PA7*%
X106680000Y-97775000D02*
X107950000Y-96505000D01*
X107950000Y-96505000D02*
X107950000Y-91440000D01*
X107950000Y-91440000D02*
X109141440Y-90248560D01*
X109141440Y-90248560D02*
X111681440Y-90248560D01*
X111681440Y-90248560D02*
X113665000Y-88265000D01*
X113665000Y-88265000D02*
X113665000Y-87200000D01*
%TO.N,/PA6*%
X104140000Y-97790000D02*
X105410000Y-96520000D01*
X105410000Y-96520000D02*
X105410000Y-91440000D01*
X105410000Y-91440000D02*
X107050960Y-89799040D01*
X107050960Y-89799040D02*
X110856314Y-89799040D01*
X112395000Y-88260354D02*
X112395000Y-87200000D01*
X110856314Y-89799040D02*
X112395000Y-88260354D01*
%TO.N,/PA4*%
X109220000Y-88900000D02*
X109855000Y-88265000D01*
X101150495Y-91186000D02*
X102600662Y-91186000D01*
X100330000Y-96520000D02*
X100330000Y-92006495D01*
X102600662Y-91186000D02*
X104886662Y-88900000D01*
X99060000Y-97790000D02*
X100330000Y-96520000D01*
X109855000Y-88265000D02*
X109855000Y-87200000D01*
X100330000Y-92006495D02*
X101150495Y-91186000D01*
X104886662Y-88900000D02*
X109220000Y-88900000D01*
%TO.N,GND*%
X133350000Y-92964000D02*
X132588000Y-92202000D01*
X108585000Y-77900000D02*
X108028000Y-77900000D01*
X94785000Y-84117000D02*
X94785000Y-83185000D01*
X93345000Y-90297000D02*
X93345000Y-88900000D01*
X106119000Y-82095000D02*
X105410000Y-82804000D01*
X134215500Y-92964000D02*
X133350000Y-92964000D01*
X104056000Y-87460000D02*
X104648000Y-86868000D01*
X107188000Y-78740000D02*
X107188000Y-79502000D01*
X108028000Y-77900000D02*
X107188000Y-78740000D01*
X92710000Y-92075000D02*
X92710000Y-90932000D01*
X92710000Y-90932000D02*
X93345000Y-90297000D01*
X131318000Y-80010000D02*
X131318000Y-77470000D01*
X102870000Y-87460000D02*
X104056000Y-87460000D01*
X95758000Y-85090000D02*
X94785000Y-84117000D01*
X106680000Y-82095000D02*
X106119000Y-82095000D01*
%TO.N,/PA5*%
X101600000Y-97790000D02*
X102870000Y-96520000D01*
X110040480Y-89349520D02*
X111125000Y-88265000D01*
X105072860Y-89349520D02*
X110040480Y-89349520D01*
X102870000Y-96520000D02*
X102870000Y-91552380D01*
X102870000Y-91552380D02*
X105072860Y-89349520D01*
X111125000Y-88265000D02*
X111125000Y-87200000D01*
%TO.N,/PB0*%
X121158000Y-88138000D02*
X121158000Y-89027717D01*
X123190000Y-91059717D02*
X123190000Y-96520000D01*
X121158000Y-89027717D02*
X123190000Y-91059717D01*
X123190000Y-96520000D02*
X121920000Y-97790000D01*
X121153701Y-83570299D02*
X120015000Y-82431598D01*
X120015000Y-82431598D02*
X120015000Y-77900000D01*
%TO.N,/PB1*%
X120650000Y-96520000D02*
X119380000Y-97790000D01*
X120015000Y-87200000D02*
X120015000Y-89535000D01*
X120015000Y-89535000D02*
X120650000Y-90170000D01*
X120650000Y-90170000D02*
X120650000Y-96520000D01*
%TO.N,/PB2*%
X118099520Y-90180480D02*
X118745000Y-89535000D01*
X116840000Y-97805000D02*
X118099520Y-96545480D01*
X118099520Y-96545480D02*
X118099520Y-90180480D01*
X118745000Y-89535000D02*
X118745000Y-87200000D01*
%TO.N,/PB5*%
X110490000Y-91440000D02*
X111125000Y-90805000D01*
X111125000Y-90805000D02*
X112395000Y-90805000D01*
X114935000Y-88265000D02*
X114935000Y-87200000D01*
X109220000Y-97790000D02*
X110490000Y-96520000D01*
X110490000Y-96520000D02*
X110490000Y-91440000D01*
X112395000Y-90805000D02*
X114935000Y-88265000D01*
%TO.N,/PC0*%
X118745000Y-77900000D02*
X118745000Y-82549282D01*
X118745000Y-82549282D02*
X122936000Y-86740282D01*
X125984000Y-90424000D02*
X129794000Y-90424000D01*
X122936000Y-87376000D02*
X125984000Y-90424000D01*
X129794000Y-90424000D02*
X130810000Y-91440000D01*
X122936000Y-86740282D02*
X122936000Y-87376000D01*
X130810000Y-96520000D02*
X129540000Y-97790000D01*
X130810000Y-91440000D02*
X130810000Y-96520000D01*
%TO.N,/PC1*%
X128270000Y-91440000D02*
X128270000Y-96520000D01*
X122428000Y-87503718D02*
X125797802Y-90873520D01*
X128270000Y-96520000D02*
X127000000Y-97790000D01*
X127703520Y-90873520D02*
X128270000Y-91440000D01*
X125797802Y-90873520D02*
X127703520Y-90873520D01*
X117475000Y-81915000D02*
X122428000Y-86868000D01*
X117475000Y-77900000D02*
X117475000Y-81915000D01*
X122428000Y-86868000D02*
X122428000Y-87503718D01*
%TO.N,/PC2*%
X125730000Y-91441436D02*
X125730000Y-96520000D01*
X116205000Y-77900000D02*
X116205000Y-81280718D01*
X125730000Y-96520000D02*
X124460000Y-97790000D01*
X116205000Y-81280718D02*
X121920000Y-86995718D01*
X121920000Y-86995718D02*
X121920000Y-87631436D01*
X121920000Y-87631436D02*
X125730000Y-91441436D01*
%TO.N,Net-(D2-Pad2)*%
X97536000Y-79605500D02*
X99083500Y-79605500D01*
X99949000Y-78740000D02*
X101600000Y-78740000D01*
X99083500Y-79605500D02*
X99949000Y-78740000D01*
%TO.N,Net-(J1-Pad2)*%
X135255000Y-87630000D02*
X133350000Y-87630000D01*
X133350000Y-87630000D02*
X132183500Y-86463500D01*
X132183500Y-86463500D02*
X130048000Y-86463500D01*
%TO.N,Net-(D3-Pad1)*%
X131318000Y-83566000D02*
X131318000Y-82550000D01*
X135255000Y-83947000D02*
X135255000Y-85090000D01*
X136040500Y-83161500D02*
X135255000Y-83947000D01*
X132842000Y-85090000D02*
X131318000Y-83566000D01*
X136040500Y-82296000D02*
X136040500Y-83161500D01*
X135255000Y-85090000D02*
X132842000Y-85090000D01*
%TO.N,/MIDI_OUT*%
X112395000Y-80137000D02*
X112395000Y-77900000D01*
X134215500Y-82296000D02*
X133604000Y-82296000D01*
X133604000Y-82296000D02*
X132842000Y-81534000D01*
X112776000Y-80518000D02*
X112395000Y-80137000D01*
%TO.N,Net-(J1-Pad3)*%
X135255000Y-91313000D02*
X136040500Y-92098500D01*
X135255000Y-90170000D02*
X135255000Y-91313000D01*
X136040500Y-92098500D02*
X136040500Y-92964000D01*
%TO.N,/LED*%
X121158000Y-80264000D02*
X121158000Y-81534000D01*
X121158000Y-81534000D02*
X121816500Y-82192500D01*
X114935000Y-77900000D02*
X114935000Y-79629000D01*
X121816500Y-82192500D02*
X122555000Y-82192500D01*
X114935000Y-79629000D02*
X115316000Y-80010000D01*
%TO.N,Net-(D4-Pad2)*%
X122555000Y-80367500D02*
X123594500Y-80367500D01*
X123594500Y-80367500D02*
X125222000Y-78740000D01*
X125222000Y-78740000D02*
X127000000Y-78740000D01*
%TO.N,/UPDI*%
X113665000Y-77900000D02*
X113665000Y-80391000D01*
X113665000Y-80391000D02*
X115062000Y-81788000D01*
%TO.N,/MIDI_IN*%
X112522000Y-81788000D02*
X111125000Y-80391000D01*
X111125000Y-80391000D02*
X111125000Y-77900000D01*
%TO.N,/CLK*%
X108966000Y-80264000D02*
X109855000Y-79375000D01*
X109855000Y-79375000D02*
X109855000Y-77900000D01*
X106426000Y-80264000D02*
X108966000Y-80264000D01*
X102870000Y-83820000D02*
X106426000Y-80264000D01*
X102870000Y-85260000D02*
X102870000Y-83820000D01*
%TD*%
%TA.AperFunction,Conductor*%
%TO.N,VDD*%
G36*
X134604391Y-76121384D02*
G01*
X134620000Y-76124136D01*
X134630685Y-76122252D01*
X134640339Y-76122252D01*
X134654278Y-76121425D01*
X134748935Y-76126741D01*
X134906451Y-76135587D01*
X134920268Y-76137144D01*
X135196247Y-76184034D01*
X135209805Y-76187128D01*
X135478807Y-76264627D01*
X135491932Y-76269220D01*
X135750557Y-76376346D01*
X135763085Y-76382379D01*
X136008101Y-76517794D01*
X136019875Y-76525193D01*
X136248169Y-76687177D01*
X136259041Y-76695846D01*
X136467780Y-76882387D01*
X136477613Y-76892220D01*
X136664154Y-77100959D01*
X136672823Y-77111831D01*
X136834807Y-77340125D01*
X136842206Y-77351899D01*
X136977621Y-77596915D01*
X136983654Y-77609443D01*
X137090780Y-77868068D01*
X137095373Y-77881193D01*
X137172872Y-78150195D01*
X137175966Y-78163753D01*
X137222856Y-78439732D01*
X137224413Y-78453549D01*
X137238575Y-78705720D01*
X137237748Y-78719661D01*
X137237748Y-78729315D01*
X137235864Y-78740000D01*
X137237748Y-78750683D01*
X137238616Y-78755606D01*
X137240500Y-78777139D01*
X137240500Y-96482861D01*
X137238616Y-96504391D01*
X137235864Y-96520000D01*
X137237748Y-96530685D01*
X137237748Y-96540339D01*
X137238575Y-96554280D01*
X137224413Y-96806451D01*
X137222856Y-96820268D01*
X137175966Y-97096247D01*
X137172872Y-97109805D01*
X137095373Y-97378807D01*
X137090780Y-97391932D01*
X136983654Y-97650557D01*
X136977621Y-97663085D01*
X136842206Y-97908101D01*
X136834807Y-97919875D01*
X136672823Y-98148169D01*
X136664154Y-98159041D01*
X136477613Y-98367780D01*
X136467780Y-98377613D01*
X136259041Y-98564154D01*
X136248169Y-98572823D01*
X136019875Y-98734807D01*
X136008101Y-98742206D01*
X135763085Y-98877621D01*
X135750557Y-98883654D01*
X135491932Y-98990780D01*
X135478806Y-98995373D01*
X135226678Y-99068011D01*
X135209805Y-99072872D01*
X135196247Y-99075966D01*
X134920268Y-99122856D01*
X134906451Y-99124413D01*
X134748935Y-99133259D01*
X134654278Y-99138575D01*
X134640339Y-99137748D01*
X134630685Y-99137748D01*
X134620000Y-99135864D01*
X134604391Y-99138616D01*
X134582861Y-99140500D01*
X130588191Y-99140500D01*
X130521152Y-99120815D01*
X130475397Y-99068011D01*
X130465453Y-98998853D01*
X130494478Y-98935297D01*
X130537853Y-98903177D01*
X130563153Y-98891939D01*
X130642241Y-98812713D01*
X130648873Y-98797713D01*
X130683737Y-98718853D01*
X130683738Y-98718851D01*
X130687506Y-98710327D01*
X130690500Y-98684646D01*
X130690500Y-97292610D01*
X130710185Y-97225571D01*
X130726819Y-97204929D01*
X131158528Y-96773220D01*
X131169491Y-96751703D01*
X131179654Y-96735119D01*
X131188116Y-96723473D01*
X131188118Y-96723469D01*
X131193849Y-96715581D01*
X131201311Y-96692616D01*
X131208754Y-96674647D01*
X131219719Y-96653126D01*
X131221384Y-96642618D01*
X131223496Y-96629279D01*
X131228036Y-96610364D01*
X131235500Y-96587393D01*
X131235500Y-96520000D01*
X132314564Y-96520000D01*
X132314829Y-96524043D01*
X132325275Y-96683414D01*
X132334287Y-96820920D01*
X132393120Y-97116691D01*
X132394425Y-97120535D01*
X132486552Y-97391932D01*
X132490055Y-97402252D01*
X132623434Y-97672718D01*
X132790975Y-97923461D01*
X132989811Y-98150189D01*
X133216539Y-98349025D01*
X133467282Y-98516566D01*
X133737748Y-98649945D01*
X133741588Y-98651248D01*
X133741594Y-98651251D01*
X133942202Y-98719348D01*
X134023309Y-98746880D01*
X134319080Y-98805713D01*
X134323121Y-98805978D01*
X134323122Y-98805978D01*
X134542672Y-98820368D01*
X134542680Y-98820368D01*
X134544690Y-98820500D01*
X134695310Y-98820500D01*
X134697320Y-98820368D01*
X134697328Y-98820368D01*
X134916878Y-98805978D01*
X134916879Y-98805978D01*
X134920920Y-98805713D01*
X135216691Y-98746880D01*
X135297798Y-98719348D01*
X135498406Y-98651251D01*
X135498412Y-98651248D01*
X135502252Y-98649945D01*
X135772718Y-98516566D01*
X136023461Y-98349025D01*
X136250189Y-98150189D01*
X136449025Y-97923461D01*
X136616566Y-97672718D01*
X136749945Y-97402252D01*
X136753449Y-97391932D01*
X136845575Y-97120535D01*
X136846880Y-97116691D01*
X136905713Y-96820920D01*
X136914726Y-96683414D01*
X136925171Y-96524043D01*
X136925436Y-96520000D01*
X136905713Y-96219080D01*
X136846880Y-95923309D01*
X136749945Y-95637748D01*
X136616566Y-95367282D01*
X136476034Y-95156961D01*
X136451285Y-95119921D01*
X136451283Y-95119919D01*
X136449025Y-95116539D01*
X136250189Y-94889811D01*
X136023461Y-94690975D01*
X135772718Y-94523434D01*
X135502252Y-94390055D01*
X135498412Y-94388752D01*
X135498406Y-94388749D01*
X135220535Y-94294425D01*
X135216691Y-94293120D01*
X134920920Y-94234287D01*
X134916879Y-94234022D01*
X134916878Y-94234022D01*
X134697328Y-94219632D01*
X134697320Y-94219632D01*
X134695310Y-94219500D01*
X134544690Y-94219500D01*
X134542680Y-94219632D01*
X134542672Y-94219632D01*
X134323122Y-94234022D01*
X134323121Y-94234022D01*
X134319080Y-94234287D01*
X134023309Y-94293120D01*
X134019465Y-94294425D01*
X133741594Y-94388749D01*
X133741588Y-94388752D01*
X133737748Y-94390055D01*
X133467282Y-94523434D01*
X133216539Y-94690975D01*
X132989811Y-94889811D01*
X132790975Y-95116539D01*
X132788717Y-95119919D01*
X132788715Y-95119921D01*
X132763966Y-95156961D01*
X132623434Y-95367282D01*
X132490055Y-95637748D01*
X132393120Y-95923309D01*
X132334287Y-96219080D01*
X132314564Y-96520000D01*
X131235500Y-96520000D01*
X131235500Y-92194611D01*
X131882394Y-92194611D01*
X131883214Y-92202039D01*
X131883214Y-92202041D01*
X131888882Y-92253380D01*
X131900999Y-92363135D01*
X131903565Y-92370147D01*
X131903566Y-92370151D01*
X131950430Y-92498212D01*
X131959266Y-92522356D01*
X131963433Y-92528558D01*
X131963435Y-92528561D01*
X131988427Y-92565753D01*
X132053830Y-92663083D01*
X132059360Y-92668115D01*
X132173702Y-92772159D01*
X132173706Y-92772162D01*
X132179233Y-92777191D01*
X132328235Y-92858092D01*
X132423585Y-92883107D01*
X132485005Y-92899220D01*
X132485007Y-92899220D01*
X132492233Y-92901116D01*
X132638232Y-92903409D01*
X132704953Y-92924144D01*
X132723965Y-92939713D01*
X133096780Y-93312528D01*
X133118295Y-93323490D01*
X133134882Y-93333655D01*
X133146522Y-93342113D01*
X133146525Y-93342115D01*
X133154419Y-93347850D01*
X133163700Y-93350866D01*
X133163701Y-93350866D01*
X133177388Y-93355313D01*
X133195359Y-93362757D01*
X133216874Y-93373719D01*
X133226511Y-93375245D01*
X133226513Y-93375246D01*
X133240726Y-93377497D01*
X133259636Y-93382037D01*
X133282607Y-93389500D01*
X133376994Y-93389500D01*
X133444033Y-93409185D01*
X133481550Y-93454873D01*
X133485117Y-93452863D01*
X133489269Y-93460232D01*
X133492380Y-93468089D01*
X133581500Y-93585500D01*
X133588231Y-93590609D01*
X133684538Y-93663710D01*
X133698911Y-93674620D01*
X133706772Y-93677733D01*
X133706775Y-93677734D01*
X133828556Y-93725950D01*
X133828558Y-93725950D01*
X133835962Y-93728882D01*
X133843866Y-93729839D01*
X133843868Y-93729839D01*
X133895185Y-93736049D01*
X133923703Y-93739500D01*
X134215421Y-93739500D01*
X134507296Y-93739499D01*
X134510998Y-93739051D01*
X134510999Y-93739051D01*
X134587133Y-93729839D01*
X134587137Y-93729838D01*
X134595038Y-93728882D01*
X134649675Y-93707250D01*
X134724225Y-93677734D01*
X134724228Y-93677733D01*
X134732089Y-93674620D01*
X134746463Y-93663710D01*
X134842769Y-93590609D01*
X134849500Y-93585500D01*
X134938620Y-93468089D01*
X134944649Y-93452863D01*
X134989950Y-93338444D01*
X134989950Y-93338442D01*
X134992882Y-93331038D01*
X135003500Y-93243297D01*
X135003499Y-92684704D01*
X134997030Y-92631240D01*
X134993839Y-92604867D01*
X134993838Y-92604863D01*
X134992882Y-92596962D01*
X134959089Y-92511610D01*
X134941734Y-92467775D01*
X134941733Y-92467772D01*
X134938620Y-92459911D01*
X134849500Y-92342500D01*
X134763401Y-92277147D01*
X134738824Y-92258492D01*
X134738823Y-92258492D01*
X134732089Y-92253380D01*
X134724228Y-92250267D01*
X134724225Y-92250266D01*
X134602444Y-92202050D01*
X134602442Y-92202050D01*
X134595038Y-92199118D01*
X134587134Y-92198161D01*
X134587132Y-92198161D01*
X134535815Y-92191951D01*
X134507297Y-92188500D01*
X134215579Y-92188500D01*
X133923704Y-92188501D01*
X133920002Y-92188949D01*
X133920001Y-92188949D01*
X133843867Y-92198161D01*
X133843863Y-92198162D01*
X133835962Y-92199118D01*
X133818416Y-92206065D01*
X133706775Y-92250266D01*
X133706772Y-92250267D01*
X133698911Y-92253380D01*
X133692177Y-92258492D01*
X133692176Y-92258492D01*
X133667599Y-92277147D01*
X133581500Y-92342500D01*
X133576391Y-92349231D01*
X133576388Y-92349234D01*
X133559023Y-92372112D01*
X133502813Y-92413611D01*
X133433089Y-92418131D01*
X133372572Y-92384824D01*
X133326218Y-92338470D01*
X133292733Y-92277147D01*
X133291136Y-92233316D01*
X133292918Y-92220796D01*
X133293490Y-92216778D01*
X133293645Y-92202000D01*
X133292066Y-92188948D01*
X133274175Y-92041105D01*
X133274174Y-92041101D01*
X133273276Y-92033680D01*
X133236051Y-91935167D01*
X133215989Y-91882073D01*
X133215987Y-91882070D01*
X133213345Y-91875077D01*
X133177143Y-91822403D01*
X133121549Y-91741513D01*
X133121546Y-91741510D01*
X133117312Y-91735349D01*
X133061297Y-91685441D01*
X132996303Y-91627533D01*
X132996301Y-91627532D01*
X132990721Y-91622560D01*
X132976347Y-91614949D01*
X132869039Y-91558133D01*
X132840881Y-91543224D01*
X132676441Y-91501919D01*
X132590248Y-91501468D01*
X132514368Y-91501070D01*
X132514367Y-91501070D01*
X132506895Y-91501031D01*
X132485235Y-91506231D01*
X132349295Y-91538868D01*
X132349293Y-91538869D01*
X132342032Y-91540612D01*
X132335399Y-91544035D01*
X132335395Y-91544037D01*
X132300570Y-91562012D01*
X132191369Y-91618375D01*
X132185737Y-91623288D01*
X132069432Y-91724747D01*
X132063604Y-91729831D01*
X131966113Y-91868547D01*
X131904524Y-92026513D01*
X131882394Y-92194611D01*
X131235500Y-92194611D01*
X131235500Y-91372607D01*
X131228036Y-91349636D01*
X131223496Y-91330721D01*
X131221246Y-91316513D01*
X131221245Y-91316511D01*
X131219719Y-91306874D01*
X131208754Y-91285353D01*
X131201311Y-91267384D01*
X131196864Y-91253698D01*
X131193849Y-91244419D01*
X131188118Y-91236531D01*
X131188116Y-91236527D01*
X131179654Y-91224881D01*
X131169491Y-91208297D01*
X131158528Y-91186780D01*
X130047220Y-90075472D01*
X130025703Y-90064509D01*
X130009119Y-90054346D01*
X129997473Y-90045884D01*
X129997469Y-90045882D01*
X129989581Y-90040151D01*
X129966616Y-90032689D01*
X129948647Y-90025246D01*
X129927126Y-90014281D01*
X129917489Y-90012755D01*
X129917487Y-90012754D01*
X129903279Y-90010504D01*
X129884364Y-90005964D01*
X129861393Y-89998500D01*
X126211610Y-89998500D01*
X126144571Y-89978815D01*
X126123929Y-89962181D01*
X125788929Y-89627181D01*
X125755444Y-89565858D01*
X125760428Y-89496166D01*
X125802300Y-89440233D01*
X125867764Y-89415816D01*
X125876610Y-89415500D01*
X127259646Y-89415500D01*
X127263300Y-89415065D01*
X127263302Y-89415065D01*
X127268266Y-89414474D01*
X127285846Y-89412382D01*
X127388153Y-89366939D01*
X127467241Y-89287713D01*
X127471871Y-89277241D01*
X127508737Y-89193853D01*
X127508738Y-89193851D01*
X127512506Y-89185327D01*
X127515500Y-89159646D01*
X127515500Y-88584308D01*
X129073001Y-88584308D01*
X129073331Y-88590687D01*
X129082970Y-88683596D01*
X129085817Y-88696779D01*
X129135816Y-88846643D01*
X129141885Y-88859599D01*
X129224800Y-88993590D01*
X129233689Y-89004805D01*
X129345207Y-89116128D01*
X129356430Y-89124991D01*
X129490568Y-89207675D01*
X129503529Y-89213719D01*
X129653499Y-89263462D01*
X129666665Y-89266284D01*
X129758346Y-89275678D01*
X129764654Y-89276000D01*
X129880170Y-89276000D01*
X129895169Y-89271596D01*
X129896356Y-89270226D01*
X129898000Y-89262668D01*
X129898000Y-89258169D01*
X130198000Y-89258169D01*
X130202404Y-89273168D01*
X130203774Y-89274355D01*
X130211332Y-89275999D01*
X130331308Y-89275999D01*
X130337687Y-89275669D01*
X130430596Y-89266030D01*
X130443779Y-89263183D01*
X130593643Y-89213184D01*
X130606599Y-89207115D01*
X130740590Y-89124200D01*
X130751805Y-89115311D01*
X130863128Y-89003793D01*
X130871991Y-88992570D01*
X130954676Y-88858430D01*
X130960719Y-88845471D01*
X131010462Y-88695501D01*
X131013284Y-88682335D01*
X131022678Y-88590654D01*
X131023000Y-88584346D01*
X131023000Y-88456330D01*
X131018596Y-88441331D01*
X131017226Y-88440144D01*
X131009668Y-88438500D01*
X130215830Y-88438500D01*
X130200831Y-88442904D01*
X130199644Y-88444274D01*
X130198000Y-88451832D01*
X130198000Y-89258169D01*
X129898000Y-89258169D01*
X129898000Y-88456330D01*
X129893596Y-88441331D01*
X129892226Y-88440144D01*
X129884668Y-88438500D01*
X129090831Y-88438500D01*
X129075832Y-88442904D01*
X129074645Y-88444274D01*
X129073001Y-88451832D01*
X129073001Y-88584308D01*
X127515500Y-88584308D01*
X127515500Y-88120670D01*
X129073000Y-88120670D01*
X129077404Y-88135669D01*
X129078774Y-88136856D01*
X129086332Y-88138500D01*
X131005169Y-88138500D01*
X131020168Y-88134096D01*
X131021355Y-88132726D01*
X131022999Y-88125168D01*
X131022999Y-87992692D01*
X131022669Y-87986313D01*
X131013030Y-87893404D01*
X131010183Y-87880221D01*
X130960184Y-87730357D01*
X130954115Y-87717401D01*
X130871200Y-87583410D01*
X130862311Y-87572195D01*
X130750793Y-87460872D01*
X130739570Y-87452009D01*
X130599303Y-87365547D01*
X130600637Y-87363382D01*
X130557148Y-87325096D01*
X130537991Y-87257904D01*
X130558202Y-87191022D01*
X130587016Y-87160110D01*
X130662767Y-87102611D01*
X130662769Y-87102609D01*
X130669500Y-87097500D01*
X130758620Y-86980089D01*
X130763661Y-86967357D01*
X130806640Y-86912270D01*
X130878955Y-86889000D01*
X131955890Y-86889000D01*
X132022929Y-86908685D01*
X132043571Y-86925319D01*
X133001471Y-87883218D01*
X133001472Y-87883220D01*
X133096780Y-87978528D01*
X133118299Y-87989492D01*
X133134880Y-87999654D01*
X133146521Y-88008111D01*
X133154419Y-88013849D01*
X133163701Y-88016865D01*
X133177384Y-88021311D01*
X133195353Y-88028754D01*
X133216874Y-88039719D01*
X133226511Y-88041245D01*
X133226513Y-88041246D01*
X133240721Y-88043496D01*
X133259636Y-88048036D01*
X133282607Y-88055500D01*
X134104820Y-88055500D01*
X134171859Y-88075185D01*
X134217430Y-88127586D01*
X134254369Y-88207714D01*
X134257649Y-88212355D01*
X134372642Y-88375066D01*
X134376405Y-88380391D01*
X134380476Y-88384357D01*
X134380477Y-88384358D01*
X134428979Y-88431606D01*
X134527865Y-88527937D01*
X134532588Y-88531093D01*
X134532592Y-88531096D01*
X134603663Y-88578584D01*
X134703677Y-88645411D01*
X134897953Y-88728878D01*
X134961283Y-88743208D01*
X135098638Y-88774289D01*
X135098642Y-88774290D01*
X135104186Y-88775544D01*
X135123328Y-88776296D01*
X135189543Y-88798596D01*
X135233190Y-88853156D01*
X135240412Y-88922651D01*
X135208914Y-88985018D01*
X135148699Y-89020457D01*
X135139460Y-89022409D01*
X134961550Y-89052979D01*
X134961547Y-89052980D01*
X134955953Y-89053941D01*
X134757575Y-89127127D01*
X134752697Y-89130029D01*
X134752695Y-89130030D01*
X134580740Y-89232332D01*
X134580737Y-89232334D01*
X134575856Y-89235238D01*
X134416881Y-89374655D01*
X134413362Y-89379119D01*
X134413359Y-89379122D01*
X134384432Y-89415816D01*
X134285976Y-89540708D01*
X134187523Y-89727836D01*
X134185837Y-89733267D01*
X134185835Y-89733271D01*
X134150030Y-89848584D01*
X134124820Y-89929773D01*
X134124152Y-89935418D01*
X134124151Y-89935422D01*
X134108295Y-90069390D01*
X134099967Y-90139754D01*
X134100338Y-90145416D01*
X134100338Y-90145420D01*
X134101949Y-90170000D01*
X134113796Y-90350749D01*
X134165845Y-90555690D01*
X134168219Y-90560841D01*
X134168221Y-90560845D01*
X134229489Y-90693745D01*
X134254369Y-90747714D01*
X134277688Y-90780710D01*
X134365583Y-90905078D01*
X134376405Y-90920391D01*
X134380476Y-90924357D01*
X134380477Y-90924358D01*
X134392664Y-90936230D01*
X134527865Y-91067937D01*
X134532588Y-91071093D01*
X134532592Y-91071096D01*
X134603663Y-91118584D01*
X134703677Y-91185411D01*
X134708906Y-91187657D01*
X134708905Y-91187657D01*
X134754448Y-91207224D01*
X134808273Y-91251773D01*
X134829500Y-91321154D01*
X134829500Y-91380393D01*
X134836964Y-91403364D01*
X134841504Y-91422279D01*
X134845281Y-91446126D01*
X134856246Y-91467647D01*
X134863689Y-91485616D01*
X134871151Y-91508581D01*
X134876882Y-91516469D01*
X134876884Y-91516473D01*
X134885346Y-91528119D01*
X134895509Y-91544703D01*
X134906472Y-91566220D01*
X135463036Y-92122784D01*
X135496521Y-92184107D01*
X135491537Y-92253799D01*
X135450325Y-92309235D01*
X135406500Y-92342500D01*
X135317380Y-92459911D01*
X135314267Y-92467772D01*
X135314266Y-92467775D01*
X135290084Y-92528853D01*
X135263118Y-92596962D01*
X135262161Y-92604866D01*
X135262161Y-92604868D01*
X135260002Y-92622713D01*
X135252500Y-92684703D01*
X135252501Y-93243296D01*
X135252949Y-93246998D01*
X135252949Y-93246999D01*
X135257876Y-93287714D01*
X135263118Y-93331038D01*
X135272729Y-93355313D01*
X135311352Y-93452863D01*
X135317380Y-93468089D01*
X135406500Y-93585500D01*
X135413231Y-93590609D01*
X135509538Y-93663710D01*
X135523911Y-93674620D01*
X135531772Y-93677733D01*
X135531775Y-93677734D01*
X135653556Y-93725950D01*
X135653558Y-93725950D01*
X135660962Y-93728882D01*
X135668866Y-93729839D01*
X135668868Y-93729839D01*
X135720185Y-93736049D01*
X135748703Y-93739500D01*
X136040421Y-93739500D01*
X136332296Y-93739499D01*
X136335998Y-93739051D01*
X136335999Y-93739051D01*
X136412133Y-93729839D01*
X136412137Y-93729838D01*
X136420038Y-93728882D01*
X136474675Y-93707250D01*
X136549225Y-93677734D01*
X136549228Y-93677733D01*
X136557089Y-93674620D01*
X136571463Y-93663710D01*
X136667769Y-93590609D01*
X136674500Y-93585500D01*
X136763620Y-93468089D01*
X136769649Y-93452863D01*
X136814950Y-93338444D01*
X136814950Y-93338442D01*
X136817882Y-93331038D01*
X136828500Y-93243297D01*
X136828499Y-92684704D01*
X136822030Y-92631240D01*
X136818839Y-92604867D01*
X136818838Y-92604863D01*
X136817882Y-92596962D01*
X136784089Y-92511610D01*
X136766734Y-92467775D01*
X136766733Y-92467772D01*
X136763620Y-92459911D01*
X136674500Y-92342500D01*
X136557089Y-92253380D01*
X136549233Y-92250270D01*
X136549230Y-92250268D01*
X136544357Y-92248339D01*
X136489270Y-92205360D01*
X136466000Y-92133045D01*
X136466000Y-92031107D01*
X136458537Y-92008136D01*
X136453997Y-91989226D01*
X136451746Y-91975013D01*
X136451745Y-91975011D01*
X136450219Y-91965374D01*
X136439257Y-91943859D01*
X136431813Y-91925888D01*
X136431525Y-91925000D01*
X136424350Y-91902919D01*
X136418615Y-91895025D01*
X136418613Y-91895022D01*
X136410155Y-91883382D01*
X136399990Y-91866795D01*
X136389028Y-91845280D01*
X135869201Y-91325453D01*
X135835716Y-91264130D01*
X135840700Y-91194438D01*
X135882572Y-91138505D01*
X135896288Y-91129586D01*
X135909442Y-91122219D01*
X135926241Y-91108248D01*
X136067645Y-90990644D01*
X136072012Y-90987012D01*
X136122263Y-90926591D01*
X136203584Y-90828813D01*
X136203585Y-90828811D01*
X136207219Y-90824442D01*
X136271098Y-90710379D01*
X136307756Y-90644922D01*
X136307759Y-90644916D01*
X136310537Y-90639955D01*
X136341009Y-90550189D01*
X136376675Y-90445118D01*
X136378504Y-90439730D01*
X136408846Y-90230470D01*
X136410429Y-90170000D01*
X136391081Y-89959440D01*
X136333686Y-89755931D01*
X136240165Y-89566290D01*
X136113651Y-89396867D01*
X136109481Y-89393012D01*
X136109478Y-89393009D01*
X135998957Y-89290845D01*
X135958381Y-89253337D01*
X135925090Y-89232332D01*
X135784363Y-89143539D01*
X135784361Y-89143538D01*
X135779554Y-89140505D01*
X135583160Y-89062152D01*
X135577579Y-89061042D01*
X135577576Y-89061041D01*
X135381355Y-89022011D01*
X135381356Y-89022011D01*
X135375775Y-89020901D01*
X135375744Y-89020901D01*
X135312828Y-88995019D01*
X135272841Y-88937723D01*
X135270178Y-88867904D01*
X135305684Y-88807729D01*
X135372606Y-88775562D01*
X135519103Y-88754320D01*
X135519104Y-88754320D01*
X135524730Y-88753504D01*
X135603890Y-88726633D01*
X135719565Y-88687367D01*
X135719568Y-88687366D01*
X135724955Y-88685537D01*
X135729916Y-88682759D01*
X135729922Y-88682756D01*
X135895530Y-88590010D01*
X135909442Y-88582219D01*
X135951740Y-88547041D01*
X136067645Y-88450644D01*
X136072012Y-88447012D01*
X136108901Y-88402658D01*
X136203584Y-88288813D01*
X136203585Y-88288811D01*
X136207219Y-88284442D01*
X136263705Y-88183579D01*
X136307756Y-88104922D01*
X136307759Y-88104916D01*
X136310537Y-88099955D01*
X136318946Y-88075185D01*
X136376675Y-87905118D01*
X136378504Y-87899730D01*
X136381005Y-87882485D01*
X136395293Y-87783941D01*
X136408846Y-87690470D01*
X136410429Y-87630000D01*
X136391081Y-87419440D01*
X136333686Y-87215931D01*
X136240165Y-87026290D01*
X136113651Y-86856867D01*
X136109481Y-86853012D01*
X136109478Y-86853009D01*
X135999737Y-86751566D01*
X135958381Y-86713337D01*
X135909739Y-86682646D01*
X135784363Y-86603539D01*
X135784361Y-86603538D01*
X135779554Y-86600505D01*
X135583160Y-86522152D01*
X135577579Y-86521042D01*
X135577576Y-86521041D01*
X135401998Y-86486117D01*
X135340087Y-86453732D01*
X135305513Y-86393017D01*
X135309252Y-86323247D01*
X135350118Y-86266575D01*
X135415136Y-86240994D01*
X135426189Y-86240500D01*
X136149646Y-86240500D01*
X136153300Y-86240065D01*
X136153302Y-86240065D01*
X136158266Y-86239474D01*
X136175846Y-86237382D01*
X136278153Y-86191939D01*
X136357241Y-86112713D01*
X136368038Y-86088291D01*
X136398737Y-86018853D01*
X136398738Y-86018851D01*
X136402506Y-86010327D01*
X136405500Y-85984646D01*
X136405500Y-84195354D01*
X136402382Y-84169154D01*
X136356939Y-84066847D01*
X136277713Y-83987759D01*
X136267242Y-83983130D01*
X136267241Y-83983129D01*
X136183853Y-83946263D01*
X136183851Y-83946262D01*
X136175327Y-83942494D01*
X136149646Y-83939500D01*
X136149826Y-83937960D01*
X136089910Y-83916550D01*
X136047270Y-83861200D01*
X136041324Y-83791584D01*
X136075162Y-83728586D01*
X136389028Y-83414720D01*
X136399990Y-83393205D01*
X136410155Y-83376618D01*
X136411401Y-83374904D01*
X136415299Y-83369539D01*
X136418613Y-83364978D01*
X136418615Y-83364975D01*
X136424350Y-83357081D01*
X136431813Y-83334111D01*
X136439258Y-83316138D01*
X136441015Y-83312691D01*
X136450219Y-83294626D01*
X136453997Y-83270774D01*
X136458538Y-83251858D01*
X136461294Y-83243376D01*
X136466000Y-83228893D01*
X136466000Y-83126955D01*
X136485685Y-83059916D01*
X136544357Y-83011661D01*
X136549230Y-83009732D01*
X136549233Y-83009730D01*
X136557089Y-83006620D01*
X136674500Y-82917500D01*
X136763620Y-82800089D01*
X136780574Y-82757270D01*
X136814950Y-82670444D01*
X136814950Y-82670442D01*
X136817882Y-82663038D01*
X136822222Y-82627179D01*
X136825778Y-82597789D01*
X136828500Y-82575297D01*
X136828499Y-82016704D01*
X136824194Y-81981128D01*
X136818839Y-81936867D01*
X136818838Y-81936863D01*
X136817882Y-81928962D01*
X136776957Y-81825596D01*
X136766734Y-81799775D01*
X136766733Y-81799772D01*
X136763620Y-81791911D01*
X136753463Y-81778529D01*
X136690163Y-81695135D01*
X136674500Y-81674500D01*
X136608439Y-81624357D01*
X136563824Y-81590492D01*
X136563823Y-81590492D01*
X136557089Y-81585380D01*
X136549228Y-81582267D01*
X136549225Y-81582266D01*
X136427444Y-81534050D01*
X136427442Y-81534050D01*
X136420038Y-81531118D01*
X136412134Y-81530161D01*
X136412132Y-81530161D01*
X136356839Y-81523470D01*
X136332297Y-81520500D01*
X136040579Y-81520500D01*
X135748704Y-81520501D01*
X135745002Y-81520949D01*
X135745001Y-81520949D01*
X135668867Y-81530161D01*
X135668863Y-81530162D01*
X135660962Y-81531118D01*
X135619547Y-81547515D01*
X135531775Y-81582266D01*
X135531772Y-81582267D01*
X135523911Y-81585380D01*
X135517177Y-81590492D01*
X135517176Y-81590492D01*
X135472561Y-81624357D01*
X135406500Y-81674500D01*
X135390837Y-81695135D01*
X135327538Y-81778529D01*
X135317380Y-81791911D01*
X135314267Y-81799772D01*
X135314266Y-81799775D01*
X135278967Y-81888932D01*
X135263118Y-81928962D01*
X135262161Y-81936866D01*
X135262161Y-81936868D01*
X135257236Y-81977564D01*
X135252500Y-82016703D01*
X135252501Y-82575296D01*
X135252949Y-82578998D01*
X135252949Y-82578999D01*
X135262098Y-82654608D01*
X135263118Y-82663038D01*
X135266050Y-82670443D01*
X135295966Y-82746002D01*
X135317380Y-82800089D01*
X135406500Y-82917500D01*
X135427591Y-82933509D01*
X135450325Y-82950765D01*
X135491823Y-83006977D01*
X135496343Y-83076700D01*
X135463036Y-83137216D01*
X134906472Y-83693780D01*
X134895509Y-83715297D01*
X134885346Y-83731881D01*
X134876884Y-83743527D01*
X134876882Y-83743531D01*
X134871151Y-83751419D01*
X134868136Y-83760698D01*
X134863689Y-83774384D01*
X134856246Y-83792353D01*
X134845281Y-83813874D01*
X134843342Y-83826119D01*
X134841951Y-83834899D01*
X134812021Y-83898033D01*
X134752710Y-83934964D01*
X134719478Y-83939500D01*
X134360354Y-83939500D01*
X134356700Y-83939935D01*
X134356698Y-83939935D01*
X134351734Y-83940526D01*
X134334154Y-83942618D01*
X134231847Y-83988061D01*
X134152759Y-84067287D01*
X134148130Y-84077758D01*
X134148129Y-84077759D01*
X134113876Y-84155238D01*
X134107494Y-84169673D01*
X134104500Y-84195354D01*
X134104500Y-84540500D01*
X134084815Y-84607539D01*
X134032011Y-84653294D01*
X133980500Y-84664500D01*
X133069610Y-84664500D01*
X133002571Y-84644815D01*
X132981929Y-84628181D01*
X131898573Y-83544825D01*
X131865088Y-83483502D01*
X131870072Y-83413810D01*
X131898497Y-83369539D01*
X131937151Y-83330818D01*
X131937153Y-83330815D01*
X131945241Y-83322713D01*
X131953815Y-83303320D01*
X131986737Y-83228853D01*
X131986738Y-83228851D01*
X131990506Y-83220327D01*
X131993500Y-83194646D01*
X131993500Y-81934165D01*
X132013185Y-81867126D01*
X132065989Y-81821371D01*
X132135147Y-81811427D01*
X132198703Y-81840452D01*
X132220421Y-81865004D01*
X132307830Y-81995083D01*
X132313360Y-82000115D01*
X132427702Y-82104159D01*
X132427706Y-82104162D01*
X132433233Y-82109191D01*
X132582235Y-82190092D01*
X132677585Y-82215107D01*
X132739005Y-82231220D01*
X132739007Y-82231220D01*
X132746233Y-82233116D01*
X132892232Y-82235409D01*
X132958953Y-82256144D01*
X132977965Y-82271713D01*
X133350780Y-82644528D01*
X133372295Y-82655490D01*
X133388880Y-82665654D01*
X133408419Y-82679850D01*
X133413254Y-82681421D01*
X133462161Y-82727613D01*
X133470361Y-82744475D01*
X133492380Y-82800089D01*
X133581500Y-82917500D01*
X133698911Y-83006620D01*
X133706771Y-83009732D01*
X133706775Y-83009734D01*
X133828556Y-83057950D01*
X133828558Y-83057950D01*
X133835962Y-83060882D01*
X133843866Y-83061839D01*
X133843868Y-83061839D01*
X133895185Y-83068049D01*
X133923703Y-83071500D01*
X134215421Y-83071500D01*
X134507296Y-83071499D01*
X134510998Y-83071051D01*
X134510999Y-83071051D01*
X134587133Y-83061839D01*
X134587137Y-83061838D01*
X134595038Y-83060882D01*
X134660409Y-83035000D01*
X134724225Y-83009734D01*
X134724229Y-83009732D01*
X134732089Y-83006620D01*
X134849500Y-82917500D01*
X134938620Y-82800089D01*
X134955574Y-82757270D01*
X134989950Y-82670444D01*
X134989950Y-82670442D01*
X134992882Y-82663038D01*
X134997222Y-82627179D01*
X135000778Y-82597789D01*
X135003500Y-82575297D01*
X135003499Y-82016704D01*
X134999194Y-81981128D01*
X134993839Y-81936867D01*
X134993838Y-81936863D01*
X134992882Y-81928962D01*
X134951957Y-81825596D01*
X134941734Y-81799775D01*
X134941733Y-81799772D01*
X134938620Y-81791911D01*
X134928463Y-81778529D01*
X134865163Y-81695135D01*
X134849500Y-81674500D01*
X134783439Y-81624357D01*
X134738824Y-81590492D01*
X134738823Y-81590492D01*
X134732089Y-81585380D01*
X134724228Y-81582267D01*
X134724225Y-81582266D01*
X134602444Y-81534050D01*
X134602442Y-81534050D01*
X134595038Y-81531118D01*
X134587134Y-81530161D01*
X134587132Y-81530161D01*
X134531839Y-81523470D01*
X134507297Y-81520500D01*
X134215579Y-81520500D01*
X133923704Y-81520501D01*
X133920002Y-81520949D01*
X133920001Y-81520949D01*
X133843867Y-81530161D01*
X133843863Y-81530162D01*
X133835962Y-81531118D01*
X133709933Y-81581016D01*
X133640356Y-81587393D01*
X133578376Y-81555141D01*
X133543672Y-81494499D01*
X133541185Y-81480621D01*
X133540444Y-81474492D01*
X133535092Y-81430265D01*
X133528175Y-81373105D01*
X133528174Y-81373101D01*
X133527276Y-81365680D01*
X133504363Y-81305043D01*
X133469989Y-81214073D01*
X133469987Y-81214070D01*
X133467345Y-81207077D01*
X133458657Y-81194436D01*
X133375549Y-81073513D01*
X133375546Y-81073510D01*
X133371312Y-81067349D01*
X133290821Y-80995634D01*
X133250303Y-80959533D01*
X133250301Y-80959532D01*
X133244721Y-80954560D01*
X133230347Y-80946949D01*
X133124344Y-80890824D01*
X133094881Y-80875224D01*
X132930441Y-80833919D01*
X132844248Y-80833468D01*
X132768368Y-80833070D01*
X132768367Y-80833070D01*
X132760895Y-80833031D01*
X132739235Y-80838231D01*
X132603295Y-80870868D01*
X132603293Y-80870869D01*
X132596032Y-80872612D01*
X132589399Y-80876035D01*
X132589395Y-80876037D01*
X132547938Y-80897435D01*
X132445369Y-80950375D01*
X132439737Y-80955288D01*
X132330151Y-81050886D01*
X132317604Y-81061831D01*
X132220113Y-81200547D01*
X132158524Y-81358513D01*
X132136394Y-81526611D01*
X132137214Y-81534039D01*
X132137214Y-81534041D01*
X132152462Y-81672155D01*
X132140253Y-81740950D01*
X132092789Y-81792223D01*
X132025139Y-81809695D01*
X131958782Y-81787820D01*
X131941606Y-81773520D01*
X131941284Y-81773198D01*
X131865713Y-81697759D01*
X131855242Y-81693130D01*
X131855241Y-81693129D01*
X131771853Y-81656263D01*
X131771851Y-81656262D01*
X131763327Y-81652494D01*
X131737646Y-81649500D01*
X130898354Y-81649500D01*
X130894700Y-81649935D01*
X130894698Y-81649935D01*
X130889734Y-81650526D01*
X130872154Y-81652618D01*
X130769847Y-81698061D01*
X130690759Y-81777287D01*
X130686130Y-81787758D01*
X130686129Y-81787759D01*
X130651979Y-81865005D01*
X130645494Y-81879673D01*
X130642500Y-81905354D01*
X130642500Y-83194646D01*
X130645618Y-83220846D01*
X130691061Y-83323153D01*
X130770287Y-83402241D01*
X130780756Y-83406870D01*
X130780760Y-83406872D01*
X130818638Y-83423617D01*
X130871994Y-83468727D01*
X130892500Y-83537028D01*
X130892500Y-83633393D01*
X130899964Y-83656364D01*
X130904504Y-83675279D01*
X130906342Y-83686881D01*
X130908281Y-83699126D01*
X130919246Y-83720647D01*
X130926689Y-83738616D01*
X130934151Y-83761581D01*
X130939882Y-83769469D01*
X130939884Y-83769473D01*
X130948346Y-83781119D01*
X130958509Y-83797703D01*
X130969472Y-83819220D01*
X132588780Y-85438528D01*
X132610297Y-85449491D01*
X132626881Y-85459654D01*
X132638527Y-85468116D01*
X132638531Y-85468118D01*
X132646419Y-85473849D01*
X132655698Y-85476864D01*
X132669384Y-85481311D01*
X132687353Y-85488754D01*
X132708874Y-85499719D01*
X132718511Y-85501245D01*
X132718513Y-85501246D01*
X132732721Y-85503496D01*
X132751636Y-85508036D01*
X132774607Y-85515500D01*
X133980500Y-85515500D01*
X134047539Y-85535185D01*
X134093294Y-85587989D01*
X134104500Y-85639500D01*
X134104500Y-85984646D01*
X134107618Y-86010846D01*
X134153061Y-86113153D01*
X134232287Y-86192241D01*
X134242758Y-86196870D01*
X134242759Y-86196871D01*
X134326147Y-86233737D01*
X134326149Y-86233738D01*
X134334673Y-86237506D01*
X134360354Y-86240500D01*
X135093437Y-86240500D01*
X135160476Y-86260185D01*
X135206231Y-86312989D01*
X135216175Y-86382147D01*
X135187150Y-86445703D01*
X135128372Y-86483477D01*
X135114436Y-86486709D01*
X134961550Y-86512979D01*
X134961547Y-86512980D01*
X134955953Y-86513941D01*
X134757575Y-86587127D01*
X134752697Y-86590029D01*
X134752695Y-86590030D01*
X134580740Y-86692332D01*
X134580737Y-86692334D01*
X134575856Y-86695238D01*
X134416881Y-86834655D01*
X134413362Y-86839119D01*
X134413359Y-86839122D01*
X134395782Y-86861419D01*
X134285976Y-87000708D01*
X134225045Y-87116519D01*
X134213619Y-87138236D01*
X134164984Y-87188400D01*
X134103881Y-87204500D01*
X133577609Y-87204500D01*
X133510570Y-87184815D01*
X133489928Y-87168181D01*
X132990783Y-86669035D01*
X132436720Y-86114972D01*
X132415203Y-86104009D01*
X132398619Y-86093846D01*
X132386973Y-86085384D01*
X132386969Y-86085382D01*
X132379081Y-86079651D01*
X132356116Y-86072189D01*
X132338147Y-86064746D01*
X132316626Y-86053781D01*
X132306989Y-86052255D01*
X132306987Y-86052254D01*
X132292779Y-86050004D01*
X132273864Y-86045464D01*
X132250893Y-86038000D01*
X130878955Y-86038000D01*
X130811916Y-86018315D01*
X130763661Y-85959643D01*
X130761732Y-85954770D01*
X130761730Y-85954767D01*
X130758620Y-85946911D01*
X130669500Y-85829500D01*
X130552089Y-85740380D01*
X130544228Y-85737267D01*
X130544225Y-85737266D01*
X130422444Y-85689050D01*
X130422442Y-85689050D01*
X130415038Y-85686118D01*
X130407134Y-85685161D01*
X130407132Y-85685161D01*
X130336750Y-85676644D01*
X130327297Y-85675500D01*
X130048075Y-85675500D01*
X129768704Y-85675501D01*
X129765002Y-85675949D01*
X129765001Y-85675949D01*
X129688867Y-85685161D01*
X129688863Y-85685162D01*
X129680962Y-85686118D01*
X129644862Y-85700411D01*
X129551775Y-85737266D01*
X129551772Y-85737267D01*
X129543911Y-85740380D01*
X129426500Y-85829500D01*
X129337380Y-85946911D01*
X129334267Y-85954772D01*
X129334266Y-85954775D01*
X129293314Y-86058210D01*
X129283118Y-86083962D01*
X129282161Y-86091866D01*
X129282161Y-86091868D01*
X129279901Y-86110544D01*
X129272500Y-86171703D01*
X129272501Y-86755296D01*
X129272949Y-86758998D01*
X129272949Y-86758999D01*
X129282104Y-86834655D01*
X129283118Y-86843038D01*
X129337380Y-86980089D01*
X129342490Y-86986821D01*
X129342492Y-86986824D01*
X129376322Y-87031393D01*
X129426500Y-87097500D01*
X129509002Y-87160123D01*
X129550499Y-87216332D01*
X129555019Y-87286055D01*
X129521126Y-87347154D01*
X129495044Y-87365323D01*
X129495523Y-87366096D01*
X129355410Y-87452800D01*
X129344195Y-87461689D01*
X129232872Y-87573207D01*
X129224009Y-87584430D01*
X129141325Y-87718568D01*
X129135281Y-87731529D01*
X129085538Y-87881499D01*
X129082716Y-87894665D01*
X129073322Y-87986346D01*
X129073000Y-87992654D01*
X129073000Y-88120670D01*
X127515500Y-88120670D01*
X127515500Y-87370354D01*
X127512382Y-87344154D01*
X127466939Y-87241847D01*
X127387713Y-87162759D01*
X127377242Y-87158130D01*
X127377241Y-87158129D01*
X127293853Y-87121263D01*
X127293851Y-87121262D01*
X127285327Y-87117494D01*
X127259646Y-87114500D01*
X125470354Y-87114500D01*
X125466700Y-87114935D01*
X125466698Y-87114935D01*
X125461734Y-87115526D01*
X125444154Y-87117618D01*
X125341847Y-87163061D01*
X125262759Y-87242287D01*
X125258130Y-87252758D01*
X125258129Y-87252759D01*
X125225859Y-87325753D01*
X125217494Y-87344673D01*
X125214500Y-87370354D01*
X125214500Y-88753390D01*
X125194815Y-88820429D01*
X125142011Y-88866184D01*
X125072853Y-88876128D01*
X125009297Y-88847103D01*
X125002819Y-88841071D01*
X123397819Y-87236071D01*
X123364334Y-87174748D01*
X123361500Y-87148390D01*
X123361500Y-86672889D01*
X123354036Y-86649918D01*
X123349496Y-86631003D01*
X123347246Y-86616795D01*
X123347245Y-86616793D01*
X123345719Y-86607156D01*
X123334754Y-86585635D01*
X123327311Y-86567666D01*
X123322865Y-86553983D01*
X123319849Y-86544701D01*
X123314111Y-86536803D01*
X123305654Y-86525162D01*
X123295492Y-86508581D01*
X123284528Y-86487062D01*
X123249647Y-86452181D01*
X123216162Y-86390858D01*
X123221146Y-86321166D01*
X123263018Y-86265233D01*
X123328482Y-86240816D01*
X123337328Y-86240500D01*
X124719646Y-86240500D01*
X124723300Y-86240065D01*
X124723302Y-86240065D01*
X124728266Y-86239474D01*
X124745846Y-86237382D01*
X124848153Y-86191939D01*
X124927241Y-86112713D01*
X124938038Y-86088291D01*
X124968737Y-86018853D01*
X124968738Y-86018851D01*
X124972506Y-86010327D01*
X124975500Y-85984646D01*
X124975500Y-85270300D01*
X124995185Y-85203261D01*
X125047989Y-85157506D01*
X125117147Y-85147562D01*
X125180703Y-85176587D01*
X125218477Y-85235365D01*
X125223234Y-85262190D01*
X125223423Y-85265072D01*
X125223425Y-85265082D01*
X125223796Y-85270749D01*
X125275845Y-85475690D01*
X125278219Y-85480841D01*
X125278221Y-85480845D01*
X125327615Y-85587989D01*
X125364369Y-85667714D01*
X125369518Y-85675000D01*
X125453502Y-85793834D01*
X125486405Y-85840391D01*
X125637865Y-85987937D01*
X125642588Y-85991093D01*
X125642592Y-85991096D01*
X125712789Y-86038000D01*
X125813677Y-86105411D01*
X126007953Y-86188878D01*
X126042380Y-86196668D01*
X126208638Y-86234289D01*
X126208642Y-86234290D01*
X126214186Y-86235544D01*
X126340315Y-86240500D01*
X126419789Y-86243623D01*
X126419791Y-86243623D01*
X126425470Y-86243846D01*
X126431090Y-86243031D01*
X126431092Y-86243031D01*
X126629103Y-86214320D01*
X126629104Y-86214320D01*
X126634730Y-86213504D01*
X126662062Y-86204226D01*
X126829565Y-86147367D01*
X126829568Y-86147366D01*
X126834955Y-86145537D01*
X126839916Y-86142759D01*
X126839922Y-86142756D01*
X126951395Y-86080327D01*
X127019442Y-86042219D01*
X127057165Y-86010846D01*
X127177645Y-85910644D01*
X127182012Y-85907012D01*
X127204491Y-85879984D01*
X127313584Y-85748813D01*
X127313585Y-85748811D01*
X127317219Y-85744442D01*
X127375990Y-85639500D01*
X127417756Y-85564922D01*
X127417759Y-85564916D01*
X127420537Y-85559955D01*
X127425656Y-85544877D01*
X127486675Y-85365118D01*
X127488504Y-85359730D01*
X127518846Y-85150470D01*
X127520429Y-85090000D01*
X127501081Y-84879440D01*
X127443686Y-84675931D01*
X127350165Y-84486290D01*
X127223651Y-84316867D01*
X127219481Y-84313012D01*
X127219478Y-84313009D01*
X127147718Y-84246675D01*
X127068381Y-84173337D01*
X127062574Y-84169673D01*
X126894363Y-84063539D01*
X126894361Y-84063538D01*
X126889554Y-84060505D01*
X126693160Y-83982152D01*
X126687579Y-83981042D01*
X126687576Y-83981041D01*
X126581436Y-83959929D01*
X126485775Y-83940901D01*
X126480088Y-83940827D01*
X126480083Y-83940826D01*
X126280034Y-83938207D01*
X126280029Y-83938207D01*
X126274346Y-83938133D01*
X126268742Y-83939096D01*
X126268741Y-83939096D01*
X126071550Y-83972979D01*
X126071547Y-83972980D01*
X126065953Y-83973941D01*
X125867575Y-84047127D01*
X125862697Y-84050029D01*
X125862695Y-84050030D01*
X125690740Y-84152332D01*
X125690737Y-84152334D01*
X125685856Y-84155238D01*
X125526881Y-84294655D01*
X125523362Y-84299119D01*
X125523359Y-84299122D01*
X125474162Y-84361529D01*
X125395976Y-84460708D01*
X125297523Y-84647836D01*
X125295837Y-84653267D01*
X125295835Y-84653271D01*
X125251759Y-84795219D01*
X125234820Y-84849773D01*
X125234152Y-84855418D01*
X125234151Y-84855422D01*
X125222640Y-84952681D01*
X125195213Y-85016942D01*
X125137397Y-85056173D01*
X125067549Y-85057919D01*
X125007845Y-85021625D01*
X124977241Y-84958814D01*
X124975500Y-84938106D01*
X124975500Y-84195354D01*
X124972382Y-84169154D01*
X124926939Y-84066847D01*
X124847713Y-83987759D01*
X124837242Y-83983130D01*
X124837241Y-83983129D01*
X124753853Y-83946263D01*
X124753851Y-83946262D01*
X124745327Y-83942494D01*
X124719646Y-83939500D01*
X122930354Y-83939500D01*
X122926700Y-83939935D01*
X122926698Y-83939935D01*
X122921734Y-83940526D01*
X122904154Y-83942618D01*
X122801847Y-83988061D01*
X122722759Y-84067287D01*
X122718130Y-84077758D01*
X122718129Y-84077759D01*
X122683876Y-84155238D01*
X122677494Y-84169673D01*
X122674500Y-84195354D01*
X122674500Y-85577673D01*
X122654815Y-85644712D01*
X122602011Y-85690467D01*
X122532853Y-85700411D01*
X122469297Y-85671386D01*
X122462819Y-85665354D01*
X121257478Y-84460013D01*
X121223993Y-84398690D01*
X121228977Y-84328998D01*
X121270849Y-84273065D01*
X121317473Y-84251463D01*
X121392730Y-84234227D01*
X121477111Y-84191788D01*
X121537521Y-84161405D01*
X121537523Y-84161404D01*
X121544199Y-84158046D01*
X121549881Y-84153193D01*
X121549884Y-84153191D01*
X121667442Y-84052786D01*
X121673124Y-84047933D01*
X121772062Y-83910246D01*
X121835302Y-83752933D01*
X121839898Y-83720639D01*
X121858619Y-83589099D01*
X121858619Y-83589093D01*
X121859191Y-83585077D01*
X121859346Y-83570299D01*
X121851524Y-83505662D01*
X121839876Y-83409404D01*
X121839875Y-83409400D01*
X121838977Y-83401979D01*
X121823765Y-83361721D01*
X121781690Y-83250372D01*
X121781688Y-83250369D01*
X121779046Y-83243376D01*
X121774809Y-83237211D01*
X121687250Y-83109812D01*
X121687247Y-83109809D01*
X121683013Y-83103648D01*
X121605965Y-83035000D01*
X121562004Y-82995832D01*
X121562002Y-82995831D01*
X121556422Y-82990859D01*
X121548443Y-82986634D01*
X121434923Y-82926529D01*
X121406582Y-82911523D01*
X121242142Y-82870218D01*
X121105366Y-82869502D01*
X121038431Y-82849467D01*
X121018335Y-82833185D01*
X120476819Y-82291669D01*
X120443334Y-82230346D01*
X120440500Y-82203988D01*
X120440500Y-80838748D01*
X120460185Y-80771709D01*
X120512989Y-80725954D01*
X120582147Y-80716010D01*
X120647954Y-80747034D01*
X120656925Y-80755197D01*
X120691954Y-80787071D01*
X120728290Y-80846749D01*
X120732500Y-80878785D01*
X120732500Y-81601393D01*
X120739964Y-81624364D01*
X120744504Y-81643279D01*
X120745964Y-81652494D01*
X120748281Y-81667126D01*
X120759246Y-81688647D01*
X120766689Y-81706616D01*
X120774151Y-81729581D01*
X120779882Y-81737469D01*
X120779884Y-81737473D01*
X120788346Y-81749119D01*
X120798509Y-81765703D01*
X120809472Y-81787220D01*
X121563280Y-82541028D01*
X121584795Y-82551990D01*
X121601380Y-82562154D01*
X121604059Y-82564100D01*
X121613022Y-82570613D01*
X121613025Y-82570615D01*
X121620919Y-82576350D01*
X121630200Y-82579366D01*
X121630201Y-82579366D01*
X121643888Y-82583813D01*
X121661859Y-82591257D01*
X121683374Y-82602219D01*
X121693011Y-82603745D01*
X121693013Y-82603746D01*
X121707226Y-82605997D01*
X121726136Y-82610537D01*
X121749106Y-82618000D01*
X121748889Y-82618668D01*
X121804902Y-82645223D01*
X121837661Y-82692119D01*
X121844380Y-82709089D01*
X121933500Y-82826500D01*
X122050911Y-82915620D01*
X122058772Y-82918733D01*
X122058775Y-82918734D01*
X122180556Y-82966950D01*
X122180558Y-82966950D01*
X122187962Y-82969882D01*
X122195866Y-82970839D01*
X122195868Y-82970839D01*
X122247185Y-82977049D01*
X122275703Y-82980500D01*
X122554925Y-82980500D01*
X122834296Y-82980499D01*
X122837998Y-82980051D01*
X122837999Y-82980051D01*
X122914133Y-82970839D01*
X122914137Y-82970838D01*
X122922038Y-82969882D01*
X122991521Y-82942372D01*
X123051225Y-82918734D01*
X123051228Y-82918733D01*
X123059089Y-82915620D01*
X123176500Y-82826500D01*
X123215837Y-82774675D01*
X123260508Y-82715824D01*
X123260510Y-82715821D01*
X123265620Y-82709089D01*
X123277197Y-82679850D01*
X123316950Y-82579444D01*
X123316950Y-82579442D01*
X123319882Y-82572038D01*
X123330500Y-82484297D01*
X123330499Y-81900704D01*
X123327954Y-81879673D01*
X123320839Y-81820867D01*
X123320838Y-81820863D01*
X123319882Y-81812962D01*
X123291371Y-81740950D01*
X123268734Y-81683775D01*
X123268733Y-81683772D01*
X123265620Y-81675911D01*
X123251636Y-81657487D01*
X123206733Y-81598330D01*
X123176500Y-81558500D01*
X123092182Y-81494499D01*
X123065824Y-81474492D01*
X123065823Y-81474492D01*
X123059089Y-81469380D01*
X123051228Y-81466267D01*
X123051225Y-81466266D01*
X122929444Y-81418050D01*
X122929442Y-81418050D01*
X122922038Y-81415118D01*
X122914134Y-81414161D01*
X122914132Y-81414161D01*
X122845791Y-81405891D01*
X122834297Y-81404500D01*
X122555075Y-81404500D01*
X122275704Y-81404501D01*
X122272002Y-81404949D01*
X122272001Y-81404949D01*
X122195867Y-81414161D01*
X122195863Y-81414162D01*
X122187962Y-81415118D01*
X122180556Y-81418050D01*
X122180557Y-81418050D01*
X122058775Y-81466266D01*
X122058772Y-81466267D01*
X122050911Y-81469380D01*
X122044177Y-81474492D01*
X122044176Y-81474492D01*
X121934813Y-81557503D01*
X121869513Y-81582355D01*
X121801143Y-81567959D01*
X121772162Y-81546414D01*
X121619819Y-81394071D01*
X121586334Y-81332748D01*
X121583500Y-81306390D01*
X121583500Y-80879017D01*
X121603185Y-80811978D01*
X121626954Y-80784739D01*
X121628080Y-80783777D01*
X121691836Y-80755197D01*
X121760924Y-80765623D01*
X121813407Y-80811746D01*
X121823917Y-80832405D01*
X121844380Y-80884089D01*
X121849490Y-80890821D01*
X121849492Y-80890824D01*
X121864097Y-80910065D01*
X121933500Y-81001500D01*
X121940231Y-81006609D01*
X122026092Y-81071781D01*
X122050911Y-81090620D01*
X122058772Y-81093733D01*
X122058775Y-81093734D01*
X122180556Y-81141950D01*
X122180558Y-81141950D01*
X122187962Y-81144882D01*
X122195866Y-81145839D01*
X122195868Y-81145839D01*
X122247185Y-81152049D01*
X122275703Y-81155500D01*
X122554925Y-81155500D01*
X122834296Y-81155499D01*
X122837998Y-81155051D01*
X122837999Y-81155051D01*
X122914133Y-81145839D01*
X122914137Y-81145838D01*
X122922038Y-81144882D01*
X122966185Y-81127403D01*
X123051225Y-81093734D01*
X123051228Y-81093733D01*
X123059089Y-81090620D01*
X123083909Y-81071781D01*
X123169769Y-81006609D01*
X123176500Y-81001500D01*
X123265620Y-80884089D01*
X123270661Y-80871357D01*
X123313640Y-80816270D01*
X123385955Y-80793000D01*
X123661893Y-80793000D01*
X123684864Y-80785536D01*
X123703779Y-80780996D01*
X123717987Y-80778746D01*
X123717989Y-80778745D01*
X123727626Y-80777219D01*
X123749147Y-80766254D01*
X123767116Y-80758811D01*
X123780802Y-80754364D01*
X123790081Y-80751349D01*
X123797969Y-80745618D01*
X123797973Y-80745616D01*
X123809619Y-80737154D01*
X123826203Y-80726991D01*
X123847720Y-80716028D01*
X125361929Y-79201819D01*
X125423252Y-79168334D01*
X125449610Y-79165500D01*
X125794758Y-79165500D01*
X125861797Y-79185185D01*
X125907367Y-79237585D01*
X125953502Y-79337658D01*
X125953506Y-79337665D01*
X125955883Y-79342821D01*
X125959161Y-79347459D01*
X126078851Y-79516817D01*
X126083222Y-79523002D01*
X126087293Y-79526968D01*
X126087294Y-79526969D01*
X126237190Y-79672993D01*
X126237195Y-79672997D01*
X126241264Y-79676961D01*
X126245987Y-79680117D01*
X126245991Y-79680120D01*
X126330185Y-79736376D01*
X126424717Y-79799540D01*
X126429945Y-79801786D01*
X126522544Y-79841570D01*
X126576369Y-79886119D01*
X126597564Y-79952697D01*
X126579400Y-80020164D01*
X126527644Y-80067101D01*
X126473596Y-80079500D01*
X126055354Y-80079500D01*
X126051700Y-80079935D01*
X126051698Y-80079935D01*
X126046734Y-80080526D01*
X126029154Y-80082618D01*
X125926847Y-80128061D01*
X125847759Y-80207287D01*
X125843130Y-80217758D01*
X125843129Y-80217759D01*
X125819978Y-80270126D01*
X125802494Y-80309673D01*
X125799500Y-80335354D01*
X125799500Y-82224646D01*
X125802618Y-82250846D01*
X125848061Y-82353153D01*
X125927287Y-82432241D01*
X125937758Y-82436870D01*
X125937759Y-82436871D01*
X126021147Y-82473737D01*
X126021149Y-82473738D01*
X126029673Y-82477506D01*
X126055354Y-82480500D01*
X127944646Y-82480500D01*
X127948300Y-82480065D01*
X127948302Y-82480065D01*
X127953266Y-82479474D01*
X127970846Y-82477382D01*
X128073153Y-82431939D01*
X128152241Y-82352713D01*
X128165019Y-82323810D01*
X128193737Y-82258853D01*
X128193738Y-82258851D01*
X128197506Y-82250327D01*
X128200500Y-82224646D01*
X128200500Y-80335354D01*
X128197382Y-80309154D01*
X128151939Y-80206847D01*
X128072713Y-80127759D01*
X128062242Y-80123130D01*
X128062241Y-80123129D01*
X127978853Y-80086263D01*
X127978851Y-80086262D01*
X127970327Y-80082494D01*
X127944646Y-80079500D01*
X127537715Y-80079500D01*
X127470676Y-80059815D01*
X127424921Y-80007011D01*
X127414977Y-79937853D01*
X127444002Y-79874297D01*
X127486680Y-79842666D01*
X127490379Y-79841410D01*
X127644766Y-79754949D01*
X127677931Y-79736376D01*
X127677932Y-79736375D01*
X127682884Y-79733602D01*
X127711050Y-79710177D01*
X127848151Y-79596150D01*
X127852518Y-79592518D01*
X127912166Y-79520800D01*
X127989971Y-79427250D01*
X127989972Y-79427249D01*
X127993602Y-79422884D01*
X128101410Y-79230379D01*
X128105424Y-79218556D01*
X128165521Y-79041513D01*
X128172331Y-79021452D01*
X128180655Y-78964047D01*
X128191800Y-78887180D01*
X128203991Y-78803098D01*
X128205643Y-78740000D01*
X128185454Y-78520289D01*
X128125565Y-78307936D01*
X128027980Y-78110053D01*
X127895967Y-77933267D01*
X127733949Y-77783499D01*
X127699406Y-77761704D01*
X127552159Y-77668798D01*
X127552157Y-77668797D01*
X127547350Y-77665764D01*
X127342421Y-77584006D01*
X127336840Y-77582896D01*
X127336837Y-77582895D01*
X127178861Y-77551472D01*
X127126024Y-77540962D01*
X127120337Y-77540888D01*
X127120332Y-77540887D01*
X126911095Y-77538148D01*
X126911090Y-77538148D01*
X126905406Y-77538074D01*
X126899802Y-77539037D01*
X126899801Y-77539037D01*
X126693560Y-77574475D01*
X126693557Y-77574476D01*
X126687957Y-77575438D01*
X126480957Y-77651804D01*
X126291341Y-77764614D01*
X126125457Y-77910090D01*
X125988863Y-78083360D01*
X125986216Y-78088391D01*
X125902116Y-78248237D01*
X125853481Y-78298400D01*
X125792378Y-78314500D01*
X125154607Y-78314500D01*
X125131636Y-78321963D01*
X125112726Y-78326503D01*
X125112720Y-78326504D01*
X125088874Y-78330281D01*
X125067357Y-78341245D01*
X125049383Y-78348689D01*
X125035705Y-78353133D01*
X125035704Y-78353134D01*
X125026420Y-78356150D01*
X125007682Y-78369764D01*
X125006881Y-78370346D01*
X124990293Y-78380511D01*
X124968780Y-78391472D01*
X123468130Y-79892122D01*
X123406807Y-79925607D01*
X123337115Y-79920623D01*
X123281182Y-79878751D01*
X123272419Y-79865313D01*
X123268730Y-79858766D01*
X123265620Y-79850911D01*
X123260328Y-79843938D01*
X123181609Y-79740231D01*
X123176500Y-79733500D01*
X123059089Y-79644380D01*
X123051228Y-79641267D01*
X123051225Y-79641266D01*
X122929444Y-79593050D01*
X122929442Y-79593050D01*
X122922038Y-79590118D01*
X122914134Y-79589161D01*
X122914132Y-79589161D01*
X122862815Y-79582951D01*
X122834297Y-79579500D01*
X122555075Y-79579500D01*
X122275704Y-79579501D01*
X122272002Y-79579949D01*
X122272001Y-79579949D01*
X122195867Y-79589161D01*
X122195863Y-79589162D01*
X122187962Y-79590118D01*
X122156406Y-79602612D01*
X122058775Y-79641266D01*
X122058772Y-79641267D01*
X122050911Y-79644380D01*
X121933500Y-79733500D01*
X121928391Y-79740231D01*
X121928389Y-79740233D01*
X121884601Y-79797921D01*
X121828390Y-79839418D01*
X121758666Y-79843938D01*
X121692817Y-79804952D01*
X121691549Y-79803513D01*
X121687312Y-79797349D01*
X121636960Y-79752487D01*
X121566303Y-79689533D01*
X121566301Y-79689532D01*
X121560721Y-79684560D01*
X121552336Y-79680120D01*
X121443041Y-79622252D01*
X121410881Y-79605224D01*
X121246441Y-79563919D01*
X121160248Y-79563468D01*
X121084368Y-79563070D01*
X121084367Y-79563070D01*
X121076895Y-79563031D01*
X121055235Y-79568231D01*
X120919295Y-79600868D01*
X120919293Y-79600869D01*
X120912032Y-79602612D01*
X120905399Y-79606035D01*
X120905395Y-79606037D01*
X120873980Y-79622252D01*
X120761369Y-79680375D01*
X120755737Y-79685288D01*
X120646014Y-79781005D01*
X120582556Y-79810241D01*
X120513364Y-79800528D01*
X120460408Y-79754949D01*
X120440500Y-79687563D01*
X120440500Y-79193214D01*
X120460185Y-79126175D01*
X120476817Y-79105535D01*
X120479698Y-79102654D01*
X120487150Y-79097150D01*
X120492655Y-79089697D01*
X120492657Y-79089695D01*
X120562128Y-78995639D01*
X120562129Y-78995637D01*
X120567634Y-78988184D01*
X120571130Y-78978231D01*
X120592896Y-78916248D01*
X120612519Y-78860369D01*
X120615500Y-78828834D01*
X120615500Y-77462611D01*
X130612394Y-77462611D01*
X130613214Y-77470039D01*
X130613214Y-77470041D01*
X130621715Y-77547044D01*
X130630999Y-77631135D01*
X130633565Y-77638147D01*
X130633566Y-77638151D01*
X130671986Y-77743136D01*
X130689266Y-77790356D01*
X130693433Y-77796558D01*
X130693435Y-77796561D01*
X130754421Y-77887317D01*
X130783830Y-77931083D01*
X130789358Y-77936113D01*
X130789364Y-77936120D01*
X130851953Y-77993071D01*
X130888290Y-78052748D01*
X130892500Y-78084785D01*
X130892500Y-79022977D01*
X130872815Y-79090016D01*
X130818836Y-79136301D01*
X130769847Y-79158061D01*
X130690759Y-79237287D01*
X130686130Y-79247758D01*
X130686129Y-79247759D01*
X130658612Y-79310002D01*
X130645494Y-79339673D01*
X130642500Y-79365354D01*
X130642500Y-80654646D01*
X130645618Y-80680846D01*
X130691061Y-80783153D01*
X130770287Y-80862241D01*
X130780758Y-80866870D01*
X130780759Y-80866871D01*
X130864147Y-80903737D01*
X130864149Y-80903738D01*
X130872673Y-80907506D01*
X130898354Y-80910500D01*
X131737646Y-80910500D01*
X131741300Y-80910065D01*
X131741302Y-80910065D01*
X131746266Y-80909474D01*
X131763846Y-80907382D01*
X131866153Y-80861939D01*
X131945241Y-80782713D01*
X131950106Y-80771709D01*
X131986737Y-80688853D01*
X131986738Y-80688851D01*
X131990506Y-80680327D01*
X131993500Y-80654646D01*
X131993500Y-79365354D01*
X131990382Y-79339154D01*
X131944939Y-79236847D01*
X131865713Y-79157759D01*
X131855244Y-79153130D01*
X131855240Y-79153128D01*
X131817362Y-79136383D01*
X131764006Y-79091273D01*
X131743500Y-79022972D01*
X131743500Y-78740000D01*
X132314564Y-78740000D01*
X132314829Y-78744043D01*
X132330831Y-78988184D01*
X132334287Y-79040920D01*
X132393120Y-79336691D01*
X132394425Y-79340535D01*
X132485463Y-79608723D01*
X132490055Y-79622252D01*
X132623434Y-79892718D01*
X132715831Y-80031000D01*
X132786099Y-80136163D01*
X132790975Y-80143461D01*
X132989811Y-80370189D01*
X133216539Y-80569025D01*
X133219919Y-80571283D01*
X133219921Y-80571285D01*
X133271321Y-80605629D01*
X133467282Y-80736566D01*
X133737748Y-80869945D01*
X133741588Y-80871248D01*
X133741594Y-80871251D01*
X133955633Y-80943907D01*
X134023309Y-80966880D01*
X134319080Y-81025713D01*
X134323121Y-81025978D01*
X134323122Y-81025978D01*
X134542672Y-81040368D01*
X134542680Y-81040368D01*
X134544690Y-81040500D01*
X134695310Y-81040500D01*
X134697320Y-81040368D01*
X134697328Y-81040368D01*
X134916878Y-81025978D01*
X134916879Y-81025978D01*
X134920920Y-81025713D01*
X135216691Y-80966880D01*
X135284367Y-80943907D01*
X135498406Y-80871251D01*
X135498412Y-80871248D01*
X135502252Y-80869945D01*
X135772718Y-80736566D01*
X135968679Y-80605629D01*
X136020079Y-80571285D01*
X136020081Y-80571283D01*
X136023461Y-80569025D01*
X136250189Y-80370189D01*
X136449025Y-80143461D01*
X136453902Y-80136163D01*
X136524169Y-80031000D01*
X136616566Y-79892718D01*
X136749945Y-79622252D01*
X136754538Y-79608723D01*
X136845575Y-79340535D01*
X136846880Y-79336691D01*
X136905713Y-79040920D01*
X136909170Y-78988184D01*
X136925171Y-78744043D01*
X136925436Y-78740000D01*
X136919514Y-78649643D01*
X136905978Y-78443122D01*
X136905978Y-78443121D01*
X136905713Y-78439080D01*
X136846880Y-78143309D01*
X136795881Y-77993071D01*
X136751251Y-77861594D01*
X136751248Y-77861588D01*
X136749945Y-77857748D01*
X136616566Y-77587282D01*
X136449025Y-77336539D01*
X136250189Y-77109811D01*
X136023461Y-76910975D01*
X136000351Y-76895533D01*
X135923003Y-76843851D01*
X135772718Y-76743434D01*
X135502252Y-76610055D01*
X135498412Y-76608752D01*
X135498406Y-76608749D01*
X135220535Y-76514425D01*
X135216691Y-76513120D01*
X134920920Y-76454287D01*
X134916879Y-76454022D01*
X134916878Y-76454022D01*
X134697328Y-76439632D01*
X134697320Y-76439632D01*
X134695310Y-76439500D01*
X134544690Y-76439500D01*
X134542680Y-76439632D01*
X134542672Y-76439632D01*
X134323122Y-76454022D01*
X134323121Y-76454022D01*
X134319080Y-76454287D01*
X134023309Y-76513120D01*
X134019465Y-76514425D01*
X133741594Y-76608749D01*
X133741588Y-76608752D01*
X133737748Y-76610055D01*
X133467282Y-76743434D01*
X133316997Y-76843851D01*
X133239650Y-76895533D01*
X133216539Y-76910975D01*
X132989811Y-77109811D01*
X132790975Y-77336539D01*
X132623434Y-77587282D01*
X132490055Y-77857748D01*
X132488752Y-77861588D01*
X132488749Y-77861594D01*
X132444119Y-77993071D01*
X132393120Y-78143309D01*
X132334287Y-78439080D01*
X132334022Y-78443121D01*
X132334022Y-78443122D01*
X132320486Y-78649643D01*
X132314564Y-78740000D01*
X131743500Y-78740000D01*
X131743500Y-78085017D01*
X131763185Y-78017978D01*
X131786968Y-77990727D01*
X131831741Y-77952487D01*
X131837423Y-77947634D01*
X131936361Y-77809947D01*
X131999601Y-77652634D01*
X132009526Y-77582895D01*
X132022918Y-77488800D01*
X132022918Y-77488794D01*
X132023490Y-77484778D01*
X132023645Y-77470000D01*
X132018550Y-77427900D01*
X132004175Y-77309105D01*
X132004174Y-77309101D01*
X132003276Y-77301680D01*
X131943345Y-77143077D01*
X131914398Y-77100959D01*
X131851549Y-77009513D01*
X131851546Y-77009510D01*
X131847312Y-77003349D01*
X131767799Y-76932505D01*
X131726303Y-76895533D01*
X131726301Y-76895532D01*
X131720721Y-76890560D01*
X131714049Y-76887027D01*
X131577489Y-76814723D01*
X131570881Y-76811224D01*
X131406441Y-76769919D01*
X131320248Y-76769468D01*
X131244368Y-76769070D01*
X131244367Y-76769070D01*
X131236895Y-76769031D01*
X131215235Y-76774231D01*
X131079295Y-76806868D01*
X131079293Y-76806869D01*
X131072032Y-76808612D01*
X131065399Y-76812035D01*
X131065395Y-76812037D01*
X131003758Y-76843851D01*
X130921369Y-76886375D01*
X130915737Y-76891288D01*
X130824171Y-76971166D01*
X130793604Y-76997831D01*
X130696113Y-77136547D01*
X130634524Y-77294513D01*
X130612394Y-77462611D01*
X120615500Y-77462611D01*
X120615500Y-76971166D01*
X120612519Y-76939631D01*
X120578884Y-76843851D01*
X120570704Y-76820557D01*
X120570703Y-76820555D01*
X120567634Y-76811816D01*
X120561022Y-76802863D01*
X120492657Y-76710306D01*
X120487150Y-76702850D01*
X120457304Y-76680805D01*
X120385639Y-76627872D01*
X120385637Y-76627871D01*
X120378184Y-76622366D01*
X120369445Y-76619297D01*
X120369443Y-76619296D01*
X120321758Y-76602551D01*
X120250369Y-76577481D01*
X120242850Y-76576770D01*
X120242849Y-76576770D01*
X120221748Y-76574775D01*
X120221738Y-76574775D01*
X120218834Y-76574500D01*
X119811166Y-76574500D01*
X119808262Y-76574775D01*
X119808252Y-76574775D01*
X119787151Y-76576770D01*
X119787150Y-76576770D01*
X119779631Y-76577481D01*
X119708242Y-76602551D01*
X119660557Y-76619296D01*
X119660555Y-76619297D01*
X119651816Y-76622366D01*
X119644363Y-76627871D01*
X119644361Y-76627872D01*
X119572696Y-76680805D01*
X119542850Y-76702850D01*
X119493968Y-76769031D01*
X119479742Y-76788291D01*
X119424079Y-76830521D01*
X119354421Y-76835953D01*
X119292884Y-76802863D01*
X119280258Y-76788291D01*
X119266032Y-76769031D01*
X119217150Y-76702850D01*
X119187304Y-76680805D01*
X119115639Y-76627872D01*
X119115637Y-76627871D01*
X119108184Y-76622366D01*
X119099445Y-76619297D01*
X119099443Y-76619296D01*
X119051758Y-76602551D01*
X118980369Y-76577481D01*
X118972850Y-76576770D01*
X118972849Y-76576770D01*
X118951748Y-76574775D01*
X118951738Y-76574775D01*
X118948834Y-76574500D01*
X118541166Y-76574500D01*
X118538262Y-76574775D01*
X118538252Y-76574775D01*
X118517151Y-76576770D01*
X118517150Y-76576770D01*
X118509631Y-76577481D01*
X118438242Y-76602551D01*
X118390557Y-76619296D01*
X118390555Y-76619297D01*
X118381816Y-76622366D01*
X118374363Y-76627871D01*
X118374361Y-76627872D01*
X118302696Y-76680805D01*
X118272850Y-76702850D01*
X118223968Y-76769031D01*
X118209742Y-76788291D01*
X118154079Y-76830521D01*
X118084421Y-76835953D01*
X118022884Y-76802863D01*
X118010258Y-76788291D01*
X117996032Y-76769031D01*
X117947150Y-76702850D01*
X117917304Y-76680805D01*
X117845639Y-76627872D01*
X117845637Y-76627871D01*
X117838184Y-76622366D01*
X117829445Y-76619297D01*
X117829443Y-76619296D01*
X117781758Y-76602551D01*
X117710369Y-76577481D01*
X117702850Y-76576770D01*
X117702849Y-76576770D01*
X117681748Y-76574775D01*
X117681738Y-76574775D01*
X117678834Y-76574500D01*
X117271166Y-76574500D01*
X117268262Y-76574775D01*
X117268252Y-76574775D01*
X117247151Y-76576770D01*
X117247150Y-76576770D01*
X117239631Y-76577481D01*
X117168242Y-76602551D01*
X117120557Y-76619296D01*
X117120555Y-76619297D01*
X117111816Y-76622366D01*
X117104363Y-76627871D01*
X117104361Y-76627872D01*
X117032696Y-76680805D01*
X117002850Y-76702850D01*
X116953968Y-76769031D01*
X116939742Y-76788291D01*
X116884079Y-76830521D01*
X116814421Y-76835953D01*
X116752884Y-76802863D01*
X116740258Y-76788291D01*
X116726032Y-76769031D01*
X116677150Y-76702850D01*
X116647304Y-76680805D01*
X116575639Y-76627872D01*
X116575637Y-76627871D01*
X116568184Y-76622366D01*
X116559445Y-76619297D01*
X116559443Y-76619296D01*
X116511758Y-76602551D01*
X116440369Y-76577481D01*
X116432850Y-76576770D01*
X116432849Y-76576770D01*
X116411748Y-76574775D01*
X116411738Y-76574775D01*
X116408834Y-76574500D01*
X116001166Y-76574500D01*
X115998262Y-76574775D01*
X115998252Y-76574775D01*
X115977151Y-76576770D01*
X115977150Y-76576770D01*
X115969631Y-76577481D01*
X115898242Y-76602551D01*
X115850557Y-76619296D01*
X115850555Y-76619297D01*
X115841816Y-76622366D01*
X115834363Y-76627871D01*
X115834361Y-76627872D01*
X115762696Y-76680805D01*
X115732850Y-76702850D01*
X115683968Y-76769031D01*
X115669742Y-76788291D01*
X115614079Y-76830521D01*
X115544421Y-76835953D01*
X115482884Y-76802863D01*
X115470258Y-76788291D01*
X115456032Y-76769031D01*
X115407150Y-76702850D01*
X115377304Y-76680805D01*
X115305639Y-76627872D01*
X115305637Y-76627871D01*
X115298184Y-76622366D01*
X115289445Y-76619297D01*
X115289443Y-76619296D01*
X115241758Y-76602551D01*
X115170369Y-76577481D01*
X115162850Y-76576770D01*
X115162849Y-76576770D01*
X115141748Y-76574775D01*
X115141738Y-76574775D01*
X115138834Y-76574500D01*
X114731166Y-76574500D01*
X114728262Y-76574775D01*
X114728252Y-76574775D01*
X114707151Y-76576770D01*
X114707150Y-76576770D01*
X114699631Y-76577481D01*
X114628242Y-76602551D01*
X114580557Y-76619296D01*
X114580555Y-76619297D01*
X114571816Y-76622366D01*
X114564363Y-76627871D01*
X114564361Y-76627872D01*
X114492696Y-76680805D01*
X114462850Y-76702850D01*
X114413968Y-76769031D01*
X114399742Y-76788291D01*
X114344079Y-76830521D01*
X114274421Y-76835953D01*
X114212884Y-76802863D01*
X114200258Y-76788291D01*
X114186032Y-76769031D01*
X114137150Y-76702850D01*
X114107304Y-76680805D01*
X114035639Y-76627872D01*
X114035637Y-76627871D01*
X114028184Y-76622366D01*
X114019445Y-76619297D01*
X114019443Y-76619296D01*
X113971758Y-76602551D01*
X113900369Y-76577481D01*
X113892850Y-76576770D01*
X113892849Y-76576770D01*
X113871748Y-76574775D01*
X113871738Y-76574775D01*
X113868834Y-76574500D01*
X113461166Y-76574500D01*
X113458262Y-76574775D01*
X113458252Y-76574775D01*
X113437151Y-76576770D01*
X113437150Y-76576770D01*
X113429631Y-76577481D01*
X113358242Y-76602551D01*
X113310557Y-76619296D01*
X113310555Y-76619297D01*
X113301816Y-76622366D01*
X113294363Y-76627871D01*
X113294361Y-76627872D01*
X113222696Y-76680805D01*
X113192850Y-76702850D01*
X113143968Y-76769031D01*
X113129742Y-76788291D01*
X113074079Y-76830521D01*
X113004421Y-76835953D01*
X112942884Y-76802863D01*
X112930258Y-76788291D01*
X112916032Y-76769031D01*
X112867150Y-76702850D01*
X112837304Y-76680805D01*
X112765639Y-76627872D01*
X112765637Y-76627871D01*
X112758184Y-76622366D01*
X112749445Y-76619297D01*
X112749443Y-76619296D01*
X112701758Y-76602551D01*
X112630369Y-76577481D01*
X112622850Y-76576770D01*
X112622849Y-76576770D01*
X112601748Y-76574775D01*
X112601738Y-76574775D01*
X112598834Y-76574500D01*
X112191166Y-76574500D01*
X112188262Y-76574775D01*
X112188252Y-76574775D01*
X112167151Y-76576770D01*
X112167150Y-76576770D01*
X112159631Y-76577481D01*
X112088242Y-76602551D01*
X112040557Y-76619296D01*
X112040555Y-76619297D01*
X112031816Y-76622366D01*
X112024363Y-76627871D01*
X112024361Y-76627872D01*
X111952696Y-76680805D01*
X111922850Y-76702850D01*
X111873968Y-76769031D01*
X111859742Y-76788291D01*
X111804079Y-76830521D01*
X111734421Y-76835953D01*
X111672884Y-76802863D01*
X111660258Y-76788291D01*
X111646032Y-76769031D01*
X111597150Y-76702850D01*
X111567304Y-76680805D01*
X111495639Y-76627872D01*
X111495637Y-76627871D01*
X111488184Y-76622366D01*
X111479445Y-76619297D01*
X111479443Y-76619296D01*
X111431758Y-76602551D01*
X111360369Y-76577481D01*
X111352850Y-76576770D01*
X111352849Y-76576770D01*
X111331748Y-76574775D01*
X111331738Y-76574775D01*
X111328834Y-76574500D01*
X110921166Y-76574500D01*
X110918262Y-76574775D01*
X110918252Y-76574775D01*
X110897151Y-76576770D01*
X110897150Y-76576770D01*
X110889631Y-76577481D01*
X110818242Y-76602551D01*
X110770557Y-76619296D01*
X110770555Y-76619297D01*
X110761816Y-76622366D01*
X110754363Y-76627871D01*
X110754361Y-76627872D01*
X110682696Y-76680805D01*
X110652850Y-76702850D01*
X110603968Y-76769031D01*
X110589742Y-76788291D01*
X110534079Y-76830521D01*
X110464421Y-76835953D01*
X110402884Y-76802863D01*
X110390258Y-76788291D01*
X110376032Y-76769031D01*
X110327150Y-76702850D01*
X110297304Y-76680805D01*
X110225639Y-76627872D01*
X110225637Y-76627871D01*
X110218184Y-76622366D01*
X110209445Y-76619297D01*
X110209443Y-76619296D01*
X110161758Y-76602551D01*
X110090369Y-76577481D01*
X110082850Y-76576770D01*
X110082849Y-76576770D01*
X110061748Y-76574775D01*
X110061738Y-76574775D01*
X110058834Y-76574500D01*
X109651166Y-76574500D01*
X109648262Y-76574775D01*
X109648252Y-76574775D01*
X109627151Y-76576770D01*
X109627150Y-76576770D01*
X109619631Y-76577481D01*
X109548242Y-76602551D01*
X109500557Y-76619296D01*
X109500555Y-76619297D01*
X109491816Y-76622366D01*
X109484363Y-76627871D01*
X109484361Y-76627872D01*
X109412696Y-76680805D01*
X109382850Y-76702850D01*
X109333968Y-76769031D01*
X109319742Y-76788291D01*
X109264079Y-76830521D01*
X109194421Y-76835953D01*
X109132884Y-76802863D01*
X109120258Y-76788291D01*
X109106032Y-76769031D01*
X109057150Y-76702850D01*
X109027304Y-76680805D01*
X108955639Y-76627872D01*
X108955637Y-76627871D01*
X108948184Y-76622366D01*
X108939445Y-76619297D01*
X108939443Y-76619296D01*
X108891758Y-76602551D01*
X108820369Y-76577481D01*
X108812850Y-76576770D01*
X108812849Y-76576770D01*
X108791748Y-76574775D01*
X108791738Y-76574775D01*
X108788834Y-76574500D01*
X108381166Y-76574500D01*
X108378262Y-76574775D01*
X108378252Y-76574775D01*
X108357151Y-76576770D01*
X108357150Y-76576770D01*
X108349631Y-76577481D01*
X108278242Y-76602551D01*
X108230557Y-76619296D01*
X108230555Y-76619297D01*
X108221816Y-76622366D01*
X108214363Y-76627871D01*
X108214361Y-76627872D01*
X108142696Y-76680805D01*
X108112850Y-76702850D01*
X108107343Y-76710306D01*
X108038979Y-76802863D01*
X108032366Y-76811816D01*
X108029297Y-76820555D01*
X108029296Y-76820557D01*
X108021116Y-76843851D01*
X107987481Y-76939631D01*
X107984500Y-76971166D01*
X107984500Y-77372674D01*
X107964815Y-77439713D01*
X107912011Y-77485468D01*
X107902924Y-77489006D01*
X107894874Y-77490281D01*
X107873353Y-77501246D01*
X107855384Y-77508689D01*
X107832419Y-77516151D01*
X107824531Y-77521882D01*
X107824527Y-77521884D01*
X107812881Y-77530346D01*
X107796297Y-77540509D01*
X107774780Y-77551472D01*
X106839472Y-78486780D01*
X106828509Y-78508297D01*
X106818346Y-78524881D01*
X106809884Y-78536527D01*
X106809882Y-78536531D01*
X106804151Y-78544419D01*
X106801136Y-78553698D01*
X106796689Y-78567384D01*
X106789246Y-78585353D01*
X106778281Y-78606874D01*
X106776755Y-78616511D01*
X106776754Y-78616513D01*
X106774504Y-78630721D01*
X106769964Y-78649636D01*
X106762500Y-78672607D01*
X106762500Y-78887180D01*
X106742815Y-78954219D01*
X106720014Y-78980622D01*
X106671461Y-79022977D01*
X106663604Y-79029831D01*
X106566113Y-79168547D01*
X106504524Y-79326513D01*
X106503548Y-79333923D01*
X106503548Y-79333925D01*
X106498938Y-79368946D01*
X106482394Y-79494611D01*
X106483214Y-79502039D01*
X106483214Y-79502041D01*
X106490781Y-79570581D01*
X106500999Y-79663135D01*
X106503565Y-79670146D01*
X106503568Y-79670160D01*
X106504202Y-79671891D01*
X106504290Y-79673235D01*
X106505275Y-79677436D01*
X106504575Y-79677600D01*
X106508753Y-79741612D01*
X106474886Y-79802726D01*
X106413356Y-79835828D01*
X106387753Y-79838500D01*
X106358607Y-79838500D01*
X106335636Y-79845964D01*
X106316721Y-79850504D01*
X106302513Y-79852754D01*
X106302511Y-79852755D01*
X106292874Y-79854281D01*
X106271353Y-79865246D01*
X106253384Y-79872689D01*
X106230419Y-79880151D01*
X106222531Y-79885882D01*
X106222527Y-79885884D01*
X106210881Y-79894346D01*
X106194297Y-79904509D01*
X106172780Y-79915472D01*
X102521472Y-83566780D01*
X102510509Y-83588297D01*
X102500346Y-83604881D01*
X102491884Y-83616527D01*
X102491882Y-83616531D01*
X102486151Y-83624419D01*
X102483136Y-83633698D01*
X102478689Y-83647384D01*
X102471246Y-83665353D01*
X102460281Y-83686874D01*
X102458755Y-83696511D01*
X102458754Y-83696513D01*
X102456504Y-83710721D01*
X102451964Y-83729636D01*
X102444500Y-83752607D01*
X102444500Y-84085500D01*
X102424815Y-84152539D01*
X102372011Y-84198294D01*
X102320500Y-84209500D01*
X102025354Y-84209500D01*
X102021700Y-84209935D01*
X102021698Y-84209935D01*
X102016734Y-84210526D01*
X101999154Y-84212618D01*
X101896847Y-84258061D01*
X101817759Y-84337287D01*
X101813130Y-84347758D01*
X101812193Y-84349126D01*
X101758077Y-84393321D01*
X101688658Y-84401243D01*
X101625976Y-84370376D01*
X101593769Y-84322599D01*
X101576183Y-84275689D01*
X101567788Y-84260354D01*
X101492484Y-84159876D01*
X101480124Y-84147516D01*
X101379646Y-84072212D01*
X101364311Y-84063817D01*
X101245753Y-84019371D01*
X101230744Y-84015803D01*
X101180669Y-84010363D01*
X101173972Y-84010000D01*
X100497830Y-84010000D01*
X100482831Y-84014404D01*
X100481644Y-84015774D01*
X100480000Y-84023332D01*
X100480000Y-85286000D01*
X100460315Y-85353039D01*
X100407511Y-85398794D01*
X100356000Y-85410000D01*
X99047830Y-85410000D01*
X99032831Y-85414404D01*
X99031644Y-85415774D01*
X99030000Y-85423332D01*
X99030000Y-86053972D01*
X99030363Y-86060669D01*
X99035803Y-86110744D01*
X99039371Y-86125753D01*
X99083817Y-86244311D01*
X99092212Y-86259646D01*
X99167516Y-86360124D01*
X99179876Y-86372484D01*
X99229197Y-86409448D01*
X99271037Y-86465405D01*
X99275983Y-86535100D01*
X99268242Y-86558813D01*
X99246870Y-86607156D01*
X99232494Y-86639673D01*
X99229500Y-86665354D01*
X99229500Y-88254646D01*
X99232618Y-88280846D01*
X99278061Y-88383153D01*
X99357287Y-88462241D01*
X99367758Y-88466870D01*
X99367759Y-88466871D01*
X99451147Y-88503737D01*
X99451149Y-88503738D01*
X99459673Y-88507506D01*
X99485354Y-88510500D01*
X101174646Y-88510500D01*
X101178300Y-88510065D01*
X101178302Y-88510065D01*
X101183266Y-88509474D01*
X101200846Y-88507382D01*
X101303153Y-88461939D01*
X101382241Y-88382713D01*
X101403938Y-88333636D01*
X101423737Y-88288853D01*
X101423738Y-88288851D01*
X101427506Y-88280327D01*
X101430500Y-88254646D01*
X101430500Y-86665354D01*
X101427382Y-86639154D01*
X101391799Y-86559045D01*
X101382575Y-86489787D01*
X101412259Y-86426537D01*
X101430757Y-86409484D01*
X101480120Y-86372488D01*
X101492484Y-86360124D01*
X101567788Y-86259646D01*
X101576182Y-86244313D01*
X101593759Y-86197427D01*
X101635723Y-86141564D01*
X101701229Y-86117256D01*
X101769477Y-86132222D01*
X101812060Y-86170721D01*
X101813414Y-86172691D01*
X101818061Y-86183153D01*
X101826162Y-86191240D01*
X101831803Y-86196871D01*
X101897287Y-86262241D01*
X101898507Y-86262780D01*
X101938545Y-86311806D01*
X101946467Y-86381225D01*
X101915600Y-86443907D01*
X101901858Y-86455835D01*
X101896847Y-86458061D01*
X101888760Y-86466162D01*
X101865176Y-86489787D01*
X101817759Y-86537287D01*
X101813130Y-86547758D01*
X101813129Y-86547759D01*
X101786870Y-86607156D01*
X101772494Y-86639673D01*
X101769500Y-86665354D01*
X101769500Y-88254646D01*
X101772618Y-88280846D01*
X101818061Y-88383153D01*
X101897287Y-88462241D01*
X101907758Y-88466870D01*
X101907759Y-88466871D01*
X101991147Y-88503737D01*
X101991149Y-88503738D01*
X101999673Y-88507506D01*
X102025354Y-88510500D01*
X103714646Y-88510500D01*
X103718300Y-88510065D01*
X103718302Y-88510065D01*
X103723266Y-88509474D01*
X103740846Y-88507382D01*
X103843153Y-88461939D01*
X103922241Y-88382713D01*
X103943938Y-88333636D01*
X103963737Y-88288853D01*
X103963738Y-88288851D01*
X103967506Y-88280327D01*
X103970500Y-88254646D01*
X103970500Y-88009500D01*
X103990185Y-87942461D01*
X104042989Y-87896706D01*
X104094500Y-87885500D01*
X104123393Y-87885500D01*
X104146364Y-87878036D01*
X104165279Y-87873496D01*
X104179487Y-87871246D01*
X104179489Y-87871245D01*
X104189126Y-87869719D01*
X104210647Y-87858754D01*
X104228616Y-87851311D01*
X104242302Y-87846864D01*
X104251581Y-87843849D01*
X104259469Y-87838118D01*
X104259473Y-87838116D01*
X104271119Y-87829654D01*
X104287703Y-87819491D01*
X104309220Y-87808528D01*
X104513528Y-87604220D01*
X104574851Y-87570735D01*
X104603157Y-87567916D01*
X104714290Y-87569662D01*
X104714293Y-87569662D01*
X104721760Y-87569779D01*
X104867905Y-87536308D01*
X104879738Y-87533598D01*
X104879739Y-87533598D01*
X104887029Y-87531928D01*
X105016659Y-87466731D01*
X105031820Y-87459106D01*
X105031822Y-87459105D01*
X105038498Y-87455747D01*
X105044180Y-87450894D01*
X105044183Y-87450892D01*
X105161741Y-87350487D01*
X105167423Y-87345634D01*
X105266361Y-87207947D01*
X105329601Y-87050634D01*
X105332229Y-87032170D01*
X107785000Y-87032170D01*
X107789404Y-87047169D01*
X107790774Y-87048356D01*
X107798332Y-87050000D01*
X108417170Y-87050000D01*
X108432169Y-87045596D01*
X108433356Y-87044226D01*
X108435000Y-87036668D01*
X108435000Y-85692830D01*
X108430596Y-85677831D01*
X108429226Y-85676644D01*
X108421668Y-85675000D01*
X108371803Y-85675000D01*
X108366923Y-85675192D01*
X108338826Y-85677403D01*
X108326421Y-85679669D01*
X108182295Y-85721541D01*
X108168087Y-85727689D01*
X108040161Y-85803345D01*
X108027925Y-85812836D01*
X107922836Y-85917925D01*
X107913345Y-85930161D01*
X107837689Y-86058087D01*
X107831541Y-86072295D01*
X107789669Y-86216421D01*
X107787403Y-86228826D01*
X107785192Y-86256923D01*
X107785000Y-86261803D01*
X107785000Y-87032170D01*
X105332229Y-87032170D01*
X105352918Y-86886800D01*
X105352918Y-86886794D01*
X105353490Y-86882778D01*
X105353645Y-86868000D01*
X105349156Y-86830907D01*
X105334175Y-86707105D01*
X105334174Y-86707101D01*
X105333276Y-86699680D01*
X105307193Y-86630654D01*
X105275989Y-86548073D01*
X105275987Y-86548070D01*
X105273345Y-86541077D01*
X105264241Y-86527830D01*
X105181549Y-86407513D01*
X105181546Y-86407510D01*
X105177312Y-86401349D01*
X105087317Y-86321166D01*
X105056303Y-86293533D01*
X105056301Y-86293532D01*
X105050721Y-86288560D01*
X105036347Y-86280949D01*
X104966271Y-86243846D01*
X104900881Y-86209224D01*
X104736441Y-86167919D01*
X104650248Y-86167468D01*
X104574368Y-86167070D01*
X104574367Y-86167070D01*
X104566895Y-86167031D01*
X104551525Y-86170721D01*
X104409295Y-86204868D01*
X104409293Y-86204869D01*
X104402032Y-86206612D01*
X104395399Y-86210035D01*
X104395395Y-86210037D01*
X104329892Y-86243846D01*
X104251369Y-86284375D01*
X104245737Y-86289288D01*
X104129305Y-86390858D01*
X104123604Y-86395831D01*
X104119305Y-86401948D01*
X104066958Y-86476430D01*
X104012305Y-86519959D01*
X103942794Y-86527031D01*
X103877902Y-86492886D01*
X103850816Y-86465847D01*
X103850813Y-86465845D01*
X103842713Y-86457759D01*
X103841493Y-86457220D01*
X103801455Y-86408194D01*
X103793533Y-86338775D01*
X103824400Y-86276093D01*
X103838142Y-86264165D01*
X103843153Y-86261939D01*
X103861215Y-86243846D01*
X103894965Y-86210037D01*
X103922241Y-86182713D01*
X103927543Y-86170721D01*
X103963737Y-86088853D01*
X103963738Y-86088851D01*
X103967506Y-86080327D01*
X103970500Y-86054646D01*
X103970500Y-84465354D01*
X103967382Y-84439154D01*
X103921939Y-84336847D01*
X103842713Y-84257759D01*
X103832242Y-84253130D01*
X103832241Y-84253129D01*
X103748853Y-84216263D01*
X103748851Y-84216262D01*
X103740327Y-84212494D01*
X103714646Y-84209500D01*
X103419500Y-84209500D01*
X103352461Y-84189815D01*
X103331659Y-84165808D01*
X105705001Y-84165808D01*
X105705331Y-84172187D01*
X105714970Y-84265096D01*
X105717817Y-84278279D01*
X105767816Y-84428143D01*
X105773885Y-84441099D01*
X105856800Y-84575090D01*
X105865689Y-84586305D01*
X105977207Y-84697628D01*
X105988430Y-84706491D01*
X106122568Y-84789175D01*
X106135529Y-84795219D01*
X106285499Y-84844962D01*
X106298665Y-84847784D01*
X106390346Y-84857178D01*
X106396654Y-84857500D01*
X106512170Y-84857500D01*
X106527169Y-84853096D01*
X106528356Y-84851726D01*
X106530000Y-84844168D01*
X106530000Y-84839669D01*
X106830000Y-84839669D01*
X106834404Y-84854668D01*
X106835774Y-84855855D01*
X106843332Y-84857499D01*
X106963308Y-84857499D01*
X106969687Y-84857169D01*
X107062596Y-84847530D01*
X107075779Y-84844683D01*
X107225643Y-84794684D01*
X107238599Y-84788615D01*
X107372590Y-84705700D01*
X107383805Y-84696811D01*
X107495128Y-84585293D01*
X107503991Y-84574070D01*
X107586675Y-84439932D01*
X107592719Y-84426971D01*
X107642462Y-84277001D01*
X107645284Y-84263835D01*
X107654678Y-84172154D01*
X107655000Y-84165846D01*
X107655000Y-83987830D01*
X107650596Y-83972831D01*
X107649226Y-83971644D01*
X107641668Y-83970000D01*
X106847830Y-83970000D01*
X106832831Y-83974404D01*
X106831644Y-83975774D01*
X106830000Y-83983332D01*
X106830000Y-84839669D01*
X106530000Y-84839669D01*
X106530000Y-83987830D01*
X106525596Y-83972831D01*
X106524226Y-83971644D01*
X106516668Y-83970000D01*
X105722831Y-83970000D01*
X105707832Y-83974404D01*
X105706645Y-83975774D01*
X105705001Y-83983332D01*
X105705001Y-84165808D01*
X103331659Y-84165808D01*
X103306706Y-84137011D01*
X103295500Y-84085500D01*
X103295500Y-84047610D01*
X103315185Y-83980571D01*
X103331819Y-83959929D01*
X104500993Y-82790755D01*
X104562316Y-82757270D01*
X104632008Y-82762254D01*
X104687941Y-82804126D01*
X104711925Y-82864829D01*
X104717740Y-82917500D01*
X104722999Y-82965135D01*
X104725565Y-82972147D01*
X104725566Y-82972151D01*
X104758388Y-83061839D01*
X104781266Y-83124356D01*
X104785433Y-83130558D01*
X104785435Y-83130561D01*
X104830895Y-83198212D01*
X104875830Y-83265083D01*
X104881360Y-83270115D01*
X104995702Y-83374159D01*
X104995706Y-83374162D01*
X105001233Y-83379191D01*
X105150235Y-83460092D01*
X105217216Y-83477664D01*
X105307005Y-83501220D01*
X105307007Y-83501220D01*
X105314233Y-83503116D01*
X105397178Y-83504419D01*
X105476290Y-83505662D01*
X105476293Y-83505662D01*
X105483760Y-83505779D01*
X105553319Y-83489848D01*
X105623060Y-83494070D01*
X105679448Y-83535327D01*
X105704580Y-83600521D01*
X105705000Y-83610719D01*
X105705000Y-83652170D01*
X105709404Y-83667169D01*
X105710774Y-83668356D01*
X105718332Y-83670000D01*
X107637169Y-83670000D01*
X107652168Y-83665596D01*
X107653355Y-83664226D01*
X107654999Y-83656668D01*
X107654999Y-83474192D01*
X107654669Y-83467813D01*
X107645030Y-83374904D01*
X107642183Y-83361721D01*
X107592184Y-83211857D01*
X107586115Y-83198901D01*
X107503200Y-83064910D01*
X107494311Y-83053695D01*
X107382793Y-82942372D01*
X107371571Y-82933509D01*
X107360247Y-82926529D01*
X107313509Y-82874593D01*
X107302268Y-82805633D01*
X107326545Y-82746005D01*
X107390620Y-82661589D01*
X107400108Y-82637627D01*
X107441950Y-82531944D01*
X107441950Y-82531942D01*
X107444882Y-82524538D01*
X107447985Y-82498902D01*
X107453669Y-82451928D01*
X107455500Y-82436797D01*
X107455499Y-81753204D01*
X107453596Y-81737473D01*
X107445839Y-81673367D01*
X107445838Y-81673363D01*
X107444882Y-81665462D01*
X107423985Y-81612683D01*
X107393734Y-81536275D01*
X107393733Y-81536272D01*
X107390620Y-81528411D01*
X107301500Y-81411000D01*
X107218647Y-81348111D01*
X107190824Y-81326992D01*
X107190823Y-81326992D01*
X107184089Y-81321880D01*
X107176228Y-81318767D01*
X107176225Y-81318766D01*
X107054444Y-81270550D01*
X107054442Y-81270550D01*
X107047038Y-81267618D01*
X107039134Y-81266661D01*
X107039132Y-81266661D01*
X106987815Y-81260451D01*
X106959297Y-81257000D01*
X106680075Y-81257000D01*
X106400704Y-81257001D01*
X106397005Y-81257449D01*
X106396998Y-81257449D01*
X106340866Y-81264241D01*
X106271947Y-81252752D01*
X106220181Y-81205826D01*
X106202002Y-81138363D01*
X106223183Y-81071781D01*
X106238290Y-81053458D01*
X106565929Y-80725819D01*
X106627252Y-80692334D01*
X106653610Y-80689500D01*
X109033393Y-80689500D01*
X109056364Y-80682036D01*
X109075279Y-80677496D01*
X109089487Y-80675246D01*
X109089489Y-80675245D01*
X109099126Y-80673719D01*
X109120647Y-80662754D01*
X109138616Y-80655311D01*
X109152302Y-80650864D01*
X109161581Y-80647849D01*
X109169469Y-80642118D01*
X109169473Y-80642116D01*
X109181119Y-80633654D01*
X109197703Y-80623491D01*
X109219220Y-80612528D01*
X110203528Y-79628220D01*
X110214491Y-79606703D01*
X110224654Y-79590119D01*
X110233116Y-79578473D01*
X110233118Y-79578469D01*
X110238849Y-79570581D01*
X110246311Y-79547616D01*
X110253754Y-79529647D01*
X110264719Y-79508126D01*
X110268496Y-79484279D01*
X110273036Y-79465364D01*
X110280500Y-79442393D01*
X110280500Y-79193214D01*
X110300185Y-79126175D01*
X110316817Y-79105535D01*
X110319698Y-79102654D01*
X110327150Y-79097150D01*
X110332655Y-79089697D01*
X110332657Y-79089695D01*
X110390258Y-79011709D01*
X110445921Y-78969479D01*
X110515579Y-78964047D01*
X110577116Y-78997137D01*
X110589742Y-79011709D01*
X110647343Y-79089695D01*
X110647345Y-79089697D01*
X110652850Y-79097150D01*
X110660302Y-79102654D01*
X110663183Y-79105535D01*
X110696667Y-79166859D01*
X110699500Y-79193214D01*
X110699500Y-80458393D01*
X110706964Y-80481364D01*
X110711504Y-80500279D01*
X110712620Y-80507323D01*
X110715281Y-80524126D01*
X110726246Y-80545647D01*
X110733689Y-80563616D01*
X110741151Y-80586581D01*
X110746882Y-80594469D01*
X110746884Y-80594473D01*
X110755346Y-80606119D01*
X110765509Y-80622703D01*
X110776472Y-80644220D01*
X111784377Y-81652125D01*
X111817862Y-81713448D01*
X111819635Y-81755990D01*
X111816394Y-81780611D01*
X111817214Y-81788039D01*
X111817214Y-81788041D01*
X111822816Y-81838779D01*
X111834999Y-81949135D01*
X111837565Y-81956147D01*
X111837566Y-81956151D01*
X111864381Y-82029425D01*
X111893266Y-82108356D01*
X111897433Y-82114558D01*
X111897435Y-82114561D01*
X111945791Y-82186522D01*
X111987830Y-82249083D01*
X111993360Y-82254115D01*
X112107702Y-82358159D01*
X112107706Y-82358162D01*
X112113233Y-82363191D01*
X112262235Y-82444092D01*
X112357585Y-82469107D01*
X112419005Y-82485220D01*
X112419007Y-82485220D01*
X112426233Y-82487116D01*
X112509178Y-82488419D01*
X112588290Y-82489662D01*
X112588293Y-82489662D01*
X112595760Y-82489779D01*
X112718209Y-82461735D01*
X112753738Y-82453598D01*
X112753739Y-82453598D01*
X112761029Y-82451928D01*
X112845680Y-82409353D01*
X112905820Y-82379106D01*
X112905822Y-82379105D01*
X112912498Y-82375747D01*
X112918180Y-82370894D01*
X112918183Y-82370892D01*
X113035741Y-82270487D01*
X113041423Y-82265634D01*
X113140361Y-82127947D01*
X113203601Y-81970634D01*
X113204654Y-81963237D01*
X113226918Y-81806800D01*
X113226918Y-81806794D01*
X113227490Y-81802778D01*
X113227645Y-81788000D01*
X113225368Y-81769185D01*
X113208175Y-81627105D01*
X113208174Y-81627101D01*
X113207276Y-81619680D01*
X113187732Y-81567959D01*
X113149989Y-81468073D01*
X113149987Y-81468070D01*
X113147345Y-81461077D01*
X113114883Y-81413844D01*
X113051312Y-81321349D01*
X113054297Y-81319298D01*
X113031153Y-81271367D01*
X113039611Y-81202012D01*
X113084223Y-81148239D01*
X113097768Y-81140315D01*
X113159820Y-81109106D01*
X113159822Y-81109105D01*
X113166498Y-81105747D01*
X113172180Y-81100894D01*
X113172183Y-81100892D01*
X113289741Y-81000487D01*
X113295423Y-80995634D01*
X113365986Y-80897435D01*
X113421091Y-80854480D01*
X113490672Y-80848136D01*
X113554365Y-80882113D01*
X114324377Y-81652125D01*
X114357862Y-81713448D01*
X114359635Y-81755990D01*
X114356394Y-81780611D01*
X114357214Y-81788039D01*
X114357214Y-81788041D01*
X114362816Y-81838779D01*
X114374999Y-81949135D01*
X114377565Y-81956147D01*
X114377566Y-81956151D01*
X114404381Y-82029425D01*
X114433266Y-82108356D01*
X114437433Y-82114558D01*
X114437435Y-82114561D01*
X114485791Y-82186522D01*
X114527830Y-82249083D01*
X114533360Y-82254115D01*
X114647702Y-82358159D01*
X114647706Y-82358162D01*
X114653233Y-82363191D01*
X114802235Y-82444092D01*
X114897585Y-82469107D01*
X114959005Y-82485220D01*
X114959007Y-82485220D01*
X114966233Y-82487116D01*
X115049178Y-82488419D01*
X115128290Y-82489662D01*
X115128293Y-82489662D01*
X115135760Y-82489779D01*
X115258209Y-82461735D01*
X115293738Y-82453598D01*
X115293739Y-82453598D01*
X115301029Y-82451928D01*
X115385680Y-82409353D01*
X115445820Y-82379106D01*
X115445822Y-82379105D01*
X115452498Y-82375747D01*
X115458180Y-82370894D01*
X115458183Y-82370892D01*
X115575741Y-82270487D01*
X115581423Y-82265634D01*
X115680361Y-82127947D01*
X115743601Y-81970634D01*
X115744654Y-81963237D01*
X115766918Y-81806800D01*
X115766918Y-81806794D01*
X115767490Y-81802778D01*
X115767645Y-81788000D01*
X115766349Y-81777287D01*
X115763580Y-81754406D01*
X115775068Y-81685488D01*
X115821993Y-81633721D01*
X115889457Y-81615541D01*
X115956039Y-81636721D01*
X115974363Y-81651829D01*
X119985353Y-85662819D01*
X120018838Y-85724142D01*
X120013854Y-85793834D01*
X119971982Y-85849767D01*
X119906518Y-85874184D01*
X119897672Y-85874500D01*
X119811166Y-85874500D01*
X119808262Y-85874775D01*
X119808252Y-85874775D01*
X119787151Y-85876770D01*
X119787150Y-85876770D01*
X119779631Y-85877481D01*
X119708242Y-85902551D01*
X119660557Y-85919296D01*
X119660555Y-85919297D01*
X119651816Y-85922366D01*
X119644363Y-85927871D01*
X119644361Y-85927872D01*
X119607938Y-85954775D01*
X119542850Y-86002850D01*
X119504593Y-86054646D01*
X119479742Y-86088291D01*
X119424079Y-86130521D01*
X119354421Y-86135953D01*
X119292884Y-86102863D01*
X119280258Y-86088291D01*
X119255407Y-86054646D01*
X119217150Y-86002850D01*
X119152062Y-85954775D01*
X119115639Y-85927872D01*
X119115637Y-85927871D01*
X119108184Y-85922366D01*
X119099445Y-85919297D01*
X119099443Y-85919296D01*
X119051758Y-85902551D01*
X118980369Y-85877481D01*
X118972850Y-85876770D01*
X118972849Y-85876770D01*
X118951748Y-85874775D01*
X118951738Y-85874775D01*
X118948834Y-85874500D01*
X118541166Y-85874500D01*
X118538262Y-85874775D01*
X118538252Y-85874775D01*
X118517151Y-85876770D01*
X118517150Y-85876770D01*
X118509631Y-85877481D01*
X118438242Y-85902551D01*
X118390557Y-85919296D01*
X118390555Y-85919297D01*
X118381816Y-85922366D01*
X118374363Y-85927871D01*
X118374361Y-85927872D01*
X118337938Y-85954775D01*
X118272850Y-86002850D01*
X118234593Y-86054646D01*
X118209742Y-86088291D01*
X118154079Y-86130521D01*
X118084421Y-86135953D01*
X118022884Y-86102863D01*
X118010258Y-86088291D01*
X117985407Y-86054646D01*
X117947150Y-86002850D01*
X117882062Y-85954775D01*
X117845639Y-85927872D01*
X117845637Y-85927871D01*
X117838184Y-85922366D01*
X117829445Y-85919297D01*
X117829443Y-85919296D01*
X117781758Y-85902551D01*
X117710369Y-85877481D01*
X117702850Y-85876770D01*
X117702849Y-85876770D01*
X117681748Y-85874775D01*
X117681738Y-85874775D01*
X117678834Y-85874500D01*
X117271166Y-85874500D01*
X117268262Y-85874775D01*
X117268252Y-85874775D01*
X117247151Y-85876770D01*
X117247150Y-85876770D01*
X117239631Y-85877481D01*
X117168242Y-85902551D01*
X117120557Y-85919296D01*
X117120555Y-85919297D01*
X117111816Y-85922366D01*
X117104363Y-85927871D01*
X117104361Y-85927872D01*
X117067938Y-85954775D01*
X117002850Y-86002850D01*
X116964593Y-86054646D01*
X116939742Y-86088291D01*
X116884079Y-86130521D01*
X116814421Y-86135953D01*
X116752884Y-86102863D01*
X116740258Y-86088291D01*
X116715407Y-86054646D01*
X116677150Y-86002850D01*
X116612062Y-85954775D01*
X116575639Y-85927872D01*
X116575637Y-85927871D01*
X116568184Y-85922366D01*
X116559445Y-85919297D01*
X116559443Y-85919296D01*
X116511758Y-85902551D01*
X116440369Y-85877481D01*
X116432850Y-85876770D01*
X116432849Y-85876770D01*
X116411748Y-85874775D01*
X116411738Y-85874775D01*
X116408834Y-85874500D01*
X116001166Y-85874500D01*
X115998262Y-85874775D01*
X115998252Y-85874775D01*
X115977151Y-85876770D01*
X115977150Y-85876770D01*
X115969631Y-85877481D01*
X115898242Y-85902551D01*
X115850557Y-85919296D01*
X115850555Y-85919297D01*
X115841816Y-85922366D01*
X115834363Y-85927871D01*
X115834361Y-85927872D01*
X115797938Y-85954775D01*
X115732850Y-86002850D01*
X115694593Y-86054646D01*
X115669742Y-86088291D01*
X115614079Y-86130521D01*
X115544421Y-86135953D01*
X115482884Y-86102863D01*
X115470258Y-86088291D01*
X115445407Y-86054646D01*
X115407150Y-86002850D01*
X115342062Y-85954775D01*
X115305639Y-85927872D01*
X115305637Y-85927871D01*
X115298184Y-85922366D01*
X115289445Y-85919297D01*
X115289443Y-85919296D01*
X115241758Y-85902551D01*
X115170369Y-85877481D01*
X115162850Y-85876770D01*
X115162849Y-85876770D01*
X115141748Y-85874775D01*
X115141738Y-85874775D01*
X115138834Y-85874500D01*
X114731166Y-85874500D01*
X114728262Y-85874775D01*
X114728252Y-85874775D01*
X114707151Y-85876770D01*
X114707150Y-85876770D01*
X114699631Y-85877481D01*
X114628242Y-85902551D01*
X114580557Y-85919296D01*
X114580555Y-85919297D01*
X114571816Y-85922366D01*
X114564363Y-85927871D01*
X114564361Y-85927872D01*
X114527938Y-85954775D01*
X114462850Y-86002850D01*
X114424593Y-86054646D01*
X114399742Y-86088291D01*
X114344079Y-86130521D01*
X114274421Y-86135953D01*
X114212884Y-86102863D01*
X114200258Y-86088291D01*
X114175407Y-86054646D01*
X114137150Y-86002850D01*
X114072062Y-85954775D01*
X114035639Y-85927872D01*
X114035637Y-85927871D01*
X114028184Y-85922366D01*
X114019445Y-85919297D01*
X114019443Y-85919296D01*
X113971758Y-85902551D01*
X113900369Y-85877481D01*
X113892850Y-85876770D01*
X113892849Y-85876770D01*
X113871748Y-85874775D01*
X113871738Y-85874775D01*
X113868834Y-85874500D01*
X113461166Y-85874500D01*
X113458262Y-85874775D01*
X113458252Y-85874775D01*
X113437151Y-85876770D01*
X113437150Y-85876770D01*
X113429631Y-85877481D01*
X113358242Y-85902551D01*
X113310557Y-85919296D01*
X113310555Y-85919297D01*
X113301816Y-85922366D01*
X113294363Y-85927871D01*
X113294361Y-85927872D01*
X113257938Y-85954775D01*
X113192850Y-86002850D01*
X113154593Y-86054646D01*
X113129742Y-86088291D01*
X113074079Y-86130521D01*
X113004421Y-86135953D01*
X112942884Y-86102863D01*
X112930258Y-86088291D01*
X112905407Y-86054646D01*
X112867150Y-86002850D01*
X112802062Y-85954775D01*
X112765639Y-85927872D01*
X112765637Y-85927871D01*
X112758184Y-85922366D01*
X112749445Y-85919297D01*
X112749443Y-85919296D01*
X112701758Y-85902551D01*
X112630369Y-85877481D01*
X112622850Y-85876770D01*
X112622849Y-85876770D01*
X112601748Y-85874775D01*
X112601738Y-85874775D01*
X112598834Y-85874500D01*
X112191166Y-85874500D01*
X112188262Y-85874775D01*
X112188252Y-85874775D01*
X112167151Y-85876770D01*
X112167150Y-85876770D01*
X112159631Y-85877481D01*
X112088242Y-85902551D01*
X112040557Y-85919296D01*
X112040555Y-85919297D01*
X112031816Y-85922366D01*
X112024363Y-85927871D01*
X112024361Y-85927872D01*
X111987938Y-85954775D01*
X111922850Y-86002850D01*
X111884593Y-86054646D01*
X111859742Y-86088291D01*
X111804079Y-86130521D01*
X111734421Y-86135953D01*
X111672884Y-86102863D01*
X111660258Y-86088291D01*
X111635407Y-86054646D01*
X111597150Y-86002850D01*
X111532062Y-85954775D01*
X111495639Y-85927872D01*
X111495637Y-85927871D01*
X111488184Y-85922366D01*
X111479445Y-85919297D01*
X111479443Y-85919296D01*
X111431758Y-85902551D01*
X111360369Y-85877481D01*
X111352850Y-85876770D01*
X111352849Y-85876770D01*
X111331748Y-85874775D01*
X111331738Y-85874775D01*
X111328834Y-85874500D01*
X110921166Y-85874500D01*
X110918262Y-85874775D01*
X110918252Y-85874775D01*
X110897151Y-85876770D01*
X110897150Y-85876770D01*
X110889631Y-85877481D01*
X110818242Y-85902551D01*
X110770557Y-85919296D01*
X110770555Y-85919297D01*
X110761816Y-85922366D01*
X110754363Y-85927871D01*
X110754361Y-85927872D01*
X110717938Y-85954775D01*
X110652850Y-86002850D01*
X110614593Y-86054646D01*
X110589742Y-86088291D01*
X110534079Y-86130521D01*
X110464421Y-86135953D01*
X110402884Y-86102863D01*
X110390258Y-86088291D01*
X110365407Y-86054646D01*
X110327150Y-86002850D01*
X110262062Y-85954775D01*
X110225639Y-85927872D01*
X110225637Y-85927871D01*
X110218184Y-85922366D01*
X110209445Y-85919297D01*
X110209443Y-85919296D01*
X110161758Y-85902551D01*
X110090369Y-85877481D01*
X110082850Y-85876770D01*
X110082849Y-85876770D01*
X110061748Y-85874775D01*
X110061738Y-85874775D01*
X110058834Y-85874500D01*
X109651166Y-85874500D01*
X109648262Y-85874775D01*
X109648252Y-85874775D01*
X109627151Y-85876770D01*
X109627150Y-85876770D01*
X109619631Y-85877481D01*
X109548242Y-85902551D01*
X109500557Y-85919296D01*
X109500555Y-85919297D01*
X109491816Y-85922366D01*
X109484363Y-85927871D01*
X109484361Y-85927872D01*
X109435424Y-85964018D01*
X109369804Y-85988014D01*
X109301628Y-85972724D01*
X109262973Y-85935132D01*
X109261436Y-85936324D01*
X109247164Y-85917925D01*
X109142075Y-85812836D01*
X109129839Y-85803345D01*
X109001913Y-85727689D01*
X108987705Y-85721541D01*
X108843579Y-85679669D01*
X108831174Y-85677403D01*
X108803077Y-85675192D01*
X108798197Y-85675000D01*
X108752830Y-85675000D01*
X108737831Y-85679404D01*
X108736644Y-85680774D01*
X108735000Y-85688332D01*
X108735000Y-87226000D01*
X108715315Y-87293039D01*
X108662511Y-87338794D01*
X108611000Y-87350000D01*
X107802830Y-87350000D01*
X107787831Y-87354404D01*
X107786644Y-87355774D01*
X107785000Y-87363332D01*
X107785000Y-88138197D01*
X107785192Y-88143077D01*
X107787403Y-88171174D01*
X107789669Y-88183579D01*
X107828113Y-88315905D01*
X107827914Y-88385774D01*
X107789972Y-88444444D01*
X107726333Y-88473288D01*
X107709037Y-88474500D01*
X104819269Y-88474500D01*
X104796298Y-88481964D01*
X104777383Y-88486504D01*
X104763175Y-88488754D01*
X104763173Y-88488755D01*
X104753536Y-88490281D01*
X104732015Y-88501246D01*
X104714046Y-88508689D01*
X104700363Y-88513135D01*
X104691081Y-88516151D01*
X104683184Y-88521888D01*
X104683183Y-88521889D01*
X104671542Y-88530346D01*
X104654961Y-88540508D01*
X104633442Y-88551472D01*
X104538134Y-88646780D01*
X104538133Y-88646782D01*
X102460733Y-90724181D01*
X102399410Y-90757666D01*
X102373052Y-90760500D01*
X101083102Y-90760500D01*
X101060131Y-90767964D01*
X101041216Y-90772504D01*
X101027008Y-90774754D01*
X101027006Y-90774755D01*
X101017369Y-90776281D01*
X100995848Y-90787246D01*
X100977879Y-90794689D01*
X100954914Y-90802151D01*
X100947017Y-90807888D01*
X100947016Y-90807889D01*
X100935375Y-90816346D01*
X100918794Y-90826508D01*
X100897275Y-90837472D01*
X100801967Y-90932780D01*
X100801966Y-90932782D01*
X100076780Y-91657967D01*
X99981472Y-91753275D01*
X99975367Y-91765257D01*
X99972131Y-91771608D01*
X99924156Y-91822403D01*
X99856334Y-91839197D01*
X99790200Y-91816658D01*
X99777486Y-91806375D01*
X99763381Y-91793337D01*
X99758571Y-91790302D01*
X99589363Y-91683539D01*
X99589361Y-91683538D01*
X99584554Y-91680505D01*
X99388160Y-91602152D01*
X99382579Y-91601042D01*
X99382576Y-91601041D01*
X99261771Y-91577012D01*
X99180775Y-91560901D01*
X99175088Y-91560827D01*
X99175083Y-91560826D01*
X98975034Y-91558207D01*
X98975029Y-91558207D01*
X98969346Y-91558133D01*
X98963742Y-91559096D01*
X98963741Y-91559096D01*
X98766550Y-91592979D01*
X98766547Y-91592980D01*
X98760953Y-91593941D01*
X98562575Y-91667127D01*
X98557697Y-91670029D01*
X98557695Y-91670030D01*
X98385740Y-91772332D01*
X98385737Y-91772334D01*
X98380856Y-91775238D01*
X98221881Y-91914655D01*
X98218362Y-91919119D01*
X98218359Y-91919122D01*
X98174299Y-91975013D01*
X98090976Y-92080708D01*
X97992523Y-92267836D01*
X97990837Y-92273267D01*
X97990835Y-92273271D01*
X97969339Y-92342500D01*
X97929820Y-92469773D01*
X97929152Y-92475418D01*
X97929151Y-92475422D01*
X97913830Y-92604868D01*
X97904967Y-92679754D01*
X97905338Y-92685416D01*
X97905338Y-92685420D01*
X97909604Y-92750500D01*
X97918796Y-92890749D01*
X97970845Y-93095690D01*
X97973219Y-93100841D01*
X97973221Y-93100845D01*
X98040599Y-93246998D01*
X98059369Y-93287714D01*
X98062647Y-93292352D01*
X98176085Y-93452863D01*
X98181405Y-93460391D01*
X98185476Y-93464357D01*
X98185477Y-93464358D01*
X98230898Y-93508605D01*
X98332865Y-93607937D01*
X98337588Y-93611093D01*
X98337592Y-93611096D01*
X98397910Y-93651399D01*
X98508677Y-93725411D01*
X98513903Y-93727656D01*
X98513908Y-93727659D01*
X98580322Y-93756192D01*
X98634148Y-93800741D01*
X98655343Y-93867318D01*
X98637180Y-93934785D01*
X98583780Y-93982504D01*
X98387333Y-94074110D01*
X98377983Y-94079508D01*
X98193357Y-94208784D01*
X98185093Y-94215719D01*
X98025719Y-94375093D01*
X98018784Y-94383357D01*
X97889508Y-94567983D01*
X97884110Y-94577333D01*
X97788857Y-94781603D01*
X97785168Y-94791736D01*
X97726830Y-95009456D01*
X97724960Y-95020067D01*
X97719520Y-95082241D01*
X97722476Y-95096950D01*
X97734041Y-95100000D01*
X99780500Y-95100000D01*
X99847539Y-95119685D01*
X99893294Y-95172489D01*
X99904500Y-95224000D01*
X99904500Y-95276000D01*
X99884815Y-95343039D01*
X99832011Y-95388794D01*
X99780500Y-95400000D01*
X97735796Y-95400000D01*
X97721398Y-95404228D01*
X97719367Y-95416016D01*
X97724960Y-95479933D01*
X97726830Y-95490544D01*
X97785168Y-95708264D01*
X97788857Y-95718397D01*
X97884110Y-95922667D01*
X97889508Y-95932017D01*
X98018784Y-96116643D01*
X98025719Y-96124907D01*
X98185091Y-96284279D01*
X98193357Y-96291215D01*
X98368604Y-96413925D01*
X98412228Y-96468502D01*
X98419421Y-96538001D01*
X98387899Y-96600355D01*
X98327669Y-96635769D01*
X98297480Y-96639500D01*
X98165354Y-96639500D01*
X98161700Y-96639935D01*
X98161698Y-96639935D01*
X98156734Y-96640526D01*
X98139154Y-96642618D01*
X98036847Y-96688061D01*
X97957759Y-96767287D01*
X97953130Y-96777758D01*
X97953129Y-96777759D01*
X97934048Y-96820920D01*
X97912494Y-96869673D01*
X97909500Y-96895354D01*
X97909500Y-98684646D01*
X97912618Y-98710846D01*
X97958061Y-98813153D01*
X98037287Y-98892241D01*
X98061826Y-98903090D01*
X98115180Y-98948200D01*
X98135676Y-99014996D01*
X98116806Y-99082269D01*
X98064561Y-99128661D01*
X98011685Y-99140500D01*
X94017139Y-99140500D01*
X93995609Y-99138616D01*
X93980000Y-99135864D01*
X93969315Y-99137748D01*
X93959661Y-99137748D01*
X93945722Y-99138575D01*
X93851065Y-99133259D01*
X93693549Y-99124413D01*
X93679732Y-99122856D01*
X93403753Y-99075966D01*
X93390195Y-99072872D01*
X93373323Y-99068011D01*
X93121194Y-98995373D01*
X93108068Y-98990780D01*
X92849443Y-98883654D01*
X92836915Y-98877621D01*
X92591899Y-98742206D01*
X92580125Y-98734807D01*
X92351831Y-98572823D01*
X92340959Y-98564154D01*
X92132220Y-98377613D01*
X92122387Y-98367780D01*
X91935846Y-98159041D01*
X91927177Y-98148169D01*
X91765193Y-97919875D01*
X91757794Y-97908101D01*
X91622379Y-97663085D01*
X91616346Y-97650557D01*
X91509220Y-97391932D01*
X91504627Y-97378807D01*
X91427128Y-97109805D01*
X91424034Y-97096247D01*
X91377144Y-96820268D01*
X91375587Y-96806451D01*
X91361425Y-96554280D01*
X91362252Y-96540339D01*
X91362252Y-96530685D01*
X91364136Y-96520000D01*
X91674564Y-96520000D01*
X91674829Y-96524043D01*
X91685275Y-96683414D01*
X91694287Y-96820920D01*
X91753120Y-97116691D01*
X91754425Y-97120535D01*
X91846552Y-97391932D01*
X91850055Y-97402252D01*
X91983434Y-97672718D01*
X92150975Y-97923461D01*
X92349811Y-98150189D01*
X92576539Y-98349025D01*
X92827282Y-98516566D01*
X93097748Y-98649945D01*
X93101588Y-98651248D01*
X93101594Y-98651251D01*
X93302202Y-98719348D01*
X93383309Y-98746880D01*
X93679080Y-98805713D01*
X93683121Y-98805978D01*
X93683122Y-98805978D01*
X93902672Y-98820368D01*
X93902680Y-98820368D01*
X93904690Y-98820500D01*
X94055310Y-98820500D01*
X94057320Y-98820368D01*
X94057328Y-98820368D01*
X94276878Y-98805978D01*
X94276879Y-98805978D01*
X94280920Y-98805713D01*
X94576691Y-98746880D01*
X94657798Y-98719348D01*
X94858406Y-98651251D01*
X94858412Y-98651248D01*
X94862252Y-98649945D01*
X95132718Y-98516566D01*
X95383461Y-98349025D01*
X95610189Y-98150189D01*
X95809025Y-97923461D01*
X95976566Y-97672718D01*
X96109945Y-97402252D01*
X96113449Y-97391932D01*
X96205575Y-97120535D01*
X96206880Y-97116691D01*
X96265713Y-96820920D01*
X96274726Y-96683414D01*
X96285171Y-96524043D01*
X96285436Y-96520000D01*
X96265713Y-96219080D01*
X96206880Y-95923309D01*
X96109945Y-95637748D01*
X95976566Y-95367282D01*
X95836034Y-95156961D01*
X95811285Y-95119921D01*
X95811283Y-95119919D01*
X95809025Y-95116539D01*
X95610189Y-94889811D01*
X95383461Y-94690975D01*
X95132718Y-94523434D01*
X94862252Y-94390055D01*
X94858412Y-94388752D01*
X94858406Y-94388749D01*
X94580535Y-94294425D01*
X94576691Y-94293120D01*
X94280920Y-94234287D01*
X94276879Y-94234022D01*
X94276878Y-94234022D01*
X94057328Y-94219632D01*
X94057320Y-94219632D01*
X94055310Y-94219500D01*
X93904690Y-94219500D01*
X93902680Y-94219632D01*
X93902672Y-94219632D01*
X93683122Y-94234022D01*
X93683121Y-94234022D01*
X93679080Y-94234287D01*
X93383309Y-94293120D01*
X93379465Y-94294425D01*
X93101594Y-94388749D01*
X93101588Y-94388752D01*
X93097748Y-94390055D01*
X92827282Y-94523434D01*
X92576539Y-94690975D01*
X92349811Y-94889811D01*
X92150975Y-95116539D01*
X92148717Y-95119919D01*
X92148715Y-95119921D01*
X92123966Y-95156961D01*
X91983434Y-95367282D01*
X91850055Y-95637748D01*
X91753120Y-95923309D01*
X91694287Y-96219080D01*
X91674564Y-96520000D01*
X91364136Y-96520000D01*
X91361384Y-96504391D01*
X91359500Y-96482861D01*
X91359500Y-92494646D01*
X91809500Y-92494646D01*
X91812618Y-92520846D01*
X91858061Y-92623153D01*
X91937287Y-92702241D01*
X91947758Y-92706870D01*
X91947759Y-92706871D01*
X92031147Y-92743737D01*
X92031149Y-92743738D01*
X92039673Y-92747506D01*
X92065354Y-92750500D01*
X93354646Y-92750500D01*
X93358300Y-92750065D01*
X93358302Y-92750065D01*
X93363266Y-92749474D01*
X93380846Y-92747382D01*
X93483153Y-92701939D01*
X93562241Y-92622713D01*
X93566871Y-92612241D01*
X93603737Y-92528853D01*
X93603738Y-92528851D01*
X93607506Y-92520327D01*
X93610500Y-92494646D01*
X93610500Y-92493972D01*
X94150000Y-92493972D01*
X94150363Y-92500669D01*
X94155803Y-92550744D01*
X94159371Y-92565753D01*
X94203817Y-92684311D01*
X94212212Y-92699646D01*
X94287516Y-92800124D01*
X94299876Y-92812484D01*
X94400354Y-92887788D01*
X94415689Y-92896183D01*
X94534247Y-92940629D01*
X94549256Y-92944197D01*
X94599331Y-92949637D01*
X94606028Y-92950000D01*
X95082170Y-92950000D01*
X95097169Y-92945596D01*
X95098356Y-92944226D01*
X95100000Y-92936668D01*
X95100000Y-92932170D01*
X95400000Y-92932170D01*
X95404404Y-92947169D01*
X95405774Y-92948356D01*
X95413332Y-92950000D01*
X95893972Y-92950000D01*
X95900669Y-92949637D01*
X95950744Y-92944197D01*
X95965753Y-92940629D01*
X96084311Y-92896183D01*
X96099646Y-92887788D01*
X96200124Y-92812484D01*
X96212484Y-92800124D01*
X96287788Y-92699646D01*
X96296183Y-92684311D01*
X96340629Y-92565753D01*
X96344197Y-92550744D01*
X96349637Y-92500669D01*
X96350000Y-92493972D01*
X96350000Y-92242830D01*
X96345596Y-92227831D01*
X96344226Y-92226644D01*
X96336668Y-92225000D01*
X95417830Y-92225000D01*
X95402831Y-92229404D01*
X95401644Y-92230774D01*
X95400000Y-92238332D01*
X95400000Y-92932170D01*
X95100000Y-92932170D01*
X95100000Y-92242830D01*
X95095596Y-92227831D01*
X95094226Y-92226644D01*
X95086668Y-92225000D01*
X94167830Y-92225000D01*
X94152831Y-92229404D01*
X94151644Y-92230774D01*
X94150000Y-92238332D01*
X94150000Y-92493972D01*
X93610500Y-92493972D01*
X93610500Y-91907170D01*
X94150000Y-91907170D01*
X94154404Y-91922169D01*
X94155774Y-91923356D01*
X94163332Y-91925000D01*
X95082170Y-91925000D01*
X95097169Y-91920596D01*
X95098356Y-91919226D01*
X95100000Y-91911668D01*
X95100000Y-91907170D01*
X95400000Y-91907170D01*
X95404404Y-91922169D01*
X95405774Y-91923356D01*
X95413332Y-91925000D01*
X96332170Y-91925000D01*
X96347169Y-91920596D01*
X96348356Y-91919226D01*
X96350000Y-91911668D01*
X96350000Y-91656028D01*
X96349637Y-91649331D01*
X96344197Y-91599256D01*
X96340629Y-91584247D01*
X96296183Y-91465689D01*
X96287788Y-91450354D01*
X96212484Y-91349876D01*
X96200124Y-91337516D01*
X96099646Y-91262212D01*
X96084311Y-91253817D01*
X95965753Y-91209371D01*
X95950744Y-91205803D01*
X95900669Y-91200363D01*
X95893972Y-91200000D01*
X95417830Y-91200000D01*
X95402831Y-91204404D01*
X95401644Y-91205774D01*
X95400000Y-91213332D01*
X95400000Y-91907170D01*
X95100000Y-91907170D01*
X95100000Y-91217830D01*
X95095596Y-91202831D01*
X95094226Y-91201644D01*
X95086668Y-91200000D01*
X94606028Y-91200000D01*
X94599331Y-91200363D01*
X94549256Y-91205803D01*
X94534247Y-91209371D01*
X94415689Y-91253817D01*
X94400354Y-91262212D01*
X94299876Y-91337516D01*
X94287516Y-91349876D01*
X94212212Y-91450354D01*
X94203817Y-91465689D01*
X94159371Y-91584247D01*
X94155803Y-91599256D01*
X94150363Y-91649331D01*
X94150000Y-91656028D01*
X94150000Y-91907170D01*
X93610500Y-91907170D01*
X93610500Y-91655354D01*
X93607382Y-91629154D01*
X93561939Y-91526847D01*
X93482713Y-91447759D01*
X93472242Y-91443130D01*
X93472241Y-91443129D01*
X93388853Y-91406263D01*
X93388851Y-91406262D01*
X93380327Y-91402494D01*
X93354646Y-91399500D01*
X93259500Y-91399500D01*
X93192461Y-91379815D01*
X93146706Y-91327011D01*
X93135500Y-91275500D01*
X93135500Y-91159610D01*
X93155185Y-91092571D01*
X93171819Y-91071929D01*
X93693528Y-90550220D01*
X93704490Y-90528705D01*
X93714655Y-90512118D01*
X93723113Y-90500478D01*
X93723115Y-90500475D01*
X93728850Y-90492581D01*
X93736313Y-90469611D01*
X93743758Y-90451638D01*
X93749826Y-90439730D01*
X93754719Y-90430126D01*
X93758497Y-90406274D01*
X93763038Y-90387358D01*
X93770500Y-90364393D01*
X93770500Y-90053110D01*
X93790185Y-89986071D01*
X93833911Y-89944921D01*
X93896483Y-89909879D01*
X93999442Y-89852219D01*
X94005106Y-89847509D01*
X94157645Y-89720644D01*
X94162012Y-89717012D01*
X94184778Y-89689639D01*
X94293584Y-89558813D01*
X94293585Y-89558811D01*
X94297219Y-89554442D01*
X94343078Y-89472556D01*
X94397756Y-89374922D01*
X94397759Y-89374916D01*
X94400537Y-89369955D01*
X94430755Y-89280937D01*
X94466675Y-89175118D01*
X94468504Y-89169730D01*
X94498846Y-88960470D01*
X94500429Y-88900000D01*
X94481081Y-88689440D01*
X94423686Y-88485931D01*
X94330165Y-88296290D01*
X94203651Y-88126867D01*
X94199481Y-88123012D01*
X94199478Y-88123009D01*
X94135319Y-88063702D01*
X94048381Y-87983337D01*
X93977904Y-87938869D01*
X93931712Y-87886449D01*
X93921192Y-87817376D01*
X93949687Y-87753581D01*
X94008148Y-87715318D01*
X94044073Y-87710000D01*
X94238972Y-87710000D01*
X94245669Y-87709637D01*
X94295744Y-87704197D01*
X94310753Y-87700629D01*
X94429311Y-87656183D01*
X94444646Y-87647788D01*
X94545124Y-87572484D01*
X94557484Y-87560124D01*
X94632788Y-87459646D01*
X94641183Y-87444311D01*
X94685629Y-87325753D01*
X94689197Y-87310744D01*
X94694637Y-87260669D01*
X94695000Y-87253972D01*
X94695000Y-86527830D01*
X94690596Y-86512831D01*
X94689226Y-86511644D01*
X94681668Y-86510000D01*
X92012830Y-86510000D01*
X91997831Y-86514404D01*
X91996644Y-86515774D01*
X91995000Y-86523332D01*
X91995000Y-87253972D01*
X91995363Y-87260669D01*
X92000803Y-87310744D01*
X92004371Y-87325753D01*
X92048817Y-87444311D01*
X92057212Y-87459646D01*
X92132516Y-87560124D01*
X92144876Y-87572484D01*
X92245354Y-87647788D01*
X92260689Y-87656183D01*
X92379247Y-87700629D01*
X92394256Y-87704197D01*
X92444331Y-87709637D01*
X92451028Y-87710000D01*
X92643924Y-87710000D01*
X92710963Y-87729685D01*
X92756718Y-87782489D01*
X92766662Y-87851647D01*
X92737637Y-87915203D01*
X92707325Y-87940566D01*
X92673023Y-87960974D01*
X92665856Y-87965238D01*
X92506881Y-88104655D01*
X92503362Y-88109119D01*
X92503359Y-88109122D01*
X92462960Y-88160369D01*
X92375976Y-88270708D01*
X92277523Y-88457836D01*
X92275837Y-88463267D01*
X92275835Y-88463271D01*
X92227019Y-88620487D01*
X92214820Y-88659773D01*
X92214152Y-88665418D01*
X92214151Y-88665422D01*
X92191307Y-88858430D01*
X92189967Y-88869754D01*
X92190338Y-88875416D01*
X92190338Y-88875420D01*
X92191949Y-88900000D01*
X92203796Y-89080749D01*
X92255845Y-89285690D01*
X92258219Y-89290841D01*
X92258221Y-89290845D01*
X92327090Y-89440233D01*
X92344369Y-89477714D01*
X92347647Y-89482352D01*
X92462082Y-89644274D01*
X92466405Y-89650391D01*
X92470476Y-89654357D01*
X92470477Y-89654358D01*
X92474716Y-89658487D01*
X92617865Y-89797937D01*
X92622588Y-89801093D01*
X92622592Y-89801096D01*
X92693663Y-89848584D01*
X92793677Y-89915411D01*
X92798906Y-89917657D01*
X92798905Y-89917657D01*
X92844448Y-89937224D01*
X92898273Y-89981773D01*
X92919500Y-90051154D01*
X92919500Y-90069390D01*
X92899815Y-90136429D01*
X92883181Y-90157071D01*
X92361472Y-90678780D01*
X92350509Y-90700297D01*
X92340346Y-90716881D01*
X92331884Y-90728527D01*
X92331882Y-90728531D01*
X92326151Y-90736419D01*
X92323136Y-90745698D01*
X92318689Y-90759384D01*
X92311246Y-90777353D01*
X92300281Y-90798874D01*
X92298755Y-90808511D01*
X92298754Y-90808513D01*
X92296504Y-90822721D01*
X92291964Y-90841636D01*
X92284500Y-90864607D01*
X92284500Y-91275500D01*
X92264815Y-91342539D01*
X92212011Y-91388294D01*
X92160500Y-91399500D01*
X92065354Y-91399500D01*
X92061700Y-91399935D01*
X92061698Y-91399935D01*
X92056734Y-91400526D01*
X92039154Y-91402618D01*
X91936847Y-91448061D01*
X91857759Y-91527287D01*
X91853130Y-91537758D01*
X91853129Y-91537759D01*
X91817097Y-91619262D01*
X91812494Y-91629673D01*
X91809500Y-91655354D01*
X91809500Y-92494646D01*
X91359500Y-92494646D01*
X91359500Y-86192170D01*
X91995000Y-86192170D01*
X91999404Y-86207169D01*
X92000774Y-86208356D01*
X92008332Y-86210000D01*
X93177170Y-86210000D01*
X93192169Y-86205596D01*
X93193356Y-86204226D01*
X93195000Y-86196668D01*
X93195000Y-86192170D01*
X93495000Y-86192170D01*
X93499404Y-86207169D01*
X93500774Y-86208356D01*
X93508332Y-86210000D01*
X94677170Y-86210000D01*
X94692169Y-86205596D01*
X94693356Y-86204226D01*
X94695000Y-86196668D01*
X94695000Y-85466028D01*
X94694637Y-85459331D01*
X94689197Y-85409256D01*
X94685629Y-85394247D01*
X94641183Y-85275689D01*
X94632788Y-85260354D01*
X94557484Y-85159876D01*
X94545124Y-85147516D01*
X94444646Y-85072212D01*
X94429311Y-85063817D01*
X94310753Y-85019371D01*
X94295744Y-85015803D01*
X94245669Y-85010363D01*
X94238972Y-85010000D01*
X93512830Y-85010000D01*
X93497831Y-85014404D01*
X93496644Y-85015774D01*
X93495000Y-85023332D01*
X93495000Y-86192170D01*
X93195000Y-86192170D01*
X93195000Y-85027830D01*
X93190596Y-85012831D01*
X93189226Y-85011644D01*
X93181668Y-85010000D01*
X92451028Y-85010000D01*
X92444331Y-85010363D01*
X92394256Y-85015803D01*
X92379247Y-85019371D01*
X92260689Y-85063817D01*
X92245354Y-85072212D01*
X92144876Y-85147516D01*
X92132516Y-85159876D01*
X92057212Y-85260354D01*
X92048817Y-85275689D01*
X92004371Y-85394247D01*
X92000803Y-85409256D01*
X91995363Y-85459331D01*
X91995000Y-85466028D01*
X91995000Y-86192170D01*
X91359500Y-86192170D01*
X91359500Y-83706636D01*
X91622501Y-83706636D01*
X91622831Y-83713015D01*
X91632651Y-83807669D01*
X91635497Y-83820849D01*
X91686420Y-83973481D01*
X91692491Y-83986443D01*
X91776938Y-84122907D01*
X91785825Y-84134120D01*
X91899404Y-84247501D01*
X91910635Y-84256370D01*
X92047241Y-84340575D01*
X92060218Y-84346627D01*
X92212946Y-84397285D01*
X92226113Y-84400108D01*
X92319519Y-84409678D01*
X92325825Y-84410000D01*
X92542170Y-84410000D01*
X92557169Y-84405596D01*
X92558356Y-84404226D01*
X92560000Y-84396668D01*
X92560000Y-84392169D01*
X92860000Y-84392169D01*
X92864404Y-84407168D01*
X92865774Y-84408355D01*
X92873332Y-84409999D01*
X93094136Y-84409999D01*
X93100515Y-84409669D01*
X93195171Y-84399849D01*
X93208349Y-84397003D01*
X93360981Y-84346080D01*
X93373943Y-84340009D01*
X93510407Y-84255562D01*
X93521620Y-84246675D01*
X93635001Y-84133096D01*
X93643870Y-84121865D01*
X93728075Y-83985259D01*
X93734129Y-83972277D01*
X93739614Y-83955741D01*
X93779403Y-83898308D01*
X93843927Y-83871504D01*
X93912699Y-83883839D01*
X93962924Y-83931612D01*
X93963387Y-83932783D01*
X93968499Y-83939517D01*
X93968499Y-83939518D01*
X94011255Y-83995847D01*
X94054578Y-84052922D01*
X94061310Y-84058032D01*
X94165361Y-84137011D01*
X94174717Y-84144113D01*
X94182578Y-84147225D01*
X94182579Y-84147226D01*
X94214530Y-84159876D01*
X94314735Y-84199550D01*
X94369819Y-84242529D01*
X94379568Y-84258539D01*
X94386247Y-84271649D01*
X94393689Y-84289616D01*
X94401151Y-84312581D01*
X94406882Y-84320469D01*
X94406884Y-84320473D01*
X94415346Y-84332119D01*
X94425509Y-84348703D01*
X94436472Y-84370220D01*
X95020377Y-84954125D01*
X95053862Y-85015448D01*
X95055635Y-85057990D01*
X95052394Y-85082611D01*
X95053214Y-85090039D01*
X95053214Y-85090041D01*
X95060283Y-85154074D01*
X95070999Y-85251135D01*
X95073565Y-85258147D01*
X95073566Y-85258151D01*
X95108291Y-85353039D01*
X95129266Y-85410356D01*
X95133433Y-85416558D01*
X95133435Y-85416561D01*
X95166676Y-85466028D01*
X95223830Y-85551083D01*
X95229360Y-85556115D01*
X95343702Y-85660159D01*
X95343706Y-85660162D01*
X95349233Y-85665191D01*
X95498235Y-85746092D01*
X95593585Y-85771107D01*
X95655005Y-85787220D01*
X95655007Y-85787220D01*
X95662233Y-85789116D01*
X95745178Y-85790419D01*
X95824290Y-85791662D01*
X95824293Y-85791662D01*
X95831760Y-85791779D01*
X95954209Y-85763735D01*
X95989738Y-85755598D01*
X95989739Y-85755598D01*
X95997029Y-85753928D01*
X96118509Y-85692830D01*
X96141820Y-85681106D01*
X96141822Y-85681105D01*
X96148498Y-85677747D01*
X96154180Y-85672894D01*
X96154183Y-85672892D01*
X96271741Y-85572487D01*
X96277423Y-85567634D01*
X96376361Y-85429947D01*
X96439601Y-85272634D01*
X96440677Y-85265072D01*
X96462918Y-85108800D01*
X96462918Y-85108794D01*
X96463490Y-85104778D01*
X96463622Y-85092170D01*
X99030000Y-85092170D01*
X99034404Y-85107169D01*
X99035774Y-85108356D01*
X99043332Y-85110000D01*
X100162170Y-85110000D01*
X100177169Y-85105596D01*
X100178356Y-85104226D01*
X100180000Y-85096668D01*
X100180000Y-84027830D01*
X100175596Y-84012831D01*
X100174226Y-84011644D01*
X100166668Y-84010000D01*
X99486028Y-84010000D01*
X99479331Y-84010363D01*
X99429256Y-84015803D01*
X99414247Y-84019371D01*
X99295689Y-84063817D01*
X99280354Y-84072212D01*
X99179876Y-84147516D01*
X99167516Y-84159876D01*
X99092212Y-84260354D01*
X99083817Y-84275689D01*
X99039371Y-84394247D01*
X99035803Y-84409256D01*
X99030363Y-84459331D01*
X99030000Y-84466028D01*
X99030000Y-85092170D01*
X96463622Y-85092170D01*
X96463645Y-85090000D01*
X96459763Y-85057919D01*
X96444175Y-84929105D01*
X96444174Y-84929101D01*
X96443276Y-84921680D01*
X96425248Y-84873970D01*
X96385989Y-84770073D01*
X96385987Y-84770070D01*
X96383345Y-84763077D01*
X96379108Y-84756912D01*
X96291549Y-84629513D01*
X96291546Y-84629510D01*
X96287312Y-84623349D01*
X96160721Y-84510560D01*
X96010881Y-84431224D01*
X95846441Y-84389919D01*
X95709665Y-84389203D01*
X95642730Y-84369168D01*
X95622634Y-84352886D01*
X95505916Y-84236168D01*
X95472431Y-84174845D01*
X95477415Y-84105153D01*
X95505916Y-84060806D01*
X95508691Y-84058031D01*
X95515422Y-84052922D01*
X95558745Y-83995847D01*
X95601501Y-83939518D01*
X95601501Y-83939517D01*
X95606613Y-83932783D01*
X95613133Y-83916317D01*
X95659204Y-83799953D01*
X95659204Y-83799951D01*
X95662136Y-83792547D01*
X95673000Y-83702772D01*
X95673000Y-82667228D01*
X95662136Y-82577453D01*
X95656862Y-82564132D01*
X95609726Y-82445079D01*
X95609725Y-82445078D01*
X95606613Y-82437217D01*
X95592027Y-82418000D01*
X95520532Y-82323810D01*
X95515422Y-82317078D01*
X95448393Y-82266200D01*
X95402018Y-82230999D01*
X95402017Y-82230999D01*
X95395283Y-82225887D01*
X95387422Y-82222775D01*
X95387421Y-82222774D01*
X95262453Y-82173296D01*
X95262451Y-82173296D01*
X95255047Y-82170364D01*
X95247143Y-82169408D01*
X95247141Y-82169407D01*
X95194427Y-82163028D01*
X95165272Y-82159500D01*
X94404728Y-82159500D01*
X94375573Y-82163028D01*
X94322859Y-82169407D01*
X94322857Y-82169408D01*
X94314953Y-82170364D01*
X94307549Y-82173296D01*
X94307547Y-82173296D01*
X94182579Y-82222774D01*
X94182578Y-82222775D01*
X94174717Y-82225887D01*
X94167983Y-82230999D01*
X94167982Y-82230999D01*
X94121607Y-82266200D01*
X94054578Y-82317078D01*
X93963387Y-82437217D01*
X93962851Y-82438572D01*
X93915207Y-82484961D01*
X93846743Y-82498902D01*
X93781609Y-82473615D01*
X93739610Y-82414592D01*
X93733579Y-82396517D01*
X93727509Y-82383557D01*
X93643062Y-82247093D01*
X93634175Y-82235880D01*
X93520596Y-82122499D01*
X93509365Y-82113630D01*
X93372759Y-82029425D01*
X93359782Y-82023373D01*
X93207054Y-81972715D01*
X93193887Y-81969892D01*
X93100481Y-81960322D01*
X93094175Y-81960000D01*
X92877830Y-81960000D01*
X92862831Y-81964404D01*
X92861644Y-81965774D01*
X92860000Y-81973332D01*
X92860000Y-84392169D01*
X92560000Y-84392169D01*
X92560000Y-83352830D01*
X92555596Y-83337831D01*
X92554226Y-83336644D01*
X92546668Y-83335000D01*
X91640331Y-83335000D01*
X91625332Y-83339404D01*
X91624145Y-83340774D01*
X91622501Y-83348332D01*
X91622501Y-83706636D01*
X91359500Y-83706636D01*
X91359500Y-83017170D01*
X91622500Y-83017170D01*
X91626904Y-83032169D01*
X91628274Y-83033356D01*
X91635832Y-83035000D01*
X92542170Y-83035000D01*
X92557169Y-83030596D01*
X92558356Y-83029226D01*
X92560000Y-83021668D01*
X92560000Y-81977831D01*
X92555596Y-81962832D01*
X92554226Y-81961645D01*
X92546668Y-81960001D01*
X92325864Y-81960001D01*
X92319485Y-81960331D01*
X92224829Y-81970151D01*
X92211651Y-81972997D01*
X92059019Y-82023920D01*
X92046057Y-82029991D01*
X91909593Y-82114438D01*
X91898380Y-82123325D01*
X91784999Y-82236904D01*
X91776130Y-82248135D01*
X91691925Y-82384741D01*
X91685873Y-82397718D01*
X91635215Y-82550446D01*
X91632392Y-82563613D01*
X91622822Y-82657019D01*
X91622500Y-82663325D01*
X91622500Y-83017170D01*
X91359500Y-83017170D01*
X91359500Y-81726308D01*
X96561001Y-81726308D01*
X96561331Y-81732687D01*
X96570970Y-81825596D01*
X96573817Y-81838779D01*
X96623816Y-81988643D01*
X96629885Y-82001599D01*
X96712800Y-82135590D01*
X96721689Y-82146805D01*
X96833207Y-82258128D01*
X96844430Y-82266991D01*
X96978568Y-82349675D01*
X96991529Y-82355719D01*
X97141499Y-82405462D01*
X97154665Y-82408284D01*
X97246346Y-82417678D01*
X97252654Y-82418000D01*
X97368170Y-82418000D01*
X97383169Y-82413596D01*
X97384356Y-82412226D01*
X97386000Y-82404668D01*
X97386000Y-82400169D01*
X97686000Y-82400169D01*
X97690404Y-82415168D01*
X97691774Y-82416355D01*
X97699332Y-82417999D01*
X97819308Y-82417999D01*
X97825687Y-82417669D01*
X97918596Y-82408030D01*
X97931779Y-82405183D01*
X98081643Y-82355184D01*
X98094599Y-82349115D01*
X98228590Y-82266200D01*
X98239805Y-82257311D01*
X98351128Y-82145793D01*
X98359991Y-82134570D01*
X98442675Y-82000432D01*
X98448719Y-81987471D01*
X98498462Y-81837501D01*
X98501284Y-81824335D01*
X98510678Y-81732654D01*
X98511000Y-81726346D01*
X98511000Y-81598330D01*
X98506596Y-81583331D01*
X98505226Y-81582144D01*
X98497668Y-81580500D01*
X97703830Y-81580500D01*
X97688831Y-81584904D01*
X97687644Y-81586274D01*
X97686000Y-81593832D01*
X97686000Y-82400169D01*
X97386000Y-82400169D01*
X97386000Y-81598330D01*
X97381596Y-81583331D01*
X97380226Y-81582144D01*
X97372668Y-81580500D01*
X96578831Y-81580500D01*
X96563832Y-81584904D01*
X96562645Y-81586274D01*
X96561001Y-81593832D01*
X96561001Y-81726308D01*
X91359500Y-81726308D01*
X91359500Y-81262670D01*
X96561000Y-81262670D01*
X96565404Y-81277669D01*
X96566774Y-81278856D01*
X96574332Y-81280500D01*
X98493169Y-81280500D01*
X98508168Y-81276096D01*
X98509355Y-81274726D01*
X98510999Y-81267168D01*
X98510999Y-81134692D01*
X98510669Y-81128313D01*
X98501030Y-81035404D01*
X98498183Y-81022221D01*
X98448184Y-80872357D01*
X98442115Y-80859401D01*
X98359200Y-80725410D01*
X98350311Y-80714195D01*
X98238793Y-80602872D01*
X98227570Y-80594009D01*
X98087303Y-80507547D01*
X98088637Y-80505382D01*
X98045148Y-80467096D01*
X98025991Y-80399904D01*
X98046202Y-80333022D01*
X98075016Y-80302110D01*
X98150767Y-80244611D01*
X98150769Y-80244609D01*
X98157500Y-80239500D01*
X98246620Y-80122089D01*
X98251661Y-80109357D01*
X98294640Y-80054270D01*
X98366955Y-80031000D01*
X99150893Y-80031000D01*
X99173864Y-80023536D01*
X99192779Y-80018996D01*
X99206987Y-80016746D01*
X99206989Y-80016745D01*
X99216626Y-80015219D01*
X99238147Y-80004254D01*
X99256116Y-79996811D01*
X99269802Y-79992364D01*
X99279081Y-79989349D01*
X99286969Y-79983618D01*
X99286973Y-79983616D01*
X99298619Y-79975154D01*
X99315203Y-79964991D01*
X99336720Y-79954028D01*
X100088929Y-79201819D01*
X100150252Y-79168334D01*
X100176610Y-79165500D01*
X100394758Y-79165500D01*
X100461797Y-79185185D01*
X100507367Y-79237585D01*
X100553502Y-79337658D01*
X100553506Y-79337665D01*
X100555883Y-79342821D01*
X100559161Y-79347459D01*
X100678851Y-79516817D01*
X100683222Y-79523002D01*
X100687293Y-79526968D01*
X100687294Y-79526969D01*
X100837190Y-79672993D01*
X100837195Y-79672997D01*
X100841264Y-79676961D01*
X100845987Y-79680117D01*
X100845991Y-79680120D01*
X100930185Y-79736376D01*
X101024717Y-79799540D01*
X101029945Y-79801786D01*
X101122544Y-79841570D01*
X101176369Y-79886119D01*
X101197564Y-79952697D01*
X101179400Y-80020164D01*
X101127644Y-80067101D01*
X101073596Y-80079500D01*
X100655354Y-80079500D01*
X100651700Y-80079935D01*
X100651698Y-80079935D01*
X100646734Y-80080526D01*
X100629154Y-80082618D01*
X100526847Y-80128061D01*
X100447759Y-80207287D01*
X100443130Y-80217758D01*
X100443129Y-80217759D01*
X100419978Y-80270126D01*
X100402494Y-80309673D01*
X100399500Y-80335354D01*
X100399500Y-82224646D01*
X100402618Y-82250846D01*
X100448061Y-82353153D01*
X100527287Y-82432241D01*
X100537758Y-82436870D01*
X100537759Y-82436871D01*
X100621147Y-82473737D01*
X100621149Y-82473738D01*
X100629673Y-82477506D01*
X100655354Y-82480500D01*
X102544646Y-82480500D01*
X102548300Y-82480065D01*
X102548302Y-82480065D01*
X102553266Y-82479474D01*
X102570846Y-82477382D01*
X102673153Y-82431939D01*
X102752241Y-82352713D01*
X102765019Y-82323810D01*
X102793737Y-82258853D01*
X102793738Y-82258851D01*
X102797506Y-82250327D01*
X102800500Y-82224646D01*
X102800500Y-80335354D01*
X102797382Y-80309154D01*
X102751939Y-80206847D01*
X102672713Y-80127759D01*
X102662242Y-80123130D01*
X102662241Y-80123129D01*
X102578853Y-80086263D01*
X102578851Y-80086262D01*
X102570327Y-80082494D01*
X102544646Y-80079500D01*
X102137715Y-80079500D01*
X102070676Y-80059815D01*
X102024921Y-80007011D01*
X102014977Y-79937853D01*
X102044002Y-79874297D01*
X102086680Y-79842666D01*
X102090379Y-79841410D01*
X102244766Y-79754949D01*
X102277931Y-79736376D01*
X102277932Y-79736375D01*
X102282884Y-79733602D01*
X102311050Y-79710177D01*
X102448151Y-79596150D01*
X102452518Y-79592518D01*
X102512166Y-79520800D01*
X102589971Y-79427250D01*
X102589972Y-79427249D01*
X102593602Y-79422884D01*
X102701410Y-79230379D01*
X102705424Y-79218556D01*
X102765521Y-79041513D01*
X102772331Y-79021452D01*
X102780655Y-78964047D01*
X102791800Y-78887180D01*
X102803991Y-78803098D01*
X102805643Y-78740000D01*
X102785454Y-78520289D01*
X102725565Y-78307936D01*
X102627980Y-78110053D01*
X102495967Y-77933267D01*
X102333949Y-77783499D01*
X102299406Y-77761704D01*
X102152159Y-77668798D01*
X102152157Y-77668797D01*
X102147350Y-77665764D01*
X101942421Y-77584006D01*
X101936840Y-77582896D01*
X101936837Y-77582895D01*
X101778861Y-77551472D01*
X101726024Y-77540962D01*
X101720337Y-77540888D01*
X101720332Y-77540887D01*
X101511095Y-77538148D01*
X101511090Y-77538148D01*
X101505406Y-77538074D01*
X101499802Y-77539037D01*
X101499801Y-77539037D01*
X101293560Y-77574475D01*
X101293557Y-77574476D01*
X101287957Y-77575438D01*
X101080957Y-77651804D01*
X100891341Y-77764614D01*
X100725457Y-77910090D01*
X100588863Y-78083360D01*
X100586216Y-78088391D01*
X100502116Y-78248237D01*
X100453481Y-78298400D01*
X100392378Y-78314500D01*
X99881607Y-78314500D01*
X99858636Y-78321964D01*
X99839721Y-78326504D01*
X99825513Y-78328754D01*
X99825511Y-78328755D01*
X99815874Y-78330281D01*
X99794353Y-78341246D01*
X99776384Y-78348689D01*
X99753419Y-78356151D01*
X99745531Y-78361882D01*
X99745527Y-78361884D01*
X99733881Y-78370346D01*
X99717297Y-78380509D01*
X99695780Y-78391472D01*
X98943571Y-79143681D01*
X98882248Y-79177166D01*
X98855890Y-79180000D01*
X98366955Y-79180000D01*
X98299916Y-79160315D01*
X98251661Y-79101643D01*
X98249732Y-79096770D01*
X98249730Y-79096767D01*
X98246620Y-79088911D01*
X98157500Y-78971500D01*
X98040089Y-78882380D01*
X98032228Y-78879267D01*
X98032225Y-78879266D01*
X97910444Y-78831050D01*
X97910442Y-78831050D01*
X97903038Y-78828118D01*
X97895134Y-78827161D01*
X97895132Y-78827161D01*
X97843815Y-78820951D01*
X97815297Y-78817500D01*
X97536075Y-78817500D01*
X97256704Y-78817501D01*
X97253002Y-78817949D01*
X97253001Y-78817949D01*
X97176867Y-78827161D01*
X97176863Y-78827162D01*
X97168962Y-78828118D01*
X97127547Y-78844515D01*
X97039775Y-78879266D01*
X97039772Y-78879267D01*
X97031911Y-78882380D01*
X96914500Y-78971500D01*
X96825380Y-79088911D01*
X96822267Y-79096772D01*
X96822266Y-79096775D01*
X96784084Y-79193214D01*
X96771118Y-79225962D01*
X96770161Y-79233866D01*
X96770161Y-79233868D01*
X96763951Y-79285185D01*
X96760500Y-79313703D01*
X96760501Y-79897296D01*
X96760949Y-79900998D01*
X96760949Y-79900999D01*
X96768692Y-79964988D01*
X96771118Y-79985038D01*
X96775142Y-79995201D01*
X96811196Y-80086263D01*
X96825380Y-80122089D01*
X96914500Y-80239500D01*
X96997002Y-80302123D01*
X97038499Y-80358332D01*
X97043019Y-80428055D01*
X97009126Y-80489154D01*
X96983044Y-80507323D01*
X96983523Y-80508096D01*
X96843410Y-80594800D01*
X96832195Y-80603689D01*
X96720872Y-80715207D01*
X96712009Y-80726430D01*
X96629325Y-80860568D01*
X96623281Y-80873529D01*
X96573538Y-81023499D01*
X96570716Y-81036665D01*
X96561322Y-81128346D01*
X96561000Y-81134654D01*
X96561000Y-81262670D01*
X91359500Y-81262670D01*
X91359500Y-78777139D01*
X91361384Y-78755606D01*
X91362252Y-78750683D01*
X91364136Y-78740000D01*
X91674564Y-78740000D01*
X91674829Y-78744043D01*
X91690831Y-78988184D01*
X91694287Y-79040920D01*
X91753120Y-79336691D01*
X91754425Y-79340535D01*
X91845463Y-79608723D01*
X91850055Y-79622252D01*
X91983434Y-79892718D01*
X92075831Y-80031000D01*
X92146099Y-80136163D01*
X92150975Y-80143461D01*
X92349811Y-80370189D01*
X92576539Y-80569025D01*
X92579919Y-80571283D01*
X92579921Y-80571285D01*
X92631321Y-80605629D01*
X92827282Y-80736566D01*
X93097748Y-80869945D01*
X93101588Y-80871248D01*
X93101594Y-80871251D01*
X93315633Y-80943907D01*
X93383309Y-80966880D01*
X93679080Y-81025713D01*
X93683121Y-81025978D01*
X93683122Y-81025978D01*
X93902672Y-81040368D01*
X93902680Y-81040368D01*
X93904690Y-81040500D01*
X94055310Y-81040500D01*
X94057320Y-81040368D01*
X94057328Y-81040368D01*
X94276878Y-81025978D01*
X94276879Y-81025978D01*
X94280920Y-81025713D01*
X94576691Y-80966880D01*
X94644367Y-80943907D01*
X94858406Y-80871251D01*
X94858412Y-80871248D01*
X94862252Y-80869945D01*
X95132718Y-80736566D01*
X95328679Y-80605629D01*
X95380079Y-80571285D01*
X95380081Y-80571283D01*
X95383461Y-80569025D01*
X95610189Y-80370189D01*
X95809025Y-80143461D01*
X95813902Y-80136163D01*
X95884169Y-80031000D01*
X95976566Y-79892718D01*
X96109945Y-79622252D01*
X96114538Y-79608723D01*
X96205575Y-79340535D01*
X96206880Y-79336691D01*
X96265713Y-79040920D01*
X96269170Y-78988184D01*
X96285171Y-78744043D01*
X96285436Y-78740000D01*
X96279514Y-78649643D01*
X96265978Y-78443122D01*
X96265978Y-78443121D01*
X96265713Y-78439080D01*
X96206880Y-78143309D01*
X96155881Y-77993071D01*
X96111251Y-77861594D01*
X96111248Y-77861588D01*
X96109945Y-77857748D01*
X95976566Y-77587282D01*
X95809025Y-77336539D01*
X95610189Y-77109811D01*
X95383461Y-76910975D01*
X95360351Y-76895533D01*
X95283003Y-76843851D01*
X95132718Y-76743434D01*
X94862252Y-76610055D01*
X94858412Y-76608752D01*
X94858406Y-76608749D01*
X94580535Y-76514425D01*
X94576691Y-76513120D01*
X94280920Y-76454287D01*
X94276879Y-76454022D01*
X94276878Y-76454022D01*
X94057328Y-76439632D01*
X94057320Y-76439632D01*
X94055310Y-76439500D01*
X93904690Y-76439500D01*
X93902680Y-76439632D01*
X93902672Y-76439632D01*
X93683122Y-76454022D01*
X93683121Y-76454022D01*
X93679080Y-76454287D01*
X93383309Y-76513120D01*
X93379465Y-76514425D01*
X93101594Y-76608749D01*
X93101588Y-76608752D01*
X93097748Y-76610055D01*
X92827282Y-76743434D01*
X92676997Y-76843851D01*
X92599650Y-76895533D01*
X92576539Y-76910975D01*
X92349811Y-77109811D01*
X92150975Y-77336539D01*
X91983434Y-77587282D01*
X91850055Y-77857748D01*
X91848752Y-77861588D01*
X91848749Y-77861594D01*
X91804119Y-77993071D01*
X91753120Y-78143309D01*
X91694287Y-78439080D01*
X91694022Y-78443121D01*
X91694022Y-78443122D01*
X91680486Y-78649643D01*
X91674564Y-78740000D01*
X91364136Y-78740000D01*
X91362252Y-78729315D01*
X91362252Y-78719661D01*
X91361425Y-78705720D01*
X91375587Y-78453549D01*
X91377144Y-78439732D01*
X91424034Y-78163753D01*
X91427128Y-78150195D01*
X91504627Y-77881193D01*
X91509220Y-77868068D01*
X91616346Y-77609443D01*
X91622379Y-77596915D01*
X91757794Y-77351899D01*
X91765193Y-77340125D01*
X91927177Y-77111831D01*
X91935846Y-77100959D01*
X92122387Y-76892220D01*
X92132220Y-76882387D01*
X92340959Y-76695846D01*
X92351831Y-76687177D01*
X92580125Y-76525193D01*
X92591899Y-76517794D01*
X92836915Y-76382379D01*
X92849443Y-76376346D01*
X93108068Y-76269220D01*
X93121193Y-76264627D01*
X93390195Y-76187128D01*
X93403753Y-76184034D01*
X93679732Y-76137144D01*
X93693549Y-76135587D01*
X93851065Y-76126741D01*
X93945722Y-76121425D01*
X93959661Y-76122252D01*
X93969315Y-76122252D01*
X93980000Y-76124136D01*
X93995609Y-76121384D01*
X94017139Y-76119500D01*
X134582861Y-76119500D01*
X134604391Y-76121384D01*
G37*
%TD.AperFunction*%
%TA.AperFunction,Conductor*%
G36*
X112547539Y-95134685D02*
G01*
X112593294Y-95187489D01*
X112604500Y-95239000D01*
X112604500Y-95291000D01*
X112584815Y-95358039D01*
X112532011Y-95403794D01*
X112480500Y-95415000D01*
X111039500Y-95415000D01*
X110972461Y-95395315D01*
X110926706Y-95342511D01*
X110915500Y-95291000D01*
X110915500Y-95239000D01*
X110935185Y-95171961D01*
X110987989Y-95126206D01*
X111039500Y-95115000D01*
X112480500Y-95115000D01*
X112547539Y-95134685D01*
G37*
%TD.AperFunction*%
%TA.AperFunction,Conductor*%
G36*
X117617059Y-95134685D02*
G01*
X117662814Y-95187489D01*
X117674020Y-95239000D01*
X117674020Y-95291000D01*
X117654335Y-95358039D01*
X117601531Y-95403794D01*
X117550020Y-95415000D01*
X116119500Y-95415000D01*
X116052461Y-95395315D01*
X116006706Y-95342511D01*
X115995500Y-95291000D01*
X115995500Y-95239000D01*
X116015185Y-95171961D01*
X116067989Y-95126206D01*
X116119500Y-95115000D01*
X117550020Y-95115000D01*
X117617059Y-95134685D01*
G37*
%TD.AperFunction*%
%TA.AperFunction,Conductor*%
G36*
X102387539Y-95119685D02*
G01*
X102433294Y-95172489D01*
X102444500Y-95224000D01*
X102444500Y-95276000D01*
X102424815Y-95343039D01*
X102372011Y-95388794D01*
X102320500Y-95400000D01*
X100879500Y-95400000D01*
X100812461Y-95380315D01*
X100766706Y-95327511D01*
X100755500Y-95276000D01*
X100755500Y-95224000D01*
X100775185Y-95156961D01*
X100827989Y-95111206D01*
X100879500Y-95100000D01*
X102320500Y-95100000D01*
X102387539Y-95119685D01*
G37*
%TD.AperFunction*%
%TA.AperFunction,Conductor*%
G36*
X127787539Y-95119685D02*
G01*
X127833294Y-95172489D01*
X127844500Y-95224000D01*
X127844500Y-95276000D01*
X127824815Y-95343039D01*
X127772011Y-95388794D01*
X127720500Y-95400000D01*
X126279500Y-95400000D01*
X126212461Y-95380315D01*
X126166706Y-95327511D01*
X126155500Y-95276000D01*
X126155500Y-95224000D01*
X126175185Y-95156961D01*
X126227989Y-95111206D01*
X126279500Y-95100000D01*
X127720500Y-95100000D01*
X127787539Y-95119685D01*
G37*
%TD.AperFunction*%
%TA.AperFunction,Conductor*%
G36*
X122707539Y-95119685D02*
G01*
X122753294Y-95172489D01*
X122764500Y-95224000D01*
X122764500Y-95276000D01*
X122744815Y-95343039D01*
X122692011Y-95388794D01*
X122640500Y-95400000D01*
X121199500Y-95400000D01*
X121132461Y-95380315D01*
X121086706Y-95327511D01*
X121075500Y-95276000D01*
X121075500Y-95224000D01*
X121095185Y-95156961D01*
X121147989Y-95111206D01*
X121199500Y-95100000D01*
X122640500Y-95100000D01*
X122707539Y-95119685D01*
G37*
%TD.AperFunction*%
%TA.AperFunction,Conductor*%
G36*
X129633039Y-95119685D02*
G01*
X129678794Y-95172489D01*
X129690000Y-95224000D01*
X129690000Y-95276000D01*
X129670315Y-95343039D01*
X129617511Y-95388794D01*
X129566000Y-95400000D01*
X128819500Y-95400000D01*
X128752461Y-95380315D01*
X128706706Y-95327511D01*
X128695500Y-95276000D01*
X128695500Y-95224000D01*
X128715185Y-95156961D01*
X128767989Y-95111206D01*
X128819500Y-95100000D01*
X129566000Y-95100000D01*
X129633039Y-95119685D01*
G37*
%TD.AperFunction*%
%TA.AperFunction,Conductor*%
G36*
X120167539Y-95119685D02*
G01*
X120213294Y-95172489D01*
X120224500Y-95224000D01*
X120224500Y-95276000D01*
X120204815Y-95343039D01*
X120152011Y-95388794D01*
X120100500Y-95400000D01*
X118649020Y-95400000D01*
X118581981Y-95380315D01*
X118536226Y-95327511D01*
X118525020Y-95276000D01*
X118525020Y-95224000D01*
X118544705Y-95156961D01*
X118597509Y-95111206D01*
X118649020Y-95100000D01*
X120100500Y-95100000D01*
X120167539Y-95119685D01*
G37*
%TD.AperFunction*%
%TA.AperFunction,Conductor*%
G36*
X104927539Y-95119685D02*
G01*
X104973294Y-95172489D01*
X104984500Y-95224000D01*
X104984500Y-95276000D01*
X104964815Y-95343039D01*
X104912011Y-95388794D01*
X104860500Y-95400000D01*
X103419500Y-95400000D01*
X103352461Y-95380315D01*
X103306706Y-95327511D01*
X103295500Y-95276000D01*
X103295500Y-95224000D01*
X103315185Y-95156961D01*
X103367989Y-95111206D01*
X103419500Y-95100000D01*
X104860500Y-95100000D01*
X104927539Y-95119685D01*
G37*
%TD.AperFunction*%
%TA.AperFunction,Conductor*%
G36*
X115087539Y-95119685D02*
G01*
X115133294Y-95172489D01*
X115144500Y-95224000D01*
X115144500Y-95276000D01*
X115124815Y-95343039D01*
X115072011Y-95388794D01*
X115020500Y-95400000D01*
X113579500Y-95400000D01*
X113512461Y-95380315D01*
X113466706Y-95327511D01*
X113455500Y-95276000D01*
X113455500Y-95224000D01*
X113475185Y-95156961D01*
X113527989Y-95111206D01*
X113579500Y-95100000D01*
X115020500Y-95100000D01*
X115087539Y-95119685D01*
G37*
%TD.AperFunction*%
%TA.AperFunction,Conductor*%
G36*
X125247539Y-95119685D02*
G01*
X125293294Y-95172489D01*
X125304500Y-95224000D01*
X125304500Y-95276000D01*
X125284815Y-95343039D01*
X125232011Y-95388794D01*
X125180500Y-95400000D01*
X123739500Y-95400000D01*
X123672461Y-95380315D01*
X123626706Y-95327511D01*
X123615500Y-95276000D01*
X123615500Y-95224000D01*
X123635185Y-95156961D01*
X123687989Y-95111206D01*
X123739500Y-95100000D01*
X125180500Y-95100000D01*
X125247539Y-95119685D01*
G37*
%TD.AperFunction*%
%TA.AperFunction,Conductor*%
G36*
X110007539Y-95119685D02*
G01*
X110053294Y-95172489D01*
X110064500Y-95224000D01*
X110064500Y-95276000D01*
X110044815Y-95343039D01*
X109992011Y-95388794D01*
X109940500Y-95400000D01*
X108499500Y-95400000D01*
X108432461Y-95380315D01*
X108386706Y-95327511D01*
X108375500Y-95276000D01*
X108375500Y-95224000D01*
X108395185Y-95156961D01*
X108447989Y-95111206D01*
X108499500Y-95100000D01*
X109940500Y-95100000D01*
X110007539Y-95119685D01*
G37*
%TD.AperFunction*%
%TA.AperFunction,Conductor*%
G36*
X107467539Y-95104685D02*
G01*
X107513294Y-95157489D01*
X107524500Y-95209000D01*
X107524500Y-95261000D01*
X107504815Y-95328039D01*
X107452011Y-95373794D01*
X107400500Y-95385000D01*
X105959500Y-95385000D01*
X105892461Y-95365315D01*
X105846706Y-95312511D01*
X105835500Y-95261000D01*
X105835500Y-95209000D01*
X105855185Y-95141961D01*
X105907989Y-95096206D01*
X105959500Y-95085000D01*
X107400500Y-95085000D01*
X107467539Y-95104685D01*
G37*
%TD.AperFunction*%
%TD*%
M02*
