%TF.GenerationSoftware,KiCad,Pcbnew,(6.0.5)*%
%TF.CreationDate,2022-05-22T23:21:51-04:00*%
%TF.ProjectId,controller,636f6e74-726f-46c6-9c65-722e6b696361,rev?*%
%TF.SameCoordinates,Original*%
%TF.FileFunction,Soldermask,Bot*%
%TF.FilePolarity,Negative*%
%FSLAX46Y46*%
G04 Gerber Fmt 4.6, Leading zero omitted, Abs format (unit mm)*
G04 Created by KiCad (PCBNEW (6.0.5)) date 2022-05-22 23:21:51*
%MOMM*%
%LPD*%
G01*
G04 APERTURE LIST*
%ADD10R,1.800000X1.800000*%
%ADD11C,1.800000*%
%ADD12R,1.700000X1.700000*%
%ADD13O,1.700000X1.700000*%
%ADD14C,4.600000*%
G04 APERTURE END LIST*
D10*
%TO.C,D2*%
X101600000Y-81280000D03*
D11*
X101600000Y-78740000D03*
%TD*%
D12*
%TO.C,J6*%
X104140000Y-97790000D03*
D13*
X104140000Y-95250000D03*
X104140000Y-92710000D03*
%TD*%
D12*
%TO.C,J9*%
X119380000Y-97790000D03*
D13*
X119380000Y-95250000D03*
X119380000Y-92710000D03*
%TD*%
D12*
%TO.C,J14*%
X129540000Y-97790000D03*
D13*
X129540000Y-95250000D03*
X129540000Y-92710000D03*
%TD*%
D12*
%TO.C,J1*%
X135255000Y-85090000D03*
D13*
X135255000Y-87630000D03*
X135255000Y-90170000D03*
%TD*%
D12*
%TO.C,J10*%
X116840000Y-97805000D03*
D13*
X116840000Y-95265000D03*
X116840000Y-92725000D03*
%TD*%
D12*
%TO.C,J8*%
X121920000Y-97790000D03*
D13*
X121920000Y-95250000D03*
X121920000Y-92710000D03*
%TD*%
D12*
%TO.C,J3*%
X123825000Y-85090000D03*
D13*
X126365000Y-85090000D03*
%TD*%
D12*
%TO.C,J2*%
X126365000Y-88265000D03*
%TD*%
%TO.C,J11*%
X114300000Y-97790000D03*
D13*
X114300000Y-95250000D03*
X114300000Y-92710000D03*
%TD*%
D12*
%TO.C,BT1*%
X93345000Y-86360000D03*
D13*
X93345000Y-88900000D03*
%TD*%
D12*
%TO.C,J7*%
X106680000Y-97775000D03*
D13*
X106680000Y-95235000D03*
X106680000Y-92695000D03*
%TD*%
D12*
%TO.C,J5*%
X101600000Y-97790000D03*
D13*
X101600000Y-95250000D03*
X101600000Y-92710000D03*
%TD*%
D12*
%TO.C,J4*%
X99060000Y-97790000D03*
D13*
X99060000Y-95250000D03*
X99060000Y-92710000D03*
%TD*%
D14*
%TO.C,REF\u002A\u002A*%
X134620000Y-78740000D03*
%TD*%
D12*
%TO.C,J15*%
X127000000Y-97790000D03*
D13*
X127000000Y-95250000D03*
X127000000Y-92710000D03*
%TD*%
D12*
%TO.C,J16*%
X124460000Y-97790000D03*
D13*
X124460000Y-95250000D03*
X124460000Y-92710000D03*
%TD*%
D14*
%TO.C,REF\u002A\u002A*%
X93980000Y-78740000D03*
%TD*%
%TO.C,REF\u002A\u002A*%
X134620000Y-96520000D03*
%TD*%
D12*
%TO.C,J12*%
X111760000Y-97805000D03*
D13*
X111760000Y-95265000D03*
X111760000Y-92725000D03*
%TD*%
D14*
%TO.C,REF\u002A\u002A*%
X93980000Y-96520000D03*
%TD*%
D10*
%TO.C,D4*%
X127000000Y-81280000D03*
D11*
X127000000Y-78740000D03*
%TD*%
D12*
%TO.C,J13*%
X109220000Y-97790000D03*
D13*
X109220000Y-95250000D03*
X109220000Y-92710000D03*
%TD*%
M02*
