%TF.GenerationSoftware,KiCad,Pcbnew,(6.0.5)*%
%TF.CreationDate,2022-05-22T23:21:51-04:00*%
%TF.ProjectId,controller,636f6e74-726f-46c6-9c65-722e6b696361,rev?*%
%TF.SameCoordinates,Original*%
%TF.FileFunction,Soldermask,Top*%
%TF.FilePolarity,Negative*%
%FSLAX46Y46*%
G04 Gerber Fmt 4.6, Leading zero omitted, Abs format (unit mm)*
G04 Created by KiCad (PCBNEW (6.0.5)) date 2022-05-22 23:21:51*
%MOMM*%
%LPD*%
G01*
G04 APERTURE LIST*
G04 Aperture macros list*
%AMRoundRect*
0 Rectangle with rounded corners*
0 $1 Rounding radius*
0 $2 $3 $4 $5 $6 $7 $8 $9 X,Y pos of 4 corners*
0 Add a 4 corners polygon primitive as box body*
4,1,4,$2,$3,$4,$5,$6,$7,$8,$9,$2,$3,0*
0 Add four circle primitives for the rounded corners*
1,1,$1+$1,$2,$3*
1,1,$1+$1,$4,$5*
1,1,$1+$1,$6,$7*
1,1,$1+$1,$8,$9*
0 Add four rect primitives between the rounded corners*
20,1,$1+$1,$2,$3,$4,$5,0*
20,1,$1+$1,$4,$5,$6,$7,0*
20,1,$1+$1,$6,$7,$8,$9,0*
20,1,$1+$1,$8,$9,$2,$3,0*%
G04 Aperture macros list end*
%ADD10R,1.800000X1.800000*%
%ADD11C,1.800000*%
%ADD12R,1.700000X1.700000*%
%ADD13O,1.700000X1.700000*%
%ADD14RoundRect,0.237500X0.237500X-0.300000X0.237500X0.300000X-0.237500X0.300000X-0.237500X-0.300000X0*%
%ADD15R,1.200000X0.750000*%
%ADD16R,1.600000X1.500000*%
%ADD17R,0.750000X1.200000*%
%ADD18RoundRect,0.150000X0.150000X-0.875000X0.150000X0.875000X-0.150000X0.875000X-0.150000X-0.875000X0*%
%ADD19RoundRect,0.237500X0.250000X0.237500X-0.250000X0.237500X-0.250000X-0.237500X0.250000X-0.237500X0*%
%ADD20RoundRect,0.237500X0.237500X-0.250000X0.237500X0.250000X-0.237500X0.250000X-0.237500X-0.250000X0*%
%ADD21C,4.600000*%
%ADD22RoundRect,0.250000X-0.337500X-0.475000X0.337500X-0.475000X0.337500X0.475000X-0.337500X0.475000X0*%
G04 APERTURE END LIST*
D10*
%TO.C,D2*%
X101600000Y-81280000D03*
D11*
X101600000Y-78740000D03*
%TD*%
D12*
%TO.C,J6*%
X104140000Y-97790000D03*
D13*
X104140000Y-95250000D03*
X104140000Y-92710000D03*
%TD*%
D12*
%TO.C,J9*%
X119380000Y-97790000D03*
D13*
X119380000Y-95250000D03*
X119380000Y-92710000D03*
%TD*%
D12*
%TO.C,J14*%
X129540000Y-97790000D03*
D13*
X129540000Y-95250000D03*
X129540000Y-92710000D03*
%TD*%
D12*
%TO.C,J1*%
X135255000Y-85090000D03*
D13*
X135255000Y-87630000D03*
X135255000Y-90170000D03*
%TD*%
D12*
%TO.C,J10*%
X116840000Y-97805000D03*
D13*
X116840000Y-95265000D03*
X116840000Y-92725000D03*
%TD*%
D12*
%TO.C,J8*%
X121920000Y-97790000D03*
D13*
X121920000Y-95250000D03*
X121920000Y-92710000D03*
%TD*%
D12*
%TO.C,J3*%
X123825000Y-85090000D03*
D13*
X126365000Y-85090000D03*
%TD*%
D14*
%TO.C,C2*%
X106680000Y-83820000D03*
X106680000Y-82095000D03*
%TD*%
D15*
%TO.C,D1*%
X95250000Y-92075000D03*
X92710000Y-92075000D03*
%TD*%
D16*
%TO.C,X1*%
X100330000Y-87460000D03*
X102870000Y-87460000D03*
X102870000Y-85260000D03*
X100330000Y-85260000D03*
%TD*%
D17*
%TO.C,D3*%
X131318000Y-82550000D03*
X131318000Y-80010000D03*
%TD*%
D18*
%TO.C,U2*%
X108585000Y-87200000D03*
X109855000Y-87200000D03*
X111125000Y-87200000D03*
X112395000Y-87200000D03*
X113665000Y-87200000D03*
X114935000Y-87200000D03*
X116205000Y-87200000D03*
X117475000Y-87200000D03*
X118745000Y-87200000D03*
X120015000Y-87200000D03*
X120015000Y-77900000D03*
X118745000Y-77900000D03*
X117475000Y-77900000D03*
X116205000Y-77900000D03*
X114935000Y-77900000D03*
X113665000Y-77900000D03*
X112395000Y-77900000D03*
X111125000Y-77900000D03*
X109855000Y-77900000D03*
X108585000Y-77900000D03*
%TD*%
D12*
%TO.C,J2*%
X126365000Y-88265000D03*
%TD*%
D19*
%TO.C,R3*%
X136040500Y-82296000D03*
X134215500Y-82296000D03*
%TD*%
D12*
%TO.C,J11*%
X114300000Y-97790000D03*
D13*
X114300000Y-95250000D03*
X114300000Y-92710000D03*
%TD*%
D12*
%TO.C,BT1*%
X93345000Y-86360000D03*
D13*
X93345000Y-88900000D03*
%TD*%
D12*
%TO.C,J7*%
X106680000Y-97775000D03*
D13*
X106680000Y-95235000D03*
X106680000Y-92695000D03*
%TD*%
D20*
%TO.C,R5*%
X122555000Y-82192500D03*
X122555000Y-80367500D03*
%TD*%
D12*
%TO.C,J5*%
X101600000Y-97790000D03*
D13*
X101600000Y-95250000D03*
X101600000Y-92710000D03*
%TD*%
D12*
%TO.C,J4*%
X99060000Y-97790000D03*
D13*
X99060000Y-95250000D03*
X99060000Y-92710000D03*
%TD*%
D21*
%TO.C,REF\u002A\u002A*%
X134620000Y-78740000D03*
%TD*%
D20*
%TO.C,R1*%
X97536000Y-81430500D03*
X97536000Y-79605500D03*
%TD*%
D12*
%TO.C,J15*%
X127000000Y-97790000D03*
D13*
X127000000Y-95250000D03*
X127000000Y-92710000D03*
%TD*%
D12*
%TO.C,J16*%
X124460000Y-97790000D03*
D13*
X124460000Y-95250000D03*
X124460000Y-92710000D03*
%TD*%
D21*
%TO.C,REF\u002A\u002A*%
X93980000Y-78740000D03*
%TD*%
%TO.C,REF\u002A\u002A*%
X134620000Y-96520000D03*
%TD*%
D20*
%TO.C,R2*%
X130048000Y-88288500D03*
X130048000Y-86463500D03*
%TD*%
D22*
%TO.C,C1*%
X92710000Y-83185000D03*
X94785000Y-83185000D03*
%TD*%
D19*
%TO.C,R4*%
X136040500Y-92964000D03*
X134215500Y-92964000D03*
%TD*%
D12*
%TO.C,J12*%
X111760000Y-97805000D03*
D13*
X111760000Y-95265000D03*
X111760000Y-92725000D03*
%TD*%
D21*
%TO.C,REF\u002A\u002A*%
X93980000Y-96520000D03*
%TD*%
D10*
%TO.C,D4*%
X127000000Y-81280000D03*
D11*
X127000000Y-78740000D03*
%TD*%
D12*
%TO.C,J13*%
X109220000Y-97790000D03*
D13*
X109220000Y-95250000D03*
X109220000Y-92710000D03*
%TD*%
M02*
