M48
; DRILL file {KiCad (6.0.5)} date Sun 22 May 2022 11:21:52 PM EDT
; FORMAT={-:-/ absolute / inch / decimal}
; #@! TF.CreationDate,2022-05-22T23:21:52-04:00
; #@! TF.GenerationSoftware,Kicad,Pcbnew,(6.0.5)
; #@! TF.FileFunction,Plated,1,2,PTH
FMAT,2
INCH
; #@! TA.AperFunction,Plated,PTH,ViaDrill
T1C0.0157
; #@! TA.AperFunction,Plated,PTH,ComponentDrill
T2C0.0354
; #@! TA.AperFunction,Plated,PTH,ComponentDrill
T3C0.0394
%
G90
G05
T1
X3.77Y-3.35
X4.12Y-3.42
X4.15Y-3.26
X4.22Y-3.13
X4.43Y-3.22
X4.44Y-3.17
X4.53Y-3.22
X4.54Y-3.15
X4.7698Y-3.2902
X4.77Y-3.16
X4.77Y-3.47
X5.17Y-3.05
X5.2Y-3.7
X5.22Y-3.63
X5.23Y-3.21
T2
X4.0Y-3.1
X4.0Y-3.2
X5.0Y-3.1
X5.0Y-3.2
T3
X3.675Y-3.4
X3.675Y-3.5
X3.9Y-3.65
X3.9Y-3.75
X3.9Y-3.85
X4.0Y-3.65
X4.0Y-3.75
X4.0Y-3.85
X4.1Y-3.65
X4.1Y-3.75
X4.1Y-3.85
X4.2Y-3.6494
X4.2Y-3.7494
X4.2Y-3.8494
X4.3Y-3.65
X4.3Y-3.75
X4.3Y-3.85
X4.4Y-3.6506
X4.4Y-3.7506
X4.4Y-3.8506
X4.5Y-3.65
X4.5Y-3.75
X4.5Y-3.85
X4.6Y-3.6506
X4.6Y-3.7506
X4.6Y-3.8506
X4.7Y-3.65
X4.7Y-3.75
X4.7Y-3.85
X4.8Y-3.65
X4.8Y-3.75
X4.8Y-3.85
X4.875Y-3.35
X4.9Y-3.65
X4.9Y-3.75
X4.9Y-3.85
X4.975Y-3.35
X4.975Y-3.475
X5.0Y-3.65
X5.0Y-3.75
X5.0Y-3.85
X5.1Y-3.65
X5.1Y-3.75
X5.1Y-3.85
X5.325Y-3.35
X5.325Y-3.45
X5.325Y-3.55
T0
M30
