%TF.GenerationSoftware,KiCad,Pcbnew,(6.0.5)*%
%TF.CreationDate,2022-05-22T23:21:51-04:00*%
%TF.ProjectId,controller,636f6e74-726f-46c6-9c65-722e6b696361,rev?*%
%TF.SameCoordinates,Original*%
%TF.FileFunction,Legend,Bot*%
%TF.FilePolarity,Positive*%
%FSLAX46Y46*%
G04 Gerber Fmt 4.6, Leading zero omitted, Abs format (unit mm)*
G04 Created by KiCad (PCBNEW (6.0.5)) date 2022-05-22 23:21:51*
%MOMM*%
%LPD*%
G01*
G04 APERTURE LIST*
%ADD10C,0.150000*%
%ADD11C,0.200000*%
%ADD12C,0.800000*%
G04 APERTURE END LIST*
D10*
X116546095Y-87531380D02*
X116546095Y-86864714D01*
X116546095Y-87055190D02*
X116498476Y-86959952D01*
X116450857Y-86912333D01*
X116355619Y-86864714D01*
X116260380Y-86864714D01*
X115546095Y-87483761D02*
X115641333Y-87531380D01*
X115831809Y-87531380D01*
X115927047Y-87483761D01*
X115974666Y-87388523D01*
X115974666Y-87007571D01*
X115927047Y-86912333D01*
X115831809Y-86864714D01*
X115641333Y-86864714D01*
X115546095Y-86912333D01*
X115498476Y-87007571D01*
X115498476Y-87102809D01*
X115974666Y-87198047D01*
X115165142Y-86864714D02*
X114927047Y-87531380D01*
X114688952Y-86864714D01*
X113022285Y-87531380D02*
X113593714Y-87531380D01*
X113308000Y-87531380D02*
X113308000Y-86531380D01*
X113403238Y-86674238D01*
X113498476Y-86769476D01*
X113593714Y-86817095D01*
X120260380Y-88617571D02*
X119927047Y-88617571D01*
X119784190Y-89141380D02*
X120260380Y-89141380D01*
X120260380Y-88141380D01*
X119784190Y-88141380D01*
X119355619Y-89141380D02*
X119355619Y-88474714D01*
X119355619Y-88665190D02*
X119308000Y-88569952D01*
X119260380Y-88522333D01*
X119165142Y-88474714D01*
X119069904Y-88474714D01*
X118736571Y-89141380D02*
X118736571Y-88474714D01*
X118736571Y-88141380D02*
X118784190Y-88189000D01*
X118736571Y-88236619D01*
X118688952Y-88189000D01*
X118736571Y-88141380D01*
X118736571Y-88236619D01*
X117831809Y-89093761D02*
X117927047Y-89141380D01*
X118117523Y-89141380D01*
X118212761Y-89093761D01*
X118260380Y-89046142D01*
X118308000Y-88950904D01*
X118308000Y-88665190D01*
X118260380Y-88569952D01*
X118212761Y-88522333D01*
X118117523Y-88474714D01*
X117927047Y-88474714D01*
X117831809Y-88522333D01*
X116784190Y-88141380D02*
X116450857Y-89141380D01*
X116117523Y-88141380D01*
X115355619Y-89141380D02*
X115355619Y-88617571D01*
X115403238Y-88522333D01*
X115498476Y-88474714D01*
X115688952Y-88474714D01*
X115784190Y-88522333D01*
X115355619Y-89093761D02*
X115450857Y-89141380D01*
X115688952Y-89141380D01*
X115784190Y-89093761D01*
X115831809Y-88998523D01*
X115831809Y-88903285D01*
X115784190Y-88808047D01*
X115688952Y-88760428D01*
X115450857Y-88760428D01*
X115355619Y-88712809D01*
X114879428Y-88474714D02*
X114879428Y-89141380D01*
X114879428Y-88569952D02*
X114831809Y-88522333D01*
X114736571Y-88474714D01*
X114593714Y-88474714D01*
X114498476Y-88522333D01*
X114450857Y-88617571D01*
X114450857Y-89141380D01*
X113260380Y-88855666D02*
X112784190Y-88855666D01*
X113355619Y-89141380D02*
X113022285Y-88141380D01*
X112688952Y-89141380D01*
X112212761Y-89141380D02*
X112308000Y-89093761D01*
X112355619Y-88998523D01*
X112355619Y-88141380D01*
X111831809Y-89141380D02*
X111831809Y-88141380D01*
X111831809Y-88522333D02*
X111736571Y-88474714D01*
X111546095Y-88474714D01*
X111450857Y-88522333D01*
X111403238Y-88569952D01*
X111355619Y-88665190D01*
X111355619Y-88950904D01*
X111403238Y-89046142D01*
X111450857Y-89093761D01*
X111546095Y-89141380D01*
X111736571Y-89141380D01*
X111831809Y-89093761D01*
X110546095Y-89093761D02*
X110641333Y-89141380D01*
X110831809Y-89141380D01*
X110927047Y-89093761D01*
X110974666Y-88998523D01*
X110974666Y-88617571D01*
X110927047Y-88522333D01*
X110831809Y-88474714D01*
X110641333Y-88474714D01*
X110546095Y-88522333D01*
X110498476Y-88617571D01*
X110498476Y-88712809D01*
X110974666Y-88808047D01*
X110069904Y-89141380D02*
X110069904Y-88474714D01*
X110069904Y-88665190D02*
X110022285Y-88569952D01*
X109974666Y-88522333D01*
X109879428Y-88474714D01*
X109784190Y-88474714D01*
X109593714Y-88474714D02*
X109212761Y-88474714D01*
X109450857Y-88141380D02*
X109450857Y-88998523D01*
X109403238Y-89093761D01*
X109308000Y-89141380D01*
X109212761Y-89141380D01*
D11*
X120141333Y-84229380D02*
X120141333Y-83229380D01*
X119808000Y-83943666D01*
X119474666Y-83229380D01*
X119474666Y-84229380D01*
X118998476Y-84229380D02*
X118998476Y-83229380D01*
X118522285Y-84229380D02*
X118522285Y-83229380D01*
X118284190Y-83229380D01*
X118141333Y-83277000D01*
X118046095Y-83372238D01*
X117998476Y-83467476D01*
X117950857Y-83657952D01*
X117950857Y-83800809D01*
X117998476Y-83991285D01*
X118046095Y-84086523D01*
X118141333Y-84181761D01*
X118284190Y-84229380D01*
X118522285Y-84229380D01*
X117522285Y-84229380D02*
X117522285Y-83229380D01*
X115855619Y-84181761D02*
X115950857Y-84229380D01*
X116141333Y-84229380D01*
X116236571Y-84181761D01*
X116284190Y-84134142D01*
X116331809Y-84038904D01*
X116331809Y-83753190D01*
X116284190Y-83657952D01*
X116236571Y-83610333D01*
X116141333Y-83562714D01*
X115950857Y-83562714D01*
X115855619Y-83610333D01*
X115284190Y-84229380D02*
X115379428Y-84181761D01*
X115427047Y-84134142D01*
X115474666Y-84038904D01*
X115474666Y-83753190D01*
X115427047Y-83657952D01*
X115379428Y-83610333D01*
X115284190Y-83562714D01*
X115141333Y-83562714D01*
X115046095Y-83610333D01*
X114998476Y-83657952D01*
X114950857Y-83753190D01*
X114950857Y-84038904D01*
X114998476Y-84134142D01*
X115046095Y-84181761D01*
X115141333Y-84229380D01*
X115284190Y-84229380D01*
X114522285Y-83562714D02*
X114522285Y-84229380D01*
X114522285Y-83657952D02*
X114474666Y-83610333D01*
X114379428Y-83562714D01*
X114236571Y-83562714D01*
X114141333Y-83610333D01*
X114093714Y-83705571D01*
X114093714Y-84229380D01*
X113760380Y-83562714D02*
X113379428Y-83562714D01*
X113617523Y-83229380D02*
X113617523Y-84086523D01*
X113569904Y-84181761D01*
X113474666Y-84229380D01*
X113379428Y-84229380D01*
X113046095Y-84229380D02*
X113046095Y-83562714D01*
X113046095Y-83753190D02*
X112998476Y-83657952D01*
X112950857Y-83610333D01*
X112855619Y-83562714D01*
X112760380Y-83562714D01*
X112284190Y-84229380D02*
X112379428Y-84181761D01*
X112427047Y-84134142D01*
X112474666Y-84038904D01*
X112474666Y-83753190D01*
X112427047Y-83657952D01*
X112379428Y-83610333D01*
X112284190Y-83562714D01*
X112141333Y-83562714D01*
X112046095Y-83610333D01*
X111998476Y-83657952D01*
X111950857Y-83753190D01*
X111950857Y-84038904D01*
X111998476Y-84134142D01*
X112046095Y-84181761D01*
X112141333Y-84229380D01*
X112284190Y-84229380D01*
X111379428Y-84229380D02*
X111474666Y-84181761D01*
X111522285Y-84086523D01*
X111522285Y-83229380D01*
X110855619Y-84229380D02*
X110950857Y-84181761D01*
X110998476Y-84086523D01*
X110998476Y-83229380D01*
X110093714Y-84181761D02*
X110188952Y-84229380D01*
X110379428Y-84229380D01*
X110474666Y-84181761D01*
X110522285Y-84086523D01*
X110522285Y-83705571D01*
X110474666Y-83610333D01*
X110379428Y-83562714D01*
X110188952Y-83562714D01*
X110093714Y-83610333D01*
X110046095Y-83705571D01*
X110046095Y-83800809D01*
X110522285Y-83896047D01*
X109617523Y-84229380D02*
X109617523Y-83562714D01*
X109617523Y-83753190D02*
X109569904Y-83657952D01*
X109522285Y-83610333D01*
X109427047Y-83562714D01*
X109331809Y-83562714D01*
X117903238Y-85839380D02*
X117903238Y-84839380D01*
X117903238Y-85791761D02*
X117998476Y-85839380D01*
X118188952Y-85839380D01*
X118284190Y-85791761D01*
X118331809Y-85744142D01*
X118379428Y-85648904D01*
X118379428Y-85363190D01*
X118331809Y-85267952D01*
X118284190Y-85220333D01*
X118188952Y-85172714D01*
X117998476Y-85172714D01*
X117903238Y-85220333D01*
X117046095Y-85791761D02*
X117141333Y-85839380D01*
X117331809Y-85839380D01*
X117427047Y-85791761D01*
X117474666Y-85696523D01*
X117474666Y-85315571D01*
X117427047Y-85220333D01*
X117331809Y-85172714D01*
X117141333Y-85172714D01*
X117046095Y-85220333D01*
X116998476Y-85315571D01*
X116998476Y-85410809D01*
X117474666Y-85506047D01*
X116665142Y-85172714D02*
X116427047Y-85839380D01*
X116188952Y-85172714D01*
X115046095Y-85839380D02*
X115046095Y-84839380D01*
X115046095Y-85220333D02*
X114950857Y-85172714D01*
X114760380Y-85172714D01*
X114665142Y-85220333D01*
X114617523Y-85267952D01*
X114569904Y-85363190D01*
X114569904Y-85648904D01*
X114617523Y-85744142D01*
X114665142Y-85791761D01*
X114760380Y-85839380D01*
X114950857Y-85839380D01*
X115046095Y-85791761D01*
X113998476Y-85839380D02*
X114093714Y-85791761D01*
X114141333Y-85744142D01*
X114188952Y-85648904D01*
X114188952Y-85363190D01*
X114141333Y-85267952D01*
X114093714Y-85220333D01*
X113998476Y-85172714D01*
X113855619Y-85172714D01*
X113760380Y-85220333D01*
X113712761Y-85267952D01*
X113665142Y-85363190D01*
X113665142Y-85648904D01*
X113712761Y-85744142D01*
X113760380Y-85791761D01*
X113855619Y-85839380D01*
X113998476Y-85839380D01*
X112808000Y-85839380D02*
X112808000Y-85315571D01*
X112855619Y-85220333D01*
X112950857Y-85172714D01*
X113141333Y-85172714D01*
X113236571Y-85220333D01*
X112808000Y-85791761D02*
X112903238Y-85839380D01*
X113141333Y-85839380D01*
X113236571Y-85791761D01*
X113284190Y-85696523D01*
X113284190Y-85601285D01*
X113236571Y-85506047D01*
X113141333Y-85458428D01*
X112903238Y-85458428D01*
X112808000Y-85410809D01*
X112331809Y-85839380D02*
X112331809Y-85172714D01*
X112331809Y-85363190D02*
X112284190Y-85267952D01*
X112236571Y-85220333D01*
X112141333Y-85172714D01*
X112046095Y-85172714D01*
X111284190Y-85839380D02*
X111284190Y-84839380D01*
X111284190Y-85791761D02*
X111379428Y-85839380D01*
X111569904Y-85839380D01*
X111665142Y-85791761D01*
X111712761Y-85744142D01*
X111760380Y-85648904D01*
X111760380Y-85363190D01*
X111712761Y-85267952D01*
X111665142Y-85220333D01*
X111569904Y-85172714D01*
X111379428Y-85172714D01*
X111284190Y-85220333D01*
D12*
X120371428Y-82271904D02*
X120371428Y-77271904D01*
X120371428Y-79176666D02*
X119895238Y-78938571D01*
X118942857Y-78938571D01*
X118466666Y-79176666D01*
X118228571Y-79414761D01*
X117990476Y-79890952D01*
X117990476Y-81319523D01*
X118228571Y-81795714D01*
X118466666Y-82033809D01*
X118942857Y-82271904D01*
X119895238Y-82271904D01*
X120371428Y-82033809D01*
X115847619Y-82271904D02*
X115847619Y-78938571D01*
X115847619Y-77271904D02*
X116085714Y-77510000D01*
X115847619Y-77748095D01*
X115609523Y-77510000D01*
X115847619Y-77271904D01*
X115847619Y-77748095D01*
X113466666Y-82271904D02*
X113466666Y-78938571D01*
X113466666Y-79890952D02*
X113228571Y-79414761D01*
X112990476Y-79176666D01*
X112514285Y-78938571D01*
X112038095Y-78938571D01*
X110371428Y-82271904D02*
X110371428Y-77271904D01*
X110371428Y-79176666D02*
X109895238Y-78938571D01*
X108942857Y-78938571D01*
X108466666Y-79176666D01*
X108228571Y-79414761D01*
X107990476Y-79890952D01*
X107990476Y-81319523D01*
X108228571Y-81795714D01*
X108466666Y-82033809D01*
X108942857Y-82271904D01*
X109895238Y-82271904D01*
X110371428Y-82033809D01*
M02*
