%TF.GenerationSoftware,KiCad,Pcbnew,5.1.10*%
%TF.CreationDate,2022-02-27T11:26:43-05:00*%
%TF.ProjectId,selector_switch,73656c65-6374-46f7-925f-737769746368,rev?*%
%TF.SameCoordinates,Original*%
%TF.FileFunction,Copper,L2,Bot*%
%TF.FilePolarity,Positive*%
%FSLAX46Y46*%
G04 Gerber Fmt 4.6, Leading zero omitted, Abs format (unit mm)*
G04 Created by KiCad (PCBNEW 5.1.10) date 2022-02-27 11:26:43*
%MOMM*%
%LPD*%
G01*
G04 APERTURE LIST*
%TA.AperFunction,ComponentPad*%
%ADD10C,3.000000*%
%TD*%
%TA.AperFunction,ComponentPad*%
%ADD11O,3.500000X4.500000*%
%TD*%
%TA.AperFunction,SMDPad,CuDef*%
%ADD12R,1.200000X0.900000*%
%TD*%
%TA.AperFunction,SMDPad,CuDef*%
%ADD13R,0.900000X1.200000*%
%TD*%
%TA.AperFunction,Conductor*%
%ADD14C,0.250000*%
%TD*%
G04 APERTURE END LIST*
D10*
%TO.P,SW1,3*%
%TO.N,Net-(R3-Pad2)*%
X144278000Y-71873000D03*
%TO.P,SW1,2*%
%TO.N,Net-(R2-Pad2)*%
X147151000Y-76849000D03*
%TO.P,SW1,1*%
%TO.N,GND*%
X152127000Y-79722000D03*
%TO.P,SW1,6*%
%TO.N,Net-(R6-Pad2)*%
X152127000Y-58278000D03*
%TO.P,SW1,5*%
%TO.N,Net-(R5-Pad2)*%
X147151000Y-61151000D03*
%TO.P,SW1,4*%
%TO.N,Net-(R4-Pad2)*%
X144278000Y-66127000D03*
%TO.P,SW1,9*%
%TO.N,Net-(R9-Pad2)*%
X165722000Y-66127000D03*
%TO.P,SW1,8*%
%TO.N,Net-(R8-Pad2)*%
X162849000Y-61151000D03*
%TO.P,SW1,7*%
%TO.N,Net-(R7-Pad2)*%
X157873000Y-58278000D03*
%TO.P,SW1,10*%
%TO.N,Net-(R10-Pad2)*%
X165722000Y-71873000D03*
%TO.P,SW1,11*%
%TO.N,Net-(R11-Pad2)*%
X162849000Y-76849000D03*
%TO.P,SW1,12*%
%TO.N,Net-(R12-Pad2)*%
X157873000Y-79722000D03*
%TO.P,SW1,13*%
%TO.N,/OUT*%
X152277500Y-71722500D03*
%TD*%
D11*
%TO.P,J1,3*%
%TO.N,VCC*%
X162000000Y-86000000D03*
%TO.P,J1,2*%
%TO.N,/OUT*%
X155000000Y-86000000D03*
%TO.P,J1,1*%
%TO.N,GND*%
X148000000Y-86000000D03*
%TD*%
D12*
%TO.P,R12,2*%
%TO.N,Net-(R12-Pad2)*%
X155100000Y-76000000D03*
%TO.P,R12,1*%
%TO.N,GND*%
X152900000Y-76000000D03*
%TD*%
%TO.P,R11,2*%
%TO.N,Net-(R11-Pad2)*%
X163100000Y-74000000D03*
%TO.P,R11,1*%
%TO.N,GND*%
X160900000Y-74000000D03*
%TD*%
%TO.P,R10,2*%
%TO.N,Net-(R10-Pad2)*%
X163100000Y-70000000D03*
%TO.P,R10,1*%
%TO.N,GND*%
X160900000Y-70000000D03*
%TD*%
%TO.P,R9,2*%
%TO.N,Net-(R9-Pad2)*%
X162100000Y-67000000D03*
%TO.P,R9,1*%
%TO.N,GND*%
X159900000Y-67000000D03*
%TD*%
D13*
%TO.P,R8,2*%
%TO.N,Net-(R8-Pad2)*%
X160000000Y-61900000D03*
%TO.P,R8,1*%
%TO.N,GND*%
X160000000Y-64100000D03*
%TD*%
%TO.P,R7,2*%
%TO.N,Net-(R7-Pad2)*%
X157000000Y-61900000D03*
%TO.P,R7,1*%
%TO.N,GND*%
X157000000Y-64100000D03*
%TD*%
%TO.P,R6,2*%
%TO.N,Net-(R6-Pad2)*%
X153000000Y-61900000D03*
%TO.P,R6,1*%
%TO.N,GND*%
X153000000Y-64100000D03*
%TD*%
%TO.P,R5,2*%
%TO.N,Net-(R5-Pad2)*%
X150000000Y-61900000D03*
%TO.P,R5,1*%
%TO.N,GND*%
X150000000Y-64100000D03*
%TD*%
D12*
%TO.P,R4,2*%
%TO.N,Net-(R4-Pad2)*%
X147900000Y-67000000D03*
%TO.P,R4,1*%
%TO.N,GND*%
X150100000Y-67000000D03*
%TD*%
%TO.P,R3,2*%
%TO.N,Net-(R3-Pad2)*%
X146900000Y-70000000D03*
%TO.P,R3,1*%
%TO.N,GND*%
X149100000Y-70000000D03*
%TD*%
%TO.P,R2,2*%
%TO.N,Net-(R2-Pad2)*%
X146900000Y-74000000D03*
%TO.P,R2,1*%
%TO.N,GND*%
X149100000Y-74000000D03*
%TD*%
%TO.P,R1,2*%
%TO.N,/OUT*%
X155900000Y-72000000D03*
%TO.P,R1,1*%
%TO.N,VCC*%
X158100000Y-72000000D03*
%TD*%
D14*
%TO.N,/OUT*%
X152555000Y-72000000D02*
X152277500Y-71722500D01*
X155900000Y-72000000D02*
X152555000Y-72000000D01*
X155900000Y-73900000D02*
X155900000Y-72000000D01*
X160000000Y-78000000D02*
X155900000Y-73900000D01*
X160000000Y-83000000D02*
X160000000Y-78000000D01*
X157000000Y-86000000D02*
X160000000Y-83000000D01*
X155000000Y-86000000D02*
X157000000Y-86000000D01*
%TO.N,GND*%
X149278000Y-79722000D02*
X152127000Y-79722000D01*
X148000000Y-81000000D02*
X149278000Y-79722000D01*
X148000000Y-86000000D02*
X148000000Y-81000000D01*
X149100000Y-70000000D02*
X149100000Y-74000000D01*
X160000000Y-64100000D02*
X157000000Y-64100000D01*
X157000000Y-64100000D02*
X153000000Y-64100000D01*
X153000000Y-64100000D02*
X149900000Y-64100000D01*
X150000000Y-64100000D02*
X149900000Y-64100000D01*
X150000000Y-66900000D02*
X150100000Y-67000000D01*
X150000000Y-64100000D02*
X150000000Y-66900000D01*
X160000000Y-66900000D02*
X159900000Y-67000000D01*
X160000000Y-64100000D02*
X160000000Y-66900000D01*
X150100000Y-67000000D02*
X150100000Y-67900000D01*
X149100000Y-68900000D02*
X149100000Y-70000000D01*
X150100000Y-67900000D02*
X149100000Y-68900000D01*
X159900000Y-67000000D02*
X159900000Y-67900000D01*
X160900000Y-68900000D02*
X160900000Y-70000000D01*
X159900000Y-67900000D02*
X160900000Y-68900000D01*
X160900000Y-70000000D02*
X160900000Y-74000000D01*
X149100000Y-75100000D02*
X150000000Y-76000000D01*
X149100000Y-74000000D02*
X149100000Y-75100000D01*
X150000000Y-76000000D02*
X152900000Y-76000000D01*
X152900000Y-78949000D02*
X152127000Y-79722000D01*
X152900000Y-76000000D02*
X152900000Y-78949000D01*
%TO.N,VCC*%
X161000000Y-78000000D02*
X161000000Y-81000000D01*
X161000000Y-81000000D02*
X162000000Y-82000000D01*
X162000000Y-82000000D02*
X162000000Y-86000000D01*
X158100000Y-75100000D02*
X158100000Y-72000000D01*
X161000000Y-78000000D02*
X158100000Y-75100000D01*
%TO.N,Net-(R2-Pad2)*%
X146900000Y-76598000D02*
X147151000Y-76849000D01*
X146900000Y-74000000D02*
X146900000Y-76598000D01*
%TO.N,Net-(R3-Pad2)*%
X146151000Y-70000000D02*
X146900000Y-70000000D01*
X144278000Y-71873000D02*
X146151000Y-70000000D01*
%TO.N,Net-(R4-Pad2)*%
X145151000Y-67000000D02*
X144278000Y-66127000D01*
X147900000Y-67000000D02*
X145151000Y-67000000D01*
%TO.N,Net-(R5-Pad2)*%
X147900000Y-61900000D02*
X147151000Y-61151000D01*
X149900000Y-61900000D02*
X147900000Y-61900000D01*
%TO.N,Net-(R6-Pad2)*%
X153000000Y-59151000D02*
X152127000Y-58278000D01*
X153000000Y-61900000D02*
X153000000Y-59151000D01*
%TO.N,Net-(R7-Pad2)*%
X157000000Y-59151000D02*
X157873000Y-58278000D01*
X157000000Y-61900000D02*
X157000000Y-59151000D01*
%TO.N,Net-(R8-Pad2)*%
X162100000Y-61900000D02*
X162849000Y-61151000D01*
X160000000Y-61900000D02*
X162100000Y-61900000D01*
%TO.N,Net-(R9-Pad2)*%
X164849000Y-67000000D02*
X165722000Y-66127000D01*
X162100000Y-67000000D02*
X164849000Y-67000000D01*
%TO.N,Net-(R10-Pad2)*%
X163849000Y-70000000D02*
X165722000Y-71873000D01*
X163100000Y-70000000D02*
X163849000Y-70000000D01*
%TO.N,Net-(R11-Pad2)*%
X163100000Y-76598000D02*
X162849000Y-76849000D01*
X163100000Y-74000000D02*
X163100000Y-76598000D01*
%TO.N,Net-(R12-Pad2)*%
X155100000Y-76949000D02*
X157873000Y-79722000D01*
X155100000Y-76000000D02*
X155100000Y-76949000D01*
%TD*%
M02*
