%TF.GenerationSoftware,KiCad,Pcbnew,5.1.10*%
%TF.CreationDate,2022-02-19T21:26:53-05:00*%
%TF.ProjectId,selector_switch,73656c65-6374-46f7-925f-737769746368,rev?*%
%TF.SameCoordinates,Original*%
%TF.FileFunction,Soldermask,Bot*%
%TF.FilePolarity,Negative*%
%FSLAX46Y46*%
G04 Gerber Fmt 4.6, Leading zero omitted, Abs format (unit mm)*
G04 Created by KiCad (PCBNEW 5.1.10) date 2022-02-19 21:26:53*
%MOMM*%
%LPD*%
G01*
G04 APERTURE LIST*
%ADD10C,3.000000*%
%ADD11O,3.500000X4.500000*%
%ADD12R,1.200000X0.900000*%
%ADD13R,0.900000X1.200000*%
G04 APERTURE END LIST*
D10*
%TO.C,SW1*%
X144278000Y-71873000D03*
X147151000Y-76849000D03*
X152127000Y-79722000D03*
X152127000Y-58278000D03*
X147151000Y-61151000D03*
X144278000Y-66127000D03*
X165722000Y-66127000D03*
X162849000Y-61151000D03*
X157873000Y-58278000D03*
X165722000Y-71873000D03*
X162849000Y-76849000D03*
X157873000Y-79722000D03*
X152277500Y-71722500D03*
%TD*%
D11*
%TO.C,J1*%
X162000000Y-86000000D03*
X155000000Y-86000000D03*
X148000000Y-86000000D03*
%TD*%
D12*
%TO.C,R12*%
X155100000Y-76000000D03*
X152900000Y-76000000D03*
%TD*%
%TO.C,R11*%
X163100000Y-74000000D03*
X160900000Y-74000000D03*
%TD*%
%TO.C,R10*%
X163100000Y-70000000D03*
X160900000Y-70000000D03*
%TD*%
%TO.C,R9*%
X162100000Y-67000000D03*
X159900000Y-67000000D03*
%TD*%
D13*
%TO.C,R8*%
X160000000Y-61900000D03*
X160000000Y-64100000D03*
%TD*%
%TO.C,R7*%
X157000000Y-61900000D03*
X157000000Y-64100000D03*
%TD*%
%TO.C,R6*%
X153000000Y-61900000D03*
X153000000Y-64100000D03*
%TD*%
%TO.C,R5*%
X150000000Y-61900000D03*
X150000000Y-64100000D03*
%TD*%
D12*
%TO.C,R4*%
X147900000Y-67000000D03*
X150100000Y-67000000D03*
%TD*%
%TO.C,R3*%
X146900000Y-70000000D03*
X149100000Y-70000000D03*
%TD*%
%TO.C,R2*%
X146900000Y-74000000D03*
X149100000Y-74000000D03*
%TD*%
%TO.C,R1*%
X155900000Y-72000000D03*
X158100000Y-72000000D03*
%TD*%
M02*
