%TF.GenerationSoftware,KiCad,Pcbnew,(6.0.5)*%
%TF.CreationDate,2022-05-19T01:25:15-04:00*%
%TF.ProjectId,selector_switch,73656c65-6374-46f7-925f-737769746368,rev?*%
%TF.SameCoordinates,Original*%
%TF.FileFunction,Legend,Top*%
%TF.FilePolarity,Positive*%
%FSLAX46Y46*%
G04 Gerber Fmt 4.6, Leading zero omitted, Abs format (unit mm)*
G04 Created by KiCad (PCBNEW (6.0.5)) date 2022-05-19 01:25:15*
%MOMM*%
%LPD*%
G01*
G04 APERTURE LIST*
%ADD10C,0.150000*%
%ADD11C,0.300000*%
%ADD12O,3.500000X4.500000*%
G04 APERTURE END LIST*
D10*
X153690476Y-68452380D02*
X154261904Y-68452380D01*
X153976190Y-69452380D02*
X153976190Y-68452380D01*
X154785714Y-68452380D02*
X154976190Y-68452380D01*
X155071428Y-68500000D01*
X155166666Y-68595238D01*
X155214285Y-68785714D01*
X155214285Y-69119047D01*
X155166666Y-69309523D01*
X155071428Y-69404761D01*
X154976190Y-69452380D01*
X154785714Y-69452380D01*
X154690476Y-69404761D01*
X154595238Y-69309523D01*
X154547619Y-69119047D01*
X154547619Y-68785714D01*
X154595238Y-68595238D01*
X154690476Y-68500000D01*
X154785714Y-68452380D01*
X155642857Y-69452380D02*
X155642857Y-68452380D01*
X156023809Y-68452380D01*
X156119047Y-68500000D01*
X156166666Y-68547619D01*
X156214285Y-68642857D01*
X156214285Y-68785714D01*
X156166666Y-68880952D01*
X156119047Y-68928571D01*
X156023809Y-68976190D01*
X155642857Y-68976190D01*
%TO.C,SW1*%
X158916666Y-59952380D02*
X159583333Y-59952380D01*
X159154761Y-60952380D01*
X153285714Y-77952380D02*
X152714285Y-77952380D01*
X153000000Y-77952380D02*
X153000000Y-76952380D01*
X152904761Y-77095238D01*
X152809523Y-77190476D01*
X152714285Y-77238095D01*
X144440476Y-68285714D02*
X144440476Y-68952380D01*
X144202380Y-67904761D02*
X143964285Y-68619047D01*
X144583333Y-68619047D01*
X150261904Y-73666666D02*
X150738095Y-73666666D01*
X150166666Y-73952380D02*
X150500000Y-72952380D01*
X150833333Y-73952380D01*
X165559523Y-70202380D02*
X164988095Y-70202380D01*
X165273809Y-70202380D02*
X165273809Y-69202380D01*
X165178571Y-69345238D01*
X165083333Y-69440476D01*
X164988095Y-69488095D01*
X166178571Y-69202380D02*
X166273809Y-69202380D01*
X166369047Y-69250000D01*
X166416666Y-69297619D01*
X166464285Y-69392857D01*
X166511904Y-69583333D01*
X166511904Y-69821428D01*
X166464285Y-70011904D01*
X166416666Y-70107142D01*
X166369047Y-70154761D01*
X166273809Y-70202380D01*
X166178571Y-70202380D01*
X166083333Y-70154761D01*
X166035714Y-70107142D01*
X165988095Y-70011904D01*
X165940476Y-69821428D01*
X165940476Y-69583333D01*
X165988095Y-69392857D01*
X166035714Y-69297619D01*
X166083333Y-69250000D01*
X166178571Y-69202380D01*
D11*
X168500000Y-69000000D02*
G75*
G03*
X168500000Y-69000000I-13500000J0D01*
G01*
%TD*%
D12*
%TO.C,J1*%
X148000000Y-86000000D03*
X155000000Y-86000000D03*
X162000000Y-86000000D03*
%TD*%
M02*
